<?xml version="1.0" encoding="utf-8"?>
<!-- Generator: Adobe Illustrator 20.1.0, SVG Export Plug-In . SVG Version: 6.00 Build 0)  -->
<svg version="1.1" xmlns="http://www.w3.org/2000/svg" xmlns:xlink="http://www.w3.org/1999/xlink" x="0px" y="0px"
	 viewBox="0 0 960 560" style="enable-background:new 0 0 960 560;" xml:space="preserve">
<style type="text/css">
	.st0{fill:#F7EA4F;}
	.st1{fill:#FFF999;}
	.st2{fill:#A39B4B;}
	.st3{fill:#999670;}
	.st4{fill:#F4ED95;}
	.st5{fill:#F9EF7A;}
	.st6{fill:#F4EEA8;}
	.st7{fill:#F7EC9C;}
	.st8{fill:#F4E989;}
	.st9{fill:#E5DE9E;}
	.st10{fill:#F7EA72;}
	.st11{fill:#F7E99A;}
	.st12{fill:#D3CA76;}
</style>
<g id="lines">
	<g>
		<path d="M173.3,377.8c0,0,0.6,0.8,1.6,2.3c0.9,1.5,2.1,3.6,3.3,6.2c0.6,1.3,1.2,2.8,1.7,4.4c0.5,1.6,0.8,3.3,1.2,5.1
			c0.4,1.8,0.8,3.6,1.6,5.4c0.7,1.8,1.6,3.5,2.5,5.2c0.9,1.7,1.9,3.4,2.7,5.2c0.8,1.7,1.6,3.4,2.3,5.1c0.7,1.7,1.4,3.3,1.9,4.9
			c0.5,1.6,1,3.1,1.4,4.5c0.4,1.4,0.7,2.7,1,3.9c0.3,1.2,0.5,2.2,0.6,3c0.3,1.7,0.4,2.7,0.4,2.7l-0.4,0.1c0,0-0.6-0.8-1.5-2.3
			c-0.5-0.7-1-1.6-1.6-2.7c-0.6-1-1.2-2.2-1.8-3.5c-0.6-1.3-1.3-2.7-2-4.3c-0.7-1.5-1.3-3.2-1.8-4.9c-0.6-1.7-1.1-3.5-1.7-5.3
			c-0.6-1.8-1-3.7-1.4-5.6c-0.4-1.9-0.9-3.8-1.6-5.6c-0.6-1.8-1.5-3.5-2.4-5.1c-0.9-1.6-1.8-3.1-2.5-4.6c-0.7-1.5-1.2-3-1.6-4.4
			c-0.9-2.8-1.4-5.2-1.7-6.9C173,379,173,378,173,378L173.3,377.8z"/>
	</g>
	<g>
		<path d="M190.4,364.7c0,0,0.9,0.1,2.4,0.5c1.5,0.4,3.6,1,6,2c1.2,0.5,2.5,1.1,3.8,1.8c1.3,0.7,2.6,1.7,3.9,2.7
			c1.3,1,2.8,1.9,4.3,2.7c1.5,0.8,3.2,1.4,4.9,1.9c1.7,0.5,3.4,1,5,1.7c1.6,0.7,3.2,1.3,4.7,2c1.5,0.6,2.9,1.3,4.2,2.1
			c1.3,0.7,2.5,1.5,3.6,2.2c1.1,0.7,2.1,1.4,3,2c0.9,0.6,1.6,1.2,2.2,1.7c1.2,1,1.9,1.6,1.9,1.6l-0.2,0.4c0,0-0.9-0.1-2.4-0.5
			c-0.8-0.2-1.7-0.4-2.7-0.8c-1-0.3-2.2-0.7-3.4-1.2c-1.2-0.5-2.6-1-3.9-1.6c-1.4-0.6-2.8-1.3-4.2-2.1c-1.4-0.8-2.9-1.6-4.4-2.5
			c-1.5-0.9-2.9-1.9-4.4-2.9c-1.4-1-2.9-2-4.4-2.8c-1.5-0.8-3.1-1.4-4.7-1.8c-1.6-0.5-3.2-0.9-4.5-1.5c-1.4-0.6-2.6-1.3-3.8-1.9
			c-2.3-1.3-4.1-2.6-5.3-3.6c-1.2-1-1.9-1.6-1.9-1.6L190.4,364.7z"/>
	</g>
	<g>
		<path d="M143.1,135.8c0,0,0.7,0.4,1.9,1.1c1.3,0.7,3.1,1.8,5.4,3.1c2.3,1.4,5.1,3,8.2,5c3.2,2,6.7,4.2,10.5,6.7
			c3.8,2.5,8,5.2,12.3,8.3c4.3,3,8.7,6.4,13.3,9.9c4.6,3.5,9.4,6.9,14.3,10.3c2.5,1.7,5,3.3,7.6,5c2.6,1.6,5.2,3.2,7.8,4.9
			c5.2,3.2,10.4,6.4,15.5,9.7c5,3.3,10,6.5,14.8,9.7c2.4,1.6,4.7,3.1,7,4.7c2.3,1.5,4.5,3.1,6.7,4.6c4.3,3,8.3,5.9,12.1,8.6
			c3.7,2.7,7.1,5.2,10.1,7.4c3,2.2,5.6,4.2,7.7,5.8c2.1,1.7,3.8,2.9,4.9,3.8c1.1,0.9,1.7,1.4,1.7,1.4l-0.2,0.3c0,0-0.7-0.4-1.9-1.1
			c-1.2-0.7-3.1-1.8-5.4-3.1c-2.3-1.4-5.1-3-8.3-5c-3.2-1.9-6.7-4.2-10.6-6.6c-3.9-2.5-8-5.2-12.4-8.1c-2.2-1.4-4.4-2.9-6.7-4.5
			c-2.3-1.6-4.6-3.1-6.9-4.8c-4.7-3.3-9.5-6.7-14.4-10.2c-4.9-3.5-9.8-7.2-14.7-10.8c-2.5-1.8-4.9-3.6-7.4-5.4
			c-2.5-1.8-4.9-3.5-7.4-5.2c-5-3.4-10-6.6-14.9-9.6c-4.9-3-9.7-5.8-14-8.7c-4.4-2.9-8.4-5.7-12.2-8.4c-3.7-2.7-7.1-5.1-10.1-7.3
			c-3-2.2-5.6-4.2-7.7-5.8c-2.1-1.6-3.8-3-4.9-3.9c-1.1-0.9-1.7-1.4-1.7-1.4L143.1,135.8z"/>
	</g>
	<g>
		<path d="M387.7,82.1c0,0-0.3,0.7-0.8,1.9c-0.5,1.3-1.2,3.1-2.2,5.4c-1,2.3-2.2,5.1-3.7,8.3c-1.4,3.2-3.1,6.8-5,10.7
			c-1.9,3.9-3.9,8.1-6.2,12.4c-2.3,4.4-4.9,8.9-7.6,13.5c-2.7,4.7-5.4,9.6-7.9,14.6c-1.3,2.5-2.5,5.1-3.7,7.7
			c-1.2,2.6-2.4,5.2-3.6,7.8c-2.3,5.2-4.7,10.5-7.1,15.6c-2.5,5.1-4.9,10.1-7.2,14.9c-1.2,2.4-2.4,4.8-3.5,7.1
			c-1.1,2.3-2.3,4.6-3.5,6.8c-2.3,4.4-4.5,8.5-6.5,12.3c-2.1,3.8-4,7.2-5.7,10.3c-1.7,3-3.3,5.7-4.5,7.9c-1.3,2.2-2.3,3.9-3,5
			c-0.7,1.1-1.1,1.8-1.1,1.8l-0.4-0.2c0,0,0.3-0.7,0.8-1.9c0.5-1.2,1.3-3.1,2.3-5.4c1-2.3,2.2-5.1,3.6-8.3c1.4-3.2,3.1-6.8,4.9-10.7
			c1.8-3.9,3.8-8.1,6-12.5c1.1-2.2,2.2-4.5,3.4-6.8c1.2-2.3,2.4-4.7,3.6-7c2.5-4.8,5.1-9.7,7.8-14.7c2.6-5,5.5-10,8.3-15
			c1.4-2.5,2.8-5,4.2-7.5c1.4-2.5,2.7-5,4-7.6c2.6-5,4.9-10.1,7.1-15c2.2-4.9,4.2-9.7,6.4-14.2c2.1-4.4,4.3-8.6,6.3-12.4
			c2-3.8,3.9-7.3,5.6-10.3c1.7-3.1,3.2-5.7,4.5-7.9c1.3-2.2,2.3-3.9,3-5c0.7-1.1,1.1-1.8,1.1-1.8L387.7,82.1z"/>
	</g>
	<g>
		<path d="M166.9,347.1c0,0,0.5-0.5,1.4-1.3c0.9-0.8,2.3-2.1,4.1-3.6c1.8-1.5,4-3.3,6.5-5.4c2.5-2.1,5.4-4.3,8.6-6.8
			c3.2-2.4,6.6-5.1,10.4-7.7c3.7-2.7,7.8-5.3,12-8c4.2-2.7,8.5-5.7,12.7-8.8c2.1-1.6,4.2-3.2,6.3-4.8c2.1-1.7,4.2-3.3,6.2-5
			c4.1-3.4,8.3-6.8,12.4-10c4.2-3.2,8.3-6.3,12.3-9.4c2-1.5,4-3,5.9-4.4c1.9-1.4,3.8-2.8,5.7-4.1c3.7-2.7,7.3-5.1,10.6-7.4
			c3.3-2.3,6.4-4.3,9.1-6.1c2.7-1.8,5.1-3.3,7.1-4.6c2-1.2,3.6-2.2,4.6-2.9c1.1-0.6,1.7-1,1.7-1l0.2,0.3c0,0-0.5,0.4-1.4,1.3
			c-1,0.8-2.3,2-4.1,3.6c-1.8,1.5-4,3.3-6.5,5.4c-2.5,2.1-5.4,4.4-8.5,6.9c-3.2,2.5-6.6,5.1-10.2,7.9c-1.8,1.4-3.7,2.8-5.7,4.2
			c-1.9,1.4-3.9,2.9-6,4.3c-4.1,2.9-8.3,5.9-12.6,8.9c-4.3,3-8.8,6-13.2,8.9c-2.2,1.5-4.4,3-6.7,4.5c-2.2,1.5-4.4,3-6.5,4.6
			c-4.2,3.1-8.3,6.3-12.2,9.5c-3.9,3.2-7.6,6.3-11.2,9.1c-3.6,2.8-7.2,5.3-10.5,7.6c-3.3,2.3-6.3,4.4-9,6.2
			c-2.7,1.8-5.1,3.4-7.1,4.6c-2,1.3-3.6,2.2-4.6,2.9c-1.1,0.6-1.7,1-1.7,1L166.9,347.1z"/>
	</g>
	<g>
		<path d="M163.1,347.3c0,0-0.2,1.4-0.8,3.7c-0.3,1.2-0.7,2.6-1.2,4.1c-0.5,1.6-1.1,3.4-1.8,5.3c-0.7,1.9-1.5,4-2.5,6.1
			c-1,2.1-2.2,4.3-3.5,6.5c-1.2,2.2-2.5,4.6-3.4,7.1c-1,2.5-1.9,5.1-2.7,7.7c-0.8,2.6-1.6,5.2-2.5,7.8c-0.9,2.5-1.8,5-2.7,7.4
			c-0.9,2.4-1.8,4.7-2.8,6.8c-1,2.1-1.9,4.1-2.8,6c-0.9,1.8-1.8,3.5-2.6,5c-0.8,1.5-1.5,2.7-2.1,3.8c-1.2,2.1-2,3.2-2,3.2l-0.4-0.2
			c0,0,0.3-1.4,0.9-3.7c0.3-1.2,0.7-2.6,1.2-4.2c0.5-1.6,1.1-3.4,1.7-5.3c0.7-1.9,1.4-4,2.2-6.2c0.8-2.2,1.8-4.5,2.8-6.8
			c1-2.3,2.2-4.7,3.3-7.1c1.1-2.4,2.4-4.8,3.7-7.2c1.3-2.4,2.5-4.8,3.6-7.3c1.1-2.5,1.9-5,2.6-7.4c0.7-2.5,1.4-4.9,2.2-7.1
			c0.8-2.2,1.7-4.2,2.6-6.1c0.9-1.9,1.7-3.5,2.5-5c0.8-1.5,1.5-2.7,2.1-3.8c1.2-2.1,2-3.2,2-3.2L163.1,347.3z"/>
	</g>
	<g>
		<path d="M60.1,89.8c0,0,1.1,0.3,3,1.1c1.9,0.7,4.5,1.9,7.6,3.5c1.5,0.8,3.1,1.7,4.8,2.8c1.6,1.1,3.3,2.4,5,3.8
			c1.7,1.4,3.5,2.7,5.4,3.8c1.9,1.1,4,2.1,6.1,3.1c2.1,0.9,4.2,1.9,6.2,2.9c2,1,4,2.1,5.8,3.1c1.9,1,3.7,2.1,5.3,3.1
			c1.7,1.1,3.2,2.1,4.6,3.1c1.4,1,2.7,1.9,3.8,2.8c1.1,0.9,2.1,1.6,2.8,2.3c1.6,1.3,2.4,2.1,2.4,2.1l-0.2,0.3c0,0-1.1-0.3-3-1.1
			c-0.9-0.4-2.1-0.8-3.4-1.4c-1.3-0.6-2.7-1.2-4.3-2c-1.5-0.8-3.2-1.6-4.9-2.6c-1.7-0.9-3.5-2-5.3-3.2c-1.8-1.2-3.7-2.4-5.5-3.7
			c-1.9-1.2-3.7-2.7-5.5-4.1c-1.8-1.4-3.7-2.8-5.6-3.9c-1.9-1.2-3.9-2.1-5.9-3c-2-0.8-3.9-1.6-5.7-2.6c-1.7-0.9-3.3-1.9-4.7-2.9
			c-2.9-1.9-5.1-3.7-6.7-5c-1.6-1.3-2.4-2.2-2.4-2.2L60.1,89.8z"/>
	</g>
	<g>
		<path d="M129.7,53c0,0,0.3,1.2,0.6,3.2c0.3,2,0.7,4.9,0.9,8.4c0.1,1.7,0.2,3.6,0.1,5.6c-0.1,2-0.4,4.1-0.7,6.3
			c-0.3,2.2-0.5,4.4-0.5,6.7c0,2.3,0.2,4.6,0.5,6.9c0.3,2.3,0.6,4.7,0.7,6.9c0.1,2.3,0.2,4.5,0.3,6.7c0.1,2.2,0.1,4.3,0,6.3
			c-0.1,2-0.2,3.9-0.3,5.6c-0.2,1.7-0.3,3.3-0.5,4.8c-0.2,1.4-0.3,2.7-0.5,3.7c-0.3,2-0.6,3.2-0.6,3.2h-0.4c0,0-0.3-1.2-0.6-3.2
			c-0.2-1-0.3-2.3-0.5-3.7c-0.2-1.4-0.3-3-0.5-4.8c-0.1-1.7-0.3-3.6-0.3-5.6c-0.1-2-0.1-4.1,0-6.3c0.1-2.2,0.2-4.4,0.3-6.7
			c0.1-2.3,0.4-4.6,0.7-6.9c0.3-2.3,0.5-4.7,0.5-6.9c0-2.3-0.2-4.5-0.5-6.7c-0.3-2.2-0.6-4.3-0.7-6.3c-0.1-2,0-3.9,0.1-5.6
			c0.2-3.5,0.5-6.4,0.9-8.4c0.3-2,0.6-3.2,0.6-3.2H129.7z"/>
	</g>
	<g>
		<path d="M173,67.1c0,0-0.4,1.1-1.3,3c-0.9,1.8-2.3,4.4-4.2,7.3c-1,1.5-2,3-3.2,4.6c-1.2,1.6-2.7,3.1-4.2,4.7
			c-1.5,1.6-3,3.3-4.3,5.2c-1.3,1.9-2.5,3.9-3.6,5.9c-1.1,2-2.2,4.1-3.5,6c-1.2,1.9-2.5,3.8-3.7,5.6c-1.2,1.8-2.4,3.5-3.6,5.1
			c-1.2,1.6-2.4,3-3.5,4.4c-1.1,1.3-2.2,2.5-3.2,3.6c-1,1.1-1.8,2-2.6,2.7c-1.4,1.5-2.4,2.2-2.4,2.2l-0.3-0.2c0,0,0.4-1.1,1.4-3
			c0.5-0.9,1-2,1.7-3.3c0.7-1.3,1.5-2.6,2.4-4.1c0.9-1.5,1.9-3.1,3-4.8c1.1-1.7,2.3-3.4,3.7-5.1c1.3-1.7,2.7-3.5,4.2-5.3
			c1.4-1.8,3-3.5,4.6-5.2c1.6-1.7,3.1-3.5,4.4-5.4c1.4-1.8,2.5-3.8,3.5-5.7c1-1.9,2-3.8,3.1-5.5c1.1-1.7,2.3-3.2,3.3-4.5
			c2.2-2.7,4.2-4.9,5.6-6.4c1.5-1.5,2.4-2.2,2.4-2.2L173,67.1z"/>
	</g>
	<g>
		<path d="M387.7,82.2c0,0-0.6,1-1.8,2.4c-1.2,1.5-3,3.5-5.4,5.8c-1.2,1.1-2.5,2.3-3.9,3.5c-1.5,1.2-3.2,2.2-4.9,3.3
			c-1.7,1.1-3.4,2.3-5,3.8c-1.6,1.4-3.1,3-4.6,4.6c-1.5,1.6-2.9,3.3-4.4,4.7c-1.5,1.5-3,3-4.5,4.3c-1.5,1.4-3,2.7-4.4,3.9
			c-1.4,1.2-2.9,2.2-4.2,3.2c-1.3,1-2.5,1.8-3.7,2.6c-1.1,0.7-2.1,1.4-2.9,1.9c-1.6,1-2.6,1.5-2.6,1.5l-0.3-0.3c0,0,0.6-0.9,1.9-2.4
			c0.6-0.7,1.4-1.6,2.3-2.6c0.9-1,1.9-2.1,3-3.3c1.2-1.2,2.4-2.4,3.8-3.7c1.4-1.3,2.8-2.6,4.4-3.8c1.6-1.3,3.2-2.6,4.9-3.9
			c1.7-1.3,3.5-2.5,5.3-3.7c1.8-1.2,3.6-2.5,5.2-3.9c1.6-1.4,3.1-2.9,4.4-4.5c1.3-1.6,2.6-3.1,4-4.4c1.3-1.3,2.7-2.4,4-3.4
			c2.6-2,4.8-3.5,6.5-4.5c1.6-1,2.7-1.5,2.7-1.5L387.7,82.2z"/>
	</g>
	<g>
		<path d="M128.2,122c0,0,0.2,0.9,0.6,2.5c0.4,1.6,0.9,4,1.5,7.1c0.6,3.1,1.4,6.8,2.2,11c0.8,4.3,1.7,9.1,2.6,14.3
			c0.9,5.3,1.8,11,2.7,17c0.9,6.1,1.5,12.5,2.3,19.1c0.7,6.6,1.6,13.5,2.7,20.4c0.5,3.5,1.1,6.9,1.8,10.4c0.7,3.5,1.3,7,2,10.5
			c1.4,7,2.7,14,3.9,20.9c1.2,6.9,2.3,13.7,3.5,20.3c0.6,3.3,1.1,6.5,1.6,9.7c0.5,3.2,1,6.3,1.4,9.3c0.9,6.1,1.6,11.8,2.3,17.1
			c0.7,5.3,1.3,10.2,1.8,14.5c0.5,4.3,0.9,8.1,1.2,11.2c0.3,3.1,0.5,5.5,0.7,7.2c0.1,1.7,0.2,2.6,0.2,2.6l-0.4,0.1
			c0,0-0.2-0.9-0.6-2.5c-0.4-1.6-0.9-4-1.5-7.1c-0.6-3.1-1.4-6.8-2.2-11c-0.8-4.3-1.7-9.1-2.7-14.3c-0.9-5.3-2-11-2.9-17
			c-0.5-3-1-6.1-1.5-9.3c-0.5-3.2-1-6.4-1.4-9.7c-0.9-6.6-1.9-13.4-2.9-20.4c-1-6.9-1.8-14-2.6-21.1c-0.4-3.5-0.9-7.1-1.3-10.6
			c-0.5-3.5-1-7-1.5-10.5c-1.1-6.9-2.3-13.7-3.6-20.3c-1.3-6.6-2.6-12.9-3.6-18.9c-1-6-1.8-11.8-2.6-17.1
			c-0.7-5.3-1.4-10.1-1.9-14.5c-0.5-4.3-0.9-8.1-1.2-11.2c-0.3-3.1-0.5-5.5-0.7-7.2c-0.1-1.7-0.2-2.6-0.2-2.6L128.2,122z"/>
	</g>
	<g>
		<path d="M464.7,172.4c0,0,0.3,0.7,0.9,2c0.6,1.3,1.4,3.2,2.5,5.7c1,2.5,2.3,5.4,3.6,8.9c1.4,3.4,2.9,7.4,4.5,11.6
			c1.6,4.3,3.3,8.9,4.9,13.9c1.7,5,3.2,10.3,4.8,15.7c1.6,5.5,3.4,11.1,5.4,16.7c1,2.8,2.1,5.7,3.1,8.5c1.1,2.8,2.2,5.7,3.4,8.5
			c2.3,5.7,4.6,11.3,6.7,16.9c2.1,5.6,4.1,11.1,6.1,16.5c1,2.7,1.9,5.3,2.9,7.9c0.9,2.6,1.8,5.1,2.6,7.6c1.7,4.9,3.2,9.7,4.6,14
			c1.4,4.4,2.6,8.4,3.7,11.9c1.1,3.6,2,6.7,2.7,9.2c0.7,2.6,1.3,4.6,1.7,6c0.4,1.4,0.6,2.1,0.6,2.1l-0.4,0.1c0,0-0.3-0.7-0.9-2
			c-0.6-1.3-1.4-3.2-2.4-5.7c-1-2.5-2.3-5.4-3.7-8.9c-1.4-3.4-2.9-7.3-4.6-11.6c-1.6-4.3-3.4-8.9-5.2-13.8c-0.9-2.5-1.8-5-2.7-7.6
			c-0.9-2.6-1.8-5.2-2.7-7.9c-1.8-5.4-3.7-11-5.6-16.7c-1.9-5.7-3.6-11.5-5.4-17.4c-0.9-2.9-1.8-5.8-2.7-8.7
			c-0.9-2.9-1.9-5.8-2.9-8.6c-2-5.7-4.1-11.2-6.3-16.4c-2.2-5.3-4.3-10.4-6.1-15.3c-1.8-4.9-3.4-9.6-4.8-13.9
			c-1.4-4.3-2.7-8.3-3.8-11.9c-1.1-3.5-2-6.7-2.7-9.2c-0.7-2.6-1.3-4.6-1.6-6c-0.4-1.4-0.5-2.1-0.5-2.1L464.7,172.4z"/>
	</g>
	<g>
		<path d="M674.3,288.3c0,0-0.5,0.3-1.5,0.9c-1,0.6-2.5,1.5-4.4,2.6c-1.9,1.1-4.2,2.4-6.9,3.8c-2.7,1.4-5.8,3-9.1,4.7
			c-3.4,1.6-7,3.5-11,5.2c-3.9,1.8-8.2,3.4-12.5,5.1c-4.4,1.7-8.8,3.6-13.3,5.7c-2.2,1.1-4.5,2.2-6.7,3.3c-2.2,1.2-4.4,2.3-6.6,3.5
			c-4.4,2.4-8.8,4.8-13.2,7c-4.4,2.2-8.8,4.3-13,6.4c-2.1,1.1-4.2,2-6.2,3c-2,1-4,1.9-6,2.8c-3.9,1.8-7.7,3.4-11.1,4.9
			c-3.5,1.5-6.6,2.8-9.5,3.9c-2.8,1.1-5.3,2.1-7.4,2.9c-2.1,0.8-3.7,1.4-4.8,1.8c-1.1,0.4-1.7,0.6-1.7,0.6l-0.2-0.4
			c0,0,0.5-0.3,1.6-0.9c1-0.6,2.5-1.4,4.4-2.5c1.9-1.1,4.2-2.4,6.9-3.8c2.7-1.5,5.7-3,9.1-4.8c3.3-1.7,7-3.6,10.8-5.4
			c1.9-1,3.9-1.9,6-2.9c2-1,4.1-1.9,6.3-2.9c4.3-1.9,8.7-3.9,13.2-5.9c4.5-2,9.2-3.9,13.8-5.7c2.3-1,4.6-1.9,6.9-2.9
			c2.3-1,4.6-2,6.8-3c4.5-2.1,8.8-4.3,12.9-6.6c4.1-2.3,8.1-4.5,12-6.4c3.9-1.9,7.6-3.6,11-5.1c3.4-1.5,6.6-2.9,9.4-4
			c2.8-1.2,5.3-2.1,7.4-2.9c2.1-0.8,3.7-1.4,4.8-1.8c1.1-0.4,1.7-0.6,1.7-0.6L674.3,288.3z"/>
	</g>
	<g>
		<path d="M626.9,119c0,0-0.3,1-0.9,2.7c-0.6,1.8-1.5,4.4-2.7,7.7c-1.2,3.3-2.6,7.3-4.4,11.9c-1.7,4.6-3.7,9.7-5.9,15.3
			c-2.2,5.6-4.6,11.6-7.3,18c-0.7,1.6-1.4,3.2-2.1,4.8c-0.7,1.6-1.5,3.2-2.2,4.9c-1.5,3.3-3,6.7-4.6,10.1
			c-3.1,6.8-6.3,13.9-9.2,21.3c-1.5,3.7-3,7.3-4.4,11.1c-1.4,3.7-2.8,7.5-4.2,11.2c-2.8,7.5-5.6,15-8.5,22.4
			c-2.9,7.3-5.8,14.6-8.5,21.5c-1.4,3.5-2.8,6.9-4.1,10.3c-1.4,3.4-2.7,6.6-4.1,9.8c-2.7,6.4-5.3,12.3-7.7,17.8
			c-2.4,5.5-4.6,10.5-6.7,15c-2,4.4-3.8,8.3-5.3,11.5c-1.5,3.2-2.7,5.7-3.5,7.4c-0.8,1.7-1.3,2.6-1.3,2.6l-0.4-0.2
			c0,0,0.3-1,0.9-2.7c0.6-1.8,1.5-4.4,2.7-7.7c1.2-3.3,2.7-7.3,4.4-11.9c1.7-4.6,3.6-9.7,5.8-15.4c2.2-5.6,4.5-11.7,7.1-18.1
			c1.3-3.2,2.6-6.5,4-9.8c1.4-3.3,2.8-6.8,4.3-10.2c2.9-6.9,6-14.1,9.1-21.3c3.1-7.3,6.4-14.6,9.7-21.9c1.6-3.7,3.3-7.3,4.9-11
			c1.6-3.7,3.2-7.3,4.7-11c3-7.3,5.8-14.5,8.4-21.6c1.3-3.5,2.6-7,3.8-10.4c0.6-1.7,1.3-3.4,1.9-5c0.6-1.6,1.3-3.3,1.9-4.9
			c2.5-6.4,5.1-12.4,7.4-17.9c2.4-5.5,4.6-10.6,6.6-15c2-4.5,3.8-8.3,5.3-11.5c1.5-3.2,2.7-5.7,3.5-7.4c0.8-1.7,1.3-2.6,1.3-2.6
			L626.9,119z"/>
	</g>
	<g>
		<path d="M520.9,50.4c0,0,1.8,0.8,4.9,2.4c1.5,0.8,3.4,1.8,5.5,3c2.1,1.2,4.4,2.6,7,4.1c2.5,1.5,5.3,3.2,8,5.1
			c2.8,1.9,5.6,4.1,8.6,6.4c2.9,2.2,6,4.5,9.3,6.6c3.3,2.1,6.7,4.1,10.1,6c3.5,1.9,6.9,3.8,10.2,5.8c3.3,2,6.6,4,9.7,5.9
			c3.2,1.9,6.2,3.9,9,5.8c2.8,1.9,5.4,3.7,7.8,5.4c2.4,1.7,4.6,3.3,6.5,4.8c1.9,1.4,3.6,2.7,4.9,3.8c2.7,2.1,4.2,3.4,4.2,3.4
			l-0.2,0.3c0,0-1.8-0.8-4.9-2.4c-1.5-0.8-3.4-1.8-5.5-2.9c-2.1-1.2-4.5-2.5-7-4c-2.5-1.5-5.3-3.1-8.2-4.9c-2.9-1.8-5.9-3.7-8.9-5.8
			c-3-2.1-6.2-4.2-9.4-6.4c-3.2-2.2-6.3-4.6-9.5-6.9c-3.2-2.4-6.4-4.7-9.6-6.8c-3.2-2.1-6.6-4-9.8-5.8c-3.3-1.8-6.4-3.4-9.3-5.2
			c-2.9-1.8-5.5-3.6-8-5.2c-2.4-1.7-4.6-3.2-6.6-4.7c-1.9-1.4-3.6-2.7-5-3.8c-2.7-2.1-4.2-3.5-4.2-3.5L520.9,50.4z"/>
	</g>
	<g>
		<path d="M626.6,119.1c0,0-1.2-1.2-3.2-3.6c-1-1.2-2.2-2.6-3.5-4.2c-1.3-1.6-2.8-3.6-4.3-5.6c-1.5-2.1-3.2-4.4-4.8-6.9
			c-1.6-2.5-3.1-5.3-4.7-8.1c-1.6-2.8-3.3-5.7-5.3-8.5c-1.9-2.8-4.1-5.6-6.3-8.3c-2.2-2.7-4.4-5.4-6.4-8.1c-2-2.8-4-5.5-5.9-8.1
			c-1.9-2.6-3.7-5.2-5.3-7.7c-1.6-2.5-3.1-4.9-4.5-7.1c-1.3-2.2-2.6-4.3-3.6-6.1c-1.1-1.8-2-3.5-2.7-4.8c-1.5-2.7-2.2-4.3-2.2-4.3
			l0.3-0.2c0,0,1.2,1.3,3.2,3.6c1,1.2,2.2,2.6,3.5,4.2c1.3,1.6,2.8,3.5,4.4,5.6c1.6,2.1,3.3,4.3,5,6.7c1.7,2.4,3.5,5,5.3,7.7
			c1.8,2.7,3.6,5.6,5.4,8.4c1.9,2.9,3.6,5.9,5.3,8.9c1.7,3,3.5,6,5.5,8.8c1.9,2.8,4,5.5,6.1,8c2.1,2.5,4.1,4.9,5.9,7.3
			c1.8,2.4,3.3,4.8,4.7,7c1.4,2.2,2.7,4.2,3.7,6.1c1.1,1.8,2,3.4,2.7,4.8c1.4,2.7,2.2,4.3,2.2,4.3L626.6,119.1z"/>
	</g>
	<g>
		<path d="M626.9,118.9c0,0,0.3,0.6,0.7,1.8c0.5,1.2,1.1,3,1.9,5.2c0.8,2.3,1.8,5,2.8,8.2c1.1,3.2,2.2,6.8,3.4,10.7
			c1.2,4,2.5,8.2,3.6,12.8c1.2,4.6,2.2,9.4,3.3,14.5c1.1,5,2.4,10.2,3.9,15.4c0.7,2.6,1.5,5.2,2.3,7.8c0.9,2.6,1.7,5.2,2.6,7.8
			c1.7,5.2,3.5,10.4,5.1,15.6c1.6,5.2,3.1,10.3,4.6,15.2c0.8,2.5,1.4,4.9,2.1,7.3c0.7,2.4,1.3,4.7,1.9,7c1.2,4.6,2.3,8.9,3.3,12.9
			c1,4,1.9,7.7,2.6,10.9c0.7,3.3,1.4,6.1,1.8,8.5c0.5,2.4,0.9,4.2,1.1,5.5c0.2,1.3,0.4,1.9,0.4,1.9l-0.4,0.1c0,0-0.2-0.6-0.7-1.9
			c-0.4-1.2-1.1-3-1.9-5.3c-0.8-2.3-1.8-5-2.8-8.2c-1.1-3.2-2.2-6.8-3.5-10.7c-1.2-3.9-2.6-8.2-3.9-12.7c-0.7-2.3-1.4-4.6-2-7
			c-0.7-2.4-1.4-4.8-2-7.3c-1.3-5-2.6-10.1-4-15.4c-1.4-5.2-2.6-10.6-3.8-16c-0.6-2.7-1.3-5.3-1.9-8c-0.7-2.7-1.4-5.3-2.1-7.9
			c-1.4-5.2-3-10.3-4.7-15.2c-1.7-4.9-3.3-9.6-4.7-14.1c-1.4-4.5-2.5-8.8-3.5-12.8c-1-4-1.9-7.7-2.7-10.9c-0.8-3.3-1.4-6.1-1.9-8.5
			c-0.5-2.4-0.8-4.2-1.1-5.5c-0.2-1.3-0.3-2-0.3-2L626.9,118.9z"/>
	</g>
	<g>
		<path d="M724.4,174c0,0-0.5,1.9-1.6,5.2c-0.5,1.6-1.2,3.6-2,5.8c-0.8,2.2-1.8,4.7-2.9,7.5c-1.1,2.7-2.3,5.6-3.7,8.7
			c-1.4,3-3.1,6.1-4.9,9.4c-1.7,3.2-3.4,6.6-4.9,10.1c-1.5,3.5-2.9,7.2-4.2,10.8c-1.3,3.7-2.6,7.4-4,10.9c-1.4,3.6-2.9,7.1-4.2,10.4
			c-1.4,3.4-2.8,6.6-4.2,9.7c-1.4,3-2.8,5.9-4.1,8.5c-1.3,2.6-2.5,5-3.6,7.1c-1.1,2.1-2.1,3.9-2.9,5.4c-1.7,3-2.7,4.7-2.7,4.7
			l-0.4-0.2c0,0,0.5-1.9,1.6-5.1c0.5-1.6,1.2-3.6,2-5.8c0.8-2.2,1.7-4.8,2.8-7.5c1.1-2.7,2.2-5.7,3.5-8.8c1.3-3.1,2.7-6.3,4.2-9.6
			c1.6-3.3,3.2-6.7,4.8-10.2c1.6-3.5,3.5-6.9,5.3-10.4c1.8-3.5,3.6-6.9,5.1-10.5c1.6-3.5,2.9-7,4.1-10.5c1.2-3.5,2.3-6.8,3.6-9.9
			c1.3-3.1,2.6-6,3.8-8.6c1.3-2.6,2.4-5,3.5-7.2c1.1-2.1,2.1-3.9,2.9-5.4c1.7-3,2.7-4.6,2.7-4.6L724.4,174z"/>
	</g>
	<g>
		<path d="M724.3,173.8c0,0,1.2,0.2,3.3,0.8c1,0.3,2.3,0.7,3.7,1.2c1.4,0.5,3,1.1,4.7,1.7c1.7,0.7,3.5,1.4,5.4,2.4
			c1.9,0.9,3.8,2.2,5.7,3.4c2,1.2,4,2.4,6.2,3.3c2.2,1,4.5,1.8,6.8,2.6c2.3,0.8,4.7,1.5,6.9,2.4c2.2,0.9,4.4,1.8,6.5,2.7
			c2.1,0.9,4.1,1.8,6,2.7c1.9,0.9,3.6,1.9,5.2,2.7c1.6,0.9,3.1,1.7,4.3,2.5c1.3,0.8,2.4,1.5,3.3,2.1c1.8,1.2,2.8,1.9,2.8,1.9
			l-0.2,0.4c0,0-1.2-0.3-3.3-0.8c-1-0.3-2.3-0.7-3.7-1.1c-1.4-0.5-3-1-4.7-1.6c-1.7-0.7-3.6-1.4-5.5-2.2c-1.9-0.8-3.9-1.7-6-2.8
			c-2-1-4.2-2.1-6.3-3.2c-2.1-1.1-4.2-2.4-6.3-3.6c-2.1-1.3-4.2-2.5-6.4-3.5c-2.2-1-4.4-1.8-6.6-2.5c-2.2-0.7-4.3-1.3-6.3-2.1
			c-1.9-0.8-3.7-1.7-5.3-2.5c-1.6-0.8-3.1-1.7-4.4-2.4c-1.3-0.7-2.4-1.4-3.3-2c-1.8-1.2-2.8-2-2.8-2L724.3,173.8z"/>
	</g>
	<g>
		<path d="M802.8,165.2c0,0-1.2,0.5-3.3,1c-1.1,0.3-2.3,0.6-3.8,0.9c-1.5,0.3-3.1,0.6-5,0.9c-1.8,0.3-3.8,0.6-5.9,0.7
			c-2.1,0.2-4.4,0.1-6.7,0.1c-2.3,0-4.7,0-7.1,0.4c-2.4,0.3-4.8,0.8-7.3,1.3c-2.4,0.5-4.8,1.1-7.2,1.5c-2.4,0.4-4.8,0.8-7.1,1.1
			c-2.3,0.4-4.5,0.6-6.6,0.8c-2.1,0.2-4.1,0.3-6,0.4c-1.9,0.1-3.6,0.1-5.1,0.1c-1.5,0-2.8,0-3.9-0.1c-2.2-0.1-3.4-0.2-3.4-0.2l0-0.4
			c0,0,1.2-0.4,3.3-1c1.1-0.3,2.3-0.6,3.8-0.9c1.5-0.3,3.1-0.7,5-1c1.8-0.3,3.8-0.7,5.9-1c2.1-0.3,4.3-0.6,6.6-0.7
			c2.3-0.2,4.7-0.3,7.1-0.5c2.4-0.2,4.9-0.2,7.4-0.2c2.5,0,5-0.1,7.4-0.4c2.4-0.2,4.8-0.7,7-1.3c2.3-0.6,4.5-1.1,6.6-1.4
			c2.1-0.3,4.1-0.5,5.9-0.6c1.8-0.1,3.6-0.2,5.1-0.2c1.5,0,2.8,0,3.9,0c2.2,0.1,3.4,0.3,3.4,0.3L802.8,165.2z"/>
	</g>
	<g>
		<path d="M787.9,123.6c0,0-0.8,1-2.3,2.7c-0.8,0.8-1.7,1.8-2.8,2.9c-1.1,1.1-2.4,2.3-3.8,3.5c-1.4,1.2-3,2.6-4.8,3.9
			c-1.8,1.3-3.8,2.5-5.8,3.7c-2,1.3-4.1,2.6-6,4.2c-2,1.6-3.8,3.3-5.6,5.1c-1.8,1.8-3.6,3.6-5.5,5.2c-1.9,1.6-3.7,3.3-5.5,4.8
			c-1.8,1.6-3.6,3-5.3,4.3c-1.7,1.3-3.4,2.5-5,3.6c-1.6,1.1-3,2-4.4,2.9c-1.3,0.8-2.5,1.5-3.4,2.1c-1.9,1.1-3.1,1.7-3.1,1.7
			l-0.2-0.3c0,0,0.8-1,2.4-2.6c0.8-0.8,1.7-1.8,2.8-2.9c1.1-1.1,2.4-2.3,3.8-3.6c1.4-1.3,2.9-2.7,4.6-4.1c1.7-1.4,3.5-2.8,5.4-4.2
			c1.9-1.4,3.9-2.9,5.9-4.3c2-1.5,4.2-2.8,6.3-4.2c2.2-1.4,4.3-2.8,6.2-4.3c2-1.5,3.8-3.2,5.5-4.9c1.7-1.7,3.3-3.4,4.9-4.8
			c1.6-1.4,3.3-2.6,4.8-3.8c1.5-1.1,3-2.1,4.3-2.9c1.3-0.9,2.5-1.5,3.4-2.1c1.9-1.1,3.1-1.7,3.1-1.7L787.9,123.6z"/>
	</g>
</g>
<g id="circles_left">
	<g>
		<circle class="st0" cx="304.7" cy="245.9" r="75.5"/>
		<path d="M380.4,246c0,0,0,0.5,0,1.4c0,0.9,0,2.2-0.2,4c-0.2,3.5-0.8,8.6-2.4,14.9c-1.7,6.3-4.3,13.9-9.2,21.6
			c-4.8,7.7-11.7,15.8-21,22.3c-4.7,3.2-9.9,6-15.7,8.3c-1.4,0.6-2.9,1-4.4,1.5c-1.5,0.4-3,0.9-4.6,1.2c-0.8,0.2-1.5,0.4-2.3,0.5
			c-0.8,0.2-1.6,0.3-2.4,0.4c-1.6,0.3-3.2,0.5-4.8,0.7c-1.6,0.2-3.3,0.2-4.9,0.4c-1.7,0-3.3,0.1-5,0c-0.8,0-1.6-0.1-2.5-0.1
			c-0.8,0-1.7-0.1-2.5-0.2c-1.7-0.1-3.4-0.4-5.1-0.7c-3.4-0.6-6.7-1.3-10-2.4c-1.7-0.5-3.3-1.1-4.9-1.7c-0.8-0.3-1.6-0.7-2.4-1
			c-0.8-0.3-1.6-0.7-2.4-1.1c-12.8-6-24.2-15.7-32.4-27.9c-8.2-12.2-13-27-13.2-42.1c0-3.7,0.1-7.5,0.6-11.2
			c0.5-3.7,1.2-7.4,2.3-11.1c1.1-3.6,2.3-7.2,3.9-10.6c1.6-3.4,3.4-6.7,5.4-9.8c8.1-12.5,19.9-22.3,32.9-28.2
			c13-5.9,27.2-7.7,40.2-6.2c6.5,0.8,12.7,2.3,18.5,4.6c5.7,2.2,11,5.1,15.6,8.3c9.3,6.5,16.2,14.6,21,22.3
			c4.9,7.8,7.5,15.3,9.2,21.6c1.6,6.3,2.2,11.4,2.4,14.9c0.2,1.7,0.1,3.1,0.2,4C380.4,245.5,380.4,245.9,380.4,246L380.4,246z
			 M380,245.9c0,0,0-0.5,0-1.4c0-0.9,0-2.2-0.2-3.9c-0.2-3.4-0.8-8.5-2.7-14.7c-0.8-3.1-2.1-6.5-3.8-10c-1.6-3.5-3.7-7.2-6.2-10.9
			c-5.1-7.3-12.2-14.7-21.4-20.5c-4.6-2.9-9.7-5.5-15.1-7.5c-5.5-2-11.4-3.4-17.5-4.1c-1.5-0.2-3.1-0.2-4.6-0.4c-0.8,0-1.6,0-2.4,0
			l-1.2,0l-1.1,0c-0.8,0-1.6,0-2.4,0.1c-0.8,0-1.6,0.1-2.4,0.2c-1.6,0.1-3.2,0.3-4.8,0.5c-3.2,0.5-6.4,1.1-9.6,2.1
			c-1.6,0.4-3.2,1-4.8,1.5c-0.8,0.3-1.6,0.6-2.4,0.9c-0.8,0.3-1.6,0.6-2.3,1c-12.4,5.4-23.7,14.5-31.7,26.4c-2,2.9-3.8,6.1-5.4,9.3
			c-1.6,3.2-2.9,6.6-4,10c-1.1,3.4-1.9,7-2.6,10.6c-0.6,3.6-0.9,7.2-1,10.9c0,3.6,0.2,7.3,0.6,10.9c0.5,3.6,1.2,7.2,2.2,10.7
			c1.1,3.5,2.3,6.9,3.8,10.2c1.6,3.3,3.3,6.5,5.3,9.5c4,6,8.9,11.4,14.4,15.9c5.5,4.5,11.6,8.1,17.9,10.7c0.8,0.3,1.6,0.7,2.4,1
			c0.8,0.3,1.6,0.6,2.4,0.9c1.6,0.5,3.2,1.1,4.8,1.5c3.2,0.9,6.5,1.5,9.8,1.9c1.6,0.2,3.3,0.4,4.9,0.4c0.8,0,1.6,0.1,2.4,0.1
			c0.8,0,1.6,0,2.5,0c1.6,0.1,3.2-0.1,4.7-0.1c1.6-0.1,3.1-0.2,4.7-0.4c6.2-0.8,12.1-2.2,17.6-4.2c5.5-2,10.5-4.6,15.1-7.6
			c9.2-5.9,16.3-13.2,21.4-20.6c2.5-3.7,4.6-7.3,6.2-10.9c1.6-3.5,2.9-6.9,3.8-10c1.8-6.2,2.4-11.3,2.6-14.7c0.2-1.7,0.1-3.1,0.2-4
			C380,246.4,380,245.9,380,245.9L380,245.9z"/>
	</g>
	<g>
		<circle class="st1" cx="387.5" cy="82" r="25"/>
		<path d="M412.7,82c0,0,0,0.6-0.1,1.8c0,0.3,0,0.6-0.1,1c0,0.4-0.1,0.7-0.2,1.2c-0.1,0.4-0.1,0.9-0.2,1.4c-0.1,0.5-0.2,1-0.3,1.5
			c-0.1,0.3-0.1,0.5-0.2,0.8c-0.1,0.3-0.2,0.6-0.3,0.8c-0.2,0.6-0.3,1.2-0.6,1.8c-0.2,0.6-0.5,1.3-0.8,1.9c-0.3,0.6-0.7,1.3-1,2
			c-1.5,2.7-3.7,5.6-6.9,7.9c-3.1,2.4-7.2,4-11.7,4.5c-0.6,0.1-1.1,0-1.7,0.1l-0.9,0l-0.4,0l-0.1,0l-0.1,0l-0.1,0l-0.2,0
			c-1.1-0.1-2.1-0.2-3.4-0.4c-2.4-0.4-4.6-1.3-6.7-2.4c-2.2-1.1-4.1-2.5-6-4.1c-1.8-1.6-3.4-3.5-4.8-5.5c-0.7-1-1.3-2.1-1.8-3.2
			c-0.3-0.6-0.6-1.1-0.8-1.7c-0.2-0.6-0.5-1.2-0.7-1.8c-0.8-2.4-1.3-4.9-1.5-7.5c0-1.4-0.1-2.4,0.1-3.8c0.1-1.3,0.4-2.6,0.6-3.9
			c0.7-2.5,1.7-4.9,3.1-7.1c1.4-2.2,3.1-4.1,5-5.8c2-1.6,4.1-3.1,6.3-4.1c2.3-1,4.6-1.8,7-2.1c1.2-0.2,2.4-0.2,3.5-0.3l0.2,0l0.1,0
			l0.1,0l0.2,0l0.4,0l0.8,0.1c0.5,0,1,0,1.6,0.1c1.2,0.2,2.4,0.3,3.4,0.7c0.5,0.1,1.1,0.3,1.6,0.4c0.5,0.2,1,0.4,1.5,0.6
			c1,0.4,1.9,0.9,2.8,1.4c0.9,0.5,1.7,1.1,2.5,1.7c3.1,2.4,5.3,5.3,6.8,8c0.3,0.7,0.7,1.4,1,2c0.3,0.7,0.5,1.3,0.8,1.9
			c0.2,0.6,0.4,1.2,0.6,1.8c0.1,0.3,0.2,0.6,0.3,0.8c0.1,0.3,0.1,0.6,0.2,0.8c0.1,0.5,0.2,1,0.3,1.5c0.1,0.5,0.1,0.9,0.2,1.3
			c0.1,0.8,0.2,1.5,0.2,2.1C412.7,81.4,412.7,82,412.7,82L412.7,82z M412.3,82c0,0,0-0.6-0.1-1.7c0-0.6-0.1-1.3-0.3-2.1
			c-0.1-0.4-0.1-0.8-0.3-1.3c-0.1-0.5-0.3-0.9-0.4-1.4c-0.7-2-1.7-4.4-3.6-6.6c-1.8-2.3-4.2-4.5-7.2-6.2c-1.5-0.8-3.1-1.6-4.9-2.2
			c-0.4-0.1-0.9-0.3-1.3-0.4c-0.5-0.1-0.9-0.2-1.4-0.3c-0.9-0.3-1.8-0.3-2.7-0.5c-0.5-0.1-1,0-1.6-0.1l-0.8,0l-0.4,0
			c-0.1,0,0.1,0,0.1,0l0,0l-0.1,0l-0.2,0c-1,0.1-2,0-3,0.2c-2,0.2-4,0.9-6,1.6c-2,0.8-3.8,1.9-5.5,3.3c-1.7,1.4-3.2,3-4.5,4.8
			c-1.3,1.8-2.3,3.9-3.1,6c-0.3,1.1-0.7,2.2-0.9,3.3c-0.3,1-0.3,2.4-0.5,3.5c-0.1,2.3,0.1,4.7,0.7,7c0.7,2.3,1.6,4.5,2.9,6.5
			c0.3,0.5,0.7,1,1,1.4c0.3,0.5,0.7,0.9,1.1,1.3c0.4,0.4,0.8,0.9,1.2,1.2l1.3,1.1c1.8,1.4,3.8,2.5,5.9,3.3c2.1,0.7,4.2,1.2,6.2,1.4
			c1,0.1,2.1,0.1,3.2,0.1l0.2,0l0.1,0l0.1,0c0,0-0.1,0,0,0l0.4,0l0.7-0.1c0.5-0.1,1-0.1,1.5-0.1c3.9-0.5,7.4-1.9,10.4-3.6
			c3-1.8,5.4-4,7.2-6.2c1.8-2.3,2.9-4.6,3.5-6.7c0.2-0.5,0.3-1,0.4-1.4c0.1-0.5,0.2-0.9,0.3-1.3c0.1-0.8,0.3-1.5,0.3-2.1
			C412.3,82.6,412.3,82,412.3,82L412.3,82z"/>
	</g>
	<g>
		<circle class="st2" cx="248" cy="389.6" r="20"/>
		<path d="M268.2,389.6c0,0,0,0.5-0.1,1.4c0,0.5-0.1,1-0.2,1.7c-0.1,0.3-0.1,0.7-0.1,1.1c-0.1,0.4-0.2,0.8-0.3,1.2
			c-0.4,1.7-1,3.8-2.1,6c-1.2,2.2-2.9,4.6-5.4,6.5c-2.5,1.9-5.9,3.3-9.5,3.7c-0.5,0.1-0.9,0-1.4,0.1l-0.7,0l-0.3,0l-0.1,0l0,0
			l-0.1,0l-0.2,0c-0.9-0.1-1.7-0.2-2.7-0.4c-2-0.4-3.7-1.1-5.5-2c-1.7-0.9-3.3-2.1-4.8-3.4c-1.4-1.3-2.7-2.8-3.9-4.5
			c-0.5-0.8-1.1-1.7-1.5-2.6c-0.2-0.4-0.5-0.9-0.6-1.4c-0.2-0.5-0.4-0.9-0.6-1.4c-0.7-1.9-1.1-3.9-1.2-6c0-1.1-0.1-1.9,0-3.1
			c0.1-1.1,0.3-2.1,0.5-3.1c0.5-2,1.3-4,2.4-5.8c1.1-1.8,2.5-3.4,4-4.8c1.6-1.3,3.3-2.5,5.1-3.4c1.8-0.8,3.8-1.5,5.7-1.7
			c1-0.2,1.9-0.2,2.9-0.2l0.2,0l0.1,0l0,0l0.1,0l0.3,0l0.6,0c0.4,0,0.8,0,1.3,0.1c1,0.2,1.9,0.3,2.8,0.6c0.4,0.1,0.9,0.2,1.3,0.4
			c0.4,0.1,0.8,0.3,1.2,0.5c1.6,0.6,3,1.6,4.3,2.5c2.5,2,4.3,4.4,5.4,6.6c1.2,2.2,1.8,4.3,2.1,6c0.1,0.4,0.2,0.8,0.2,1.2
			c0.1,0.4,0.1,0.7,0.1,1.1c0.1,0.7,0.1,1.2,0.2,1.7C268.2,389.1,268.2,389.6,268.2,389.6L268.2,389.6z M267.8,389.6
			c0,0,0-0.5-0.1-1.4c0-0.5-0.1-1-0.2-1.7c-0.1-0.3-0.1-0.7-0.2-1c-0.1-0.4-0.2-0.7-0.4-1.1c-0.6-1.6-1.4-3.5-2.9-5.2
			c-1.5-1.8-3.4-3.5-5.8-4.8c-1.2-0.6-2.5-1.2-3.8-1.6c-0.3-0.1-0.7-0.2-1-0.3c-0.4-0.1-0.7-0.2-1.1-0.2c-0.7-0.2-1.4-0.2-2.1-0.3
			c-0.3-0.1-0.8,0-1.2-0.1l-0.6,0l-0.3,0c-0.1,0,0.1,0,0.1,0l0,0l-0.1,0l-0.1,0c-0.8,0.1-1.6,0-2.3,0.2c-1.6,0.2-3.1,0.7-4.7,1.3
			c-1.5,0.6-3,1.5-4.3,2.5c-1.3,1.1-2.5,2.3-3.6,3.8c-1,1.4-1.9,3-2.5,4.7c-0.3,0.9-0.6,1.7-0.8,2.6c-0.2,0.8-0.3,1.9-0.4,2.8
			c-0.1,1.9,0,3.7,0.5,5.6c0.5,1.8,1.2,3.6,2.3,5.1c1.1,1.5,2.3,3,3.8,4.1c1.5,1.1,3.1,2,4.7,2.5c1.6,0.5,3.4,0.9,4.9,1
			c0.7,0.1,1.7,0,2.5,0l0.2,0l0.1,0l0,0c0,0-0.1,0,0,0l0.3,0l0.6-0.1c0.4,0,0.8,0,1.2-0.1c3-0.5,5.8-1.5,8.2-2.8
			c2.4-1.3,4.3-3,5.8-4.8c1.5-1.8,2.4-3.7,2.9-5.2c0.1-0.4,0.2-0.8,0.4-1.1c0.1-0.4,0.1-0.7,0.2-1c0.1-0.6,0.2-1.2,0.2-1.7
			C267.8,390.1,267.8,389.6,267.8,389.6L267.8,389.6z"/>
	</g>
	<g>
		<circle class="st2" cx="201.8" cy="445.7" r="20"/>
		<path d="M222,445.7c0,0,0,0.5-0.1,1.4c0,0.5-0.1,1-0.2,1.7c-0.1,0.3-0.1,0.7-0.1,1.1c-0.1,0.4-0.2,0.8-0.3,1.2
			c-0.4,1.7-1,3.8-2.1,6c-1.2,2.2-2.9,4.6-5.4,6.5c-2.5,1.9-5.9,3.3-9.5,3.7c-0.5,0.1-0.9,0-1.4,0.1l-0.7,0l-0.3,0l-0.1,0l0,0
			l-0.1,0l-0.2,0c-0.9-0.1-1.7-0.2-2.7-0.4c-2-0.4-3.7-1.1-5.5-2c-1.7-0.9-3.3-2.1-4.8-3.4c-1.4-1.3-2.7-2.8-3.9-4.5
			c-0.5-0.8-1.1-1.7-1.5-2.6c-0.2-0.4-0.5-0.9-0.6-1.4c-0.2-0.5-0.4-0.9-0.6-1.4c-0.7-1.9-1.1-3.9-1.2-6c0-1.1-0.1-1.9,0-3.1
			c0.1-1.1,0.3-2.1,0.5-3.1c0.5-2,1.3-4,2.4-5.8c1.1-1.8,2.5-3.4,4-4.8c1.6-1.3,3.3-2.5,5.1-3.4c1.8-0.8,3.8-1.5,5.7-1.7
			c1-0.2,1.9-0.2,2.9-0.2l0.2,0l0.1,0l0,0l0.1,0l0.3,0l0.6,0c0.4,0,0.8,0,1.3,0.1c1,0.2,1.9,0.3,2.8,0.6c0.4,0.1,0.9,0.2,1.3,0.4
			c0.4,0.1,0.8,0.3,1.2,0.5c1.6,0.6,3,1.6,4.3,2.5c2.5,2,4.3,4.4,5.4,6.6c1.2,2.2,1.8,4.3,2.1,6c0.1,0.4,0.2,0.8,0.2,1.2
			c0.1,0.4,0.1,0.7,0.1,1.1c0.1,0.7,0.1,1.2,0.2,1.7C222,445.2,222,445.7,222,445.7L222,445.7z M221.6,445.7c0,0,0-0.5-0.1-1.4
			c0-0.5-0.1-1-0.2-1.7c-0.1-0.3-0.1-0.7-0.2-1c-0.1-0.4-0.2-0.7-0.4-1.1c-0.6-1.6-1.4-3.5-2.9-5.2c-1.5-1.8-3.4-3.5-5.8-4.8
			c-1.2-0.6-2.5-1.2-3.8-1.6c-0.3-0.1-0.7-0.2-1-0.3c-0.4-0.1-0.7-0.2-1.1-0.2c-0.7-0.2-1.4-0.2-2.1-0.3c-0.3-0.1-0.8,0-1.2-0.1
			l-0.6,0l-0.3,0c-0.1,0,0.1,0,0.1,0l0,0l-0.1,0l-0.1,0c-0.8,0.1-1.6,0-2.3,0.2c-1.6,0.2-3.1,0.7-4.7,1.3c-1.5,0.6-3,1.5-4.3,2.5
			c-1.3,1.1-2.5,2.3-3.6,3.8c-1,1.4-1.9,3-2.5,4.7c-0.3,0.9-0.6,1.7-0.8,2.6c-0.2,0.8-0.3,1.9-0.4,2.8c-0.1,1.9,0,3.7,0.5,5.6
			c0.5,1.8,1.2,3.6,2.3,5.1c1.1,1.5,2.3,3,3.8,4.1c1.5,1.1,3.1,2,4.7,2.5c1.6,0.5,3.4,0.9,4.9,1c0.7,0.1,1.7,0,2.5,0l0.2,0l0.1,0
			l0,0c0,0-0.1,0,0,0l0.3,0l0.6-0.1c0.4,0,0.8,0,1.2-0.1c3-0.5,5.8-1.5,8.2-2.8c2.4-1.3,4.3-3,5.8-4.8c1.5-1.8,2.4-3.7,2.9-5.2
			c0.1-0.4,0.2-0.8,0.4-1.1c0.1-0.4,0.1-0.7,0.2-1c0.1-0.6,0.2-1.2,0.2-1.7C221.6,446.2,221.6,445.7,221.6,445.7L221.6,445.7z"/>
	</g>
	<g>
		<circle class="st2" cx="129.5" cy="427.6" r="15"/>
		<path d="M144.7,427.6c0,0,0,0.4,0,1.1c0,0.3,0,0.8-0.1,1.3c0,0.3-0.1,0.5-0.1,0.8c-0.1,0.3-0.1,0.6-0.2,0.9
			c-0.3,1.3-0.7,2.9-1.5,4.6c-0.8,1.7-2.1,3.6-4,5.1c-1.9,1.5-4.5,2.6-7.3,2.8c-0.4,0-0.7,0-1.1,0l-0.5,0l-0.3,0l-0.1,0l0,0l-0.1,0
			l-0.1,0c-0.7-0.1-1.3-0.1-2.1-0.3c-1.5-0.3-2.8-0.9-4.2-1.6c-1.3-0.7-2.5-1.7-3.6-2.6c-1.1-1-2-2.2-2.9-3.4
			c-0.4-0.6-0.8-1.3-1.1-2c-0.4-0.7-0.6-1.4-0.9-2.1c-0.2-0.7-0.5-1.5-0.6-2.2c-0.2-0.8-0.3-1.5-0.4-2.4c-0.1-1.4,0-3.2,0.3-4.7
			c0.4-1.6,1-3.1,1.8-4.5c0.9-1.4,1.9-2.6,3.1-3.7c1.2-1.1,2.5-2,4-2.6c1.4-0.7,2.9-1.2,4.4-1.3c0.7-0.1,1.5-0.1,2.2-0.2l0.1,0
			l0.1,0l0.2,0l0.2,0l0.5,0c0.3,0,0.6,0,1,0.1c0.7,0.1,1.5,0.2,2.2,0.4c0.3,0.1,0.7,0.2,1,0.3c0.3,0.1,0.6,0.3,0.9,0.4
			c1.3,0.5,2.3,1.2,3.3,2c1.9,1.6,3.2,3.5,4,5.2c0.9,1.7,1.2,3.3,1.5,4.6c0.1,0.3,0.1,0.6,0.2,0.9c0,0.3,0.1,0.6,0.1,0.8
			c0.1,0.5,0.1,0.9,0.1,1.3C144.7,427.2,144.7,427.6,144.7,427.6L144.7,427.6z M144.3,427.6c0,0,0-0.4-0.1-1c0-0.3-0.1-0.8-0.2-1.2
			c-0.1-0.5-0.2-1-0.5-1.6c-0.4-1.2-1.1-2.6-2.3-3.8c-1.1-1.3-2.6-2.4-4.4-3.3c-0.9-0.4-1.8-0.8-2.8-1.1c-1-0.3-2.1-0.5-3-0.6
			c-0.2,0-0.6,0-0.9,0l-0.5,0l-0.2,0c-0.1,0,0.1,0,0.1,0l0,0l-0.1,0l-0.1,0c-0.6,0-1.1,0-1.7,0.2c-1.1,0.1-2.2,0.5-3.4,0.9
			c-1.1,0.4-2.1,1.1-3.2,1.8c-1,0.8-1.9,1.7-2.6,2.7c-0.8,1-1.4,2.2-1.9,3.4c-0.5,1.3-0.8,2.4-1,4c0,0.6-0.1,1.3,0,2
			c0,0.7,0.2,1.4,0.3,2.1c0.4,1.3,0.9,2.7,1.7,3.8c0.8,1.2,1.7,2.2,2.8,3c1.1,0.8,2.3,1.4,3.5,1.8c1.2,0.4,2.5,0.6,3.6,0.6
			c0.5,0.1,1.2,0,1.9,0l0.1,0l0.1,0l0,0c0,0-0.1,0-0.1,0l0.2,0l0.4-0.1c0.3,0,0.6,0,0.8-0.1c2.2-0.4,4.2-1.1,5.9-2
			c1.7-0.9,3.2-2.1,4.4-3.4c1.2-1.3,1.9-2.7,2.3-3.8c0.2-0.6,0.4-1.1,0.4-1.6c0.1-0.5,0.2-0.9,0.2-1.2
			C144.3,428,144.3,427.6,144.3,427.6L144.3,427.6z"/>
	</g>
	<g>
		<circle class="st3" cx="162.9" cy="347.2" r="40"/>
		<path d="M203.1,347.2c0,0,0,1-0.1,2.8c0,0.5,0,1-0.1,1.5c-0.1,0.6-0.2,1.2-0.3,1.8c-0.1,0.7-0.2,1.4-0.3,2.1
			c-0.2,0.8-0.4,1.6-0.5,2.4c-0.1,0.4-0.2,0.9-0.3,1.3c-0.1,0.4-0.3,0.9-0.4,1.3c-0.3,0.9-0.6,1.9-1,2.9c-0.4,1-0.9,2-1.3,3
			c-0.5,1-1.1,2-1.7,3.1c-0.6,1.1-1.4,2.1-2.1,3.2c-0.3,0.6-0.8,1.1-1.2,1.6c-0.4,0.5-0.9,1-1.3,1.6c-0.9,1.1-2,2-3,3.1
			c-1.1,1-2.3,1.9-3.5,2.8c-5,3.6-11.4,6.1-18.4,6.9c-0.9,0.1-1.8,0.1-2.7,0.1l-1.3,0l-0.7,0l-0.2,0l-0.1,0l-0.2,0l-0.3,0
			c-1.7-0.2-3.4-0.2-5.3-0.6c-3.7-0.6-7.2-1.9-10.7-3.5c-0.8-0.4-1.7-0.9-2.5-1.3c-0.8-0.5-1.6-1-2.4-1.5l-1.2-0.8l-1.1-0.9
			c-0.7-0.6-1.5-1.2-2.3-1.8c-2.9-2.6-5.5-5.5-7.7-8.7l-1.5-2.5c-0.5-0.8-0.9-1.8-1.4-2.6l-0.7-1.3c-0.2-0.4-0.4-0.9-0.6-1.4
			c-0.3-0.9-0.7-1.8-1-2.8c-1.3-3.8-1.9-7.8-2.1-11.8l0-3c0-1,0.1-2,0.2-3l0.2-1.5l0.1-0.8l0.2-0.7l0.7-3c1.1-3.9,2.7-7.7,4.9-11.1
			c2.2-3.4,4.9-6.4,7.9-9c0.7-0.7,1.6-1.2,2.3-1.8l1.2-0.9l1.2-0.8c0.8-0.5,1.6-1.1,2.5-1.5c0.9-0.4,1.7-0.9,2.6-1.3
			c3.5-1.6,7.2-2.7,10.9-3.2c1.8-0.4,3.7-0.4,5.5-0.5l0.3,0l0.2,0l0.1,0c0,0,0.3,0,0.2,0l0.6,0l1.3,0.1c0.9,0.1,1.7,0.1,2.6,0.2
			c0.9,0.1,1.8,0.3,2.7,0.4c0.4,0.1,0.9,0.1,1.3,0.2l1.3,0.3c0.8,0.2,1.7,0.4,2.5,0.7c0.8,0.3,1.6,0.6,2.4,0.9
			c1.6,0.5,3,1.4,4.4,2.1c0.7,0.3,1.4,0.8,2,1.2c0.7,0.4,1.3,0.9,1.9,1.3c5,3.6,8.5,8.1,11,12.3c0.6,1.1,1.2,2.1,1.7,3.1
			c0.4,1,0.9,2.1,1.3,3c0.4,1,0.7,2,1,2.9c0.2,0.5,0.3,0.9,0.4,1.3c0.1,0.4,0.2,0.9,0.3,1.3c0.2,0.8,0.4,1.6,0.5,2.4
			c0.1,0.8,0.2,1.5,0.3,2.1c0.1,0.7,0.2,1.3,0.3,1.8c0.1,0.6,0.1,1.1,0.1,1.5C203,346.2,203.1,347.2,203.1,347.2L203.1,347.2z
			 M202.7,347.2c0,0-0.1-1-0.2-2.8c0-0.5,0-1-0.1-1.5c-0.1-0.6-0.2-1.2-0.3-1.8c-0.1-0.7-0.2-1.4-0.4-2.1c-0.2-0.7-0.4-1.5-0.7-2.3
			c-1-3.2-2.6-7.1-5.5-10.9c-2.8-3.8-6.6-7.5-11.4-10.4c-2.5-1.4-5-2.8-7.9-3.7c-0.7-0.2-1.4-0.5-2.2-0.7c-0.7-0.2-1.5-0.4-2.2-0.5
			l-1.1-0.3c-0.4-0.1-0.8-0.1-1.1-0.2c-0.8-0.1-1.5-0.2-2.3-0.3c-0.8-0.1-1.7-0.1-2.5-0.1l-1.3-0.1l-0.6,0c-0.1,0,0.1,0,0,0l-0.1,0
			l-0.2,0l-0.3,0c-1.6,0.1-3.3,0.1-5,0.4c-3.3,0.4-6.6,1.5-9.9,2.8c-0.8,0.4-1.6,0.7-2.4,1.1c-0.8,0.4-1.5,0.9-2.3,1.3l-1.2,0.7
			l-1.1,0.8c-0.7,0.5-1.5,1-2.2,1.6c-2.8,2.3-5.2,5-7.4,8l-1.5,2.3c-0.3,0.4-0.5,0.8-0.7,1.2l-0.6,1.2l-0.6,1.2
			c-0.2,0.4-0.4,0.9-0.5,1.3c-0.3,0.9-0.7,1.7-1,2.6l-0.8,2.7l-0.2,0.7l-0.1,0.7l-0.3,1.4c-0.4,1.8-0.5,3.9-0.7,5.7
			c0,3.8,0.3,7.7,1.3,11.4c1.1,3.7,2.7,7.2,4.8,10.4c0.5,0.8,1.1,1.5,1.7,2.3c0.3,0.4,0.6,0.8,0.9,1.1l1,1l1,1c0.3,0.4,0.6,0.7,1,1
			c0.7,0.6,1.4,1.2,2.1,1.8c0.7,0.6,1.5,1.1,2.2,1.6c0.4,0.3,0.7,0.5,1.1,0.8l1.2,0.7c0.8,0.4,1.6,0.9,2.4,1.3
			c0.8,0.4,1.7,0.7,2.5,1.1c3.3,1.3,6.8,2.2,10.1,2.5c1.6,0.3,3.4,0.2,5.1,0.3l0.3,0l0.2,0l0.1,0c0,0-0.1,0,0,0l0.6,0l1.2-0.1
			c0.8-0.1,1.6-0.1,2.4-0.2c6.4-0.8,12.2-3.1,17-6c4.8-3,8.6-6.7,11.4-10.5c2.8-3.8,4.5-7.6,5.5-10.9c0.2-0.8,0.5-1.6,0.7-2.3
			c0.2-0.7,0.3-1.4,0.4-2.1c0.1-0.7,0.2-1.3,0.3-1.8c0.1-0.6,0.1-1.1,0.1-1.5C202.6,348.2,202.7,347.2,202.7,347.2L202.7,347.2z"/>
	</g>
	<g>
		<circle class="st4" cx="129.5" cy="127.5" r="37.5"/>
		<path d="M167.2,127.5c0,0,0,0.9-0.1,2.6c0,0.4,0,0.9-0.1,1.4c-0.1,0.5-0.2,1.1-0.2,1.7c-0.1,0.6-0.2,1.3-0.3,2
			c-0.2,0.7-0.3,1.5-0.5,2.2c-0.1,0.4-0.2,0.8-0.3,1.2c-0.1,0.4-0.3,0.8-0.4,1.2c-0.3,0.8-0.5,1.8-0.9,2.7c-0.4,0.9-0.8,1.9-1.2,2.8
			c-0.5,1-1,1.9-1.6,2.9c-2.3,3.9-5.7,8.1-10.4,11.5c-4.7,3.4-10.7,5.8-17.3,6.5c-0.8,0.1-1.7,0.1-2.5,0.1l-1.3,0l-0.6,0l-0.2,0
			l-0.1,0l-0.2,0l-0.3,0c-1.6-0.2-3.2-0.2-5-0.6c-3.5-0.6-6.8-1.8-10-3.3c-3.2-1.5-6.1-3.6-8.9-6c-2.7-2.4-5.1-5.2-7.2-8.2l-1.5-2.4
			c-0.5-0.8-0.8-1.6-1.3-2.5l-0.6-1.2c-0.2-0.4-0.3-0.9-0.5-1.3c-0.3-0.9-0.7-1.7-1-2.6c-1.2-3.6-1.8-7.3-2-11.1
			c0.1-2-0.1-3.7,0.3-5.6l0.2-1.4l0.1-0.7l0.2-0.7l0.6-2.8c1.1-3.7,2.6-7.2,4.6-10.4c2.1-3.2,4.6-6,7.4-8.5c0.7-0.6,1.5-1.2,2.2-1.7
			l1.1-0.8l1.2-0.7c0.8-0.5,1.5-1,2.4-1.4c0.8-0.4,1.6-0.8,2.5-1.2c3.3-1.5,6.8-2.6,10.3-3c1.7-0.3,3.5-0.3,5.2-0.4l0.3,0l0.2,0
			l0.1,0l0.2,0l0.6,0l1.2,0.1c0.8,0.1,1.6,0.1,2.4,0.2c0.8,0.1,1.7,0.3,2.5,0.4c0.4,0.1,0.8,0.1,1.2,0.2l1.2,0.3
			c0.8,0.2,1.6,0.4,2.3,0.6c0.8,0.3,1.5,0.6,2.2,0.8c1.5,0.5,2.8,1.3,4.2,2c0.7,0.3,1.3,0.8,1.9,1.2c0.6,0.4,1.2,0.8,1.8,1.2
			c4.7,3.4,8,7.6,10.3,11.5c0.5,1,1.1,2,1.6,2.9c0.4,1,0.8,1.9,1.2,2.8c0.4,0.9,0.6,1.8,0.9,2.7c0.1,0.4,0.3,0.8,0.4,1.3
			c0.1,0.4,0.2,0.8,0.3,1.2c0.2,0.8,0.3,1.5,0.5,2.2c0.1,0.7,0.2,1.4,0.3,2c0.1,0.6,0.2,1.2,0.2,1.7c0.1,0.5,0.1,1,0.1,1.4
			C167.2,126.6,167.2,127.5,167.2,127.5L167.2,127.5z M166.8,127.5c0,0-0.1-0.9-0.2-2.6c0-0.4,0-0.9-0.1-1.4
			c-0.1-0.5-0.2-1.1-0.3-1.7c-0.1-0.6-0.2-1.3-0.4-2c-0.2-0.7-0.4-1.4-0.6-2.2c-0.9-3-2.5-6.6-5.1-10.2c-2.6-3.5-6.2-7-10.7-9.7
			c-2.3-1.3-4.7-2.6-7.4-3.5c-0.7-0.2-1.3-0.5-2-0.7c-0.7-0.2-1.4-0.3-2.1-0.5l-1.1-0.3c-0.4-0.1-0.7-0.1-1.1-0.2
			c-0.7-0.1-1.4-0.2-2.1-0.3c-0.7-0.1-1.6-0.1-2.3-0.1l-1.2,0l-0.6,0c-0.1,0,0.1,0,0,0l-0.1,0l-0.1,0l-0.3,0
			c-1.5,0.1-3.1,0.1-4.6,0.4c-3.1,0.4-6.2,1.4-9.2,2.6c-0.7,0.3-1.5,0.7-2.2,1c-0.7,0.4-1.4,0.8-2.2,1.2l-1.1,0.6l-1,0.7
			c-0.7,0.5-1.4,1-2,1.5c-2.6,2.1-4.9,4.7-6.9,7.5l-1.4,2.2c-0.5,0.7-0.8,1.5-1.2,2.3l-0.6,1.2c-0.2,0.4-0.3,0.8-0.5,1.2
			c-0.3,0.8-0.7,1.6-1,2.5l-0.8,2.5l-0.2,0.6l-0.1,0.6l-0.2,1.3c-0.4,1.6-0.5,3.6-0.6,5.3c0,3.6,0.3,7.2,1.2,10.7
			c1,3.4,2.5,6.8,4.4,9.7c0.5,0.7,1,1.4,1.6,2.2c0.3,0.3,0.5,0.7,0.8,1l0.9,1c0.6,0.6,1.2,1.3,1.8,1.9c0.7,0.6,1.3,1.1,2,1.7
			c0.7,0.5,1.4,1,2.1,1.5c0.4,0.2,0.7,0.5,1.1,0.7l1.1,0.6c0.8,0.4,1.5,0.9,2.2,1.2c0.8,0.3,1.6,0.7,2.3,1c3.1,1.2,6.4,2,9.5,2.3
			c1.5,0.3,3.2,0.2,4.8,0.2l0.3,0l0.2,0l0.1,0c0,0-0.1,0,0,0l0.6,0l1.1-0.1c0.8-0.1,1.5-0.1,2.3-0.2c6-0.8,11.4-2.9,15.9-5.6
			c4.5-2.8,8.1-6.3,10.7-9.8c2.7-3.5,4.2-7.1,5.1-10.2c0.2-0.8,0.4-1.5,0.6-2.2c0.2-0.7,0.3-1.3,0.4-2c0.1-0.6,0.2-1.2,0.3-1.7
			c0.1-0.5,0.1-1,0.1-1.4C166.8,128.4,166.8,127.5,166.8,127.5L166.8,127.5z"/>
	</g>
	<g>
		<circle class="st5" cx="172.9" cy="67" r="10"/>
		<path d="M183.1,67c0,0,0,0.2,0,0.7c0,0.2,0,0.5-0.1,0.9c0,0.3-0.1,0.7-0.2,1.2c-0.2,0.9-0.4,2-0.9,3.2c-0.5,1.2-1.3,2.6-2.6,3.7
			c-1.3,1.1-3.1,1.9-5.1,2c-0.2,0-0.5,0-0.7,0l-0.4,0l-0.2,0l-0.1,0l0,0l0,0l-0.1,0c-0.4-0.1-0.8-0.1-1.4-0.3
			c-1.1-0.3-2-0.7-2.9-1.3c-1.7-1.1-3.2-2.6-4.4-4.2c-1.1-1.7-2-3.7-2.3-5.9c0-0.6-0.1-1-0.1-1.6c0-0.6,0.1-1.2,0.2-1.7
			c0.2-1.1,0.6-2.2,1.2-3.2c1.2-2,2.9-3.6,4.9-4.5c1-0.5,2.1-0.8,3.1-1c0.5-0.1,1.1-0.1,1.6-0.1l0.1,0l0,0l0.2,0l0.2,0l0.3,0
			c0.2,0,0.4,0,0.7,0.1c0.5,0.1,1.1,0.2,1.6,0.3c0.5,0.1,0.9,0.3,1.4,0.5c0.9,0.4,1.6,0.9,2.3,1.5c1.3,1.2,2.1,2.5,2.6,3.8
			c0.5,1.2,0.7,2.3,0.9,3.2c0.1,0.4,0.1,0.8,0.1,1.2c0,0.3,0.1,0.6,0.1,0.9C183.1,66.8,183.1,67,183.1,67L183.1,67z M182.7,67
			c0,0,0-0.2-0.1-0.7c0-0.2-0.1-0.5-0.1-0.8c-0.1-0.3-0.2-0.7-0.3-1.1c-0.3-0.8-0.8-1.7-1.7-2.4c-0.8-0.8-1.9-1.4-3-1.9
			c-0.6-0.2-1.2-0.5-1.8-0.6c-0.6-0.2-1.3-0.3-1.8-0.3c-0.1,0-0.4,0-0.6,0l-0.3,0l-0.2,0c-0.1,0,0.1,0,0.1,0l0,0l0,0l-0.1,0
			c-0.3,0-0.7,0-1,0.1c-0.7,0.1-1.4,0.3-2.1,0.5c-0.7,0.2-1.3,0.6-2,1.1c-0.6,0.5-1.2,1-1.7,1.6c-0.5,0.6-0.9,1.3-1.3,2.1
			c-0.2,0.4-0.4,0.8-0.5,1.2c-0.2,0.3-0.2,1-0.3,1.3c-0.1,0.9-0.1,1.8,0,2.7c0.2,0.9,0.5,1.7,1,2.5c0.5,0.8,1.1,1.4,1.9,1.9
			c0.7,0.5,1.5,0.8,2.3,1c0.8,0.2,1.7,0.3,2.3,0.2c0.3,0,0.8,0,1.2-0.1c0.3-0.1,0.7-0.1,1-0.2c1.4-0.3,2.6-0.7,3.7-1.2
			c1.1-0.5,2.2-1.2,3-2c0.8-0.8,1.3-1.7,1.7-2.4c0.2-0.4,0.3-0.7,0.3-1.1c0.1-0.3,0.1-0.6,0.1-0.8C182.7,67.3,182.7,67,182.7,67
			L182.7,67z"/>
	</g>
	<g>
		<circle class="st5" cx="128" cy="57" r="15"/>
		<path d="M143.2,57c0,0,0,0.4,0,1.1c0,0.3,0,0.8-0.1,1.3c0,0.3-0.1,0.5-0.1,0.8c-0.1,0.3-0.1,0.6-0.2,0.9c-0.3,1.3-0.7,2.9-1.5,4.6
			c-0.8,1.7-2.1,3.6-4,5.1c-1.9,1.5-4.5,2.6-7.3,2.8c-0.4,0-0.7,0-1.1,0l-0.5,0l-0.3,0l-0.1,0l0,0l-0.1,0l-0.1,0
			c-0.7-0.1-1.3-0.1-2.1-0.3c-1.5-0.3-2.8-0.9-4.2-1.6c-1.3-0.7-2.5-1.7-3.6-2.6c-1.1-1-2-2.2-2.9-3.4c-0.4-0.6-0.8-1.3-1.1-2
			c-0.4-0.7-0.6-1.4-0.9-2.1c-0.2-0.7-0.5-1.5-0.6-2.2c-0.2-0.8-0.3-1.5-0.4-2.4c-0.1-1.4,0-3.2,0.3-4.7c0.4-1.6,1-3.1,1.8-4.5
			c0.9-1.4,1.9-2.6,3.1-3.7c1.2-1.1,2.5-2,4-2.6c1.4-0.7,2.9-1.2,4.4-1.3c0.7-0.1,1.5-0.1,2.2-0.2l0.1,0l0.1,0l0.2,0l0.2,0l0.5,0
			c0.3,0,0.6,0,1,0.1c0.7,0.1,1.5,0.2,2.2,0.4c0.3,0.1,0.7,0.2,1,0.3c0.3,0.1,0.6,0.3,0.9,0.4c1.3,0.5,2.3,1.2,3.3,2
			c1.9,1.6,3.2,3.5,4,5.2c0.9,1.7,1.2,3.3,1.5,4.6c0.1,0.3,0.1,0.6,0.2,0.9c0,0.3,0.1,0.6,0.1,0.8c0.1,0.5,0.1,0.9,0.1,1.3
			C143.2,56.7,143.2,57,143.2,57L143.2,57z M142.8,57c0,0,0-0.4-0.1-1c0-0.3-0.1-0.8-0.2-1.2c-0.1-0.5-0.2-1-0.5-1.6
			c-0.4-1.2-1.1-2.6-2.3-3.8c-1.1-1.3-2.6-2.4-4.4-3.3c-0.9-0.4-1.8-0.8-2.8-1.1c-1-0.3-2.1-0.5-3-0.6c-0.2,0-0.6,0-0.9,0l-0.5,0
			l-0.2,0c-0.1,0,0.1,0,0.1,0l0,0l-0.1,0l-0.1,0c-0.6,0-1.1,0-1.7,0.2c-1.1,0.1-2.2,0.5-3.4,0.9c-1.1,0.4-2.1,1.1-3.2,1.8
			c-1,0.8-1.9,1.7-2.6,2.7c-0.8,1-1.4,2.2-1.9,3.4c-0.5,1.3-0.8,2.4-1,4c0,0.6-0.1,1.3,0,2c0,0.7,0.2,1.4,0.3,2.1
			c0.4,1.3,0.9,2.7,1.7,3.8c0.8,1.2,1.7,2.2,2.8,3c1.1,0.8,2.3,1.4,3.5,1.8c1.2,0.4,2.5,0.6,3.6,0.6c0.5,0.1,1.2,0,1.9,0l0.1,0
			l0.1,0l0,0c0,0-0.1,0-0.1,0l0.2,0l0.4-0.1c0.3,0,0.6,0,0.8-0.1c2.2-0.4,4.2-1.1,5.9-2c1.7-0.9,3.2-2.1,4.4-3.4
			c1.2-1.3,1.9-2.7,2.3-3.8c0.2-0.6,0.4-1.1,0.4-1.6c0.1-0.5,0.2-0.9,0.2-1.2C142.8,57.4,142.8,57,142.8,57L142.8,57z"/>
	</g>
	<g>
		<circle class="st5" cx="60" cy="90" r="20"/>
		<path d="M80.2,90c0,0,0,0.5-0.1,1.4c0,0.5-0.1,1-0.2,1.7c-0.1,0.3-0.1,0.7-0.1,1.1c-0.1,0.4-0.2,0.8-0.3,1.2c-0.4,1.7-1,3.8-2.1,6
			c-1.2,2.2-2.9,4.6-5.4,6.5c-2.5,1.9-5.9,3.3-9.5,3.7c-0.5,0.1-0.9,0-1.4,0.1l-0.7,0l-0.3,0l-0.1,0l0,0l-0.1,0l-0.2,0
			c-0.9-0.1-1.7-0.2-2.7-0.4c-2-0.4-3.7-1.1-5.5-2c-1.7-0.9-3.3-2.1-4.8-3.4c-1.4-1.3-2.7-2.8-3.9-4.5c-0.5-0.8-1.1-1.7-1.5-2.6
			c-0.2-0.4-0.5-0.9-0.6-1.4c-0.2-0.5-0.4-0.9-0.6-1.4c-0.3-1-0.6-1.9-0.8-3c-0.1-0.5-0.2-1-0.3-1.5c-0.1-0.5-0.1-1-0.2-1.6
			c0-1-0.1-1.9,0-3c0.1-1.1,0.3-2.1,0.5-3.1c0.5-2,1.3-4,2.4-5.8c1.1-1.8,2.5-3.4,4-4.8c1.6-1.3,3.3-2.5,5.1-3.4
			c1.8-0.8,3.8-1.5,5.7-1.7c1-0.2,1.9-0.2,2.9-0.2l0.2,0l0.1,0l0,0l0.1,0l0.3,0l0.6,0c0.4,0,0.8,0,1.3,0.1c1,0.2,1.9,0.3,2.8,0.6
			c0.4,0.1,0.9,0.2,1.3,0.4c0.4,0.1,0.8,0.3,1.2,0.5c1.6,0.6,3,1.6,4.3,2.5c2.5,2,4.3,4.4,5.4,6.6c1.2,2.2,1.8,4.3,2.1,6
			c0.1,0.4,0.2,0.8,0.2,1.2c0.1,0.4,0.1,0.7,0.1,1.1c0.1,0.7,0.1,1.2,0.2,1.7C80.2,89.5,80.2,90,80.2,90L80.2,90z M79.8,90
			c0,0,0-0.5-0.1-1.4c0-0.5-0.1-1-0.2-1.7c-0.1-0.3-0.1-0.7-0.2-1c-0.1-0.4-0.2-0.7-0.4-1.1c-0.6-1.6-1.4-3.5-2.9-5.2
			c-1.5-1.8-3.4-3.5-5.8-4.8c-1.2-0.6-2.5-1.2-3.8-1.6c-0.3-0.1-0.7-0.2-1-0.3c-0.4-0.1-0.7-0.2-1.1-0.2c-0.7-0.2-1.4-0.2-2.1-0.3
			c-0.3-0.1-0.8,0-1.2-0.1l-0.6,0l-0.3,0c-0.1,0,0.1,0,0.1,0l0,0l-0.1,0l-0.1,0c-0.8,0.1-1.6,0-2.3,0.2c-1.6,0.2-3.1,0.7-4.7,1.3
			c-1.5,0.6-3,1.5-4.3,2.5c-1.3,1.1-2.5,2.3-3.6,3.8c-1,1.4-1.9,3-2.5,4.7c-0.6,1.7-1,3.4-1.2,5.4c-0.1,1.7,0,3.7,0.5,5.5
			c0.5,1.8,1.2,3.6,2.3,5.1c1.1,1.5,2.3,3,3.8,4.1c1.5,1.1,3.1,2,4.7,2.5c1.6,0.5,3.4,0.9,4.9,1c0.7,0.1,1.7,0,2.5,0l0.2,0l0.1,0
			l0,0c0,0-0.1,0,0,0l0.3,0l0.6-0.1c0.4,0,0.8,0,1.2-0.1c3-0.5,5.8-1.5,8.2-2.8c2.4-1.3,4.3-3,5.8-4.8c1.5-1.8,2.4-3.7,2.9-5.2
			c0.1-0.4,0.2-0.8,0.4-1.1c0.1-0.4,0.1-0.7,0.2-1c0.1-0.6,0.2-1.2,0.2-1.7C79.8,90.5,79.8,90,79.8,90L79.8,90z"/>
	</g>
	<g>
		<circle class="st6" cx="335.1" cy="127.5" r="12.5"/>
		<path d="M347.8,127.5c0,0,0,0.3,0,0.9c0,0.3,0,0.6-0.1,1.1c0,0.4-0.1,0.9-0.2,1.5c-0.2,1.1-0.5,2.4-1.2,3.9
			c-0.7,1.5-1.7,3.1-3.3,4.4c-1.6,1.3-3.8,2.3-6.2,2.4c-0.3,0-0.6,0-0.9,0l-0.5,0l-0.2,0l-0.1,0l0,0l-0.1,0l-0.1,0
			c-0.5-0.1-1-0.1-1.7-0.3c-1.3-0.3-2.4-0.8-3.5-1.4c-2.2-1.3-4-3.1-5.4-5.1c-0.7-1.1-1.3-2.2-1.8-3.4c-0.5-1.2-0.8-2.5-0.9-3.8
			c0-0.7-0.1-1.2,0-2c0-0.7,0.1-1.4,0.2-2.1c0.3-1.3,0.8-2.6,1.5-3.8c0.7-1.2,1.6-2.2,2.6-3.2c1-0.9,2.2-1.7,3.4-2.3
			c1.2-0.6,2.5-1,3.8-1.2c0.6-0.1,1.3-0.1,1.9-0.2l0.1,0l0.1,0l0.2,0l0.2,0l0.4,0c0.3,0,0.5,0,0.8,0.1c0.6,0.1,1.3,0.2,1.9,0.4
			c0.3,0.1,0.6,0.2,0.8,0.3c0.3,0.1,0.5,0.2,0.8,0.3c1.1,0.4,2,1.1,2.8,1.7c1.6,1.4,2.6,3,3.3,4.5c0.7,1.5,1,2.8,1.2,3.9
			c0.1,0.5,0.2,1,0.2,1.5c0.1,0.4,0.1,0.8,0.1,1.1C347.8,127.2,347.8,127.5,347.8,127.5L347.8,127.5z M347.4,127.5
			c0,0,0-0.3-0.1-0.9c0-0.3-0.1-0.6-0.2-1c-0.1-0.4-0.2-0.9-0.4-1.3c-0.4-1-1-2.1-2-3.1c-1-1-2.2-1.9-3.7-2.6
			c-0.7-0.3-1.5-0.6-2.3-0.9c-0.8-0.3-1.7-0.4-2.4-0.5c-0.2,0-0.5,0-0.8,0l-0.4,0l-0.2,0c-0.1,0,0.1,0,0.1,0l0,0l0,0l-0.1,0
			c-0.4,0-0.9,0-1.4,0.1c-0.9,0.1-1.8,0.4-2.7,0.7c-0.9,0.3-1.7,0.9-2.6,1.4c-0.8,0.6-1.5,1.3-2.2,2.2c-0.6,0.8-1.1,1.8-1.6,2.7
			c-0.2,0.5-0.4,1-0.5,1.5c-0.2,0.4-0.2,1.2-0.3,1.7c-0.1,1.1-0.1,2.3,0.2,3.4c0.3,1.1,0.7,2.2,1.3,3.2c0.6,1,1.4,1.8,2.3,2.5
			c0.9,0.6,1.9,1.1,2.9,1.4c1,0.3,2.1,0.4,3,0.4c0.4,0,1,0,1.5,0l0.1,0l0.1,0l0,0c0,0-0.1,0-0.1,0l0.2,0l0.3,0c0.2,0,0.5,0,0.7-0.1
			c1.8-0.3,3.4-0.9,4.8-1.6c1.4-0.7,2.7-1.7,3.7-2.7c1-1,1.6-2.2,2-3.1c0.2-0.5,0.3-0.9,0.4-1.3c0.1-0.4,0.2-0.7,0.2-1
			C347.4,127.8,347.4,127.5,347.4,127.5L347.4,127.5z"/>
	</g>
</g>
<g id="circle_right">
	<g>
		<circle class="st7" cx="529.2" cy="356.2" r="93.1"/>
		<path d="M622.5,356.2c0,0,0,0.6,0,1.7c0,1.1,0,2.7-0.2,4.9c-0.3,4.3-1,10.6-3,18.3c-2.1,7.7-5.4,17-11.5,26.5
			c-6,9.5-14.5,19.3-26,27.2c-5.7,4-12.2,7.4-19.2,10.1c-1.8,0.7-3.6,1.3-5.4,1.9c-0.9,0.3-1.8,0.5-2.8,0.8
			c-0.9,0.3-1.9,0.5-2.8,0.7c-0.9,0.2-1.9,0.4-2.9,0.7c-1,0.2-1.9,0.4-2.9,0.5c-1.9,0.4-3.9,0.6-5.9,0.8c-2,0.2-4,0.3-6,0.5
			c-1,0-2,0-3,0.1l-1.5,0c-0.6,0-1,0-1.6,0c-1,0-2-0.1-3-0.1c-1-0.1-2.1-0.2-3.1-0.3c-2.1-0.1-4.1-0.5-6.2-0.8
			c-4.1-0.7-8.3-1.6-12.3-2.9c-2.1-0.6-4.1-1.4-6.1-2.1c-1-0.4-2-0.8-3-1.2l-1.5-0.6l-1.5-0.7c-15.7-7.3-29.9-19.2-39.9-34.3
			c-2.5-3.7-4.8-7.7-6.8-11.8c-2-4.1-3.6-8.4-5-12.8c-1.4-4.4-2.4-8.9-3.2-13.4c-0.7-4.6-1.1-9.2-1.2-13.8c0-4.6,0.2-9.3,0.8-13.8
			c0.7-4.6,1.5-9.1,2.8-13.6c1.3-4.4,2.9-8.8,4.8-13c2-4.2,4.1-8.2,6.7-12.1c10-15.4,24.5-27.4,40.4-34.5c16-7.2,33.4-9.5,49.3-7.6
			c8,1,15.6,2.8,22.6,5.6c7,2.7,13.5,6.2,19.2,10.2c11.5,8,20,17.8,26,27.3c6,9.5,9.4,18.8,11.5,26.6c2,7.8,2.7,14.1,3,18.3
			c0.2,2.1,0.1,3.8,0.2,4.9C622.5,355.6,622.5,356.2,622.5,356.2L622.5,356.2z M622.1,356.2c0,0,0-0.6-0.1-1.7
			c-0.1-1.1,0-2.7-0.2-4.9c-0.3-4.3-1-10.5-3.3-18.2c-1-3.8-2.6-8-4.6-12.3c-2-4.4-4.5-8.9-7.6-13.4c-6.2-9.1-15-18.2-26.3-25.5
			c-5.7-3.6-11.9-6.8-18.7-9.3c-6.8-2.5-14.1-4.2-21.7-5.1c-1-0.1-1.9-0.2-2.9-0.3c-1-0.1-1.9-0.1-2.9-0.2c-1,0-2,0-3-0.1l-1.5,0
			l-1.4,0c-1,0-2,0.1-3,0.1c-1,0-2,0.1-3,0.2c-2,0.1-4,0.4-6,0.7c-4,0.6-8,1.4-11.9,2.6c-2,0.5-3.9,1.2-5.9,1.9
			c-1,0.4-1.9,0.7-2.9,1.1l-1.5,0.6l-1.4,0.6c-7.7,3.3-15,7.8-21.7,13.3c-3.3,2.7-6.4,5.8-9.4,9c-3,3.2-5.6,6.7-8.1,10.4
			c-9.9,14.6-15.6,32.4-15.9,50.5c0,4.5,0.2,9,0.8,13.5c0.6,4.5,1.5,8.9,2.8,13.2c1.3,4.3,2.9,8.6,4.8,12.6c1.9,4.1,4.1,8,6.5,11.7
			c4.9,7.4,10.9,14.1,17.7,19.6c6.8,5.6,14.2,10,22,13.3l1.5,0.6l1.5,0.6c1,0.4,2,0.8,3,1.1c2,0.6,4,1.3,6,1.8c4,1.1,8,1.9,12.1,2.4
			c2,0.2,4,0.5,6,0.6c1,0.1,2,0.1,3,0.2c1,0,2,0,3,0c0.5,0,1.1,0,1.5,0l1.5-0.1c1,0,2-0.1,2.9-0.1c1.9-0.2,3.9-0.3,5.8-0.5
			c7.6-0.9,15-2.7,21.8-5.2c6.8-2.5,13-5.8,18.7-9.4c11.3-7.3,20.1-16.5,26.3-25.6c3.1-4.5,5.7-9.1,7.6-13.4c2-4.4,3.6-8.5,4.6-12.3
			c2.2-7.7,2.9-13.9,3.2-18.2c0.2-2.1,0.2-3.8,0.2-4.9C622.1,356.7,622.1,356.2,622.1,356.2L622.1,356.2z"/>
	</g>
	<g>
		<circle class="st8" cx="464.5" cy="179.4" r="48.8"/>
		<path d="M513.5,179.4c0,0-0.1,1.2-0.2,3.4c0,0.6,0,1.2-0.1,1.9c-0.1,0.7-0.2,1.4-0.3,2.2c-0.1,0.8-0.2,1.7-0.4,2.6
			c-0.2,0.9-0.4,1.9-0.7,2.9c-0.1,0.5-0.2,1-0.4,1.6c-0.2,0.5-0.4,1.1-0.6,1.6c-0.4,1.1-0.7,2.3-1.2,3.5c-0.5,1.2-1.1,2.4-1.6,3.7
			c-0.6,1.2-1.4,2.5-2.1,3.8c-0.7,1.3-1.7,2.5-2.6,3.8c-0.4,0.7-1,1.3-1.5,1.9c-0.5,0.6-1.1,1.3-1.6,1.9c-0.5,0.7-1.2,1.2-1.8,1.8
			c-0.6,0.6-1.2,1.2-1.9,1.8c-1.3,1.2-2.8,2.3-4.2,3.4c-6.1,4.3-13.8,7.4-22.3,8.3c-1.1,0.1-2.1,0.1-3.2,0.2c-0.5,0-1.1,0-1.6,0.1
			l-0.8,0c0,0-0.2,0-0.2,0l-0.1,0l-0.2,0l-0.4,0c-2.1-0.2-4.2-0.2-6.5-0.7c-4.5-0.7-8.8-2.2-12.9-4.1c-1-0.5-2-1.1-3.1-1.6
			c-1-0.5-2-1.2-2.9-1.8l-1.5-0.9l-1.4-1.1c-0.9-0.7-1.9-1.4-2.7-2.2c-3.5-3.1-6.7-6.7-9.4-10.6c-0.6-1-1.2-2-1.9-3.1
			c-0.2-0.3-0.3-0.5-0.5-0.8l-0.4-0.8l-0.8-1.6l-0.8-1.6c-0.3-0.5-0.4-1.1-0.7-1.7c-0.4-1.1-0.9-2.2-1.3-3.4
			c-1.5-4.6-2.3-9.5-2.5-14.4l0.1-3.6c0-0.6,0-1.2,0.1-1.8l0.2-1.8l0.2-1.9l0.1-0.9l0.2-0.9l0.8-3.6c1.4-4.7,3.4-9.3,6-13.4
			c2.7-4.1,5.9-7.8,9.5-10.9c0.9-0.8,1.9-1.5,2.8-2.2c0.5-0.4,0.9-0.7,1.4-1.1l1.5-0.9c1-0.6,2-1.3,3-1.8c1.1-0.5,2.1-1,3.2-1.6
			c4.3-1.9,8.7-3.3,13.2-3.9c2.2-0.4,4.5-0.4,6.7-0.6l0.4,0l0.2,0l0.1,0c0,0,0.3,0,0.2,0l0.8,0l1.6,0.1c0.5,0,1,0.1,1.6,0.1
			c0.5,0,1,0,1.6,0.1c1.1,0.2,2.2,0.3,3.2,0.5c0.5,0.1,1.1,0.2,1.6,0.3c0.5,0.1,1,0.3,1.5,0.4c1,0.3,2,0.5,3,0.8
			c1,0.3,1.9,0.7,2.9,1.1c1.9,0.7,3.6,1.6,5.4,2.5c0.9,0.4,1.7,1,2.5,1.5c0.8,0.5,1.6,1,2.4,1.5c6.1,4.3,10.4,9.7,13.5,14.8
			c0.7,1.3,1.4,2.6,2.1,3.8c0.6,1.3,1.1,2.5,1.6,3.7c0.5,1.2,0.8,2.4,1.2,3.5c0.2,0.6,0.4,1.1,0.6,1.6c0.1,0.5,0.3,1.1,0.4,1.6
			c0.2,1,0.5,2,0.7,2.9c0.2,0.9,0.3,1.8,0.4,2.6c0.1,0.8,0.2,1.6,0.3,2.2c0.1,0.7,0.1,1.3,0.1,1.9
			C513.5,178.2,513.5,179.4,513.5,179.4L513.5,179.4z M513.1,179.4c0,0-0.1-1.2-0.2-3.4c0-0.6,0-1.2-0.1-1.9
			c-0.1-0.7-0.2-1.4-0.4-2.2c-0.1-0.8-0.2-1.7-0.5-2.6c-0.3-0.9-0.5-1.8-0.8-2.8c-1.2-4-3.2-8.7-6.6-13.3c-3.3-4.6-8-9.3-13.9-12.9
			c-3-1.7-6.2-3.5-9.7-4.6c-0.9-0.3-1.8-0.6-2.7-0.9c-0.9-0.2-1.8-0.5-2.8-0.7c-0.5-0.1-0.9-0.2-1.4-0.3c-0.5-0.1-0.9-0.1-1.4-0.2
			c-0.9-0.1-1.9-0.3-2.8-0.4c-0.5-0.1-1-0.1-1.5-0.1c-0.5,0-1,0-1.6-0.1c-0.5,0-1,0-1.6-0.1l-0.8,0l-0.7,0c-2,0.1-4.1,0.1-6.1,0.5
			c-4.1,0.5-8.2,1.8-12.1,3.4c-1,0.5-2,0.9-2.9,1.4c-1,0.5-1.9,1.1-2.8,1.6l-1.4,0.8c-0.5,0.3-0.9,0.6-1.3,1c-0.9,0.7-1.8,1.3-2.7,2
			c-3.4,2.8-6.4,6.2-9.1,9.9c-0.6,1-1.2,1.9-1.8,2.9c-0.1,0.2-0.3,0.5-0.5,0.7l-0.4,0.8l-0.8,1.5l-0.8,1.5c-0.2,0.5-0.4,1.1-0.6,1.6
			c-0.4,1.1-0.9,2.1-1.2,3.2l-1,3.3l-0.2,0.8l-0.2,0.8l-0.3,1.7l-0.3,1.7c-0.1,0.6-0.1,1.2-0.2,1.8l-0.3,3.5c0,4.7,0.5,9.4,1.7,13.9
			c1.4,4.5,3.3,8.8,5.8,12.7c0.6,1,1.4,1.9,2.1,2.8c0.4,0.5,0.7,0.9,1.1,1.4l1.2,1.3l1.2,1.3l0.6,0.6c0.2,0.2,0.4,0.4,0.6,0.6
			c0.9,0.8,1.7,1.5,2.6,2.3c0.9,0.7,1.8,1.3,2.7,2c0.5,0.3,0.9,0.7,1.4,1l1.5,0.8c1,0.5,1.9,1.1,2.9,1.6c1,0.4,2,0.9,3,1.3l0.8,0.3
			l0.8,0.3l1.6,0.5c1,0.3,2,0.7,3.1,0.9c1,0.2,2.1,0.5,3.1,0.7c1,0.2,2.1,0.3,3.1,0.4c2,0.3,4.2,0.3,6.3,0.3l0.4,0l0.2,0l0.1,0
			c0.1,0-0.1,0,0,0l0.8-0.1l1.5-0.1c1-0.1,2-0.1,3-0.3c7.9-1,15-3.8,20.9-7.5c5.9-3.7,10.5-8.3,13.9-13c3.4-4.6,5.4-9.4,6.6-13.3
			c0.3-1,0.5-2,0.8-2.8c0.2-0.9,0.3-1.8,0.5-2.6c0.1-0.8,0.2-1.5,0.4-2.2c0.1-0.7,0.1-1.3,0.1-1.9
			C513.1,180.6,513.1,179.4,513.1,179.4L513.1,179.4z"/>
	</g>
	<g>
		<circle class="st9" cx="626.7" cy="118.9" r="40"/>
		<path d="M666.9,119c0,0,0,1-0.1,2.8c0,0.5,0,1-0.1,1.5c-0.1,0.6-0.2,1.2-0.3,1.8c-0.1,0.7-0.2,1.4-0.3,2.1
			c-0.2,0.8-0.4,1.6-0.5,2.4c-0.1,0.4-0.2,0.9-0.3,1.3c-0.1,0.4-0.3,0.9-0.4,1.3c-0.3,0.9-0.6,1.9-1,2.9c-0.4,1-0.9,2-1.3,3
			c-0.5,1-1.1,2-1.7,3.1c-0.6,1.1-1.4,2.1-2.1,3.2c-0.3,0.6-0.8,1.1-1.2,1.6c-0.4,0.5-0.9,1-1.3,1.6c-0.9,1.1-2,2-3,3.1
			c-1.1,1-2.3,1.9-3.5,2.8c-5,3.6-11.4,6.1-18.4,6.9c-0.9,0.1-1.8,0.1-2.7,0.1l-1.3,0l-0.7,0l-0.2,0l-0.1,0l-0.2,0l-0.3,0
			c-1.7-0.2-3.4-0.2-5.3-0.6c-3.7-0.6-7.2-1.9-10.6-3.5c-0.8-0.4-1.7-0.9-2.5-1.3c-0.8-0.5-1.6-1-2.4-1.5l-1.2-0.8l-1.1-0.9
			c-0.7-0.6-1.5-1.2-2.3-1.8c-2.9-2.6-5.5-5.5-7.7-8.7l-1.5-2.5c-0.5-0.8-0.9-1.8-1.4-2.6l-0.7-1.3c-0.2-0.4-0.4-0.9-0.6-1.4
			c-0.3-0.9-0.7-1.8-1-2.8l-0.8-2.9l-0.2-0.7l-0.1-0.7l-0.3-1.5c-0.2-1-0.4-2-0.4-3l-0.2-3.1c0.1-2-0.1-3.9,0.3-6l0.2-1.5l0.1-0.8
			l0.2-0.7l0.7-3c1.1-3.9,2.7-7.7,4.9-11.1c2.2-3.4,4.9-6.4,7.9-9c0.7-0.7,1.6-1.2,2.3-1.8l1.2-0.9l1.2-0.8c0.8-0.5,1.6-1.1,2.5-1.5
			c0.9-0.4,1.7-0.9,2.6-1.3c3.5-1.6,7.2-2.7,10.9-3.2c1.8-0.4,3.7-0.4,5.5-0.5l0.3,0l0.2,0l0.1,0c0,0,0.3,0,0.2,0l0.6,0l1.3,0.1
			c0.9,0.1,1.7,0.1,2.6,0.2c0.9,0.1,1.8,0.3,2.7,0.4c0.4,0.1,0.9,0.1,1.3,0.2l1.3,0.3c0.8,0.2,1.7,0.4,2.5,0.7
			c0.8,0.3,1.6,0.6,2.4,0.9c1.6,0.5,3,1.4,4.4,2.1c0.7,0.3,1.4,0.8,2,1.2c0.7,0.4,1.3,0.9,1.9,1.3c5,3.6,8.5,8.1,11,12.3
			c0.6,1.1,1.2,2.1,1.7,3.1c0.4,1,0.9,2.1,1.3,3c0.4,1,0.7,2,1,2.9c0.2,0.5,0.3,0.9,0.4,1.3c0.1,0.4,0.2,0.9,0.3,1.3
			c0.2,0.8,0.4,1.6,0.5,2.4c0.1,0.8,0.2,1.5,0.3,2.1c0.1,0.7,0.2,1.3,0.3,1.8c0.1,0.6,0.1,1.1,0.1,1.5
			C666.9,118,666.9,118.9,666.9,119L666.9,119z M666.5,118.9c0,0-0.1-1-0.2-2.8c0-0.5,0-1-0.1-1.5c-0.1-0.6-0.2-1.2-0.3-1.8
			c-0.1-0.7-0.2-1.4-0.4-2.1c-0.2-0.7-0.4-1.5-0.7-2.3c-1-3.2-2.6-7.1-5.5-10.9c-2.8-3.8-6.6-7.5-11.4-10.4c-2.5-1.4-5-2.8-7.9-3.7
			c-0.7-0.2-1.4-0.5-2.2-0.7c-0.7-0.2-1.5-0.4-2.2-0.5l-1.1-0.3c-0.4-0.1-0.8-0.1-1.1-0.2c-0.8-0.1-1.5-0.2-2.3-0.3
			c-0.8-0.1-1.7-0.1-2.5-0.1l-1.3-0.1l-0.6,0c-0.1,0,0.1,0,0,0l-0.1,0l-0.2,0l-0.3,0c-1.6,0.1-3.3,0.1-5,0.4
			c-3.3,0.4-6.6,1.5-9.9,2.8c-0.8,0.4-1.6,0.7-2.4,1.1c-0.8,0.4-1.5,0.9-2.3,1.3l-1.2,0.7l-1.1,0.8c-0.7,0.5-1.5,1-2.2,1.6
			c-2.8,2.3-5.2,5-7.4,8l-1.5,2.3c-0.3,0.4-0.5,0.8-0.7,1.2l-0.6,1.2l-0.6,1.2c-0.2,0.4-0.4,0.9-0.5,1.3c-0.3,0.9-0.7,1.7-1,2.6
			l-0.8,2.7l-0.2,0.7l-0.1,0.7l-0.3,1.4c-0.4,1.8-0.5,3.8-0.7,5.8c0,3.7,0.3,7.6,1.3,11.3c1.1,3.7,2.7,7.2,4.8,10.4
			c0.5,0.8,1.1,1.5,1.7,2.3c0.3,0.4,0.6,0.8,0.9,1.1l1,1l1,1c0.3,0.4,0.6,0.7,1,1c0.7,0.6,1.4,1.2,2.1,1.8c0.7,0.6,1.5,1.1,2.2,1.6
			c0.4,0.3,0.7,0.5,1.1,0.8l1.2,0.7c0.8,0.4,1.6,0.9,2.4,1.3c0.8,0.4,1.7,0.7,2.5,1.1c3.3,1.3,6.8,2.2,10.1,2.5
			c1.6,0.3,3.4,0.2,5.1,0.3l0.3,0l0.2,0l0.1,0c0,0-0.1,0,0,0l0.6,0l1.2-0.1c0.8-0.1,1.6-0.1,2.4-0.2c6.4-0.8,12.2-3.1,17-6
			c4.8-3,8.6-6.7,11.4-10.5c2.8-3.8,4.5-7.6,5.5-10.9c0.2-0.8,0.5-1.6,0.7-2.3c0.2-0.7,0.3-1.4,0.4-2.1c0.1-0.7,0.2-1.3,0.3-1.8
			c0.1-0.6,0.1-1.1,0.1-1.5C666.5,119.9,666.5,118.9,666.5,118.9L666.5,118.9z"/>
	</g>
	<g>
		<circle class="st10" cx="787.7" cy="123.5" r="7.5"/>
		<path d="M795.4,123.5c0,0,0,0.2,0,0.5c0,0.3,0,0.9-0.1,1.6c-0.1,0.7-0.2,1.5-0.6,2.5c-0.3,1-0.9,2.1-1.9,3c-1,0.9-2.4,1.5-4,1.6
			c-0.4,0-0.7,0-1.2,0c-0.3-0.1-0.6-0.1-1.1-0.3c-0.9-0.2-1.5-0.6-2.2-1.1c-1.3-0.9-2.4-2.1-3.3-3.3c-0.9-1.3-1.5-2.8-1.8-4.5
			c0-0.5-0.1-0.7-0.1-1.3c0-0.5,0-0.9,0.1-1.4c0.2-0.9,0.4-1.7,0.9-2.5c0.9-1.6,2.3-2.8,3.8-3.6c0.8-0.4,1.6-0.7,2.5-0.8
			c0.4-0.1,0.8-0.1,1.3-0.1l0.3,0l0.1,0l0.2,0c0.2,0,0.3,0,0.5,0.1c0.9,0.2,1.7,0.4,2.3,0.7c0.7,0.3,1.3,0.8,1.8,1.2
			c1,1,1.6,2.1,1.9,3c0.3,1,0.5,1.8,0.6,2.5c0.1,0.7,0.1,1.2,0.1,1.6C795.4,123.3,795.4,123.5,795.4,123.5L795.4,123.5z M795,123.5
			c0,0,0-0.2,0-0.5c0-0.3-0.1-0.8-0.4-1.4c-0.3-0.6-0.7-1.2-1.3-1.7c-0.6-0.5-1.5-0.9-2.3-1.2c-0.4-0.1-0.8-0.3-1.3-0.3
			c-0.4-0.1-0.9-0.2-1.2-0.2c-0.1,0-0.3,0-0.4,0l-0.2,0l-0.1,0c-0.1,0,0.1,0,0.1,0l0,0l0,0l0,0c-0.2,0-0.5,0-0.7,0.1
			c-0.5,0-0.9,0.2-1.4,0.3c-0.9,0.3-1.9,0.9-2.6,1.8c-0.4,0.4-0.7,0.9-1,1.4c-0.1,0.3-0.3,0.5-0.4,0.8c-0.1,0.2-0.2,0.7-0.3,0.9
			c-0.1,0.6-0.2,1.3-0.1,2c0.1,0.7,0.4,1.3,0.7,1.9c0.4,0.6,0.8,1,1.4,1.4c0.6,0.3,1.2,0.6,1.8,0.7c0.6,0.1,1.2,0.1,1.7,0.1
			c0.2,0,0.6-0.1,0.9-0.1c0,0,0.2-0.1,0.3-0.1c0.1,0,0.2,0,0.4-0.1c0.9-0.2,1.8-0.5,2.6-0.8c0.8-0.3,1.6-0.7,2.3-1.3
			c0.7-0.5,1.1-1.2,1.3-1.7c0.3-0.6,0.3-1,0.4-1.4C795,123.6,795,123.5,795,123.5L795,123.5z"/>
	</g>
	<g>
		<circle class="st10" cx="802.7" cy="165" r="7.5"/>
		<path d="M810.4,165c0,0,0,0.2,0,0.5c0,0.3,0,0.9-0.1,1.6c-0.1,0.7-0.2,1.5-0.6,2.5c-0.3,1-0.9,2.1-1.9,3c-1,0.9-2.4,1.5-4,1.6
			c-0.4,0-0.7,0-1.2,0c-0.3-0.1-0.6-0.1-1.1-0.3c-0.9-0.2-1.5-0.6-2.2-1.1c-1.3-0.9-2.4-2.1-3.3-3.3c-0.9-1.3-1.5-2.7-1.8-4.5
			c-0.1-0.6-0.1-1.7,0-2.6c0.2-0.9,0.4-1.7,0.9-2.5c0.9-1.6,2.3-2.8,3.8-3.6c0.8-0.4,1.6-0.7,2.5-0.8c0.4-0.1,0.8-0.1,1.3-0.1l0.3,0
			l0.1,0l0.2,0c0.2,0,0.3,0,0.5,0.1c0.9,0.2,1.7,0.4,2.3,0.7c0.7,0.3,1.3,0.8,1.8,1.2c1,1,1.6,2.1,1.9,3c0.3,1,0.5,1.8,0.6,2.5
			c0.1,0.7,0.1,1.2,0.1,1.6C810.4,164.8,810.4,165,810.4,165L810.4,165z M810,165c0,0,0-0.2,0-0.5c0-0.3-0.1-0.8-0.4-1.4
			c-0.3-0.6-0.7-1.2-1.3-1.7c-0.6-0.5-1.5-0.9-2.3-1.2c-0.4-0.1-0.8-0.3-1.3-0.3c-0.4-0.1-0.9-0.2-1.2-0.2c-0.1,0-0.3,0-0.4,0
			l-0.2,0l-0.1,0c-0.1,0,0.1,0,0.1,0l0,0l0,0l0,0c-0.2,0-0.5,0-0.7,0.1c-0.5,0-0.9,0.2-1.4,0.3c-0.9,0.3-1.9,0.9-2.6,1.8
			c-0.4,0.4-0.7,0.9-1,1.4c-0.3,0.6-0.5,1-0.7,1.8c0,0.2-0.1,0.6-0.1,0.9c0,0.3,0,0.7,0.1,1c0.1,0.7,0.4,1.3,0.7,1.9
			c0.4,0.6,0.8,1,1.4,1.4c0.6,0.3,1.2,0.6,1.8,0.7c0.6,0.1,1.2,0.1,1.7,0.1c0.2,0,0.6-0.1,0.9-0.1c0,0,0.2-0.1,0.3-0.1
			c0.1,0,0.2,0,0.4-0.1c0.9-0.2,1.8-0.5,2.6-0.8c0.8-0.3,1.6-0.7,2.3-1.3c0.7-0.5,1.1-1.2,1.3-1.7c0.3-0.6,0.3-1,0.4-1.4
			C810,165.1,810,164.9,810,165L810,165z"/>
	</g>
	<g>
		<circle class="st10" cx="795.2" cy="206.4" r="7.5"/>
		<path d="M802.9,206.5c0,0,0,0.2,0,0.5c0,0.3,0,0.9-0.1,1.6c-0.1,0.7-0.2,1.5-0.6,2.5c-0.3,1-0.9,2.1-1.9,3c-1,0.9-2.4,1.5-4,1.6
			c-0.4,0-0.7,0-1.2,0c-0.3-0.1-0.6-0.1-1.1-0.3c-0.9-0.2-1.5-0.6-2.2-1.1c-1.3-0.9-2.4-2.1-3.3-3.3c-0.9-1.3-1.5-2.8-1.8-4.5
			c0-0.5-0.1-0.7-0.1-1.3c0-0.5,0-0.9,0.1-1.4c0.2-0.9,0.4-1.7,0.9-2.5c0.9-1.6,2.3-2.8,3.8-3.6c0.8-0.4,1.6-0.7,2.5-0.8
			c0.4-0.1,0.8-0.1,1.3-0.1l0.3,0l0.1,0l0.2,0c0.2,0,0.3,0,0.5,0.1c0.9,0.2,1.7,0.4,2.3,0.7c0.7,0.3,1.3,0.8,1.8,1.2
			c1,1,1.6,2.1,1.9,3c0.3,1,0.5,1.8,0.6,2.5c0.1,0.7,0.1,1.2,0.1,1.6C802.9,206.3,802.9,206.4,802.9,206.5L802.9,206.5z
			 M802.5,206.4c0,0,0-0.2,0-0.5c0-0.3-0.1-0.8-0.4-1.4c-0.3-0.6-0.7-1.2-1.3-1.7c-0.6-0.5-1.5-0.9-2.3-1.2
			c-0.4-0.1-0.8-0.3-1.3-0.3c-0.4-0.1-0.9-0.2-1.2-0.2c-0.1,0-0.3,0-0.4,0l-0.2,0l-0.1,0c-0.1,0,0.1,0,0.1,0l0,0l0,0l0,0
			c-0.2,0-0.5,0-0.7,0.1c-0.5,0-0.9,0.2-1.4,0.3c-0.9,0.3-1.9,0.9-2.6,1.8c-0.4,0.4-0.7,0.9-1,1.4c-0.1,0.3-0.3,0.5-0.4,0.8
			c-0.1,0.2-0.2,0.7-0.3,0.9c-0.1,0.6-0.2,1.3-0.1,2c0.1,0.7,0.4,1.3,0.7,1.9c0.4,0.6,0.8,1,1.4,1.4c0.6,0.3,1.2,0.6,1.8,0.7
			c0.6,0.1,1.2,0.1,1.7,0.1c0.2,0,0.6-0.1,0.9-0.1c0,0,0.2-0.1,0.3-0.1c0.1,0,0.2,0,0.4-0.1c0.9-0.2,1.8-0.5,2.6-0.8
			c0.8-0.3,1.6-0.7,2.3-1.3c0.7-0.5,1.1-1.2,1.3-1.7c0.3-0.6,0.3-1,0.4-1.4C802.5,206.6,802.5,206.4,802.5,206.4L802.5,206.4z"/>
	</g>
	<g>
		<circle class="st11" cx="674.2" cy="288.1" r="25"/>
		<path d="M699.4,288.1c0,0,0,0.6-0.1,1.8c0,0.3,0,0.6-0.1,1c0,0.4-0.1,0.7-0.2,1.2c-0.1,0.4-0.1,0.9-0.2,1.4
			c-0.1,0.5-0.2,1-0.3,1.5c-0.1,0.3-0.1,0.5-0.2,0.8c-0.1,0.3-0.2,0.6-0.3,0.8c-0.2,0.6-0.3,1.2-0.6,1.8c-0.2,0.6-0.5,1.3-0.8,1.9
			c-0.3,0.6-0.7,1.3-1,2c-1.5,2.7-3.7,5.6-6.9,7.9c-3.1,2.4-7.2,4-11.7,4.5c-0.6,0.1-1.1,0-1.7,0.1l-0.9,0l-0.4,0l-0.1,0l-0.1,0
			l-0.1,0l-0.2,0c-1.1-0.1-2.1-0.2-3.4-0.4c-2.4-0.4-4.6-1.3-6.7-2.4c-2.2-1.1-4.1-2.5-6-4.1c-1.8-1.6-3.4-3.5-4.8-5.5
			c-0.7-1-1.3-2.1-1.8-3.2c-0.3-0.6-0.6-1.1-0.8-1.7c-0.2-0.6-0.5-1.2-0.7-1.8c-0.8-2.4-1.3-4.9-1.5-7.5c0-1.4-0.1-2.4,0.1-3.8
			c0.1-1.3,0.4-2.6,0.6-3.9c0.7-2.5,1.7-4.9,3.1-7.1c1.4-2.2,3.1-4.1,5-5.8c2-1.6,4.1-3.1,6.3-4.1c2.3-1,4.6-1.8,7-2.1
			c1.2-0.2,2.4-0.2,3.5-0.3l0.2,0l0.1,0l0.1,0l0.2,0l0.4,0l0.8,0.1c0.5,0,1,0,1.6,0.1c1.2,0.2,2.4,0.3,3.4,0.7
			c0.5,0.1,1.1,0.3,1.6,0.4c0.5,0.2,1,0.4,1.5,0.6c1,0.4,1.9,0.9,2.8,1.4c0.9,0.5,1.7,1.1,2.5,1.7c3.1,2.4,5.3,5.3,6.8,8
			c0.3,0.7,0.7,1.4,1,2c0.3,0.7,0.5,1.3,0.8,1.9c0.2,0.6,0.4,1.2,0.6,1.8c0.1,0.3,0.2,0.6,0.3,0.8c0.1,0.3,0.1,0.6,0.2,0.8
			c0.1,0.5,0.2,1,0.3,1.5c0.1,0.5,0.1,0.9,0.2,1.3c0.1,0.8,0.2,1.5,0.2,2.1C699.4,287.5,699.4,288.1,699.4,288.1L699.4,288.1z
			 M699,288.1c0,0,0-0.6-0.1-1.7c0-0.6-0.1-1.3-0.3-2.1c-0.1-0.4-0.1-0.8-0.3-1.3c-0.1-0.5-0.3-0.9-0.4-1.4c-0.7-2-1.7-4.4-3.6-6.6
			c-1.8-2.3-4.2-4.5-7.2-6.2c-1.5-0.8-3.1-1.6-4.9-2.2c-0.4-0.1-0.9-0.3-1.3-0.4c-0.5-0.1-0.9-0.2-1.4-0.3c-0.9-0.3-1.8-0.3-2.7-0.5
			c-0.5-0.1-1,0-1.6-0.1l-0.8,0l-0.4,0c-0.1,0,0.1,0,0.1,0l0,0l-0.1,0l-0.2,0c-1,0.1-2,0-3,0.2c-2,0.2-4,0.9-6,1.6
			c-2,0.8-3.8,1.9-5.5,3.3c-1.7,1.4-3.2,3-4.5,4.8c-1.3,1.8-2.3,3.9-3.1,6c-0.3,1.1-0.7,2.2-0.9,3.3c-0.3,1-0.3,2.4-0.5,3.5
			c-0.1,2.3,0.1,4.7,0.7,7c0.7,2.3,1.6,4.5,2.9,6.5c0.3,0.5,0.7,1,1,1.4c0.3,0.5,0.7,0.9,1.1,1.3c0.4,0.4,0.8,0.9,1.2,1.2l1.3,1.1
			c1.8,1.4,3.8,2.5,5.9,3.3c2.1,0.7,4.2,1.2,6.2,1.4c1,0.1,2.1,0.1,3.2,0.1l0.2,0l0.1,0l0.1,0c0,0-0.1,0,0,0l0.4,0l0.7-0.1
			c0.5-0.1,1-0.1,1.5-0.1c3.9-0.5,7.4-1.9,10.4-3.6c3-1.8,5.4-4,7.2-6.2c1.8-2.3,2.9-4.6,3.5-6.7c0.2-0.5,0.3-1,0.4-1.4
			c0.1-0.5,0.2-0.9,0.3-1.3c0.1-0.8,0.3-1.5,0.3-2.1C699,288.7,699,288.1,699,288.1L699,288.1z"/>
	</g>
	<g>
		<circle class="st10" cx="520.8" cy="50.5" r="7.5"/>
		<path d="M528.5,50.6c0,0,0,0.2,0,0.5c0,0.3,0,0.9-0.1,1.6c-0.1,0.7-0.2,1.5-0.6,2.5c-0.3,1-0.9,2.1-1.9,3c-1,0.9-2.4,1.5-4,1.6
			c-0.4,0-0.7,0-1.2,0c-0.3-0.1-0.6-0.1-1.1-0.3c-0.9-0.2-1.5-0.6-2.2-1.1c-1.3-0.9-2.4-2.1-3.3-3.3c-0.9-1.3-1.5-2.8-1.8-4.5
			c0-0.5-0.1-0.7-0.1-1.3c0-0.5,0-0.9,0.1-1.4c0.2-0.9,0.4-1.7,0.9-2.5c0.9-1.6,2.3-2.8,3.8-3.6c0.8-0.4,1.6-0.7,2.5-0.8
			c0.4-0.1,0.8-0.1,1.3-0.1l0.3,0l0.1,0l0.2,0c0.2,0,0.3,0,0.5,0.1c0.9,0.2,1.7,0.4,2.3,0.7c0.7,0.3,1.3,0.8,1.8,1.2
			c1,1,1.6,2.1,1.9,3c0.3,1,0.5,1.8,0.6,2.5c0.1,0.7,0.1,1.2,0.1,1.6C528.5,50.4,528.5,50.5,528.5,50.6L528.5,50.6z M528.1,50.5
			c0,0,0-0.2,0-0.5c0-0.3-0.1-0.8-0.4-1.4c-0.3-0.6-0.7-1.2-1.3-1.7c-0.6-0.5-1.5-0.9-2.3-1.2c-0.4-0.1-0.8-0.3-1.3-0.3
			c-0.4-0.1-0.9-0.2-1.2-0.2c-0.1,0-0.3,0-0.4,0l-0.2,0l-0.1,0c-0.1,0,0.1,0,0.1,0l0,0l0,0l0,0c-0.2,0-0.5,0-0.7,0.1
			c-0.5,0-0.9,0.2-1.4,0.3c-0.9,0.3-1.9,0.9-2.6,1.8c-0.4,0.4-0.7,0.9-1,1.4c-0.1,0.3-0.3,0.5-0.4,0.8c-0.1,0.2-0.2,0.7-0.3,0.9
			c-0.1,0.6-0.2,1.3-0.1,2c0.1,0.7,0.4,1.3,0.7,1.9c0.4,0.6,0.8,1,1.4,1.4c0.6,0.3,1.2,0.6,1.8,0.7c0.6,0.1,1.2,0.1,1.7,0.1
			c0.2,0,0.6-0.1,0.9-0.1c0,0,0.2-0.1,0.3-0.1c0.1,0,0.2,0,0.4-0.1c0.9-0.2,1.8-0.5,2.6-0.8c0.8-0.3,1.6-0.7,2.3-1.3
			c0.7-0.5,1.1-1.2,1.3-1.7c0.3-0.6,0.3-1,0.4-1.4C528.1,50.7,528.1,50.5,528.1,50.5L528.1,50.5z"/>
	</g>
	<g>
		<circle class="st10" cx="563.8" cy="27.5" r="7.5"/>
		<path d="M571.5,27.5c0,0,0,0.2,0,0.5c0,0.3,0,0.9-0.1,1.6c-0.1,0.7-0.2,1.5-0.6,2.5c-0.3,1-0.9,2.1-1.9,3c-1,0.9-2.4,1.5-4,1.6
			c-0.4,0-0.7,0-1.2,0c-0.3-0.1-0.6-0.1-1.1-0.3c-0.9-0.2-1.5-0.6-2.2-1.1c-1.3-0.9-2.4-2.1-3.3-3.3c-0.9-1.3-1.5-2.8-1.8-4.5
			c0-0.5-0.1-0.7-0.1-1.3c0-0.5,0-0.9,0.1-1.4c0.2-0.9,0.4-1.7,0.9-2.5c0.9-1.6,2.3-2.8,3.8-3.6c0.8-0.4,1.6-0.7,2.5-0.8
			c0.4-0.1,0.8-0.1,1.3-0.1l0.3,0l0.1,0l0.2,0c0.2,0,0.3,0,0.5,0.1c0.9,0.2,1.7,0.4,2.3,0.7c0.7,0.3,1.3,0.8,1.8,1.2
			c1,1,1.6,2.1,1.9,3c0.3,1,0.5,1.8,0.6,2.5c0.1,0.7,0.1,1.2,0.1,1.6C571.5,27.3,571.5,27.5,571.5,27.5L571.5,27.5z M571.1,27.5
			c0,0,0-0.2,0-0.5c0-0.3-0.1-0.8-0.4-1.4c-0.3-0.6-0.7-1.2-1.3-1.7c-0.6-0.5-1.5-0.9-2.3-1.2c-0.4-0.1-0.8-0.3-1.3-0.3
			c-0.4-0.1-0.9-0.2-1.2-0.2c-0.1,0-0.3,0-0.4,0l-0.2,0l-0.1,0c-0.1,0,0.1,0,0.1,0l0,0l0,0l0,0c-0.2,0-0.5,0-0.7,0.1
			c-0.5,0-0.9,0.2-1.4,0.3c-0.9,0.3-1.9,0.9-2.6,1.8c-0.4,0.4-0.7,0.9-1,1.4c-0.1,0.3-0.3,0.5-0.4,0.8c-0.1,0.2-0.2,0.7-0.3,0.9
			c-0.1,0.6-0.2,1.3-0.1,2c0.1,0.7,0.4,1.3,0.7,1.9c0.4,0.6,0.8,1,1.4,1.4c0.6,0.3,1.2,0.6,1.8,0.7c0.6,0.1,1.2,0.1,1.7,0.1
			c0.2,0,0.6-0.1,0.9-0.1c0,0,0.2-0.1,0.3-0.1c0.1,0,0.2,0,0.4-0.1c0.9-0.2,1.8-0.5,2.6-0.8c0.8-0.3,1.6-0.7,2.3-1.3
			c0.7-0.5,1.1-1.2,1.3-1.7c0.3-0.6,0.3-1,0.4-1.4C571.1,27.7,571.1,27.5,571.1,27.5L571.1,27.5z"/>
	</g>
	<g>
		<circle class="st12" cx="724.2" cy="173.9" r="25"/>
		<path d="M749.4,174c0,0,0,0.6-0.1,1.8c0,0.3,0,0.6-0.1,1c0,0.4-0.1,0.7-0.2,1.2c-0.1,0.4-0.1,0.9-0.2,1.4c-0.1,0.5-0.2,1-0.3,1.5
			c-0.1,0.3-0.1,0.5-0.2,0.8c-0.1,0.3-0.2,0.6-0.3,0.8c-0.2,0.6-0.3,1.2-0.6,1.8c-0.2,0.6-0.5,1.3-0.8,1.9c-0.3,0.6-0.7,1.3-1,2
			c-1.5,2.7-3.7,5.6-6.9,7.9c-3.1,2.4-7.2,4-11.7,4.5c-0.6,0.1-1.1,0-1.7,0.1l-0.9,0l-0.4,0l-0.1,0l-0.1,0l-0.1,0l-0.2,0
			c-1.1-0.1-2.1-0.2-3.4-0.4c-2.4-0.4-4.6-1.3-6.7-2.4c-2.2-1.1-4.1-2.5-6-4.1c-1.8-1.6-3.4-3.5-4.8-5.5c-0.7-1-1.3-2.1-1.8-3.2
			c-0.3-0.6-0.6-1.1-0.8-1.7c-0.2-0.6-0.5-1.2-0.7-1.8c-0.4-1.2-0.8-2.4-1-3.7c-0.1-0.6-0.3-1.2-0.3-1.9l-0.2-2
			c0-1.2-0.1-2.4,0.1-3.8c0.1-1.3,0.4-2.6,0.6-3.9c0.7-2.5,1.7-4.9,3.1-7.1c1.4-2.2,3.1-4.1,5-5.8c2-1.6,4.1-3.1,6.3-4.1
			c2.3-1,4.6-1.8,7-2.1c1.2-0.2,2.4-0.2,3.5-0.3l0.2,0l0.1,0l0.1,0l0.2,0l0.4,0l0.8,0.1c0.5,0,1,0,1.6,0.1c1.2,0.2,2.4,0.3,3.4,0.7
			c0.5,0.1,1.1,0.3,1.6,0.4c0.5,0.2,1,0.4,1.5,0.6c1,0.4,1.9,0.9,2.8,1.4c0.9,0.5,1.7,1.1,2.5,1.7c3.1,2.4,5.3,5.3,6.8,8
			c0.3,0.7,0.7,1.4,1,2c0.3,0.7,0.5,1.3,0.8,1.9c0.2,0.6,0.4,1.2,0.6,1.8c0.1,0.3,0.2,0.6,0.3,0.8c0.1,0.3,0.1,0.6,0.2,0.8
			c0.1,0.5,0.2,1,0.3,1.5c0.1,0.5,0.1,0.9,0.2,1.3c0.1,0.8,0.2,1.5,0.2,2.1C749.4,173.3,749.4,173.9,749.4,174L749.4,174z
			 M749,173.9c0,0,0-0.6-0.1-1.7c0-0.6-0.1-1.3-0.3-2.1c-0.1-0.4-0.1-0.8-0.3-1.3c-0.1-0.5-0.3-0.9-0.4-1.4c-0.7-2-1.7-4.4-3.6-6.6
			c-1.8-2.3-4.2-4.5-7.2-6.2c-1.5-0.8-3.1-1.6-4.9-2.2c-0.4-0.1-0.9-0.3-1.3-0.4c-0.5-0.1-0.9-0.2-1.4-0.3c-0.9-0.3-1.8-0.3-2.7-0.5
			c-0.5-0.1-1,0-1.6-0.1l-0.8,0l-0.4,0c-0.1,0,0.1,0,0.1,0l0,0l-0.1,0l-0.2,0c-1,0.1-2,0-3,0.2c-2,0.2-4,0.9-6,1.6
			c-2,0.8-3.8,1.9-5.5,3.3c-1.7,1.4-3.2,3-4.5,4.8c-1.3,1.8-2.3,3.9-3.1,6c-0.3,1.1-0.7,2.2-0.9,3.3c-0.3,1.1-0.3,2.4-0.5,3.6
			c-0.1,2.2,0.1,4.7,0.7,7c0.7,2.3,1.6,4.5,2.9,6.5c0.3,0.5,0.7,1,1,1.4c0.3,0.5,0.7,0.9,1.1,1.3c0.4,0.4,0.8,0.9,1.2,1.2l1.3,1.1
			c1.8,1.4,3.8,2.5,5.9,3.3c2.1,0.7,4.2,1.2,6.2,1.4c1,0.1,2.1,0.1,3.2,0.1l0.2,0l0.1,0l0.1,0c0,0-0.1,0,0,0l0.4,0l0.7-0.1
			c0.5-0.1,1-0.1,1.5-0.1c3.9-0.5,7.4-1.9,10.4-3.6c3-1.8,5.4-4,7.2-6.2c1.8-2.3,2.9-4.6,3.5-6.7c0.2-0.5,0.3-1,0.4-1.4
			c0.1-0.5,0.2-0.9,0.3-1.3c0.1-0.8,0.3-1.5,0.3-2.1C749,174.5,749,173.9,749,173.9L749,173.9z"/>
	</g>
	<g>
	</g>
	<g>
	</g>
	<g>
	</g>
	<g>
	</g>
	<g>
	</g>
	<g>
	</g>
	<g>
	</g>
	<g>
	</g>
	<g>
	</g>
	<g>
	</g>
	<g>
	</g>
	<g>
	</g>
	<g>
	</g>
	<g>
	</g>
	<g>
	</g>
</g>
</svg>
