<?xml version="1.0" encoding="utf-8"?>
<!-- Generator: Adobe Illustrator 20.1.0, SVG Export Plug-In . SVG Version: 6.00 Build 0)  -->
<svg version="1.1" id="Layer_1" xmlns="http://www.w3.org/2000/svg" xmlns:xlink="http://www.w3.org/1999/xlink" x="0px" y="0px"
	 viewBox="0 0 960 560" style="enable-background:new 0 0 960 560;" xml:space="preserve">
<g>
	<g>
		<path d="M436.6,278.2c0.1-0.1,0.3-0.2,0.3-0.3c0-0.5,0-1.1,0-1.6c0-0.7-0.1-1.3,0.3-2c0.3-0.5-0.1-1.2,0.3-1.9
			c0.3-0.5-0.1-1.3,0.4-1.8c-0.1-1.5,0.6-3,1-4.4c0.8-2.5,1.8-5,3.2-7.2c1.3-2.1,2.5-4.3,4.2-6.2c1.1-1.3,2.2-2.6,3.3-3.9
			c0.4-0.5,0.8-1,1.5-1.2c0.2,0,0.3-0.3,0.5-0.5c1.6-2.3,4-3.5,6.3-5.1c1.7-1.2,3.6-2,5.4-2.9c1.6-0.8,3.2-1.4,5-1.8
			c0.9-0.2,1.7-0.6,2.6-0.7c0.8-0.1,1.5-0.5,2.2-0.5c1.6,0,3.1-0.6,4.6-0.4c0.1,0,0.3-0.2,0.4-0.3c1.3,0,2.6,0,4,0
			c0.1,0.1,0.2,0.3,0.3,0.3c0.7,0,1.3,0,2,0c0.7,0,1.3-0.1,2,0.3c0.5,0.3,1.3-0.3,1.8,0.4c1.2-0.1,2.2,0.4,3.4,0.7
			c1.3,0.2,2.5,0.8,3.8,1.2c1.3,0.4,2.6,1,3.8,1.6c2,1.1,4,2.1,5.8,3.4c1,0.8,2,1.5,3,2.3c0.4,0.4,0.6,1.1,1.1,1.3
			c0.5,0.2,0.8,0.7,1.2,1c2.7,2.6,5,5.5,7,8.7c1.4,2.3,2.7,4.7,3.5,7.3c0.3,0.9,0.8,1.9,1.1,2.9c0.2,0.6,0.4,1.2,0.5,1.8
			c0.2,0.8,0,1.7,0.4,2.3c0.5,0.7-0.1,1.6,0.6,2.1c0.1,0,0,0.2,0,0.3c-0.2,1,0.4,2,0.3,3c0,1,0,2,0,3c0,0.9,0,1.8,0,2.6
			c-0.1,1.3,0,2.6-0.3,4c-0.3,1.2-0.5,2.5-0.7,3.7c-0.3,2.2-1,4.3-1.7,6.4c-0.9,2.5-2.1,4.9-3.4,7.2c-0.9,1.5-1.9,3-2.9,4.4
			c-0.6,0.9-1.4,1.8-2.2,2.6c-1.2,1.3-2.5,2.5-3.7,3.7c-0.7,0.7-1.4,1.3-2.1,2.1c-0.7,0.7-1.6,1.2-2.4,1.8c-2,1.3-4,2.6-6.1,3.5
			c-1,0.4-2,1-3.1,1.3c-1.1,0.2-2.1,0.9-3.2,1.1c-1.3,0.3-2.5,0.8-3.8,0.8c-0.5,0-1,0.2-1.5,0.3c-0.5,0.1-0.9-0.2-1.4,0.3
			c-0.2,0.2-0.6,0-1,0c-2.7,0-5.5,0-8.2,0c-0.6,0-1.1-0.2-1.7-0.3c-0.6-0.1-1.2,0.2-1.7-0.3c-1.3,0.1-2.5-0.3-3.7-0.7
			c-1.6-0.4-3.1-0.9-4.7-1.5c-1.2-0.5-2.4-1-3.6-1.6c-2.1-1.1-4.1-2.3-6-3.7c-0.8-0.6-1.7-1.2-2.2-2.2c-1.4-0.7-2.2-2-3.4-3
			c-2.5-2.3-4.4-5-6.1-7.8c-1.9-3.1-3.4-6.4-4.4-9.9c-0.4-1.5-0.7-3.1-1.1-4.7c-0.2-0.9-0.1-1.8-0.5-2.7c-0.3-0.7-0.1-1.6-0.1-2.4
			c0-0.2,0.1-0.6-0.3-0.6C436.6,281.7,436.6,279.9,436.6,278.2z M480.2,237.3c-1.4,0.2-3.2-0.3-4.9,0.3c-0.9-0.2-1.8,0.2-2.7,0.4
			c-0.9,0.2-1.8,0.4-2.7,0.6c-2.1,0.4-4.1,1.4-6.1,2c-0.7,0.2-1.4,0.7-2,1c-0.7,0.3-1.4,0.7-2,1.1c-0.8,0.4-1.7,0.8-2.4,1.4
			c-0.7,0.6-1.5,1.1-2.3,1.6c-0.8,0.5-1.3,1.3-1.9,2c-1.9,1.9-3.9,3.7-5.7,5.9c-1.3,1.6-2.5,3.4-3.6,5.1c-1.3,2.2-2.5,4.6-3.3,7
			c-0.4,1.1-0.9,2.2-1,3.4c-0.1,1.4-0.9,2.6-0.7,4c-0.6,0.5-0.2,1.2-0.3,1.9c-0.1,0.6-0.4,1.2-0.4,1.8c0.1,1-0.1,2,0,3
			c0.1,0.9-0.2,1.7-0.1,2.5c0.2,0.9,0,2,0,3c0,0.3-0.1,0.7,0,1c0.6,1.2,0.5,2.6,0.9,3.9c0.3,0.9,0.4,1.9,0.7,2.8
			c0.3,1,0.3,2.1,1,2.9c0.6,2.5,2,4.7,3.2,6.9c1.2,2.2,2.8,4.2,4.3,6.1c1.8,2.2,4,4.2,6.3,5.9c0.5,0.4,0.6,0.9,1.1,1.2
			c1.6,0.9,3.1,1.8,4.6,2.7c1.4,0.9,3,1.5,4.6,2.1c1.6,0.6,3.2,1.1,4.8,1.5c1.2,0.3,2.3,0.7,3.5,0.6c0.6,0.6,1.4,0.2,2.2,0.3
			c0.7,0.1,1.4,0.4,2.2,0.3c0.8-0.1,1.7-0.1,2.5,0c2.1,0.2,4.1-0.4,6.1-0.3c0.1,0,0.2,0,0.3,0c0.9-0.4,1.9-0.5,2.9-0.7
			c0.7-0.1,1.3-0.3,1.9-0.5c1.6-0.6,3.3-1.1,4.9-1.7c2.3-0.9,4.4-2.1,6.5-3.4c0.6-0.4,1.2-0.7,1.8-1.2c0.6-0.4,0.9-1.1,1.5-1.5
			c0.8-0.6,1.6-1.3,2.3-2c1.9-1.9,3.7-3.9,5.4-6c1.5-1.9,2.6-4.1,3.9-6.1c1-1.6,1.4-3.5,2.3-5.2c0.3-0.6,0.6-1.4,0.7-2.2
			c0.1-1.9,1.2-3.7,1-5.7c0.6-0.5,0.2-1.2,0.3-1.8c0.1-0.7,0.3-1.3,0.3-2c0.1-0.9,0-1.8,0-2.6c0-0.9,0-1.8,0-2.6
			c0-0.9-0.2-1.8-0.3-2.7c-0.1-0.8-0.2-1.7-0.3-2.5c-0.2-1.4-0.6-2.8-0.8-4.2c-0.1-1-0.6-1.9-0.9-2.9c-0.3-1-0.7-2-1.2-3
			c-1.4-2.8-2.7-5.5-4.6-8c-1.6-2.1-3.2-4.1-5.1-6c-0.6-0.6-1.3-1.1-1.9-1.7c-0.4-0.4-0.7-0.8-1.1-1.2c-1.2-1-4.5-3.3-6.6-4.3
			c-1.3-0.6-2.5-1.3-3.9-1.8c-1.5-0.6-3.1-1-4.7-1.5c-1.2-0.3-2.4-0.8-3.7-0.7c-0.6-0.7-1.5,0-2-0.4c-0.7-0.5-1.4-0.2-2-0.3
			C482.3,237.2,481.4,237.3,480.2,237.3z"/>
		<path d="M454,254.4c0.3-0.2,0.6-0.4,0.8-0.7c1.1-1.2,2.4-2.2,3.7-3.1c0.3-0.2,0.5-0.6,0.7-0.8c0.6,0.2,0.8-0.4,1.2-0.7
			c1.1-0.7,2.3-1.1,3.3-1.9c0.5-0.4,0.7-1,1.5-1.1c0.6-0.1,1.1-0.4,1.7-0.6c0.1,0,0.2-0.2,0.3-0.3c0.7,0.1,1.3-0.3,1.9-0.5
			c1.7-0.5,3.4-0.9,5.1-1.3c1.2-0.2,2.5-0.2,3.7-0.5c1.2-0.3,2.5-0.1,3.8-0.1c0.8,0,1.6,0.2,2.3,0.3c0.7,0.1,1.5-0.2,2.2,0.3
			c0.3,0.2,0.8,0,1.7,0c-1.5-0.6-1.7-1.6-1.6-2.7c0.1-1,0.7-1.7,1.7-2.1c0.1-0.1,0.3-0.2,0.4-0.1c0.7,0.4,1.4,0.8,1.8,1.7
			c0.3,0.7,0,1.4-0.4,1.9c-0.5,0.6-1.2,1-1.7,1.5c2.2,0.7,4.5,1.5,6.8,2.3c0.6,0.2,1.2,0.6,1.7,1.2c0.4,0.5,1.2,0.7,1.9,1
			c1.8,0.9,3.4,2.2,5,3.4c1.1,0.8,2,1.9,2.9,2.9c2.2,2.2,3.9,4.7,5.5,7.3c0.7,1.1,1.1,2.3,1.7,3.4c0.5,1.1,1,2.2,1.4,3.4
			c0.3,1.1,0.6,2.2,0.9,3.3c0.4,1.6,0.5,3.2,0.8,4.8c0.3,1.8,0.2,3.6,0.2,5.3c0,0.7-0.2,1.4-0.3,2.2c-0.1,0.7,0.3,1.5-0.3,2.2
			c0.1,1.2-0.3,2.2-0.6,3.4c-0.4,1.5-0.7,3-1.3,4.4c-0.5,1.4-1.1,2.8-1.8,4c-1,1.8-2.1,3.5-3.3,5.1c-1.1,1.3-2,2.8-3.3,3.9
			c-1.5,1.4-3.1,2.5-4.7,3.8c-1.9,1.5-4,2.5-6.1,3.6c-0.5,0.3-0.9,0.7-1.4,1c-0.5,0.3-1.1,0.5-1.7,0.6c-0.6,0.2-1.2,0.3-1.8,0.5
			c-0.6,0.2-1.3,0.4-1.9,0.6c-0.7,0.2-1.3,0.2-2,0.3c-0.7,0.1-1.3,0.2-2,0.3c-0.7,0.1-1.4-0.2-2,0.3c-1.5-0.2-3,0.4-4.5-0.3
			c-0.2-0.1-0.4,0-0.6,0c-1.7,0.1-3.4-0.4-5-0.7c-1.5-0.3-3.1-0.8-4.6-1.3c-0.3-0.1-0.9-0.1-0.9-0.7c0-0.1-0.2-0.2-0.3-0.2
			c-1-0.1-1.7-0.7-2.5-1.1c-2.1-1.1-4.1-2.4-6-3.9c-2-1.6-3.7-3.4-5.4-5.2c-2.2-2.4-3.8-5.3-5.2-8.2c-0.6-1.2-0.8-2.6-1.6-3.8
			c0.2-1.2-0.7-2.3-0.7-3.5c0-0.4-0.2-0.8-0.3-1.2c-0.1-0.4-0.3-0.9-0.3-1.3c-0.1-0.5,0.1-1,0-1.5c-0.6-1.9-0.2-3.9-0.3-5.8
			c0-0.8-0.2-1.7,0.2-2.5c0.4-0.7-0.1-1.7,0.4-2.5c0.2-0.4,0.2-0.9,0.2-1.4c0-0.4,0.7-0.7,0.2-1.1c0.6-0.3,0.1-1,0.4-1.5
			c0.2-0.4,0.2-0.9,0.4-1.3c0.1-0.4,0.3-0.9,0.5-1.3c0.1-0.4,0.2-0.9,0.3-1.3c0.8-1.7,1.7-3.4,2.6-5c0.6-1,1.3-2,2-3
			C452,257,453,255.7,454,254.4z M480.4,307.1c-0.5-0.3-0.8-0.6-1.1-0.5c-0.2,0-0.4,0.5-0.5,0.8c0,0.1,0.4,0.5,0.6,0.4
			c0.3-0.1,0.5-0.4-1.2-0.9c0.9-0.4,0.9-0.4,0.8-1.3c-0.3,0-0.6,0-0.9,0C478.1,306.1,478.2,306.5,480.4,307.1z M481,306.4
			c0.1,0.6,0.1,1,0.2,1.5c1.2-0.8,1.2-0.8-1.7-2.3c0.4,0.5,0.7,0.8,1,1.1c0.1,0.1,0.5-0.1,0.6-0.2c0.1-0.3,0-0.6,0-1
			C480.6,305.6,480.2,305.6,481,306.4z M469.9,300.6c0,0.2-0.1,0.2-0.1,0.3c0.1,0.3-0.2,0.7,0.3,0.7c0.5,0,0.8-0.2,1-0.5
			c0.1-0.1-0.1-0.4-0.2-0.5c-0.3-0.1-0.6,0,1.9,0c-0.5,0.3-0.9,0.5-1.3,0.6c-0.2,0.1-0.4,0.1-0.3,0.3c0.1,0.1,0.3,0.3,0.4,0.3
			C472.6,302,472.7,301.9,469.9,300.6z M485,304.9c0-0.2-0.1-0.4-0.1-0.6c-0.2,0-0.4,0-0.5,0.1c-0.5,0.4-0.9,0.8-0.8,1.4
			c-0.3,0.3-0.6,0.5-0.6,1.1c0,0.6,0.4,0.5,0.6,0.7c0.2,0.2,0.4,0.1,0.5-0.1c0.1-0.3,0.3-0.6,0.2-0.9c-0.1-0.3-0.4-0.6-0.6-0.9
			c0.8,0,0.8,0,1.1-0.9C484.8,305,485,304.9,485,304.9c0,0.5,0,1,0,1.6c0.3,0,0.6,0,0.9,0C486.1,305.7,486.2,305,485,304.9z
			 M485,314.9c0.2-0.4,0.5-0.8,0.4-0.9c-0.4-0.4-0.3-1.3-1.2-1.2c-0.2,0.8,0.1,1.4,0.2-1.3c0.3,0.5,0.5,0.9,0.6,1.3
			c0.1,0.2,0.1,0.4,0.3,0.3c0.1-0.1,0.3-0.3,0.3-0.4C485.8,311.8,485.6,311.6,485,314.9z M482,259.7c1.1,0.6,1.2,0.7,2,0.5
			C483.5,259.4,482.7,259.8,482,259.7c0-0.1,0-0.2,0-0.2c-1,0-2.1-0.1-3.1,0c-0.2,0-0.4,0.2-0.7,0.3c-0.2,0.1-0.5,0-0.6,0.1
			c-0.1,0.1-0.5,0.2-0.2,0.7C478.8,259.4,480.5,259.8,482,259.7z M474.2,290.8c0.1,0.3,0.2,0.6,0.4,0.8c0.2,0.3,0.6,0.4,0.6,0.9
			c0,0,0.2,0.2,0.3,0.1c0.1,0,0.3-0.2,0.3-0.2c0-0.4,0-0.8-0.2-1.1c-0.3-0.4-0.7-0.9,0.2,2.3c-0.2-0.3-0.4-0.7-0.7-1
			c0,0-0.1,0-0.2,0c-0.1,0.1-0.2,0.2-0.2,0.2c0.2,0.4,0.3,0.7,0.5,1.1c0,0,0.2,0,0.3,0C475.7,293.9,475.8,293.8,474.2,290.8z
			 M472.7,297.2c-0.3-0.3-0.4-0.7-0.7-0.8c-0.3-0.2-0.7-0.3-1-0.3c-0.3,0-0.6,0.3-0.8,0.4c0.7,0.8,1.4,1,3.7-0.8c-0.6,0-1,0-1.4,0
			c-0.1,0-0.2,0.2-0.2,0.3c0,0.1,0.1,0.3,0.2,0.3c0.2,0.1,0.4,0.3,0.7,0.3c0.2,0,0.6,0,0.7-0.1C473.9,296.4,473.8,296.1,472.7,297.2
			z M471.1,312.8c0.8-0.6,1.3-1,1.8-1.4c-0.5-0.3-0.9-0.5-1.2-0.8c-0.7,0.5-0.3,1.2-0.6,4.2c0.5-0.5,0.9-0.7,1-1.1
			c0.1-0.3,0.1-0.9-0.1-1.1c-0.3-0.3-0.5,0.3-0.8,0.5c-0.3,0.2-0.5,0.5-0.5,0.5C470.8,314,470.9,314.3,471.1,312.8z M475.2,306.2
			c0.1-0.3,0.2-0.6,0.3-0.8c0.2-0.4,0.1-0.8-0.3-0.8c-0.3,0-0.7,0-0.8,0.3c-0.2,0.6-0.5,1.2,0.2,1.6c-0.2,0.4-0.4,0.8-0.6,1.3
			c0.3,0,0.6,0,0.8,0c1,0,1.3-0.4,1.2-1.4C475.7,306.1,475.4,306.3,475.2,306.2z M474.5,312.1c0,0.6,0,1,0,1.4
			c0,0.1,0.2,0.2,0.3,0.2c0.1,0,0.3-0.1,0.3-0.2c0.1-0.2,0.3-0.4,0.3-0.7c0-0.2,0-0.6-0.1-0.7c-0.1-0.1-0.5-0.1-1,2.9
			c0.2,0.4,0.3,0.7,0.5,0.8c0.1,0.1,0.4-0.1,0.6-0.2c0.5-0.3,0.7-1.7,0.2-2c-0.1-0.1-0.4-0.1-0.5,0
			C474.9,314.2,474.6,314.6,474.5,312.1z M464.9,307.9c-0.1,0.1-0.3,0.2-0.4,0.3c-0.5,0.3-0.8,0.7-0.4,1.4c0.4-0.1,0.9,0,1.1-0.3
			c0.3-0.3,0.5-0.9,0.6-1.3c0-0.1-0.2-0.3-0.3-0.4c0.2-0.3,0.5-0.7,0.7-1c-0.8-0.9-1-0.9-1.5,0c-0.1,0.2-0.3,0.4-2.5,0.8
			c0.7,0.8,0.7,0.7,1,0.6c0.6-0.2,0.8-0.6,0.9-1.1c0-0.1-0.4-0.3-0.6-0.5c1.3-0.7,1.4-0.8,1.1-2.2c-0.8,0.2-1.1,1-1.7,1.3
			c-0.1-0.4-0.2-0.8-0.7-0.6c-0.7,0.2-0.7,0.4-0.5,1.6c0.1,0,0.2,0,0.3,0c0.2-0.2,0.5-0.6,0.8-0.2c0.3,0.3-0.2,0.5-0.4,0.8
			c-0.1,0.1-0.2,0.2,1.7,0.1C464.5,307.4,464.7,307.6,464.9,307.9z M471.8,304.7c0.2-0.2,0.4-0.2,0.4-0.3c0-0.2-0.1-0.3-0.2-0.5
			c-0.1,0.1-0.4,0.2-0.4,0.3c0,0.1,0.1,0.3,3.1-1.1c-0.7,0.2-1.2,0.3-1.6,0.5c-0.4,0.3-0.6,0.7-0.9,1.1c-0.1,0.3,0,0.5,0.4,0.5
			c0.7,0,1.1-0.3,1.4-0.9C474.1,304,474.3,303.7,471.8,304.7z M464.3,303.7c-0.7-0.6-0.7-0.6-1.1-0.2c-0.2,0.2-0.5,0.5-0.7,0.7
			c-0.1,0.1-0.1,0.1-0.2,0.2c0.1,0.1,0.2,0.1,0.3,0.2c0.8,0.2,1.3-0.3-2.4-0.1c1.7,0.2,1.7,0.2,2.5-1.2c-0.6,0.5-0.8-0.4-1.5-0.1
			C460.4,303.5,460.6,304.1,464.3,303.7z M459.3,299.9c0,0.3-0.1,0.7,0.4,0.7c0.9,0,1.5-0.5,2.2-0.9c0,0,0-0.2-0.1-0.4
			c-0.6,0-1.3,0-1.9,0c-0.2-0.5-0.7-0.5-1.3-0.8c0,0.5,0,0.8,0,1.1C458.6,300.1,459,299.9,459.3,299.9z M462,301.9
			c0.3-0.3,0.6-0.6,1-1c-0.6,0-1.1-0.1-1.6,0c-0.4,0.1-0.9,0.3-1.2,0.6c-0.2,0.2-0.2,0.6-0.1,0.9c0,0.1,0.6,0.2,0.7,0.1
			c0.3-0.2,0.5-0.4,0.9-0.3c0.6,0.4,1.4,0.5,1.6,0.2c0-0.1,0-0.3,0-0.4c0-0.1-0.1-0.3-0.1-0.4C462.7,301.7,462.3,301.8,462,301.9z
			 M466.4,308.6c0.3-0.1,0.6-0.2,0.9-0.4c0.1-0.1,0.2-0.3,0.2-0.5c-0.1,0-0.3-0.1-0.4-0.1c-0.8-0.2-0.5,0.6,0.9,1
			c-0.5,0-1-0.1-1.1,0c-0.2,0.7-1,0.6-1.3,1.1c-0.1,0.4-0.1,0.8-0.1,1.3c0.7-0.2,1.3-0.3,1.6-0.7
			C467.6,309.9,467.7,309.2,466.4,308.6z M474.5,295.2c-0.3-0.3-0.6-0.6-1-0.8c-0.8-0.5-1.5-1-1.4-2.1c0-0.1-0.2-0.2-0.3-0.2
			c-0.1,0-0.3,0.1-0.3,0.3c-0.1,0.1,0.1,0.4,0,0.5c-0.3,0.3-0.4,0.6,0.2,0.6c0,0,0.1,0.2,0.1,0.3c-0.1,0.7,0.4,1.1,0.9,1.3
			c0.5,0.2,1.1,0.7-1.8,0.4c0.4,0,0.7,0,1.1,0c0.1,0,0.2-0.2,0.2-0.3c0-0.1-0.1-0.3-0.1-0.3c-0.3-0.1-0.7-0.2-1.1-0.4
			C470.9,294.7,470.9,294.9,474.5,295.2z M467.7,312.3c1.6-1.2,1.8-1.9,1.3-3.8c-0.5,0.2-0.8,0.4-0.8,1c0,0.3,0.2,0.8-0.2,1
			c-0.6,0.4-0.5,1,1.6-1.1c-0.1,0.5-0.1,0.9-0.1,1.3c0,0.1-0.5,0.1-0.2,0.4c0.1,0.1,0.4,0.1,0.5,0.2c-0.3,0.5-1.1,0.7-1,1.4
			c0.1,0.3,0.4,0.6,0.7,1c0.5-0.7,1-1.2,1.3-1.8c0.3-0.6-0.4-1.2,0-1.8c0,0-0.1-0.2-0.1-0.3C470.4,309.7,470.1,309.6,467.7,312.3z
			 M498.9,297c0.5-0.1,0.8,0.2,1,0.6c0.2,0.4,0.3,0.8,1,0.7c0-0.4,0.3-0.9-0.2-1.3c-0.9-0.5-1.8-1-2.7-1.5c-0.3-0.1-0.7-0.3-0.9-0.2
			c-1.1,0.4-2.3,0.2-3.3,0.7c-0.6,0.3-1.6,0-1.7,1c0.6,0.4,1.2,0.8,1.7,1.2c-0.2,0.5-0.5,0.9-0.7,1.4c0.7,0,1.4-0.1,1.8,0.6
			c0,0.1,0.3,0.1,0.4,0.1c0.7,0,1.4,0,2.1,0c-0.4-0.6-0.8-0.7-1.3-0.7c-0.5,0-0.5-0.3-0.2-0.6c1,0,2.1,0,3.1,0c0.5,0,0.8-0.1,1-0.6
			C499.5,297.9,499.2,297.5,498.9,297z M481.9,259c0.6,0.1,1.2,0.3,1.8,0.4c0.9,0.2,0.6,1,0.7,1.5c1.3,0.5,2.5,1,3.7,1.5
			c1.2,0.5,2.6,1.1,3.3,2.3c1,1.5,2.2,2.9,3.5,4.2c0.6,0.6,1.1,1.4,1.6,2.1c0.7,1,1.3,2,2.1,2.9c1.1,1.1,1.8,2.5,2.4,3.8
			c0.3,0.6,0.6,1.1,1,1.6c0.7,0.8,1.6,1.4,2.1,2.4c0.4,0.8,0.7,1.6,1.1,2.4c0.3,0.7,0.8,1.1,1.7,1.1c2.7,0,5.4,0,8.1,0
			c0.1-0.7,0.4-1.4,0.4-2c-0.1-2.4,0.3-4.7-0.3-7.1c-0.3-1.3-0.5-2.6-0.7-3.8c-0.5-2.5-1.3-4.8-2.3-7.1c-1.5-3.4-3.7-6.4-6.1-9.2
			c-1.2-1.4-2.7-2.6-4.2-3.9c-0.5-0.4-1.1-0.8-1.7-1.2c-1.7-1.1-3.5-2.1-5.4-3c-0.6-0.3-1.4-0.4-1.8-0.8c-0.5-0.5-0.9-0.7-1.5-0.9
			c-1.7-0.6-3.5-1-5.2-1.4c-1-0.2-2,0-2.8-0.3c-1-0.5-2-0.2-3-0.2c-1.2-0.1-2.4,0.1-3.7,0.2c-1.6,0.2-3.1,0.4-4.7,0.7
			c-0.9,0.2-1.8,0.6-2.7,0.8c-0.8,0.2-1.7,0.4-2.3,1.2c-0.3,0.3-0.9,0.3-1.4,0.6c-1.3,0.7-2.6,1.3-3.9,2.1c-1.5,0.9-3,1.9-4.3,3.1
			c-0.7,0.6-1.3,1.2-2,1.8c-0.6,0.6-1.3,1.3-1.9,2c-0.7,0.8-1.5,1.5-2.1,2.4c-0.8,1.4-1.8,2.7-2.5,4.1c-0.7,1.5-1.4,2.9-2.1,4.4
			c-0.2,0.5-0.3,1.1-0.4,1.6c-0.3,1-0.4,2.1-0.8,3.1c-0.6,1.5-0.7,3.1-0.8,4.6c-0.2,2.4-0.1,4.8-0.1,7c0.6,0.7,1.3,0.7,2,0.7
			c4.1,0,8.1,0,12.2,0c1.2,0,2.2-0.3,3.2-1c1.8-1.3,4-1.9,6.1-2.3c0.6-0.1,1.3-0.1,1.8-0.6c-0.1-0.1-0.2-0.2-0.4-0.3
			c-1.3-1.1-1.7-2.3-0.7-4.1c0.2-0.3,0.2-0.4,0-0.7c-0.2-0.2-0.3-0.5-0.5-0.8c-0.9-1.2-0.9-2.5,0-3.6c0.4-0.4,0.3-0.7,0.2-1.3
			c-0.3-1.1-1-2-0.8-3.3c0.2-1.6,0.8-2.7,2.5-3.2c0.2-0.1,0.5-0.1,0.5-0.2c0.3-0.7,1.1-0.6,1.5-1.1c1.4,0.1,2.4-0.9,3.6-1.3
			c0.3-0.1,0.6-0.1,0.5-0.4c-0.2-1.1,0.7-1.4,1.4-1.5c0.6-0.1,0.8-0.3,0.9-0.9c0.2-0.8,0.5-1,1.4-1c-0.4,0.3-0.8,0.6-1.2,1
			c0.5,0.2,0.8,0.5,1,0.4c0.6-0.2,0.9-0.6,1.2-1.3C481.6,257.9,481.7,258.4,481.9,259z M494.9,284.8c2.3,0,4.6,0,6.8,0
			c0.4,0,1.1-0.2,1.3,0.1c0.4,0.5,0.8-0.5,1.2,0.1c0.1,0.1,0.6-0.2,0.5-0.4c-0.4-0.9-0.9-1.7-1.3-2.6c-0.4-0.9-1.2-1.5-1.9-2.2
			c-0.5-0.5-0.9-1.1-1.1-1.9c-0.3-0.9-0.8-1.8-1.4-2.6c-0.8-0.9-1.6-1.8-2.2-2.9c-0.6-1.1-1.9-1.7-2.1-3.1c0-0.1-0.2-0.3-0.3-0.3
			c-1.6-0.8-2.6-2.3-3.5-3.7c-0.7-1-1.6-1.7-2.5-1.9c-1-0.3-1.7-0.9-2.7-1.1c-0.9-0.2-1.8-0.6-2.7-1.1c-1.1-0.6-2.3-0.8-3.4-0.5
			c-1.1,0.3-2.1,1-3.4,1c-0.1,0-0.7,0.2-0.3,0.8c0.3,0.3,0.3,1.1-0.4,1.4c-1.1,0.5-2.1,1.3-3.4,0.2c0,0.4-0.2,0.8,0,0.9
			c0.2,0.3,0.6,0.7,0.9,0.9c1.2,0.8,2.6,0.8,3.9,0.9c1.4,0.1,2.8-0.4,3.8-1.5c0.1-0.1,0.3-0.1,0.6-0.2c-0.3,0.5-0.4,0.9-0.7,1.3
			c0.5,0.3,1.1,0.7,1.6,1c0.6,0.4,1.3,0.7,1.9,1c0.3,0.1,0.7,0.4,0.7,0.5c-0.1,1,0.9,1.3,1.4,2c0,0.9,0,2,0,3c0,0.8,0,1.5,0.6,2.1
			c0.5,0.6,0.6,1.4,0.4,2.1c-0.4,1.5-0.4,1.6,0,3c0.2,0.5,0.2,1.1,0.4,1.9c-0.5-0.4-0.7-0.6-1-0.9c0,0.3-0.1,0.5,0,0.6
			c1,0.8,2.2,1.4,3.4,1c0.4-0.1,0.8-0.2,1.2-0.2c0.8-0.1,1.6-0.3,2.5-0.4c0.7-0.2,1-0.1,1.1,0.6C495,284.2,494.9,284.4,494.9,284.8z
			 M488.9,315.2c0.1,0.1,0.1,0.2,0.2,0.3c0.3-0.1,0.8-0.1,0.8-0.2c0-0.4,0.3-0.4,0.6-0.5c1.7-0.5,3.5-1.2,5.1-2
			c0.8-0.4,1.5-0.9,2.3-1.3c1.8-0.9,3.4-2.1,4.8-3.4c2.6-2.4,5-4.8,6.9-7.8c1.3-2,2.5-4.1,3.3-6.4c0.4-1,0.5-2.1,0.8-3.1
			c-3.5,0-6.9,0-10.5,0c0.4,0.5,0.8,0.8,0.8,1.1c0.1,1,0.7,1.4,1.4,1.8c0.2,0.1,0.6,0.4,0.6,0.5c-0.2,1,0.8,1.6,0.7,2.5
			c0.6,0.5-0.4,1,0.1,1.5c0.4,0.4,0.3,0.8,0.2,1.2c-0.1,0.5-0.4,1,0,1.6c0.1,0.1-0.1,0.5-0.2,0.7c-0.1,0.3-0.2,0.6-0.4,0.8
			c-0.3,0.5-0.7,1-1.1,1.3c-0.3,0.2-0.8,0-1.2,0c0-0.2,0-0.2,0-0.3c0.2-1,0.9-2.1-0.3-3.1c-0.1,0-0.1-0.2,0-0.3
			c0.2-0.7-0.2-1.2-0.4-1.8c-0.6-2.2-1.4-3.2-3.4-4.6c-0.5-0.4-1.2-0.7-1.4-1.2c-0.7-1.3-2-1.2-3.1-1.8c-0.3-0.1-0.6-0.1-0.6,0.5
			c0,0.6-0.3,0.9-0.9,0.8c-0.5-0.1-1.1-0.2-1.7-0.3c-0.1,1.4,1.3,2,1.4,3.3c0.5,0,1.1,0.1,1.5-0.1c0.5-0.3,1-0.3,1.4-0.2
			c1.7,0.2,3.1,1.2,4.6,2c-0.1,0.5,0.8,0.8,0.1,1.4c-0.2,0.1-0.2,0.5-0.3,0.8c0.6-0.2,0.6-0.2,1.2-0.7c0.2-0.1,0.4-0.2,0.8-0.3
			c-0.4,0.9-0.4,0.9,0.4,1.3c-0.7,0.2-1.3,0.2-1.7,0.5c-0.4,0.3-0.9-0.2-1.3,0.3c-0.4,0.5-0.9,0.8-1.5,0.6c-0.4-0.1-0.8,0.2-1.2,0.3
			c-0.3,0.1-0.8-0.2-1.2-0.3c-0.1,0-0.3,0-0.5,0.1c0,0.7,0,1.3,0,2c0,1.3-0.3,2.6-0.6,3.9c-0.4,1.6-1.4,2.8-2.1,4.2
			c-1.1,0.6-1.3,2-2.5,2.6C490,313.7,489.4,314.4,488.9,315.2z M465.1,312.8c0.1-0.1,0.2-0.2,0.3-0.3c-0.3-0.3-0.7-0.5-1-0.8
			c-2.6-2.3-4.4-5.2-5.9-8.3c-0.7-1.3-1.5-4.4-1.4-5.7c0-0.9,0-1.9,0-2.8c0-0.4,0.2-0.7,0.2-1.1c0-1.2,0.6-2.3,0.4-3.6
			c-3.4,0-6.7,0-10,0c-0.2,0-0.5-0.1-0.6,0c-0.3,0.2-0.7,0.4-0.5,0.9c0.6,1.8,1.3,3.6,2.1,5.4c1.3,2.8,3,5.3,5,7.6
			c1.9,2.1,3.9,4.2,6.3,5.7C461.6,311.1,463.2,312.2,465.1,312.8z M470.6,291c-0.7,0.2-1.2,0.3-1.7,0.4c-0.5,0.1-1-0.1-1.5,0.3
			c-0.4,0.3-1.1,0-1.7,0.3c-0.3,0.2-1,0.3-1.2-0.5c0-0.2-0.4-0.1-0.6,0.2c-0.4,0.8-0.5,1.7-0.6,2.5c-0.4,2.7,0.1,4.8,1.3,7.3
			c0.5,1.1,2.9,4.3,3.6,4.7c1,0.6,1.7,1.5,2.8,1.9c0.8,0.4,1.5,1.2,2.3,1.5c0.4,0.2,1,0.3,1.4,0.5c0.5,0.4,1.2-0.2,1.6,0.5
			c0,0,0.3-0.1,0.4-0.1c-0.1-0.2-0.1-0.4-0.2-0.5c-0.5-0.2-1-0.3-1.4-0.5c-1.7-0.8-3.2-1.7-4.4-3.3c-1.5-2-2.3-4.2-2.8-6.6
			c-0.4-1.9,0.3-3.7,1.1-5.4C469.6,293.3,470,292.2,470.6,291z M464.6,285.5c-6.4,0-12.7,0-19.1,0c-0.2,1.5,0.4,2.9,0.7,4.2
			c1.4,0,2.7,0,4,0c4.4,0,8.8,0,13.2,0c1,0,1.2-0.2,1.2-1.1C464.6,287.6,464.6,286.6,464.6,285.5z M495,290c6.4,0,12.7,0,19,0
			c0.3-1.1,0.7-2.1,0.7-3.2c0-1,0.1-1-0.7-1c-0.2,0-0.4,0-0.7,0c-5.8,0-11.7,0-17.5,0c-0.3,0-0.6,0-1,0C495,287.2,495,288.6,495,290
			z M465.3,283.5c0,2.7,0,5.3,0,7.9c0.9-0.1,1.8-0.1,2.5-0.5c0.6-0.3,1.2,0,1.7-0.3c0.8-0.4,1.7-0.4,2.6-0.6
			c0.7-0.2,1.5-0.2,2.2-0.4c0.4-0.1,0.6-0.4,0.6-0.8c0-1.1,0-2.2,0-3.3c0-0.5-0.3-0.7-0.6-0.8c-0.8-0.2-1.7-0.2-2.5-0.3
			c-0.3,0-0.5,0-0.8-0.1C469.1,283.8,467.3,283.4,465.3,283.5z M472,267.7c-0.2-1-0.3-1.9-0.5-2.7c-0.2-0.7-0.9-0.8-1.4-0.3
			c-1.1,0.9-1.8,2-1.2,3.5c0.4,1.2,0.8,2.3,2.3,2.6c0.8,0.2,1.5,0.5,2.3,0.8c2.1,0.8,4.3,0.9,6.4,1.2c1.4,0.2,2.4-1,2.5-2.3
			c0-0.4,0.1-0.7,0.2-1.1c0-0.1,0-0.2,0-0.2c-0.9-0.5-1.6-1.5-2.7-1.4c-1.6,0.1-3.2-0.3-4.8,0.3c-0.4-0.6-0.9,0-1.4-0.3
			C473.2,267.5,472.5,267.7,472,267.7z M494.2,283.7c-1.1,0.3-2.1,0.7-3.1,0.7c-1.7,0-3.3,0.6-5,0.7c-0.5,0-0.9,0.4-1.3,0.7
			c-0.4,0.3,0,0.5,0.2,0.8c0,0.1,0,0.2,0,0.3c-0.7,0.7-0.1,1.5,0,2.2c0.1,0.7,0.7,0.5,0.9,0.9c0.8-0.2,1.4,0.2,2.2,0.3
			c0.9,0.2,1.8,0.4,2.7,0.6c1.1,0.3,2.3,0.3,3.5,0.5C494.2,288.9,494.2,286.4,494.2,283.7z M482.4,275c0.1-1.1-0.5-1.8-1.4-1.7
			c-1.8,0.2-3.5-0.4-5.3-0.4c-0.2,0-0.3,0-0.5-0.1c-1.3-0.5-2.6-0.9-3.9-1.3c-1.3-0.4-1.5-0.3-2.1,0.8c-0.6,0.9-0.3,1.6,0.2,2.3
			c0.6,0.9,1.6,1.2,2.7,1.4c2,0.4,4,1,6.1,1.2c0.3,0,0.6-0.1,0.8,0.1c0.8,0.8,1.5-0.4,2.2-0.1c0,0,0.2-0.1,0.2-0.2
			C481.8,276.3,482.1,275.5,482.4,275z M480.8,279.4c0.2,0.2,0.3,0.3,0.5,0.4c0.2-1.6,0.2-1.5-1.2-1.7c-1.1-0.1-2.1-0.4-3.2-0.3
			c-0.7,0-1.4-0.4-2.1-0.5c-1.6-0.3-3.1-1.1-4.8-0.7c-0.4,0.6-0.6,1.3-0.4,2.1c0.1,0.6,0.3,1.2,1.1,1.6c0.6,0.3,1.2,0.1,1.7,0.3
			c0.8,0.4,1.7,0.4,2.5,0.6c0.9,0.2,1.9,0.2,2.8,0.4c0.3,0,0.6,0.2,0.9,0.3c0.7,0.3,1.2-0.1,1.8-0.4c0.6-0.3,0.4-0.8,0.4-1.3
			C480.8,279.9,480.8,279.8,480.8,279.4z M476.4,290.9c0.4,2-0.2,3.8,0.4,5.5c0.3,0.9,0,2,0.1,2.9c0.1,0.9,0.2,1.9,0.3,2.8
			c0.1,0.7,0.2,1.3,0.3,2c0.9,0,1.6,0,2.3,0c0-4.1,0-8.1,0-12.1C478.7,291.7,477.7,291.3,476.4,290.9z M484.2,294.4
			c-1,0.5-0.1,1.6-0.8,2.1c0,0.8,0,1.6,0,2.5c-0.1,0.7-0.3,1.4-0.3,2.2c-0.1,0.8,0,1.6,0,2.4c0.2,0,0.3,0.1,0.4,0.1
			c1.7-0.8,2.9-2.1,4.2-3.5c0.3-0.4,0.3-0.9,0.1-1.5c-0.7-2-1.2-2.9-2.8-3.9C484.7,294.6,484.4,294.5,484.2,294.4z M478.6,284.8
			c0.2-0.3,0.4-0.6,0.5-1c0.2-0.8,0-1-0.9-1.4c-0.6-0.3-1.4-0.1-1.8-0.4c-0.8-0.6-1.7-0.2-2.6-0.5c-0.8-0.4-1.9-0.1-2.9-0.1
			c-0.3,1,0.1,1.5,0.9,2c0.5,0.3,1,0.2,1.5,0.4c0.8,0.3,1.7,0.4,2.5,0.6C476.8,284.7,477.7,284.8,478.6,284.8z M476.1,286.4
			c0,0.3,0.1,0.6,0,0.7c-0.5,0.5-0.1,1,0,1.5c0.1,0.9,0.7,0.8,1.3,1c0.4,0.1,0.9,0.3,1.3,0.4c0.7,0.3,1,0.1,1.1-0.6c0-0.5,0-1,0-1.5
			c0-0.5-0.2-0.8-0.7-0.9C478.8,286.9,476.8,286.5,476.1,286.4z M483.7,286.8c-0.7,0-1.3,0-1.8,0c-0.3,0-0.7,0.3-1,0.3
			c-0.4,0.1-0.7,0.3-0.8,0.7c0,0.7,0,1.4,0,2.1c0,0.2,0.5,0.4,0.5,0.4c0.4-0.4,1-0.1,1.4-0.2c0.5-0.1,1-0.3,1.4-0.6
			c0.5-0.3,0.2-0.9,0.3-1.4C483.8,287.7,483.7,287.3,483.7,286.8z M477.9,313.1c0.3,0,0.6,0,0.9,0c0.7,0,0.9-0.3,0.9-1
			c0-1,0-2.1,0-3.1c0-0.6-0.5-1-1.1-0.8c-0.4,0.1-0.8,0.3-1.2,0.5c0,0.7-0.1,1.5,0,2.2C477.5,311.6,477.7,312.3,477.9,313.1z
			 M476.5,303.6c0-0.4,0-0.6,0-0.9c-0.1-2.2-0.2-4.4-0.3-6.6c0-0.1-0.2-0.1-0.2-0.2C473.9,298.1,473.8,301.1,476.5,303.6z
			 M489.3,240.6c0-0.2,0-0.3,0-0.4c0.1-0.5-0.2-0.7-0.5-0.9c-0.3-0.1-0.7,0-1,0.3c-0.5,0.5-0.5,1.2-0.7,1.8
			c-0.2,0.6,0.3,1.3,0.9,1.4c0.2,0,0.6-0.1,0.6-0.2C488.9,241.9,489.6,241.3,489.3,240.6z M475.2,285.4c0,1.6,0,3.1,0,4.6
			c0.6,0.3,1.2,0.6,1.7,0.7c1.1,0.2,2.1,0.9,3.3,0.7c0.6-0.1,1.2-0.1,1.7-0.4c0.8-0.4,1.9-0.2,2.6-0.9c0.1-0.1,0.1-0.2,0.1-0.2
			c-0.2-0.2-0.3-0.3-0.4-0.5c-0.1,0.2-0.2,0.6-0.4,0.6c-1.1,0.3-2.3,0.5-3.4,1c-0.2,0.1-0.4,0.1-0.6,0c-1.5-0.4-2.9-0.9-4.4-1.4
			c0.3-1.4-0.3-2.7,0.4-4C475.6,285.5,475.5,285.5,475.2,285.4z M473.8,311.2c-1,0.8-1.7,1.3-1.2,2.3c0,0.1,0,0.2,0,0.3
			c-0.3,0.8-0.3,0.8,0,1.9c0.7-0.2,1-0.8,1.3-1.3c0.2-0.3,0.2-0.8,0-1.2c-0.1-0.2-0.7-0.1-0.2-0.6
			C474,312.4,473.8,311.9,473.8,311.2z M471.8,263.5c0.7,0.9,1.7,0.5,2.5,0.5c0.8,0,1-0.8,1.5-1.1c-0.2-0.2-0.3-0.3-0.3-0.3
			C474.2,262.6,473.1,262.9,471.8,263.5z M489.5,308.9c0.2,0.5,0.5,0.8,0.5,1.1c0,0.4-0.2,0.8-0.3,1.2c0,0.1,0,0.2,0,0.3
			c0.1,0.2,0.3,0.6,0.5,0.6c0.3,0,0.7-0.2,0.8-0.4c0.1-0.4,0-1.1-0.1-1.1c-0.5-0.1-0.5-0.1-0.2-0.5c0.2-0.3,0-0.7,0-1.1
			C490.3,308.9,490.1,308.9,489.5,308.9z M473.3,290.8c-0.9,0.5-0.5,1.4-0.4,2c0.1,0.6,0.9,0.7,1.4,0.9c0.5-0.7,0-1.4-0.3-1.6
			C473.4,291.8,474,291,473.3,290.8z M460,291.8c0.7,1.3,0.7,1.3,2.3,1.1c0-0.4-0.1-0.8-0.1-1.1C461.4,291.8,460.7,291.8,460,291.8z
			 M491.7,305.7c0.7,1.2,0.7,1.2,2,1c-0.2-0.5-0.4-1-0.5-1.4C492.6,305.2,492,305.1,491.7,305.7z M490.1,293.4
			c-1.2-0.1-2.1-0.2-2.5,1.2C488.7,294.8,489.6,294.8,490.1,293.4z M488.5,296.3c1.2,0.1,2.2,0.3,2.7-0.8
			C490.2,294.7,490.1,294.7,488.5,296.3z M473.2,298.5c-1.3-1-1.8-1-3,0C472,299,472,299,473.2,298.5z M477.8,313.8
			c-0.8,0.3-0.8,0.3-1,0.7c-0.1,0.3-0.3,0.7-0.3,1c0,0.2,0.4,0.5,0.7,0.5c0.2,0,0.5-0.4,0.6-0.6
			C477.9,314.9,477.8,314.4,477.8,313.8z M480.1,314.3c-0.5-0.4-1-0.2-1.2,0.3c-0.2,0.4-0.3,0.9-0.4,1.4c0,0.1,0.2,0.3,0.4,0.5
			C479.6,315.8,479.6,315.8,480.1,314.3z M481.3,316.1c0.2-0.4,0.4-0.8,0.4-1.2c0.1-0.4-0.3-1.2-0.4-1.1c-0.3,0.2-0.8,0.5-0.8,0.8
			C480.3,315.3,480.3,315.9,481.3,316.1z M462.1,296.5c-0.6-0.8-0.6-0.8-1.7-0.5c-0.3,0.1-0.8-0.2-0.7,0.4c0,0.2,0.4,0.4,0.7,0.5
			C461.1,297.3,461.4,296.6,462.1,296.5z M488.8,293c0.7,0.3,1.2-0.4,1.9-0.4c0-0.7-1-0.6-1.2-1.1c0,0-0.2,0-0.4,0
			C489.1,291.9,488.4,292.3,488.8,293z M460.8,295.3c-0.5-0.3-0.8-0.4-1-0.6c-0.3-0.4-0.8-0.3-1.2-0.3c-0.3,0-0.4,0.2-0.1,0.3
			c0.8,0.3-0.1,0.9,0.2,1.2C459.4,295.7,460,295.6,460.8,295.3z M487.4,293.8c0.4-0.6,0.7-0.9,0.9-1.2c0.2-0.3,0.2-0.7-0.2-1
			c-0.1-0.1-0.2-0.1-0.3-0.1c-0.7,0.1-0.7,0.7-0.9,1.2C486.8,292.9,487.1,293.2,487.4,293.8z M484.6,286.2c-0.3-0.4-0.4-0.6-0.6-0.7
			c-0.7,0.6-1.6,0.1-2.3,0.5c-0.8,0.4-1.6,0.1-2.4,0.2c-0.1,0-0.2,0.1-0.4,0.2C480.9,286.8,482.6,285.9,484.6,286.2z M492.9,303.6
			c0.2,1.1,0.3,1.4,0.9,1.3c0.5-0.1,0.7-0.4,0.6-1.3C494,303.6,493.5,303.6,492.9,303.6z M488.2,311.4c-0.2,0.5-0.4,0.8-0.5,1.2
			c-0.1,0.3,0.2,0.9,0.5,0.9c0.3-0.1,0.6-0.2,0.8-0.5c0.1-0.3,0.1-0.7,0-1C488.9,311.8,488.5,311.6,488.2,311.4z M459.3,298.2
			c0.7,0.8,1.5,0.4,2.6,0.3c-0.5-0.4-0.7-0.8-1-0.8C460.4,297.6,459.8,297.4,459.3,298.2z M486.7,291.2c-0.2-0.7-0.7-1-1.2-0.8
			c-0.7,0.3-0.6,1-0.4,1.6C485.7,291.7,486.2,291.5,486.7,291.2z M505.7,295.7c-0.6,0.5-1,1.2-1.8,1.4c0,0-0.1,0.2-0.1,0.3
			c0.1,0.1,0.2,0.3,0.3,0.3c0.2,0,0.5-0.1,0.7-0.2c0.5-0.4,0.9-0.8,1.3-1.3C506,296,505.8,295.8,505.7,295.7z M490.7,307.2
			c-0.1,0.1-0.1,0.2-0.2,0.3c0.3,0.3,0.5,0.7,0.8,0.9c0.2,0.1,0.6,0,0.9,0c0-0.3,0-0.6-0.1-0.9C491.8,307,491.2,307.3,490.7,307.2z
			 M487.4,312.8c0-0.3,0-0.6,0-0.9c0.1-0.5-0.2-0.9-0.6-1c-0.2,0-0.5,0.4-0.8,0.6C486.5,311.9,486.9,312.3,487.4,312.8z M503,296.3
			c1.2,0.1,1.9-0.5,2.4-1.2c0.1-0.1,0-0.3,0-0.5c0-0.1-0.2-0.3-0.3-0.3c-0.1,0-0.4,0.1-0.3,0.2c0,0.8-0.4,1.1-1.2,1.1
			C503.5,295.7,503.4,296,503,296.3z M470.4,300.2c1.8,0.1,1.8,0.1,2.4-0.4C471.9,299.1,471.9,299.1,470.4,300.2z M483.4,313.2
			c-0.8,0.5-1.1,1.1-1,1.9c0,0.1,0.1,0.3,0.2,0.3c0.1,0,0.4-0.1,0.4-0.1C483.2,314.6,483.3,313.9,483.4,313.2z M476.2,306.9
			c0.9,0,0.8-0.8,1.3-1.4c-0.4-0.1-0.8-0.3-0.9-0.2C476,305.7,476.1,306.3,476.2,306.9z M459.3,291.6c0.4-0.1,0.8-0.1,1.1-0.2
			c0.1,0,0.2-0.4,0.1-0.5c-0.2-0.4-0.6-0.6-0.9-0.4c-0.2,0.1-0.4,0.4-0.5,0.7C459.1,291.3,459.3,291.5,459.3,291.6z M492.6,309.7
			c0.1-0.4-0.3-0.8-0.8-0.8c-0.2,0-0.4,0.1-0.5,0.2c-0.2,0.4,0.3,1.1,0.6,1C492.2,310.1,492.4,309.8,492.6,309.7z M483,305.8
			c-0.1-0.3-0.3-0.5-0.6-0.6c-0.2,0-0.7-0.2-0.7,0.3c-0.1,0.5,0.2,0.8,0.6,1C482.9,306.7,482.6,305.9,483,305.8z M473.7,305.4
			c-0.5,0.3-1,0.6-1.7,1C473.8,306.8,473.8,306.8,473.7,305.4z M506.5,297.1c-0.1-0.1-0.1-0.2-0.2-0.2c-0.6,0.4-1.2,0.8-1.7,1.2
			c-0.1,0,0,0.3,0.1,0.4c0.1,0.1,0.3,0.1,0.4,0C505.5,298.1,506,297.6,506.5,297.1z M486.1,314.3c0.4-0.2,0.8-0.2,0.9-0.4
			c0.1-0.6-0.1-1-0.9-1.1C486.1,313.2,486.1,313.6,486.1,314.3z M486.6,304.9c0-0.5,0-0.9,0-1.3c-0.3,0-0.6,0-0.8,0
			C485.6,304.4,485.8,304.8,486.6,304.9z M502.5,291.5c-1.3-0.1-1.4,0.1-1.1,1.5C501.8,292.5,502.1,292,502.5,291.5z M463.3,291
			c-0.5-0.9-1.2-0.6-1.8-0.6c-0.1,0-0.2,0.2-0.2,0.3c0,0.1,0.1,0.3,0.2,0.3C462.1,291.1,462.6,291,463.3,291z M494.3,303.1
			c-0.5-0.4-0.8-0.8-1-0.8c-0.4,0-0.8,0.3-0.6,0.9c0.3,0,0.5,0,0.8,0C493.6,303.2,493.8,303.2,494.3,303.1z M488.2,303.8
			c0.1-0.7,0-0.7-0.4-1c-0.3-0.2-0.5-0.5-0.7-0.1c-0.1,0.1,0.2,0.5,0.4,0.7C487.7,303.7,488,303.7,488.2,303.8z M500,291.7
			c0.8,0,1.3-0.3,1.2-0.7c0-0.1-0.2-0.2-0.3-0.2c-0.6-0.1-1,0.3-1,0.7C499.9,291.6,500,291.7,500,291.7z M490.3,301.1
			c-0.4-0.8-0.4-0.8-1.3-0.6C489.4,301.3,489.4,301.3,490.3,301.1z M489.9,305.9c0.4,0.6,0.8,0.9,1.3,0.5c0-0.3,0-0.6,0-1
			C490.8,305.6,490.4,305.8,489.9,305.9z M488.8,309.5c0.1-0.1,0.2-0.1,0.2-0.3c0.1-0.4-0.3-0.7-0.8-0.7c-0.2,0-0.3,0.2-0.5,0.2
			c0.2,0.2,0.3,0.5,0.5,0.7C488.3,309.6,488.5,309.5,488.8,309.5z M490,294.7c0.6,0,0.9,0,1.1,0c0.2,0,0.3-0.2,0.5-0.2
			c-0.1-0.2-0.2-0.5-0.4-0.6c-0.1-0.1-0.4-0.1-0.5,0C490.5,294,490.4,294.2,490,294.7z M462,293.9c-0.3-0.2-0.6-0.4-0.8-0.5
			c-0.2,0.4-0.6,0.3-1,0.3c-0.1,0-0.2,0.3-0.2,0.4c0,0.1,0.2,0.3,0.3,0.2C460.8,294.2,461.4,294.1,462,293.9z M484.3,316.1
			c0.1-0.1,0.1-0.1,0.1-0.1c-0.1-0.4,0.3-1-0.3-1.1c-0.8-0.2-0.2,0.7-0.5,0.9c-0.1,0.1-0.1,0.2-0.2,0.3
			C483.8,316.1,484,316.1,484.3,316.1z M504.3,299.8c1.2,0.2,1.3-1.1,2.2-1C505.4,298.3,505.1,299.4,504.3,299.8z M492,299.6
			c-0.4-0.8-1-0.7-1.6-0.5c-0.1,0,0,0.3-0.1,0.5C490.9,299.6,491.4,299.6,492,299.6z M471,303.6c0.3-0.3,0.6-0.5,0.8-0.8
			c0.1-0.1,0.1-0.3,0-0.4c-0.1-0.1-0.3-0.1-0.4-0.1c-0.2,0.1-0.4,0.4-0.6,0.6C470.3,303.3,471,303.3,471,303.6z M458.3,296.5
			c0.2,0.7,0.4,1.1,0.4,1.3c0.3-0.2,0.6-0.4,1.1-0.8C459.3,296.8,458.9,296.7,458.3,296.5z M488,309.8c0.1,0.4,0.2,0.8,0.3,1
			c0.1,0.1,0.3,0.2,0.5,0.3c0.1,0,0.2-0.2,0.2-0.3c0-0.2,0.2-0.5-0.2-0.7C488.5,310.1,488.3,310,488,309.8z M482.8,310.4
			c0.9,0,1.2-0.1,1.8-0.9C484,309.9,483.2,309.7,482.8,310.4z M488.9,307.7c0.3,0.2,0.5,0.4,0.7,0.4c0.2,0,0.4-0.1,0.6-0.1
			c-0.1-0.2-0.1-0.5-0.2-0.7C489.6,306.9,489.3,307.4,488.9,307.7z M488.3,301.8c0.1,0.4,0.3,0.9,0.8,0.8c0.1,0,0.3-0.4,0.2-0.6
			C489.1,301.3,488.7,301.6,488.3,301.8z M487.1,305.3c0.2-0.1,0.6-0.3,1-0.6c-0.4-0.2-0.6-0.4-1-0.6
			C487.1,304.6,487.1,305,487.1,305.3z M492,304.9c0.3,0,0.7,0.2,0.7-0.4c-0.1-0.4-0.4-0.2-0.6-0.3c-0.2,0-0.4-0.1-0.5,0
			c-0.1,0.1-0.2,0.2-0.2,0.4c0,0.1,0.1,0.2,0.2,0.2C491.6,304.9,491.8,304.9,492,304.9z M492.3,298.3c-0.3-0.7-0.7-0.6-1-0.3
			c-0.1,0.1-0.2,0.3-0.3,0.4c0.2,0.1,0.3,0.3,0.5,0.2C491.7,298.6,492,298.4,492.3,298.3z M477.4,306.8c-0.1,0-0.2,0-0.3,0
			c-0.1,0.3-0.2,0.6-0.3,0.9c0.3,0,0.6,0,0.9,0C477.6,307.5,477.5,307.2,477.4,306.8z M476.7,312.5c-0.1,0.1-0.2,0.2-0.3,0.2
			c-0.4,0.3-0.4,0.7-0.1,1.1c0,0,0.1,0,0.2,0c0.6-0.1,0.2-0.6,0.3-0.9C476.8,312.8,476.7,312.6,476.7,312.5z M473,302
			c-0.1,0.5-1.1,0.4-0.7,1.4C472.5,302.8,473.3,302.7,473,302z M469.6,300c0.5-0.1,0.9-0.3,0.9-0.8c0-0.1-0.1-0.2-0.2-0.2
			c-0.7-0.2-0.3,0.7-0.8,0.8C469.6,299.7,469.6,299.8,469.6,300z M502.1,293.8c0.7-0.2,1-0.6,0.5-1.3
			C502.4,293,502.3,293.4,502.1,293.8z M506.4,301c-0.7,0-0.7,0-1.2,0.5C505.9,301.5,505.9,301.5,506.4,301z M459,292.8
			c0,0.1,0.1,0.2,0.1,0.2c0.2,0.1,0.4,0.2,0.7,0.3c0.1-0.1,0.2-0.3,0.2-0.4c-0.1-0.4-0.4-0.2-0.6-0.2
			C459.2,292.7,459.1,292.8,459,292.8z M482.5,301.7c-1-0.1-1-0.1-1.3,0.6C481.7,302.1,482,302,482.5,301.7z M483.4,311.3
			c0,0.4-0.1,0.7,0,0.8c0.1,0.1,0.3,0.2,0.4,0.3c0.1-0.2,0.3-0.4,0.2-0.5C483.9,311.8,483.7,311.7,483.4,311.3z M485,307
			c-0.1,0.3-0.2,0.4-0.2,0.6c0,0.1,0.3,0.3,0.3,0.2c0.1-0.1,0.3-0.2,0.3-0.4C485.4,307.4,485.2,307.3,485,307z M487.1,309.7
			c-0.2,0.2-0.3,0.4-0.4,0.5c0,0.1,0.2,0.2,0.2,0.3c0.1-0.1,0.3-0.2,0.4-0.3C487.4,310.1,487.2,309.9,487.1,309.7z M494.2,306.1
			c0.2-0.2,0.4-0.4,0.4-0.4c-0.1-0.2-0.2-0.3-0.3-0.4c0,0-0.3,0.2-0.3,0.2C494,305.6,494.1,305.8,494.2,306.1z M486,293.5
			c0.2-0.2,0.4-0.4,0.4-0.4c-0.1-0.2-0.2-0.3-0.3-0.4c0,0-0.3,0.2-0.3,0.2C485.7,293.1,485.8,293.3,486,293.5z M461,294.7
			c0,0.1,0,0.2,0,0.3c0.4,0,0.8-0.1,1.2-0.1c0-0.1,0-0.1,0-0.2C461.8,294.7,461.4,294.7,461,294.7z M469.8,296.7
			c0.1,0.6,0.1,0.9,0.2,1.2c0.2-0.1,0.4-0.3,0.6-0.4C470.4,297.3,470.2,297.2,469.8,296.7z M494.7,302.9c0.1-0.1,0.2-0.1,0.3-0.2
			c-0.1-0.2-0.1-0.4-0.2-0.5c-0.1-0.1-0.2-0.2-0.3-0.3c-0.1,0.1-0.1,0.1-0.2,0.2C494.4,302.4,494.6,302.7,494.7,302.9z M459.2,301.8
			c0.2-0.2,0.4-0.4,0.4-0.4c-0.1-0.2-0.2-0.3-0.3-0.4c0,0-0.3,0.2-0.3,0.2C459,301.3,459.1,301.5,459.2,301.8z M491.5,300.7
			c-0.2-0.2-0.4-0.3-0.5-0.4c-0.1,0-0.2,0.2-0.3,0.2c0.1,0.1,0.2,0.3,0.3,0.4C491.1,301,491.2,300.8,491.5,300.7z M464.1,284.1
			c-0.2,0.1-0.3,0.1-0.4,0.1c0.1,0.2,0.3,0.4,0.4,0.6c0.1-0.1,0.2-0.2,0.2-0.2C464.2,284.4,464.1,284.2,464.1,284.1z M483.7,278.6
			c-0.1,0-0.2,0-0.3,0c0,0.3,0.1,0.6,0.1,0.9c0.1,0,0.1,0,0.2,0C483.7,279.2,483.7,278.9,483.7,278.6z M466.9,311.4
			c0-0.1-0.1-0.2-0.1-0.2c-0.2,0.1-0.4,0.1-0.5,0.3c0,0,0.1,0.3,0.1,0.4C466.6,311.7,466.7,311.5,466.9,311.4z M478.4,286
			c0-0.1,0-0.2,0-0.3c-0.3,0-0.6,0.1-0.9,0.1c0,0.1,0,0.1,0,0.2C477.8,286,478.1,286,478.4,286z M505.8,302.7c0,0-0.1-0.1-0.1-0.1
			c-0.1,0-0.3,0-0.4,0c-0.1,0.1-0.1,0.3-0.1,0.4c0.1,0,0.3-0.1,0.4-0.1C505.7,302.9,505.7,302.8,505.8,302.7z M503.9,294.4
			c-0.1-0.2-0.2-0.3-0.2-0.3c-0.1,0.2-0.3,0.4-0.4,0.6c0.1,0,0.2,0.1,0.3,0.1C503.7,294.6,503.8,294.5,503.9,294.4z M476.4,308.3
			c-0.2-0.2-0.3-0.3-0.5-0.5c-0.1,0.1-0.2,0.3-0.1,0.4c0.1,0.1,0.3,0.2,0.5,0.3C476.3,308.5,476.4,308.4,476.4,308.3z M486,314.8
			c-0.1,0-0.1,0-0.2,0c0,0.2,0,0.4,0,0.7c0.1,0,0.1,0,0.2,0C486,315.2,486,315,486,314.8z M482.3,315.8c-0.1,0-0.1,0-0.2,0
			c0,0.2,0,0.4,0,0.7c0.1,0,0.1,0,0.2,0C482.3,316.2,482.3,316,482.3,315.8z M462.3,300.3c-0.2,0-0.3-0.1-0.5-0.1
			c0,0-0.1,0.1-0.1,0.2c0.1,0,0.3,0.1,0.4,0.1C462.2,300.6,462.2,300.5,462.3,300.3z M482.7,312.4c0-0.1,0-0.1,0-0.2
			c-0.2,0-0.4,0-0.7,0c0,0.1,0,0.1,0,0.2C482.3,312.4,482.5,312.4,482.7,312.4z M485.5,311.2c0.1,0,0.1,0,0.2,0c0-0.2,0-0.4,0-0.7
			c-0.1,0-0.1,0-0.2,0C485.5,310.7,485.5,310.9,485.5,311.2z M482.5,280.2c0.1,0,0.1,0,0.2,0c0-0.2,0-0.4,0-0.7c-0.1,0-0.1,0-0.2,0
			C482.5,279.7,482.5,279.9,482.5,280.2z M469.9,283.4c-0.1-0.1-0.1-0.3-0.2-0.3c-0.1,0-0.3,0.1-0.4,0.1c0,0.1,0.1,0.2,0.1,0.2
			C469.5,283.5,469.7,283.4,469.9,283.4z M470.8,283.7c-0.1-0.1-0.1-0.3-0.2-0.3c-0.1,0-0.3,0.1-0.4,0.1c0,0.1,0.1,0.2,0.1,0.2
			C470.5,283.8,470.7,283.7,470.8,283.7z M477.1,285.7c-0.1-0.1-0.1-0.3-0.2-0.3c-0.1,0-0.3,0.1-0.4,0.1c0,0.1,0.1,0.2,0.1,0.2
			C476.8,285.8,476.9,285.7,477.1,285.7z"/>
		<path d="M492.6,317.4c0,0.2,0.1,0.4,0.1,0.6c-0.2,0.5-0.7,1,0,1.6c0,0,0,0.4-0.1,0.4c-0.7,0.3-1.1,1.2-2,1c-0.6-0.1-1.2,0-1.7,0.4
			c-0.6,0.4-1,0.2-1.6,0.1c-0.7-0.2-1.4-0.9-2.2-0.1c0,0-0.2,0-0.3-0.1c-0.1-0.1-0.1-0.2-0.1-0.3c0.7-0.7,0.8-1.7,1.7-2.3
			c0.5-0.3,1.1-0.2,1.5-0.7c1.1,0.1,2.1-0.5,3.2-0.4C491.6,317.8,492,317.5,492.6,317.4z"/>
		<path d="M477,321.2c-1.3,0.3-2.4,0.7-3.5,0.5c-0.7-0.1-1.4-0.3-2.2-0.3c-0.8,0-1.5-0.2-2.2-0.4c-0.2-0.1-0.4-0.3-0.7-0.5
			c0.3-0.1,0.5-0.2,0.7-0.3c0-0.8-1-1.3-0.5-2.2c0.8,0.5,1.8,0.3,2.6,0.4c1.2,0.1,2.5,0.2,3.6,0.9c0.4,0.2,0.8,0.3,1,0.9
			C475.9,320.6,476.5,320.8,477,321.2z"/>
		<path d="M470.6,243.5c0.1-0.4,0.3-0.7,0.3-0.8c-0.5-1.1-0.2-2.4-1.3-3.2c1-0.8,2.1-0.4,3.2-0.5c0.1,0.6,0.9,1,0.1,1.6
			c0,0,0.2,0.3,0.3,0.4c1,0.9,0.9,1.4-0.2,2C472.2,243.3,471.5,243.6,470.6,243.5z M471.4,241.4c0.1,0.4,0.1,0.9,0.3,1.2
			c0.2,0.4,0.6,0.4,0.9,0c0.2-0.2,0.3-0.6,0.2-0.8C472.6,241.3,472.2,241.1,471.4,241.4z M471.4,241c0.9-0.7,1-0.9,0.6-1.4
			c-0.1-0.2-0.4-0.3-0.7-0.3c-0.3,0-0.5,0.6-0.4,0.9C471.1,240.5,471.3,240.7,471.4,241z"/>
		<path d="M514.8,266.4c1.5,0,2.8-0.5,4.2-1.3c0.1,0.4,0.2,0.9,0.4,1.3c0.4,1.3,0.4,1.3-0.6,2.2c-0.2-0.1-0.4-0.2-0.6-0.4
			c-0.1,0-0.3,0-0.3,0.1c-0.2,0.7-0.5,1-1.2,0.9c-0.5-0.1-0.9-0.5-1.2-1.1C515.2,267.6,515,267,514.8,266.4z M516.6,267
			c-0.4,0-0.8,0.3-0.9,0.7c-0.1,0.4,0.3,0.9,0.7,0.9c0.3,0,1-0.5,1-0.8C517.3,267.3,517,267,516.6,267z M519,267.6
			c0-0.5,0-0.9,0-1.2c-1.2,0.1-1.2,0.1-1.1,1.2C518.2,267.6,518.5,267.6,519,267.6z"/>
		<path d="M457.3,249c-0.2,0.9-0.2,0.9,0.4,1.6c-0.4,0.3-0.8,0.5-1.4,0.9c0.2-0.6,0.3-0.9,0.3-1.2c0-0.3-0.3-0.6-0.1-0.8
			c0.2-0.3,0.2-0.4,0-0.6c-0.7-0.5-1.5-0.9-2.2-1.3c0.3-0.3,0.7-0.6,1.1-1c0.2,0.3,0.6,0.7,0.9,1.1c1-0.7,0-1.1-0.1-1.8
			c0.2-0.2,0.5-0.4,0.9-0.7c0.3,1,0.1,1.9,0.2,2.7c0.7,0.2,1.3,0.8,2.1,0.8c0.1,0,0.5,0.3,0.4,0.4c0,0.2-0.3,0.5-0.4,0.5
			c-0.4,0-0.8,0.6-1.2-0.1C457.9,249.4,457.5,249.3,457.3,249z"/>
		<path d="M443.1,284.7c0.2,1.2,0.4,2.2,0.6,3.3c-0.4,0.5-0.8-0.6-1.4,0c-0.3,0.4-1.1-0.1-1.7,0.3c-0.4,0.3-0.9,0.3-1.5,0.4
			c-0.1-0.7-0.1-1.4-0.3-2c-0.3-0.9,0.1-1.2,1.4-1.2c-0.7,0.5-0.9,1.1-0.6,1.9c0.2,0,0.4,0,0.6,0c0.2,0,0.6,0.1,0.6-0.3
			c0-0.4-0.3-0.3-0.5-0.4c0,0-0.1-0.1-0.1-0.1c0.3-0.7,1-0.5,1.7-0.6c-0.2,0.4-0.3,0.7-0.4,0.9c0.6,0.1,1.2,0.3,1.6-0.6
			c-0.2-0.2-0.5-0.4-0.6-0.6c-0.2-0.4-1.1-0.1-0.7-0.8C442,284.7,442.6,284.8,443.1,284.7z"/>
		<path d="M441,279.2c-1-0.1-1.8-0.3-2.4,0.8c0-0.6-0.1-1.1-0.1-1.6c1.4,0.7,2.9,0.2,4.4,0.4c-0.4,1.3-2.1,1.2-2.5,2.5
			c0.9,0.2,1.6,0.3,2.2-0.5c0.7,0.4,0.6,1,0.4,1.8c-1.5-1.4-3-0.9-4.5-0.3c0-0.7-0.3-1.4,0.8-1.6c0.4-0.1,0.8-0.5,1.1-0.8
			C440.7,279.8,440.8,279.6,441,279.2z"/>
		<path d="M443,276.6c-0.1-1-0.8-0.6-1.2-0.8c-0.5-0.3-0.9-0.3-1.4-0.3c-0.5,0-1,0.1-1.5,0.2c0.1-0.7,0.1-1.6,0.4-2.4
			c0.3-0.9,1.9-1.3,2.9-0.9c0.9,0.4,1.5,0.8,1.3,1.9c-0.1,0.5,0,1,0,1.5C443.4,276.1,443.2,276.3,443,276.6z M439.5,274.4
			c0.9,0.4,1.8,0.6,2.8,0.6c0.2,0,0.5,0.4,0.7,0c0.1-0.3,0.2-0.7,0.1-0.9c-0.3-0.4-0.6-0.9-1.3-0.8c-0.6,0.1-1.2,0-1.8,0
			C439.8,273.6,439.6,274,439.5,274.4z"/>
		<path d="M494.8,245.6c-0.3-0.3-0.5-0.5-0.7-0.8c-0.1-0.1-0.1-0.4,0-0.5c0.4-0.4,0.1-0.9,0.3-1.4c-1.4,0.2-0.9,1.2-1.1,2
			c-0.5-0.3-1-0.5-1.6-0.8c0.1-0.3,0.9-0.1,0.6-0.7c0.6-0.7,0.9-1.6,1.2-2.5c0.2-0.7,0.3-0.8,0.7-0.6c0.5,0.2,1,0.4,1.3,0.7
			c0.6,0.5,0.6,1.1,0.1,1.7c-0.6,0.6-1.1,1.2-0.4,2.1C495.3,244.9,495,245.3,494.8,245.6z M494.6,240.6c-0.3,0.5-0.5,0.8-0.6,1.1
			c-0.1,0.4,0.2,0.7,0.6,0.8c0.3,0.1,0.8-0.5,0.7-0.9C495.2,241.4,494.9,241.1,494.6,240.6z"/>
		<path d="M519.9,274.4c0.6-0.5,0.9-1,0.7-1.7c-0.1-0.2-0.4-0.3-0.5-0.5c-0.1,0.4-0.9,0.1-0.7,0.6c0,0.2,0.4,0.3,0.6,0.5
			c-0.3,0.2-0.7,0.4-1,0.5c-0.2,0.1-0.4-0.1-0.6-0.1c0.1-0.2,0.1-0.5,0.2-0.8c-0.5-0.1-1.1-0.3-1.5,0.4c0.3,0.4,0.3,1.2,1.1,1.2
			c0.1,0,0.2,0.3,0.1,0.4c0,0.1-0.2,0.2-0.4,0.2c-0.3,0-0.5,0-0.8,0c-0.2-1.1-0.4-2.1-0.7-3.3c0.4-0.5,0.8,0.8,1.3,0.1
			c0.4-0.5,1.1,0.1,1.7-0.3c0.4-0.3,0.9-0.3,1.5-0.5c0.1,0.7,0.1,1.4,0.3,2C521.6,274.1,521.2,274.5,519.9,274.4z"/>
		<path d="M520,293c-1.6,0.2-3.1,0.3-4.8,0.5c0.2-0.5,0.4-0.7,0.5-1c0.1-0.2,0-0.5,0-0.9c0.3,0.2,0.4,0.4,0.5,0.4
			c0.5,0.1,0.9,0,1.1-0.4c0.2-0.4,0-0.9-0.4-1.1c-0.4-0.2-0.7-0.3-0.6-0.7c0-0.1,0.1-0.3,0.2-0.3c0.1,0,0.4,0.1,0.4,0.2
			c0.3,1,1.3,1.2,2,1.8C519.8,292,519.9,292,520,293z M518.7,291.9c-0.1-0.1-0.1-0.1-0.2-0.2c-0.2-0.2-0.4-0.5-0.8-0.3
			c-0.1,0-0.1,0.2-0.1,0.3c0,0.5,0.5,0.3,0.7,0.3C518.5,292,518.5,292,518.7,291.9z"/>
		<path d="M517.4,279.2c0-0.6,0-0.9,0-1.4c1.4,0.5,2.8,0.7,4.3-0.3c0,0.9,0,1.6,0,2.4c0,0.8-0.3,1-1.1,1c-0.1,0-0.3,0-0.3,0
			c-1-0.8-1.6-0.1-2.3,0.6c0,0-0.1,0-0.1,0.1c-0.1-0.2-0.5-0.5-0.4-0.6c0.2-0.5,0.5-0.9,1.1-1c0.3,0,0.5,0,0.8,0c0-0.3,0-0.6,0-0.9
			C518.7,278.5,518.1,279.1,517.4,279.2z M520,280.4c0.5-0.2,0.9-0.3,1.1-0.6c0.2-0.2,0.1-0.6,0.2-0.9c-0.5,0-0.9,0-1.3,0
			C520,279.3,520,279.7,520,280.4z"/>
		<path d="M440.6,266.6c0.8,0,1.4,0,2,0c0.6,0,1.2,0.3,1.7-0.3c0.4,0.7,1-0.6,1.5,0.2c-0.1,0.3-0.3,0.7-0.4,1
			c-0.1,0-0.2,0.1-0.3,0.1c-0.3-0.1-0.5-0.6-0.8-0.2c-0.2,0.2-0.3,0.5-0.4,0.8c-0.1,0.2,0,0.4,0,0.7c0.3,0,0.6,0,0.8,0
			c0.4,0.4,0.3,1-0.3,1.7C443.7,268.8,441.8,268.2,440.6,266.6z M443.5,267.9c-0.1-0.1-0.1-0.1-0.2-0.2c-0.2-0.2-0.4-0.5-0.8-0.3
			c-0.1,0-0.1,0.2-0.1,0.3c0,0.5,0.5,0.3,0.7,0.3C443.3,268,443.3,267.9,443.5,267.9z"/>
		<path d="M463.8,241.4c0.6-0.2,1-0.3,1.4-0.5c0.1,0,0.2,0,0.3,0c0.1,0.3-0.3,0.6,0,1.1c0.3,0.7,0.6,1.5,1,2.2
			c0.2,0.3,0.6,0.4,0.8,0.3c0.3-0.1,0.5-0.4,0.6-0.6c0.1-0.6,0-1.1-0.3-1.7c-0.2-0.5-0.1-1.1-0.8-1.3c-0.3-0.1-0.3-0.5,0-0.6
			c0.3-0.2,0.6-0.3,0.9-0.4c0.7,0.5-0.6,0.8,0,1.3c0.3,0.3,0.4,0.7,0.6,1.1c0.1,0.1,0,0.4,0.1,0.5c0.4,0.4,0.4,1,0.2,1.3
			c-0.3,0.5-0.8,0.8-1.2,1.1c-0.4,0.2-1.3-0.3-1.7-0.8c-0.2-0.3-0.3-0.5-0.3-0.9C465,242.8,464.8,241.9,463.8,241.4z"/>
		<path d="M505.1,246.5c0.3,1.7-0.6,3.2-0.6,5c-0.3-0.2-0.5-0.3-0.7-0.4c-0.2-0.1-0.4-0.1-0.7-0.2c0.2-0.3,0.3-0.5,0.5-0.7
			c0.5-0.3,0-0.5,0-0.7c0-0.6-0.7-0.3-0.9-0.7c-0.1,0.1-0.3,0.2-0.3,0.4c-0.1,0.2-0.2,0.4-0.3,0.8c-0.3-0.3-0.5-0.4-0.7-0.6
			c-0.2-0.2-0.2-0.6,0.3-0.5c0.8,0,1.2-0.7,1.7-1c0.5-0.3,1.3-0.5,1.4-1.3C504.7,246.5,504.9,246.5,505.1,246.5z M504.3,248.4
			c-0.3-0.1-0.4-0.2-0.6-0.2c-0.1,0-0.3,0.3-0.2,0.3c0.1,0.1,0.2,0.3,0.4,0.3C504,248.8,504.1,248.6,504.3,248.4z"/>
		<path d="M449.3,252.5c0.2-0.2,0.3-0.4,0.5-0.6c0.2-0.2,0.4-0.3,0.8-0.7c0.1,1.3,0.9,1.8,1.5,2.5c0.4,0.4,0.7,0.7,1.2,0.3
			c0.4-0.3,0.5-1,0.1-1.6c-0.5-0.8-1.1-1.5-2.3-1.7c0.4-0.4,0.6-0.7,0.9-1c0.7,1,1.4,1.8,2.1,2.7c0.2,0.2,0.3,0.6,0.2,0.9
			c0,0.4-0.1,0.9-0.3,1.1c-0.3,0.3-0.9,0.3-1.3,0.4c-0.4,0.1-0.6-0.1-0.8-0.4c-0.3-0.4-0.7-0.7-1-1.1c-0.4-0.4-0.8-0.7-1.4-0.6
			C449.4,252.7,449.4,252.6,449.3,252.5z"/>
		<path d="M501.8,244c-0.2,0.4-0.5,0.8-0.8,1.4c-0.1-0.6-0.2-1.1-0.2-1.6c-0.8,0.4-0.8,1.3-1.4,1.8c-0.6,0.6-0.5,1.4-0.5,2.4
			c-0.3-0.2-0.4-0.3-0.5-0.4c-0.1-0.4-0.8-0.1-0.9-0.8c-0.1-0.7,0.6-0.5,0.8-0.8c0.4-0.7,0.9-1.4,1.2-2.1c0.1-0.1,0-0.4-0.1-0.8
			c-0.3,0.2-0.5,0.4-0.8,0.5c-0.1,0-0.3,0-0.4-0.1c-0.1-0.1-0.1-0.3,0-0.4c0.3-0.4,1-0.6,1.4-0.4C500.5,243,501.1,243.5,501.8,244z"
			/>
		<path d="M446,296.1c0.1,0.2,0.3,0.5,0.4,0.8c0.1,0.2-0.1,0.7-0.2,0.7c-0.7,0-0.5,0.5-0.4,0.8c0,0.3,0.2,0.6,0.4,0.8
			c0.1,0.1,0.4,0,0.5-0.1c0.1-0.1,0.2-0.3,0.3-0.5c0.2,0.1,0.5,0.2,0.6,0.4c0.1,0.1,0.1,0.3,0.1,0.6c-1.6-0.2-3,0.7-4.7,0.2
			c0-1,1.1-1.2,1.4-2C444.8,297.2,445.5,296.7,446,296.1z M444.5,299.1c0.1,0.1,0.2,0.2,0.2,0.2c0.3-0.1,0.7,0.2,0.8-0.3
			c0-0.1,0-0.2-0.1-0.3c-0.4-0.3-0.5,0-0.8,0.2C444.6,299,444.6,299,444.5,299.1z"/>
		<path d="M517.1,286.4c-0.2-0.7-0.2-1.2,0.4-1.6c0.3,0.4,0.7,0.8,1.3,0.7c0.5-0.1,0.9-0.1,1.4,0.3c0.1,0.1,0.5,0,0.9,0
			c-0.4-0.5-0.6-0.8-0.9-1.2c0.4,0,0.8,0,1.4,0c-0.1,1-0.2,2-0.4,3c-0.1,0.4-0.6,0.6-1,0.4c0,0-0.1-0.1-0.1-0.1
			c-0.2-0.1-0.4-0.1-0.8-0.3c0.5-0.1,0.8-0.1,1.1-0.2c0.2-0.1,0.3-0.3,0.4-0.5c0-0.1-0.2-0.3-0.3-0.3c-1,0-2-0.6-3.1-0.4
			C517.4,286.2,517.3,286.3,517.1,286.4z"/>
		<path d="M444.5,292.9c0.2-0.7-0.4-1-0.7-1.4c-0.3-0.3-1.1,0.2-0.9-0.7c0.5,0,1,0,1.5,0c0.3,1,0.5,2.1,0.8,3.1
			c-1.4,0.1-2.7,0.6-4.2,1.4c-0.1-0.3-0.2-0.7-0.3-1c-0.1-0.2-0.2-0.4-0.1-0.5c0.2-0.3,0.4-0.1,0.7,0.1c0.7,0.4,1.2-0.3,1.9-0.4
			C443.6,293.5,444,293.1,444.5,292.9z"/>
		<path d="M446.9,255.3c0.3,1.5,1.2,1.9,2,2.4c0.3,0.2,0.5,0.4,0.7,0.6c0.6-0.7,0.6-0.7,0.6-2.1c0.2,0.2,0.5,0.5,1,0.8
			c-0.5,0.8-1.1,1.7-1.8,2.7c-0.9-1.4-1.9-2.4-3.6-2.8C446.1,256.5,446.4,256.1,446.9,255.3z"/>
		<path d="M513.2,259.7c-0.9,0.8-1.1,0.9-1.6,0.3c-0.5-0.6-0.9-1.4-1.5-2.1c0.7-0.1,1.4-0.1,2-0.8c0.4-0.5,1.4-0.6,1.4-1.7
			c0.4,0.4,0.7,0.8,1,1.1c-1,0.7-1.9,1.2-2.7,1.9c-0.5,0.4-0.5,1,0.1,1.3c0.1,0.1,0.3,0.1,0.4,0.1
			C512.5,259.7,512.8,259.7,513.2,259.7z"/>
		<path d="M479.3,320.3c1.2,0.5,1.1-0.5,1.6-0.8c0.5,0.4,1,0.8,1.5,1.2c-0.4,0.5-1.2,0.9-0.2,1.8c-0.8-0.3-1.4-0.7-2,0
			c-0.1-0.1-0.3-0.3-0.3-0.4C479.8,321.2,479.8,321.2,479.3,320.3z"/>
		<path d="M513.7,297c0,0.4,0,0.8,0,1.2c0.8,0.4,1.2-0.3,1.6-0.6c0.3-0.3,0.6-0.7,1.2-0.6c0.4,0.1,0.8-0.1,1,0.3
			c0.2,0.5,0.5,1.2-0.1,1.6c0-0.5,0.1-1.1-0.8-1.4c-0.6,0.5-1.2,1.1-1.8,1.7c-0.3-0.1-0.6-0.2-0.9-0.4
			C513.3,298.5,513.2,297.9,513.7,297z"/>
		<path d="M517.6,262.4c-0.6-0.3-1.1-0.2-2.2,0.3c-0.6,0.3-1.4,0.4-1.7,1.3c-0.1-0.5-0.3-1-0.5-1.6c1.3,0.1,2.1-0.6,3.1-1
			c0,0,0.1,0,0.2,0c0.3-0.1,0.1-0.9,0.7-0.6c0.3,0.2,0.4,0.7,0.5,1.1C517.7,261.9,517.7,262.1,517.6,262.4z"/>
		<path d="M475.5,238.4c0.5-0.1,0.9-0.7,1.6-0.4c-0.3,1.8-0.6,2.2,0.5,4.4c-0.6,0-1.1,0.1-1.6,0.1
			C476.2,241.1,476.5,239.7,475.5,238.4z"/>
		<path d="M444.9,262.7c0-0.4,0-0.8,0-1.2c0.6-0.2,1.2-0.1,1.2,0.6C446.1,262.7,445.5,262.7,444.9,262.7z"/>
		<path d="M461.5,246c-0.3-0.3-0.6-0.5-0.7-0.7c-0.1-0.2,0.5-0.8,0.8-0.7c0.1,0,0.3,0,0.4,0.1c0.2,0.2,0.4,0.5,0.3,0.7
			C462.1,245.6,461.8,245.7,461.5,246z"/>
		<path d="M508.1,253.5c0.1-0.4,0-0.7,0.2-1c0.1-0.2,0.4-0.4,0.6-0.4c0.2,0,0.5,0.3,0.5,0.5c0,0.2-0.1,0.5-0.3,0.6
			C508.9,253.4,508.5,253.4,508.1,253.5z"/>
		<path d="M482.8,241c-0.4-0.1-0.7,0-1-0.2c-0.2-0.1-0.4-0.4-0.4-0.6c0-0.2,0.3-0.5,0.5-0.5c0.2,0,0.5,0.1,0.6,0.3
			C482.7,240.2,482.7,240.5,482.8,241z"/>
		<path d="M513.7,297c0.1-0.3,0.2-0.6,0.4-0.9c0.2-0.4,0.9-0.5,1.2,0c0.1,0.1,0,0.4-0.1,0.5c0,0-0.1,0-0.2,0
			C514.6,296.8,514.2,296.9,513.7,297z"/>
		<path d="M517.4,298.9c-0.4,1.3-0.7,1.4-1.7,0.5c0.3-0.1,0.6-0.1,0.9-0.2C516.9,299.1,517.1,299,517.4,298.9z"/>
		<path d="M482.7,251.6c0.3,0.3,0.7,0.6,1,1c0.1,0.2,0.2,0.7-0.2,0.8c-0.4,0.1-0.7,0.3-0.8,0.7c-0.1,0.3,0.1,0.6,0.3,0.9
			c0.1,0.1,0,0.4,0,0.7c-0.2,0-0.4,0.1-0.6,0c-0.4-0.1-1-0.3-1.3-0.2c-0.4,0.2-0.5,0.7-0.8,1c-0.3-0.3-0.7-0.7-0.9-0.9
			c-0.8,0-1.4,0-2,0c-0.3-1,0.4-2.2-0.7-2.8c-0.1-0.8,1.1-0.6,1-1.3c-0.1-0.6-0.2-1.1-0.4-1.8c0.4,0,0.8,0,1.2,0c0.6,0,1,0,1.3-0.7
			c0.1-0.4,0.8-0.4,0.9-0.1c0.4,1.1,1.2,0.8,2,0.6c0.3-0.1,0.3,0,0.5,0.1c0.2,0.2,0.1,0.3,0,0.5C483,250.6,482.9,251.1,482.7,251.6z
			 M481.9,251.4c-0.4,0.4-0.6,0.7-0.9,1.1c0.6,0.6,1.4,0.2,2.2,0.2C482.7,252.2,482.3,251.8,481.9,251.4z M480,255.8
			c0-0.8,0-1.5,0-2.5c-0.4,0.5-0.7,0.8-1,1.1C479.4,254.9,479.7,255.3,480,255.8z M480.1,252.1c-0.1-0.8,0.1-1.5-0.2-2.4
			c-0.2,0.5-0.4,0.9-0.5,1.3C479.3,251.5,479.5,251.9,480.1,252.1z M479.4,252.7c0.1-0.1,0.1-0.2,0.2-0.3c-0.4-0.1-0.3-0.9-1-0.5
			c-0.2,0.1-0.3,0.5-0.5,0.8C478.6,252.7,479,252.7,479.4,252.7z"/>
		<path d="M496.8,266.6c0.6,0.4,1.3,0.9,1.9,1.4c0.4,0.3,0.7,0.9,1.2,1.1c0.5,0.2,0.6,0.7,1,1.1c0.6,0.6,1.1,1.3,1.9,1.7
			c0.7,0.3,1,1.3,1.8,1.5c0.3,0.1,0.5,0.5,0.7,0.7c1.7,1.5,3.4,2.9,5.1,4.4c0.2,0.2,0.6,0.3,0.8,0.5c0.1,0.1,0.1,0.4,0.2,0.5
			c-0.2,0-0.4,0-0.6,0c-0.1,0-0.2-0.1-0.2-0.2c-1.2-1.1-2.3-2.3-3.6-3.2c-1.8-1.3-3.4-2.9-5.1-4.3c-0.9-0.7-1.9-1.4-2.6-2.5
			c-0.3-0.5-0.8-1.1-1.6-1.3c-0.5-0.2-0.8-0.7-1.1-1.1C496.7,266.7,496.7,266.6,496.8,266.6z"/>
		<path d="M498,265.5c0.5,0.3,1.1,0.5,1.6,0.9c1.2,1,2.7,1.7,3.7,2.8c2.1,2.3,4.9,3.6,7.2,5.7c0.7,0.6,1.7,1,2.5,1.5
			c0.1,0.1,0.1,0.4,0.1,0.5c0,0-0.3,0.1-0.4,0.1c-0.9-0.6-1.7-1.2-2.5-1.9c-2-1.6-4-3-6-4.4c-0.6-0.4-1.2-1.1-1.8-1.7
			c-0.9-0.9-2-1.5-3-2.3c-0.5-0.4-1-0.8-1.4-1.2C497.9,265.7,497.9,265.6,498,265.5z"/>
		<path d="M498,263.7c1.1,0.8,2.3,1.5,3.4,2.3c1.2,0.8,2.4,1.5,3.6,2.2c1.2,0.7,2.2,1.6,3.3,2.4c1.1,0.8,2.3,1.4,3.4,2.4
			c-0.6-0.2-1.2-0.4-1.7-0.7c-1.1-0.7-2.2-1.5-3.4-2.3c-0.6-0.4-0.9-1.1-1.6-1.3c-0.7-0.2-1.2-0.7-1.8-1.2c-0.6-0.4-1.3-0.6-1.8-1.1
			c-0.5-0.5-1.2-0.8-1.8-1.2c-0.3-0.2-0.8-0.3-1.1-0.5C498.2,264.4,497.7,264.2,498,263.7z"/>
		<path d="M498.1,261.7c0.4,0,0.6,0,0.7,0c2.5,1.3,4.9,2.7,7.5,3.8c1.7,0.8,3.4,1.6,5.1,2.4c0.3,0.2,0.5,0.3,0.3,0.5
			c0,0.1-0.4,0.1-0.5,0c-4.2-2-8.3-4.1-12.4-6.2C498.5,262.2,498.4,262,498.1,261.7z"/>
		<path d="M465.9,271.8c0,0.2,0,0.4,0,0.5c0,0.1-0.1,0.2-0.1,0.3c-2.5,3.6-5,7.1-7.8,10.5c0.1-0.4,0.1-0.8,0.3-1.1
			c0.9-1.2,1.8-2.5,2.6-3.7c1-1.3,2-2.7,2.9-4C464.5,273.5,465,272.5,465.9,271.8z"/>
		<path d="M510.5,263.9c-0.5,0.1-0.8,0.2-0.9,0.1c-1.2-0.5-2.4-0.8-3.6-1.3c-2.1-0.9-4.2-1.6-6.3-2.3c-0.4-0.1-0.7-0.3-1.1-0.5
			c0,0,0-0.2,0-0.3c0-0.1,0.2-0.1,0.2-0.1c0.5,0.2,1,0.4,1.6,0.6c2,0.8,4.1,1.5,6.1,2.3C507.7,262.8,508.9,263.3,510.5,263.9z"/>
		<path d="M458.4,266.2c-1,0.9-2.1,1.2-2.8,1.8c-0.8,0.7-1.9,0.8-2.5,1.6c-0.6,0.8-1.7,1.1-2.5,1.7c-0.9,0.5-1.7,1-2.8,1.7
			c0.2-0.4,0.3-0.8,0.5-0.9c0.8-0.5,1.7-1,2.5-1.5c0.6-0.3,1.4-0.3,1.5-1.2c0-0.1,0.2-0.1,0.3-0.2c1.8-0.8,3.3-2,5.1-2.9
			C457.6,266.3,457.8,266.3,458.4,266.2z"/>
		<path d="M462,259.6c-3.6,1.2-7.1,2.5-10.7,3.7c-0.1,0-0.3,0-0.7-0.1c0.4-0.3,0.6-0.5,0.8-0.6c1.1-0.3,2.3-0.6,3.3-1.2
			c0.4-0.2,0.9-0.2,1.3-0.4c1.7-0.7,3.5-1,5.2-1.8c0.2-0.1,0.4,0,0.6,0C461.9,259.5,461.9,259.5,462,259.6z"/>
		<path d="M504.7,277c-0.3-0.2-0.6-0.4-0.9-0.6c-1.8-1.7-3.5-3.5-5.2-5.2c-0.4-0.4-0.7-0.7-1.2-1c-0.4-0.2-0.6-0.9-1-1.5
			c1.1,0.4,1.1,0.4,1.5,1c0.3,0.3,0.6,0.6,0.9,1c1.8,1.8,3.6,3.6,5.5,5.5c0.2,0.2,0.4,0.4,0.7,0.7
			C504.9,276.8,504.8,276.9,504.7,277z"/>
		<path d="M504.8,276.9c0.2,0,0.4-0.1,0.6,0c0.8,0.6,5.1,5.1,5.5,5.9c-0.6-0.2-1.2-0.3-1.4-0.9c-0.3-0.6-1-0.7-1.3-1.2
			c-0.3-0.5-0.6-1.1-1-1.3c-0.8-0.4-1.4-1.2-2-1.8C504.9,277.4,504.9,277.1,504.8,276.9z"/>
		<path d="M462.3,265.6c-0.6,1.2-1.9,1.4-2.8,2.2c-0.7,0.7-1.6,1.1-2.3,1.9c-0.5,0.7-1.5,1-2.3,1.5c-0.4,0.2-0.6,0.8-1.2,0.7
			c0.2-0.2,0.3-0.4,0.5-0.6c0.6-0.7,1.7-0.8,2.2-1.8c0.4-0.7,1.4-1.1,2.2-1.7c0.8-0.5,1.6-1,2.5-1.5
			C461.5,266.1,461.7,265.5,462.3,265.6z"/>
		<path d="M457.7,263.9c-2.9,1.4-5.8,2.8-8.9,4.3c0.6-0.9,2.1-1.7,4.3-2.5c1.6-0.6,2.9-1.6,4.5-2.1
			C457.6,263.6,457.7,263.8,457.7,263.9z"/>
		<path d="M453.9,271.9c-0.3,0.3-0.5,0.6-0.8,0.7c-1.2,0.8-2.4,1.7-3.6,2.5c-0.7,0.5-1.4,1.1-2.2,1.5c-0.1,0.1-0.4,0-0.6,0.1
			c0-0.2,0-0.5,0.1-0.5c1.2-0.5,2.1-1.5,3.2-2.2c1-0.7,2-1.4,3.1-2.1C453.3,271.8,453.5,271.9,453.9,271.9z"/>
		<path d="M452.7,259.5c3.4-0.8,6.4-1.5,9.7-2.2c-0.8,1-1.8,0.9-2.6,1c-1.7,0.4-3.4,0.9-5.2,1.1
			C454.1,259.5,453.7,259.8,452.7,259.5z"/>
		<path d="M500.2,258.5c0.4-0.3,0.5-0.4,0.6-0.4c2.1,0.6,4.2,1.2,6.4,1.6c0.1,0,0.2,0.2,0.2,0.3c-0.1,0.1-0.3,0.3-0.4,0.3
			c-0.3-0.1-0.7-0.2-1-0.3c-1.8-0.3-3.4-1-5.2-1.3C500.6,258.7,500.5,258.6,500.2,258.5z"/>
		<path d="M487.4,255.3c0.4,0.1,0.9,0.3,1.3,0.4c1.7,0.6,3.5,1.1,5.1,2c0.2,0.1,0.3,0.2,0.5,0.3c0,0,0,0.1,0,0.2
			c0,0.1-0.1,0.1-0.2,0.2c-0.2-0.4-0.7-0.2-1-0.4c-1.4-0.7-2.8-1.3-4.3-1.6c-0.5-0.1-1-0.6-1.5-0.9
			C487.3,255.4,487.4,255.4,487.4,255.3z"/>
		<path d="M452.7,275.5c-1.1,1.5-2.4,2.6-3.9,3.5c-0.4,0.3-0.7,0.7-1.1,1c-0.1,0.1-0.4,0-0.6,0.1c0-0.2,0-0.5,0.1-0.5
			c1-0.4,1.5-1.3,2.4-1.8c0.8-0.5,1.5-1.2,2.2-1.8C452.1,275.7,452.4,275.6,452.7,275.5z"/>
		<path d="M487.7,256.7c0.3,0.1,0.5,0.3,0.8,0.4c1.8,0.9,3.7,1.8,5.5,2.7c0.1,0.1,0.2,0.3,0.2,0.5c-0.2,0-0.5,0.1-0.6,0.1
			c-1.6-1.3-3.6-1.7-5.2-2.9c-0.3-0.2-0.6-0.4-0.9-0.6C487.6,256.8,487.7,256.7,487.7,256.7z"/>
		<path d="M507.7,284.5c-1.6-1.5-3-3.2-4.1-5c0.2,0.1,0.6,0.2,0.7,0.4c0.3,0.6,0.8,1,1.2,1.5c0.8,0.9,1.5,1.8,2.3,2.7
			C507.8,284.1,507.8,284.2,507.7,284.5z"/>
		<path d="M487.1,253.8c1.9,0.4,3.8,0.7,5.9,1.1c-0.1,0.2-0.3,0.5-0.4,0.5c-0.6-0.1-1.1-0.2-1.7-0.3c-1.3-0.3-2.7-0.7-4-1
			C487,254,487.1,253.9,487.1,253.8z"/>
		<path d="M461.2,256.2c-1.8,0.4-3.5,0.6-5.3,1.2c-0.2,0.1-0.4,0-0.7,0c-0.1,0-0.3-0.2-0.3-0.3c0-0.1,0.1-0.3,0.2-0.3
			c1-0.1,2.1-0.1,3.1-0.4C459.4,256.2,460.3,256,461.2,256.2z"/>
		<path d="M464.3,268.1c-1.4,1.5-2.8,3-4.2,4.4c0,0.1-0.2,0-0.5,0c0.2-0.2,0.3-0.3,0.4-0.5c1.2-1.3,2.3-2.5,3.5-3.8
			c0.2-0.2,0.4-0.3,0.6-0.4C464.1,268,464.2,268.1,464.3,268.1z"/>
		<path d="M458.3,274.1c-1.4,1.4-2.9,2.9-4.3,4.3c-0.1-0.1-0.2-0.2-0.3-0.3c0.3-0.4,0.7-0.7,1-1.1c0.4-0.4,0.8-0.8,1.2-1.2
			c0.3-0.3,0.7-0.7,1-1C457.3,274.4,457.6,274,458.3,274.1z"/>
		<path d="M471.8,256c-1.9,0.6-3.7,1.3-5.6,1.9c-0.1,0-0.2,0-0.3-0.1c0-0.1,0-0.3,0-0.3c0.3-0.2,0.6-0.4,1-0.4
			c1.4-0.1,2.6-0.8,4-1.2c0.3-0.1,0.6-0.1,0.9-0.2C471.8,255.8,471.8,255.9,471.8,256z"/>
		<path d="M448.2,283.4c1.3-1.3,2.3-2.9,3.9-3.9c0,0,0.1,0,0.3,0.1C451,281,449.8,282.4,448.2,283.4z"/>
		<path d="M465.3,277.5c-0.7,1.8-1.8,3.3-2.9,4.9C463,280.6,464,279,465.3,277.5z"/>
		<path d="M500.6,256.7c1.3-0.5,2.4,0.1,3.6,0.2c0.3,0.5,1.4-0.2,1.3,0.5c-0.2,1-0.9-0.5-1.4,0C502.9,257.2,501.7,256.9,500.6,256.7
			z"/>
		<path d="M467.6,249.1c1.2-0.3,2.2,0.1,3.2,0.4c0.5,0.1,0.9,0.4,1.5,0.3c0.1,0,0.3,0.3,0.5,0.5c-0.2,0-0.4,0.2-0.6,0.1
			c-0.9-0.3-1.8-0.6-2.7-0.9C468.8,249.4,468.2,249.2,467.6,249.1z"/>
		<path d="M502.6,255.1c-1-0.1-2.1-0.2-3.1-0.3c-0.1,0-0.2-0.2-0.2-0.3c0-0.1,0.1-0.2,0.2-0.3c0,0,0.1,0,0.2,0
			c1.1,0.5,2.3,0.3,3.5,0.3c0.1,0,0.3,0.2,0.4,0.3c-0.1,0.1-0.3,0.3-0.4,0.3C503,255.1,502.8,255.1,502.6,255.1
			C502.6,255.1,502.6,255.1,502.6,255.1z"/>
		<path d="M465.7,268.8c-0.2,0.5-0.2,0.9-0.4,1.2c-0.9,1-1.9,2-2.9,2.9c-0.1-0.1-0.1-0.2-0.1-0.2c0-0.1,0-0.2,0-0.3
			C463.4,271.2,464.5,270.1,465.7,268.8z"/>
		<path d="M489.7,260c-0.2,0-0.3,0-0.4,0c-0.1,0-0.2,0-0.3-0.1c-1.2-1-2.5-2-3.7-3c0.2-0.1,0.2-0.2,0.3-0.2c0.1,0,0.3,0,0.3,0
			C487,258,488.7,258.6,489.7,260z"/>
		<path d="M466.6,252.2c1.1,0.1,2.2-0.3,3.3,0.2c0.6,0.3,1.5,0,2.2,0.2C470.3,253,468.4,252.7,466.6,252.2z"/>
		<path d="M487,250.2c0.8-0.2,1.5-0.6,2.3-0.7c0.8-0.1,1.6-0.3,2.4-0.6c0,0,0.2,0.1,0.2,0.2c0,0.1,0,0.2-0.1,0.3
			c-0.4,0.2-0.8,0.4-1.1,0.4c-1,0-1.8,0.3-2.7,0.7c-0.3,0.1-0.6,0-0.9,0C487.1,250.4,487.1,250.3,487,250.2z"/>
		<path d="M493.5,252.8c-0.3,0.3-0.4,0.7-0.5,0.6c-1.7-0.6-3.5-0.2-5.2-0.4c0.9-0.3,1.8-0.2,2.8-0.2
			C491.4,252.8,492.3,252.8,493.5,252.8z"/>
		<path d="M470.6,257.6c-1.3,0.6-2.6,1.2-3.9,1.8c-0.1,0-0.3-0.1-0.7-0.1C467.7,258.7,468.9,257.6,470.6,257.6z"/>
		<path d="M487.2,252c0.3-0.3,0.5-0.5,0.7-0.6c1.3-0.1,2.6-0.2,4-0.3c-0.2,0.4-0.5,0.6-1,0.6c-0.5,0-1,0-1.5,0
			C488.8,251.8,488.2,251.9,487.2,252z"/>
		<path d="M455.7,280.2c0.2-0.9,0.8-1.5,2.9-3.2C458.4,277.7,457.8,278.5,455.7,280.2z"/>
		<path d="M462,261.7c-1.4,1-3.3,1.9-4.3,2C459,262.7,461,261.8,462,261.7z"/>
		<path d="M461.6,273.4c0,0.3,0.1,0.5,0.1,0.5c-0.9,0.8-1.7,1.6-2.6,2.4c0.1-0.2,0.1-0.5,0.3-0.6C460,275,460.7,274.3,461.6,273.4z"
			/>
		<path d="M455.7,280.2c-0.3,0.9-0.5,1.2-2.6,2.9C453.3,282.2,453.7,281.8,455.7,280.2z"/>
		<path d="M459.4,265.4c1.2-1,2.4-1.4,3.4-2.1C462.3,264.1,460.9,265,459.4,265.4z"/>
		<path d="M484.1,248.7c0.6-0.7,1.1-1.5,1.7-2.2c0-0.1,0.3-0.1,0.3,0c0.1,0.1,0.2,0.3,0.2,0.4c-0.6,0.8-1.3,1.4-2,2.1
			C484.3,248.9,484.2,248.8,484.1,248.7z"/>
		<path d="M462.9,252.4c-1.1,0-2.1,0-3.2,0c-0.2-0.5,0.1-0.8,0.4-0.6C461,252.3,462,252,462.9,252.4z"/>
		<path d="M470.7,254.6c-1.3,0.2-2.3,0.4-3.6,0.6C468.4,254.3,468.6,254.3,470.7,254.6z"/>
		<path d="M457.7,254.2c1.3,0,2.6,0,3.8,0c-0.6,0.4-1.3,0.2-1.9,0.3c-0.6,0-1.3,0-1.9,0C457.7,254.3,457.7,254.3,457.7,254.2z"/>
		<path d="M498,252.5c1.1,0,2.1,0,3.2,0c-0.6,0.4-0.6,0.4-1.6,0.3c-0.5-0.1-1.1,0-1.6,0C498,252.7,498,252.6,498,252.5z"/>
		<path d="M489.4,259.9c1.1,0.4,1.9,0.9,2.8,1.9C491,261.4,490.2,260.9,489.4,259.9z"/>
		<path d="M470.1,251.3c-1,0-2,0.7-3.1-0.5C468.3,251,469.2,251.1,470.1,251.3z"/>
		<path d="M486.7,249.3c0.6-0.9,1.4-1.4,2.6-1.2C488.5,248.4,487.6,248.9,486.7,249.3z"/>
		<path d="M459,270.6c0.3-0.4,0.5-0.9,0.8-1.3c0.2-0.3,0.5-0.4,0.8-0.3c-0.3,0.6-0.5,1.2-1,1.5C459.4,270.6,459.2,270.6,459,270.6z"
			/>
		<path d="M472.2,258.2c0.6-0.4,1.2-0.8,1.8-1.2C473.4,258,473.4,258,472.2,258.2z"/>
		<path d="M470,260.2c0.3-0.9,1-1.3,1.9-1.2C471.2,259.3,470.6,259.8,470,260.2z"/>
		<path d="M474.6,259.5c-0.4,0.6-0.9,1.2-1.3,1.8C473.2,260.5,473.2,260.5,474.6,259.5z"/>
		<path d="M473,249c-0.8-0.5-1.8-0.5-2.1-1.4C471.6,248,472.5,248,473,249z"/>
		<path d="M486.7,260c-0.6-0.4-1.3-0.7-1.3-1.6C486,258.8,486.7,259.1,486.7,260z"/>
		<path d="M474.5,259.6c0-1.1,0.8-1.3,1.2-1.8C475.7,258.6,475,258.9,474.5,259.6z"/>
		<path d="M463.9,266.3c-0.4,0.6-0.7,1.3-1.6,1.3C462.7,267,463,266.3,463.9,266.3z"/>
		<path d="M498.2,250.8c-0.4,0-0.7,0-1.1,0c-0.5,0-1,0-1.4,0c0.8-0.5,1.7-0.3,2.5-0.3C498.2,250.6,498.2,250.7,498.2,250.8z"/>
		<path d="M460.6,268.9c0.4-0.6,0.7-1.3,1.6-1.3C461.9,268.2,461.5,268.9,460.6,268.9z"/>
		<path d="M454.4,274.2c-0.4,0.6-0.7,1.3-1.6,1.3C453.2,275,453.5,274.2,454.4,274.2z"/>
		<path d="M456,272.9c-0.4,0.6-0.7,1.3-1.6,1.3C454.8,273.6,455.1,272.9,456,272.9z"/>
		<path d="M459.6,265.3c-0.3,0.7-1,0.9-1.6,1C458.3,265.6,459,265.4,459.6,265.3z"/>
		<path d="M474.1,246.1c1,0.5,1,0.5,0.9,1.6C474.7,247.1,474.4,246.7,474.1,246.1z"/>
		<path d="M466.2,276c0.1-0.8,0.4-1.3,0.9-1.7C467.1,275,466.9,275.5,466.2,276z"/>
		<path d="M466.2,275.9c-0.1,0.7-0.2,1.4-1,1.6C465.4,276.8,465.5,276.2,466.2,275.9z"/>
		<path d="M455.9,272.9c0.4-0.4,0.7-0.9,1.3-0.9C456.9,272.4,456.8,273.1,455.9,272.9z"/>
		<path d="M459.1,270.6c-0.4,0.4-0.7,0.9-1.3,0.9C458.1,271.1,458.2,270.4,459.1,270.6z"/>
		<path d="M463.5,250.8c-0.4,0-0.7,0-1.1,0c-0.1,0-0.2-0.3-0.2-0.4c0-0.1,0.2-0.3,0.3-0.2c0.3,0.1,0.6,0.3,0.9,0.4
			C463.6,250.7,463.5,250.7,463.5,250.8z"/>
		<path d="M463.8,266.3c0.4-0.4,0.7-0.9,1.3-0.9C464.8,265.8,464.7,266.5,463.8,266.3z"/>
		<path d="M487.7,255.4c-0.9,0-1.4,0.1-1.7-0.8C486.6,254.9,487,255.1,487.7,255.4z"/>
		<path d="M486.7,260.1c0.3,0.3,0.6,0.6,0.8,0.9C486.9,261,486.7,260.6,486.7,260.1z"/>
		<path d="M465.6,268.9c0-0.5,0.3-0.9,0.8-0.9C466.1,268.3,465.8,268.6,465.6,268.9z"/>
		<path d="M478.3,246.6c-0.2-0.5-0.4-0.8-0.6-1.4C478.4,245.7,478.4,245.7,478.3,246.6z"/>
		<path d="M462.4,265.8c0.1-0.5,0.3-0.9,1-0.7C463,265.4,462.7,265.6,462.4,265.8z"/>
		<path d="M469.9,260c-0.1,0.5-0.5,0.7-1,0.7C469,260.2,469.4,260,469.9,260z"/>
		<path d="M465.8,271.8c0.2-0.3,0.4-0.6,0.7-1C466.7,271.6,466.3,271.7,465.8,271.8z"/>
		<path d="M468.8,260.6c-0.1,0.5-0.3,0.9-1,0.7C468.2,261,468.5,260.8,468.8,260.6z"/>
		<path d="M485.4,258.8c-0.3-0.5-0.4-0.7-0.6-1C485.4,257.6,485.4,258,485.4,258.8z"/>
		<path d="M473.2,255.8c0.3,0,0.6,0,1,0c0,0.1,0,0.1,0,0.2c-0.3,0-0.6,0.1-1,0.1C473.2,256,473.2,255.9,473.2,255.8z"/>
		<path d="M483.9,246.2c-0.2-0.1-0.3-0.1-0.4-0.2c0.1-0.2,0.3-0.4,0.4-0.6c0.1,0.1,0.2,0.2,0.2,0.2
			C484,245.9,483.9,246.1,483.9,246.2z"/>
		<path d="M482.3,245.5c-0.1,0-0.2-0.1-0.2-0.1c0.1-0.2,0.1-0.4,0.3-0.5c0,0,0.3,0.1,0.4,0.1C482.6,245.2,482.4,245.3,482.3,245.5z"
			/>
		<path d="M498.3,265.6c-0.8,0-1.2,0-1-0.6C497.6,265.2,497.8,265.3,498.3,265.6z"/>
		<path d="M486.2,249.7c-0.3,0-0.5,0.1-0.7,0.1c0,0,0-0.1-0.1-0.2c0.1,0,0.3-0.1,0.4-0.1C485.9,249.5,486,249.6,486.2,249.7z"/>
		<path d="M486,249.5c0-0.5,0.4-0.3,0.7-0.3C486.7,249.7,486.3,249.4,486,249.5z"/>
		<path d="M473.6,249c-0.3,0.1-0.4,0.2-0.6,0.1c-0.1,0-0.2-0.2-0.2-0.3c0.1,0,0.2,0,0.3,0C473.3,248.9,473.4,248.9,473.6,249z"/>
		<path d="M462.3,261.3c0.1,0.1,0.2,0.1,0.3,0.2c-0.2,0.1-0.3,0.1-0.5,0.2c0,0-0.1-0.1-0.2-0.1C462.1,261.5,462.2,261.4,462.3,261.3
			z"/>
		<path d="M476.4,245.2c0,0.2,0,0.4,0,0.7c-0.1,0-0.1,0-0.2,0c0-0.2,0-0.4,0-0.7C476.3,245.2,476.3,245.2,476.4,245.2z"/>
		<path d="M470.5,257.4c0-0.5,0.4-0.3,0.7-0.3C471.2,257.6,470.8,257.4,470.5,257.4z"/>
		<path d="M486.1,256.1c-0.1-0.1-0.2-0.2-0.3-0.3c0.1,0,0.3-0.1,0.4-0.1c0.1,0,0.2,0.1,0.2,0.2C486.3,256,486.2,256.1,486.1,256.1z"
			/>
		<path d="M471.9,256.7c0,0.5-0.4,0.3-0.7,0.3C471.2,256.6,471.6,256.8,471.9,256.7z"/>
		<path d="M473.2,256.1c0,0.5-0.4,0.3-0.7,0.3C472.5,255.9,472.9,256.1,473.2,256.1z"/>
		<path d="M487,256.4c-0.3,0-0.6,0.2-0.7-0.3C486.6,256.1,487,255.9,487,256.4z"/>
		<path d="M471.9,256.7c0-0.5,0.4-0.3,0.7-0.3C472.5,256.9,472.1,256.7,471.9,256.7z"/>
		<path d="M487.7,256.7c-0.2,0-0.6,0.2-0.7-0.3C487.3,256.5,487.7,256.2,487.7,256.7z"/>
		<path d="M480.3,244.9c0,0.2,0,0.4,0,0.7c-0.1,0-0.1,0-0.2,0c0-0.2,0-0.4,0-0.7C480.2,244.9,480.3,244.9,480.3,244.9z"/>
		<path d="M488,279.4c0.1,0.2,0.2,0.4,0.3,0.6c0.2,0.8,0.6,1.5,1.5,1.8c0.1,0,0.2,0.3,0.2,0.4c0,0.1-0.2,0.2-0.2,0.3
			c-0.5-0.4-1-0.8-1.5-1.2C487.9,280.9,487.8,280.2,488,279.4z"/>
		<path d="M496.4,283.3c-0.1-2,0.1-2.7,1.2-3.2c-0.4,0.8-0.8,1.5-0.7,2.4C496.9,282.7,496.6,282.9,496.4,283.3z"/>
		<path d="M456.9,287.1c-0.2,0.3-0.2,0.5-0.2,0.9c-0.3,0.1-0.6,0.1-0.9,0.2c0,0.1,0,0.2,0,0.2c0.3,0.3,0.5,0.6,0.9,0.2
			c0.1-0.2,0.3-0.3,0.6-0.6c0,0.5,0,0.8,0.1,1.1c-0.8,0-1.5,0-2.2,0c-0.7-0.4,0.5-0.9-0.1-1.5c-0.2-0.2,0.6-0.9-0.5-1.5
			c1,0,1.4,0,1.9,0c0.2,0,0.5,0.2,0.7,0.3c0.1,0.1,0.2,0.5,0.1,0.5C457.1,287.1,456.9,287.1,456.9,287.1c-0.3-0.3-0.5-0.5-0.8-0.6
			C455.8,287.1,456.2,287.1,456.9,287.1z"/>
		<path d="M453.7,287.5c0-0.4,0-0.8,0-1.2c0-0.1,0.2-0.2,0.4-0.2c0.1,0,0.3,0.3,0.3,0.3c-0.6,0.8-0.2,1.8-0.4,2.8
			c-0.5-0.7-0.9-1.2-1.4-1.8c-0.3,0.6-0.2,1.1,0.1,1.7c-0.3,0-0.5,0-1,0c0.3-0.9,0.7-1.9,0-2.8C453,285.6,452.9,287.1,453.7,287.5z"
			/>
		<path d="M506,289.3c0.7-1,0.6-1.9,0-2.9c0.7,0,1.2,0,1.7,0c0.5,0,0.8,0.5,0.5,1c-0.3,0.6-0.2,1.1,0.2,1.6c0,0.1-0.1,0.3-0.2,0.4
			c-0.1,0.1-0.3,0-0.3,0c-0.2-0.3-0.4-0.6-0.6-0.9c-0.1-0.1-0.3,0-0.4,0c0,0.1,0,0.2,0,0.2C507.1,289.3,507.1,289.3,506,289.3z
			 M507.3,287.7c0.5-0.3,0.6-0.6,0-0.9c-0.2,0.1-0.3,0.3-0.5,0.4C507,287.4,507.1,287.6,507.3,287.7z"/>
		<path d="M510.2,286.4c0.8,0.7,0.9,1.7,1.2,2.6c0,0.1-0.1,0.3-0.2,0.4c-0.2-0.1-0.4-0.1-0.5-0.3c-0.2-0.2-0.3-0.4-0.5-0.8
			c-0.2,0.3-0.4,0.5-0.5,0.7c-0.1,0.1-0.3,0.2-0.4,0.3c-0.1-0.2-0.2-0.4-0.2-0.5C509.5,288.1,509.9,287.3,510.2,286.4z M510.4,288.1
			c0-0.2,0.1-0.3,0.1-0.5c0,0-0.1-0.1-0.2-0.1c0,0.1-0.1,0.3-0.1,0.4C510.1,287.9,510.3,288,510.4,288.1z"/>
		<path d="M504.8,289.4c-0.4,0-0.6,0-0.9,0c0.4-0.7,0.2-1.4,0.3-2.3c-0.3,0.1-0.5,0.2-0.7,0.2c-0.1,0-0.2-0.1-0.3-0.1
			c0.1-0.2,0.2-0.6,0.4-0.6c0.8-0.2,1.6-0.4,2.3,0.4c-0.3,0.1-0.6,0.1-1,0.2C504.8,287.9,504.8,288.6,504.8,289.4z"/>
		<path d="M499.6,286.2c0.3,0.3,0.5,0.4,0.7,0.5c-0.5,0.5-0.3,1.2-0.3,1.8c0,0.6-0.3,0.8-0.9,0.8c-0.7,0-1-0.2-1-0.9
			c-0.1-0.7-0.2-1.3-0.2-2c0.3,0,0.5,0,0.9,0c-0.1,0.5-0.2,1-0.3,1.5c0,0.6,0.3,1.1,0.7,1c0.4-0.1,0.7-0.5,0.6-1
			C499.5,287.5,499.6,287,499.6,286.2z"/>
		<path d="M502.7,288.4c0.1,0.2,0.3,0.4,0.4,0.6c-0.2,0.1-0.4,0.4-0.6,0.4c-0.5,0.1-1,0-1.6,0c0.2-1,0.4-1.9-0.1-2.9
			c0.4,0,0.7,0,1,0c0,0.1,0.1,0.4,0.1,0.4c-0.5,0.4-0.2,1-0.3,1.5c0,0.1,0,0.1,0,0.2c0.2,0.2,0.5,0.3,0.8,0.5
			C502.4,288.9,502.5,288.7,502.7,288.4z"/>
		<path d="M493.8,296.6c0.6,0.1,1,0.1,1.4,0.2c0.3,0.1,0.6,0.4,0.2,0.8c-0.2,0.2-0.3,0.3-0.7,0.1
			C494.4,297.5,494.1,297.3,493.8,296.6z"/>
		<path d="M495.6,296.5c0.3-0.1,0.7-0.3,1-0.4c0.1,0,0.3,0.1,0.3,0.1c0,0.1-0.1,0.4-0.2,0.4c-0.4,0-0.7,0-1.1,0
			C495.6,296.6,495.6,296.5,495.6,296.5z"/>
		<path d="M497.2,297.8c0.2-0.1,0.3-0.1,0.3-0.1c0.3,0.1,0.7-0.2,0.7,0.3c0,0.1,0,0.2-0.1,0.3c-0.4,0.2-0.5-0.1-0.8-0.3
			C497.3,297.9,497.3,297.8,497.2,297.8z"/>
		<path d="M498.6,297c-0.1-0.1-0.2-0.2-0.3-0.3c0.1,0,0.3-0.1,0.4-0.1c0.1,0,0.2,0.1,0.2,0.2C498.8,296.9,498.7,297,498.6,297z"/>
		<path d="M464.9,307.9c0-0.5,0.4-0.3,0.7-0.3C465.6,308,465.2,307.8,464.9,307.9z"/>
		<path d="M474.5,306.5c0-0.5,0.4-0.3,0.7-0.3C475.1,306.7,474.7,306.5,474.5,306.5z"/>
	</g>
</g>
<g>
</g>
<g>
</g>
<g>
</g>
<g>
</g>
<g>
</g>
<g>
</g>
<g>
</g>
<g>
</g>
<g>
</g>
<g>
</g>
<g>
</g>
<g>
</g>
<g>
</g>
<g>
</g>
<g>
</g>
</svg>
