<?xml version="1.0" encoding="utf-8"?>
<!-- Generator: Adobe Illustrator 20.1.0, SVG Export Plug-In . SVG Version: 6.00 Build 0)  -->
<svg version="1.1" id="Layer_1" xmlns="http://www.w3.org/2000/svg" xmlns:xlink="http://www.w3.org/1999/xlink" x="0px" y="0px"
	 viewBox="0 0 960 560" style="enable-background:new 0 0 960 560;" xml:space="preserve">
<g>
	<g>
		<path d="M218.6,284.3c0.5-0.4,1.5-0.8,1.5-1.3c0.1-2.7,0-5.4,0.1-8c0.1-3.3-0.4-6.6,1.4-9.9c1.4-2.6-1.3-6.3,1.7-8.9
			c-0.3-5.7,2.1-10.9,3.3-16.3c1.7-8.1,4.5-15.8,7.6-23.4c3.1-7.3,6.1-14.6,10-21.6c6.2-11.3,12.9-22.3,21.1-32.3
			c5.8-7,11.1-14.6,17.8-20.7c10.7-9.8,21.6-19.4,33.7-27.3c6-4,12.3-7.8,18.9-10.6c6.4-2.7,12-7,19-8.6c2.6-0.6,5.3-2.5,8.3-3.2
			c2.6-0.6,5-2.1,7.6-2.9c2.9-0.9,6.4-0.7,8.6-2.3c2.6-1.9,6.1,0.8,7.9-2.6c4.6-0.5,9.2-1,13.8-1.6c3.3-0.4,6.5-1.2,9.8-1.5
			c3.4-0.3,6.9-0.2,10.4-0.3c0.2,0,0.4-0.9,0.6-1.3c6.4,0,12.9,0,19.3,0c0.4,0.5,0.8,1.5,1.3,1.5c3.2,0.1,6.4,0,9.7,0.1
			c3.3,0.1,6.6-0.4,9.9,1.4c2.6,1.4,6.4-1.3,8.9,1.7c5.8-0.4,11,1.9,16.4,3.3c6,1.6,12.1,3.2,17.9,5.3c6.7,2.5,13.5,5.2,19.8,8.6
			c9.2,5,18.8,9.6,27.2,15.9c11.7,8.7,23.6,17.4,33.3,28.5c11,12.5,21.8,25.2,29.7,40c2.8,5.3,6,10.4,8.5,15.8
			c5.9,12.9,11.2,26,14.3,40.1c1.3,5.8,1.6,12,4.5,17.4c0.2,0.4,0.1,1.1,0,1.6c-1,5.1,1.8,9.7,1.7,14.6c-0.2,4.8,0,9.7,0,14.5
			c0,4.3,0.1,8.6,0,12.9c-0.3,6.5,0.2,12.9-1.3,19.5c-1.3,5.9-2.7,12-3.2,18c-1,11-5.3,21-8.6,31.2c-3.5,10.5-8.9,20.5-14.3,30.3
			c-5.8,10.4-12.7,20.2-20.2,29.6c-7.4,9.2-15.8,17.3-24.2,25.3c-8.5,8.1-17.9,15.2-28.2,21.2c-6.9,4-13.5,8.7-20.9,11.9
			c-12.5,5.5-25.1,10.8-38.6,13.9c-8.2,1.9-16.5,2.9-24.6,4.9c-8.5,2-16.8,1-25.2,1.3c-8.6,0.3-17.2,0.2-25.8,0
			c-2.5-0.1-4.9-1.1-7.4-1.5c-2.3-0.4-4.8,0.8-6.6-1.6c-6.3,0.7-12.1-1.6-18-3.3c-7.7-2.2-15.3-4.4-22.8-7.2c-6-2.2-12-4.9-17.6-8
			c-10.5-5.5-20.6-11.7-30.2-18.7c-12.9-9.4-24.4-20.3-34.9-32.1c-8.1-9.1-15.5-19.1-21.5-29.7c-4.5-7.9-9.2-15.8-12.7-24.5
			c-3.5-8.8-6.7-17.7-9.6-26.6c-1.8-5.7-3.8-11.5-4.2-17.6c-0.2-2.5-1.2-4.9-1.5-7.4c-0.3-2.3-0.8-4.4-1.4-6.7c-1-3.7-0.2-8-0.3-12
			c0-1.2,0.6-2.9-1.6-2.9C218.6,301.5,218.6,292.9,218.6,284.3z M225.4,301.3c0.4,0.7,1.3,1.6,1.2,2.5c-0.5,11.3,0.4,22.4,3.3,33.3
			c1.2,4.4,1.4,8.9,3.1,13.2c2.5,6.5,4.1,13.3,6.4,19.9c5,14,12,26.8,19.8,39.3c3.1,5,7,9.5,10.6,14.2c4,5.1,7.6,10.4,12.2,15
			c8.6,8.9,17.9,17,27.7,24.6c7.8,6.1,16.3,11.1,24.9,15.9c7.4,4.1,15.1,7.5,22.9,10.7c7.4,3,15,5.4,22.8,7.2c6,1.3,11.7,3.9,18,3.2
			c2.8,3.2,6.5,1,9.8,1.6c3.3,0.6,6.5,1.5,9.8,1.5c8.3,0.2,16.7,0.4,25,0c7.9-0.4,15.8-1.6,23.7-3c7.5-1.4,14.9-2.6,22.1-5
			c11.1-3.6,22.2-7.3,32.6-12.7c5.1-2.7,10.2-5.3,15.1-8.1c11.6-6.7,22.3-14.6,32-23.7c9.8-9.1,18.8-19.1,27.1-29.7
			c6.9-8.9,12.2-18.6,18-28.1c4.3-7.1,6.6-15,10-22.5c4.5-10,6.6-20.4,9.5-30.7c1-3.6,0.4-7.5,1.7-10.5c1.8-4.2,0.2-8.5,1.5-12.3
			c1.6-4.4,1.6-8.7,1.4-13.1c-0.5-10.8,1.6-21.7-1.4-32.4c-0.8-3,0.7-7-0.8-9.3c-2-3.1,1-7.2-2.6-9.5c0.1-3.1-0.8-6-1.4-9
			c-2.6-11.8-6.6-23.1-11.7-33.9c-6.2-13.1-12.7-26.1-22-37.7c-6.3-7.8-12.2-16-19.1-23.4c-6.2-6.7-13.8-11.9-20.8-17.8
			c-9.8-8.2-20.6-14.6-31.7-20.8c-5.7-3.2-11.5-5.8-17.6-8.1c-10-3.8-20.2-7.3-30.6-9.7c-1.9-0.4-3.8-1.3-5.8-1.5
			c-2.1-0.3-4.9,0.7-6.2-0.4c-2.8-2.2-5.9-0.2-8.3-1.4c-3-1.6-6-1.4-9.1-1.5c-4.6,0-9.1,0-13.7,0c-5.6,0-11.3-0.2-16.9,0.1
			c-5.4,0.3-10.8,1-16.3,1.6c-0.8,0.1-1.8,0-2.2,0.5c-1.8,2-4,0.7-6,1.1c-1.9,0.4-3.8,1.1-5.8,1.6c-3.7,0.8-7.4,1.4-11.1,2.4
			c-7.5,2-14.5,5.1-21.9,7.5c-3.9,1.3-8,3.1-11.5,5.2c-9.9,6-20.5,10.8-29.7,18c-5.1,4-10.6,7.5-15.1,12.1c-9.1,9.3-19,17.7-27,28.2
			c-7.3,9.5-14.1,19.2-19.8,29.7c-3.6,6.8-8.2,13.4-10.3,20.7c-2.8,9.6-7.7,18.6-8.5,28.7c-3.1,5.4-3.1,11.6-4.5,17.4
			c-1.5,6.3-1.5,12.9-1.8,19.4c-0.3,5.4,0,10.7-0.1,16.1C226.6,299.1,225.8,300.2,225.4,301.3z"/>
		<path d="M304,169.9c1.4-1.1,2.9-2.1,4.1-3.4c5.6-5.7,11.7-10.7,18.3-15.1c1.4-0.9,2.3-2.7,3.4-4.1c3.5,1.1,4.2-3.8,7.4-3.4
			c7.8-5.3,15.7-10.3,24.7-13.6c2.2-0.8,5.5-1,6.6-4c3.5,0.6,6.4-1.4,9.5-2.3c8.2-2.5,16.5-4.5,24.9-6.1c6-1.1,12.1-0.9,18.2-2.5
			c5.8-1.5,12.3-0.5,18.4-0.3c3.8,0.2,7.6,1,11.4,1.5c3.5,0.5,7.2-0.9,10.7,1.5c1.4,1,4.1,0.2,7.6,0.2c-2.4-1.5-3.8-2.1-4.8-3.2
			c-1-1.1-1.4-2.6-2.5-4.6c-1.2-7.4,1.5-13.3,9.9-16.5c1.7,1.1,3.8,2.1,5.5,3.5c5,4.5,5.4,10,0.9,14.8c-2.4,2.6-5.4,4.6-8.3,7
			c15.6,4,30.7,9,44.8,16.6c8.9,4.8,17.3,10.4,25.5,16.3c9.3,6.7,17.1,15.1,24.9,23.5c7.8,8.4,13.8,18.2,20.2,27.8
			c6.5,9.9,9.3,21.5,15.3,31.6c1,9.8,6,18.7,6.8,28.7c0.3,4.3,0.5,8.8,1.5,13c1,4.1,1.4,8.1,1.4,12.3c0,4.6,0.2,9.1-0.1,13.7
			c-0.2,3.6-1,7.1-1.5,10.6s1.4,7.4-1.6,10.6c0.7,6.3-1.6,12.1-3.3,18c-1.7,6-3.3,12.1-5.5,17.8c-2.6,6.7-6,13.1-8.9,19.7
			c-3.6,8.1-8.9,15.2-14,22.4c-5.6,7.8-12,15.2-18.8,22c-6.9,6.9-15.1,12.5-22.8,18.6c-10.6,8.4-22.7,14-34.7,19.6
			c-7.4,3.4-15.5,5.4-23.4,7.8c-6.6,1.9-13.5,1.8-19.8,4.6c-0.2,0.1-0.5,0-0.8,0c-10.6-0.4-21,3-31.6,1.5c-4.3-0.6-8.6-1.9-13.1-1.5
			c-4.4,0.3-8.5-2.8-13-1.6c-10.1-3.5-20.8-5.3-30.6-9.7c-6.3-2.8-13-5.1-18.9-8.7c-8.9-5.3-17.8-10.7-26-17.3
			c-9.6-7.8-18.2-16.4-26.3-25.5c-10.6-11.9-18.7-25.7-25.5-40.1c-4.6-9.7-7-20.2-11.2-30c0.4-8.1-4.7-15.4-3.3-23.6
			c-3-9.3-1.3-18.9-1.5-28.3c-0.1-4.1-1-8.2,1.1-12.4c1.8-3.6,0-8,1.7-12.2c1.4-3.3,0.1-7.7,3.6-10.6c-0.4-0.4-0.8-0.8-1.3-1.3
			c1.6-5.6,3.2-11.3,4.9-16.9c2.8-9.1,7-17.6,11.5-25.9c6-11.2,12.4-22.2,21.5-31.4C299.8,176.4,301.8,173,304,169.9z M427.1,420.5
			c-0.7,2.5-1.2,4-1.7,5.6c1.1,0.7,2.1,1.4,3.2,2.2c1.2-1.4,2.2-2.5,3.5-4c-1.8-1.3-3.1-2.3-5.8-2.8c0-1.5,0-3,0-4.6
			c-1.7,0-3.1,0-4.7,0c0.2,2.3,0.3,4.2,0.4,6.8C424,422.6,425.3,422,427.1,420.5z M435.9,419.8c0.4,3.7,0.6,5.9,1,9.3
			c2.2-2.1,3.4-3.2,5-4.8c-1.9-1.4-3.2-2.4-6-3.1c0-1.4,0-2.9,0-4.8c-2.3,0.1-4.2,0.2-7.7,0.4c2.4,2.7,4,4.4,5.4,5.9
			C434.9,422,435.5,421.6,435.9,419.8z M387.9,395.8c-0.1-1.2-0.2-2.2-0.3-3.1c-2.3,0-4.2,0-6.1,0c0,1.6,0,2.8,0,4.9
			c2.4-0.6,4.4-1.2,6.2-2c0.1,1,0.2,2,0.3,3.1c2.1,0,3.9,0,5.2,0c2.8-1.7,3.6-3.6,2.1-6.1c-2,1-3.9,2-5.9,2.9
			C389,395.7,388.4,395.6,387.9,395.8z M455.8,412.4c0,3.4,0,6,0,8.6c1.6,0,3,0,4.5,0c0-2.1,0-3.8,0-5.8c-1.2-0.8-2.5-1.6-4.7-2
			c-0.2-1.1-0.4-2.2-0.7-4.3c-2.5,2.1-4.1,3.6-5.7,4.9c0,1.6,0,2.9-0.9,3.8c-0.3,0.9-0.8,2.2-1.3,3.4c-0.3-0.3-0.6-0.5-0.9-0.8
			c0,1.8,0,3.5,0,5.2c1.4,0.7,2.7,1.3,4.5,2.2c0.7-1.7,1.5-3.4,2.2-5c-1.6-1.8-2.8-3.1-3.7-4.7c1.5,0,3,0,4.1,0
			C454.7,416.3,452.5,413.7,455.8,412.4z M401.8,345.6c2,2.7,3.5,4.6,4.8,6.7c1,1.5,2.1,1.8,3.5,0.8c1.5-4-1.9-5.4-3.8-7.5
			c-1.1,0-2.2,0,5.5,13.6c-2.4-2.5-3.9-4-5.4-5.6c-0.3,0.3-0.7,0.5-1,0.8c0.8,1.9,1.7,3.9,2.6,5.9
			C408.9,360,409.6,359.8,401.8,345.6z M457.4,459c-2.9-5.7-2.9-5.7-5.9-7c-0.6,4-0.5,4.3,1.8,8.1c0.4,0.6,1,1,1.6,1.4
			c0.8-0.8,1.6-1.6,1.2-7.9c0.5,0,1.5-0.1,2.6-0.2c0-2.1,0-3.9,0-5.2c-1.7-2.8-3.6-3.6-5.9-2.1C453.8,448.5,454.9,451,457.4,459z
			 M441.1,195.7c5.9,3.5,8.7,4.2,9.5,2.3c-0.8-0.8-1.5-1.6-2.2-2.3C445.9,195.7,443.5,195.7,441.1,195.7c-0.2-0.5-0.4-1.3-0.6-1.3
			c-5-0.2-10.1-0.3-15.1-0.2c-1.1,0-2.2,1.1-3.3,1.5c-1,0.3-2.3-0.1-3,0.5c-0.7,0.6-2.6,1-1.2,3.3
			C425,194.3,433.1,195.9,441.1,195.7z M337.1,366.5c-3.1-2.1-5.1-3.3-7.4-4.8c-1.3,0.1-3,0.2-5.2,0.3c1.6,1.7,2.6,2.8,3.4,3.5
			c-0.5,1.5-0.8,2.8-1.2,4.1C330.2,368.5,333.1,367.6,337.1,366.5z M407.1,456.8c0.7-2.6,1.3-5.1,2.1-8.1c-2.3,0.1-3.7,0.2-5.3,0.3
			c0.2,3,0.3,5.5,0.5,7.9c1.1,0,1.6,0,4.7-1.1c-2.3,2.4-3.9,4-5.7,5.9c1,1.9,1.8,3.5,2.6,4.9c2.9-1.4,5-3.1,5.8-5.6
			C410.9,459.4,410.3,458.1,407.1,456.8z M395,375.5c-1.3-1.7-2-3.2-3.2-4.1c-1.4-0.9-3.2-1.6-4.8-1.6c-1.4,0.1-2.7,1.3-4.1,2.1
			c3.5,3.8,7.1,5.1,9.8-0.7c2.6,0.7,5.1,1.3,8.1,2.1c-0.1-2.3-0.2-3.7-0.3-5.3c-3,0.2-5.5,0.3-7.9,0.5
			C392.7,369.6,392.7,370.1,395,375.5z M387.3,451.7c3.9-3.1,6.3-4.9,8.7-6.8c-2.3-1.4-4.2-2.7-6-3.8c-3.4,2.5-1.6,5.9,2.6,8.9
			c-4.5,1.2-5.8,4.5-7.2,5.7c0.7,2,1.2,3.6,1.9,5.6c2.3-2.6,3.8-4.2,5.3-6C392.6,454,392.6,452.4,387.3,451.7z M404,421.3
			c-0.7,1.6-1.5,3.1-2.2,4.7c-0.2,0.5-0.5,1-0.8,1.6c2.8,0,5.2,0,7.2,0c3.1-2.4,2.4-5.1,1.9-7.8c-1.3,0-2.1,0-2.9,0
			c1-1.9,2-3.9,3-5.9c-0.6-0.6-1.4-1.4-2.6-2.6c-1.6,0.6-3.4,1.3-5.7,2.2C403.3,416.3,400.7,419.4,404,421.3z M360.5,426.2
			c1.1-1.6,2.3-3.3,3.6-5.1c-1.7-2.3-3.4-3.9-5.5-2.9c-1.9,2.7-3.2,4.6-10.5,10.8c3.6-1.3,6.1-2.9,5.9-6.8c-1-0.5-2.1-1-2.9-1.3
			c2.1-1.7,4.2-3.4,6.2-5c-0.2-2.2-0.3-4-0.4-6.1c-4.3,1.1-5.7,5-8.8,6.7c-0.4-1.2-0.7-2.1-1.3-3.6c-1.9,0.7-3.8,1.3-5.3,1.8
			c0,2.7,0,4.7,0,6.9c2.2-0.7,3.9-1.3,5.6-1.9c0.3,0.3,0.5,0.7,0.8,1c-1.1,1.6-2.2,3.2-3.4,5c1.1,1,2.5,2.3,9.5-1.1
			c1.1,1.1,2.1,2.1,3.2,3.2c-1.6,1.4-3.5,2.6-4.7,4.3c-0.6,0.8-0.1,2.4-0.1,3.6c2.5,0,4.2,0,6.2,0c1.2-2,2.7-3.8,3.4-5.9
			C362.3,428.8,363.1,426.4,360.5,426.2z M392.8,411.7c-0.1-1-0.2-2-0.3-3.3c-1.2,0.1-2.1,0.2-3,0.3c0.1,1.1,0.1,1.8,0.2,2.7
			c1.1,0.1,2,0.2,14.2-6C397.6,403.9,396.3,409.7,392.8,411.7c-0.4,0.3-0.1,1.9-0.1,3.8c3.2-1.1,5.7-2,7.3-2.5
			C401.5,410.1,402.6,408,392.8,411.7z M344.2,410.7c1.5,2.1,3.9,0.5,5.6,0.7c1.5-1.4,2.8-2.6,4.3-3.9c-1.3-1-2.5-1.8-3.7-2.7
			c-2.2,2.1-4,3.8-6.7,5.6c0.7-1.9,1.2-3.2,1.8-4.7c-1.7-0.5-3.7-1.2-5.3-1.6c-1.5,0.6-2.6,1.1-3.7,1.5c-0.7,1.8-1.4,3.5-2.4,5.9
			C338.2,411.6,341.4,412.4,344.2,410.7z M333.1,385.9c-1.2-2.5-3.7-2.5-6.5-3.8c0.1,2.9,0.2,5,0.3,7c1.4,0,2.1,0,2.9,0
			c0,1,0,2,0,2.8c5.6,1.6,8.8-2.5,13-3.4c-0.2-1.1-0.3-1.6-0.4-2.6C339.4,385.9,336.2,385.9,333.1,385.9z M342.7,398.8
			c1.5-1.5,3-2.9,4.8-4.7c-5.1-0.2-10.2-1.1-14.4,4.1c0.1,1,0.2,2.4,0.3,4.2c3-0.8,5.4-1.4,7.8-2c3,1.8,6.6,2.3,8.1,0.8
			c0-0.6,0.1-1.4,0-2.1c-0.1-0.7-0.4-1.3-0.7-2C346.4,397.7,344.6,398.2,342.7,398.8z M391.1,357.2c-0.5,3.2,0.5,5.3,3,6.6
			c3,1.7,6,3.9,10.1,2c-4.1-3.4-8-6.6-10.8-8.9c-0.9-2.6-1.3-3.9-2.2-6.5c-1.6,2.9-2.4,4.4-3.2,6.1c1,0.3,1.7,0.4,4.7,7.1
			c-2-0.7-4-1.3-6.5-2.2c0.1,2.2,0.2,3.6,0.3,5.3c2.5-0.2,4.4-0.4,6.3-0.5C392.7,365.1,392.7,364.6,391.1,357.2z M362.8,431.5
			c7.1-2.1,7.5-2.4,7.2-5.2c-1.4-0.1-2.8-0.1-4.3-0.2c-0.2,1.1-0.3,1.9-0.6,2.6c-0.3,0.6-0.9,1.1,2.5,2.5c-2.5,1.8-4.7,3.4-6.8,5
			c0,2,0,4,0,6.3c2.9-1.1,6.1-1.4,7.7-3.1c1.8-1.9,2.3-5.1,3.6-8.2C370.2,431.3,369,431.3,362.8,431.5z M381.4,443.9
			c-1.6,2-3.2,4-4.8,6c-0.2,2.5,0.5,4.6,3.8,5.4c1.3-1.8,4-2.6,4.3-5.7c0.1-1.1,1.4-2.2,1.4-3.3c0-1.8-0.5-3.6-0.7-4.7
			c0.5-1.5,0.7-2.5,1-3.3c-2.1-1-3.8-1.8-5.4-2.6c-2.9,1.7,0.9,5.6-2.9,5.7c-0.3-2.8,0.7-6.7-0.7-11.2c-1.8,1.4-3,2.3-4.1,3.2
			c0,2.3,0,4.4,0,7.1c-0.9,0.8-2.2,1.7-3.5,2.8c0.3,2,0.6,3.9,1,6.2c3.9-1.7,5.2-4.8,7.3-7.1C378.3,444.7,380.2,443.7,381.4,443.9z
			 M523.3,374.6c2.2-0.6,3.5,0.8,4.7,2.3c0.9,1.2,1.4,2.7,2.4,3.8c0.3,0.4,1.4,0.2,2.4,0.3c0-2,0-3.8,0-6c-4.3-2.2-9.1-4.3-13.5-7.1
			c-1.8-1.2-3.6-1.8-5.1-1.2c-5.3,2.1-11.2,1.1-16.3,3.3c-2.9,1.3-7.7,0.1-8.4,4.7c1.8,1.8,3.3,3.3,5,5c-0.1-0.1-0.2-0.2-0.3-0.3
			c-0.4,0.4-0.9,0.7-1.3,1.1c0.2,0.2,0.3,0.3,0.5,0.5c0.4-0.4,0.7-0.9,1-1.5c1,0,2,0,3.8,0c-1.4,3.1-2.4,5.4-3.6,7.9
			c2.1,0.1,3.9,0.2,6.5,0.3c0.5,0.9,1.4,2.2,2,3.2c4.6-0.4,8.5,0.3,12.4-1.8c-2.7-0.8-5.5-1.6-8.4-2.5c0.4-1,0.6-1.7,0.9-2.3
			c5.2,0,10.3-0.1,15.4,0c2.2,0,3.9-0.5,4.6-2.8C526.3,379.2,524.8,376.9,523.3,374.6z M359,451.8c-0.1,0.1-0.2,0.2-0.3,0.3
			c0.4,0.4,0.7,0.9,1.1,1.3c0.2-0.2,0.3-0.3,0.5-0.5c-0.4-0.4-0.9-0.7-1-1.3c-1.7-1.7-3.4-3.3-5-5c-4.5-4.8-9.3-9.2-13.3-14.6
			c-3.5-4.7-6.4-9.7-9.5-14.6c-7.4-11.9-12.5-24.6-13-38.9c-0.1-4.6-0.1-9.1,0-13.7c0-1.8,0.7-3.6,0.9-5.2
			c0.5-5.2,3.7-10.3,1.9-15.5c-17.8,0-35.2,0-52.4,0c-0.9,1-1.6,1.8-1.9,2.2c7.3,23.2,18.2,43.9,33.7,62.1
			C316.9,427.4,335.8,442.4,359,451.8z M463.5,305.5c0.1-0.1,0.2-0.2,0.3-0.3c-0.4-0.4-0.7-0.9-1.1-1.3c-0.2,0.2-0.3,0.3-0.5,0.5
			c0.4,0.4,0.9,0.7,1.5,0.6c-0.4,2.9,0.8,4.4,3,5.2c3,1.1,6.1,3.1,9.1,3c5.1,0,10.1-1.3,15.1-2.1c3.4-0.6,6.9-1.5,10.4-2.2
			c4.3,0.9,1.7,5.3,3,7.8c4.9,0,9.5,0,14,0c4.6,0,9.1-0.3,13.7,0.1c4.3,0.3,9-1.5,13.1,1.3c0.6-0.5,1.4-1.1,2.2-1.7
			c1.1,0.7,1.9,1.2,2.5,1.6c0.8-0.7,1.6-1.4,2.2-1.9c-1.1-1.9-2.8-3.6-2.9-5.4c-0.3-3.6-2.6-5.9-4.2-8.8c-2.2-4.1-5.7-6.8-8.7-10
			c-2.3-2.5-4-5-5.1-8.4c-1.9-5.7-4.6-11.1-9-15.6c-4.4-4.6-7.9-10.1-11.8-15.2c-2.4-3.3-4.7-6.6-7.1-9.9c-0.3-0.4-0.7-0.9-1.1-1.1
			c-8-3.7-11.6-11.9-17.5-17.6c-1.7-6.4-7.6-8.4-12.5-10.3c-8.6-3.3-17-7-25.5-10.3c-7.5-2.9-14.4-4.5-22-0.3
			c-2.7,1.5-6,2.7-9.5,2.4c-1.6-0.1-3.2,1.1-5.1,1.7c2.9,2.6,2.1,5.1,1.6,7.7c-5.8,3.4-11.3,7.6-18.7,2.7c0,2.1,0,3.4,0,4.9
			c4.6,6,12,6,18.8,8c7,2.1,12.3-2,18.8-2.7c2.2-1.1,3.1-4.7,7.1-4.7c-1.1,2.2-2,4-3,6.3c2.3,1.6,4.7,3.5,7.4,5
			c3.2,1.8,6.7,3.2,10,4.9c1.1,0.6,2.8,1.2,3,2.1c1.1,3.9,4.8,5.5,6.9,8.6c0,6.8,0,13.8,0,20.2c1.6,3.1,3,5.8,4.8,9.3
			c-0.5,4.2-1,9.3-1.6,14.4c-0.7,5.2,3.9,9.3,3.1,15C466.5,307.3,465.2,306.1,463.5,305.5z M430.8,191.1c1.7-0.8,3.5-1.7,5.2-2.5
			c0.2-1.4,0.5-2.8,0.7-4c4.3,1.5,2,5.3,3.2,7.6c4.6,0.3,8.9,0.7,12.4,4.1c0.1,1.7,0.2,3.6,0.2,5.3c6.2,2.5,12.2,4.9,18.2,7.2
			c6.3,2.4,13,5.6,16.7,11.7c1.4,2.3,3.2,4,4.7,6.1c1.6,2,2.8,4.4,4.6,6.1c8.3,7.7,15.6,16.3,22.2,25.5c3.1,4.4,6.8,8.4,9.6,13
			c2.7,4.4,4.7,9.3,8,15.9c8.8,6.3,15,17.1,19.3,29.2c2.3,0.6,4.4,1.7,6.6,1.8c13.1,0.2,26.2,0.1,39.1,0.1c3-5.6,2.4-11.4,2.4-17.1
			c0-6.4,0-12.9,0-19.3c0-1.3,0.5-3.1-0.1-4c-1.9-2.6-1.2-5.5-1.6-8.3c-0.3-2.8-0.9-5.5-1.6-8.2c-1.4-5.9-2.8-11.7-4.3-17.6
			c-1.4-5.8-4.6-11.1-6.6-16.6c-3.9-10.7-9.5-20.4-15.7-29.8c-3.8-5.8-9-10.8-12.8-16.5c-6.4-9.7-16-15.9-24.2-23.5
			c-4.9-4.5-11.1-7.7-17-11.2c-9.9-5.9-20.2-11-30.9-14.8c-8.7-3.1-17.6-6.3-27.1-6.6c-4.3-2.8-9.7-0.1-13.7-1.9
			c-5.1-2.3-9.9-0.8-14.8-1.2c-5-0.3-10.2-0.4-14.9,0.8c-5,1.3-10.1,0.6-15.2,1.9c-5.3,1.4-10.9,2.2-16.3,3.6
			c-10.4,2.7-20.3,6.7-29.9,11.3c-4.9,2.4-9.8,5-14.4,8.1c-6.8,4.5-13.4,9.3-19.9,14.2c-3.7,2.8-6.1,7.4-10.8,9.1
			c-1.6,5.2-6.9,7.2-9.6,11.3c-3,4.5-6.9,8.2-9.9,12.7c-2.9,4.4-5.4,9.2-8.5,13.4c-3.4,4.6-5.5,9.6-7.7,14.6
			c-2.1,5-4.7,9.8-6.4,15.1c-1.9,6-2.9,12.3-5,18.1c-2.7,7.6-3.5,15.4-4.2,23.1c-1.1,11.7-0.3,23.6-0.3,35.2c3,2.3,6.3,2.4,9.7,2.4
			c22.8-0.1,45.6,0,68,0c2.6-1.9,4.9-3.6,7.2-5.1c9.2-5.8,19.4-9.1,30.1-10.9c3.2-0.5,6.3-0.4,8.9-3c-5.8-4.4-9.5-9.7-7.8-16.9
			c1.3-2.5,2.3-4.5,3.2-6.3c-3.5-5.9-8.8-10.9-6-19.1c1.2-1.9,2.9-4.4,4.8-7.3c-4.9-6.9-6.8-14.4-4.8-24.2c1.7-1.7,4.2-4.7,7.1-7
			c1.4-1.1,4.2-0.7,5.6-1.9c1.3-1.2,2.3-2.7,4-3.8c3-2,6.3-1.8,9.3-2.9c5.1-1.8,9.9-4.6,15.2-6.8c0-1.7,0-3.5,0-5.7
			c2.3-1.1,4.5-2.8,6.8-3.1c2.9-0.5,3.9-1.6,4.5-4.3c0.9-3.8,2.6-4.8,7.4-4.9c-2.6,1.9-4.4,3.3-6.3,4.6
			C429.1,189.3,429.8,190.1,430.8,191.1z M549.1,408.4c0.8-4.9,1.4-9.2,2.2-14.1c-1.4-1-2.7-1.9-3.5-2.4
			c-0.7-10.6-4.1-19.5-10.8-26.8c-3.1-3.5-7-6.2-10.6-9.2c-5.9-4.9-12.5-8.3-19.9-10.3c-0.7-0.2-1.5,0.2-1.7,0.2
			c-1,2.4-1.9,4.5-2.8,6.7c-4-0.6-7.4-1.2-11.7-1.9c3.1,5.3,5.7,9.8,8.4,14.4c4.8-0.6,9.8-2.1,14.5-1.5c4.5,0.6,8.9,3,13.1,5.1
			c4.1,2.1,8.6,4,10,9.2c-1,2-2,4.1-3,6.3c4.5,0.5,4.9-5.4,9.3-4.6c-0.6,1.4-1.1,2.6-1.6,3.9c1.4,0.6,2.4,1.1,3.6,1.7
			c-4,2.1-7.8,3-12.3,3.2c-1.1,1.2-2.6,2.8-3.6,3.8c-4.8,0.4-8.6-1-11.7,1.9c-2.6-2.1-5.2-2.4-8-1.1c0,3.8,0,7.6,0,11.3
			c0.1,6.2-1.4,12.2-3.3,17.9c-1.6,4.7-4,9.1-6.4,13.4c-3.4,6.4-8,12.2-13.2,16.9c-3.6,3.2-7.1,6.7-12,10.6c2.2,0,3.3,0.3,4.2,0
			c8.9-3.2,18-5.8,26.5-9.8c13.3-6.3,25.9-13.9,36.8-23.8c11.3-10.2,22.7-20.7,30.8-33.9c4.3-7.1,9.8-13.4,13.2-21.1
			c3.4-7.5,7-14.8,9-22.9c0.5-2.1,2.9-3.9,0.7-6.3c-16.1,0-32.2,0-48.3,0c-0.2,0-0.4,0.3-0.6,0.5c-0.1,0.2-0.2,0.5-0.5,1.2
			c3.6,4.9,6.6,10.6,12.3,12.8c0.9,3.4,1.5,6.1,2.5,8.7c0.8,2.3,2,4.5,3.1,6.7c-3.5,2.6-0.1,5,0,7.6c0.1,2.7-0.7,5.5-1,8.2
			c0.5,1.5,1,3.2,1.5,4.7c-4.4,3.5-3.9,10.2-9.8,12.4C552.9,408.4,551.3,408.4,549.1,408.4z M353.3,347.1c-1.7,5.6-3.5,9.8-4,14
			c-1.4,12.1,0.2,23,5.2,33.9c4.6,9.9,11.4,18.4,19.3,25.7c4.6,4.2,10.3,7.3,15.5,10.9c2.9,2,5.7,4.6,8.9,5.5
			c5.5,1.5,10.5,4.5,16.5,4.9c0.2-0.7,0.3-1.4,0.5-2.1c-27.3-12.5-21.3-9.5-31.1-21.7c-8-10-12.2-22-12.5-34.9
			c-0.3-13.3,6.5-24.4,13.7-36.3c-5.8,0.9-10.6,1.3-15.2,2.4c-6.3,1.6-10.7,2.4-14.2,1.9C355.4,350.2,354.8,349.3,353.3,347.1z
			 M265.7,340.5c29.7,0,58.8,0,87.7,0c0.8-0.8,1.3-1.3,1.8-1.8c0-6.4,0-12.7,0-18.8c-31.1,0-61.9,0-92.7,0
			C260.8,327.3,264.6,333.5,265.7,340.5z M504.3,321.1c0,7.1,0,13.9,0,21c30.7,0,61.6,0,93,0c1.5-6.1,3-12.5,4.5-18.7
			c-0.7-0.7-1.1-1.4-1.5-1.4C568.5,321.7,536.6,321.4,504.3,321.1z M359.1,348.8c4.3-0.7,8.3-1.1,12.2-2.1
			c7.4-1.9,14.8-3.4,22.3-4.5c4.2-0.6,8.7-0.6,12-3.7c0-6.7,0-13.1,0-19.6c-0.8-0.8-1.5-1.5-1.7-1.7c-6.8-1.9-13.2-2.2-19.4-3.7
			c-4.1-1-8.4-3.1-13-1.8c-4.1-2.8-8.4-1.4-12.4-1.4C359.1,323.5,359.1,336,359.1,348.8z M500.5,311.4c-13.9,3.5-27.6,4.5-41.7,7.3
			c-1.4,1-3.3,2.4-5.5,3.9c1,1.4,1.6,2.2,2.4,3.3c-4.1,4.6-0.7,9.4,0.2,14.9c14.6,2.7,29.2,6.8,44.6,8.3
			C500.5,336.4,500.5,324.4,500.5,311.4z M375,231.7c0.6,0.9,1.5,1.8,1.5,2.6c0,7.3,4.1,11,10.7,13c4.3,1.3,8.4,3.1,12.6,4.5
			c4,1.3,8.4,1.5,12.2,3.5c7.9-1.2,15.5,3.1,23.2,1.4c2-1.4,3.9-2.6,5.7-3.9c1-3.9,2-7.9,3-12c-1.6-1-3.4-1.6-4.6-2.8
			c-3-2.9-6.5-4.1-10.6-3.7c-7.3,0.6-14.7-1.5-21.8,1.6c-0.8-0.6-1.7-1.1-2.8-1.9c-0.8,0.5-1.6,1.1-2.5,1.7c-2.8-3.1-7-0.2-10-1.8
			c-0.5-3.3-0.5-6.4-1.4-9.3c-0.9-2.8-0.4-7.4-6-6.3C379.7,221.4,376.3,225.4,375,231.7z M382.6,250.1c-1,1-1.6,1.5-2.1,2.2
			c-5.5,6.2-5.3,10.7,0.7,16.6c2.4,2.4,5.2,3.7,8.7,4.4c11.7,2.4,23.1,6.2,35.1,6.4c0.7,0,1.3,0.9,2,1c1.2,0.3,3.3,0.9,3.6,0.3
			c1.9-2.8,5.2-0.3,6-1.1c3.8-5.7,6.8-10.2,6-15.3c-1.6-1.8-2.8-3.2-3.7-4.3c-7.4-0.8-14.4-0.3-21.5-1.4c-7.1-1.1-13.9-2.3-20.5-5
			C392.2,252.1,387.2,251.3,382.6,250.1z M382.5,292.7c3.6,3.1,7.7,2.2,11.3,3.3c7.8,2.4,15.9,3.1,23.9,4.4c1.6,0.3,3.7-0.6,4.7,0.1
			c5.2,3.6,8.6,0.4,12.5-2.7c0-2.3,0-4.6,0-7.1c0.7,0.4,1.1,0.7,1.4,0.9c0.2,0.2,0.4,0.4,0.6,0.5c0.1,0.1,0.4-0.2,0.7-0.3
			c0.6-2.9,0.7-5.6-1.7-7.2c-5.7-0.7-10.8-1.5-16-2c-5.1-0.4-9.9-2-14.9-2.8c-7.7-1.2-15.1-5.5-23.3-3.2
			C378.9,282.1,378.8,287.4,382.5,292.7z M418.3,409.8c4.5,0,7.9,0,11.4,0c0-19.2,0-38.2,0-56.9c-4.8-3.3-10.2-4.3-16.1-5.6
			c0.9,8.3-1,16.2,1.5,24.4c1.3,4.4,0,9.6,0.3,14.4c0.3,4.9,1,9.8,1.6,14.6C417.3,403.6,417.8,406.6,418.3,409.8z M451,362.2
			c-4.1,2.3-0.9,7-3.1,10.6c-1.7,2.7-0.1,7.3-0.4,11c-0.3,3.8-1.3,7.6-1.5,11.4c-0.2,3.9-0.5,7.8,0.4,12.3
			c10.5-5.2,18.5-12.1,23.6-20.9C466.6,375.6,462.8,366,451,362.2z M386.4,305.5c3.2,5.3,7.7,5.8,12.4,6.7c4.2,0.9,8.4,1.9,12.5,3
			c4.4,1.1,8.7,1.3,13,1.4c1.6-3,3.4-5.9,1.5-10.3c-12-3.8-24.7-6.2-37.9-5.8c-0.5,0-0.9,0.4-1.5,0.6
			C386.4,302.6,386.4,304.2,386.4,305.5z M412.8,324.5c-1,3.1-2.2,5.2-2.2,7.3c0.1,2.4,1.3,4.7,2,7.1c4.9,1.7,9.7,3.4,14.8,5.2
			c0.7-0.8,1.3-1.6,2.3-2.8c0-3.4,0-7.4,0-11.7C424.6,326.3,418.8,325,412.8,324.5z M448.8,338.6c0-4.3,0-8.2,0-12.3
			c-6.2-0.3-12.1-0.5-17.7,3.9c1.7,4.3-2.3,9.6,2.5,13.5C438.3,341.1,444.5,343,448.8,338.6z M418.5,431.7c0,3.9-0.3,7.7,0.1,11.4
			c0.3,3.5,1.3,6.9,2.1,10.5c3.1-0.3,6.6,1.3,9-2.3c0-6.4,0-13.1,0-19.6c-1-0.9-2-1.8-2.9-2.6C423.9,430,421.5,430.7,418.5,431.7z
			 M411,369.4c-4.3,2.3-3.7,7.9-7.1,10.9c1.3,4.6-1.2,9.5,1.6,14.5c4.6,8.4,4.2,8.6,8.7,11.9c-0.8-12.5-1.6-24.4-2.4-36.4
			C411.8,370.1,411.4,369.9,411,369.4z M465.2,110.9c2.1,2,3.6,5.4,7.5,3.9c2.5-4.8,5-9.5,3.4-15.4c-0.5-0.5-1.2-1.6-2.1-2
			c-0.9-0.4-2.1-0.1-3.2-0.1C466.8,101.6,465.6,104.4,465.2,110.9z M407.5,319.9c0,7.4,0,14.8,0,21.9c3,1.3,5.7,3.1,8.5,3.6
			c5.5,0.9,10.4,4.5,16.3,3.4c3-0.5,6.3-0.4,8.9-1.8c4.1-2.1,9.8-0.8,12.6-5.6c-0.7-0.8-1.5-1.5-2.4-2.5c-0.4,1.1-0.7,2-1,2.8
			c-5.3,1.6-10.6,3.2-15.9,4.6c-1.7,0.5-4,1.4-5.2,0.7c-6.4-3.5-14.2-3-20.6-7.2c0.6-6.5-1.1-13.2,1.2-19.9
			C409.2,319.9,408.5,319.9,407.5,319.9z M394.9,464.6c1.3-0.6,2.8-1.1,3.9-2c1.4-1.1,2.6-2.5,3.5-3.4c0-2.1,0-3.4,0-4.7
			c0-0.2-0.3-0.4-0.5-0.6c-0.9-0.3-1.8-0.6-2.8-0.9c2.3-4.7,2.4-7-0.6-7.6c-1.1,1.4-2.5,3.2-4.4,5.6c0.3,1.3,0.8,3.4,1.3,5.4
			c-0.9,1.5-1.7,3.1-2.4,4.4C393.7,462.1,394.3,463.4,394.9,464.6z M408.5,209c-5.9,1.7-12.2,1.6-17.3,5.3c0.8,0.8,1.5,1.5,2.3,2.3
			c3.7,0,7.4,0,9.8,0c2.6-2.6,4.5-4.5,6.4-6.5C409.5,210,408.9,209.4,408.5,209z M480.9,440.3c2.9-2,1.9-4.6,1.9-6.8
			c0-0.3-1.3-0.7-2-0.8c-0.9,0-1.9,0.2-3.4,0.5c0.9,2.4,1.6,4.3,1.9,5.4c-0.6,3.1-1.1,5.5-1.5,7.4c1.2,1.3,1.9,2.1,2.4,2.7
			c1.5-0.8,2.8-1.4,4.1-2.1c0-1.8,0-3.6,0-5.4C483.4,440.9,482.7,440.7,480.9,440.3z M403.7,353.8c-1.2-1-3-2.5-4.7-3.9
			c0.8-0.9,1.3-1.4,1.7-2c-0.8-0.8-1.6-1.6-2.4-2.4c-0.7,0.8-1.4,1.5-2.2,2.5c0,2.1,0,4.4,0,7.2c2.3,1.2,4.7,2.4,7.6,3.9
			C403.7,357.1,403.7,355.9,403.7,353.8z M495.2,414.3c-2.7,0.8-5.1,1.4-7.7,2.1c1.6,2.6,2.7,4.5,3.9,6.6c2.2-0.2,4.1-0.4,6.7-0.6
			C497.1,419.7,496.4,417.6,495.2,414.3z M382.4,381.8c3.1,1,5.5,1.8,7.9,2.4c2.9,0.7,4.8-1.3,8.3-2.7c-4-1.6-6.8-2.7-9.5-3.7
			C387.1,379,385.2,380.1,382.4,381.8z M480.7,371.3c2.6-2.1,4-3.1,5.3-4.2c-1.8-3-4.5-2.2-7.1-2.1c-0.9,0.9-2.1,1.8-2.8,2.9
			c-0.7,1.1-2.8,1.4-2.2,3.4C476.6,371.3,479.3,371.3,480.7,371.3z M466.8,363c4.3,0,6.6,0,9.4,0c1-1.2,2.3-2.8,3.5-4.5
			c0.1-0.2,0-0.5,0-1.4c-2.5-0.1-5-0.2-7.3-0.3C470.8,358.6,469.4,360.1,466.8,363z M330.6,370.7c4,4.5,7.6,4.3,11.4,2.2
			c0.4-0.2,0.5-0.8,1-1.8c-0.9-0.9-1.9-2-2.9-3.2C337,368.8,334.2,369.6,330.6,370.7z M448.3,321.3c-3.5,0.4-7-0.1-10.6,1.4
			c-3.2,1.4-7.4-0.2-11,1c8.8,2.3,17.1-1.3,26-1.2c-0.5-1.4-0.7-2.1-0.9-2.8c-0.7,0-1.3-0.2-1.7,0
			C449.4,320.2,448.9,320.8,448.3,321.3z M416.1,467c5.7-2.7,3.9-6.5,3.7-10.5c-4.7,1-4.7,4.8-5.6,6.2
			C415,464.6,415.6,465.9,416.1,467z M494.6,407.1c0.2,4.8,1,6.2,3.7,6.2c2.7,0,3.6-1.3,3.8-6.2
			C499.6,407.1,497.1,407.1,494.6,407.1z M426.1,468.6c2.1-3.2,3.9-6.1,6.4-9.9c-2.5-0.1-4-0.2-5.5-0.3c-1.4,2.4-2.6,4.6-3.9,6.8
			C423.9,466.1,424.6,466.9,426.1,468.6z M340.7,382.8c0.3-0.5,0.5-1.1,0.8-1.6c-0.9-1.1-1.9-2.3-2.5-3.1c-2.7,0-5,0-7.3,0
			c0.2,0.3,0.5,0.6,0.7,0.9c-0.9,0.3-1.9,0.7-2.7,1C333.2,384.4,337.2,381.9,340.7,382.8z M472.5,444.7c-0.6,0.3-1.1,0.5-1.7,0.8
			c-0.8,2.4-1.6,4.7-2.4,7.3c1.1,0.9,2.2,1.9,3.5,2.9c1.2-1.3,2.1-2.2,2.9-3.1c0-1.6,0-3.2,0-4.8c-0.3,0.3-0.6,0.5-0.9,0.8
			C473.5,447.3,473,446,472.5,444.7z M334,350.6c1.1,1.2,2.5,2.6,4.1,4.4c1.5,0,3.8,0,6.4,0c-0.1-1.7-0.3-3.2-0.3-4.4
			C340.2,350.6,336.8,350.6,334,350.6z M558.1,370.2c-0.4-0.5-1.1-1.3-1.5-1.7c-3.2,2.4-6.2,4.7-9.2,7c-0.3,0.2,0,1,0,2
			c1.2,0.1,2.4,0.3,3.1,0.3C553.3,375.1,555.8,372.6,558.1,370.2z M437.4,457.2c-1.7,1.4-3.2,2.5-4.5,3.5c0.7,4,0.7,4,4.2,5.8
			C438,463.4,442,460.4,437.4,457.2z M455.9,345.4c0,2.8,0,4.6,0,6.5c2.8-1.5,5.4-2.8,8.5-4.3c-1.2-1.5-2.2-2.6-3.4-4.1
			C459.2,344.2,457.6,344.8,455.9,345.4z M482.9,424.9c-0.1,3.5,2.8,4.3,4.2,6.2c1.5-0.2,2.7-0.3,4.6-0.5c-0.9-2.4-1.6-4.2-2.2-5.7
			C486.9,424.9,485,424.9,482.9,424.9z M466.6,451.4c0-2.2,0-4.8,0-7.2c-1.2-0.8-2.2-1.6-3.4-2.4c-1.2,1.5-2.2,2.6-3.1,3.6
			C462.5,447.6,464.6,449.5,466.6,451.4z M556.1,365.1c-0.7-1.4-1.2-2.4-1.9-3.4c-0.1-0.2-0.9,0.2-1.8,0.3c0.1,3.6-0.8,6.7-5.6,6.2
			c-0.8-0.1-1.7,1.5-3.4,3C549.4,371.7,552.6,369,556.1,365.1z M395.9,388.3c-0.8-0.8-1.3-1.3-1.9-1.9c-0.2-0.2-0.4-0.3-0.6-0.5
			c-4.3,0.8-5.8,1.7-8.4,5C388.7,390,392.7,392.4,395.9,388.3z M465.6,351c-0.6,1.5-1.1,2.8-1.7,4.1c1.2,0.8,2.3,1.5,3.5,2.3
			c1.7-2,3.2-3.7,4.6-5.3c-1.1-1.4-1.8-2.3-2.4-3C467.9,349.9,466.6,350.5,465.6,351z M418.7,417.2c-1.6-1.2-2.6-2-3.5-2.6
			c-4,2.2-3.5,5.2-2.8,8.2C417,423.5,416.1,418.8,418.7,417.2z M482.6,352.8c-2.1-1.4-4.1-2.8-6.6-4.5c-1.1,2.1-2,4.1-3,6
			C476.9,357,479.4,352.3,482.6,352.8z M490,439.4c0.9-1.2,2-2.4,2.9-3.5c-1.7-3-3.6-4.2-6.5-2.7C485.7,436.1,486.5,438.1,490,439.4
			z M328.1,348.9c3.4,1.7,5.7-0.9,8.7-0.4c-1.2-3.8-3.1-5.1-6.2-4.5C329.9,345.3,329.2,346.7,328.1,348.9z M446.4,452.6
			c-1.5,3.4-2.8,5.8-3.6,8.3c-0.2,0.7,0.8,1.8,2,4.1C446.1,460.3,448.9,457.7,446.4,452.6z M400.9,417c-0.5-0.3-1-0.5-1.5-0.8
			c-2.3,1.4-4.5,2.8-8.5,5.2c3,0,4-0.2,4.9,0c1,0.2,2,0.8,3.8,1.6C400.1,420.7,400.5,418.8,400.9,417z M445.8,417.1
			c-2.9-1.9-2.9-1.9-6.3-1.4c0.5,3.4,0.5,3.4,3.8,5.9C444.1,420.1,444.9,418.7,445.8,417.1z M349.2,346.9c-2.4-4.7-6.2-2.3-9.5-3.1
			c0,1.4,0,2.1,0,3.1C342.8,346.9,345.8,346.9,349.2,346.9z M463.4,413.9c0-2.9,0-4.8,0-7.2c-1.7,0.1-3.1,0.2-4.6,0.3
			C459.3,411.1,459.3,411.1,463.4,413.9z M465.1,458.4c0.5-3.7-0.2-6-4.3-6.6c0,2.4,0,4.5,0,6.6
			C462.3,458.4,463.4,458.4,465.1,458.4z M552,383.7c2-2,3.3-3.2,4.5-4.6c1.2-1.4,3-2.4,3.1-4.6c-1.8,0.6-3.1,1.7-4.4,2.7
			c-1.5,1.1-3.1,2.2-4.8,3.4C550.8,381.5,551.2,382.1,552,383.7z M475.3,435.1c-3-4.3-3-4.3-7.1-2.7
			C469.6,435.2,471.3,436.9,475.3,435.1z M338.5,357.1c-0.2,0.2-0.5,0.8-0.9,0.9c-1.4,0.4-2.8,0.7-4.4,1c0,0.8,0,1.5,0,2.9
			c3-0.6,5.8-1.2,8.6-1.8c0.3-0.1,0.5-0.6,0.7-0.9C341.2,358.4,339.9,357.8,338.5,357.1z M479.3,418.2c2.2,3,4.1,3.9,6.9,2.5
			c-0.1-1.3-0.1-2.7-0.3-4.9C483.5,416.7,481.7,417.3,479.3,418.2z M489.7,363.1c-2.7-2.6-4-3.8-5.8-5.5c-1.2,2.1-2,3.5-3.1,5.5
			C483.6,363.1,485.5,363.1,489.7,363.1z M481.6,395.1c-2.3-4.3-2.3-4.3-6.9-3.6C475.5,395,477.5,396.1,481.6,395.1z M500.4,404.8
			c-2.1-2.2-3.3-3.6-4.8-5.1c-1.3,1.4-2.2,2.2-3,3.2c-0.2,0.3,0,1,0,1.9C494.6,404.8,496.6,404.8,500.4,404.8z M465.1,401.4
			c0.3,5.3,3.9,5.2,6.4,7.2c0-1.6,0-2.9,0-4.5C469.8,403.4,467.9,402.6,465.1,401.4z M535,346.1c-5.6-0.4-5.6-0.4-6.7,3.9
			C531.7,351.2,533.6,349.9,535,346.1z M470.6,437.7c-0.2,4.8,1.3,7.1,4.1,5.8c0-1.1,0-2.3,0-3.8C473.5,439.1,472,438.4,470.6,437.7
			z M453.8,436.4c-3.3,0.8-7,0.3-9.8,4C448.6,441.4,451.2,438.9,453.8,436.4z M482.3,428.2c-1.8-1.7-3.2-2.9-3.1-2.9
			c-2.1,0.7-3.3,1.1-4.4,1.4C476.8,429.3,478.6,430.3,482.3,428.2z M389.8,400c-1.4,1.1-2.7,2.2-4,3.3c-2.4,2.1,1,2.2,1.2,3.8
			c1.7-1.9,3.1-3.6,4.5-5.2C390.8,401.2,390.5,400.8,389.8,400z M489.3,387.2c-2-4.3-5-2.6-7.8-3c0,1.3,0,2,0,3
			C484.1,387.2,486.6,387.2,489.3,387.2z M551.2,388.8c0.2,0.2,0.4,0.5,0.6,0.7c2.8-2.1,5.5-4.2,8.9-6.7c-1.9-0.1-2.9-0.1-3.3-0.2
			C555.1,384.9,553.1,386.8,551.2,388.8z M327.3,379.6c1.5-1.5,2.8-2.8,4.1-4.1c-1.7-2.1-3.5-3.7-5.9-1.9
			C326.1,375.5,326.5,377.1,327.3,379.6z M540.4,349.2c-5.5,0-5.6,0.2-5.3,5.3C536.7,353,538.5,351.1,540.4,349.2z M483.2,382.1
			c5.5,0.2,7.8-0.7,7.5-2.3c-0.7-0.7-1.4-1.3-1.9-1.8c-1,0.5-1.9,0.9-2.7,1.4C485.4,379.9,484.8,380.6,483.2,382.1z M470.7,397.4
			c1.7,3,2.6,5,5.9,4.4c-0.1-1.8-0.2-3.2-0.3-4.4C474.5,397.4,473.3,397.4,470.7,397.4z M465.5,416c1.4-1.3,2.8-2.6,4.4-4.1
			c-1.1-0.6-2.5-1.3-4.4-2.3C465.5,412.3,465.5,414.3,465.5,416z M494.1,410.5c-3.6,0-5.8,0-8.1,0c0.2,1.2,0.4,1.9,0.5,2.6
			C488.8,412.9,491.2,414.4,494.1,410.5z M411.2,456.2c1.7,0.3,2.6,0.5,3.8,0.7c0-2.4,0-4.3,0-6.3c-0.3-0.1-0.6-0.2-0.9-0.3
			C413.2,452.1,412.3,453.9,411.2,456.2z M421.5,427.9c-1.9-2.5-2.8-3.7-4-5.3c-1.1,1.8-1.8,3-3,4.9
			C416.7,427.7,418.1,427.7,421.5,427.9z M452.3,462.1c-0.8-0.2-1.7-0.3-2.6-0.5c-0.7,1.8-1.3,3.2-2.1,5c1.8-0.2,3.3-0.3,4.6-0.4
			C452.3,464.5,452.3,463.5,452.3,462.1z M397.1,397.7c-1.5,3.3-5.3,3.8-3.6,8.6C394.4,403,398.2,402.5,397.1,397.7z M554,397
			c2.7,0.4,4.9,0.3,6.3-3C557.5,393.7,555.3,393.7,554,397z M379.2,390.2c3.6-1.6,5.8-2.3,5.3-5.6c-0.8-0.2-1.5-0.3-2.2-0.4
			C381.5,385.7,380.8,387.1,379.2,390.2z M542.1,353.9c-2.4,2.3-2.4,2.3-2.2,5.9C542.3,357.4,542.3,357.4,542.1,353.9z M443,398
			c-4.1-0.6-4.1-0.6-6.8,3C438.9,399.8,440.8,399,443,398z M447.6,450.9c1.6-0.7,2.4-1,3.1-1.3c0.2-2.6-1.2-3.3-3.1-3.6
			C447.6,447.3,447.6,448.6,447.6,450.9z M327.3,353.8c2,1.7,3.1,2.6,4.9,4c0.4-1.8,0.7-2.8,1-4
			C331.3,353.8,330.1,353.8,327.3,353.8z M502.2,414.9c-3.6-0.1-3.6,1.2-2.4,3.3c0.8-0.2,1.6-0.3,2.4-0.5
			C502.2,416.9,502.2,416.2,502.2,414.9z M344.1,364.6c0-0.5-0.1-0.9-0.1-1.4c-1.9,0.1-3.9,0.3-5.8,0.4c0,0.3,0,0.7,0.1,1
			C340.2,364.6,342.1,364.6,344.1,364.6z M503.7,405.4c0-2.7,0.3-3.7-0.1-4.4c-0.4-0.9-1.4-1.5-2.2-2.3c-0.3,0.3-0.7,0.6-1,0.9
			C501.2,401,502,402.4,503.7,405.4z M454.4,423.1c0,2.5,0,3.6,0,4.9c1.2-0.2,1.9-0.4,3.4-0.7C456.7,425.9,456,425.1,454.4,423.1z
			 M464,437.5c0,1.1,0,2.1,0,3.4c1.2-0.2,1.9-0.4,2.9-0.6c-0.2-1.1-0.4-2-0.6-2.8C465.5,437.5,465,437.5,464,437.5z M381.1,373.5
			c0.4,3,0.6,4.4,0.9,6c1.2-1,2-1.7,2.7-2.4C383.9,376.2,383.1,375.5,381.1,373.5z M462.3,354.6c-0.4-0.4-0.7-0.7-1.1-1.1
			c-0.7,0.1-1.4,0.3-2.5,0.5c0.2,1.1,0.4,2,0.8,4C460.8,356.4,461.5,355.5,462.3,354.6z M331.7,394.9c-0.4-0.4-0.7-0.7-1.1-1.1
			c-0.7,0.1-1.4,0.3-2.5,0.5c0.2,1.1,0.4,2,0.8,4C330.2,396.7,331,395.8,331.7,394.9z M487.7,391.1c-2.5,0-3.6,0-4.9,0
			c0.2,1.2,0.4,1.9,0.7,3.4C484.8,393.5,485.7,392.7,487.7,391.1z M547.3,360.5c-1.2,0.7-2.3,1.2-4.8,2.6c2.8,0,3.7,0,4.8,0
			C547.3,362.1,547.3,361.4,547.3,360.5z M351.4,313.5c0.5,1.1,1,2.2,1.6,3.3c0.3-0.2,0.5-0.4,0.8-0.6c0-0.9,0-1.8,0-2.8
			C352.7,313.5,352,313.5,351.4,313.5z M413,430.9c-0.5-1.1-1-2.2-1.6-3.3c-0.3,0.2-0.5,0.4-0.8,0.6c0,0.9,0,1.8,0,2.8
			C411.7,430.9,412.4,430.9,413,430.9z M366.4,444.6c-2.4-0.5-2.4-0.5-2.1,3.4C365.3,446.4,365.9,445.4,366.4,444.6z M448.8,286.2
			c-0.5,0-1,0.1-1.4,0.1c0.2,1.4,0.4,2.8,0.6,4.2c0.3,0,0.5-0.1,0.8-0.1C448.8,289,448.8,287.6,448.8,286.2z M418.5,321.8
			c0,0.3,0,0.5,0,0.8c1.6,0,3.2,0,4.8,0c0-0.3,0-0.5,0-0.8C421.7,321.8,420.1,321.8,418.5,321.8z M558,402.6
			c-3.9-0.3-3.9-0.3-3.4,2.1C555.4,404.3,556.3,403.6,558,402.6z M457.5,443.6c0.5,0,0.9-0.1,1.4-0.1c-0.2-0.9-0.4-1.8-0.6-2.7
			c-0.3,0-0.5,0.1-0.8,0.1C457.5,441.8,457.5,442.7,457.5,443.6z M444.3,450c0-0.3,0-0.5,0-0.8c-1.1,0-2.1,0-3.2,0
			c0,0.3,0,0.5,0,0.8C442.1,450,443.2,450,444.3,450z M442.3,464.9c-0.3,0-0.5,0-0.8,0c0,1.1,0,2.1,0,3.2c0.3,0,0.5,0,0.8,0
			C442.3,467,442.3,465.9,442.3,464.9z M413.7,320.2c0,0.3,0,0.5,0,0.8c1.1,0,2.1,0,3.2,0c0-0.3,0-0.5,0-0.8
			C415.8,320.2,414.7,320.2,413.7,320.2z M386,311.5c-0.1-0.5-0.1-0.9-0.2-1.4c-0.9,0.2-1.7,0.4-2.6,0.6c0,0.3,0.1,0.5,0.1,0.8
			C384.2,311.5,385.1,311.5,386,311.5z M378.4,308.8c0.1,0.5,0.1,0.9,0.2,1.4c0.9-0.2,1.7-0.4,2.6-0.6c0-0.3-0.1-0.5-0.1-0.8
			C380.2,308.8,379.3,308.8,378.4,308.8z M341.1,391.1c0,0.3,0,0.5,0,0.8c1.1,0,2.1,0,3.2,0c0-0.3,0-0.5,0-0.8
			C343.3,391.1,342.2,391.1,341.1,391.1z M443.9,290.8c-0.3,0-0.5,0-0.8,0c0,1.1,0,2.1,0,3.2c0.3,0,0.5,0,0.8,0
			C443.9,292.9,443.9,291.9,443.9,290.8z M467.4,460c0.2,0,0.4,0,0.5,0c0-0.5,0-1.1,0-1.6c-0.2,0-0.4,0-0.5,0
			C467.4,459,467.4,459.5,467.4,460z M459.9,461.6c-0.2,0-0.4,0-0.5,0c0,0.5,0,1.1,0,1.6c0.2,0,0.4,0,0.5,0
			C459.9,462.7,459.9,462.2,459.9,461.6z M334.1,405.2c-0.2,0-0.4,0-0.5,0c0,0.5,0,1.1,0,1.6c0.2,0,0.4,0,0.5,0
			C334.1,406.3,334.1,405.8,334.1,405.2z M480.3,400.4c0.2,0,0.4,0,0.5,0c0-0.5,0-1.1,0-1.6c-0.2,0-0.4,0-0.5,0
			C480.3,399.3,480.3,399.9,480.3,400.4z M468.5,399.9c0-0.2,0-0.4,0-0.5c-0.5,0-1.1,0-1.6,0c0,0.2,0,0.4,0,0.5
			C467.4,399.9,467.9,399.9,468.5,399.9z"/>
		<path d="M453.6,491.2c2.2-3.5,4-6.5,6-9.7c2.8,0.3,3.8-3.6,7.5-4.1c5.4-0.6,10.7-2.8,16.4-3c2.7-0.1,5.5-0.8,8.7-1.3
			c3.2,3.3-6.3,8.1,1.8,10.9c-3.6,2.6-6.1,4.4-9.1,6.5c-3.6,0.3-8.1-0.7-11.9,2.5c-1.6,1.4-4.1,0.6-6.5-0.2
			c-3.5-1.1-7.3-4.4-11.3-0.8C455.1,492.3,454.4,491.7,453.6,491.2z"/>
		<path d="M374.1,488.6c1.9-0.9,3-1.4,4.1-1.9c-1.3-3.3-2.5-6.5-4-10.3c3.9,0.6,6.8,1.2,9.7,1.4c2.9,0.2,6.3-0.9,8.7,0.3
			c3.1,1.4,6,1.2,8.3,1.4c2,1,3.3,1.7,4.6,2.4c2.1,1.2,4.5,1.8,5.2,4.9c0.4,1.6,3.2,2.6,5.9,4.7c-5.1,1-8.9,2.1-12.8,2.4
			c-7.5,0.5-14.8-1.7-22.3-2.3C379.3,491.3,377,489.7,374.1,488.6z"/>
		<path d="M397.8,100.7c-0.9,1.4-1.5,2.4-2.2,3.5c3.8,1.9,5.5,4.6,5.2,9.1c-3.3,1.6-6.8,3.5-10.5,4.9c-1.6,0.6-3.6,0.1-4.9,0.1
			c0.7-7.8-1.1-14.4-5.2-20.4c1.1-0.6,2.4-1.3,4.2-2.2c3.2,0,6.9,0,10.7,0C395.8,97.2,396.7,98.7,397.8,100.7z M389.3,106.4
			c0.4,3.7-0.8,6.6,2.3,8.5c0.4,0.2,1,0.2,1.7,0.3c0.7-0.8,1.5-1.8,2.7-3.2c-0.3-0.9-0.5-2.7-1.5-3.5
			C393.6,107.4,391.7,107.2,389.3,106.4z M389.5,97.2c-1.5,1.1-2.6,1.8-3.7,2.5c1.2,2.2,2,4,3.2,6.2c1.4-1.1,2.6-2,3.3-2.6
			C393.4,100.1,392.1,98.4,389.5,97.2z"/>
		<path d="M621.2,221.5c1.4,4.3,2.9,8.8,4.2,12.8c-2.2,1.9-3.8,3.2-5.7,4.8c-0.6-0.3-1.7-0.9-3.1-1.7c-1.2,1.7-2.5,3.4-3.7,5
			c-1.8,0-3.4,0-4.6,0c-5.7-3-4.4-9.6-7.7-14C607.8,227.5,614.9,226.2,621.2,221.5z M608,239.5c2.1-1,3.8-1.9,5.6-2.8
			c-0.8-4.6-1.5-5.6-4-5.6c-2.6,0-3.2,0.8-4.2,5.7C606.2,237.6,607.1,238.6,608,239.5z M621.3,234.2c0-2.5,0-4.3,0-6.1
			c-5.9,0.3-6,0.4-5.6,6.1C617.5,234.2,619.3,234.2,621.3,234.2z"/>
		<path d="M249,331.1c-2.4,2.5-5.7,1-8.7,1.7c-2.8,0.7-5.4,2.2-8.2,3.4c-0.9-5-1.7-9.5-2.5-13.7c1.8-2.2,3.6-3.7,7.1-1.9
			c-1.6,0.8-2.9,1.5-3.5,1.8c0,3,0,4.8,0,6.7c2.1,0,4.1,0,7.6,0c-2-1.9-3.1-2.9-4.2-3.9c1.4-3.2,4.5-2,8.2-2.3
			c-0.7,1.9-1.2,3.1-1.8,4.6c3,0.6,6,1.2,7.8-2.5c0-4.3-5.7-3.9-6.9-8.1c2.4-0.1,4.3-0.2,6.9-0.4c1.1,5.3,2.1,10.4,3.3,16.4
			C252.4,332.3,251.2,331.9,249,331.1z"/>
		<path d="M248,297.1c3.6,2.7,2.9,5.3,2.4,8.7c-2-1.2-3.6-2.2-5.8-3.6c-4.9-0.5-10.5-0.3-15.6,3c0,0-0.4-0.2-0.4-0.4
			c-0.1-1.8-0.2-3.6-0.3-4.9c3.4-4.3,9.8-4.3,11.6-10.4c-2.9,0-5.2,0-8.5,0c-0.4,0.6-1.3,1.8-2.8,3.9c0-3.1,0-5.1,0-7.6
			c6.7,3.2,13.6,1.2,21.1,2.1c-1,1.7-1.4,3.2-2.4,4c-2.2,1.6-4.9,2.6-7.1,4.1c-1.1,0.8-1.8,2.3-3.1,4.2c3.2,0,5.5,0,8.6,0
			C246.2,299.4,247.2,298.2,248,297.1z"/>
		<path d="M229.6,273.5c0.9-4.9,1.6-8.6,2.5-13.4c1.6-1.2,4.1-3,6.3-4.6c6-1.1,10.4,1.1,14,5.6c0,4.2,0,8.5,0,12.8
			c-0.7,0.7-1.5,1.4-2.7,2.6c-0.3-1.1-0.5-1.9-0.9-3.3C242.9,273.7,236.9,268.7,229.6,273.5z M235.2,260.2c-0.9,2.2-1.6,4-2.3,5.8
			c2.9,0.9,5.3,1.8,7.7,2.2c2.7,0.5,5.4,0.5,8.9,0.9c0.4-1,1.1-2.8,1.7-4.4c-1.8-1.8-3.1-3.1-4.4-4.4
			C243.1,260.2,239.4,260.2,235.2,260.2z"/>
		<path d="M499.8,114.8c-1.2,0.7-2.5,1.5-3.9,2.3c0,2.4,0,4.8,0,7.7c-3-1.5-5.5-2.7-8.4-4.2c1.2-0.4,2.1-0.7,3.1-1.1
			c2.2-4.9,4.4-9.9,6.7-15c-0.4-0.5-0.9-1-1.5-1.6c3.2-3,5.6,2.2,8.8,0.7c1.2,1.4,2.4,2.8,3.9,4.6c0,1,0,2.6,0,4.8
			c-1.4,1.1-3.3,2.6-5.2,4.2c0.7,2.9,1.2,5.3,1.9,8.3c-0.3,0.4-1,1.1-1.2,1.4c-1.3-1.3-2.7-2.7-4.9-4.9
			C499.5,121,502.2,118.4,499.8,114.8z M502.1,113.9c4.9-4.6,4.8-5.3-0.4-8.5C498.3,109.4,498.3,109.4,502.1,113.9z"/>
		<path d="M325.2,148.1c-1.3-1.1-3.2-2.8-5.2-4.5c-3.1,3.8-0.3,5.5,2,7.9c-2,1.3-4,2.6-6.8,4.4c0.5-2.7,0.8-4.5,1-5.7
			c0-2,0-3.5,0-6.2c-2.2-3.3-7.2-4.6-11.9-6.9c1.8-1.2,3.6-2.4,4.9-3.3c1.4,1.4,3,3,4.6,4.6c1.6-1.5,2.3-2.2,3.2-3
			c-1.2-1.3-2.3-2.6-3.8-4.3c1.5-1.3,2.8-2.4,4.6-3.9c1.6,4.2,0.5,7.9,1,11.6c4.3,1.9,8.6,3.8,12.9,5.7
			C330.2,146.8,328.3,147.6,325.2,148.1z"/>
		<path d="M630.8,250.6c0.8,4.8,1.6,9,2.3,13.1c-1.5,2.5-3.4,3.6-7.3,2.2c2.2-0.5,3.7-0.8,5.3-1.2c-0.5-0.6-1.1-1.2-1.6-1.8
			c0.4-2.6,0.9-5.2-2-7.3c-0.6,0.4-1.3,0.9-2.1,1.3c-0.8,0.4-1.6,0.6-3.7,1.4c2.4,1.4,3.5,2,4.8,2.7c-2.5,1-4.7,3.1-8.4,2
			c0.6-1.5,1.1-2.8,1.7-4.2c-1.8,0-3.6,0-5.6,0c-0.5,0.5-1.3,1.3-2.1,2.1c1.1,1.7,2.2,3.3,3.2,5c0.8,1.3,4.4,0,2.8,3.6
			c-1.6,0-3.4,0-5.6,0c-1-4.9-2.1-10.2-3.4-16.1c1.6,0.7,2.9,1.2,4.3,1.8C618.9,253.7,624.7,252.2,630.8,250.6z"/>
		<path d="M619.6,296.6c-0.4,0.5-1.9,2.3-2.6,3.3c-1.6-0.9-2.7-1.5-4.9-2.8c2.6-1.5,4.5-2.5,6.3-3.6c-0.3-0.3-0.7-0.7-1-1
			c1.8-0.1,3.6-0.2,5.6-0.3c0-1.5,0-2.7,0-4c-3.1-2.2-5.7,0.5-9.1,1.3c-0.1-2.2-0.3-4.2-0.4-6.8c2.8,0.6,5.1,1.3,7.4,1.6
			c2.6,0.3,5.3,0.1,7.4,0.1c2.2-1.2,3.9-2.1,5.9-3.2c0,4.6,0,9.1,0,13.9C630.4,301.2,625.4,293.7,619.6,296.6z M626.6,294.7
			c2.2-0.8,4-0.9,4.9-1.9c1-1.1,1.2-3,1.9-5c-2.8,0-4.8,0-6.8,0C626.6,289.9,626.6,291.7,626.6,294.7z"/>
		<path d="M360.5,123.8c-1.2-3.5-2.5-7.2-4.1-11.9c-0.7-0.7-2.3-2.3-4.2-4.2c2.6-1,5-1.9,7.1-2.7c1.9,2.1-0.9,1.8-0.9,3
			c2.2,5,4.4,10,6.8,15.5c2.4-0.6,4.3-1.1,5.8-1.5c2-6.7-1.4-11.5-2.8-15.7c-1.7-1.2-2.5-1.9-4-2.9c2.7-1.3,4.7-2.2,7.9-3.8
			c-0.9,2.5-1.3,3.8-1.8,5.3c1.7,4.8,3.5,9.9,5.3,15C371.2,124.5,367.6,129,360.5,123.8z"/>
		<path d="M543.2,152.6c1.8-1.9,3-3.2,3.9-4.2c-0.7-3-2.7-4.8-5.8-5.7c-0.8,1.3-1.9,2.9-3.3,5c-1.3-1.1-2.6-2.1-5-4.1
			c8.4-2.1,13.3-7.7,19.9-11.1c2.9,4.2-0.4,7.9-0.7,11.8c-0.3,3.7-1.4,7.4-2.1,11.5C548,154.8,546.2,154,543.2,152.6z M545.6,141.5
			c0.4,0.4,0.7,0.7,1.1,1.1c0.7-0.1,1.4-0.3,2.5-0.5c-0.2-1.1-0.4-2-0.8-4C547,139.7,546.3,140.6,545.6,141.5z"/>
		<path d="M304.1,169.7c-3.5,0.9-6.1,1.5-8.6,2.1c-3.6-3.6-6.8-6.8-10.3-10.3c-1,0-2.2,0-3.5,0c-0.1-0.8-0.5-1.5-0.2-1.7
			c1.5-1.7,3.1-3.3,5.5-5.7c0.5,2.5,0.8,3.9,1,4.9c3.1,3.3,6,6.4,9.2,9.7c1.6-0.6,3.2-1.2,4.9-1.9c0-2.2,0-4,0-6
			c-3.4-3-4.7-9-12.4-8.7c2.1-2.5,3.3-3.8,4.5-5.3c4,5.1,7.6,9.7,11.6,14.7C305.4,164,304.7,167,304.1,169.7z"/>
		<path d="M261.3,234.9c-2-1.1-3.1-1.7-4.1-2.2c-3.9,1.4-3.1,4.5-3.1,7.7c1.4,0.3,2.9,0.5,4.6,0.8c0,1.3,0,2.5,0,3.9
			c-0.6,0.6-1.4,1.4-2,2c-4-7.3-12.3-10.1-17.9-17c8.7-0.7,16.7-1.3,25.4-1.9C263.1,230.6,262.3,232.5,261.3,234.9z M252.1,235.7
			c0.1-0.4,0.2-0.8,0.3-1.1c-1.4-0.6-2.8-1.3-4.7-2.1c0,1.6,0,2.3,0,3.3C249.3,235.7,250.7,235.7,252.1,235.7z"/>
		<path d="M265,369.8c0.8,2.6,1.6,4.9,2.4,7.3c-1.5,0.6-2.4,0.9-3.5,1.3c0,1.7,0,3.5,0,5.3c1,0.9,1.9,1.8,3.3,3.1
			c1-1.8,1.7-3,2.7-4.8c1.5,1.5,2.8,2.8,5.2,5.4c-9.3-0.7-16.5,3.6-25,0.9C255.2,382,259.9,376.1,265,369.8z M256.4,385.6
			c2.6,0,4,0,5.8,0c-0.2-1.2-0.4-2.1-0.7-3.7C259.8,383.2,258.6,384.1,256.4,385.6z"/>
		<path d="M606.1,350.2c3.1,3,5.4,2.1,7.5-0.8c0-0.9,0-1.9,0-3.4c-1.3-0.9-2.7-1.8-4.5-3c0-1,0-2.4,0-3.9c0.9-0.1,1.8-0.3,1.8-0.1
			c2.1,5,7.3,6.5,11.1,9.6c1.9,1.6,4.4,2.7,4.5,6.1c-2.7,0.3-5.7-0.2-7.7,1c-2.4,1.5-4.6,0.7-6.9,0.9c-2.6,0.3-5.2,0.1-8.6,0.1
			C604.4,354.4,605.1,352.7,606.1,350.2z M615.7,348c-0.3,1.6-0.5,2.5-0.7,3.7c1.8,0,3.2,0,5.8,0C618.7,350.2,617.5,349.3,615.7,348
			z"/>
		<path d="M525.5,116.7c-1.4,0.5-3.1,1.2-6.2,2.3c1.1-2.5,1.7-3.8,2.4-5.5c1.9,0,4-0.6,5.4,0.1c3.6,1.9,6.8,4.4,10.5,6.9
			c-1.2,2-2.4,4-4.2,7c-0.4-3.3-0.7-5.5-0.9-7.7c-4.2,5.5-9.8,9.9-9.4,17.6c-2.2-1.4-4.2-2.6-6.8-4.3c2.6-2.1,6.2-3.9,6.5-7.4
			C523.2,122.5,528.9,121.3,525.5,116.7z"/>
		<path d="M630.2,333c-2.1-1-3.6-1.8-5.6-2.8c0.9-0.3,1.5-0.5,2.1-0.8c1.6-0.6,3.2-1.2,5-2c-1.3-1.3-1.9-2.6-2.8-2.7
			c-4.6-0.8-9.2-1.3-13.8-1.7c-0.8-0.1-1.7,0.9-2.6,1.5c-1-2.9-1.3-5.6,2.1-8.2c0.7,1.2,1.5,2.5,1.6,2.7c5.8,0.9,10.3,1.6,16.1,2.5
			c-1.8-2.7-2.9-4.3-4.3-6.3c1.9-0.1,3.9-0.2,6.7-0.4c-0.8,5.5-1.5,10.5-2.3,15.7C632,331.2,631.2,331.9,630.2,333z"/>
		<path d="M240.5,367.2c-1-3.2-1.8-5.5-2.6-7.9c0.4-0.3,1.1-0.9,1.2-0.8c3.6,3.4,7.2,0.3,10.7-0.2c2.7-0.4,5.1-2.6,8.2-4.3
			c-1.8-2-3.3-3.7-4.6-5c-1.7-0.2-3-0.3-4.2-0.4c0-1,0-1.6,0-2.7c2.5-0.1,5-0.2,7.4-0.3c1.5,4.8,2.8,9.3,4.4,14.3
			C253.2,359.8,246.9,362.7,240.5,367.2z"/>
		<path d="M263.9,182.2c1.7-2,1.6-5.4,5.6-6.2c0.3,1.6,0.6,3,0.8,4.2c4,2.9,8,5.9,12.3,9c1.2-1.9,2.3-3.8,3.2-5.2
			c-0.5-2-1-3.7-1.9-7.1c3,2.3,4.5,3.8,6,6c-2.9,4.3-5.9,8.7-9,13.3C277.8,189.8,271.2,184.2,263.9,182.2z"/>
		<path d="M583.9,190.5c0.8,1.9,1.4,3.3,2.2,5.1c2.1,0,4.1,0,6.1,0c0.1,0.4,0.2,0.8,0.3,1.1c-1.5,0.9-3.1,1.9-5.2,3.2
			c-1.9-2.8-3.5-5-5.1-7.3c-1.4-2-2.8-4-4.5-6.4c2.2,0,3.7,0,5.9,0c2.5-4.7,9.4-5,10.7-10.3c1.2,1.1,2.8,2.6,4.5,4.1
			c0,0-0.1,0.7-0.4,0.9C593.1,182.9,588.6,186.2,583.9,190.5z"/>
		<path d="M429.5,496.3c0.5-1.1,1-2.1,1.6-3.3c-0.8-1.4-1.8-3.1-3.1-5.3c1.4-0.1,2.6-0.2,3.9-0.3c1-1.6,2.1-3.2,3.1-4.7
			c2.5,2.1,4.9,4,7.2,5.9c-0.8,0.8-1.8,1.9-3.1,3.2c0.4,1.7,0.9,3.5,1.6,6.4c-3.8-3.2-7-3.1-10.3-0.5
			C430.2,497.2,429.9,496.7,429.5,496.3z"/>
		<path d="M613.5,384.3c0.1-2.7,0.3-5.4-3.7-6.7c-2.7,2.7-5.7,5.6-8.8,8.6c-2.3-1.3-4.5-2.6-7.1-4.1c1.2-2.5-1.4-5.5,1.9-7.6
			c0,2.1,0,4.1,0,6.3c1.5,0.1,2.5,0.1,3.2,0.2c2.4-2.4,4.6-4.7,6.5-6.6c3.7,0.5,7.2-1.2,9.7,2.8
			C614.2,379.2,616.8,382.3,613.5,384.3z"/>
		<path d="M594.2,208.8c6,0.4,13.9-4.4,18.4-8.8c0.9,3,3.5,4.9,2.1,8.5c-0.9-0.6-1.6-1-2.4-1.5c-13.4,5.6-13.4,5.6-15.8,10.2
			c-0.4-1.7-0.7-3-1-4.3c-0.5,0.4-0.9,0.9-1.4,1.3C594.2,212.6,594.2,211,594.2,208.8z"/>
		<path d="M409,93.1c2.6-0.6,4.6-3.7,7.9-1.5c-2.7,7.2-2.6,14.2,2.6,21.5c-3.4,0.2-5.9,0.3-9,0.5c2.5-3.6,1.2-7.2,1.7-10.6
			C412.6,99.1,410.8,96.2,409,93.1z"/>
		<path d="M338.5,123.3c1,0,2,0,3.3,0c0.7,1.2,1.5,2.7,2.6,4.6c-1.9,0.8-3.7,1.5-5.3,2.1c-1.2-1.2-2-2-2.6-2.6
			C337.2,126,337.8,124.7,338.5,123.3z"/>
		<path d="M259,210.1c0-2.2,0-4,0-5.8c3.7-0.3,3.7-0.3,6.4,2.3C264.7,209.7,262.6,210.6,259,210.1z"/>
		<path d="M573.7,163.6c-0.4,0.2-2.3,1.1-4.2,2.1c-2.1-3.8-0.8-5.8,3-7.8C572.8,159.4,573.1,161.1,573.7,163.6z"/>
		<path d="M444.2,104.9c-3.5,1.6-5-0.4-7.1-2.7c1.3-1.4,2.3-2.4,3.2-3.4C444.1,99.7,444.7,102,444.2,104.9z"/>
		<path d="M595.3,375c1.6-2.7,2.9-4.8,4.2-7c1.8,1.1,3.3,2.1,5.8,3.7C601.3,373,598.6,373.9,595.3,375z"/>
		<path d="M613.6,383.9c-1.7,6.3-3.3,6.8-8.1,2.5c1.5-0.3,3-0.6,4.4-1C611.2,385,612.3,384.4,613.6,383.9z"/>
		<path d="M444.1,156.4c1.7,1.4,3.6,2.9,5,4.1c0,1.8,0,2.8,0,3.7c-1.8,1.2-3.4,2.2-5.1,3.4c0.8,3,1.5,5.6,2.4,9.2
			c-3.6-0.6-6.2-1.1-9.7-1.6c-1.1,1.6-2.7,3.8-4.6,6.5c-1.6-2-3.1-3.8-4.4-5.3c-3.2,0-5.9,0-8.9,0c0-3.4,0-6.8,0-9.8
			c-1.5-1.8-2.7-3.1-4.3-4.9c1.8-1.4,3.3-2.6,5.6-4.4c-0.5-2.5-1.1-5.9-1.9-9.6c3.2,0,6.1,0,9.1,0c1-1.6,2-3.1,3.2-4.9
			c0.7,0,2,0,3.2,0c0.9,1.5,1.8,3,2.9,4.9c3-0.3,5.9-0.7,9.2-1c0.1,0.1,0.7,0.7,1.3,1.3C446.3,150.3,445.4,152.7,444.1,156.4z
			 M435.1,159.7c0.5,0.6,1.2,1.4,1.6,1.8c3.3,0,6.2,0,9.8,0c-2.7-2.6-4.9-4.6-7.4-7C437.6,156.5,436.4,158,435.1,159.7z
			 M431.1,176.4c0-3.9,0-7.5,0-12c-2,2.2-3.5,3.9-4.8,5.4C428,172.2,429.4,174.1,431.1,176.4z M431.1,147.6c-2.2,3.6-5.3,7.3,0,11.2
			C431.1,154.7,431.1,151.2,431.1,147.6z M429.7,161.6c-2.2-2.5-3.2-3.7-4.4-5.1c-2,1.5-4.2,2.2-3.2,5.1
			C424,161.6,425.9,161.6,429.7,161.6z M422.8,169.9c-0.2,0-0.4,0-0.5,0c0,0.5,0,1.1,0,1.6c0.2,0,0.4,0,0.5,0
			C422.8,171,422.8,170.4,422.8,169.9z"/>
		<path d="M584.5,290.8c-1.3,0-2,0.2-2.3,0c-5.5-4.9-10.9-9.9-16.4-14.7c-5.3-4.5-10.2-9.5-16.2-13.1c-0.9-0.5-1.5-1.5-2.3-2.2
			c-5.8-5.9-12.5-10.9-19.1-16c-5.7-4.4-10.8-9.6-16.6-14.8c1.4-0.2,2.5-0.6,2.9-0.3c4,3.3,7.7,7,11.9,10.1
			c8.9,6.6,16.6,14.8,25.7,21.2c4.6,3.3,8.3,7.9,13,11.3c5,3.7,9.4,8.3,14.2,12.4c1.3,1.1,3.1,1.7,4.4,2.9
			C584.2,288.2,584.1,289.5,584.5,290.8z"/>
		<path d="M518.6,224.3c2.4,1.3,5.2,2.1,7.2,3.9c6.5,5.8,13.8,10.6,20.8,15.8c7.5,5.7,15.5,10.7,22.8,16.6
			c6.4,5.1,13.2,9.7,19.7,14.6c1,0.7,2.2,1.2,3.6,1.9c-0.2,0.8-0.4,1.7-0.6,2.5c-0.9-0.1-1.6,0.1-2-0.2c-23-17-45.9-34-68.8-51
			c-1.2-0.9-2.2-2.2-3.3-3.3C518.2,224.8,518.4,224.5,518.6,224.3z"/>
		<path d="M518.9,215.4c22.4,14,44.8,28,68.1,42.5c-4.7,1.1-7.7-1.5-10.1-3.2c-16.5-11.6-34.7-20.7-50.9-32.8
			c-1.3-1-3.3-1.1-4.7-2.1c-1.3-0.9-2.2-2.4-3.3-3.6C518.3,215.9,518.6,215.7,518.9,215.4z"/>
		<path d="M586.3,236.7c-0.3,1.1-0.4,1.5-0.5,2c-0.2,0.1-0.4,0.4-0.6,0.4c-0.2,0.1-0.6,0.1-0.8,0c-21.5-10.8-43-21.6-64-33.8
			c1,0.3,2.1,0.6,3.1,1.1c12,6,23.7,12.8,36.1,18C568.5,228.1,577,232.7,586.3,236.7z"/>
		<path d="M362.1,253c0,1.2,0.1,1.8,0,2.3c-0.1,0.5-0.3,1-0.6,1.4c-12.3,17.4-24.7,34.7-38.1,51.5c0.5-1.8,0.7-3.8,1.7-5.2
			c4.2-6.1,8.6-12,12.9-17.9c4.8-6.6,9.6-13.2,14.4-19.7C355.4,261.2,357.8,256.7,362.1,253z"/>
		<path d="M521.7,194.1c19.2,7.2,37.8,14.2,58.3,21.9c-2.9,0.4-4,0.9-4.8,0.6c-18.1-6.1-35.7-13.2-53.5-20.1
			C521.6,196.4,521.7,195.5,521.7,194.1z"/>
		<path d="M323.2,227.6c-15.5,11.8-32.7,20.8-50.4,31.6c1.1-2.3,1.3-3.9,2.3-4.5c3.1-2.1,6.4-3.9,9.6-5.7
			c10-5.6,20.3-10.8,29.7-17.5C317,229.6,320.3,228.8,323.2,227.6z"/>
		<path d="M342.9,195.3c-17.6,6-35.1,12.1-52.7,18.1c-0.6,0.2-1.4-0.3-2.5-0.5c3.3-3.3,7.5-3.4,11.1-4.7c3.5-1.3,6.7-3.7,10.2-4.2
			c4.1-0.6,7.9-1.8,11.4-3.5c3.5-1.7,7.3-1.6,10.8-3.1c3.7-1.5,7.5-2.6,11.3-3.8C342.7,194.1,342.8,194.7,342.9,195.3z"/>
		<path d="M552.3,278.8c-1.8-1.3-3.5-2-4.7-3.2c-7.8-7.7-15.5-15.5-23.3-23.2c-2.8-2.7-5.1-5.8-8.9-7.5c-1.6-0.7-2.6-2.9-3-5.5
			c1.9,1.2,4.2,2.2,5.8,3.8c11.4,11.3,22.8,22.7,34.1,34C552.4,277.2,552.3,277.6,552.3,278.8z"/>
		<path d="M551.9,277.9c1.1,0,2.2-0.3,2.7,0.1c3.9,2.8,25,25.1,27.1,28.9c-3.1-1.1-5.7-1.6-6.8-4.2c-1.3-3.1-4.8-3.3-6.4-6
			c-1.4-2.4-2.9-5.3-5.1-6.5c-4.1-2.2-6.7-5.7-9.9-8.7C552.6,280.6,552.5,279.1,551.9,277.9z"/>
		<path d="M344.3,224.7c-2.8,5.7-9,7.2-13.5,10.8c-7.8,6.2-16.5,11.5-24.9,17.1c-1,0.7-2.3,0.8-3.5,1.2c2.8-5.7,9-7.2,13.5-10.8
			c7.8-6.2,16.5-11.5,24.9-17.1C341.8,225.2,343.2,225.1,344.3,224.7z"/>
		<path d="M321.9,216c-14.2,6.8-28.4,13.6-43.6,20.9c3-4.5,10.4-8.2,21.1-12.3c7.6-2.9,14.3-8,22.2-10.2
			C321.6,214.9,321.7,215.5,321.9,216z"/>
		<path d="M302.8,254.1c-1.1,1.1-2,2.3-3.3,3.2c-9.9,7-19.9,13.9-30,21c-0.5-1-0.8-1.6-1.2-2.3C279.6,268.2,290.4,260,302.8,254.1z"
			/>
		<path d="M299.3,194.4c14.8-3.4,29.7-6.9,45.5-10.5c-3.9,4.8-8.8,4.3-12.7,5.1c-8.4,1.8-16.6,4.9-25.3,5.1
			C304.8,196.4,302.1,195.5,299.3,194.4z"/>
		<path d="M565,196.4c0,0.5,0.1,1,0.1,1.5c-0.4,0.3-0.8,1-1.1,1c-10.7-2.7-21.4-5.4-32.1-8.1c-0.3-0.1-0.5-0.8-0.7-1.3
			c-0.1-0.2,0-0.5,0-1.3C542.6,190.9,553.8,193.6,565,196.4z"/>
		<path d="M297.9,272.6c-8.6,7.2-17.2,14.3-26.2,21.8c-0.7-0.8-1.2-1.4-1.8-2.1c4.9-3.9,9.1-8.3,14.1-11.1c5-2.8,7.7-8.5,13.3-10.4
			C297.5,271.5,297.7,272.1,297.9,272.6z"/>
		<path d="M466.8,174.8c11.8,2.4,22.5,7.7,33.9,11.5c0,0.9-0.1,1.7-0.1,2.7C489.2,184,477.4,181,466.8,174.8z"/>
		<path d="M468.7,180.6c10.7,5.3,21.3,10.6,32.1,15.9c-0.2,0.8-0.4,1.6-0.6,2.5c-7-3.7-13.8-7.2-20.7-10.7c-2.7-1.4-5.4-2.5-8-3.9
			c-1.3-0.7-2.3-1.8-3.5-2.7C468.3,181.3,468.5,180.9,468.7,180.6z"/>
		<path d="M544.7,290c2.6,0.9,3.9,1,4.3,1.6c5.2,8.1,13.3,14,17.5,22.9C558.3,307.9,552,299.8,544.7,290z"/>
		<path d="M339.1,179c-9.9,1.9-19.8,3.8-29.9,5.7c-0.1-1.4-0.2-2.1-0.3-3.5C319.3,181.8,328.9,176.8,339.1,179z"/>
		<path d="M494.3,171.8c-0.1,1.3-0.2,1.8-0.3,2.9c-1.5,0-3.1,0.4-4.5-0.1c-7.9-2.9-16.5-3.6-24.3-7.3
			C475,167.6,484.2,171.2,494.3,171.8z"/>
		<path d="M331.4,256.9c6.5-6.8,13-13.6,19.7-20.4c0.6-0.6,1.9-0.4,2.9-0.6c-6.5,6.8-13,13.6-19.7,20.4
			C333.8,256.9,332.4,256.7,331.4,256.9z"/>
		<path d="M325,263.4c-6.5,6.8-13,13.6-19.7,20.4c-0.6,0.6-1.9,0.4-2.9,0.6c6.5-6.8,13-13.6,19.7-20.4
			C322.7,263.4,324,263.6,325,263.4z"/>
		<path d="M391.1,177.6c-9.5,3.2-19.1,6.4-29.7,10.1c1.1-1.6,1.5-2.9,2.2-3.2c5.2-1.8,10.4-3.3,15.7-4.9c3.7-1.2,7.5-2.4,11.2-3.6
			C390.6,176.5,390.9,177,391.1,177.6z"/>
		<path d="M296.2,291.8c-6.6,6.1-13.2,12.2-19.8,18.3c-0.1,0.1-0.5-0.1-1.6-0.2c1-1.7,2.3-2.7,3.4-3.8c1.5-1.5,3-3,4.5-4.5
			c1.3-1.3,2.6-2.6,4-4c1.5-1.5,2.9-3.1,4.6-4.5c1.3-1.1,2.8-1.9,4.2-2.9C295.7,290.7,296,291.3,296.2,291.8z"/>
		<path d="M358.9,281.1c-3.6,8.6-8.8,16.2-14.1,23.8C348,296.1,352.7,288.2,358.9,281.1z"/>
		<path d="M531.3,180.9c8.6-2.3,16,1.8,23.9,2.1c0.1,1,0.1,1.7,0.3,3C547.3,184.2,539.3,182.5,531.3,180.9z"/>
		<path d="M370.2,143.8c9.3-0.8,17.4,2.9,27.5,5.6c-6.8,2.7-10.6-1.8-15.2-2.2C378.3,146.8,374.3,144.9,370.2,143.8z"/>
		<path d="M524.7,168.7c7.3,0.6,14,1.1,20.8,1.6c0.1,0.5,0.2,1.2,0.5,2.3c-7.1,2-13.7-2.8-20.7-1
			C525.1,170.6,524.9,169.8,524.7,168.7z"/>
		<path d="M478.5,197.3c-0.9,0-1.4,0.1-1.9,0c-0.5-0.1-1-0.2-1.4-0.5c-6-4.8-12.1-9.7-18.3-14.7c0.9-0.6,1.1-0.8,1.3-0.8
			c0.5,0,1.2-0.1,1.5,0.2C465.2,187.4,473.4,190.3,478.5,197.3z"/>
		<path d="M365.6,159c5.3,0.3,10.5-1.3,16,0.9c3.1,1.3,7.2,0.2,10.9,0.8C383.4,162.9,374.5,161.4,365.6,159z"/>
		<path d="M489.4,143c0,0.7,0,1.2,0,2.2c-7.8,1.7-15.7,3.9-24.8,6.1c4-5.1,9-3.8,12.9-5.5C481.2,144.3,485.4,143.9,489.4,143z"/>
		<path d="M344.3,258.5c0.2-1,0-2.3,0.6-2.9c5.1-5,10.3-9.9,15.5-14.8c-0.2,1,0,2.3-0.6,2.9C354.8,248.7,349.5,253.6,344.3,258.5z"
			/>
		<path d="M468.8,162.1c8.9,0,17.9,0,26.9,0c0,1,0,1.7,0,2.7c-4.6-0.4-9.1-1-13.6-1.3c-4.5-0.2-8.9,0-13.4,0
			C468.7,163,468.7,162.5,468.8,162.1z"/>
		<path d="M326.6,277.9c-0.2,1,0,2.3-0.5,2.9c-4.6,4.5-9.3,8.9-14,13.3c0.2-1,0-2.3,0.5-2.9C317.2,286.6,321.9,282.3,326.6,277.9z"
			/>
		<path d="M342.7,205.3c-6.7,4.9-16.3,9.3-21,9.7C328.5,210.1,338.1,205.7,342.7,205.3z"/>
		<path d="M466.9,157.8c0.7-0.7,1.4-1.5,1.8-2c6.9-0.7,13.6-1.3,20.3-1.9c0.2,0.3,0.5,0.6,0.7,0.9c-1,0.2-2,0.4-3,0.7
			C481,157.8,474,155.6,466.9,157.8z"/>
		<path d="M384.6,184.8c-6.9,3.2-13,8.1-20.7,8.9C370.9,190.7,376.7,185.2,384.6,184.8z"/>
		<path d="M312.1,293.2c0,1.3,0.2,2.1,0,2.4c-3.9,4.4-7.8,8.6-12.6,14c0.3-2.3,0-3.6,0.6-4.2C303.8,301.4,307.8,297.5,312.1,293.2z"
			/>
		<path d="M328.2,276.3c0.2-1,0-2.3,0.6-2.9c4-4,8.2-7.8,12.3-11.6c-0.2,1,0,2.3-0.6,2.9C336.5,268.6,332.4,272.4,328.2,276.3z"/>
		<path d="M330,223.5c5.8-4.8,11.5-7.1,16.6-10.3C344.3,217.3,337.7,221.4,330,223.5z"/>
		<path d="M367.9,172.7c5.8-4.1,11.2-2.3,16.5-2.3C379.1,170.9,374.3,174.1,367.9,172.7z"/>
		<path d="M331.4,159.8c0-0.9,0-1.5,0-2.6c5.4,0.7,10.8,1.3,16.1,2c0,0.2,0,0.4,0,0.6C342.2,159.8,336.8,159.8,331.4,159.8z"/>
		<path d="M463.3,132.4c-4.6,4.3-7.6,7.9-11.5,10.4C455.4,136.1,457.8,134,463.3,132.4z"/>
		<path d="M340.9,169.6c-6.3,0-12.5,0-18.8,0c3-1.9,6.2-1.2,9.3-1.3c3.1-0.1,6.3,0,9.4,0C340.8,168.7,340.9,169.2,340.9,169.6z"/>
		<path d="M518.7,160.5c5.2,0,10.3,0,16.9,0c-2.6,1.4-4.1,2.2-4.5,2.4c-4.8-0.6-8.5-1.1-12.2-1.5
			C518.7,161.1,518.7,160.8,518.7,160.5z"/>
		<path d="M463.9,144.6c3.1-4.3,7-6.8,12.5-6C472.2,140.6,468,142.6,463.9,144.6z"/>
		<path d="M383.1,155c-4.1,0-8.2,0-12.5,0c-0.5-0.5-1.3-1.3-2.8-2.8c5.6,0.8,10.4,1.4,15.3,2.1C383.1,154.5,383.1,154.7,383.1,155z"
			/>
		<path d="M477,196.5c5.5,2.1,9.2,4.6,13.7,9.4C484.6,203.7,480.8,201.4,477,196.5z"/>
		<path d="M405.5,193.3c-3,4.2-5.1,7.2-7.2,10.2c-0.2-0.2-0.7-0.4-0.7-0.8c-0.1-0.8,0-1.6,0-1.3
			C400.1,198.7,402.2,196.6,405.5,193.3z"/>
		<path d="M391.7,189.4c3.3-3.2,6.4-5.3,10.2-6.2C399.7,186.5,397,189,391.7,189.4z"/>
		<path d="M391.1,190.8c-2.3,2.7-7,5.8-9.7,6.4C383.5,193.4,386.7,191.2,391.1,190.8z"/>
		<path d="M396.7,143.4c-4.1-2.6-8.7-2.3-10.1-6.8C389.7,138.6,394.1,138.4,396.7,143.4z"/>
		<path d="M519.8,151.9c-4.1,0-8.2,0-13.5,0c3-2.1,5.3-1.1,7.3-1.3c2.1-0.2,4.1,0,6.2,0C519.8,151,519.8,151.4,519.8,151.9z"/>
		<path d="M344.3,234.4c2.1-2.9,3.7-6.4,8.1-6.4C350.3,230.8,348.7,234.3,344.3,234.4z"/>
		<path d="M463.6,197.3c-2.9-2.1-6.4-3.7-6.4-8.1C460.1,191.3,463.6,192.9,463.6,197.3z"/>
		<path d="M410.4,186c0,4.4-3.6,6-6.4,8.1C404,189.7,407.5,188.1,410.4,186z"/>
		<path d="M305.7,265c-2.1,2.9-3.7,6.4-8.1,6.4C299.7,268.5,301.3,265,305.7,265z"/>
		<path d="M313.7,258.5c-2.1,2.9-3.7,6.4-8.1,6.4C307.8,262.1,309.3,258.5,313.7,258.5z"/>
		<path d="M344.3,234.4c-2.1,2.9-3.7,6.4-8.1,6.4C338.4,237.9,339.9,234.4,344.3,234.4z"/>
		<path d="M336.3,240.8c-2.1,2.9-3.7,6.4-8.1,6.4C330.3,244.4,331.9,240.8,336.3,240.8z"/>
		<path d="M363.5,273.6c0.4-3.8,1.7-6.5,4.6-8.2C367.7,268.6,366.8,271.4,363.5,273.6z"/>
		<path d="M363.7,273c-0.6,3.3-1.2,6.6-4.8,8.1C359.4,277.8,360,274.5,363.7,273z"/>
		<path d="M331.4,223.1c-1.5,3.7-4.7,4.3-8.1,4.8C324.8,224.3,328.1,223.6,331.4,223.1z"/>
		<path d="M321.8,252.1c1.4-2.6,2.9-5.1,6.4-4.8C326.8,249.8,325.3,252.3,321.8,252.1z"/>
		<path d="M344.9,148.5c2.2,1,3.9,1.8,7,3.2c-3.3,0.2-5.2,0.4-7.7,0.5C344.5,150.7,344.6,149.8,344.9,148.5z"/>
		<path d="M351.8,227.7c2.1-1.9,3.3-4.5,6.6-4.3C356.7,225.3,356,228.6,351.8,227.7z"/>
		<path d="M313.7,258.5c1.4-2.6,2.9-5.1,6.4-4.8C318.7,256.3,317.3,258.8,313.7,258.5z"/>
		<path d="M468.7,174.8c-4.3-0.1-7,0.5-8.2-3.7C463.1,172.2,465.1,173.2,468.7,174.8z"/>
		<path d="M403.8,131.2c2-0.1,2.9,1.7,3.5,3.5C406.2,133.6,404.9,132.2,403.8,131.2z"/>
		<path d="M360.4,240.4c-0.1-2.6,1.2-4.2,3.8-4.4C363,237.4,361.6,239,360.4,240.4z"/>
		<path d="M422.6,133.4c-1.1-2.7-1.8-4.6-3-7.4C423.2,127.9,424,129.8,422.6,133.4z"/>
		<path d="M463.3,196.9c1.6,2,2.9,3.7,4.1,5.2C464.8,202,463.7,200.2,463.3,196.9z"/>
		<path d="M376.2,199.9c-0.5,2.4-1.2,4.6-5,3.2C373.2,201.8,374.7,200.8,376.2,199.9z"/>
		<path d="M361.5,253.3c1-1.5,1.9-2.9,3.2-5C366,252.1,363.9,252.8,361.5,253.3z"/>
		<path d="M381.4,197.3c-0.6,2.5-2.3,3.5-4.8,3.2C377.2,198,378.9,197,381.4,197.3z"/>
		<path d="M344.7,225.3c0.5-2.4,1.2-4.6,5-3.2C347.7,223.4,346.2,224.3,344.7,225.3z"/>
		<path d="M447,130.3c1.3-0.8,2.2-1.4,3.4-2.1C450.8,130.2,451.3,132.2,447,130.3z"/>
		<path d="M518.4,224.7c-1-0.1-1.9-0.1-3.2-0.2c0.1-1.1,0.1-2,0.2-3.1c1.5,1,2.7,1.7,3.8,2.5C519,224.2,518.7,224.5,518.4,224.7z"/>
		<path d="M443.8,125.4c-0.5,0.8-1.1,1.8-2.1,3.4C441.4,124.9,441.4,124.9,443.8,125.4z"/>
		<path d="M397.5,176.6c1.6-0.1,3.1-0.1,4.7-0.2c0,0.4,0.1,0.7,0.1,1.1c-1.6,0.2-3.2,0.4-4.7,0.6
			C397.5,177.6,397.5,177.1,397.5,176.6z"/>
		<path d="M456.4,190c-0.7-1.1-1.5-2.3-2.5-3.8c1.1-0.1,1.9-0.1,3.1-0.2c0.1,1.3,0.2,2.2,0.2,3.2C456.9,189.5,456.7,189.8,456.4,190
			z"/>
		<path d="M465.2,179.6c1.2,0.2,3.1-0.8,3.2,1.6C467.2,180.9,465.4,182,465.2,179.6z"/>
		<path d="M432.6,124.7c0,1.1,0,2.1,0,3.2c-0.3,0-0.5,0-0.8,0c0-1.1,0-2.1,0-3.2C432.1,124.7,432.3,124.7,432.6,124.7z"/>
		<path d="M387.9,182.8c0.1-2.4,2-1.4,3.2-1.6C391,183.6,389.1,182.5,387.9,182.8z"/>
		<path d="M465.2,179.6c-1.2-0.2-3.1,0.8-3.2-1.6C463.2,178.2,465.1,177.1,465.2,179.6z"/>
		<path d="M399.1,144.1c-1.2-0.2-3.1,0.8-3.2-1.6C397.1,142.7,399,141.7,399.1,144.1z"/>
		<path d="M346,203.7c-0.1,2.4-2,1.4-3.2,1.6C342.9,202.9,344.7,204,346,203.7z"/>
		<path d="M394.3,179.6c0.1-2.4,2-1.4,3.2-1.6C397.4,180.4,395.5,179.3,394.3,179.6z"/>
		<path d="M458.1,176.1c2,0.6,2.9,0.8,3.9,1.1c-0.8,0.3-1.5,0.6-2.3,0.7C459.5,177.9,459.2,177.3,458.1,176.1z"/>
		<path d="M394.3,179.6c-0.1,2.4-2,1.4-3.2,1.6C391.2,178.8,393.1,179.8,394.3,179.6z"/>
		<path d="M387.9,182.8c-0.1,2.4-2,1.4-3.2,1.6C384.8,182,386.6,183,387.9,182.8z"/>
		<path d="M460.4,145.7c-0.1,2.4-2,1.4-3.2,1.6C457.3,144.9,459.2,145.9,460.4,145.7z"/>
		<path d="M460.4,145.7c0.1-2.4,2-1.4,3.2-1.6C463.5,146.5,461.6,145.5,460.4,145.7z"/>
		<path d="M412.4,129.6c0-1.1,0-2.1,0-3.2c0.3,0,0.5,0,0.8,0c0,1.1,0,2.1,0,3.2C413,129.6,412.7,129.6,412.4,129.6z"/>
		<path d="M399.3,143.9c0.4,0.4,0.9,0.7,1.3,1.1c-0.2,0.2-0.3,0.3-0.5,0.5c-0.4-0.4-0.7-0.9-1.1-1.3
			C399.1,144.1,399.2,144,399.3,143.9z"/>
		<path d="M344.3,258.5c-0.5,0.5-1.1,1.1-1.6,1.6C343.3,259.6,343.8,259.1,344.3,258.5z"/>
		<path d="M328.2,260.1c0.5-0.5,1.1-1.1,1.6-1.6C329.3,259.1,328.8,259.6,328.2,260.1z"/>
		<path d="M329.8,258.5c0.5-0.5,1.1-1.1,1.6-1.6C330.9,257.5,330.4,258,329.8,258.5z"/>
		<path d="M320.2,253.7c0.5-0.5,1.1-1.1,1.6-1.6C321.2,252.6,320.7,253.2,320.2,253.7z"/>
		<path d="M345.8,203.6c0.4-0.4,0.7-0.9,1.1-1.3c0.2,0.2,0.3,0.3,0.5,0.5c-0.4,0.4-0.9,0.7-1.3,1.1
			C346,203.8,345.9,203.7,345.8,203.6z"/>
		<path d="M386.8,169.9c0-0.5,0-1.1,0-1.6c0.2,0,0.4,0,0.5,0c0,0.5,0,1.1,0,1.6C387.1,169.9,387,169.9,386.8,169.9z"/>
		<path d="M463.5,131c0.4-0.4,0.7-0.9,1.1-1.3c0.2,0.2,0.3,0.3,0.5,0.5c-0.4,0.4-0.9,0.7-1.3,1.1C463.7,131.3,463.6,131.2,463.5,131
			z"/>
		<path d="M457.3,147.5c-0.4,0.4-0.7,0.9-1.1,1.3c-0.2-0.2-0.3-0.3-0.5-0.5c0.4-0.4,0.9-0.7,1.3-1.1
			C457.1,147.2,457.2,147.4,457.3,147.5z"/>
		<path d="M410.3,185.9c0.4-0.4,0.7-0.9,1.1-1.3c0.2,0.2,0.3,0.3,0.5,0.5c-0.4,0.4-0.9,0.7-1.3,1.1
			C410.5,186.1,410.4,186,410.3,185.9z"/>
		<path d="M462,132.8c0.5-0.5,1.1-1.1,1.6-1.6C463.1,131.7,462.6,132.3,462,132.8z"/>
		<path d="M353.8,235.8c0.4-0.4,0.7-0.9,1.1-1.3c0.2,0.2,0.3,0.3,0.5,0.5c-0.4,0.4-0.9,0.7-1.3,1.1C354.1,236,354,235.9,353.8,235.8
			z"/>
		<path d="M325,263.4c0.5-0.5,1.1-1.1,1.6-1.6C326.1,262.3,325.5,262.8,325,263.4z"/>
		<path d="M326.6,277.9c0.5-0.5,1.1-1.1,1.6-1.6C327.7,276.8,327.1,277.3,326.6,277.9z"/>
		<path d="M300.8,285.9c0.5-0.5,1.1-1.1,1.6-1.6C301.9,284.9,301.4,285.4,300.8,285.9z"/>
		<path d="M342.6,193.9c0.4-0.4,0.7-0.9,1.1-1.3c0.2,0.2,0.3,0.3,0.5,0.5c-0.4,0.4-0.9,0.7-1.3,1.1
			C342.8,194.1,342.7,194,342.6,193.9z"/>
		<path d="M300.8,285.9c-0.5,0.5-1.1,1.1-1.6,1.6C299.7,287,300.3,286.5,300.8,285.9z"/>
		<path d="M299.2,287.6c-0.5,0.5-1.1,1.1-1.6,1.6C298.1,288.6,298.7,288.1,299.2,287.6z"/>
		<path d="M296,290.8c0.5-0.5,1.1-1.1,1.6-1.6C297.1,289.7,296.5,290.2,296,290.8z"/>
		<path d="M342.7,260.1c-0.5,0.5-1.1,1.1-1.6,1.6C341.7,261.2,342.2,260.7,342.7,260.1z"/>
		<path d="M328.2,260.1c-0.5,0.5-1.1,1.1-1.6,1.6C327.1,261.2,327.7,260.7,328.2,260.1z"/>
		<path d="M392.7,189.2c-0.5,0.5-1.1,1.1-1.6,1.6C391.6,190.3,392.2,189.8,392.7,189.2z"/>
		<path d="M478.6,305.3c-8-5-10.3-9.2-9.6-14.8c1.1,1.1,2.3,1.9,2.6,2.9c1.2,3.8,2.8,6.9,6.9,8.4C479.9,302.3,480.9,304,478.6,305.3
			z"/>
		<path d="M518,293c-3.9,5.1-4.8,9.1-4.3,13.2c-1.1,1-1.8,1.7-2.7,2.5c-1.6-5,0.4-9.2,2.3-13.3C513.6,294.5,515.1,294.3,518,293z"/>
		<path d="M316.9,327.9c0,1.3,0,2.6,0,4.3c-1.4,0.3-2.9,0.5-4,0.7c0.6,1,1.3,2.1,2.3,3.7c1.6-1.5,2.9-2.7,4.7-4.4
			c0.1,1.9,0.2,3.4,0.3,5.1c-3.8,0-7.2,0-11.3,0c0.2-1.8,0.4-3.6,0.8-6.1c-0.8-0.9-2.2-2.6,0.6-3.9c-0.6-1.3-1.2-2.3-2-4
			c3.5,0,6.3,0,9.9,0c0.5,0.9,1.4,2.2,2.6,4.2C318.9,327.7,317.9,327.8,316.9,327.9c0.3-0.3,0.5-0.6,0.8-0.9
			c-1.1-0.7-2.3-1.5-3.8-2.5c-0.1,1.1-0.1,1.9-0.2,3.1C315,327.8,316,327.8,316.9,327.9z"/>
		<path d="M292.4,337.1c2.2-4.7,3.1-9,0.8-13.6c5.9-2.8,5.3,4.6,9.2,6.1c0-2.2,0-4.2,0-6.3c1.3-0.1,2-0.1,3.3-0.2
			c-0.6,2.6-1.3,4.9-1.5,7.3c-0.3,2.3-0.1,4.7-0.1,8.3c-2.9-3.8-5-6.5-7.7-10.1c-0.3,3.5-1.2,6.1,1.7,8.6
			C295.9,337.1,294.3,337.1,292.4,337.1z"/>
		<path d="M563.8,338.8c-2,0-3.5,0-5.6,0c2.6-4.6,3.2-9-0.2-13.7c3.7,0,6.7,0,10.1,0c0.4,0.4,1.1,1.1,2.1,2.1
			c-2.5,3.5-2.5,7.3,0.9,12.1c-2.4-0.6-3.7-0.6-4.4-1.3c-1.3-1.2-2.3-2.8-4.4-3.7C562.7,335.7,563.2,337,563.8,338.8z M564.4,331.1
			c0.8-0.8,1.5-1.5,2.3-2.3c-0.7-0.9-1.4-1.9-2.1-2.8c-1.2,1.3-1.9,2-2.6,2.7C562.9,329.6,563.6,330.3,564.4,331.1z"/>
		<path d="M579.9,324.7c1.5,3.9,3.1,7.8,4.5,11.8c0.3,0.8-0.3,1.8-0.7,4.1c-2-2.7-3.3-4.4-4.9-6.5c-1.2,1.8-2.2,3.4-3.3,5.1
			c-0.6-0.1-1.3-0.2-2.6-0.5c1.9-4.9,3.7-9.4,5.5-14C578.9,324.7,579.4,324.7,579.9,324.7z M579.4,329.7c-0.5,0.1-0.9,0.1-1.4,0.2
			c0.2,0.9,0.4,1.7,0.6,2.6c0.3,0,0.5-0.1,0.8-0.1C579.4,331.5,579.4,330.6,579.4,329.7z"/>
		<path d="M549.6,326.9c-2.5,1.2-3.6,1.7-5.4,2.5c0.5-1.7,1-3.1,1.4-4.6c3.3,0,6.2,0,9.3,0c0.5,0.5,1.3,1.3,2.5,2.5
			c-1.8,0.3-3.2,0.5-5.1,0.7c0,3.5,0,7.1,0,11c-1.6,0-2.6,0.1-3.6-0.1c-0.3-0.1-0.8-1.1-0.7-1.3
			C550.3,334.9,548.4,331.6,549.6,326.9z"/>
		<path d="M521.5,324.9c-0.7,3.4-1.3,6.6-1.9,10c1.1,1.1,2,2,3.3,3.1c1.2-0.8,2.2-1.5,3.6-2.6c0-3.4,0-7,0-10.7c1.3,0,2,0,3.5,0
			c-0.7,2.1-1.5,3.8-1.8,5.6c-0.3,2.1-0.1,4.2-0.1,6.3c-4.3,3.3-5,3.3-9.2,0.4c-0.5-4.1-1.1-8-1.6-12.2
			C518.5,324.9,520,324.9,521.5,324.9z"/>
		<path d="M540.1,338.4c0.8-2.1,1.1-3,1.6-4.4c1.1,1,1.9,1.8,2.7,2.6c-1,1-1.5,1.5-2.4,2.4c-2.6,0-5.4,0-8.9,0
			c0.7-4.5,1.7-9.2-0.7-14.3c2.4,0.1,3.8,0.2,5.2,0.2c-0.7,3.7-1.3,6.9-1.9,10.1C537.2,336.1,538.4,337,540.1,338.4z"/>
		<path d="M499.1,373.3c1.9,0,3.7,0,4.9,0c1.3,0.8,2.5,1.5,4,2.4c-1.3,1.5-2.1,2.5-3.1,3.7C503.1,377.3,498.9,377.9,499.1,373.3z"/>
		<path d="M507.4,371.9c1.8-0.6,3.7-1.1,5.8-1.8c0.1,0.4,0.2,1.3,0.5,2.6c-2.4,0-4.3,0-6.3,0C507.4,372.5,507.4,372.2,507.4,371.9z"
			/>
		<path d="M517.7,381.4c-0.7-1.1-1.3-2.2-2.1-3.4c1.1-0.1,2.5-0.2,4.7-0.3c-0.4,1.5-0.6,2.5-0.9,3.5
			C518.8,381.3,518.2,381.3,517.7,381.4z"/>
		<path d="M523.3,374.6c-1.2-0.2-3.1,0.8-3.2-1.6C521.3,373.2,523.1,372.2,523.3,374.6z"/>
		<path d="M519.9,373.2c-0.4-0.4-0.9-0.7-1.3-1.1c0.2-0.2,0.3-0.3,0.5-0.5c0.4,0.4,0.7,0.9,1.1,1.3C520.1,372.9,520,373,519.9,373.2
			z"/>
		<path d="M381.2,443.8c0.4-0.4,0.7-0.9,1.1-1.3c0.2,0.2,0.3,0.3,0.5,0.5c-0.4,0.4-0.9,0.7-1.3,1.1
			C381.5,444,381.4,443.9,381.2,443.8z"/>
		<path d="M342.7,398.8c-0.5,0.5-1.1,1.1-1.6,1.6C341.7,399.9,342.2,399.3,342.7,398.8z"/>
		<path d="M329.8,389.1c0.5-0.5,1.1-1.1,1.6-1.6C330.9,388,330.4,388.6,329.8,389.1z"/>
		<path d="M331.4,387.5c0.5-0.5,1.1-1.1,1.6-1.6C332.5,386.4,332,387,331.4,387.5z"/>
		<path d="M357.2,427.8c0.1-2.4,2-1.4,3.2-1.6C360.3,428.6,358.5,427.5,357.2,427.8z"/>
		<path d="M404,421.3c0.1-2.4,2-1.4,3.2-1.6C407.1,422.1,405.2,421.1,404,421.3z"/>
		<path d="M331.6,363.5c-0.4,0.4-0.7,0.9-1.1,1.3c-0.2-0.2-0.3-0.3-0.5-0.5c0.4-0.4,0.9-0.7,1.3-1.1
			C331.4,363.2,331.5,363.4,331.6,363.5z"/>
	</g>
</g>
<g>
</g>
<g>
</g>
<g>
</g>
<g>
</g>
<g>
</g>
<g>
</g>
<g>
</g>
<g>
</g>
<g>
</g>
<g>
</g>
<g>
</g>
<g>
</g>
<g>
</g>
<g>
</g>
<g>
</g>
</svg>
