<?xml version="1.0" encoding="utf-8"?>
<!-- Generator: Adobe Illustrator 20.1.0, SVG Export Plug-In . SVG Version: 6.00 Build 0)  -->
<svg version="1.1" xmlns="http://www.w3.org/2000/svg" xmlns:xlink="http://www.w3.org/1999/xlink" x="0px" y="0px"
	 viewBox="0 0 960 560" style="enable-background:new 0 0 960 560;" xml:space="preserve">
<style type="text/css">
	.st0{fill:none;stroke:#E2DB88;stroke-miterlimit:10;}
	.st1{fill:#F4D6B0;}
</style>
<g id="fill">
	<path id="XMLID_120_" class="st0" d="M300.8,177.9c1.5-2.5,1.5-5.8,0.4-8.8c-0.6-1.8-1.2-3.6-1.8-5.4c-1.4-20.9-3.6-41.8-6.7-62.6
		c-0.5-3.1-2.7-4.9-5.1-5.6c-0.1-5.3-0.1-10.6,0.1-15.9c0.6-13.7,0.1-27.3-7.2-39.3c-0.1-2.6-1.8-5.1-5.3-5c-1.1,0-2.2,0.1-3.2,0.3
		c-2.6,0.1-5.1,1-6.9,2.9c-11.2,8.6-6.8,32.4-6.1,44.5c1.2,22.9,2.5,45.8,3.7,68.8c0.1,1.7,0.8,3,1.8,4c1.5,34.9-0.8,69.8-6.7,104.3
		c-2.8-3.8-7-6.5-11.9-7.4c-0.7-0.1-1.5-0.2-2.3-0.3c1.3-2,1.6-4.4,1.4-6.9c0.4-0.7,0.7-1.6,0.7-2.6c1-12.7-4.5-24.5-14.4-31.9
		c-4.6-8-14-13.7-23.3-10.4c-11.1,4-14.1,15.9-15.2,26.4c-0.1,0.5-0.1,1,0,1.5c-1.9,1.9-3.5,4-5,6.2c-0.6-0.8-1.2-1.5-2-2.2
		c-5.8-5-13.2-2.2-16.8,3.5c-1.3,0.7-2.3,1.8-3,3.5c-3.1,8.2-3.8,16.7-2.6,25.4c0,2,0.1,3.9,0.4,5.8c-0.1-0.2-0.1-0.4-0.2-0.6
		c-2.2-7-5.5-13.3-11.6-17.5c-0.3-0.9-0.9-1.7-1.7-2.3c-8.8-7.2-17.9,2.1-17.8,11.4c0,0.3,0,0.7,0,1c-1.9,6.6-1.2,14.2,0.8,20.9
		c2.4,8.2,5.1,16,6.3,24.6c1.1,8.6,1.5,17.2,1.8,25.8c0.1,2.3,1.2,3.8,2.8,4.6c1.7,35,12.4,69,30.9,98.8c-0.4,1.5-0.5,3,0.1,4.6
		c12,33.6,18.3,68.9,18.2,104.7c0,5.2,4.4,9.5,9.1,10.2c1.7,1.2,3.7,2,5.5,2c25.1-0.3,50.1-0.7,75.2-1c5.8-0.1,11.9-5.6,9.9-12
		c-6.1-19.5-12.2-39-18.2-58.5c-2.9-9.4-5.9-18.9-8.8-28.3c-2.1-6.6-4.1-15.8-10.1-19.1c2-4.6,2.1-10,0-15.1
		c-0.1-0.1-0.1-0.2-0.2-0.4c0-0.7,0-1.4,0.1-2.2c4.1-7,7.7-14.3,10.9-21.7c1.1-1,2.1-2.3,2.8-4c3.4-9,6.9-17.9,10.3-26.9
		c0.8-2.1,0.8-4,0.3-5.6c2.9,0.8,6.4,0.4,8.6-1.8c11.7-12.3,12.2-28.5,9.4-44.3c-2.2-12.4-4.2-24.7-5.5-37.2c0.3-0.5,0.5-1,0.6-1.7
		c4.9-20.5,7.2-41.5,6.9-62.5c0.5-0.9,0.7-1.9,0.7-3.1c0-1.8,0-3.7,0-5.5c0.4-0.1,0.7-0.4,0.8-1C303.2,197,302.8,187.4,300.8,177.9z
		 M169.5,284c0.4,0.5,0.8,0.9,1.2,1.4c0,0.1-0.1,0.1-0.1,0.2c-0.2-0.1-0.6-0.3-1-0.8c-2.1-2-3.1-4.9-3.9-7.8
		C166.5,279.4,167.8,281.8,169.5,284z M180.4,321.5c-0.5,1.2-0.8,2.4-1.2,3.7c-0.6-1.5-1.2-2.9-1.8-4.3c-2.5-5.6-8-6.3-12.2-4.2
		c-0.4-1.8-0.7-3.7-1.1-5.5c0.8-0.2,1.5-0.5,2.3-0.9c2.8-1.3,4.4-3.5,4.9-5.9c2.3-0.1,4.4-0.5,6.4-1.4c-0.6,1.9-1,3.9-1.1,6
		c-0.1,4.4,1.5,8.5,4.1,11.8C180.6,321.1,180.5,321.3,180.4,321.5z M189.3,353.1c-0.3,0.8-0.7,1.6-1,2.4c-0.6-3.1-1.3-6.2-2.1-9.3
		c1.9,1.3,4.1,2.2,6.4,2.6C191.2,349.9,190.1,351.4,189.3,353.1z M201.2,347.5c0.6-0.3,1.2-0.6,1.7-0.9c0,0.6,0,1.2,0.1,1.8
		C202.4,348.1,201.8,347.8,201.2,347.5z M205.2,440l-0.6,0c0.2-0.5,0.5-1,0.7-1.4c0.3,0.5,0.5,0.9,0.9,1.3
		C205.9,440,205.5,440,205.2,440z M256.3,538.4c-2.4,0-4.9,0.1-7.3,0.1c0.9-0.1,1.7-0.3,2.5-0.4c1.4-0.2,2.6-0.7,3.6-1.4
		C255.5,537.3,255.9,537.9,256.3,538.4z M273.8,358.3c0.1-0.4,0.2-0.7,0.3-1.1c0.1,0.4,0.2,0.8,0.4,1.3
		C274.2,358.4,274,358.3,273.8,358.3z"/>
</g>
<g id="Layer_1">
	<path id="XMLID_58_" d="M133.3,251l0.3,0.1"/>
	<path id="XMLID_33_" d="M225.6,444c-7.3,0.8-14.6,1.7-21.6,4.1c-1.6,0.6-3.3-0.5-4.9-1.2c-5.6-2.6-12.5-1.2-17,3.4
		c5.7-0.5,11.4-1.1,17.1-1.6c-4.5,6.9-14.1,6.7-20.3,1.9c-6.2-4.8-9.9-12.8-13.2-20.4c-11-25.3-21.6-51.6-24.2-79.7
		c2.5,37.7,15.2,74.4,35.9,103.9c2.5,3.6,3.2,8.4,3.7,13c3.8,31.3,7.6,62.6,11.4,94c0.9,0,1.7,0,2.5,0.2
		c-4.2-34-8.3-67.9-12.3-101.9c17-8.3,35.4-12.9,54-13.5c3.5-0.1,7.7-0.7,9-4.3C238.9,442.5,232.3,443.2,225.6,444z"/>
	<path id="XMLID_56_" d="M280.2,312L280.2,312"/>
	<path id="XMLID_55_" d="M272.9,94.4c4.2,0.4,8.4,0.7,12.7,1.1c1.6,1.4,3.2,2.8,4.8,4.1c-0.8-4.3-4.5-7.5-8.3-7.2
		c0.4-1.9,2.3-2.7,3.5-4c1.3-1.3,1.4-4.5-0.3-4.4c0.9-2.1,3-3.4,5.1-3.2c-0.6-7-1.3-14-1.9-21c-0.5-5.3-1-10.7-2.9-15.5
		c-1.9-4.9-5.5-9.2-10.1-10.2c-6.7-1.6-13.3,4.4-15.9,11.6c-2.6,7.2-2.1,15.3-1.5,23c0.4,5.2,0.7,10.5,1.1,15.7
		c5.6,2.9,8.5,11.2,6.2,17.7c-0.8-5.5-2.6-10.8-5.4-15.4c0.9,23,1.9,46,2.8,69c0.1,1.6-0.2,3.7-1.6,4.1c-1.9-30.8-3.8-61.5-5.6-92.3
		c-0.7-10.9-0.8-23.3,6.1-30.8c6.2-6.7,17.2-6.3,23,0.8c3.7,4.5,5.2,10.7,6.4,16.7c3.9,20.6,5.1,41.8,3.5,62.8
		c-1.6-2.2-2.1-5.4-1.3-8.1c-8.3-0.4-16.7-0.8-25-1.1c-1.4-0.1-2.9-0.2-4-1.3c-1-1.1-0.9-3.5,0.5-3.9c2.3,3.7,7.3,3.1,11.1,1.6
		c3.8-1.5,8.2-3.3,11.5-0.8c0.3-3.3-3.2-5.5-6.2-5.6c-3-0.1-6,1-8.8-0.1c-2.8-1.1-4.6-5.9-2-7.7c-1.7,0-3.3-1.5-3.6-3.4
		c4.1-2.4,9.8,0.2,11.2,5.2C276.4,89.1,272.1,91.5,272.9,94.4z"/>
	<path id="XMLID_54_" d="M132.5,251.8l0.3,0.1"/>
	<path id="XMLID_114_" d="M254.3,252.2c2.9-1.4,2.7-7.9,5.7-7.5c-0.7,4.8-1.5,9.6-2.2,14.4c-4.3-5-10.5-7.7-16.6-7.1
		c-1.3,0.1-1.9-1.8-2-3.2c-0.8-8.8-0.8-17.6-0.1-26.3c0.4-5.1-2.6-9.6-5.9-13.1c-6.4-6.6-15.1-10.9-23.6-9.1
		c-8.5,1.8-15.8,11-14.8,20.7c0.3,2.4,0,6-2.1,5.6c-2.2-9.3,1.8-19.9,9-25.1c7.1-5.3,16.8-5.3,24.3-0.9c5.1,3,9.2,7.7,13.1,12.4
		c6.5,7.8,13.3,17.6,11.5,28.2c-0.4,2.4-1.3,4.8-0.9,7.2C250.1,250.8,252.3,253.1,254.3,252.2 M246.1,230.9
		c-0.4-2.4-1.8-4.5-3.7-5.6c-0.9,3.5-0.3,7.4,1.6,10.3C245.2,234.4,246,232.7,246.1,230.9L246.1,230.9z"/>
	<path id="XMLID_51_" d="M238.4,435.2c0.5,0,0.5-1.1,0-1.1C237.9,434.1,237.9,435.2,238.4,435.2z"/>
	<path id="XMLID_50_" d="M163,252.9c-1.7,0.6-2.3-2.5-2-4.4c1.2-7.1,3.2-14.6,8.4-18.7c4.5-3.6,10.5-3.7,16-3c3,0.4,6.3,1.2,7.8,4.1
		c0.8,1.5,1,3.3,1.1,5.1c0.3,4.4,0.6,8.8,0.7,13.2c-2.4-0.6-3.4-3.9-3.4-6.7c0-2.8,0.6-5.7-0.4-8.3c-1.5-4.1-6.1-5.2-9.9-5.4
		c-3.2-0.1-6.6,0.2-9.5,2C165.3,234.7,163.8,244.4,163,252.9z"/>
	<path id="XMLID_49_" d="M280.5,302.4c-0.3,0.5-1.1-0.3-0.7-0.7c0.4-0.4,1.1,0.3,0.8,0.8L280.5,302.4z"/>
	<path id="XMLID_47_" d="M203.4,439.3c0.8-0.1,0.9,1.6,0.1,1.7c-0.8,0-0.8-1.7,0-1.6L203.4,439.3z"/>
	<path id="XMLID_46_" d="M276.2,283.4c0.7,0.1,1.4-0.6,1.9-1.2c2.6-3.1,5.2-6.3,7.8-9.4c-0.4,4.2-2.3,8.1-5.1,10.8
		c-2.9,2.8-1,8.2,1.5,11.4c2.5,3.2,5.7,6.9,4.8,11c-7.1-8-13.3-17.1-18.3-26.9c-0.3-2.2-0.5-4.5-0.8-6.7c2.2,3.2,4.5,6.4,6.7,9.6
		C275.1,282.7,275.6,283.3,276.2,283.4z"/>
	<path id="XMLID_45_" d="M294.3,129.7c-0.5,0.4-1.1-0.3-1-1c0.1-0.6,0.6-1.1,1-1.4c0.5,0.7,0.5,1.8,0,2.5L294.3,129.7z"/>
	<path id="XMLID_72_" d="M289,536.5c-5,3.2-4.8,11.3-4,17.8c1.3-0.1,2.7-0.1,4-0.2c-2.5-2.9-2.5-8-0.2-11c0.6,3.6,1.2,7.2,1.7,10.9
		c0.4,2.4,0.8,4.8,1.5,7.1c6.5-1.4,13.2-0.9,19.9-0.8c-7.4-32.5-14.3-65.2-20.5-98.1c-0.8-4-1.4-8.3-1.1-12.3
		c-6.4-12.5-1.8-30,1-42.7c3.1-14.1,7.8-28.1,13.9-41.4c0.1-0.9,0.3-1.7,0.5-2.5c-1.6-4.5-1.2-10.8,0.2-15.6
		c2.3-7.8,5.3-17.4,0.3-23.3c-4.3-5-4.4-12.8-4.3-19.7c0.7-34.5,1.4-68.9,2.1-103.4c-4.6,11.1-6.5,23.6-5.3,35.8
		c1.1,10.8-4.6,22-13.3,26.5c4.8,2,10.7-0.8,12.8-6.1c-2.5,15.1-3.9,30.5-4.1,45.9c0,2.2,0.9,4.3,1.8,6.2c2.5,5.5,5.1,10.9,7.6,16.4
		c-1.8,0.7-3.6,1.5-5.4,2.2c1.5,1.8,4.3,1.6,5.7-0.3c0.9,14-9.3,27.7-21.6,29c-12.3,1.3-24.6-10-26-23.9c4.7,2.8,10.5,3.2,15.4,0.8
		c-9.8,0.4-19.6-5-25.3-14c7.8-2.3,11.2-15.2,5.8-22.1c-5.1,3.4-8.3,10.2-8.1,16.9c-1.9,1.5-4-2.2-3.4-4.7c0.6-2.6,2.4-4.9,2-7.5
		c-0.4-2.9-3.4-4.6-6-4.5c-2.6,0.1-5.1,1.5-7.6,2.3c-11,3.4-22.2-4-31.7-11.2c3,5.3,6.9,10,11.4,13.6c-14.5-4.9-26.6-18.2-31.3-34.6
		c1.2,15.1,9.5,28.2,17.5,40.3c-4.2,3.1-9,5-13.9,5.5c4.1,4.5,4.5,12.6,0.9,17.6c-5-19.1-10-38.2-15.1-57.3
		c-2.3-8.7-4.8-17.8-10.8-23.9s-16.5-7.2-21.3,0.1c4.5-5.6,13-4.3,18.1,0.7c5,5,7.4,12.5,9.6,19.7c1.8,5.8,3.5,11.7,5.3,17.5
		c1.6,5.2,3.1,11,0.9,15.9c-2.5,5.4-8.6,7.1-13.9,6.9c-5.3-0.3-10.7-2-16-1.1c1.9-9.7-0.2-20.4-5.5-28.3c-5.5-8.3-3.1-20-0.4-29.9
		c-7.8,6.5-6,20.2-2.2,30.3s9.1,21,5.9,31.3c6.4-5,14.8,1.7,20,8.3c5.2,6.6,12.1,14.3,19.4,11.4c5.8-2.3,10,6.3,12.3,12.7
		c2.4,6.5,6,13,11.6,16.1c5.6,3.1,13.5,1.7,16.5-4.5c5.6-11.6,23.3-12,26-25c0.9-4.2,6.7-4.1,9.3-1c2.6,3.2,3.2,7.8,4.7,11.7
		c5,12.7,18.8,16.9,30.8,19.5c-5,2.7-11,3.1-16.2,1.1c4.2,3,8.3,6,12.5,8.9c-5.8,0.7-11.7-0.8-16.8-4.1c4.1,4,8.2,8.1,12.3,12.1
		c-3.4,2.3-7.8,2.6-11.4,0.9c1.7,1.4,3.3,2.8,5,4.2c-2.8,1.2-4.2,5.5-2.8,8.5c1.8-1.9,2.9-4.5,3-7.3c2.6,1.1,2.3,5.9,0.1,7.7
		c-2.3,1.8-5.4,1.5-8.1,0.8c-5.6-1.4-10.9-4-15.7-7.6c6.2,6.3,12.4,12.5,18.6,18.8c-9.5-2.1-18.6-6.2-26.8-11.9
		c6.4,5.9,12.9,11.8,19.3,17.8c-12.3-4.1-21.8-15.1-30.7-25.7c7.4,11.9,16.7,22.2,27.4,30.3c-9.2-3.9-17.6-9.8-24.7-17.5
		c1.5,2.7,3,5.4,4.5,8.1c-2-0.1-3.9-0.2-5.9-0.4c0,5.9,5.3,9.8,10.2,11.8s10.5,3.5,13.3,8.4c-4.8-1.1-9.8-1.3-14.7-0.7
		c5,1.8,9.4,5.8,12,11c-2.5-0.5-4,3.5-2.9,6c1.1,2.5,3.6,3.8,5.9,4.8c-2.6,1-5.1,1.9-7.7,2.9c3.9,0.6,7.8,1.3,11.7,1.9
		c-0.3,2.9-3.3,4.9-5.7,3.9c-0.1,2.7-0.3,5.3-0.4,8c2.5-3,5.5-6.3,9.1-5.9c3.6,0.4,5.5,7.3,2,8.4c-0.3,1-1.7,1.3-2.3,0.5
		c-0.6-0.9,0-2.4,0.9-2.5c-1.2-1.8-3.9-1.9-5.3-0.2c-1.4,1.6-1.1,4.6,0.5,6c-1.5-1-3.1-2-4.6-2.9c-0.4,5-0.8,10.1-1.2,15.1
		c1.1-1.2,2.1-2.3,3.2-3.5c2.2,3,1.6,7.4,0.5,11.1c-1.1,3.7-2.5,7.6-1.6,11.3c1,3.7,5.9,6,7.8,2.8c-2.4,1.9-5.5-2.5-4.3-5.5
		c1.3-3,4.5-4.1,7.5-4.5c-2.7-0.2-4.7-3.4-4.9-6.4c-0.2-3.1,0.9-6.1,1.9-8.9c0.3,3.4,0.7,6.8,1,10.2c3.7-1.3,8.2,0.5,10.3,4.2
		c0.8,1.3,1.3,2.9,2.5,3.7c0.7,0.4,1.6,0.3,2.2-0.1c-2.1,5.6-2.2,12.1-0.2,17.7c0-2.3-0.1-4.7-0.1-7c3.3,2.8,5.3,7.4,5.3,12.1
		c-0.6,1.8-1.9,3.4-3.4,4.2c3,2.4,1.5,7.7,0.2,11.6c-1.4,3.9-1.2,10,2.5,10.5C278.4,542.7,284,534,289,536.5z M199.8,335.1l0-0.9
		c0.7,0.1,0.8,1.3,0.3,1.9c-0.5,0.6-1.2,0.7-1.9,0.8C198.1,335.9,199,334.9,199.8,335.1z M190,317.6l-0.1,0c-2.2,1.9-6-0.4-5.8-3.6
		c1.4,0.2,2.8,0.4,4.2,0.7c0.7,0.1,1.5,0.3,2,0.9C190.9,316.2,190.7,317.4,190,317.6z M195.3,341.5c1.2,1,2.4,2.1,2.8,3.7
		c0.3,1.6-0.8,3.7-2.2,3.3c-0.4-2.2-0.8-4.5-1.1-6.7L195.3,341.5z M210.3,355.7c-2.1,1.2-4.5,1.4-6.9,1.4c-3.2,0.1-7.5-1-7.7-4.7
		c0.8-0.6,1.8-0.1,2.7,0.3c5.2,2.3,11.5,0.9,15.5-3.4C214.1,351.9,212.4,354.5,210.3,355.7z M232.9,340.6
		c-4.5,4.9-12.4,2.6-16.5-2.8c-3.5-4.5-5.1-10.8-4.3-16.8c2.2,4.3,3.9,8.9,5,13.7c1-0.2,2-0.3,3-0.5c-0.5-2.1-1-4.2-1.5-6.3
		c-0.1-0.5-0.2-1,0-1.4c0.2-0.6,0.8-0.8,1.4-0.9c1.6-0.2,3.3,0.3,4.7,1.3c-2,2.2-2.4,6-0.9,8.6c1.7-2.3,5.8-0.8,6,2.2
		c1.5,0.4,4-0.2,3.8,1.5C233.5,339.9,233.2,340.3,232.9,340.6z M230.4,334.7c-0.7-0.7-1-1.9-0.6-2.9c3.2-1.9,7.5-0.6,9.6,2.7
		C236.4,334.6,233.4,334.6,230.4,334.7z M263.1,453.7c-0.6-0.7-1.2-1.4-1.8-2.1c0.6-0.6,1.6-0.6,2.2,0l0.1-0.1
		C264,452.2,263.8,453.4,263.1,453.7z M260.7,445.6l0.2-0.2c1.1,0.1,2.2,0.2,3.2,0.3C263.4,447,261.4,446.9,260.7,445.6z
		 M271.1,478.5L271.1,478.5c-0.7-0.1-1.3-0.2-1.9-0.3C269.9,477.5,271.4,477.6,271.1,478.5z M269.4,448.3L269.4,448.3
		c-0.1-1,1.5-1.6,2-0.7C271.4,448.7,269.9,449.2,269.4,448.3z M277.3,479.3c-1.8,0-3.6-0.7-5-2c1.7-1.2,4.3-0.5,5.4,1.4L277.3,479.3
		z"/>
	<path id="XMLID_29_" d="M302.2,144.5c-1-8.6-2-17.2-3.1-25.8c-0.1-1.2-0.3-2.6,0.1-3.7c3.5,10.5,5,21.8,4.5,33.1
		C302.7,147.5,302.4,145.9,302.2,144.5z"/>
	<path id="XMLID_28_" d="M278.8,522.9c-1,0.7-2.1-1.6-1-2.2c0.4,0.7,0.7,1.3,1.1,2L278.8,522.9z"/>
	<path id="XMLID_27_" d="M251.8,349.4c4.1,5,7.5,10.6,10.2,16.7C256.6,362.8,252.7,356.4,251.8,349.4L251.8,349.4z"/>
	<path id="XMLID_26_" d="M267.4,286c-0.2-0.5,0.4-1,0.9-0.8c0.5,0.2,0.7,0.7,0.9,1.2c-0.5,0.5-1.4,0.2-1.7-0.5L267.4,286z"/>
	<path id="XMLID_25_" d="M280.6,161.9c1.7,1.4,4.5-0.1,4.7-2.4c0.8,1,2.2,1,3.1,0.1c0.8-0.9,0.9-2.6,0.1-3.5
		c-1.2-1.4,0.4-3.8,2.1-4.5c1.7-0.7,3.8-1.1,4.4-3c0.3-1.1,0-2.3,0-3.5c0-1.2,0.9-2.6,1.9-2.2c1.3,5.3,0.6,11,0,16.5
		c-0.1,1-0.3,2-0.8,2.8c-0.4,0.6-1.1,0.9-1.7,1.3c-2.3,1.2-4.8,2.3-7.3,2.4C284.4,165.9,281.7,164.6,280.6,161.9z"/>
	<path id="XMLID_24_" d="M301.8,164.8c3.9,7.2,4.5,16,5,24.4c0.2,2.9,0,6.5-2.3,7.7C304.5,186.1,303.6,175.4,301.8,164.8z"/>
	<path id="XMLID_22_" d="M281.1,161.4c-4-1.7-8-3.4-12-5.1c-1.1-0.5-2.5-1.6-2-2.8c4.9,0.1,9.7,1.7,13.8,4.7
		C281,159.3,281,160.4,281.1,161.4z"/>
	<path id="XMLID_21_" d="M276.2,554c0.4-0.9,0.8-1.9,1.2-2.8c1,0.8,0.4,3-0.8,3L276.2,554z"/>
	<path id="XMLID_20_" d="M266.2,217c1.2-2.2,4.6-1.8,5.4,0.6c-1.5,0.8-3.4,0.7-4.9-0.2L266.2,217z"/>
	<path id="XMLID_19_" d="M290.6,140.9c-1.9-0.1-3.1-3-2-4.8c3.1,2.1,5.2,5.9,5.6,10C291.8,146.6,289.6,143.4,290.6,140.9z"/>
	<path id="XMLID_18_" d="M275.6,217.5c3.2-1.6,7.1-1.4,10.1,0.6c1.5,0.9,2.9,2.5,3.1,4.4c-3.7-1.1-7.4-2.3-11.1-3.4
		C276.8,218.8,275.9,218.4,275.6,217.5z"/>
	<path id="XMLID_17_" d="M265.5,498.2c0.7-2.4,3.7-3.3,5.3-1.6c-1.3,1.2-3.1,1.9-4.8,1.8L265.5,498.2z"/>
	<path id="XMLID_16_" d="M303.9,151.9c1.4,1.8,0.9,4.9-1,6c-0.4-2,0-4.2,0.9-5.9L303.9,151.9z"/>
	<path id="XMLID_15_" d="M138.5,317.1c2.3,4,3.5,8.8,3.4,13.6c0,1-0.3,2.4-1.3,2.4C139.9,327.7,139.2,322.4,138.5,317.1z"/>
	<path id="XMLID_14_" d="M239.9,453.6c-0.6-0.3-1.2-0.7-1.8-1c1.2-1.7,3.7-1.7,5-0.2c-1.1,0.4-2.2,0.9-3.3,1.3L239.9,453.6z"/>
	<path id="XMLID_13_" d="M218.3,257.4c0.6,3.7-0.7,7.7-3.3,10c0.2-3.3,0.4-6.6,0.6-9.9C216.4,256.8,217.5,256.8,218.3,257.4
		L218.3,257.4z"/>
	<path id="XMLID_12_" d="M141.8,338.6c0.1,3.3,0.1,6.6,0.2,9.9C139.6,346.2,140,341.6,141.8,338.6z"/>
	<path id="XMLID_11_" d="M256.8,319.8c0.1,1.6-0.8,3.1-2.2,3.6c-1.3,0.5-2.9-0.2-3.6-1.6c1.3-1.9,3.8-2.7,5.8-1.9L256.8,319.8z"/>
	<path id="XMLID_10_" d="M211.1,257.3c-1.6,1-3.9,0.7-5.2-0.8c1.6-1.2,3.7-1.6,5.6-1.1C211.9,256,211.7,257.1,211.1,257.3
		L211.1,257.3z"/>
	<path id="XMLID_8_" d="M201.9,281.6c-1.4,0.4-3.3,0.6-4-0.9c1.8-1,4-1.2,6-0.5c-0.3,0.9-1.1,1.5-1.9,1.6L201.9,281.6z"/>
	<path id="XMLID_7_" d="M260.2,260.9c-0.5-0.1-0.4-1.1,0.2-1.3c0.5-0.2,1,0.2,1.5,0.5c1,0.8,2,1.8,2.3,3.1c0.3,1.3-0.5,3-1.7,2.9
		c-0.7-1.7-1.5-3.3-2.2-5L260.2,260.9z"/>
	<path id="XMLID_5_" d="M284.9,71.9c0.6,0.5,1,1.3,1.1,2.1c-0.5,0.7-1.3,1.2-2,1.3c-0.5-1.6-1-3.2-1.5-4.8c0.9-0.3,2.1,0.4,2.3,1.4
		L284.9,71.9z"/>
	<path id="XMLID_4_" d="M256.9,319.8c0-1,0-1.9,0-2.9c0.6-0.4,1.2-0.8,1.8-1.2c0.9,0.7,1.5,1.7,1.8,2.8
		C259.5,319.5,258.2,319.9,256.9,319.8L256.9,319.8z"/>
	<path id="XMLID_3_" d="M295.1,174.1c-1.1-0.4-1.9-1.7-1.8-3.1c0.2-1.3,1.3-2.4,2.4-2.4c1.2,1.7,0.9,4.5-0.6,5.9L295.1,174.1z"/>
	<path id="XMLID_2_" d="M261.3,505.8c0.5-1.2,1-2.5,1.5-3.7c-0.8-0.1-1.5-0.9-1.5-1.8c1.6-0.1,3,1.7,2.8,3.4
		C263.5,504.9,262.4,505.8,261.3,505.8L261.3,505.8z"/>
	<path id="XMLID_1_" d="M239.8,382c1.2,0.4,1.9,1.9,1.6,3.2c-1.6-0.6-2.9-2-3.4-3.8c0.5-0.6,1.5-0.4,1.9,0.4L239.8,382z"/>
	<g id="XMLID_6_">
		<g id="XMLID_67_">
			<path d="M261,160.5c1.9,0,1.9-3,0-3C259.1,157.5,259.1,160.5,261,160.5L261,160.5z"/>
		</g>
	</g>
	<g id="XMLID_9_">
		<g id="XMLID_42_">
			<path id="XMLID_30_" d="M265.9,202.5c-0.8-10.8-1.7-21.7-2.5-32.5c-0.1-1.9-3.1-1.9-3,0c0.8,10.8,1.7,21.7,2.5,32.5
				C263.1,204.4,266.1,204.4,265.9,202.5L265.9,202.5z"/>
		</g>
	</g>
	<g id="XMLID_23_">
		<g id="XMLID_62_">
			<path id="XMLID_31_" d="M258.3,254.9c1.8-10.3,3.5-20.6,5.3-31c0.3-1.9-2.6-2.7-2.9-0.8c-1.8,10.3-3.5,20.6-5.3,31
				C255.1,256,258,256.8,258.3,254.9L258.3,254.9z"/>
		</g>
	</g>
	<g id="XMLID_32_">
		<g id="XMLID_85_">
			<path d="M349,131.5c1.9,0,1.9-3,0-3C347.1,128.5,347.1,131.5,349,131.5L349,131.5z"/>
		</g>
	</g>
	<g id="XMLID_34_">
		<g id="XMLID_92_">
			<path d="M263.4,222c0.7-11.7,1.5-23.3,2.2-35c0.1-1.9-2.9-1.9-3,0c-0.7,11.7-1.5,23.3-2.2,35C260.3,223.9,263.3,223.9,263.4,222
				L263.4,222z"/>
		</g>
	</g>
	<g id="XMLID_37_">
		<g id="XMLID_99_">
			<path class="st1" d="M199.5,279.5c-4.2,0-8.3,0-12.5,0c-1.9,0-1.9,3,0,3c4.2,0,8.3,0,12.5,0C201.4,282.5,201.4,279.5,199.5,279.5
				L199.5,279.5z"/>
		</g>
	</g>
	<g id="XMLID_40_">
		<g id="XMLID_115_">
			<path class="st1" d="M205.3,280.8c2-3.7,4-7.3,6-11c0.9-1.7-1.7-3.2-2.6-1.5c-2,3.7-4,7.3-6,11
				C201.8,280.9,204.4,282.5,205.3,280.8L205.3,280.8z"/>
		</g>
	</g>
	<g>
	</g>
	<g>
	</g>
	<g>
	</g>
	<g>
	</g>
	<g>
	</g>
	<g>
	</g>
	<g>
	</g>
	<g>
	</g>
	<g>
	</g>
	<g>
	</g>
	<g>
	</g>
	<g>
	</g>
	<g>
	</g>
	<g>
	</g>
	<g>
	</g>
</g>
</svg>
