<?xml version="1.0" encoding="utf-8"?>
<!-- Generator: Adobe Illustrator 20.1.0, SVG Export Plug-In . SVG Version: 6.00 Build 0)  -->
<svg version="1.1" id="Layer_1" xmlns="http://www.w3.org/2000/svg" xmlns:xlink="http://www.w3.org/1999/xlink" x="0px" y="0px"
	 viewBox="0 0 960 560" style="enable-background:new 0 0 960 560;" xml:space="preserve">
<style type="text/css">
	.st0{fill:none;}
	.st1{fill:#FFFFFF;}
	.st2{fill:none;stroke:#000000;stroke-miterlimit:10;}
</style>
<g>
	<rect x="455.7" y="261" class="st0" width="63.3" height="22.4"/>
	<path d="M465.6,269.2c0.7,0.3,1.2,0.7,1.6,1.3c0.4,0.6,0.6,1.9,0.6,4c0,1.5-0.1,2.7-0.4,3.4c-0.3,0.7-0.9,1.3-1.7,1.8
		c-0.9,0.5-2,0.7-3.5,0.7c-1.4,0-2.5-0.2-3.3-0.7c-0.8-0.4-1.4-1-1.8-1.8c-0.4-0.7-0.5-2-0.5-3.7c0-1.1,0.1-2.1,0.3-3
		c0.2-0.8,0.7-1.5,1.7-2c-0.6-0.3-1-0.7-1.3-1.3s-0.4-1.4-0.4-2.3c0-1.6,0.5-2.9,1.4-3.7c0.9-0.8,2.3-1.2,4.1-1.2
		c2.1,0,3.5,0.4,4.3,1.3s1.2,2.1,1.2,3.7c0,1-0.1,1.8-0.4,2.2S466.4,268.8,465.6,269.2z M463,273.1c0-0.7-0.1-1.2-0.2-1.4
		s-0.4-0.4-0.7-0.4c-0.3,0-0.5,0.1-0.7,0.3s-0.2,0.7-0.2,1.5v2.5c0,0.8,0.1,1.3,0.2,1.6s0.4,0.4,0.7,0.4c0.3,0,0.6-0.1,0.7-0.4
		s0.2-0.8,0.2-1.6V273.1z M462.9,265.2c0-0.6-0.1-1.1-0.2-1.3s-0.3-0.3-0.7-0.3c-0.3,0-0.5,0.1-0.6,0.3s-0.2,0.6-0.2,1.2v1.4
		c0,0.6,0.1,1,0.2,1.2s0.3,0.3,0.6,0.3c0.3,0,0.5-0.1,0.6-0.3s0.2-0.7,0.2-1.3V265.2z"/>
	<path d="M472.1,276.3v1.7c0,0.9-0.1,1.6-0.3,2.2s-0.6,1.1-1.1,1.5s-1.1,0.7-1.8,0.8v-1.4c0.5-0.3,0.7-0.6,0.8-1.1H469v-3.7H472.1z"
		/>
	<path d="M482.4,269.2c0.7,0.3,1.2,0.7,1.6,1.3c0.4,0.6,0.6,1.9,0.6,4c0,1.5-0.1,2.7-0.4,3.4c-0.3,0.7-0.9,1.3-1.7,1.8
		c-0.9,0.5-2,0.7-3.5,0.7c-1.4,0-2.5-0.2-3.3-0.7c-0.8-0.4-1.4-1-1.8-1.8c-0.4-0.7-0.5-2-0.5-3.7c0-1.1,0.1-2.1,0.3-3
		c0.2-0.8,0.7-1.5,1.7-2c-0.6-0.3-1-0.7-1.3-1.3s-0.4-1.4-0.4-2.3c0-1.6,0.5-2.9,1.4-3.7c0.9-0.8,2.3-1.2,4.1-1.2
		c2.1,0,3.5,0.4,4.3,1.3s1.2,2.1,1.2,3.7c0,1-0.1,1.8-0.4,2.2S483.3,268.8,482.4,269.2z M479.9,273.1c0-0.7-0.1-1.2-0.2-1.4
		s-0.4-0.4-0.7-0.4c-0.3,0-0.5,0.1-0.7,0.3s-0.2,0.7-0.2,1.5v2.5c0,0.8,0.1,1.3,0.2,1.6s0.4,0.4,0.7,0.4c0.3,0,0.6-0.1,0.7-0.4
		s0.2-0.8,0.2-1.6V273.1z M479.8,265.2c0-0.6-0.1-1.1-0.2-1.3s-0.3-0.3-0.7-0.3c-0.3,0-0.5,0.1-0.6,0.3s-0.2,0.6-0.2,1.2v1.4
		c0,0.6,0.1,1,0.2,1.2s0.3,0.3,0.6,0.3c0.3,0,0.5-0.1,0.6-0.3s0.2-0.7,0.2-1.3V265.2z"/>
	<path d="M496.6,261v3h-5.9v3.2c0.7-0.9,1.7-1.3,2.8-1.3c1.3,0,2.3,0.4,3,1.1s1,2.1,1,4.2v2.7c0,1.3-0.1,2.3-0.2,3s-0.4,1.2-0.8,1.7
		s-1,0.9-1.8,1.2s-1.7,0.4-2.8,0.4c-1.2,0-2.3-0.2-3.2-0.6s-1.6-1.1-2-1.9s-0.6-2.1-0.6-3.9v-1h4.7v1.2c0,1.2,0,2.1,0.1,2.6
		s0.4,0.8,0.9,0.8c0.2,0,0.4-0.1,0.6-0.2s0.2-0.3,0.2-0.5s0-0.9,0-2.2v-3.8c0-0.7-0.1-1.2-0.2-1.5s-0.4-0.4-0.7-0.4
		c-0.2,0-0.4,0.1-0.6,0.2s-0.2,0.3-0.3,0.4s-0.1,0.5-0.1,1.1h-4.7l0.2-9.6H496.6z"/>
	<path d="M510.3,267.5v6.3c0,1.4-0.1,2.5-0.2,3.1s-0.5,1.3-1,1.8s-1.1,1-1.8,1.2s-1.5,0.4-2.3,0.4c-1.1,0-2.1-0.1-2.8-0.4
		s-1.3-0.7-1.8-1.2s-0.8-1.1-0.9-1.8s-0.3-1.6-0.3-2.9v-6.6c0-1.7,0.2-3,0.5-3.9s0.9-1.6,1.8-2.1s2-0.8,3.3-0.8c1,0,2,0.2,2.8,0.5
		s1.4,0.8,1.8,1.3s0.7,1.1,0.8,1.8S510.3,266,510.3,267.5z M505.6,265.9c0-1,0-1.6-0.1-1.9s-0.3-0.4-0.7-0.4c-0.4,0-0.6,0.1-0.7,0.4
		s-0.2,0.9-0.2,1.9v9.3c0,1.1,0.1,1.8,0.2,2s0.3,0.3,0.7,0.3s0.6-0.1,0.7-0.4s0.2-0.9,0.2-1.8V265.9z"/>
</g>
<rect x="519" y="268.7" width="21.8" height="27.3"/>
<path d="M519.3,268.7c0,0,4.2-8.6,10.7-8.6s10.7,8.6,10.7,8.6"/>
<g>
	<rect x="523" y="272.6" class="st0" width="15.7" height="9.2"/>
	<path class="st1" d="M524.3,274.4v1.7c0,0.1,0,0.2,0,0.2s0.1,0.1,0.2,0.1v0.1h-1v-0.1c0.1,0,0.1-0.1,0.2-0.1c0,0,0-0.1,0-0.2v-3.9
		c0-0.1,0-0.2,0-0.2c0,0-0.1-0.1-0.2-0.1v-0.1h2.6c0.4,0,0.6,0,0.8,0.1c0.2,0,0.4,0.1,0.5,0.2c0.2,0.1,0.3,0.2,0.4,0.4
		c0.1,0.2,0.2,0.4,0.2,0.6c0,0.4-0.1,0.6-0.4,0.9c-0.2,0.2-0.6,0.4-1,0.4l1.2,1.8c0.1,0.1,0.2,0.2,0.3,0.2v0.1h-1.1v-0.1
		c0.1,0,0.2,0,0.2-0.1c0,0,0-0.1-0.1-0.2l-1.1-1.7H524.3z M524.3,273.9h1.9c0.3,0,0.5,0,0.6,0c0.1,0,0.2-0.1,0.3-0.1
		c0.2-0.1,0.4-0.4,0.4-0.7c0-0.3-0.1-0.6-0.4-0.7c-0.1-0.1-0.2-0.1-0.4-0.1s-0.3,0-0.6,0h-1.8V273.9z"/>
	<path class="st1" d="M529.1,276.1v-3.9c0-0.1,0-0.2,0-0.2c0,0-0.1-0.1-0.2-0.1v-0.1h1v0.1c-0.1,0-0.1,0.1-0.2,0.1s0,0.1,0,0.2v3.9
		c0,0.1,0,0.2,0,0.2c0,0,0.1,0.1,0.2,0.1v0.1h-1v-0.1c0.1,0,0.1-0.1,0.2-0.1C529.1,276.2,529.1,276.2,529.1,276.1z"/>
	<path class="st1" d="M531.7,274.4v1.7c0,0.1,0,0.1,0,0.2c0,0,0.1,0.1,0.2,0.1v0.1h-1v-0.1c0.1,0,0.1-0.1,0.2-0.1s0-0.1,0-0.2v-4
		c0-0.1,0-0.1,0-0.2c0,0-0.1-0.1-0.2-0.1v-0.1h2.5c0.3,0,0.6,0,0.8,0.1c0.2,0,0.4,0.1,0.5,0.2c0.2,0.1,0.3,0.2,0.4,0.4
		c0.1,0.2,0.2,0.4,0.2,0.6c0,0.3-0.1,0.6-0.3,0.8c-0.2,0.2-0.3,0.3-0.6,0.4s-0.6,0.1-1,0.1H531.7z M531.7,273.9h1.8
		c0.3,0,0.5,0,0.6,0c0.1,0,0.2-0.1,0.3-0.1c0.2-0.1,0.3-0.4,0.3-0.7c0-0.3-0.1-0.6-0.3-0.7c-0.1-0.1-0.2-0.1-0.3-0.1
		c-0.1,0-0.3,0-0.6,0h-1.8V273.9z"/>
</g>
<g>
</g>
<g>
	<g>
		<line class="st2" x1="455" y1="295.3" x2="510.3" y2="295.3"/>
		<g>
			<path d="M513.4,295.3c-1.5,0.5-3.3,1.5-4.4,2.5l0.9-2.5l-0.9-2.5C510.1,293.8,511.9,294.8,513.4,295.3z"/>
		</g>
	</g>
</g>
<g>
	<rect x="457.6" y="283.7" class="st0" width="53.8" height="10.8"/>
	<path d="M461.1,290l-0.1,0.4c-0.7,0.7-1.3,1.1-1.8,1.1c-0.4,0-0.6-0.2-0.6-0.7c0-0.2,0-0.4,0.1-0.7l0.6-3c0.2-1.1,0.6-1.9,1.2-2.5
		c0.6-0.6,1.3-0.9,2.1-0.9c0.3,0,0.6,0,0.8,0.1l-0.6,0.6c-0.3-0.2-0.6-0.2-0.9-0.2c-0.5,0-0.8,0.2-1.1,0.5c-0.2,0.3-0.4,1-0.6,1.9
		l-0.7,3.5c-0.1,0.3-0.1,0.6-0.1,0.7c0,0.2,0.1,0.3,0.3,0.3c0.2,0,0.6-0.3,1.1-0.8C460.9,290.2,461,290.1,461.1,290z"/>
	<path d="M464.5,290l-0.1,0.4c-0.6,0.7-1.2,1-1.7,1c-0.4,0-0.6-0.2-0.6-0.7c0-0.1,0-0.4,0.1-0.7l0.3-1.5c0.1-0.4,0.1-0.7,0.1-0.9
		c0-0.2-0.1-0.4-0.3-0.4c-0.1,0-0.4,0.1-0.7,0.2l0.1-0.3l2.1-0.7l-0.3,1.4l-0.4,2.2c-0.1,0.3-0.1,0.6-0.1,0.7c0,0.2,0.1,0.3,0.3,0.3
		C463.5,291,463.9,290.7,464.5,290z M462.9,285.7l0.3-0.6l1.2-0.8l-0.4,0.8L462.9,285.7z"/>
	<path d="M462.1,294.2l0.6-0.7c0.3,0.1,0.6,0.2,0.9,0.2c0.4,0,0.7-0.1,1-0.4c0.2-0.3,0.4-0.8,0.5-1.4l0.8-5h-1l0.3-0.3h0.7l0-0.1
		c0.2-0.8,0.6-1.5,1.2-2.1c0.6-0.5,1.3-0.8,2.1-0.8c0.3,0,0.5,0,0.7,0.1l-0.6,0.7c-0.3-0.2-0.6-0.3-0.8-0.3c-0.4,0-0.8,0.1-1,0.4
		c-0.2,0.3-0.4,0.7-0.5,1.4l-0.1,0.6h1.6l-0.4,0.4c-0.4,0-0.7-0.1-1.1-0.1h-0.2l-0.6,3.8c-0.2,1.1-0.6,2-1.2,2.7
		c-0.6,0.6-1.3,0.9-2.2,0.9C462.6,294.3,462.4,294.3,462.1,294.2z"/>
	<path d="M472.4,290.2l-0.1,0.3c-0.9,0.7-1.7,1-2.4,1c-0.4,0-0.8-0.1-1-0.4c-0.3-0.3-0.4-0.7-0.4-1.1c0-0.8,0.3-1.6,0.9-2.3
		s1.3-1.1,2-1.1c0.3,0,0.5,0.1,0.6,0.3c0.2,0.2,0.2,0.4,0.2,0.7c0,0.6-0.3,1-0.9,1.4c-0.6,0.4-1.3,0.6-2.1,0.6l0,0.2
		c0,0.9,0.3,1.3,0.9,1.3C471,291,471.6,290.7,472.4,290.2z M469.5,289.2c0.7-0.1,1.2-0.2,1.5-0.5c0.4-0.3,0.6-0.7,0.6-1.1
		c0-0.4-0.2-0.7-0.5-0.7c-0.4,0-0.7,0.2-1,0.7C469.8,288.1,469.6,288.6,469.5,289.2z"/>
	<path d="M475.8,291.2l0.6-0.6c0.4,0.3,0.8,0.4,1.2,0.4c0.2,0,0.4-0.1,0.6-0.2c0.2-0.1,0.2-0.3,0.2-0.5c0-0.2-0.2-0.5-0.5-0.9
		l-0.4-0.4c-0.4-0.4-0.6-0.8-0.6-1.1c0-0.4,0.2-0.8,0.6-1.1c0.4-0.3,0.8-0.5,1.3-0.5c0.3,0,0.6,0.1,0.9,0.2l-0.2,1h-0.3l0-0.1
		c0,0,0-0.1,0-0.1c0-0.4-0.3-0.6-0.8-0.6c-0.6,0-0.9,0.2-0.9,0.7c0,0.2,0.2,0.5,0.5,0.9l0.4,0.4c0.4,0.4,0.6,0.8,0.6,1.1
		c0,0.4-0.2,0.7-0.6,1.1s-0.9,0.5-1.4,0.5C476.7,291.5,476.3,291.4,475.8,291.2z"/>
	<path d="M481.6,286.9h-1l0.3-0.3h0.8l0.3-1.2l0.9-0.2l-0.3,1.5h1.7l-0.4,0.4c-0.4,0-0.7-0.1-1-0.1h-0.4l-0.6,3
		c-0.1,0.3-0.1,0.5-0.1,0.7c0,0.2,0.1,0.3,0.3,0.3c0.3,0,0.7-0.2,1.3-0.7l-0.1,0.4c-0.6,0.6-1.1,0.8-1.6,0.8c-0.5,0-0.7-0.3-0.7-0.8
		c0-0.2,0-0.5,0.1-0.8L481.6,286.9z"/>
	<path d="M485.9,291.5c-0.4,0-0.7-0.1-1-0.5c-0.3-0.3-0.4-0.7-0.4-1.1c0-0.8,0.3-1.6,1-2.3c0.6-0.7,1.3-1.1,2.1-1.1
		c0.4,0,0.7,0.1,1,0.4s0.4,0.7,0.4,1.1c0,0.9-0.3,1.7-1,2.4C487.4,291.1,486.7,291.5,485.9,291.5z M486.4,291.1
		c0.4,0,0.8-0.3,1.1-0.8c0.3-0.6,0.5-1.2,0.5-1.9c0-1-0.3-1.5-0.9-1.5c-0.4,0-0.8,0.3-1.1,0.9c-0.3,0.6-0.5,1.2-0.5,1.9
		C485.5,290.6,485.8,291.1,486.4,291.1z"/>
	<path d="M490.2,291.4l0.3-1.4l0.4-2.1c0-0.2,0.1-0.4,0.1-0.6c0-0.3-0.1-0.4-0.3-0.4c-0.3,0-0.8,0.3-1.3,1l0.1-0.4
		c0.7-0.7,1.3-1.1,1.8-1.1c0.4,0,0.6,0.2,0.6,0.7c0,0.2,0,0.5-0.1,0.7l-0.2,1.1h0.1c0.3-0.7,0.8-1.3,1.2-1.8
		c0.5-0.5,0.9-0.7,1.3-0.7c0.2,0,0.4,0,0.5,0.1l-0.6,0.8c-0.2-0.1-0.3-0.2-0.4-0.2c-0.6,0-1.3,0.8-2.3,2.5l-0.3,1.6L490.2,291.4z"/>
	<path d="M497.9,290l-0.1,0.4c-0.6,0.7-1.2,1-1.7,1c-0.4,0-0.6-0.2-0.6-0.7c0-0.1,0-0.4,0.1-0.7l0.3-1.5c0.1-0.4,0.1-0.7,0.1-0.9
		c0-0.2-0.1-0.4-0.3-0.4c-0.1,0-0.4,0.1-0.7,0.2l0.1-0.3l2.1-0.7l-0.3,1.4l-0.4,2.2c-0.1,0.3-0.1,0.6-0.1,0.7c0,0.2,0.1,0.3,0.3,0.3
		C496.9,291,497.3,290.7,497.9,290z M496.3,285.7l0.3-0.6l1.2-0.8l-0.4,0.8L496.3,285.7z"/>
	<path d="M502.1,290.2l-0.1,0.3c-0.9,0.7-1.7,1-2.4,1c-0.4,0-0.8-0.1-1-0.4c-0.3-0.3-0.4-0.7-0.4-1.1c0-0.8,0.3-1.6,0.9-2.3
		s1.3-1.1,2-1.1c0.3,0,0.5,0.1,0.6,0.3c0.2,0.2,0.2,0.4,0.2,0.7c0,0.6-0.3,1-0.9,1.4c-0.6,0.4-1.3,0.6-2.1,0.6l0,0.2
		c0,0.9,0.3,1.3,0.9,1.3C500.7,291,501.4,290.7,502.1,290.2z M499.2,289.2c0.7-0.1,1.2-0.2,1.5-0.5c0.4-0.3,0.6-0.7,0.6-1.1
		c0-0.4-0.2-0.7-0.5-0.7c-0.4,0-0.7,0.2-1,0.7C499.5,288.1,499.3,288.6,499.2,289.2z"/>
	<path d="M502.6,291.2l0.6-0.6c0.4,0.3,0.8,0.4,1.2,0.4c0.2,0,0.4-0.1,0.6-0.2c0.2-0.1,0.2-0.3,0.2-0.5c0-0.2-0.2-0.5-0.5-0.9
		l-0.4-0.4c-0.4-0.4-0.6-0.8-0.6-1.1c0-0.4,0.2-0.8,0.6-1.1c0.4-0.3,0.8-0.5,1.3-0.5c0.3,0,0.6,0.1,0.9,0.2l-0.2,1H506l0-0.1
		c0,0,0-0.1,0-0.1c0-0.4-0.3-0.6-0.8-0.6c-0.6,0-0.9,0.2-0.9,0.7c0,0.2,0.2,0.5,0.5,0.9l0.4,0.4c0.4,0.4,0.6,0.8,0.6,1.1
		c0,0.4-0.2,0.7-0.6,1.1s-0.9,0.5-1.4,0.5C503.4,291.5,503,291.4,502.6,291.2z"/>
</g>
<g>
	<g>
		<path d="M441,258c0.3,0.4,0.6,0.9,0.9,1.3c-0.1,0.1-0.2,0.1-0.3,0.2c6.1,2.5,9.8,6.8,10.2,13.6c-5.4,0-10.7,0-16.1,0
			c0.6-2.3,1.2-4.5,1.8-6.7c0.7-2.5,1.4-4.9,2.1-7.4c0.1-0.4,0.4-0.7,0.7-1.1C440.6,258,440.8,258,441,258z"/>
		<path d="M442.6,297.1c-0.2-0.1-0.4-0.2-0.6-0.3c-2.4-1-3.7-3.4-3.2-5.9c0.5-2.5,2.7-4.3,5.2-4.3c2.5,0,4.6,1.9,5.1,4.3
			c0.5,2.6-0.8,4.9-3.2,5.9c-0.2,0.1-0.4,0.2-0.6,0.3C444.3,297.1,443.5,297.1,442.6,297.1z M444,288.8c-1.8,0-3.3,1.4-3.3,3.2
			c0,1.8,1.5,3.2,3.3,3.2c1.8,0,3.2-1.5,3.2-3.2C447.2,290.2,445.7,288.8,444,288.8z"/>
		<path d="M426.2,297.1c-0.9-0.6-1.9-1.1-2.7-1.9c-1.5-1.7-1.6-4.2-0.4-6.1c1.2-1.9,3.5-2.9,5.6-2.3c2.3,0.5,3.8,2.4,4.1,4.8
			c0.2,2.1-1.2,4.3-3.2,5.1c-0.3,0.1-0.5,0.2-0.8,0.3C427.9,297.1,427.1,297.1,426.2,297.1z M427.5,288.8c-1.8,0-3.2,1.4-3.2,3.2
			c0,1.8,1.5,3.3,3.3,3.3c1.8,0,3.2-1.4,3.2-3.2C430.7,290.2,429.4,288.8,427.5,288.8z"/>
		<path d="M451.8,274.7c0,2.2-0.7,4.1-2,5.8c-2.8,3.6-6.7,5.4-11.1,6c-5,0.7-9.7-0.2-13.8-3.2c-2.7-1.9-4.5-4.4-4.8-7.7
			c0-0.2,0-0.3,0-0.5c0-0.1,0-0.2,0.1-0.3C430.5,274.7,441.1,274.7,451.8,274.7z"/>
		<path d="M421.8,273.2c-0.6,0-1.2,0-1.8,0c-0.3-1-0.4-2-0.8-2.9c-0.5-1.3-1.3-2.3-2.9-2.5c-0.7-0.1-1.1-0.7-0.9-1.3
			c0.2-0.7,0.7-0.8,1.3-0.7c1.2,0.2,2.3,0.7,3.2,1.7C421.1,268.9,422,271.3,421.8,273.2z"/>
	</g>
</g>
<g>
</g>
<g>
</g>
<g>
</g>
<g>
</g>
<g>
</g>
<g>
</g>
<g>
</g>
<g>
</g>
<g>
</g>
<g>
</g>
<g>
</g>
<g>
</g>
<g>
</g>
<g>
</g>
<g>
</g>
<g>
</g>
</svg>
