<?xml version="1.0" encoding="utf-8"?>
<!-- Generator: Adobe Illustrator 20.1.0, SVG Export Plug-In . SVG Version: 6.00 Build 0)  -->
<svg version="1.1" xmlns="http://www.w3.org/2000/svg" xmlns:xlink="http://www.w3.org/1999/xlink" x="0px" y="0px"
	 viewBox="0 0 960 560" style="enable-background:new 0 0 960 560;" xml:space="preserve">
<style type="text/css">
	.st0{fill:none;stroke:#000000;stroke-width:2;stroke-miterlimit:10;}
	.st1{fill:none;stroke:#595757;stroke-width:0.75;stroke-miterlimit:10;}
	.st2{fill:none;stroke:#595757;stroke-width:0.75;stroke-miterlimit:10;stroke-dasharray:3.9474,3.9474;}
	.st3{fill:none;stroke:#494848;stroke-width:0.75;stroke-miterlimit:10;}
	.st4{fill:none;stroke:#494848;stroke-width:0.75;stroke-miterlimit:10;stroke-dasharray:3.9474,3.9474;}
	.st5{fill:none;}
</style>
<g id="box">
	<g>
		<path d="M710.8,530.1c0,0-30.8,0-84.8,0.1c-54,0.1-131.1,0.3-223.6,0.6c-23.1,0-47.2,0.1-72.2,0.1c-24.9,0-50.7,0-77.2,0
			c-3.3,0-6.6,0-10,0c-0.9,0-1.6,0-2.5,0c-0.4,0-0.8,0-1.3-0.1l-1.3-0.2c-1.7-0.4-3.4-1-4.9-1.9c-3.1-1.8-5.5-4.6-6.8-8
			c-0.7-1.7-1-3.4-1.1-5.2c0-1.7,0-3.4,0-5.1c0-13.6,0.1-27.4,0.1-41.3c0.1-27.8,0.1-56.3,0.2-85.2c0.1-57.8,0.1-117.6,0.2-178.3
			c0-30.4-0.1-61-0.1-91.7c0-15.4,0-30.8-0.1-46.2c0-7.7,0-15.4,0-23.1c0.1-4,1.8-7.9,4.7-10.7c2.8-2.8,6.8-4.4,10.8-4.4
			c123.4-0.2,246.8-0.3,362.4-0.5c28.9,0,57.4,0,85.2,0c7,0,13.9,0,20.8,0c1.7,0,3.5,0,5.4,0.5c1.8,0.4,3.5,1.2,5,2.2
			c3,2,5.4,5.1,6.5,8.5c0.6,1.7,0.8,3.6,0.8,5.3c0,1.7,0,3.4,0,5.1c0,3.4,0,6.7,0,10.1c0,6.7,0,13.4,0,20
			c-0.1,53-0.1,103.1-0.2,149.4c-0.3,92.5-0.5,169.7-0.6,223.6c0,13.5,0,25.5,0,36c0,5.2,0,10.1,0,14.5c0,2.2,0,4.3,0,6.4
			c0,1,0,2,0,2.9c0,0.5,0,0.9,0,1.4c0,0.5,0,0.9-0.1,1.4c-0.4,3.6-1.9,6.6-3.8,8.7c-1.9,2.1-3.9,3.3-5.7,4c-1.7,0.7-3.2,0.9-4.1,1
			C711.3,530.1,710.8,530.1,710.8,530.1z M710.8,529.9c0,0,0.5,0,1.4-0.1c0.9-0.1,2.3-0.3,4.1-1c1.7-0.7,3.8-1.9,5.6-3.9
			c1.8-2,3.4-5,3.7-8.5c0-0.4,0-0.9,0.1-1.4c0-0.5,0-0.9,0-1.4c0-1,0-1.9,0-2.9c0-2,0-4.1,0-6.4c0-4.4,0-9.3,0-14.5
			c0-10.5,0-22.5,0-36c-0.2-54-0.4-131.1-0.6-223.6c-0.1-46.3-0.1-96.4-0.2-149.4c0-6.6,0-13.3,0-20c0-3.4,0-6.7,0-10.1
			c0-1.7,0-3.4,0-5.1c0-1.6-0.2-3.2-0.7-4.7c-1-3-3-5.7-5.7-7.4c-1.3-0.9-2.8-1.5-4.4-1.9c-1.5-0.4-3.1-0.4-4.9-0.4
			c-6.9,0-13.8,0-20.8,0c-27.8,0-56.3,0-85.2,0c-115.7-0.2-239.1-0.3-362.4-0.5c-3.7,0-7.4,1.5-10.1,4.1c-2.7,2.6-4.3,6.2-4.4,10
			c0,7.7,0,15.4,0,23.1c0,15.4,0,30.8-0.1,46.2c0,30.7-0.1,61.3-0.1,91.7c0.1,60.7,0.1,120.5,0.2,178.3c0.1,28.9,0.1,57.4,0.2,85.2
			c0,13.9,0.1,27.7,0.1,41.3c0,1.7,0,3.4,0,5.1c0,1.6,0.4,3.2,1,4.7c1.2,3,3.3,5.5,6.1,7.1c1.4,0.8,2.9,1.4,4.4,1.7l1.1,0.2
			c0.4,0,0.8,0,1.2,0.1c0.7,0,1.6,0,2.5,0c3.3,0,6.7,0,10,0c26.5,0,52.3,0,77.2,0c24.9,0,49,0.1,72.2,0.1
			c92.5,0.2,169.7,0.5,223.6,0.6C679.9,529.9,710.8,529.9,710.8,529.9z"/>
	</g>
	<path class="st0" d="M249.8,506.8"/>
	<path class="st0" d="M264.8,521.8"/>
	<path class="st0" d="M724.1,521.8"/>
	<g>
		<path d="M727.1,34c0,0,0.5,0,1.4,0.1c0.9,0.1,2.3,0.3,4.1,0.9c1.7,0.7,3.7,1.8,5.6,3.8c1.8,1.9,3.5,4.7,4,8.2
			c0.2,1.7,0.2,3.5,0.2,5.4c0,1.9,0,3.9,0,5.9c0,4.1,0.1,8.6,0.1,13.4c0.1,9.5,0.1,20.3,0.2,32c0.1,23.5,0.2,50.9,0.3,80.2
			c0,29.3,0.1,60.7,0.1,92c0,31.3-0.1,62.6-0.1,92c-0.1,29.3-0.2,56.7-0.3,80.2c-0.2,23.5-0.3,43-0.4,56.7c0,1.7,0,3.3-0.3,4.9
			c-0.3,1.5-0.8,2.9-1.4,4.1c-1.3,2.4-2.9,4-4.4,5.1c-1.5,1.1-2.8,1.7-3.7,2c-0.9,0.3-1.4,0.4-1.4,0.4s0.5-0.1,1.4-0.5
			c0.9-0.3,2.2-1,3.6-2.1c1.5-1.1,3.1-2.8,4.3-5.1c0.6-1.2,1.1-2.5,1.4-4c0.3-1.5,0.2-3.1,0.2-4.8c-0.1-13.7-0.2-33.3-0.4-56.7
			c-0.1-23.5-0.2-50.9-0.3-80.2c0-29.3-0.1-60.7-0.1-92c0-31.3,0.1-62.6,0.1-92c0.1-29.3,0.2-56.7,0.3-80.2
			c0.1-11.7,0.1-22.5,0.2-32c0-4.8,0.1-9.2,0.1-13.4c0-2.1,0-4,0-5.9c0-1.9,0.1-3.7-0.1-5.4c-0.4-3.4-2-6.2-3.8-8.1
			c-1.8-2-3.8-3.1-5.5-3.8c-1.7-0.7-3.1-0.9-4-1C727.6,34,727.1,34,727.1,34z"/>
	</g>
	<path class="st0" d="M721,34"/>
	<g>
		<path d="M716,529.9c0,0,0.3-0.3,0.8-0.8c0.5-0.5,1.3-1.1,2.2-1.8c0.5-0.3,1-0.7,1.6-1c0.6-0.3,1.3-0.5,2-0.7
			c0.7-0.2,1.4-0.5,2.1-0.9c0.7-0.4,1.3-0.9,1.9-1.4c0.6-0.5,1.2-1,1.8-1.4c0.6-0.4,1.3-0.9,1.9-1.3c1.2-0.8,2.5-1.4,3.5-1.9
			c1.1-0.5,2-0.8,2.7-1c0.7-0.2,1.1-0.3,1.1-0.3l0.1,0.2c0,0-0.3,0.3-0.8,0.8c-0.5,0.5-1.3,1.1-2.2,1.8c-0.9,0.7-2.1,1.5-3.4,2.1
			c-0.7,0.3-1.3,0.7-2,1c-0.7,0.3-1.4,0.6-2.2,0.9c-0.7,0.3-1.5,0.6-2.1,0.9c-0.7,0.4-1.3,0.8-1.8,1.3c-0.6,0.5-1.1,1-1.6,1.3
			c-0.6,0.4-1.1,0.7-1.6,0.9c-1.1,0.5-2,0.8-2.7,1c-0.7,0.2-1.1,0.3-1.1,0.3L716,529.9z"/>
	</g>
	<path class="st0" d="M734,35.7"/>
	<g>
		<path d="M734,35.8c0,0-0.3,0.1-0.9,0.1c-0.5,0-1.3,0-2.2-0.2c-0.4-0.1-0.9-0.2-1.4-0.4c-0.5-0.2-1-0.5-1.4-0.8
			c-0.5-0.3-1-0.6-1.6-0.7c-0.6-0.2-1.2-0.3-1.8-0.3c-0.6,0-1.2-0.1-1.8-0.2c-0.6-0.1-1.2-0.2-1.7-0.4c-1.1-0.2-2.1-0.7-2.9-1
			c-0.8-0.4-1.5-0.8-1.9-1.1c-0.5-0.3-0.7-0.5-0.7-0.5l0.1-0.2c0,0,0.3,0,0.9,0c0.5,0,1.3,0,2.2,0.2c0.9,0.1,1.9,0.3,3,0.8
			c0.5,0.2,1.1,0.4,1.6,0.7c0.5,0.2,1.1,0.5,1.6,0.8c0.5,0.3,1.1,0.6,1.6,0.8c0.6,0.2,1.1,0.3,1.7,0.3c0.6,0,1.1,0,1.7,0.1
			c0.5,0.1,1,0.3,1.4,0.5c0.8,0.3,1.5,0.7,2,1c0.5,0.3,0.7,0.6,0.7,0.6L734,35.8z"/>
	</g>
</g>
<g id="vhs">
	<g>
		<path d="M595.2,422.4c0,0-37.1,0.2-92.8,0.6c-13.9,0-29,0.1-44.9,0c-15.9,0-32.8-0.2-50.2-0.3c-8.7,0-17.5-0.1-26.5-0.1
			c-4.5,0-9,0-13.5,0c-4.5,0-9.1-0.1-13.6,0.1c-1.2,0-2.3,0.1-3.5,0.2l-0.9,0l-0.9-0.1c-0.6-0.1-1.2-0.2-1.8-0.4
			c-2.3-0.7-4.5-2.3-5.7-4.5c-0.7-1.1-1.1-2.3-1.3-3.5c-0.1-0.6-0.2-1.3-0.2-1.9l0-1.7c0-2.3,0-4.6,0-6.9s0-4.6,0-6.9l0-3.5l0-1.8
			l0-0.9c0-0.3,0.1-0.7,0.1-1c0.5-2.5,1.8-4.9,3.8-6.5c2-1.6,4.5-2.5,7-2.5c18.6,0.1,37.1,0.2,55.4,0.2c18.3,0,36.2,0,53.6,0
			c17.4,0,34.2,0,50.2,0c15.9,0,31,0.1,44.9,0.1c13.9,0.1,26.7,0.2,38,0.3c1.4,0,2.8-0.1,4.2,0.2c1.4,0.2,2.7,0.7,3.9,1.5
			c2.3,1.5,3.9,3.8,4.5,6.2c0.3,1.2,0.3,2.5,0.3,3.6c0,1.2,0,2.3,0,3.4c0,2.2,0,4.4-0.1,6.4c0,2,0,4,0,5.8c0,1.8,0,3.5-0.1,5.1
			c-0.4,3.2-2.1,5.6-3.8,6.9c-1.7,1.4-3.4,1.8-4.5,2c-0.6,0.1-1,0.1-1.3,0.1C595.3,422.4,595.2,422.4,595.2,422.4z M595.2,422.3
			c0,0,0.1,0,0.4,0c0.3,0,0.7,0,1.3-0.1c1.1-0.2,2.7-0.7,4.4-2c1.7-1.3,3.4-3.6,3.7-6.8c0.1-3.1,0-6.8,0-10.8c0-2,0-4.2-0.1-6.4
			c0-1.1,0-2.3,0-3.4c0-1.2,0-2.3-0.4-3.5c-0.6-2.3-2.1-4.4-4.3-5.8c-1.1-0.7-2.3-1.1-3.6-1.3c-1.3-0.2-2.7-0.1-4.1-0.1
			c-11.3,0.1-24.1,0.2-38,0.3c-13.9,0.1-29,0.2-44.9,0.1c-15.9,0-32.8,0-50.2,0c-17.4,0-35.4,0-53.6,0c-18.3,0.1-36.8,0.2-55.4,0.2
			c-2.1,0-4.2,0.8-5.8,2.1c-1.6,1.3-2.7,3.3-3.1,5.3c0,0.2-0.1,0.5-0.1,0.7l0,0.9l0,1.7l0,3.5c0,2.3,0,4.6,0,6.9s0,4.6,0,6.9l0,1.7
			c0,0.5,0,1,0.1,1.5c0.2,1,0.6,2,1,2.9c1,1.8,2.6,3.3,4.5,4.2c1.9,1,4.3,0.9,6.5,1c4.6,0.2,9.1,0.1,13.6,0.1c4.5,0,9,0,13.5,0
			c9,0,17.8-0.1,26.5-0.1c17.4-0.1,34.2-0.3,50.2-0.3c15.9-0.1,31,0,44.9,0C558.1,422.1,595.2,422.3,595.2,422.3z"/>
	</g>
	<g>
		<g>
			<g>
				<path d="M461.9,391.5l-2.1,17.5l0,0.2l-0.2,0l-6.9,0.1l-0.2,0l0-0.3l-2.8-17.4l-0.1-0.5l0.5,0l4.8,0l0.4,0l0,0.4l0.6,6.1
					c0.2,2,0.4,4.1,0.5,6.1l-0.9,0l0.6-6.1c0.2-2,0.4-4,0.7-6.1l0-0.2l0.2,0L461.9,391.5z M461.8,391.6l-4.7,0.2l0.2-0.2l-0.8,12.2
					l-0.9,0c-0.2-2-0.4-4-0.6-6.1l-0.6-6.1l0.5,0.4l-4.8,0l0.4-0.5l2.5,17.4l-0.3-0.2l6.9,0.1l-0.2,0.2L461.8,391.6z"/>
			</g>
		</g>
		<g>
			<g>
				<path d="M474.6,391.5l0.2,17.4l0,0.2l-0.2,0l-4.5,0l-0.3,0l0-0.3l-0.1-7.3l0.3,0.3l-1.4,0l0.3-0.3l0.1,7.3l0,0.4l-0.4,0l-4.5,0
					l-0.4,0l0-0.4c0-5.8-0.1-11.6-0.1-17.4l0-0.5l0.5,0c1.5,0,3,0,4.5,0l0.5,0l0,0.5l-0.1,6.2l-0.4-0.4l1.4,0l-0.4,0.4l0.2-6.2
					l0-0.2l0.2,0L474.6,391.5z M474.5,391.6l-4.5,0.2l0.2-0.2l0.2,6.2l0,0.4l-0.4,0l-1.4,0l-0.4,0l0-0.4l-0.1-6.2l0.5,0.5
					c-1.5,0-3,0-4.5,0l0.5-0.5c0,5.8-0.1,11.6-0.1,17.4l-0.4-0.4l4.5,0l-0.4,0.4l0.1-7.3l0-0.3l0.3,0l1.4,0l0.3,0l0,0.3l-0.1,7.3
					l-0.3-0.3l4.5,0l-0.2,0.2L474.5,391.6z"/>
			</g>
		</g>
		<g>
			<g>
				<path d="M487.6,396.8l-4.2,0l-0.1,0l0-0.1c0-0.7,0-1.5-0.1-2.1c0-0.4-0.3-0.5-0.7-0.4c-0.3,0-0.5,0.4-0.5,0.7
					c-0.1,0.6-0.1,1.5,0.3,1.9c0.5,0.5,1.1,0.8,1.7,1.2c0.6,0.4,1.2,0.8,1.8,1.2c0.6,0.4,1.2,0.9,1.6,1.6c0.4,0.7,0.5,1.4,0.6,2.1
					c0.1,0.7,0.1,1.5,0.1,2.2c0,0.7-0.1,1.5-0.5,2.2c-0.4,0.7-1,1.2-1.7,1.5c-1.4,0.7-2.9,0.8-4.4,0.6c-0.7-0.1-1.5-0.3-2.1-0.7
					c-0.7-0.4-1.3-0.9-1.6-1.7c-0.3-0.7-0.4-1.5-0.5-2.2c-0.1-0.7,0-1.5-0.1-2.2l0,0l0-0.4l0.4,0l4.2-0.1l0.5,0l0,0.5l0,2.2
					c0,0.3,0,0.7,0.1,0.9c0,0.1,0,0,0,0.1c0,0,0.2,0,0.3,0c0.1,0,0.1,0,0.1-0.1c0-0.1,0.1-0.2,0.1-0.3c0.1-0.3,0-0.6,0-0.9
					c0-0.3-0.1-0.7-0.1-0.9c0-0.1-0.1-0.3-0.1-0.3c-0.1-0.1-0.2-0.2-0.3-0.3c-0.5-0.4-1.1-0.8-1.7-1.2l-1.7-1.3l-0.4-0.3
					c-0.2-0.2-0.3-0.3-0.5-0.5c-0.2-0.3-0.4-0.7-0.6-1c-0.3-0.8-0.4-1.5-0.4-2.3c0-0.7,0-1.5,0.2-2.2c0.1-0.4,0.2-0.8,0.4-1.1
					c0.2-0.3,0.5-0.7,0.8-0.9c1.3-1,2.9-1.2,4.3-1.1c0.7,0,1.5,0.2,2.2,0.4c0.7,0.3,1.4,0.6,1.9,1.2c0.5,0.6,0.6,1.4,0.7,2.1
					C487.6,395.3,487.6,396.1,487.6,396.8L487.6,396.8z M487.5,396.7c0-0.7,0-1.4-0.1-2.1c-0.1-0.7-0.2-1.4-0.7-1.9
					c-0.5-0.5-1.1-0.8-1.8-1c-0.7-0.2-1.4-0.3-2-0.3c-0.7,0-1.4,0.1-2,0.2c-0.6,0.2-1.3,0.5-1.7,0.9c-0.2,0.2-0.4,0.4-0.6,0.7
					c-0.1,0.2-0.2,0.6-0.3,0.9c-0.1,0.7-0.1,1.4-0.1,2c0,0.7,0.1,1.4,0.4,1.9c0.1,0.3,0.3,0.6,0.5,0.8c0.1,0.1,0.2,0.2,0.3,0.3
					l0.4,0.3l1.8,1.3c0.5,0.4,1.2,0.8,1.8,1.2c0.1,0.1,0.3,0.3,0.4,0.4c0.2,0.3,0.3,0.5,0.4,0.7c0.1,0.4,0.2,0.8,0.2,1.2
					c0,0.4,0,0.8-0.1,1.2c0,0.2-0.1,0.5-0.3,0.7c-0.2,0.2-0.5,0.4-0.8,0.5c-0.3,0-0.5,0-0.8-0.1c-0.3-0.1-0.6-0.4-0.7-0.7
					c-0.1-0.5-0.1-0.8-0.1-1.2l0-2.2l0.5,0.5l-4.2-0.1l0.4-0.4l0,0c0,0.7,0,1.4,0,2.1c0,0.7,0.1,1.4,0.4,2c0.2,0.6,0.7,1,1.3,1.4
					c0.6,0.3,1.2,0.6,1.9,0.7c1.4,0.2,2.8,0.1,4-0.5c0.6-0.3,1.2-0.7,1.5-1.3c0.3-0.6,0.4-1.3,0.4-2c0-0.7,0-1.4,0-2.1
					c-0.1-0.7-0.2-1.4-0.5-2c-0.3-0.6-0.9-1-1.4-1.5c-0.6-0.4-1.2-0.8-1.8-1.2c-0.6-0.4-1.3-0.7-1.8-1.3c-0.3-0.3-0.3-0.7-0.4-1.1
					c0-0.4,0-0.7,0-1.1c0.1-0.4,0.3-0.8,0.7-0.9c0.2,0,0.4,0,0.6,0.1c0.2,0.1,0.3,0.4,0.3,0.5c0.1,0.7,0,1.5,0,2.2l-0.1-0.1
					L487.5,396.7z"/>
			</g>
		</g>
	</g>
</g>
<g id="speaker_left">
	<g>
		<g>
			<g>
				<line class="st1" x1="245" y1="381.6" x2="247" y2="381.6"/>
				<line class="st2" x1="250.9" y1="381.6" x2="320" y2="381.6"/>
				<line class="st1" x1="322" y1="381.6" x2="324" y2="381.6"/>
			</g>
		</g>
		<g>
			<g>
				<line class="st1" x1="245" y1="386.6" x2="247" y2="386.6"/>
				<line class="st2" x1="250.9" y1="386.6" x2="320" y2="386.6"/>
				<line class="st1" x1="322" y1="386.6" x2="324" y2="386.6"/>
			</g>
		</g>
		<g>
			<g>
				<line class="st1" x1="245" y1="391.6" x2="247" y2="391.6"/>
				<line class="st2" x1="250.9" y1="391.6" x2="320" y2="391.6"/>
				<line class="st1" x1="322" y1="391.6" x2="324" y2="391.6"/>
			</g>
		</g>
		<g>
			<g>
				<line class="st1" x1="245" y1="396.6" x2="247" y2="396.6"/>
				<line class="st2" x1="250.9" y1="396.6" x2="320" y2="396.6"/>
				<line class="st1" x1="322" y1="396.6" x2="324" y2="396.6"/>
			</g>
		</g>
		<g>
			<g>
				<line class="st1" x1="245" y1="402.6" x2="247" y2="402.6"/>
				<line class="st2" x1="250.9" y1="402.6" x2="320" y2="402.6"/>
				<line class="st1" x1="322" y1="402.6" x2="324" y2="402.6"/>
			</g>
		</g>
		<g>
			<g>
				<line class="st1" x1="245" y1="407.6" x2="247" y2="407.6"/>
				<line class="st2" x1="250.9" y1="407.6" x2="320" y2="407.6"/>
				<line class="st1" x1="322" y1="407.6" x2="324" y2="407.6"/>
			</g>
		</g>
		<g>
			<g>
				<line class="st1" x1="245" y1="412.6" x2="247" y2="412.6"/>
				<line class="st2" x1="250.9" y1="412.6" x2="320" y2="412.6"/>
				<line class="st1" x1="322" y1="412.6" x2="324" y2="412.6"/>
			</g>
		</g>
		<g>
			<g>
				<line class="st1" x1="245" y1="417.6" x2="247" y2="417.6"/>
				<line class="st2" x1="250.9" y1="417.6" x2="320" y2="417.6"/>
				<line class="st1" x1="322" y1="417.6" x2="324" y2="417.6"/>
			</g>
		</g>
		<g>
			<g>
				<line class="st1" x1="245" y1="422.6" x2="247" y2="422.6"/>
				<line class="st2" x1="250.9" y1="422.6" x2="320" y2="422.6"/>
				<line class="st1" x1="322" y1="422.6" x2="324" y2="422.6"/>
			</g>
		</g>
		<g>
			<g>
				<line class="st1" x1="245" y1="427.6" x2="247" y2="427.6"/>
				<line class="st2" x1="250.9" y1="427.6" x2="320" y2="427.6"/>
				<line class="st1" x1="322" y1="427.6" x2="324" y2="427.6"/>
			</g>
		</g>
		<g>
			<g>
				<line class="st1" x1="245" y1="432.6" x2="247" y2="432.6"/>
				<line class="st2" x1="250.9" y1="432.6" x2="320" y2="432.6"/>
				<line class="st1" x1="322" y1="432.6" x2="324" y2="432.6"/>
			</g>
		</g>
	</g>
	<g>
		<g>
			<g>
				<line class="st3" x1="621.6" y1="382.1" x2="623.6" y2="382.1"/>
				<line class="st4" x1="627.5" y1="382.1" x2="696.6" y2="382.1"/>
				<line class="st3" x1="698.6" y1="382.1" x2="700.6" y2="382.1"/>
			</g>
		</g>
		<g>
			<g>
				<line class="st3" x1="621.6" y1="387.1" x2="623.6" y2="387.1"/>
				<line class="st4" x1="627.5" y1="387.1" x2="696.6" y2="387.1"/>
				<line class="st3" x1="698.6" y1="387.1" x2="700.6" y2="387.1"/>
			</g>
		</g>
		<g>
			<g>
				<line class="st3" x1="621.6" y1="392.1" x2="623.6" y2="392.1"/>
				<line class="st4" x1="627.5" y1="392.1" x2="696.6" y2="392.1"/>
				<line class="st3" x1="698.6" y1="392.1" x2="700.6" y2="392.1"/>
			</g>
		</g>
		<g>
			<g>
				<line class="st3" x1="621.6" y1="397.1" x2="623.6" y2="397.1"/>
				<line class="st4" x1="627.5" y1="397.1" x2="696.6" y2="397.1"/>
				<line class="st3" x1="698.6" y1="397.1" x2="700.6" y2="397.1"/>
			</g>
		</g>
		<g>
			<g>
				<line class="st3" x1="621.6" y1="403.1" x2="623.6" y2="403.1"/>
				<line class="st4" x1="627.5" y1="403.1" x2="696.6" y2="403.1"/>
				<line class="st3" x1="698.6" y1="403.1" x2="700.6" y2="403.1"/>
			</g>
		</g>
		<g>
			<g>
				<line class="st3" x1="621.6" y1="408.1" x2="623.6" y2="408.1"/>
				<line class="st4" x1="627.5" y1="408.1" x2="696.6" y2="408.1"/>
				<line class="st3" x1="698.6" y1="408.1" x2="700.6" y2="408.1"/>
			</g>
		</g>
		<g>
			<g>
				<line class="st3" x1="621.6" y1="413.1" x2="623.6" y2="413.1"/>
				<line class="st4" x1="627.5" y1="413.1" x2="696.6" y2="413.1"/>
				<line class="st3" x1="698.6" y1="413.1" x2="700.6" y2="413.1"/>
			</g>
		</g>
		<g>
			<g>
				<line class="st3" x1="621.6" y1="418.1" x2="623.6" y2="418.1"/>
				<line class="st4" x1="627.5" y1="418.1" x2="696.6" y2="418.1"/>
				<line class="st3" x1="698.6" y1="418.1" x2="700.6" y2="418.1"/>
			</g>
		</g>
		<g>
			<g>
				<line class="st3" x1="621.6" y1="423.1" x2="623.6" y2="423.1"/>
				<line class="st4" x1="627.5" y1="423.1" x2="696.6" y2="423.1"/>
				<line class="st3" x1="698.6" y1="423.1" x2="700.6" y2="423.1"/>
			</g>
		</g>
		<g>
			<g>
				<line class="st3" x1="621.6" y1="428.1" x2="623.6" y2="428.1"/>
				<line class="st4" x1="627.5" y1="428.1" x2="696.6" y2="428.1"/>
				<line class="st3" x1="698.6" y1="428.1" x2="700.6" y2="428.1"/>
			</g>
		</g>
		<g>
			<g>
				<line class="st3" x1="621.6" y1="433.1" x2="623.6" y2="433.1"/>
				<line class="st4" x1="627.5" y1="433.1" x2="696.6" y2="433.1"/>
				<line class="st3" x1="698.6" y1="433.1" x2="700.6" y2="433.1"/>
			</g>
		</g>
	</g>
</g>
<g id="speaker_right">
</g>
<g id="play">
	<g>
		<path d="M433.3,455.1c0,0-0.4,0-1,0c-0.7,0-1.7,0-2.9,0.1c-1.2,0-2.8,0.1-4.5,0.3c-1.7,0.1-3.7,0.3-5.8,0.4
			c-1.1,0.1-2.2,0.1-3.3,0.1c-0.6,0-1.2,0-1.8,0c-0.6,0-1.3,0-2-0.2c-1.4-0.4-2.7-1.3-3.4-2.6c-0.4-0.6-0.6-1.3-0.7-2.1
			c-0.1-0.4-0.1-0.7,0-1.1l0.1-1c0.2-2.7,0.2-5.4,0.2-8.3c0-0.7,0-1.5,0.2-2.2c0.2-0.7,0.6-1.4,1-2c1-1.2,2.5-2,4.1-2
			c1.4-0.1,2.9-0.1,4.3-0.2c1.4,0,2.8-0.1,4.2-0.1c2.8-0.1,5.6-0.1,8.3-0.2c0.7,0,1.3,0,2,0l1,0l0.2,0l0.3,0c0.2,0,0.3,0,0.6,0.1
			c1.6,0.2,3,1.1,3.9,2.3c0.9,1.1,1.3,2.7,1.3,4c0,1.2-0.1,2.3-0.1,3.3c-0.1,2.1-0.3,4.1-0.4,5.8c0,0.2,0,0.4,0,0.7
			c0,0.2,0,0.4-0.1,0.6c-0.1,0.5-0.2,0.8-0.4,1.2c-0.3,0.7-0.8,1.3-1.3,1.7c-1,0.9-2,1.2-2.6,1.3c-0.3,0.1-0.6,0.1-0.8,0.1
			C433.4,455.1,433.3,455.1,433.3,455.1z M433.3,454.9c0,0,0.1,0,0.3,0c0.2,0,0.4,0,0.7-0.1c0.6-0.1,1.6-0.5,2.4-1.4
			c0.4-0.4,0.8-1,1-1.7c0.1-0.3,0.2-0.7,0.2-1.1c0-0.2,0-0.4,0-0.6c0-0.2,0-0.4,0-0.6c-0.1-1.7-0.3-3.7-0.4-5.8
			c-0.1-1.1-0.1-2.2-0.1-3.3c0-1-0.3-1.9-0.9-2.7c-0.6-0.7-1.6-1.3-2.5-1.4c-0.1,0-0.2,0-0.4,0c-0.1,0-0.2,0-0.2,0l-0.2,0l-1,0
			c-0.7,0-1.3,0-2,0c-2.7-0.1-5.4-0.1-8.3-0.2c-1.4,0-2.8-0.1-4.2-0.1c-1.4-0.1-2.9-0.1-4.3-0.2c-1.3-0.1-2.6,0.5-3.5,1.4
			c-0.4,0.5-0.8,1.1-1,1.7c-0.2,0.6-0.2,1.3-0.2,2c0,2.8,0.1,5.6,0.2,8.3l0.1,1c0,0.3,0.1,0.6,0.1,0.9c0.1,0.6,0.4,1.1,0.7,1.5
			c0.7,0.9,1.6,1.5,2.6,1.7c0.1,0,0.2,0,0.3,0.1l0.2,0l0.2,0l0.2,0c0,0,0.1,0,0.2,0l0.4,0c0.6,0,1.2,0,1.8,0c1.2,0,2.3,0,3.3,0.1
			c2.1,0.1,4.1,0.3,5.8,0.4c1.7,0.1,3.3,0.2,4.5,0.3c1.2,0.1,2.2,0.1,2.9,0.1C432.9,454.9,433.3,454.9,433.3,454.9z"/>
	</g>
	<g>
		<path d="M428.1,444.7c-0.5,0.6-1,1.1-1.6,1.5c-0.6,0.5-1.2,0.9-1.8,1.3c-0.3,0.2-0.6,0.4-0.9,0.6c-0.3,0.2-0.6,0.3-1,0.5
			c-0.7,0.3-1.4,0.5-2.1,0.8l-0.8,0.3l0.1-0.7c0.3-1.4,0.2-2.9-0.1-4.3c-0.1-0.7-0.3-1.4-0.3-2.2c-0.1-0.7-0.1-1.4-0.2-2.2l-0.1-1.7
			l1.6,0.8c1.3,0.6,2.5,1.4,3.7,2.2c1.2,0.9,2.3,1.8,3.3,2.9V444.7L428.1,444.7z M427.7,444.7c-1.3-0.3-2.6-0.8-3.8-1.4
			c-1.3-0.6-2.6-1.3-3.8-2.1l1.5-0.9c0,0.7-0.1,1.4-0.2,2.2c-0.1,0.7-0.2,1.4-0.3,2.2c-0.2,1.4-0.4,2.9-0.1,4.3l-0.7-0.4
			c0.6-0.5,1.1-1,1.7-1.4c0.3-0.2,0.6-0.4,0.9-0.6c0.3-0.2,0.6-0.3,1-0.5c0.6-0.3,1.3-0.6,2-0.9C426.4,445,427,444.8,427.7,444.7z"
			/>
	</g>
</g>
<g id="pause">
	<g>
		<path d="M481.3,455.1c0,0-0.4,0-1,0c-0.7,0-1.7,0-2.9,0.1c-1.2,0-2.8,0.1-4.5,0.3c-1.7,0.1-3.7,0.3-5.8,0.4
			c-1.1,0.1-2.2,0.1-3.3,0.1c-0.6,0-1.2,0-1.8,0c-0.6,0-1.3,0-2-0.2c-1.4-0.4-2.7-1.3-3.4-2.6c-0.4-0.6-0.6-1.3-0.7-2.1
			c-0.1-0.4-0.1-0.7,0-1.1l0.1-1c0.2-2.7,0.2-5.4,0.2-8.3c0-0.7,0-1.5,0.2-2.2c0.2-0.7,0.6-1.4,1-2c1-1.2,2.5-2,4.1-2
			c1.4-0.1,2.9-0.1,4.3-0.2c1.4,0,2.8-0.1,4.2-0.1c2.8-0.1,5.6-0.1,8.3-0.2c0.7,0,1.3,0,2,0l1,0l0.2,0l0.3,0c0.2,0,0.3,0,0.6,0.1
			c1.6,0.2,3,1.1,3.9,2.3c0.9,1.1,1.3,2.7,1.3,4c0,1.2-0.1,2.3-0.1,3.3c-0.1,2.1-0.3,4.1-0.4,5.8c0,0.2,0,0.4,0,0.7
			c0,0.2,0,0.4-0.1,0.6c-0.1,0.5-0.2,0.8-0.4,1.2c-0.3,0.7-0.8,1.3-1.3,1.7c-1,0.9-2,1.2-2.6,1.3c-0.3,0.1-0.6,0.1-0.8,0.1
			C481.4,455.1,481.3,455.1,481.3,455.1z M481.3,454.9c0,0,0.1,0,0.3,0c0.2,0,0.4,0,0.7-0.1c0.6-0.1,1.6-0.5,2.4-1.4
			c0.4-0.4,0.8-1,1-1.7c0.1-0.3,0.2-0.7,0.2-1.1c0-0.2,0-0.4,0-0.6c0-0.2,0-0.4,0-0.6c-0.1-1.7-0.3-3.7-0.4-5.8
			c-0.1-1.1-0.1-2.2-0.1-3.3c0-1-0.3-1.9-0.9-2.7c-0.6-0.7-1.6-1.3-2.5-1.4c-0.1,0-0.2,0-0.4,0c-0.1,0-0.2,0-0.2,0l-0.2,0l-1,0
			c-0.7,0-1.3,0-2,0c-2.7-0.1-5.4-0.1-8.3-0.2c-1.4,0-2.8-0.1-4.2-0.1c-1.4-0.1-2.9-0.1-4.3-0.2c-1.3-0.1-2.6,0.5-3.5,1.4
			c-0.4,0.5-0.8,1.1-1,1.7c-0.2,0.6-0.2,1.3-0.2,2c0,2.8,0.1,5.6,0.2,8.3l0.1,1c0,0.3,0.1,0.6,0.1,0.9c0.1,0.6,0.4,1.1,0.7,1.5
			c0.7,0.9,1.6,1.5,2.6,1.7c0.1,0,0.2,0,0.3,0.1l0.2,0l0.2,0l0.2,0c0,0,0.1,0,0.2,0l0.4,0c0.6,0,1.2,0,1.8,0c1.2,0,2.3,0,3.3,0.1
			c2.1,0.1,4.1,0.3,5.8,0.4c1.7,0.1,3.3,0.2,4.5,0.3c1.2,0.1,2.2,0.1,2.9,0.1C480.9,454.9,481.3,454.9,481.3,454.9z"/>
	</g>
	<g>
		<path d="M470.2,449.8c-1,0.4-2,0.5-3,0.7l-0.7,0.1l-0.1-0.8c0-0.4-0.1-0.8-0.1-1.2c0-0.4-0.1-0.8,0-1.2c0-0.8,0.2-1.7,0.3-2.5
			c0.2-0.8,0.3-1.7,0.3-2.5c0-0.8-0.1-1.7-0.2-2.5l-0.1-0.4l0.6-0.1c1-0.2,2-0.3,3-0.4l0.9,0l0.1,1c0.1,1.7,0.2,3.3,0.1,5
			c-0.2,1.7-0.4,3.3-0.9,5L470.2,449.8L470.2,449.8z M470,449.5c-0.5-1.6-0.7-3.2-0.8-4.9c-0.2-1.7-0.1-3.3,0.1-5l0.9,0.9
			c-1-0.1-2-0.2-3-0.4l0.5-0.5c-0.1,0.8-0.2,1.7-0.2,2.5c0,0.8,0.1,1.7,0.3,2.5c0.2,0.8,0.3,1.7,0.3,2.5c0,0.4,0,0.8,0,1.2
			c0,0.4-0.1,0.8-0.1,1.2l-0.8-0.8C468.1,449,469.1,449.2,470,449.5z"/>
	</g>
	<g>
		<path d="M473.2,439.6c1-0.4,2-0.5,3-0.7l0.7-0.1l0.1,0.8c0,0.4,0.1,0.8,0.1,1.2c0,0.4,0.1,0.8,0,1.2c0,0.8-0.2,1.7-0.3,2.5
			c-0.2,0.8-0.3,1.7-0.3,2.5c0,0.8,0.1,1.7,0.2,2.5l0.1,0.4l-0.6,0.1c-1,0.2-2,0.3-3,0.4l-0.9,0l-0.1-1c-0.1-1.7-0.2-3.3-0.1-5
			c0.2-1.7,0.4-3.3,0.9-5L473.2,439.6L473.2,439.6z M473.3,439.8c0.5,1.6,0.7,3.2,0.8,4.9c0.2,1.7,0.1,3.3-0.1,5l-0.9-0.9
			c1,0.1,2,0.2,3,0.4l-0.5,0.5c0.1-0.8,0.2-1.7,0.2-2.5c0-0.8-0.1-1.7-0.3-2.5c-0.2-0.8-0.3-1.7-0.3-2.5c0-0.4,0-0.8,0-1.2
			c0-0.4,0.1-0.8,0.1-1.2l0.8,0.8C475.2,440.3,474.3,440.1,473.3,439.8z"/>
	</g>
</g>
<g id="full-screen">
	<g>
		<path class="st5" d="M512.5,452.8"/>
	</g>
	<g>
		<path class="st5" d="M532.5,452.5"/>
	</g>
	<g>
		<path d="M532.3,455.1c0,0-0.4,0-1,0c-0.7,0-1.7,0-2.9,0.1c-1.2,0-2.8,0.1-4.5,0.3c-1.7,0.1-3.7,0.3-5.8,0.4
			c-1.1,0.1-2.2,0.1-3.3,0.1c-0.6,0-1.2,0-1.8,0c-0.6,0-1.3,0-2-0.2c-1.4-0.4-2.7-1.3-3.4-2.6c-0.4-0.6-0.6-1.3-0.7-2.1
			c-0.1-0.4-0.1-0.7,0-1.1l0.1-1c0.2-2.7,0.2-5.4,0.2-8.3c0-0.7,0-1.5,0.2-2.2c0.2-0.7,0.6-1.4,1-2c1-1.2,2.5-2,4.1-2
			c1.4-0.1,2.9-0.1,4.3-0.2c1.4,0,2.8-0.1,4.2-0.1c2.8-0.1,5.6-0.1,8.3-0.2c0.7,0,1.3,0,2,0l1,0l0.2,0l0.3,0c0.2,0,0.3,0,0.6,0.1
			c1.6,0.2,3,1.1,3.9,2.3c0.9,1.1,1.3,2.7,1.3,4c0,1.2-0.1,2.3-0.1,3.3c-0.1,2.1-0.3,4.1-0.4,5.8c0,0.2,0,0.4,0,0.7
			c0,0.2,0,0.4-0.1,0.6c-0.1,0.5-0.2,0.8-0.4,1.2c-0.3,0.7-0.8,1.3-1.3,1.7c-1,0.9-2,1.2-2.6,1.3c-0.3,0.1-0.6,0.1-0.8,0.1
			C532.4,455.1,532.3,455.1,532.3,455.1z M532.3,454.9c0,0,0.1,0,0.3,0c0.2,0,0.4,0,0.7-0.1c0.6-0.1,1.6-0.5,2.4-1.4
			c0.4-0.4,0.8-1,1-1.7c0.1-0.3,0.2-0.7,0.2-1.1c0-0.2,0-0.4,0-0.6c0-0.2,0-0.4,0-0.6c-0.1-1.7-0.3-3.7-0.4-5.8
			c-0.1-1.1-0.1-2.2-0.1-3.3c0-1-0.3-1.9-0.9-2.7c-0.6-0.7-1.6-1.3-2.5-1.4c-0.1,0-0.2,0-0.4,0c-0.1,0-0.2,0-0.2,0l-0.2,0l-1,0
			c-0.7,0-1.3,0-2,0c-2.7-0.1-5.4-0.1-8.3-0.2c-1.4,0-2.8-0.1-4.2-0.1c-1.4-0.1-2.9-0.1-4.3-0.2c-1.3-0.1-2.6,0.5-3.5,1.4
			c-0.4,0.5-0.8,1.1-1,1.7c-0.2,0.6-0.2,1.3-0.2,2c0,2.8,0.1,5.6,0.2,8.3l0.1,1c0,0.3,0.1,0.6,0.1,0.9c0.1,0.6,0.4,1.1,0.7,1.5
			c0.7,0.9,1.6,1.5,2.6,1.7c0.1,0,0.2,0,0.3,0.1l0.2,0l0.2,0l0.2,0c0,0,0.1,0,0.2,0l0.4,0c0.6,0,1.2,0,1.8,0c1.2,0,2.3,0,3.3,0.1
			c2.1,0.1,4.1,0.3,5.8,0.4c1.7,0.1,3.3,0.2,4.5,0.3c1.2,0.1,2.2,0.1,2.9,0.1C531.9,454.9,532.3,454.9,532.3,454.9z"/>
	</g>
	<g>
		<path d="M519,439.6c-0.4,0.4-0.8,0.5-1.1,0.7c-0.4,0.1-0.7,0.2-1.1,0.1c-0.4-0.1-0.8-0.5-1.1-0.5c-0.4-0.1-0.7,0-1.1,0.2l0.5-0.5
			c0.2,0.4,0.3,0.8,0.4,1.1c0.1,0.4,0.2,0.8,0.1,1.1c0,0.4-0.1,0.7-0.3,1.1c-0.1,0.4-0.4,0.7-0.7,1.1h-0.2c-0.3-0.4-0.5-0.7-0.7-1.1
			c-0.2-0.4-0.2-0.8-0.3-1.1c0-0.4,0-0.8,0.1-1.1c0.1-0.4,0.2-0.7,0.4-1.1l0.3-0.7l0.2,0.1c0.4,0.2,0.7,0.3,1.1,0.2
			c0.4-0.1,0.8-0.4,1.1-0.5c0.4-0.1,0.8,0,1.1,0.1c0.4,0.1,0.8,0.3,1.1,0.7V439.6z"/>
	</g>
	<g>
		<path d="M514.6,446c0.4,0.4,0.5,0.7,0.7,1.1c0.1,0.4,0.2,0.8,0.1,1.1c-0.1,0.4-0.5,0.8-0.5,1.1c-0.1,0.4,0,0.7,0.2,1.1l-0.5-0.5
			c0.4-0.2,0.7-0.3,1.1-0.4c0.4-0.1,0.8-0.2,1.1-0.1c0.4,0,0.8,0.1,1.1,0.3c0.4,0.1,0.8,0.4,1.1,0.7v0.2c-0.4,0.3-0.8,0.5-1.1,0.7
			c-0.4,0.2-0.7,0.2-1.1,0.3c-0.4,0-0.8,0-1.1-0.1c-0.4-0.1-0.7-0.2-1.1-0.4l-0.7-0.3l0.1-0.2c0.2-0.4,0.3-0.8,0.2-1.1
			c-0.1-0.4-0.4-0.8-0.5-1.1c-0.1-0.4,0-0.7,0.1-1.1c0.1-0.4,0.3-0.7,0.7-1.1H514.6z"/>
	</g>
	<g>
		<path d="M525,439.4c0.4-0.4,0.8-0.5,1.1-0.7c0.4-0.1,0.7-0.2,1.1-0.1c0.4,0.1,0.8,0.5,1.1,0.5c0.4,0.1,0.7,0,1.1-0.2l0.2-0.1
			l0.3,0.7c0.2,0.4,0.3,0.8,0.4,1.1c0.1,0.4,0.2,0.8,0.1,1.1c0,0.4-0.1,0.7-0.3,1.1c-0.1,0.4-0.4,0.7-0.7,1.1h-0.2
			c-0.3-0.4-0.5-0.7-0.7-1.1c-0.2-0.4-0.2-0.8-0.3-1.1c0-0.4,0-0.8,0.1-1.1c0.1-0.4,0.2-0.7,0.4-1.1l0.5,0.5
			c-0.4-0.2-0.7-0.3-1.1-0.2c-0.4,0.1-0.8,0.4-1.1,0.5c-0.4,0.1-0.8,0-1.1-0.1c-0.4-0.1-0.8-0.3-1.1-0.7V439.4z"/>
	</g>
	<g>
		<path d="M529.6,446c0.4,0.4,0.5,0.7,0.7,1.1c0.1,0.4,0.2,0.8,0.1,1.1c-0.1,0.4-0.5,0.8-0.5,1.1c-0.1,0.4,0,0.7,0.2,1.1l0.1,0.2
			l-0.7,0.3c-0.4,0.2-0.7,0.3-1.1,0.4c-0.4,0.1-0.8,0.2-1.1,0.1c-0.4,0-0.8-0.1-1.1-0.3c-0.4-0.1-0.8-0.4-1.1-0.7v-0.2
			c0.4-0.3,0.8-0.5,1.1-0.7c0.4-0.2,0.7-0.2,1.1-0.3c0.4,0,0.8,0,1.1,0.1c0.4,0.1,0.7,0.2,1.1,0.4l-0.5,0.5c0.2-0.4,0.3-0.8,0.2-1.1
			c-0.1-0.4-0.4-0.8-0.5-1.1c-0.1-0.4,0-0.7,0.1-1.1c0.1-0.4,0.3-0.7,0.7-1.1H529.6z"/>
	</g>
</g>
<g id="shading-top-left">
</g>
<g id="shading-side">
</g>
<g id="screen">
	<g>
		<path d="M284.5,343.2c0,0,0,0.3,0.1,0.9c0.1,0.6,0.2,1.5,0.7,2.7c0.5,1.1,1.3,2.4,2.8,3.5c1.4,1.1,3.5,1.9,5.9,1.8
			c9.6,0,23.6,0,41.4-0.1c35.7-0.1,86.7-0.1,147.8-0.2c30.6-0.1,63.7-0.1,98.8,0c17.5,0,35.5,0,53.9,0.1c4.6,0,9.2,0,13.9,0
			c1.2,0,2.3,0.1,3.5-0.1c1.1-0.1,2.2-0.5,3.2-1.1c2-1.1,3.4-3,4-5.2c0.3-1.1,0.3-2.2,0.3-3.4l0-3.5c0-2.4,0-4.7,0-7.1
			c0-4.7,0-9.5,0-14.3c0-38.2,0.1-77.7,0.1-117.9c0-40.1-0.1-80.9-0.1-121.7c0-2.5-1.1-4.9-3-6.6c-0.9-0.8-2-1.4-3.2-1.8
			c-1.2-0.4-2.4-0.4-3.7-0.4c-5.1,0-10.2,0-15.3,0c-10.2,0-20.4,0-30.5,0c-20.3,0-40.5,0.1-60.6,0.1c-40.1,0-79.6,0-117.9,0
			c-38.2,0-75.2,0-110.2,0c-4.4,0-8.7,0-13.1,0c-2.2,0-4.3,0-6.5,0c-1.1,0-2.1,0-3.2,0c-1.1,0-2,0.1-3,0.5c-1.9,0.6-3.5,2-4.5,3.7
			c-0.5,0.9-0.9,1.8-1,2.8c-0.1,0.5-0.1,1-0.1,1.5l0,1.6c0,4.2,0,8.3,0,12.5c0,16.5-0.1,32.4-0.1,47.7
			C284.7,261.7,284.5,343.2,284.5,343.2z M284.5,343.2c0,0-0.1-81.6-0.3-203.9c0-15.3-0.1-31.2-0.1-47.7c0-4.1,0-8.3,0-12.5l0-1.6
			c0-0.6,0.1-1.1,0.2-1.7c0.2-1.1,0.6-2.2,1.2-3.1c1.1-1.9,2.9-3.4,5.1-4.2c1.1-0.4,2.2-0.5,3.3-0.5c1.1,0,2.1,0,3.2,0
			c2.1,0,4.3,0,6.5,0c4.3,0,8.7,0,13.1,0c35,0,72,0,110.2,0c38.2,0,77.7,0,117.9,0c20.1,0,40.3,0.1,60.6,0.1c10.2,0,20.3,0,30.5,0
			c5.1,0,10.2,0,15.3,0c1.3,0,2.6,0,3.9,0.4c1.3,0.4,2.4,1,3.4,1.9c2,1.7,3.2,4.3,3.2,7c0,40.8-0.1,81.6-0.1,121.7
			c0,40.1,0.1,79.6,0.1,117.9c0,4.8,0,9.5,0,14.3c0,2.4,0,4.7,0,7.1l0,3.5c0,1.2,0,2.4-0.3,3.6c-0.6,2.4-2.2,4.4-4.3,5.6
			c-1,0.6-2.2,1-3.4,1.2c-1.2,0.1-2.4,0.1-3.5,0.1c-4.6,0-9.3,0-13.9,0c-18.4,0-36.4,0-53.9,0.1c-35,0.1-68.2,0-98.8,0
			c-61.2-0.1-112.1-0.2-147.8-0.2c-17.8,0-31.9,0-41.4-0.1c-2.4,0.1-4.5-0.7-6-1.8c-1.5-1.1-2.3-2.5-2.8-3.6
			c-0.5-1.1-0.6-2.1-0.7-2.7C284.5,343.5,284.5,343.2,284.5,343.2z"/>
	</g>
	<g>
		<path d="M363.2,207.1c0,0,0.5,0.1,1,0.5c0.1,0.1,0.2,0.2,0.3,0.4c0.1,0.1,0.2,0.4,0.2,0.5c0.1,0.2,0.1,0.4,0.3,0.6
			c0.1,0.2,0.3,0.3,0.4,0.4c0.2,0.1,0.3,0.3,0.5,0.4c0.1,0.2,0.3,0.3,0.4,0.5c0.1,0.2,0.2,0.3,0.3,0.5c0.1,0.2,0.1,0.3,0.1,0.5
			c0.1,0.6,0,1.1,0,1.1l-0.1,0c0,0-0.4-0.3-0.7-0.8c-0.2-0.2-0.4-0.5-0.5-0.9c-0.1-0.3-0.3-0.7-0.4-1.1c-0.1-0.2-0.1-0.4-0.2-0.6
			c-0.1-0.2-0.3-0.3-0.4-0.4c-0.2-0.1-0.3-0.2-0.5-0.3c-0.1-0.1-0.2-0.3-0.3-0.4c-0.2-0.3-0.3-0.5-0.3-0.7
			C363.2,207.3,363.2,207.2,363.2,207.1L363.2,207.1z"/>
	</g>
	<g>
		<path d="M373.4,228.9c0,0,0.1,0.3,0.2,0.8c0.2,0.5,0.4,1.3,0.9,2.3c0.5,0.9,1.1,2.1,2,3.2c0.9,1.2,1.9,2.5,3,3.9
			c1.2,1.4,2.3,3,3.6,4.7c1.3,1.6,2.6,3.4,4.2,5c0.8,0.8,1.6,1.6,2.7,2.1c1,0.5,2.2,0.6,3.3,0.3c2.3-0.6,4.2-2.2,6-3.8
			c0.9-0.8,1.8-1.7,2.7-2.5c0.9-0.8,1.8-1.6,2.7-2.4c1.9-1.5,3.8-2.9,5.7-4.2c1.9-1.3,3.7-2.5,5.5-3.6c1.8-1.1,3.4-2.2,4.9-3.2
			c1.5-1,2.9-1.9,4.1-2.8c1.2-0.8,2.2-1.6,3-2.3c0.8-0.7,1.5-1.2,1.9-1.6c0.4-0.4,0.7-0.6,0.7-0.6l0.1,0.1c0,0-0.2,0.2-0.6,0.6
			c-0.4,0.4-1,1-1.8,1.8c-0.4,0.4-0.8,0.8-1.3,1.2c-0.5,0.4-1,0.9-1.6,1.3c-1.1,1-2.5,1.9-4,3c-1.5,1.1-3.1,2.2-4.9,3.3
			c-1.7,1.2-3.6,2.4-5.5,3.6c-1.9,1.3-3.8,2.6-5.7,4c-1.9,1.4-3.7,3-5.6,4.6c-0.9,0.8-1.9,1.5-3,2.2c-1,0.7-2.1,1.2-3.3,1.5
			c-1.2,0.3-2.5,0.3-3.6-0.3c-1.1-0.5-2-1.3-2.9-2c-1.7-1.5-3.2-3.2-4.5-4.9c-1.3-1.6-2.4-3.3-3.5-4.7c-1.1-1.4-2.1-2.8-2.9-4.1
			c-0.8-1.3-1.4-2.4-1.8-3.4c-0.4-1-0.6-1.8-0.7-2.4C373.4,229.3,373.3,229,373.4,228.9L373.4,228.9z"/>
	</g>
	<g>
		<path d="M435.3,134.1c1.6,1.1,3,2.4,4.3,3.8c0.6,0.7,1.2,1.5,1.7,2.3c0.2,0.4,0.5,0.8,0.8,1.2c0.3,0.4,0.5,0.8,0.8,1.2
			c0.3,0.4,0.5,0.8,0.8,1.2c0.2,0.4,0.5,0.8,0.7,1.3c0.2,0.4,0.4,0.9,0.5,1.4c0.1,0.5,0.2,1,0.4,1.4c0.1,0.5,0.1,1,0.2,1.5
			c0,0.5,0,1-0.1,1.5c-0.1,0.5-0.2,1-0.3,1.5l-0.6,1.4l-1.4,3.3l0.6-3.4c0-0.2,0.1-0.2,0.1-0.3l0.1-0.1l0.1-0.2l0.3-0.3
			c0.1-0.1,0.2-0.2,0.3-0.3l0.1-0.1l0.1-0.1l0,0l0,0l0,0l0,0c0.1,0,0.2,0,0.2,0c0.1,0,0.1,0,0.2,0.1c0.1,0.1,0.1,0.2,0,0.3
			c0,0.1,0,0,0,0.1l0,0l0,0l-0.1,0.1l-0.1,0.1l-0.3,0.3c-0.2,0.2-0.4,0.3-0.5,0.5l-0.3,0.3l0-0.4c0-0.3,0-0.6,0.1-0.9l0.1,0
			c0.1,0.3,0.1,0.6,0.2,1l-0.3-0.1c0.1-0.2,0.3-0.4,0.4-0.6l0.2-0.3l0.1-0.1l0-0.1l0,0c0,0,0,0,0,0c0,0,0,0,0,0.1
			c0,0.1,0,0.2,0.1,0.3c0.1,0.1,0.1,0.1,0.2,0.1c0.1,0,0.2,0,0.2,0l0,0l0,0c0,0,0,0,0,0l0,0l-0.1,0.1l-0.1,0.1l-0.2,0.3l-0.2,0.3
			l-0.1,0.1l0,0.1c0,0,0,0.1,0-0.1l-0.8-0.2l0.4-1.3c0.1-0.4,0.2-0.9,0.2-1.3c0.1-0.4,0.1-0.9,0.1-1.3l-0.1-1.4l-0.2-1.3l-0.4-1.3
			c-0.3-0.9-0.6-1.8-1.1-2.6c-0.2-0.4-0.5-0.8-0.8-1.2c-0.3-0.4-0.6-0.7-0.9-1.1l-1-1c-0.3-0.3-0.7-0.7-1-1
			c-0.6-0.7-1.3-1.4-1.9-2.1c-0.3-0.4-0.6-0.7-0.9-1.1C435.8,134.9,435.5,134.5,435.3,134.1L435.3,134.1z"/>
	</g>
	<g>
		<path d="M425.7,185.2c-0.9-0.3-1.8-0.3-2.7-0.2l-0.1,0l-0.1,0c-0.6-0.4-1.2-0.8-1.8-1.2c-0.6-0.5-1.1-0.9-1.6-1.5
			c-0.5-0.5-1-1.1-1.4-1.7c-0.4-0.6-0.8-1.2-1.1-1.9c-0.3-0.7-0.6-1.3-0.8-2.1l-0.3-1.1c-0.1-0.4-0.1-0.7-0.2-1.1
			c-0.1-0.7-0.1-1.5-0.1-2.2l0.1-1.1l0.2-1.1l0.2,0.3l-1.7-0.6c-0.5-0.3-1.1-0.6-1.6-0.9c-0.5-0.3-1-0.7-1.4-1.1
			c-0.4-0.4-0.8-0.9-1.2-1.3c-0.4-0.5-0.7-1-1-1.5l-0.8-1.6c-0.2-0.6-0.4-1.1-0.6-1.7c-0.2-0.6-0.3-1.2-0.5-1.8
			c-0.1-0.6-0.2-1.2-0.3-1.8l-0.1-1.8l0-1.8l0.1-1.8c0.1-0.6,0.2-1.2,0.3-1.8c0.1-0.6,0.3-1.2,0.4-1.8c0.1-0.6,0.4-1.2,0.5-1.7
			c0.2-0.6,0.4-1.1,0.7-1.7l0,0l0,0c0.8-1.2,1.8-2.2,2.9-3c1.1-0.8,2.3-1.6,3.5-2.2c0.3-0.2,0.6-0.3,0.9-0.5
			c0.3-0.1,0.6-0.3,0.9-0.4c0.3-0.1,0.7-0.2,1-0.3c0.3-0.1,0.7-0.1,1-0.1c0.7-0.1,1.3-0.1,2-0.3c0.3-0.1,0.6-0.2,0.9-0.4
			c0.3-0.2,0.5-0.4,0.7-0.7l0.1,0.1c-0.2,0.3-0.4,0.6-0.6,0.8c-0.3,0.3-0.6,0.4-0.9,0.6c-0.6,0.3-1.3,0.4-2,0.5
			c-0.3,0.1-0.7,0.1-1,0.2c-0.3,0.1-0.6,0.1-0.9,0.3c-0.3,0.1-0.6,0.3-0.9,0.5l-0.9,0.5c-2.3,1.3-4.5,3-5.9,5.1l0-0.1
			c-0.2,0.5-0.4,1.1-0.6,1.6c-0.2,0.6-0.4,1.1-0.5,1.7c-0.1,0.6-0.3,1.1-0.4,1.7c-0.1,0.6-0.2,1.1-0.3,1.7l-0.2,1.7l-0.1,1.7l0,1.7
			l0.2,1.7c0.1,0.6,0.2,1.1,0.3,1.7c0.2,0.6,0.3,1.1,0.5,1.7c0.2,0.5,0.5,1.1,0.7,1.6c0.3,0.5,0.6,1,1,1.5c0.4,0.4,0.8,0.9,1.2,1.3
			c0.5,0.3,0.9,0.7,1.4,1c0.5,0.3,1,0.6,1.6,0.8l1.7,0.5l0.2,0.1l0,0.3l-0.1,1.1l0,1.1c0,0.7,0.1,1.4,0.2,2.1c0.1,0.7,0.3,1.4,0.5,2
			l0.3,1l0.4,1c0.3,0.6,0.6,1.2,1,1.8c0.4,0.6,0.8,1.1,1.3,1.7c0.5,0.5,1,1,1.5,1.5c0.5,0.5,1.1,0.9,1.6,1.3l-0.1,0
			C424,184.6,424.9,184.7,425.7,185.2L425.7,185.2z"/>
	</g>
	<g>
		<path d="M443.8,155.7c0,0-0.3,0.1-0.9,0.1c-0.3,0.1-0.6,0.1-0.9,0.2c-0.3,0.1-0.7,0.2-1,0.4c-0.3,0.2-0.4,0.6-0.5,1
			c-0.1,0.4-0.1,1,0,1.5c0.1,0.6,0.3,1.1,0.6,1.7c0.3,0.5,0.7,1,1.1,1.5c0.4,0.5,0.8,0.9,1.2,1.4c0.4,0.5,0.8,0.9,1.2,1.3
			c0.4,0.4,0.8,0.8,1.2,1.2c0.4,0.4,0.7,0.7,1.1,1c0.3,0.3,0.6,0.6,0.9,0.8c0.3,0.3,0.5,0.4,0.7,0.6c0.2,0.2,0.4,0.3,0.5,0.3
			c0.1,0.1,0.2,0.1,0.2,0.1l0,0.1c0,0-0.3,0-0.9-0.2c-0.5-0.2-1.3-0.6-2-1.1c-0.8-0.6-1.6-1.3-2.4-2.2c-0.8-0.9-1.6-1.9-2.1-3
			c-0.3-0.6-0.6-1.1-0.9-1.7c-0.3-0.5-0.6-1.1-0.8-1.6c-0.2-0.6-0.4-1.2-0.4-1.8c0-0.6,0.4-1.3,0.9-1.6c0.5-0.3,1-0.4,1.4-0.4
			c0.4-0.1,0.8,0,1,0C443.6,155.5,443.9,155.6,443.8,155.7L443.8,155.7z"/>
	</g>
	<g>
		<path d="M445.1,157.4c0.4,0.1,0.8,0.3,1.1,0.6c0.3,0.3,0.6,0.6,0.9,0.9l0.5,0.6l-0.8,0.1c-0.4,0-0.8,0.1-1.2,0
			c-0.4,0-0.8-0.1-1.2-0.1l0.2-0.1c0,0.2,0,0.3-0.1,0.5c0,0.2,0,0.3,0,0.5c0.1,0.3,0.2,0.6,0.4,0.8c0.1,0.1,0.2,0.2,0.3,0.3
			c0.1,0.1,0.2,0.2,0.3,0.3c0.2,0.2,0.5,0.3,0.8,0.4c0.6,0.2,1.2,0.5,1.8,0.8c0.3,0.1,0.6,0.3,0.9,0.5c0.3,0.2,0.6,0.4,0.8,0.7
			l-0.1,0.1l-1.9-0.4c-0.6-0.1-1.3-0.3-1.9-0.7c-0.3-0.2-0.6-0.4-0.9-0.6c-0.1-0.1-0.3-0.3-0.4-0.4c-0.1-0.2-0.2-0.3-0.3-0.5
			c-0.1-0.4-0.2-0.7-0.1-1.1c0-0.2,0-0.4,0-0.5c0-0.2,0-0.3,0-0.5l0-0.1l0.2,0c0.4-0.1,0.7-0.2,1.1-0.3c0.4-0.1,0.7-0.2,1.1-0.2
			l-0.3,0.7L445.1,157.4L445.1,157.4z"/>
	</g>
	<g>
		<path d="M464,151.8c0,0-0.2-0.1-0.1-0.2c0.1-0.1,0.1-0.2,0.2-0.2c0.1,0,0.1,0,0.2,0c0.1,0,0.2,0.1,0.3,0.1
			c0.1,0.1,0.2,0.1,0.3,0.1c0.1,0,0.2-0.1,0.3-0.2c0.1-0.1,0.2-0.2,0.3-0.2c0.1,0,0.2-0.1,0.3-0.1c0.2-0.1,0.3-0.1,0.5,0
			c0.3,0.1,0.6,0.2,0.6,0.2l0.1,0.1c0,0-0.1,0.4-0.4,0.6c-0.1,0.1-0.3,0.2-0.5,0.2c-0.2,0-0.4,0-0.7-0.1c-0.1,0-0.2-0.1-0.3-0.1
			c-0.1,0-0.2,0.1-0.3,0.1c-0.1,0.1-0.2,0.2-0.3,0.2c-0.1,0-0.2,0-0.3,0c-0.2,0-0.1-0.1-0.2-0.2c-0.1-0.1,0.1-0.2,0.1-0.2V151.8z"/>
	</g>
	<g>
		<path d="M464.6,151.9c0,0,0.2-0.1,0.6,0c0.4,0.1,0.9,0.3,1.4,0.8c0.2,0.2,0.5,0.5,0.7,0.8c0.2,0.3,0.3,0.7,0.5,1
			c0.1,0.4,0.3,0.7,0.5,1.1c0.2,0.4,0.4,0.7,0.6,1.1c0.2,0.4,0.4,0.7,0.5,1.1c0.1,0.4,0.2,0.8,0.3,1.2c0.1,0.8,0.1,1.5,0,2.1
			c-0.1,1.2-0.4,2-0.4,2h-0.1c0,0-0.3-0.8-0.4-2c-0.1-0.6-0.1-1.3-0.2-2c0-0.4-0.1-0.7-0.1-1.1c-0.1-0.4-0.1-0.8-0.2-1.1
			c-0.1-0.4-0.2-0.8-0.4-1.1c-0.2-0.4-0.4-0.7-0.7-0.9c-0.3-0.3-0.5-0.5-0.7-0.8c-0.2-0.3-0.4-0.5-0.6-0.7c-0.4-0.4-0.7-0.8-1-1
			C464.8,152.1,464.6,152,464.6,151.9L464.6,151.9z"/>
	</g>
	<g>
		<path d="M470.7,160.4c0,0,0.1,0.1,0.2,0.1c0.1,0.1,0.3,0.1,0.5,0.2c0.1,0.1,0.2,0.1,0.3,0.2c0.1,0.1,0.2,0.3,0.3,0.4
			c0.1,0.2,0.2,0.3,0.3,0.5c0.1,0.1,0.1,0.2,0.2,0.3c0,0.1,0.1,0.1,0.1,0.3c0.1,0.2,0.2,0.4,0.2,0.6c0,0.2,0,0.4-0.1,0.6
			c-0.1,0.4-0.3,0.7-0.6,0.8c-0.5,0.4-1,0.3-1,0.3l0-0.1c0,0,0.1-0.1,0.1-0.2c0.1-0.1,0.1-0.3,0.2-0.5c0-0.1,0.1-0.2,0.1-0.3
			c0-0.1,0.1-0.2,0.2-0.3c0.1-0.1,0.1-0.2,0.2-0.4c0-0.1,0.1-0.3,0.2-0.4c0-0.1,0-0.2,0-0.2c0,0,0-0.1-0.1-0.2
			c-0.1-0.1-0.2-0.2-0.4-0.2c-0.2,0-0.3-0.1-0.4-0.1c-0.1-0.1-0.2-0.2-0.3-0.3c-0.2-0.2-0.3-0.5-0.3-0.7
			C470.5,160.5,470.6,160.4,470.7,160.4L470.7,160.4z"/>
	</g>
	<g>
		<path d="M472.3,163.6c0,0,0.2,0,0.5,0.3c0.3,0.2,0.7,0.7,1,1.3c0.3,0.7,0.4,1.5,0.7,2.4c0.3,0.8,1,1.7,1.5,2.8
			c0.5,1.1,1,2.5,0.6,4c-0.1,0.3-0.2,0.7-0.4,1.1c-0.2,0.4-0.5,0.7-0.8,0.9c-0.6,0.5-1.2,0.9-1.9,1.3c-1.3,0.7-2.8,1.2-4.2,2
			c-0.7,0.4-1.3,0.9-1.9,1.4c-0.6,0.5-1.1,1.1-1.6,1.7c-1,1.2-1.8,2.6-2.6,3.9c-0.8,1.4-1.5,2.7-2.2,4c-0.4,0.7-0.8,1.3-1.1,1.9
			c-0.3,0.6-0.7,1.2-0.9,1.8c-0.6,1.2-1,2.4-1.4,3.5c-0.7,2.3-0.8,4.2-0.7,5.6c0,0.3,0.1,0.6,0.1,0.9c0,0.3,0.1,0.5,0.2,0.7
			c0.1,0.4,0.2,0.5,0.2,0.5l-0.1,0c0,0-0.1-0.2-0.2-0.5c-0.1-0.2-0.2-0.4-0.2-0.7c-0.1-0.3-0.2-0.6-0.2-0.9
			c-0.2-0.7-0.2-1.6-0.2-2.6c0-1,0.2-2.1,0.4-3.3c0.3-1.2,0.7-2.5,1.2-3.7c0.5-1.3,1.3-2.6,2.1-3.8c0.8-1.3,1.5-2.6,2.4-4
			c0.8-1.3,1.8-2.7,2.9-3.9c1.1-1.2,2.4-2.2,3.8-3c1.4-0.8,2.8-1.3,4.1-2.2c0.6-0.4,1.2-0.8,1.7-1.3c0.2-0.2,0.4-0.5,0.6-0.8
			c0.2-0.3,0.2-0.6,0.3-0.9c0.3-1.2-0.1-2.4-0.6-3.5c-0.5-1.1-1.1-2-1.4-3c-0.2-1-0.3-1.8-0.5-2.5c-0.2-0.7-0.5-1.1-0.7-1.3
			C472.4,163.8,472.2,163.7,472.3,163.6L472.3,163.6z"/>
	</g>
	<g>
		<path d="M463.8,219.4c0,0-0.4,0.1-0.6-0.1c-0.1,0-0.1-0.1-0.2-0.2c0-0.1,0-0.2-0.1-0.3c0-0.1,0-0.2-0.1-0.3
			c-0.1-0.1-0.2-0.1-0.3-0.2c-0.1,0-0.2-0.1-0.3-0.2c-0.1-0.1-0.2-0.1-0.2-0.2c-0.1-0.2-0.2-0.3-0.2-0.5c0-0.4,0.1-0.7,0.1-0.7
			l0.1,0c0,0,0.3,0.1,0.6,0.3c0.1,0.1,0.3,0.2,0.3,0.4c0.1,0.2,0.1,0.4,0.1,0.6c0,0.1,0,0.2,0.1,0.3c0.1,0.1,0.2,0.1,0.3,0.2
			c0.1,0,0.2,0,0.3,0.1c0.1,0,0.1,0.1,0.1,0.2c0.1,0.1,0.1,0.3,0.1,0.4C463.9,219.2,463.8,219.3,463.8,219.4L463.8,219.4z"/>
	</g>
	<g>
		<line class="st5" x1="361.7" y1="174.9" x2="361.7" y2="174.9"/>
	</g>
	<g>
		<path d="M413.4,244.5c0,0,0.3,0.5,0.8,1.5c0.2,0.5,0.5,1.1,0.8,1.8c0.3,0.7,0.5,1.5,0.8,2.4c0.3,0.9,0.5,1.9,0.7,2.9
			c0.2,1.1,0.3,2.2,0.4,3.4c0.1,1.2,0.2,2.4,0.3,3.6c0.1,1.2,0.2,2.5,0.3,3.7c0.1,1.2,0.1,2.5,0.2,3.7c0.1,1.2,0.1,2.4,0.2,3.6
			c0.1,2.3,0,4.5-0.2,6.4c-0.1,0.9-0.3,1.8-0.6,2.6c-0.3,0.7-0.6,1.3-0.8,1.8c-0.2,0.5-0.4,0.9-0.5,1.1c-0.1,0.3-0.1,0.4-0.1,0.4
			l-0.1,0c0,0,0-0.6,0.3-1.7c0.2-0.5,0.4-1.1,0.6-1.8c0.2-0.7,0.3-1.5,0.3-2.4c0-1.8,0-4,0-6.3c0-1.2,0-2.4,0-3.6
			c0-1.2,0.1-2.5,0.1-3.7c0-1.2,0-2.5,0-3.7c-0.1-1.2-0.2-2.4-0.5-3.5c-0.2-1.1-0.5-2.2-0.7-3.3c-0.2-1-0.4-2-0.7-2.9
			c-0.2-0.9-0.4-1.7-0.6-2.4c-0.2-0.7-0.4-1.3-0.5-1.9c-0.1-0.5-0.3-0.9-0.4-1.2C413.4,244.7,413.3,244.5,413.4,244.5L413.4,244.5z"
			/>
	</g>
	<g>
		<path d="M446.2,155.6c0,0,0-0.5,0.2-1.2c0.1-0.4,0.1-0.9,0.2-1.4c0.1-0.5,0.1-1.1,0.2-1.8c0.1-0.7,0.1-1.4,0.1-2.1
			c0.1-0.8,0-1.5,0.1-2.4c-0.1-0.8-0.1-1.7-0.3-2.5c-0.1-0.4-0.2-0.9-0.4-1.3l-0.5-1.2c-0.2-0.4-0.4-0.8-0.6-1.1
			c-0.2-0.4-0.4-0.7-0.7-1.1c-0.4-0.7-1-1.3-1.6-1.9c-0.6-0.5-1.2-1-1.8-1.4c-0.3-0.2-0.6-0.4-0.9-0.6c-0.3-0.1-0.6-0.3-0.9-0.4
			c-0.3-0.1-0.6-0.3-0.9-0.3c-0.3-0.1-0.6-0.2-0.8-0.2c-0.5-0.2-1-0.2-1.4-0.3c-0.8-0.1-1.2-0.2-1.2-0.2l0-0.1c0,0,0.4,0,1.2-0.1
			c0.4,0,0.9,0,1.4,0.1c0.5,0.1,1.2,0.1,1.8,0.4c0.3,0.1,0.7,0.2,1,0.4c0.4,0.1,0.7,0.4,1,0.6c0.7,0.4,1.3,1,2,1.6
			c0.5,0.7,1.2,1.4,1.6,2.2c0.5,0.8,0.8,1.7,1.1,2.5c0.2,0.9,0.5,1.7,0.7,2.6c0.2,0.9,0.3,1.7,0.5,2.6c0.1,0.4,0.1,0.8,0.2,1.2
			c0,0.2,0.1,0.4,0.1,0.6c0,0.2,0,0.4,0,0.6c0,0.4,0,0.8,0,1.1c0,0.4-0.1,0.7-0.1,1.1c-0.1,0.3-0.1,0.7-0.1,1
			c-0.1,0.3-0.1,0.6-0.2,0.9c-0.1,0.5-0.3,1-0.4,1.4C446.5,155.2,446.3,155.6,446.2,155.6L446.2,155.6z"/>
	</g>
	<g>
		<path d="M437,185.7c0.3,0,0.6,0,0.9,0c0.3,0,0.6,0,0.9-0.1c0.3,0,0.5-0.1,0.8-0.2c0.1,0,0.2-0.1,0.3-0.2c0.1-0.1,0.2-0.2,0.3-0.2
			c0.2-0.2,0.3-0.4,0.4-0.6c0.1-0.2,0.2-0.5,0.3-0.8c0.1-0.3,0.2-0.6,0.2-0.9c0.1-0.3,0.1-0.6,0.1-0.9l0-0.3l0.2,0.1
			c0.2,0.1,0.3,0.1,0.5,0.2c0.2,0.1,0.4,0.1,0.5,0.1c0.2,0,0.4,0,0.6,0c0.2,0,0.4,0,0.5-0.1c0.2,0,0.4-0.1,0.5-0.1
			c0.2,0,0.3-0.1,0.5-0.2c0.3-0.2,0.6-0.4,0.8-0.6c0.1-0.1,0.2-0.2,0.3-0.4c0.1-0.1,0.2-0.3,0.2-0.4c0.1-0.1,0.1-0.3,0.1-0.5
			c0-0.2,0.1-0.3,0.1-0.5c0-0.2,0-0.3,0-0.5c0-0.2,0-0.3-0.1-0.5c0-0.2,0-0.3-0.1-0.5l-0.2-0.5l-0.1-0.3l0.2-0.2
			c0.4-0.4,0.6-1,0.8-1.5c0.2-0.6,0.2-1.2,0.3-1.9l0.1,0c0.2,0.6,0.3,1.3,0.3,2c0,0.7-0.3,1.4-0.7,2l0.1-0.5l0.2,0.6
			c0.1,0.2,0.1,0.4,0.2,0.6c0.1,0.2,0.1,0.4,0.1,0.6c0,0.2,0,0.4,0,0.7c0,0.2-0.1,0.4-0.1,0.6c0,0.2-0.1,0.4-0.2,0.6
			c-0.1,0.2-0.2,0.4-0.4,0.6c-0.1,0.2-0.3,0.3-0.5,0.5c-0.3,0.3-0.7,0.5-1.1,0.6c-0.2,0-0.4,0.1-0.6,0.1c-0.2,0-0.4,0.1-0.6,0
			c-0.2,0-0.4,0-0.6,0c-0.2,0-0.4,0-0.6-0.1c-0.4-0.1-0.8-0.2-1.1-0.3l0.2-0.2c0.1,0.6,0.2,1.3,0.1,2c-0.1,0.7-0.3,1.4-0.9,1.9
			c-0.3,0.2-0.6,0.4-0.9,0.5c-0.3,0.1-0.7,0.2-1,0.2c-0.3,0-0.7-0.1-1-0.1C437.5,186.1,437.3,185.9,437,185.7L437,185.7z"/>
	</g>
	<g>
		<path d="M448,156c0,0,0.2,0,0.5-0.1c0.3,0,0.8-0.1,1.3-0.2c0.3,0,0.5-0.1,0.8-0.1c0.3-0.1,0.6-0.1,1-0.2c0.3-0.1,0.7-0.3,0.9-0.5
			c0.1-0.1,0.2-0.3,0.3-0.4c0.1-0.2,0.2-0.3,0.2-0.5c0.1-0.3,0.1-0.7,0.2-1c0-0.3,0-0.7-0.1-1c-0.1-0.6-0.4-1.1-0.7-1.4
			c-0.3-0.4-0.7-0.7-1-1c-0.2-0.3-0.3-0.5-0.3-0.5l0.1-0.1c0,0,0.2,0.1,0.5,0.2c0.3,0.1,0.8,0.2,1.3,0.6c0.3,0.2,0.6,0.5,0.7,0.8
			c0.2,0.3,0.3,0.7,0.4,1.2c0,0.4,0,0.8-0.1,1.3c-0.1,0.4-0.3,0.8-0.6,1.1c-0.1,0.2-0.3,0.3-0.4,0.5c-0.1,0.1-0.3,0.3-0.4,0.4
			c-0.3,0.3-0.6,0.5-0.9,0.8c-0.3,0.2-0.6,0.4-1,0.5c-0.3,0.1-0.7,0.1-1,0.1c-0.6,0-1.1-0.1-1.5-0.3C448.1,156.2,448,156.1,448,156
			L448,156z"/>
	</g>
	<g>
		<path d="M450.1,149.9c0,0,0,0,0.1-0.1c0.1-0.1,0.2-0.1,0.3-0.2c0.1-0.1,0.3-0.2,0.4-0.4c0.2-0.1,0.3-0.3,0.5-0.5
			c0.2-0.2,0.3-0.4,0.5-0.6c0.2-0.2,0.4-0.4,0.6-0.7c0.2-0.3,0.3-0.6,0.4-0.9c0.1-0.3,0-0.7-0.1-1c-0.1-0.3-0.3-0.6-0.4-0.9
			c-0.1-0.3-0.3-0.6-0.5-0.8c-0.4-0.5-0.7-1.1-0.9-1.6c-0.2-0.5-0.4-1-0.5-1.3c-0.1-0.3-0.1-0.5-0.1-0.5l0.1,0c0,0,0.5,0.6,1.2,1.4
			c0.3,0.4,0.8,0.9,1.1,1.6c0.2,0.3,0.3,0.7,0.4,1c0.1,0.4,0.2,0.8,0.1,1.2c0,0.4-0.1,0.8-0.1,1.1c-0.1,0.4-0.1,0.7-0.2,1.1
			c-0.1,0.4-0.2,0.7-0.4,1c-0.2,0.3-0.4,0.5-0.7,0.7c-0.5,0.4-1,0.6-1.3,0.6c-0.2,0-0.3,0-0.4,0C450.2,150,450.2,150,450.1,149.9
			L450.1,149.9z"/>
	</g>
	<g>
		<path d="M468.4,151.3c0,0-0.2,0-0.5,0c-0.3,0-0.8-0.2-1.4-0.5c-0.6-0.3-1.2-0.8-1.7-1.5c-0.6-0.7-1-1.5-1.5-2.5
			c-0.4-0.9-0.9-1.9-1.4-3c-0.5-1-1.1-2.1-1.8-3.2c-0.7-1.1-1.4-2.2-2.3-3.2c-0.9-1-1.9-2-3-2.8c-1.1-0.8-2.2-1.4-3.5-1.7
			c-1.3-0.3-2.6-0.9-3.8-1.5c-1.1-0.6-2.2-1.1-3.3-1.4c-1.1-0.3-2.1-0.3-3,0c-0.9,0.3-1.5,0.9-2,1.5c-0.5,0.7-1.1,1.2-1.7,1.5
			c-0.5,0.3-1,0.5-1.3,0.6c-0.3,0.1-0.5,0.1-0.5,0.1l0-0.1c0,0,0.2-0.1,0.4-0.2c0.3-0.1,0.7-0.4,1.1-0.7c0.5-0.4,0.9-0.9,1.4-1.6
			c0.2-0.3,0.5-0.8,0.9-1.1c0.4-0.4,0.9-0.7,1.4-0.9c1.1-0.4,2.3-0.4,3.6-0.1c1.2,0.3,2.4,0.9,3.5,1.5c1.1,0.6,2.2,1.2,3.5,1.6
			c0.6,0.2,1.3,0.5,1.9,0.9c0.6,0.4,1.2,0.8,1.7,1.3c0.5,0.5,1,1,1.5,1.5c0.5,0.5,0.9,1,1.4,1.5c0.9,1,1.7,2.1,2.5,3.1
			c0.8,1,1.5,2.1,2.1,3.1c0.6,1.1,1,2.1,1.4,3c0.4,0.9,0.8,1.8,1.2,2.4c0.4,0.7,1,1.2,1.4,1.5c0.5,0.3,0.9,0.5,1.2,0.6
			C468.3,151.2,468.4,151.2,468.4,151.3L468.4,151.3z"/>
	</g>
	<g>
		<path d="M435.2,133.9c0,0-0.3,0.1-0.8,0.2c-0.6,0.1-1.4,0.2-2.3,0.1c-0.5-0.1-1-0.1-1.5-0.2c-0.5-0.1-1.1-0.3-1.6-0.5
			c-0.6-0.2-1.2-0.3-1.8-0.3c-0.6-0.1-1.2,0-1.8,0.1c-0.6,0.1-1.2,0.3-1.7,0.4c-0.6,0.2-1.1,0.4-1.5,0.7c-0.9,0.6-1.7,1.2-2.5,1.8
			c-0.8,0.6-1.5,1-2,1.2c-0.5,0.2-0.8,0.3-0.8,0.3l0-0.1c0,0,0.2-0.2,0.6-0.6c0.2-0.2,0.5-0.4,0.7-0.7c0.3-0.3,0.6-0.6,0.9-0.9
			c0.7-0.6,1.5-1.5,2.6-2c0.6-0.3,1.2-0.5,1.8-0.6c0.6-0.1,1.3-0.2,1.9-0.1c1.3,0.1,2.5,0.2,3.7,0.2c0.6,0,1.2,0.1,1.7,0.1
			c0.5,0.1,1,0.2,1.5,0.3c0.9,0.2,1.7,0.3,2.2,0.3c0.3,0,0.5,0,0.6,0.1C435.1,133.8,435.2,133.8,435.2,133.9L435.2,133.9z"/>
	</g>
	<g>
		<path d="M460.7,214.9c0,0-0.2-0.1-0.4-0.3c-0.2-0.2-0.5-0.6-0.8-1.1c-0.1-0.2-0.3-0.5-0.4-0.8c-0.1-0.3-0.2-0.6-0.2-1
			c-0.1-0.3-0.1-0.7-0.3-1c-0.1-0.3-0.3-0.7-0.5-1c-0.2-0.3-0.4-0.7-0.5-1c-0.1-0.3-0.2-0.7-0.3-1c-0.1-0.3-0.2-0.6-0.2-1
			c-0.1-0.3-0.1-0.6-0.1-0.9c-0.1-1.1,0.1-1.8,0.1-1.8l0.1,0c0,0,0.4,0.7,0.7,1.7c0.2,0.5,0.4,1.1,0.5,1.8c0.1,0.7,0.3,1.3,0.3,2.1
			c0.1,0.4,0.1,0.7,0.2,1c0.1,0.3,0.3,0.6,0.5,0.9c0.2,0.3,0.4,0.5,0.5,0.8c0.1,0.3,0.2,0.5,0.4,0.8c0.2,0.5,0.3,0.9,0.4,1.2
			C460.7,214.7,460.8,214.9,460.7,214.9L460.7,214.9z"/>
	</g>
	<g>
		<path d="M352.8,179.9c0,0-0.1,0-0.3-0.1c-0.2-0.1-0.5-0.2-0.9-0.2c-0.4,0-0.9,0-1.4,0.1c-0.5,0.1-1.1,0.4-1.8,0.7
			c-0.7,0.3-1.4,0.7-2.2,1c-0.9,0.3-1.7,0.4-2.6,0.7c-0.9,0.2-1.8,0.5-2.4,1.2c-0.3,0.3-0.4,0.8-0.4,1.2c0.1,0.4,0.2,0.9,0.5,1.3
			c0.2,0.5,0.5,0.8,0.8,1c0.3,0.2,0.7,0.2,1,0c0.8-0.3,1.5-1,2.2-1.6c0.7-0.6,1.5-1.1,2.3-1.5c0.8-0.4,1.6-0.6,2.3-0.8
			c0.7-0.2,1.4-0.4,1.9-0.5c0.6-0.1,1.1-0.3,1.5-0.4c0.8-0.3,1.3-0.5,1.3-0.5l0.1,0.1c0,0-0.4,0.3-1.2,0.7c-0.8,0.4-1.9,0.9-3.3,1.4
			c-0.7,0.3-1.4,0.6-2.1,0.9c-0.2,0.1-0.4,0.2-0.5,0.3c-0.2,0.1-0.4,0.2-0.5,0.3c-0.4,0.2-0.7,0.5-1.1,0.7c-0.7,0.5-1.5,1.2-2.5,1.6
			c-0.5,0.2-1.3,0.2-1.8-0.2c-0.5-0.4-0.7-0.9-0.9-1.3c-0.2-0.5-0.3-1-0.3-1.5c0-0.5,0.2-1.1,0.6-1.4c0.7-0.8,1.6-1.1,2.5-1.5
			c0.9-0.4,1.7-0.7,2.5-1c0.8-0.3,1.5-0.7,2.2-0.9c0.7-0.3,1.4-0.5,2-0.6c0.6-0.1,1.2,0,1.6,0.1c0.4,0.1,0.8,0.3,0.9,0.5
			C352.7,179.8,352.8,179.9,352.8,179.9L352.8,179.9z"/>
	</g>
	<g>
		<path d="M427.8,193.4c0,0,0.1-0.1,0.4-0.3c0.1-0.1,0.3-0.2,0.4-0.3c0.1-0.1,0.3-0.2,0.5-0.4c0.2-0.1,0.4-0.3,0.6-0.4
			c0.2-0.1,0.5-0.3,0.7-0.4c0.2-0.2,0.5-0.4,0.6-0.6c0.2-0.2,0.3-0.6,0.3-0.9c0-0.3,0.1-0.6,0.1-0.9c0.1-0.3,0.1-0.6,0.1-0.9
			c0-0.6,0.1-1.1,0-1.5c0-0.5,0-0.9,0-1.1c0-0.3,0-0.5,0-0.5l0.1,0c0,0,0.1,0.1,0.3,0.4c0.2,0.2,0.4,0.6,0.5,1.1
			c0.1,0.2,0.1,0.5,0.1,0.8c0,0.3,0,0.6,0,0.9c-0.1,0.3-0.1,0.6-0.3,1c-0.1,0.3-0.3,0.6-0.5,0.9c-0.2,0.3-0.4,0.5-0.6,0.8
			c-0.2,0.3-0.4,0.5-0.5,0.8c-0.2,0.3-0.3,0.6-0.6,0.7c-0.2,0.2-0.5,0.3-0.7,0.5c-0.5,0.2-0.9,0.3-1.2,0.3
			C428,193.5,427.8,193.5,427.8,193.4L427.8,193.4z"/>
	</g>
	<g>
		<path d="M422.6,198.6l2.1,0c0.7,0.1,1.4,0.2,2.1,0.2c0.7,0.2,1.4,0.3,2.1,0.6c0.7,0.3,1.4,0.5,2,0.9c0.6,0.4,1.3,0.7,1.8,1.2
			l0.8,0.7c0.3,0.2,0.5,0.5,0.8,0.8c0.2,0.3,0.5,0.5,0.7,0.8l0.6,0.9l0.3,0.4l0.3,0.5l0.5,1c0.3,0.6,0.5,1.3,0.8,2
			c0.2,0.7,0.4,1.4,0.5,2.1c0.2,1.4,0.3,2.8,0.3,4.2c0,0.7,0,1.4-0.2,2.1c-0.1,0.7-0.2,1.4-0.3,2.1c-0.3,1.4-0.7,2.7-1.1,4.1
			c-0.8,2.7-1.9,5.3-3.2,7.8c-1.3,2.5-2.8,4.9-4.5,7.1c-0.9,1.1-1.8,2.2-2.9,3.2c-1.1,1-2.2,1.8-3.4,2.5c-1.2,0.8-2.4,1.4-3.7,2.1
			c-1.2,0.7-2.4,1.4-3.6,2.2l0,0l0,0c-0.2,0-0.5-0.1-0.6-0.3c-0.2-0.2-0.2-0.4-0.2-0.6l0.1,0c0,0.2,0.1,0.4,0.3,0.5
			c0.1,0.1,0.3,0.2,0.5,0.2l-0.1,0c2.1-1.8,4.6-3.2,6.9-4.8c1.1-0.8,2.2-1.6,3.2-2.6c1-0.9,1.9-2,2.7-3.1c1.7-2.2,3.2-4.5,4.6-6.9
			c1.3-2.4,2.5-4.9,3.5-7.5c0.5-1.3,0.9-2.6,1.2-4c0.3-1.3,0.5-2.7,0.5-4.1c0-1.4-0.2-2.8-0.5-4.1c-0.1-0.7-0.4-1.3-0.6-2
			c-0.3-0.6-0.5-1.3-0.8-1.9c-0.6-1.2-1.4-2.3-2.3-3.3c-0.2-0.2-0.4-0.5-0.7-0.7l-0.8-0.7c-0.5-0.5-1.1-0.8-1.7-1.2
			c-0.6-0.4-1.2-0.6-1.8-0.9c-0.6-0.2-1.3-0.4-1.9-0.7l-2-0.4L422.6,198.6L422.6,198.6z"/>
	</g>
	<g>
		<path d="M382.2,172.2c0,0,0,0-0.1,0.2c-0.1,0.1-0.2,0.1-0.4,0.2c-0.4,0.1-0.9,0.2-1.6,0.4c-1.4,0.3-3.4,0.6-5.9,0.8
			c-1.2,0.1-2.5,0.1-4,0.1c-1.4,0-2.9-0.1-4.4-0.2c-1.5-0.1-3.1-0.2-4.7-0.3c-0.8-0.1-1.6-0.1-2.4-0.2c-0.4,0-0.8-0.1-1.2-0.2
			c-0.2,0-0.4-0.1-0.6-0.1c-0.1,0-0.2-0.1-0.3-0.1c-0.1-0.1-0.3-0.1-0.4-0.4c0-0.2,0-0.1,0-0.2c0-0.1,0.1-0.1,0.1-0.2
			c0.1-0.1,0.1-0.1,0.2-0.1c0.1-0.1,0.2-0.1,0.3-0.1c0.2-0.1,0.4-0.1,0.6-0.2c0.4-0.1,0.8-0.2,1.2-0.3c0.8-0.1,1.6-0.2,2.4-0.3
			c1.6-0.2,3.2-0.2,4.7-0.3c3.1-0.1,5.9-0.1,8.4,0.1c2.4,0.2,4.5,0.5,5.9,0.8c0.7,0.1,1.3,0.2,1.6,0.4c0.2,0.1,0.3,0.1,0.4,0.2
			C382.2,172.1,382.2,172.2,382.2,172.2L382.2,172.2z M382.1,172.2C382.1,172.2,382.1,172.2,382.1,172.2c-0.1-0.1-0.3-0.2-0.4-0.3
			c-0.4-0.1-0.9-0.2-1.6-0.3c-1.4-0.2-3.4-0.2-5.9-0.1c-2.4,0-5.3,0-8.3,0.1c-1.5,0-3.1,0.1-4.7,0.2c-0.8,0-1.6,0.1-2.4,0.2
			c-0.4,0-0.8,0.1-1.2,0.1c-0.2,0-0.4,0.1-0.6,0.1c-0.1,0-0.2,0.1-0.2,0.1c0,0-0.1,0-0.1,0c0,0,0,0,0-0.1c0-0.1,0,0.1,0,0
			c0-0.1,0,0,0.1,0c0.1,0,0.2,0.1,0.2,0.1c0.2,0.1,0.4,0.1,0.6,0.2c0.4,0.1,0.8,0.2,1.2,0.2c0.8,0.1,1.6,0.2,2.4,0.3
			c1.6,0.1,3.2,0.2,4.7,0.1c1.5,0,3-0.1,4.4-0.1c1.4,0,2.7-0.1,3.9,0c2.4,0,4.5,0,5.9-0.1c0.7-0.1,1.3-0.2,1.6-0.3
			C381.9,172.4,382,172.3,382.1,172.2C382.1,172.2,382.1,172.2,382.1,172.2L382.1,172.2z"/>
	</g>
	<g>
		<path d="M356.6,172.2c0,0,0.1,0.1,0.2,0.3c0.1,0.2,0.2,0.5,0.3,0.8c0,0.2,0.1,0.3,0,0.5c0,0.2-0.1,0.4-0.1,0.6
			c-0.1,0.2-0.1,0.4-0.1,0.7c0,0.2,0.1,0.4,0.2,0.7c0.1,0.2,0.2,0.4,0.2,0.7c0,0.2,0.1,0.4,0.1,0.6c0.1,0.4,0,0.8,0,1.1
			c-0.1,0.7-0.3,1.1-0.3,1.1l-0.1,0c0,0-0.3-0.4-0.5-1.1c-0.1-0.3-0.2-0.7-0.1-1.1c0-0.2,0-0.4,0-0.6c0-0.2,0.1-0.4,0.1-0.7
			c0-0.2,0.1-0.5,0.1-0.7c0-0.2-0.1-0.4-0.2-0.6c-0.1-0.2-0.2-0.4-0.2-0.6c0-0.2,0-0.4,0-0.5c0-0.3,0.1-0.6,0.2-0.8
			C356.4,172.3,356.5,172.2,356.6,172.2L356.6,172.2z"/>
	</g>
	<g>
		<path d="M378,207c0,0-0.2,0.2-0.5,0.5c-0.3,0.3-0.9,0.6-1.5,1c-0.3,0.2-0.7,0.3-1.1,0.5c-0.4,0.1-0.9,0.2-1.3,0.2
			c-0.9,0.1-1.9,0.3-2.8,0.6c-0.5,0.1-1,0.2-1.5,0.2c-0.5,0-1,0-1.5,0c-0.5-0.1-0.9-0.1-1.3-0.3c-0.4-0.1-0.8-0.3-1.1-0.5
			c-0.3-0.2-0.6-0.4-0.9-0.6c-0.2-0.2-0.4-0.4-0.6-0.5c-0.3-0.3-0.4-0.5-0.4-0.5l0.1-0.1c0,0,0.2,0.1,0.6,0.3
			c0.2,0.1,0.4,0.2,0.7,0.3c0.3,0.1,0.6,0.2,0.9,0.3c0.3,0.1,0.7,0.2,1.1,0.3c0.4,0.1,0.8,0.2,1.2,0.3c0.4,0.1,0.9,0.2,1.3,0.2
			c0.5,0.1,0.9,0.1,1.4,0.1c0.5,0,1,0,1.4-0.1c0.5-0.1,0.9-0.2,1.3-0.4c0.4-0.2,0.8-0.4,1.2-0.6c0.4-0.2,0.7-0.3,1.1-0.4
			c0.7-0.2,1.2-0.4,1.7-0.5C377.7,207,378,207,378,207L378,207z"/>
	</g>
	<g>
		<path d="M382.2,172.2c0,0,0,1.9-0.2,4.6c-0.1,0.7-0.1,1.4-0.3,2.2c-0.1,0.8-0.3,1.6-0.5,2.5c-0.2,0.9-0.3,1.7-0.4,2.6
			c-0.1,0.9-0.1,1.8-0.1,2.8c0,0.9,0,1.9-0.1,2.8c0,0.9-0.1,1.8-0.1,2.7c-0.1,1.7-0.2,3.3-0.4,4.7c-0.1,1.4-0.3,2.5-0.4,3.3
			c-0.1,0.8-0.2,1.3-0.2,1.3l-0.1,0c0,0,0-0.5-0.1-1.3c0-0.8-0.1-2-0.1-3.4c0-0.7,0-1.5,0.1-2.2c0-0.8,0.1-1.6,0.2-2.5
			c0.1-0.9,0.2-1.8,0.3-2.7c0.1-0.9,0.2-1.8,0.4-2.7c0.1-0.9,0.3-1.8,0.4-2.7c0.1-0.9,0.2-1.8,0.2-2.7c0-0.9,0-1.7,0.1-2.5
			c0.1-0.8,0.2-1.5,0.3-2.2C381.6,174,382.1,172.2,382.2,172.2L382.2,172.2z"/>
	</g>
	<g>
		<path d="M378.8,206.1c0,0-0.1-0.1-0.1-0.2c-0.1-0.1-0.1-0.3-0.1-0.6c0-0.1,0-0.2,0-0.4c0-0.1,0.1-0.2,0.2-0.4
			c0.1-0.1,0.2-0.3,0.2-0.4c0-0.1,0-0.3-0.1-0.4c-0.1-0.3-0.1-0.6-0.2-0.9c0-0.3,0-0.3,0.1-0.5c0.2-0.4,0.4-0.5,0.4-0.5h0.1
			c0,0,0.3,0,0.4,0.5c0.1,0.2,0.1,0.4,0,0.6c0,0.1-0.1,0.2-0.1,0.4c0,0.1-0.1,0.2-0.2,0.4c-0.1,0.1-0.2,0.3-0.2,0.4
			c0,0.1,0,0.3,0.1,0.4c0,0.1,0.1,0.3,0.1,0.4c0,0.1,0,0.2-0.1,0.3c-0.1,0.2-0.2,0.4-0.3,0.5C379,206.1,378.9,206.1,378.8,206.1
			L378.8,206.1z"/>
	</g>
	<g>
		<path d="M351.3,178.7c0,0,0.1-0.1,0.2-0.2c0.1-0.1,0.2-0.2,0.4-0.4c0.1,0,0.2-0.1,0.3-0.2c0.1,0,0.3,0,0.4,0c0.2,0,0.3,0,0.4-0.1
			c0.1-0.1,0.2-0.2,0.3-0.3c0.1-0.1,0.2-0.3,0.3-0.4c0.1-0.1,0.3-0.2,0.4-0.3c0.1-0.1,0.3-0.2,0.4-0.2c0.1,0,0.3-0.1,0.4-0.1
			c0.5,0,0.9,0.2,0.9,0.2l0,0.1c0,0-0.3,0.3-0.6,0.6c-0.2,0.1-0.4,0.3-0.7,0.4c-0.3,0.1-0.6,0.2-0.9,0.2c-0.2,0-0.3,0.1-0.5,0.1
			c-0.1,0.1-0.3,0.2-0.3,0.3c-0.1,0.1-0.2,0.3-0.3,0.4c-0.1,0.1-0.3,0.1-0.4,0.2c-0.2,0.1-0.5,0-0.7,0
			C351.5,178.9,351.4,178.8,351.3,178.7L351.3,178.7z"/>
	</g>
	<g>
		<path d="M359.9,206.7c0.2-0.9,0.6-1.7,1-2.5c0.4-0.8,0.8-1.6,1.2-2.4c0.4-0.8,0.8-1.6,1.2-2.4c0.4-0.8,0.6-1.6,0.8-2.5l0.3,0.5
			c-1.2-0.2-2.4-0.2-3.4,0.1c-0.3,0.1-0.5,0.2-0.8,0.3c-0.2,0.1-0.5,0.3-0.7,0.5c-0.2,0.2-0.4,0.4-0.6,0.6c-0.2,0.2-0.3,0.5-0.4,0.7
			l-1.2,2.4l0.5-2.5c0.1-0.5,0.2-0.9,0.4-1.3c0.2-0.4,0.4-0.8,0.8-1.1c0.3-0.3,0.7-0.6,1.1-0.8c0.4-0.2,0.8-0.4,1.2-0.6
			c0.8-0.3,1.6-0.6,2.4-1c0.3-0.2,0.7-0.5,0.9-0.8c0.1-0.2,0.2-0.3,0.3-0.5l0.1-0.3l0.1-0.3c0.1-0.4,0.1-0.8,0.1-1.2
			c-0.1-0.4-0.2-0.7-0.5-1c-0.1-0.1-0.3-0.2-0.5-0.3c-0.2-0.1-0.4-0.1-0.6-0.2c-0.4-0.1-0.8-0.2-1.2-0.2c-1.7-0.1-3.4,0.2-5.1,0.4
			l-2.2,0.3l1.9-1.1c1.7-1,3.4-1.8,5.1-2.6c0.8-0.4,1.6-0.9,2.4-1.4c0.4-0.3,0.7-0.5,1-0.9c0.3-0.3,0.6-0.7,0.8-1l0.1,0.7
			c-0.3-0.2-0.7-0.5-1.1-0.7c-0.4-0.2-0.8-0.3-1.2-0.4c-0.9-0.2-1.7-0.3-2.6-0.4c-0.9,0-1.8,0-2.7,0.1c-0.9,0.1-1.8,0.2-2.7,0.3
			l-0.2,0l0-0.2c-0.1-0.8,0-1.5,0-2.2l0.1,0c0,0.7,0,1.5,0.2,2.2l-0.2-0.1c1.8-0.4,3.6-0.8,5.5-0.8c0.9,0,1.9,0.1,2.9,0.3
			c0.5,0.1,0.9,0.3,1.4,0.4l0.7,0.3l0.6,0.4l0.4,0.2l-0.3,0.4c-0.3,0.4-0.6,0.9-0.9,1.2c-0.4,0.4-0.7,0.7-1.1,1
			c-0.8,0.6-1.7,1.1-2.5,1.5c-1.7,0.9-3.5,1.6-5.1,2.5l-0.3-0.8c1.7-0.2,3.5-0.4,5.2-0.2c0.4,0.1,0.9,0.1,1.3,0.3
			c0.2,0.1,0.4,0.1,0.6,0.3c0.2,0.1,0.4,0.2,0.6,0.4c0.4,0.3,0.5,0.8,0.6,1.3c0,0.5,0,0.9-0.2,1.3l-0.1,0.3c0,0.1-0.1,0.2-0.1,0.3
			c-0.1,0.2-0.2,0.4-0.4,0.6c-0.3,0.4-0.7,0.6-1,0.9c-0.4,0.2-0.8,0.4-1.2,0.6c-0.4,0.2-0.8,0.3-1.2,0.5c-0.8,0.3-1.5,0.8-2,1.4
			c-0.3,0.3-0.5,0.7-0.6,1c-0.1,0.4-0.2,0.8-0.2,1.2l-0.7-0.2c0.1-0.3,0.3-0.6,0.4-0.9c0.2-0.3,0.4-0.6,0.6-0.8
			c0.5-0.5,1.1-0.8,1.7-1.1c1.3-0.5,2.6-0.4,3.9-0.1l0.4,0.1l-0.1,0.4c-0.4,1.8-1.3,3.5-2.3,5l-1.4,2.3
			C360.8,205.1,360.4,205.9,359.9,206.7L359.9,206.7z"/>
	</g>
	<g>
		<path d="M356.6,183.1c0,0-0.2,0.2-0.6,0.4c-0.4,0.3-0.9,0.6-1.4,1.1c-0.3,0.2-0.6,0.5-0.9,0.7c-0.3,0.3-0.7,0.5-1,0.8
			c-0.4,0.3-0.7,0.7-0.9,1.1c-0.2,0.4-0.4,0.9-0.5,1.4c-0.1,0.5,0,0.9,0.1,1.3c0.1,0.4,0.3,0.7,0.6,0.8c0.3,0.2,0.7,0.2,1,0.2
			c0.4,0,0.8,0,1.1-0.1c0.4,0,0.7-0.1,1-0.2c0.3-0.1,0.6-0.1,0.8-0.2c0.4-0.1,0.7-0.1,0.7-0.1l0,0.1c0,0-0.2,0.2-0.6,0.4
			c-0.2,0.1-0.4,0.2-0.7,0.4c-0.3,0.1-0.6,0.3-1,0.4c-0.4,0.1-0.8,0.2-1.3,0.2c-0.5,0-1.1-0.1-1.6-0.4c-0.5-0.3-0.9-1-0.9-1.5
			c-0.1-0.6,0.1-1.2,0.3-1.6c0.2-0.5,0.5-0.9,0.7-1.4c0.3-0.4,0.5-0.9,0.8-1.3c0.3-0.4,0.5-0.8,0.9-1.1c0.3-0.3,0.7-0.6,1-0.8
			c0.3-0.2,0.7-0.4,1-0.5c0.3-0.1,0.6-0.2,0.8-0.3C356.3,183,356.5,183,356.6,183.1L356.6,183.1z"/>
	</g>
	<g>
		<path d="M380.7,183c0.2-0.1,0.5-0.2,0.7-0.2c0.2-0.1,0.5-0.1,0.8-0.1c0.3,0,0.5,0.1,0.8,0.1c0.3,0,0.5,0.2,0.7,0.4
			c0.2,0.2,0.4,0.4,0.5,0.7c0.1,0.3,0.2,0.5,0.2,0.8c0,0.3,0,0.5,0,0.8c0,0.2-0.1,0.5-0.1,0.7c0,0.2-0.1,0.5-0.1,0.7
			c-0.1,0.2-0.1,0.5-0.2,0.7c-0.2,0.5-0.5,0.9-0.8,1.3c-0.1,0.2-0.3,0.4-0.5,0.6c-0.2,0.2-0.4,0.3-0.6,0.5c-0.2,0.1-0.4,0.3-0.6,0.4
			c-0.2,0.1-0.4,0.2-0.7,0.3l0.1-0.1c0,0,0,0,0,0c0,0,0,0,0,0c0-0.1-0.1-0.3-0.3-0.3c-0.1,0-0.1,0-0.1,0c0,0,0,0,0,0
			c0.1,0,0.1-0.1,0.2-0.1c0.2-0.1,0.3-0.2,0.5-0.3l0.1,0.1c-0.1,0.2-0.1,0.4-0.2,0.6c0,0.1-0.1,0.2-0.2,0.3c0,0,0,0-0.1,0.1
			c0,0,0,0.1-0.2,0.1c-0.3,0-0.4-0.2-0.4-0.3c0,0,0-0.1,0-0.1l0-0.1l0,0l0.1-0.1c0.3-0.3,0.7-0.6,1-1c0.2-0.2,0.3-0.3,0.5-0.5
			c0.2-0.2,0.3-0.3,0.5-0.5c0.3-0.3,0.6-0.7,0.8-1c0.1-0.2,0.3-0.4,0.4-0.6c0.1-0.2,0.2-0.4,0.3-0.6c0.1-0.2,0.1-0.4,0.1-0.7
			c0-0.2,0-0.5-0.1-0.7c-0.1-0.2-0.2-0.4-0.3-0.5c-0.1-0.1-0.2-0.1-0.2-0.2c-0.1-0.1-0.1-0.1-0.2-0.2c-0.2-0.1-0.3-0.2-0.5-0.3
			c-0.2-0.1-0.4-0.2-0.6-0.2c-0.2,0-0.4-0.1-0.7-0.2C381.2,183.2,381,183.2,380.7,183L380.7,183z"/>
	</g>
	<g>
		<path d="M356.6,190.6c0,0-0.1,0.1-0.4,0.3c-0.1,0.1-0.3,0.2-0.4,0.4c-0.2,0.1-0.3,0.3-0.5,0.4c-0.2,0.2-0.4,0.4-0.6,0.6
			c-0.2,0.2-0.4,0.4-0.7,0.6c-0.2,0.3-0.4,0.5-0.5,0.9c-0.1,0.3-0.1,0.7-0.2,1c0,0.4,0,0.7,0.1,1c0,0.3,0.1,0.7,0.1,1
			c0.1,0.6,0.2,1.2,0.4,1.7c0,0.3,0.1,0.5,0.2,0.7c0.1,0.2,0.1,0.4,0.2,0.5c0.1,0.3,0.2,0.5,0.2,0.5l-0.1,0.1c0,0-0.2-0.1-0.4-0.3
			c-0.1-0.1-0.3-0.3-0.4-0.5c-0.2-0.2-0.3-0.4-0.4-0.7c-0.1-0.3-0.3-0.6-0.4-0.9c-0.1-0.3-0.2-0.7-0.2-1c0-0.4,0-0.7,0-1.1
			c0-0.4,0.2-0.8,0.3-1.1c0.1-0.4,0.3-0.7,0.4-1.1c0.1-0.4,0.3-0.7,0.4-1c0.2-0.3,0.3-0.7,0.5-0.9c0.1-0.1,0.2-0.3,0.3-0.4
			c0.1-0.1,0.3-0.2,0.4-0.3c0.2-0.2,0.5-0.3,0.7-0.4c0.2-0.1,0.4-0.1,0.6-0.2C356.3,190.5,356.5,190.5,356.6,190.6L356.6,190.6z"/>
	</g>
	<g>
		<path d="M356.5,203c0,0,0.1,0.1,0.2,0.2c0.1,0.1,0.2,0.3,0.2,0.6c0,0.1,0,0.2,0,0.4c0,0.1-0.1,0.3-0.2,0.4
			c-0.1,0.1-0.1,0.3-0.1,0.5c0,0.2,0.1,0.3,0.1,0.5c0.1,0.2,0.1,0.3,0.2,0.5c0,0.2,0.1,0.3,0.1,0.5c0,0.3,0,0.6-0.1,0.8
			c-0.1,0.5-0.4,0.8-0.4,0.8h-0.1c0,0-0.3-0.3-0.4-0.8c-0.1-0.2-0.1-0.5-0.1-0.8c0-0.1,0-0.3,0.1-0.5c0-0.2,0.1-0.3,0.2-0.5
			c0.1-0.2,0.1-0.3,0.1-0.5c0-0.2,0-0.3-0.1-0.5c-0.1-0.1-0.2-0.3-0.2-0.4c0-0.1,0-0.3,0-0.4c0-0.2,0.1-0.4,0.2-0.6
			C356.4,203.1,356.5,203,356.5,203L356.5,203z"/>
	</g>
	<g>
		<path d="M350.8,147.9c-1.7,0.6-3.4,1-5.1,1.5l-2.6,0.7c-0.8,0.2-1.7,0.5-2.4,0.8c-0.8,0.4-1.4,0.8-1.9,1.5
			c-0.5,0.6-0.7,1.5-0.5,2.2c0.2,0.8,0.8,1.4,1.6,1.8c0.8,0.4,1.6,0.7,2.5,0.9c0.9,0.2,1.7,0.6,2.5,1.1c0.7,0.5,1.5,1.3,1.5,2.4
			c0,0.2,0,0.5-0.1,0.7c-0.1,0.3-0.2,0.5-0.3,0.7c-0.3,0.4-0.6,0.8-1,1.1c-0.8,0.6-1.6,0.9-2.4,1.3c-0.7,0.4-1.4,0.9-1.8,1.5
			c-0.2,0.3-0.3,0.6-0.2,0.9c0,0.1,0,0.2,0,0.2l0.1,0.3c0.1,0.2,0.1,0.2,0.3,0.4c0.5,0.5,1.3,0.7,2.2,1c0.8,0.3,1.8,0.7,2.4,1.6
			l0.2,0.3l-0.2,0.2c-0.8,0.9-1.5,1.9-2,3c-0.5,1.1-1,2.3-1.2,3.5l-0.1,0c0.1-1.2,0.3-2.5,0.8-3.7c0.4-1.2,1.1-2.3,1.9-3.3l0,0.5
			c-0.4-0.6-1.2-0.9-2-1.1c-0.8-0.3-1.8-0.5-2.6-1.2c-0.2-0.2-0.4-0.5-0.5-0.7c0-0.1-0.1-0.1-0.1-0.4c0-0.1-0.1-0.3-0.1-0.4
			c-0.1-0.6,0.1-1.2,0.4-1.6c0.6-0.9,1.4-1.4,2.2-1.8c0.8-0.4,1.6-0.7,2.3-1.1c0.3-0.2,0.6-0.5,0.8-0.8c0.1-0.2,0.2-0.3,0.2-0.5
			c0.1-0.2,0.1-0.4,0.1-0.6c0-0.8-0.5-1.5-1.1-2c-0.7-0.5-1.5-0.9-2.3-1.1c-0.8-0.3-1.7-0.5-2.5-0.9c-0.8-0.4-1.6-1-1.9-1.9
			c-0.4-1-0.1-2,0.4-2.8c0.5-0.9,1.3-1.5,2.1-1.9c0.8-0.4,1.7-0.6,2.6-0.8l2.6-0.5C347.2,148.3,349,148,350.8,147.9L350.8,147.9z"/>
	</g>
	<g>
		<path d="M456.3,200.9c0,0-0.1-0.2-0.2-0.6c-0.1-0.4-0.2-0.9-0.3-1.6c0-0.3-0.1-0.7,0-1.1c0-0.4,0.1-0.8,0.1-1.2
			c0.1-0.4,0.1-0.8,0.1-1.3c0-0.4-0.1-0.9-0.2-1.3c-0.1-0.4-0.2-0.9-0.2-1.3c0-0.4-0.1-0.9-0.1-1.3c-0.1-0.8,0-1.6,0-2.3
			c0.1-1.3,0.3-2.2,0.3-2.2l0.1,0c0,0,0.3,0.9,0.5,2.2c0.1,0.7,0.1,1.4,0.1,2.3c0,0.4,0,0.8,0,1.3c0,0.4-0.1,0.9-0.1,1.3
			c0,0.4-0.1,0.9-0.1,1.3c0,0.4,0.1,0.9,0.2,1.3c0.1,0.4,0.2,0.8,0.2,1.2c0,0.4,0,0.7,0,1.1c0,0.7-0.1,1.2-0.2,1.6
			C456.5,200.7,456.4,200.9,456.3,200.9L456.3,200.9z"/>
	</g>
	<g>
		<path d="M339,183.9c0.4,0.7,0.8,1.4,1.2,2c0.2,0.3,0.4,0.6,0.7,0.9l0.7,0.9l-0.7,0.1c0.2-0.4,0.4-0.7,0.6-1.1
			c0.2-0.4,0.3-0.8,0.3-1.3c0-0.4,0-0.9-0.1-1.3c-0.1-0.4-0.3-0.8-0.5-1.2l0.6-0.2c0.2,0.8,0.5,1.4,1,2c0.5,0.6,1.1,1,1.7,1.4
			l-0.7,0.6c-0.2-1.6-0.4-3.2-0.3-4.8l0.1,0c0.6,1.5,1,3.1,1.3,4.6l0.2,1l-0.9-0.4c-0.8-0.4-1.5-1-2-1.8c-0.3-0.4-0.5-0.8-0.6-1.2
			c-0.1-0.4-0.2-0.9-0.2-1.3l0-1.8l0.6,1.6c0.2,0.4,0.3,0.9,0.3,1.4c0.1,0.5,0.1,0.9,0.1,1.4c0,0.2,0,0.5,0,0.7c0,0.2,0,0.5-0.1,0.7
			c-0.1,0.5-0.2,0.9-0.4,1.4l-0.2,0.5l-0.4-0.4c-0.6-0.6-1.1-1.3-1.4-2C339.2,185.6,339,184.8,339,183.9L339,183.9z"/>
	</g>
	<g>
		<path d="M466.2,227l-1.5,0.2c-0.5,0.1-1,0.1-1.5,0.1c-1,0-2,0-3-0.1c-1-0.1-2-0.3-3-0.6c-0.5-0.1-1-0.3-1.5-0.5l-1.4-0.6
			c-0.9-0.4-1.8-0.9-2.7-1.5c-0.8-0.6-1.7-1.2-2.4-1.8c-1.6-1.3-3-2.7-4.3-4.2c-0.7-0.8-1.3-1.5-1.9-2.3c-0.6-0.8-1.2-1.6-1.8-2.4
			c-1.2-1.6-2.3-3.3-3.4-5c-1.1-1.7-2.2-3.3-3.4-5c-1.2-1.6-2.4-3.2-3.7-4.7l0,0l-0.9-0.8c-0.3-0.2-0.7-0.4-1-0.6
			c-0.4-0.2-0.7-0.3-1.1-0.4c-0.4-0.1-0.8-0.2-1.2-0.2l-1.2-0.1c-0.4,0-0.8,0.1-1.2,0.1c-0.4,0.1-0.8,0.2-1.2,0.3l-1.1,0.4l-1.1,0.4
			l-1.1,0.5c-0.7,0.4-1.4,0.8-2.1,1.2c-1.3,0.9-2.6,1.8-3.9,2.9l0.1-0.1c-0.3,0.7-0.8,1.2-1.3,1.7c-0.5,0.5-1,0.9-1.5,1.4
			c-0.5,0.4-1,0.9-1.5,1.3c-0.4,0.5-0.9,1-1.3,1.5c-0.4,0.5-0.8,1-1.2,1.6c-0.4,0.5-0.7,1.1-1.1,1.7c-0.7,1.1-1.4,2.3-2,3.5
			c-0.7,1.2-1.4,2.3-2.1,3.4c-0.4,0.6-0.8,1.1-1.2,1.7c-0.4,0.6-0.9,1-1.4,1.6c-0.5,0.5-1,1-1.6,1.4l-0.9,0.6
			c-0.3,0.2-0.6,0.3-0.9,0.5c-0.6,0.4-1.3,0.5-2,0.7c-0.7,0.2-1.4,0.2-2.1,0.4l-0.3,0l-0.2-0.2c-2.1-3-4.2-6-6.2-9
			c-2.1-3-4.1-6-6.1-9l0.1-0.1c2.2,2.9,4.4,5.8,6.6,8.7c2.2,2.9,4.3,5.9,6.5,8.8l-0.4-0.2c0.6-0.1,1.3-0.2,1.9-0.4
			c0.6-0.2,1.2-0.4,1.8-0.7c0.3-0.2,0.6-0.3,0.8-0.4l0.8-0.6c0.5-0.4,1-0.8,1.5-1.3c0.4-0.5,0.9-0.9,1.3-1.5c0.4-0.5,0.8-1,1.2-1.6
			c0.7-1.1,1.4-2.2,2.1-3.4c0.7-1.2,1.4-2.3,2.1-3.5c0.4-0.6,0.7-1.1,1.1-1.7c0.4-0.6,0.8-1.1,1.2-1.6c0.4-0.5,0.9-1,1.4-1.5
			c0.5-0.5,1-0.9,1.5-1.3c1-0.8,2.1-1.6,2.7-2.7l0-0.1l0.1-0.1c1.3-1,2.6-1.9,4-2.8c0.7-0.4,1.4-0.8,2.2-1.2l1.1-0.5l1.2-0.4
			l1.2-0.3c0.4-0.1,0.8-0.2,1.2-0.2l1.2-0.1l1.2,0.1c0.4,0.1,0.8,0.2,1.2,0.3c0.4,0.2,0.8,0.3,1.1,0.5c0.3,0.2,0.7,0.4,1,0.7
			l0.9,0.8l0,0l0,0c1.3,1.5,2.5,3.1,3.7,4.7c1.2,1.6,2.4,3.2,3.6,4.8c1.2,1.6,2.4,3.2,3.5,4.8c1.2,1.6,2.4,3.2,3.7,4.7
			c1.3,1.5,2.7,2.9,4.2,4.2c0.7,0.6,1.5,1.2,2.4,1.8c0.8,0.5,1.7,1,2.5,1.5l1.3,0.6c0.5,0.2,0.9,0.3,1.4,0.5
			c0.9,0.3,1.9,0.5,2.9,0.7c1,0.2,2,0.2,3,0.2C464.2,227.1,465.2,227,466.2,227L466.2,227z"/>
	</g>
	<g>
		<path d="M460.7,214.8c0,0,0.1,0,0.2,0c0.1,0,0.2,0.1,0.3,0.1c0,0,0.1,0.1,0.1,0.2c0,0.1,0,0.2,0,0.3c0,0.1,0,0.2,0,0.3
			c0,0.1,0.1,0.1,0.2,0.1c0.1,0,0.2,0.1,0.3,0.1c0.1,0.1,0.1,0.1,0.2,0.2c0.1,0.1,0.1,0.2,0.1,0.4c0,0.3-0.1,0.5-0.1,0.5l-0.1,0.1
			c0,0-0.3,0-0.5-0.1c-0.1-0.1-0.2-0.2-0.3-0.3c0-0.1,0-0.2,0-0.2c0-0.1,0-0.2,0-0.3c0-0.1,0-0.2,0-0.3c0-0.1-0.1-0.1-0.2-0.1
			c-0.1,0-0.2,0-0.3-0.1c-0.1,0-0.1-0.1-0.1-0.2c0-0.1,0-0.2,0-0.4C460.6,214.9,460.6,214.9,460.7,214.8L460.7,214.8z"/>
	</g>
	<g>
		<path d="M466,226.9C466,226.9,466,226.9,466,226.9c0.1-0.1,0.2-0.2,0.3-0.3c0.2-0.2,0.3-0.5,0.4-0.7c0-0.2,0-0.3,0-0.6
			c0-0.2,0-0.5-0.1-0.8c0-0.3-0.1-0.6-0.3-0.8c-0.1-0.3-0.4-0.5-0.6-0.7c-0.4-0.5-0.8-1-1.1-1.5c-0.3-0.5-0.5-1-0.7-1.4
			c-0.3-0.8-0.5-1.5-0.5-1.5l0.1-0.1c0,0,0.6,0.3,1.2,1.1c0.3,0.4,0.6,0.8,0.8,1.4c0.1,0.3,0.2,0.5,0.3,0.8c0.1,0.3,0.2,0.6,0.3,0.9
			c0.1,0.3,0.2,0.6,0.3,0.8c0.2,0.3,0.3,0.5,0.5,0.8c0.2,0.2,0.4,0.5,0.4,0.8c0.1,0.3,0.1,0.6,0,0.9c-0.2,0.6-0.7,0.8-1,0.9
			c-0.2,0-0.3,0-0.3,0C466,227,466,227,466,226.9L466,226.9z"/>
	</g>
	<g>
		<line class="st5" x1="471" y1="226.3" x2="471" y2="226.3"/>
	</g>
	<g>
		<path d="M471.4,225.9c0,0-0.1-0.3-0.4-0.7c-0.3-0.4-0.8-1-1.4-1.6c-0.3-0.3-0.6-0.7-1-1c-0.4-0.4-0.7-0.8-1.1-1.2
			c-0.4-0.4-0.8-0.8-1.3-1.2c-0.5-0.4-1-0.7-1.4-1.1c-0.5-0.4-1-0.7-1.4-1.1c-0.4-0.4-0.9-0.8-1.3-1.2c-0.8-0.8-1.4-1.7-1.9-2.5
			c-0.9-1.6-1.2-2.8-1.2-2.8l0.1,0c0,0,0.2,0.2,0.5,0.7c0.2,0.2,0.4,0.5,0.6,0.8c0.2,0.3,0.5,0.6,0.8,0.9c0.6,0.7,1.2,1.5,1.9,2.3
			c0.3,0.4,0.7,0.9,1.1,1.3c0.4,0.4,0.8,0.9,1.2,1.4c0.4,0.5,0.8,0.9,1.3,1.3c0.5,0.4,0.9,0.7,1.4,1c0.5,0.3,0.9,0.6,1.3,1
			c0.4,0.3,0.7,0.7,1,1.1c0.3,0.4,0.5,0.7,0.7,1.1c0.2,0.3,0.3,0.6,0.4,0.9C471.5,225.5,471.5,225.8,471.4,225.9L471.4,225.9z"/>
	</g>
	<g>
		<path d="M472.3,136.6c0,0,0,0.1-0.1,0.2c-0.1,0.1-0.2,0.3-0.3,0.5c-0.1,0.2-0.2,0.5-0.3,0.7c-0.1,0.3,0,0.6,0,1
			c0.1,0.4,0.2,0.8,0.3,1.3c0.1,0.5,0.2,1,0.1,1.6c-0.1,0.6-0.1,1.1-0.2,1.7c-0.1,0.6-0.2,1.1-0.4,1.7c-0.1,0.6-0.3,1.1-0.6,1.6
			c-0.2,0.5-0.5,1-0.8,1.5c-0.5,0.9-1.1,1.7-1.5,2.4c-0.2,0.3-0.4,0.7-0.6,1c-0.2,0.3-0.3,0.5-0.4,0.8c-0.2,0.4-0.4,0.7-0.4,0.7
			l-0.1,0c0,0,0-0.3,0.1-0.8c0.1-0.5,0.3-1.2,0.6-2c0.3-0.8,0.8-1.7,1.4-2.5c0.3-0.4,0.6-0.9,0.9-1.3c0.3-0.5,0.6-0.9,0.8-1.4
			c0.3-0.5,0.5-1,0.6-1.5c0.1-0.5,0.1-1.1,0-1.6c-0.1-0.5-0.3-0.9-0.4-1.4c-0.2-0.4-0.3-0.9-0.3-1.4c0-0.2,0-0.5,0-0.7
			c0-0.1,0-0.2,0.1-0.3c0-0.1,0.1-0.2,0.1-0.3c0.2-0.4,0.4-0.6,0.6-0.8C472,136.6,472.2,136.5,472.3,136.6L472.3,136.6z"/>
	</g>
	<g>
		<path d="M469.2,158.1c0,0,0.2,0,0.4,0c0.3,0,0.6,0,1,0.1c0.2,0,0.4,0.1,0.6,0.1c0.2,0.1,0.4,0.2,0.7,0.3c0.5,0.2,1.1,0.2,1.6,0
			c0.3-0.1,0.5-0.2,0.7-0.3c0.2-0.1,0.4-0.2,0.6-0.4c0.2-0.1,0.2-0.2,0.3-0.3c0-0.1,0.1-0.2,0.1-0.3c0-0.3-0.2-0.6-0.3-0.8
			c-0.1-0.2-0.2-0.4-0.2-0.4l0.1-0.1c0,0,0.1,0,0.4,0.2c0.2,0.1,0.6,0.3,0.9,0.8c0.1,0.3,0.2,0.6,0.1,1c-0.1,0.4-0.4,0.6-0.7,0.8
			c-0.3,0.2-0.6,0.3-0.9,0.4c-0.3,0.1-0.6,0.1-0.9,0.1c-0.3,0-0.6-0.1-0.9-0.1c-0.3,0-0.6,0-0.8,0.1c-0.3,0-0.6,0.1-0.8,0
			c-0.2,0-0.5-0.1-0.7-0.2C469.6,158.7,469.2,158.2,469.2,158.1L469.2,158.1z"/>
	</g>
	<g>
		<path d="M474.1,165c0,0,0.1-0.3,0.2-0.4c0,0,0.1,0,0.1,0c0,0,0.1,0.1,0.2,0.1c0.1,0.1,0.1,0.1,0.2,0.1c0.1,0,0.1-0.1,0.1-0.2
			c0-0.2,0.1-0.3,0.2-0.3c0.1-0.1,0.2-0.1,0.3-0.1c0.2,0,0.4,0.2,0.4,0.2l0.1,0.1c0,0,0.1,0.3,0,0.5c0,0.1-0.1,0.2-0.3,0.2
			c-0.1,0-0.1,0-0.2,0c-0.1,0-0.2,0-0.2-0.1c-0.1,0-0.2-0.1-0.2-0.1c-0.1,0-0.1,0.1-0.1,0.2c0,0.1-0.1,0.2-0.1,0.2
			c-0.1,0-0.1,0-0.2,0C474.3,165.4,474.1,165.1,474.1,165L474.1,165z"/>
	</g>
	<g>
		<path d="M476.9,173.4C476.9,173.4,476.9,173.4,476.9,173.4C476.9,173.5,476.9,173.5,476.9,173.4
			C476.9,173.5,477,173.5,476.9,173.4c0.1,0.1,0.1,0.1,0.2,0.2c0.1,0.1,0.1,0.1,0.2,0.2c0.4,0.2,1,0.4,1.8,0.3
			c0.4,0,0.9-0.1,1.4-0.1c0.5,0,1.1,0.2,1.6,0.5c0.5,0.2,1,0.5,1.5,0.6c0.5,0.1,1.1,0,1.7-0.1c0.6,0,1.3,0.1,1.8,0.5
			c0.5,0.4,0.9,0.8,1.2,1.2c0.3,0.4,0.6,0.8,0.9,1.2c0.3,0.4,0.6,0.7,0.9,1c0.5,0.6,1,1.2,1.3,1.6c0.3,0.4,0.6,0.5,0.6,0.5l0,0.1
			c0,0-0.1,0-0.2,0c-0.1,0-0.3-0.1-0.6-0.2c-0.2-0.1-0.5-0.3-0.7-0.5c-0.3-0.2-0.6-0.5-0.9-0.7c-0.3-0.3-0.7-0.6-1-1
			c-0.3-0.4-0.7-0.8-1-1.2c-0.6-0.9-1.2-1.7-2.2-1.9c-0.5-0.1-1.1-0.1-1.7-0.2c-0.6-0.1-1.1-0.3-1.6-0.4c-0.5-0.1-1-0.1-1.4-0.1
			c-0.4,0-0.9,0-1.4,0c-0.4,0-0.9-0.1-1.2-0.3c-0.4-0.2-0.6-0.4-0.8-0.6c-0.1-0.1-0.1-0.2-0.2-0.3c0-0.1-0.1-0.2-0.1-0.3
			c0-0.1,0.1-0.1,0.1-0.1C476.9,173.3,477,173.3,476.9,173.4C477,173.4,477,173.4,476.9,173.4C477,173.5,477,173.5,476.9,173.4
			L476.9,173.4z"/>
	</g>
	<g>
		<path d="M477.4,146.9c0.3,0.5,0.3,1.1,0.3,1.6c0,0.3-0.1,0.5-0.2,0.8c-0.1,0.3-0.2,0.5-0.2,0.8l-0.1-0.2c0.4,0.1,0.8,0.1,1.2,0.1
			c0.4,0,0.8,0.1,1.2,0.2c0.4,0.1,0.8,0.3,1.1,0.4c0.2,0.1,0.3,0.1,0.5,0.2c0.2,0,0.3,0.1,0.5,0l0.1,0.1c-0.1,0.2-0.3,0.4-0.5,0.5
			c-0.2,0.1-0.5,0.1-0.7,0.1c-0.5,0-0.8-0.1-1.2-0.2c-0.4-0.1-0.8-0.3-1.1-0.5c-0.4-0.2-0.7-0.4-1.1-0.5l-0.1,0l0-0.1
			c0-0.3-0.1-0.5-0.1-0.8c-0.1-0.3-0.1-0.5-0.1-0.8C476.9,147.9,477,147.4,477.4,146.9L477.4,146.9z"/>
	</g>
	<g>
		<path d="M474.7,145.1c0,0,0.2,0,0.4,0c0.3,0,0.6,0.1,1,0.3c0.2,0.1,0.4,0.1,0.6,0.3c0.2,0.1,0.4,0.3,0.6,0.4
			c0.2,0.2,0.4,0.3,0.7,0.4c0.2,0.1,0.5,0.1,0.8,0.2c0.6,0,1.1,0.1,1.6,0.2c0.5,0.1,0.9,0.2,1.3,0.4c0.8,0.3,1.3,0.6,1.3,0.6l0,0.1
			c0,0-0.6,0.2-1.4,0.2c-0.2,0-0.4,0-0.7-0.1c-0.2,0-0.5-0.1-0.7-0.2c-0.2-0.1-0.5-0.2-0.8-0.3c-0.3-0.1-0.5-0.3-0.7-0.4
			c-0.2-0.1-0.5-0.3-0.7-0.4c-0.3-0.1-0.5-0.2-0.8-0.2c-0.3,0-0.5-0.1-0.8-0.1c-0.2-0.1-0.4-0.2-0.6-0.3
			C474.9,145.7,474.6,145.2,474.7,145.1L474.7,145.1z"/>
	</g>
	<g>
		<path d="M504,155c0,0,0.1,0,0.3,0.1c0.2,0.1,0.5,0.2,0.8,0.4c0.1,0.1,0.3,0.2,0.4,0.4c0.1,0.2,0.2,0.5,0.2,0.7c0,0.3,0,0.5,0,0.7
			c0,0.2,0,0.5-0.1,0.7c0,0.3-0.1,0.5-0.2,0.7c-0.1,0.1-0.1,0.2-0.2,0.3c-0.1,0.1-0.1,0.2-0.2,0.3c-0.4,0.3-0.8,0.5-1.1,0.6
			c-0.7,0.2-1.2,0.1-1.2,0.1l0-0.1c0,0,0.1-0.1,0.2-0.3c0.2-0.2,0.4-0.3,0.6-0.5c0.3-0.2,0.5-0.4,0.8-0.6c0.1,0,0.1-0.1,0.2-0.2
			c0.1,0,0.1-0.1,0.2-0.2c0.1-0.1,0.3-0.3,0.4-0.4c0.1-0.2,0.3-0.4,0.3-0.6c0-0.2,0-0.4-0.2-0.6c-0.1-0.1-0.3-0.3-0.4-0.4
			c-0.1-0.1-0.2-0.2-0.3-0.3c-0.2-0.2-0.4-0.5-0.5-0.7C504,155.2,504,155.1,504,155L504,155z"/>
	</g>
	<g>
		<path d="M576.7,246.6c0,0,0.1,0.1,0.3,0.4c0.2,0.2,0.6,0.5,1.1,0.8c0.5,0.3,1.1,0.6,1.9,0.7c0.8,0.2,1.7,0.3,2.7,0.4
			c1,0.1,2.1,0.2,3.2,0.2c1.1,0,2.3,0,3.5-0.2c1.2-0.3,2.4-0.8,3.3-1.7c0.5-0.5,0.8-1,1.1-1.6c0.3-0.6,0.4-1.2,0.5-1.9
			c0.1-0.7,0.2-1.3,0.2-2c0.1-0.7,0.1-1.3,0.1-1.9c0-1.3-0.6-2.3-1.4-3.3c-0.8-1-1.5-2-2-3.1c-0.6-1-1-2.1-1.3-3.1
			c-0.3-1-0.6-1.9-0.7-2.7c-0.1-0.8-0.3-1.5-0.4-2.1c-0.1-0.6-0.3-1-0.5-1.2c-0.2-0.3-0.3-0.4-0.3-0.4l0.1-0.1c0,0,0.1,0.1,0.4,0.3
			c0.2,0.2,0.5,0.6,0.7,1.2c0.2,0.6,0.4,1.3,0.7,2c0.2,0.8,0.5,1.6,0.9,2.6c0.4,0.9,0.9,1.9,1.4,2.9c0.6,1,1.2,2,2,3
			c0.4,0.5,0.7,1.1,1,1.8c0.3,0.6,0.4,1.4,0.4,2.1c0,1.4-0.3,2.7-0.7,4.1c-0.3,1.3-1,2.7-2,3.6c-1,0.9-2.2,1.6-3.4,2
			c-1.2,0.4-2.5,0.6-3.7,0.6c-1.2,0-2.3-0.1-3.3-0.3c-1-0.2-2-0.4-2.7-0.6c-0.8-0.3-1.5-0.6-1.9-1c-0.5-0.4-0.8-0.8-1-1
			C576.7,246.8,576.6,246.7,576.7,246.6L576.7,246.6z"/>
	</g>
	<g>
		<path class="st5" d="M571.3,224.6"/>
	</g>
	<g>
		<path d="M580.9,222.9c-1-1.3-2.7-1.3-4-2.6c-0.2-0.1-0.3-0.4-0.4-0.5c-0.1-0.2-0.2-0.4-0.3-0.6c-0.2-0.4-0.2-0.9-0.1-1.4
			c0-0.2,0-0.4,0.2-0.8c0.2-0.4,0.6-0.4,0.8-0.4c0.4,0,0.9,0,1.3,0.1c0.4,0.1,0.8,0.2,1.2,0.4c0.4,0.2,0.7,0.4,1.1,0.6
			c0.7,0.4,1.3,0.9,2,1.3c0.3,0.2,0.7,0.3,1.1,0.4c0.4,0.1,0.8,0.1,1.2,0.1c0.4,0,0.8,0,1.3,0.2c0.4,0.1,0.9,0.3,1.2,0.7l0,0l0,0
			c0.2,0.3,0.3,0.7,0.2,1.1c0,0.4-0.1,0.7-0.3,0.9c-0.3,0.6-0.6,1-0.8,1.5c-0.6,1-1.2,1.9-2,2.7c-0.8,0.9-1.6,1.7-2.5,2.3
			c-0.5,0.3-1,0.6-1.5,0.8c-0.5,0.2-1.1,0.3-1.6,0.4l0-0.1c0.3-0.1,0.5-0.2,0.8-0.3c0.2-0.1,0.5-0.2,0.7-0.4
			c0.5-0.3,0.9-0.6,1.3-0.9c0.4-0.4,0.8-0.7,1.1-1.1c0.4-0.4,0.7-0.8,1-1.3c0.7-0.9,1.3-1.8,1.9-2.7c0.3-0.5,0.6-0.9,0.9-1.3
			c0.2-0.4,0.3-0.9,0.2-1.2l0,0c-0.3-0.5-1.1-0.7-1.9-0.8c-0.4-0.1-0.8-0.1-1.2-0.3c-0.4-0.1-0.8-0.3-1.1-0.5
			c-0.7-0.4-1.4-0.9-2-1.3c-0.4-0.2-0.7-0.3-1.1-0.5c-0.4-0.1-0.7-0.2-1.1-0.2c-0.4,0-0.7,0-1.1,0.1c-0.2,0-0.2,0.1-0.2,0.1
			c0,0-0.1,0.2-0.1,0.4c0,0.3,0,0.7,0.1,1c0,0.2,0.1,0.3,0.2,0.5c0.1,0.2,0.2,0.3,0.3,0.4c0.5,0.5,1.1,0.9,1.8,1.4
			c0.3,0.2,0.7,0.5,1,0.8C580.5,222.1,580.8,222.5,580.9,222.9L580.9,222.9z"/>
	</g>
	<g>
		<path d="M588.8,217.7c0,0,0-0.5-0.1-1.5c-0.1-0.9-0.2-2.3-0.9-3.6c-0.3-0.7-0.9-1.3-1.6-1.6c-0.7-0.4-1.6-0.6-2.6-0.8
			c-1-0.2-2-0.4-3-0.6c-1-0.2-2.1-0.4-3.1-0.7c-1.1-0.3-2.1-0.6-2.8-0.2c-0.4,0.2-0.6,0.5-0.6,0.8c0,0.1,0,0.1,0.2,0.2
			c0.1,0.1,0.4,0.2,0.6,0.3c1.9,0.8,3.5,1.7,4.9,2.6c1.4,0.9,2.4,1.7,3.1,2.3c0.7,0.6,1.1,1,1.1,1l-0.1,0.1c0,0-0.5-0.3-1.3-0.8
			c-0.8-0.5-1.9-1.2-3.3-1.9c-1.4-0.8-3-1.6-4.8-2.4c-0.2-0.1-0.5-0.2-0.8-0.4c-0.3-0.2-0.6-0.6-0.6-1c0-0.8,0.6-1.4,1.2-1.6
			c0.6-0.2,1.3-0.2,1.8,0c0.6,0.2,1,0.4,1.5,0.6c1,0.4,2,0.7,3,0.9c1,0.2,2,0.4,3,0.4c1,0.1,2,0.1,3,0.5c0.9,0.4,1.6,1.3,1.9,2
			c0.4,0.8,0.5,1.6,0.6,2.2c0,0.7,0,1.3,0,1.7C589,217.2,588.9,217.7,588.8,217.7L588.8,217.7z"/>
	</g>
	<g>
		<path d="M588.9,208.8c0,0-0.3-0.4-0.7-1.2c-0.2-0.4-0.5-0.9-0.7-1.4c-0.1-0.3-0.3-0.6-0.4-0.9c-0.2-0.3-0.3-0.7-0.5-0.9
			c-0.2-0.2-0.3-0.3-0.7-0.4c-0.4-0.1-0.8-0.2-1.2-0.2c-0.8-0.2-1.7-0.4-2.6-0.6c-0.9-0.2-1.9-0.4-2.8-0.5c-1-0.1-2-0.2-3-0.2
			c-0.5,0-1,0-1.2,0.2c-0.2,0.2-0.3,0.6-0.3,1.1c0,0.8,0.3,1.7,0.8,2.3c0.5,0.6,1.2,0.9,2,1.1c0.8,0.1,1.6,0.2,2.3,0.3
			c1.5,0.2,2.7,0.6,3.6,1c0.8,0.4,1.2,0.6,1.2,0.6l0,0.1c0,0-0.5-0.2-1.3-0.4c-0.8-0.2-2-0.4-3.5-0.5c-0.7,0-1.5,0-2.5-0.1
			c-0.9-0.1-2-0.6-2.6-1.4c-0.7-0.8-1-1.9-0.9-3.1c0.1-0.5,0.2-1.1,0.8-1.6c0.6-0.4,1.2-0.2,1.7-0.1c1,0.1,2,0.3,3,0.4
			c1,0.1,1.9,0.2,2.9,0.3c0.9,0.1,1.8,0.1,2.7,0.3c0.4,0.1,0.8,0.1,1.2,0.2c0.2,0.1,0.5,0.1,0.7,0.3c0.2,0.1,0.4,0.4,0.5,0.5
			c0.2,0.4,0.3,0.7,0.5,1c0.1,0.3,0.2,0.6,0.3,0.9c0.2,0.6,0.4,1.1,0.5,1.5C588.8,208.3,589,208.7,588.9,208.8L588.9,208.8z"/>
	</g>
	<g>
		<path d="M586.7,204c0,0,0.2-1.3,0.8-3c0.2-0.4,0.3-0.9,0.4-1.3c0.1-0.4,0-0.9-0.3-1.3c-0.3-0.4-0.9-0.7-1.4-0.8
			c-0.6-0.1-1.2-0.1-1.8-0.1c-0.6,0-1.2,0.1-1.8,0.2c-0.6,0.1-1.1,0.2-1.7,0.3c-1,0.3-1.9,0.7-2.4,1.4c-0.2,0.3-0.4,0.7-0.4,1
			c-0.1,0.3,0,0.6,0,0.9c0.1,0.2,0.2,0.4,0.2,0.5c0.1,0.1,0.1,0.2,0.1,0.2l-0.1,0.1c0,0-0.1,0-0.2-0.1c-0.1-0.1-0.3-0.2-0.5-0.5
			c-0.3-0.5-0.5-1.5,0-2.5c0.3-0.5,0.7-0.9,1.2-1.2c0.5-0.3,1.1-0.5,1.7-0.7c0.6-0.1,1.2-0.2,1.8-0.2c0.6,0,1.3,0,1.9,0.1
			c0.6,0.1,1.2,0.2,1.8,0.4c0.6,0.1,1.2,0.3,1.7,0.7c0.5,0.4,0.9,1.1,0.8,1.7c0,0.6-0.3,1.1-0.4,1.6
			C587.5,203,586.8,204.1,586.7,204L586.7,204z"/>
	</g>
	<g>
		<path d="M567.4,197.5c0,0-0.4,0.1-1.1,0.2c-0.7,0.1-1.7,0.2-3,0.4c-0.6,0.1-1.3,0.2-1.9,0.3c-0.7,0.1-1.4,0.2-2.1,0.4
			c-0.7,0.2-1.4,0.7-1.4,1.5c0,0.3,0.2,0.7,0.5,0.9c0.3,0.2,0.7,0.4,1,0.5c0.8,0.3,1.6,0.4,2.3,0.6c0.8,0.1,1.6,0.3,2.3,0.3
			c1.5,0.2,3,0.3,4.2,0.5c1.2,0.1,2.3,0.3,3,0.4c0.7,0.1,1.1,0.2,1.1,0.2l0,0.1c0,0-0.4,0.1-1.1,0.1c-0.7,0.1-1.8,0.1-3,0.1
			c-1.3,0-2.7-0.1-4.3-0.3c-1.5-0.3-3.2-0.6-4.7-1.4c-0.4-0.2-0.7-0.5-1.1-0.8c-0.3-0.3-0.6-0.7-0.6-1.2c0-0.4,0.1-0.9,0.4-1.2
			c0.3-0.3,0.6-0.6,1-0.8c0.7-0.4,1.5-0.7,2.2-0.8c0.7-0.2,1.4-0.2,2-0.3c1.3-0.1,2.3,0,3,0C566.9,197.3,567.4,197.4,567.4,197.5
			L567.4,197.5z"/>
	</g>
	<g>
		<path d="M579.2,197.8c0,0-0.1,0.1-0.3,0.1c-0.2,0.1-0.5,0.1-0.9,0.2c-0.2,0-0.4,0-0.6,0c-0.2,0-0.4-0.1-0.6-0.2
			c-0.2-0.1-0.4-0.1-0.7-0.2c-0.2,0-0.5,0-0.7,0.1c-0.2,0.1-0.5,0.1-0.7,0.1c-0.2,0-0.5,0-0.7,0c-0.4,0-0.8,0-1.2-0.1
			c-0.7-0.2-1.1-0.5-1.1-0.5l0-0.1c0,0,0.5-0.2,1.2-0.3c0.4,0,0.8-0.1,1.2,0c0.2,0,0.4,0.1,0.7,0.1c0.2,0,0.5,0.1,0.7,0.2
			c0.2,0.1,0.5,0.2,0.7,0.2c0.2,0,0.5,0,0.7-0.1c0.2-0.1,0.4-0.1,0.6-0.1c0.2,0,0.4,0,0.6,0c0.3,0.1,0.6,0.2,0.8,0.3
			C579.1,197.6,579.2,197.7,579.2,197.8L579.2,197.8z"/>
	</g>
	<g>
		<path d="M498.5,149c0.2,2.4,0.2,5,0.3,7h-0.7c0-1,0-2.4,0-3.6c0-1.2,0.1-2.4,0.5-3.7c0.3-1.2,0.9-2.4,1.8-3.3
			c0.9-0.9,2.1-1.5,3.3-1.8c1.2-0.3,2.4-0.5,3.4-1.1c0.2-0.2,0.5-0.3,0.7-0.5c0.2-0.2,0.3-0.5,0.5-0.7c0.1-0.3,0.3-0.5,0.5-0.8
			c0.2-0.3,0.5-0.5,0.7-0.6c0.9-0.7,1.9-1.6,3-2.1c1.1-0.5,2.2-1.1,3.4-1.5c1.2-0.4,2.4-0.7,3.8-0.6c1.3,0.1,2.6,0.8,3.5,1.8
			c0.8,1,1.3,2.2,1.7,3.5c0.4,1.1,0.6,2.5,0.6,3.7c0.1,1.3,0,2.5-0.2,3.8c-0.3,1.2-0.6,2.4-1.2,3.5c-0.6,1.1-1.4,2.1-2.2,3
			c-0.9,0.9-1.9,1.5-3,2.1l-0.1-0.1c1-0.7,1.9-1.5,2.7-2.4c0.8-0.9,1.4-1.9,1.9-3c0.5-1.1,0.8-2.2,1-3.4c0.2-1.2,0.2-2.3,0.1-3.5
			c-0.1-1.2-0.3-2.3-0.6-3.5c-0.3-1.1-0.7-2.2-1.4-3.1c-0.7-0.9-1.7-1.4-2.8-1.6c-1.1-0.1-2.3,0.1-3.4,0.4c-1.1,0.3-2.3,0.8-3.4,1.2
			c-1.1,0.4-2,1.2-3,1.9c-0.3,0.2-0.5,0.3-0.7,0.6c-0.2,0.2-0.3,0.5-0.5,0.8c-0.1,0.3-0.3,0.5-0.5,0.8c-0.2,0.3-0.5,0.4-0.7,0.6
			c-1.1,0.7-2.3,0.9-3.4,1.3c-1.2,0.3-2.2,0.9-2.9,1.8c-0.7,0.9-1.2,1.8-1.5,3c-0.5,2.3-0.5,5.1-0.6,7.1h-0.7
			C498.2,154,498.3,151.4,498.5,149L498.5,149z"/>
	</g>
	<g>
		<path d="M519.8,135.6c0,0,0-0.3-0.1-0.7c0-0.2,0-0.5-0.1-0.9c-0.1-0.3-0.2-0.7-0.3-1.2c-0.1-0.4-0.3-0.9-0.5-1.4
			c-0.2-0.5-0.5-1-0.8-1.6c-0.6-1.1-1.4-2.2-2.4-3.4c-1-1.1-2.2-2.3-3.6-3.4c-1.4-1.1-2.9-2.2-4.6-3.2c-1.7-1-3.5-1.8-5.5-2.3
			c-2-0.5-4.1-0.5-6.1-0.3c-2.1,0.2-4.1,0.6-6.1,1c-2,0.5-3.9,1.1-5.7,1.8c-1.8,0.7-3.4,1.6-4.9,2.6c-1.4,1-2.6,2.1-3.6,3.3
			c-1.8,2.5-3,4.8-3.7,6.5c-0.3,0.8-0.5,1.5-0.5,2c-0.1,0.5-0.1,0.7-0.1,0.7l-0.1,0c0,0,0-0.3,0-0.8c0-0.5,0.1-1.2,0.3-2.1
			c0.2-0.9,0.6-1.9,1.2-3.1c0.5-1.2,1.3-2.4,2.2-3.7c0.9-1.3,2.2-2.6,3.7-3.6c1.5-1.1,3.2-1.9,5.1-2.7c3.7-1.4,7.9-2.3,12.1-2.4
			c2.1-0.1,4.2,0,6.2,0.5c2,0.5,3.9,1.3,5.7,2.1c1.8,0.9,3.4,1.9,4.8,3c0.7,0.5,1.4,1.1,2,1.7c0.6,0.6,1.2,1.2,1.7,1.8
			c1,1.2,1.9,2.4,2.4,3.6c0.3,0.6,0.5,1.1,0.7,1.7c0.2,0.5,0.4,1,0.4,1.5c0.1,0.5,0.1,0.9,0.2,1.2c0,0.4,0,0.7,0,0.9
			C519.9,135.3,519.9,135.5,519.8,135.6L519.8,135.6z"/>
	</g>
	<g>
		<path d="M505.6,159.8c0,0,0,0.1,0,0.2c0,0.1-0.1,0.3,0,0.6c0,0.2,0,0.5,0.1,0.8c0.1,0.3,0.2,0.5,0.5,0.7c0.2,0.2,0.6,0.4,1,0.5
			c0.4,0.2,0.8,0.3,1.3,0.5c0.5,0.1,1,0.2,1.6,0.2c0.3,0,0.5,0,0.8-0.1c0.3,0,0.5-0.1,0.8-0.2c1-0.4,1.7-1,2.3-1.8
			c0.3-0.4,0.6-0.8,0.9-1.1c0.3-0.4,0.7-0.7,1-1c0.2-0.1,0.4-0.3,0.5-0.4c0.2-0.1,0.3-0.2,0.5-0.3c0.3-0.1,0.6-0.2,0.9-0.3
			c0.5-0.1,0.8-0.1,0.8-0.1l0,0.1c0,0-0.2,0.2-0.6,0.4c-0.2,0.2-0.4,0.3-0.7,0.5c-0.2,0.2-0.5,0.5-0.8,0.7c-0.3,0.3-0.5,0.6-0.8,1
			c-0.3,0.4-0.6,0.8-0.9,1.2c-0.4,0.4-0.8,0.8-1.3,1.1c-0.5,0.3-1.1,0.5-1.7,0.6c-0.6,0.1-1.1,0-1.7,0c-0.5,0-1.1,0-1.6,0
			c-0.5,0-1.1,0-1.6-0.2c-0.5-0.1-1-0.4-1.3-0.8c-0.3-0.4-0.5-0.8-0.6-1.2c0-0.4,0-0.7,0.1-1c0.1-0.3,0.2-0.4,0.3-0.5
			C505.5,159.8,505.5,159.7,505.6,159.8L505.6,159.8z"/>
	</g>
	<g>
		<path d="M527,167.5c0,0,0.2,0,0.5-0.1c0.2,0,0.4,0,0.6,0c0.3,0,0.5,0,0.9,0.1c1.3,0.2,3,1,4.8,2.2c0.9,0.6,1.8,1.3,2.8,2
			c0.5,0.3,1,0.7,1.6,1c0.6,0.3,1.2,0.6,1.7,0.9c1.2,0.6,2.4,1.3,3.7,1.9c1.3,0.6,2.6,1.2,3.8,1.9c1.3,0.7,2.5,1.4,3.7,2.2
			c1.2,0.8,2.2,1.7,3.2,2.7c1.9,2,3.1,4.3,4.3,6c0.6,0.8,1.2,1.6,1.8,2.1c0.6,0.6,1.3,1,1.7,1.4c0.5,0.4,0.8,0.9,0.9,1.2
			c0.1,0.2,0.1,0.3,0.1,0.4c0,0.1,0,0.1,0,0.1l-0.1,0c0,0,0,0-0.1-0.1c0-0.1-0.1-0.2-0.2-0.3c-0.2-0.3-0.5-0.6-1-1
			c-0.5-0.4-1.1-0.7-1.9-1.2c-0.8-0.5-1.4-1.3-2.1-2.1c-0.7-0.8-1.4-1.8-2.1-2.8c-0.7-1-1.5-2-2.3-3c-1.8-1.9-4.1-3.6-6.4-5.2
			c-1.2-0.8-2.4-1.5-3.7-2.1c-1.3-0.6-2.5-1.2-3.8-1.7c-0.6-0.3-1.2-0.5-1.8-0.7c-0.6-0.3-1.2-0.6-1.7-0.9c-1.1-0.7-2-1.4-2.8-2
			c-0.9-0.6-1.7-1.2-2.4-1.6c-0.7-0.4-1.4-0.7-2-0.9c-0.3-0.1-0.6-0.2-0.8-0.2c-0.2,0-0.4-0.1-0.6-0.1
			C527.2,167.6,527,167.6,527,167.5L527,167.5z"/>
	</g>
	<g>
		<path d="M484,176.2c0,0-0.2,0-0.4,0c-0.2,0-0.6,0.1-1,0.2c-0.4,0.1-0.9,0.3-1.4,0.5c-0.5,0.2-1,0.6-1.6,1c-0.5,0.4-1.1,1-1.6,1.6
			c-0.6,0.6-1.1,1.2-1.7,1.9c-0.6,0.7-1.1,1.5-1.5,2.3c-0.5,0.8-0.8,1.7-1.1,2.7c-0.3,0.9-0.6,1.8-0.9,2.7c-0.3,0.9-0.5,1.8-0.8,2.7
			c-0.5,1.7-0.9,3.4-1.2,4.8c-0.1,0.7-0.3,1.4-0.4,1.9c-0.1,0.6-0.2,1.1-0.2,1.5c0,0.4-0.1,0.8-0.1,1c0,0.2,0,0.3,0,0.3l-0.1,0
			c0,0-0.1-0.5-0.2-1.3c0-0.4,0-1,0-1.6c0-0.6,0.1-1.3,0.2-2c0.1-0.7,0.2-1.5,0.4-2.4c0.2-0.8,0.4-1.7,0.7-2.6
			c0.6-1.8,1.2-3.6,2.2-5.3c0.9-1.7,1.8-3.5,2.7-5.1c0.5-0.8,0.9-1.6,1.5-2.2c0.5-0.7,1.2-1.2,1.8-1.7c0.6-0.4,1.2-0.8,1.8-1
			c0.3-0.1,0.6-0.2,0.8-0.2c0.3-0.1,0.5-0.1,0.7-0.1c0.5,0,0.9,0,1.1,0C483.8,176.1,484,176.1,484,176.2L484,176.2z"/>
	</g>
	<g>
		<path d="M521,171c0,0-0.4,0-0.8,0.1c-0.4,0.1-1.1,0.2-1.9,0.5c-0.8,0.3-1.7,0.8-2.5,1.5c-0.8,0.7-1.7,1.7-2.6,2.8
			c-0.9,1.1-1.7,2.4-2.6,3.8c-0.9,1.4-1.9,2.8-2.9,4.3c-1,1.5-2.1,3-3.2,4.5c-1.2,1.5-2.5,2.9-4.2,4c-1.6,1-3.4,1.9-5.3,2.4
			c-1.9,0.5-3.9,0.4-5.7-0.3c-1.8-0.8-3.1-2.2-3.9-3.7c-0.9-1.5-1.3-3-1.6-4.5c-0.3-1.4-0.4-2.8-0.5-3.9c0-1.2,0-2.2,0.1-3
			c0.1-0.8,0.1-1.5,0.2-1.9c0.1-0.4,0.1-0.7,0.1-0.7l0.1,0c0,0,0,0.2,0,0.7c0,0.4,0,1.1,0,1.9c0,1.7,0.2,4,0.8,6.8
			c0.4,1.4,0.9,2.8,1.7,4.1c0.8,1.3,1.9,2.6,3.4,3.3c1.5,0.7,3.3,0.8,5.1,0.4c1.8-0.4,3.5-1.1,5.2-2c0.8-0.4,1.6-1,2.3-1.6
			c0.7-0.6,1.3-1.4,1.9-2.1c1.2-1.5,2.1-3.1,3-4.6c0.9-1.6,1.7-3.1,2.6-4.5c0.9-1.4,1.8-2.7,2.7-3.8c0.9-1.1,1.8-2.1,2.8-2.8
			c1-0.7,1.9-1.2,2.7-1.4c0.8-0.2,1.7-0.3,2.1-0.3c0.4,0,0.8,0,0.8,0V171z"/>
	</g>
	<g>
		<path d="M557.6,199.8c0,0,0.3,1.9,0.4,4.7c0,0.7,0,1.5,0,2.3c0,0.8-0.1,1.7-0.2,2.5c-0.1,0.9-0.1,1.8-0.1,2.7
			c0,0.9,0.1,1.9,0.1,2.8c0.1,0.9,0.1,1.9,0.2,2.8c0,0.9,0.1,1.8,0.1,2.7c0,1.8,0,3.4-0.1,4.8c-0.1,1.4-0.2,2.6-0.2,3.4
			c-0.1,0.8-0.2,1.3-0.2,1.3l-0.1,0c0,0-0.1-0.5-0.1-1.3c-0.1-0.8-0.2-2-0.2-3.4c-0.1-1.4-0.1-3.1-0.1-4.8c0-0.9,0.1-1.8,0.1-2.7
			c0-0.9,0.1-1.9,0.2-2.8c0.1-0.9,0.1-1.9,0.1-2.8c0-0.9,0-1.8-0.1-2.7c-0.1-0.9-0.1-1.7-0.2-2.5c0-0.8,0-1.6,0-2.3
			c0.1-2.8,0.4-4.7,0.4-4.7L557.6,199.8z"/>
	</g>
	<g>
		<path d="M557.7,230.4c0,0,0.4,0.1,1,0.3c0.3,0.1,0.7,0.2,1.1,0.4c0.4,0.1,0.9,0.3,1.4,0.5c0.5,0.2,1,0.3,1.6,0.6
			c0.6,0.2,1.2,0.5,1.8,0.7c0.3,0.1,0.6,0.2,1,0.4c0.3,0.1,0.7,0.1,1,0.2c0.3,0.1,0.7,0.1,1,0.2c0.4,0,0.7,0,1.1,0
			c0.4,0,0.7,0,1.1,0c0.3,0,0.7-0.1,1-0.1c0.7,0,1.3-0.2,2-0.3c0.6-0.2,1.2-0.3,1.8-0.4c0.6-0.2,1.1-0.3,1.6-0.5
			c0.5-0.2,0.9-0.4,1.3-0.6c0.4-0.2,0.7-0.4,0.9-0.6c0.5-0.3,0.8-0.6,0.8-0.6l0.1,0.1c0,0-0.2,0.3-0.6,0.8c-0.2,0.2-0.5,0.5-0.8,0.8
			c-0.3,0.3-0.8,0.6-1.2,0.9c-0.2,0.1-0.5,0.3-0.8,0.4c-0.3,0.1-0.6,0.2-0.9,0.3c-0.3,0.1-0.6,0.2-0.9,0.3c-0.3,0.1-0.7,0.2-1,0.2
			c-0.7,0-1.4,0.2-2.1,0.1c-0.4,0-0.7,0-1.1-0.1c-0.4,0-0.7-0.1-1.1-0.2c-0.7-0.1-1.4-0.3-2.1-0.4c-0.3-0.1-0.7-0.1-1-0.2
			c-0.3-0.1-0.7-0.1-1-0.2c-0.7-0.1-1.3-0.2-1.9-0.4c-0.6-0.2-1.1-0.4-1.6-0.6c-0.5-0.2-0.9-0.4-1.3-0.7c-0.4-0.2-0.7-0.4-1-0.6
			C557.9,230.7,557.6,230.5,557.7,230.4L557.7,230.4z"/>
	</g>
	<g>
		<path d="M500.8,295.4c0.6-2.6,1-5.2,1.3-7.9c0.3-2.6,0.6-5.3,0.8-8l0.6-8c0.2-2.7,0.4-5.3,0.7-8c0.7-5.3,1.6-10.6,2.8-15.8
			c0.6-2.6,1.2-5.2,1.9-7.8c0.6-2.6,1.4-5.2,1.9-7.8c0.5-2.6,1-5.2,1.3-7.9c0.3-2.6,0.4-5.3,0.3-8c-0.1-5.3-0.8-10.6-2-15.8l-0.5-2
			l-0.4-2c-0.1-0.7-0.1-1.4-0.2-2c0-0.7,0-1.4,0-2.1c0.1-2.7,0.9-5.4,2.1-7.9c1.2-2.5,2.7-4.7,4.2-6.9c1.5-2.2,3-4.4,4.3-6.7
			l0.9-1.6l0,1.8c0.1,2.8-0.1,5.6-0.3,8.4c-0.1,1.4-0.3,2.8-0.1,4.1c0.1,0.3,0.1,0.6,0.2,0.9c0.1,0.2,0.3,0.3,0.5,0.2
			c0.5-0.1,1.1-0.6,1.5-1c0.4-0.5,0.8-1.1,1.1-1.6c0.3-0.6,0.6-1.2,1-1.8c0.3-0.6,0.6-1.2,1-1.9c0.3-0.6,0.7-1.2,1.2-1.8
			c1.8-2.2,3.8-4.1,6-5.8l0.1,0.1c-2.1,1.8-4,3.8-5.7,6c-0.4,0.6-0.8,1.1-1.1,1.7c-0.3,0.6-0.6,1.2-0.9,1.9
			c-0.3,0.6-0.6,1.3-0.9,1.9c-0.3,0.6-0.7,1.2-1.2,1.8c-0.2,0.3-0.5,0.5-0.8,0.7c-0.3,0.2-0.6,0.4-1,0.5c-0.2,0-0.5,0.1-0.7-0.1
			c-0.1,0-0.2-0.1-0.3-0.2c-0.1-0.1-0.2-0.2-0.2-0.3c-0.2-0.4-0.3-0.8-0.4-1.1c-0.2-1.5,0-2.9,0-4.2c0.1-2.8,0.2-5.5,0.2-8.3
			l0.9,0.2c-2.7,4.7-6.2,8.8-8.4,13.5c-1.1,2.3-1.9,4.9-2,7.5c0,0.6,0,1.3,0,1.9c0.1,0.6,0.1,1.3,0.2,1.9l0.4,2l0.4,1.9
			c1.1,5.2,1.7,10.6,1.7,16c0,5.4-0.7,10.7-1.8,15.9c-0.5,2.6-1.2,5.2-1.8,7.8c-0.6,2.6-1.2,5.2-1.7,7.8c-1,5.2-1.9,10.5-2.6,15.8
			c-0.7,5.3-1,10.6-1.5,15.9c-0.3,2.7-0.6,5.3-1,8C502.1,290.2,501.6,292.8,500.8,295.4L500.8,295.4z"/>
	</g>
	<g>
		<path d="M554.8,297.5c0.4,0,0.9,0.1,1.3,0.3l-0.2,0.1c0.1-1.1,0.1-2.2-0.1-3.3c-0.1-1.1-0.4-2.2-0.6-3.2c-0.5-2.2-1.2-4.3-1.7-6.5
			c-0.2-1.1-0.4-2.2-0.5-3.3c-0.1-0.6-0.1-1.1-0.1-1.7c0-0.6,0-1.1,0-1.7c0-2.3,0.8-4.5,1.5-6.6c0.4-1.1,0.7-2.1,0.9-3.2
			c0.2-1.1,0.4-2.1,0.4-3.2c0-1.1-0.1-2.2-0.2-3.3c-0.1-1.1-0.3-2.2-0.4-3.3c-0.3-2.2-0.7-4.4-1-6.6c-0.1-1.1-0.2-2.2-0.3-3.4
			c-0.1-1.1,0-2.3,0.1-3.4l0.1,0c0.1,1.1,0.1,2.2,0.3,3.3c0.1,1.1,0.3,2.2,0.5,3.3c0.4,2.2,0.9,4.4,1.3,6.6c0.2,1.1,0.3,2.2,0.4,3.4
			c0.1,1.1,0.1,2.3,0.1,3.4c0,1.1-0.2,2.3-0.5,3.4c-0.3,1.1-0.7,2.2-1.2,3.2c-0.4,1-0.9,2.1-1.2,3.1c-0.3,1.1-0.6,2.1-0.6,3.3
			c0,1.1,0.1,2.2,0.3,3.3c0.2,1.1,0.5,2.2,0.8,3.2c0.6,2.1,1.3,4.3,1.7,6.5c0.1,0.6,0.2,1.1,0.3,1.7c0,0.6,0.1,1.1,0.1,1.7
			c0.1,1.1,0,2.3-0.3,3.4l0,0.2l-0.2-0.1C555.6,297.9,555.3,297.7,554.8,297.5L554.8,297.5z"/>
	</g>
	<g>
		<path d="M568,199.2c0,0-0.2-0.2-0.5-0.5c-0.1-0.1-0.1-0.2-0.2-0.3c-0.1-0.1-0.2-0.2-0.3-0.3c-0.2-0.2-0.4-0.4-0.7-0.8
			c-0.2-0.3-0.4-0.6-0.6-0.9l-0.1-0.1c0,0,0-0.1-0.1-0.1l-0.2-0.3c-0.1-0.2-0.3-0.5-0.2-0.9c0.1-0.2,0.2-0.3,0.4-0.3
			c0.1-0.1,0.3-0.1,0.4-0.1c0.2,0,0.5-0.1,0.7-0.1c0.5-0.1,1-0.1,1.4-0.2c0.5-0.1,0.9-0.2,1.4-0.3c0.4-0.1,1-0.1,1.3-0.2
			c0.1,0,0.2,0,0.3,0c0.1,0,0.1,0,0.2,0l0,0l0.1,0l0,0l0,0c0.3,0.2,0.3,0.3,0.4,0.5c0.1,0.3,0.2,0.5,0.2,0.7
			c0.1,0.5,0.1,0.8,0.1,1.2c0,0.4,0,0.7,0,1c0,0.3,0,0.6,0,0.8c-0.1,0.4-0.1,0.7-0.1,0.7l-0.1,0c0,0,0-0.1-0.1-0.2
			c-0.1-0.1-0.1-0.3-0.2-0.5c-0.1-0.4-0.3-1-0.4-1.7c-0.1-0.3-0.1-0.8-0.2-1.1c0-0.2-0.1-0.4-0.2-0.5c0,0-0.1-0.1,0,0
			c-0.1-0.1,0.1,0,0.1,0c0,0,0,0-0.1,0c-0.5,0.1-0.9,0.1-1.4,0.1c-0.5,0-1,0-1.4,0c-0.5,0-1-0.1-1.4,0c-0.2,0-0.5,0.1-0.7,0.2
			c-0.2,0.1-0.4,0.2-0.3,0.3c0,0,0.1,0.2,0.2,0.3l0.2,0.2c0.1,0.1,0.1,0,0.1,0.1l0.1,0.1c0.3,0.3,0.4,0.6,0.7,1
			c0.1,0.3,0.3,0.6,0.5,0.8c0.1,0.1,0.1,0.2,0.2,0.4c0,0.1,0.1,0.2,0.1,0.3C568.1,198.9,568.1,199.2,568,199.2L568,199.2z"/>
	</g>
	<g>
		<path d="M569.6,198.9c0,0-0.1,0-0.3-0.1c-0.1-0.1-0.2-0.2-0.2-0.3c-0.1-0.1-0.1-0.2-0.2-0.4c0-0.1-0.1-0.3-0.1-0.4
			c0-0.1,0-0.1,0-0.3c0-0.1,0-0.1,0.1-0.2c0-0.2,0-0.4,0-0.6c0-0.1,0-0.2,0-0.3c0-0.1,0-0.1,0.1-0.2c0,0,0.1-0.1,0.2-0.1
			c0.1,0,0.2,0,0.2,0c0.4,0.2,0.5,0.3,0.6,0.4c0.1,0.1,0.2,0.3,0.3,0.5c0.2,0.3,0.2,0.7,0.2,1c0,0.3-0.1,0.5-0.2,0.7
			c-0.1,0.1-0.1,0.2-0.1,0.2l-0.1,0.1c0,0-0.1,0-0.3-0.2c-0.1-0.2-0.2-0.4-0.3-0.6c-0.1-0.2-0.2-0.5-0.3-0.7c0-0.1-0.1-0.3-0.1-0.4
			c0-0.1-0.1-0.3,0-0.4c0,0,0.2,0,0.2-0.1c0,0,0,0,0,0c0,0.1-0.1,0.1-0.1,0.2c0,0.1,0.1,0.3,0.2,0.4c0,0.1,0.1,0.1,0.2,0.2
			c0,0.1,0.1,0.1,0.1,0.2c0,0.1,0,0.3,0,0.4c0,0.1,0,0.2,0,0.3c0,0.1,0,0.2,0,0.3C569.7,198.7,569.7,198.9,569.6,198.9L569.6,198.9z
			"/>
	</g>
	<g>
		<path d="M577.7,247.9c0,0-0.3,0-0.8-0.1c-0.2,0-0.5-0.2-0.9-0.3c-0.3-0.1-0.7-0.3-1.1-0.5c-0.4-0.2-0.8-0.4-1.2-0.7
			c-0.4-0.3-0.8-0.7-1.1-1c-0.4-0.4-0.8-0.7-1.2-1.1c-0.4-0.3-0.9-0.7-1.3-1c-0.4-0.3-0.9-0.7-1.3-1c-0.4-0.4-0.8-0.7-1.2-1.1
			c-0.7-0.7-1.3-1.5-1.8-2.3c-0.2-0.4-0.4-0.7-0.6-1c-0.1-0.3-0.3-0.6-0.4-0.8c-0.2-0.5-0.2-0.7-0.2-0.7l0.1,0c0,0,0.2,0.2,0.5,0.6
			c0.3,0.4,0.8,0.9,1.3,1.5c0.3,0.3,0.6,0.6,0.9,1c0.3,0.3,0.6,0.7,1,1.1c0.3,0.4,0.7,0.8,1,1.2c0.4,0.4,0.7,0.8,1.1,1.3
			c0.4,0.4,0.7,0.8,1.2,1.2c0.4,0.4,0.9,0.7,1.3,0.9c0.4,0.3,0.9,0.5,1.3,0.7c0.4,0.2,0.8,0.5,1.1,0.7c0.7,0.4,1.2,0.8,1.6,1.1
			C577.5,247.7,577.8,247.8,577.7,247.9L577.7,247.9z"/>
	</g>
	<g>
		<path d="M476.9,289.1c0,0-0.3-1-0.9-2.6c-0.2-0.9-0.5-1.9-0.7-3.1c-0.3-1.2-0.5-2.6-0.6-4.1c-0.2-1.5-0.3-3.2-0.3-4.9
			c0-1.7,0.1-3.6,0.2-5.5c0.2-1.9,0.3-3.8,0.5-5.8c0.2-2,0.3-4,0.5-6c0.2-2,0.4-4,0.6-6c0.2-1.9,0.3-3.9,0.4-5.8
			c0-1.9,0-3.7-0.1-5.4c-0.2-1.7-0.4-3.3-0.7-4.7c-0.4-1.4-0.8-2.7-1.3-3.9c-0.2-0.6-0.5-1.1-0.7-1.5c-0.2-0.5-0.5-0.9-0.7-1.3
			c-0.4-0.8-0.8-1.3-1.1-1.7c-0.3-0.4-0.4-0.6-0.4-0.6l0.1-0.1c0,0,0.2,0.2,0.5,0.5c0.3,0.4,0.8,0.9,1.3,1.6
			c0.3,0.3,0.5,0.8,0.8,1.2c0.3,0.5,0.6,1,0.9,1.5c0.6,1.1,1.1,2.4,1.5,3.9c0.9,3,1.3,6.6,1.1,10.4c-0.1,1.9-0.3,3.9-0.5,5.9
			c-0.3,2-0.6,4-0.9,6c-0.1,1-0.3,2-0.4,3c-0.1,1-0.2,2-0.3,3c-0.2,2-0.3,3.9-0.3,5.8c0,1.9,0.1,3.7,0.1,5.4
			c0.1,1.7,0.1,3.3,0.3,4.8c0.1,1.5,0.3,2.9,0.5,4.1c0.1,1.2,0.4,2.3,0.5,3.1c0.2,0.9,0.3,1.5,0.4,2
			C476.9,288.8,477,289.1,476.9,289.1L476.9,289.1z"/>
	</g>
	<g>
	</g>
	<g>
	</g>
	<g>
	</g>
	<g>
	</g>
	<g>
	</g>
	<g>
	</g>
	<g>
	</g>
	<g>
	</g>
	<g>
	</g>
	<g>
	</g>
	<g>
	</g>
	<g>
	</g>
	<g>
	</g>
	<g>
	</g>
	<g>
	</g>
</g>
</svg>
