<?xml version="1.0" encoding="utf-8"?>
<!-- Generator: Adobe Illustrator 20.1.0, SVG Export Plug-In . SVG Version: 6.00 Build 0)  -->
<svg version="1.1" xmlns="http://www.w3.org/2000/svg" xmlns:xlink="http://www.w3.org/1999/xlink" x="0px" y="0px"
	 viewBox="0 0 960 560" style="enable-background:new 0 0 960 560;" xml:space="preserve">
<style type="text/css">
	.st0{fill:none;stroke:#000000;stroke-width:2;stroke-miterlimit:10;}
	.st1{fill:none;stroke:#595757;stroke-width:2;stroke-miterlimit:10;}
	.st2{fill:none;stroke:#595757;stroke-width:2;stroke-miterlimit:10;stroke-dasharray:3.9474,3.9474;}
	.st3{fill:none;stroke:#494848;stroke-width:2;stroke-miterlimit:10;}
	.st4{fill:none;stroke:#494848;stroke-width:2;stroke-miterlimit:10;stroke-dasharray:3.9474,3.9474;}
	.st5{fill:none;}
	.st6{font-family:'TrajanPro3-Regular';}
	.st7{font-size:12.2344px;}
	.st8{fill:none;stroke:#000000;stroke-miterlimit:10;}
</style>
<g id="box">
	<g>
		<path d="M710.8,530.1c0,0-30.8,0-84.8,0.1c-54,0.1-131.1,0.3-223.6,0.6c-23.1,0-47.2,0.1-72.2,0.1c-24.9,0-50.7,0-77.2,0
			c-3.3,0-6.6,0-10,0c-0.9,0-1.6,0-2.5,0c-0.4,0-0.8,0-1.3-0.1l-1.3-0.2c-1.7-0.4-3.4-1-4.9-1.9c-3.1-1.8-5.5-4.6-6.8-8
			c-0.7-1.7-1-3.4-1.1-5.2c0-1.7,0-3.4,0-5.1c0-13.6,0.1-27.4,0.1-41.3c0.1-27.8,0.1-56.3,0.2-85.2c0.1-57.8,0.1-117.6,0.2-178.3
			c0-30.4-0.1-61-0.1-91.7c0-15.4,0-30.8-0.1-46.2c0-7.7,0-15.4,0-23.1c0.1-4,1.8-7.9,4.7-10.7c2.8-2.8,6.8-4.4,10.8-4.4
			c123.4-0.2,246.8-0.3,362.4-0.5c28.9,0,57.4,0,85.2,0c7,0,13.9,0,20.8,0c1.7,0,3.5,0,5.4,0.5c1.8,0.4,3.5,1.2,5,2.2
			c3,2,5.4,5.1,6.5,8.5c0.6,1.7,0.8,3.6,0.8,5.3c0,1.7,0,3.4,0,5.1c0,3.4,0,6.7,0,10.1c0,6.7,0,13.4,0,20
			c-0.1,53-0.1,103.1-0.2,149.4c-0.3,92.5-0.5,169.7-0.6,223.6c0,13.5,0,25.5,0,36c0,5.2,0,10.1,0,14.5c0,2.2,0,4.3,0,6.4
			c0,1,0,2,0,2.9c0,0.5,0,0.9,0,1.4c0,0.5,0,0.9-0.1,1.4c-0.4,3.6-1.9,6.6-3.8,8.7c-1.9,2.1-3.9,3.3-5.7,4c-1.7,0.7-3.2,0.9-4.1,1
			C711.3,530.1,710.8,530.1,710.8,530.1z M710.8,529.9c0,0,0.5,0,1.4-0.1c0.9-0.1,2.3-0.3,4.1-1c1.7-0.7,3.8-1.9,5.6-3.9
			c1.8-2,3.4-5,3.7-8.5c0-0.4,0-0.9,0.1-1.4c0-0.5,0-0.9,0-1.4c0-1,0-1.9,0-2.9c0-2,0-4.1,0-6.4c0-4.4,0-9.3,0-14.5
			c0-10.5,0-22.5,0-36c-0.2-54-0.4-131.1-0.6-223.6c-0.1-46.3-0.1-96.4-0.2-149.4c0-6.6,0-13.3,0-20c0-3.4,0-6.7,0-10.1
			c0-1.7,0-3.4,0-5.1c0-1.6-0.2-3.2-0.7-4.7c-1-3-3-5.7-5.7-7.4c-1.3-0.9-2.8-1.5-4.4-1.9c-1.5-0.4-3.1-0.4-4.9-0.4
			c-6.9,0-13.8,0-20.8,0c-27.8,0-56.3,0-85.2,0c-115.7-0.2-239.1-0.3-362.4-0.5c-3.7,0-7.4,1.5-10.1,4.1c-2.7,2.6-4.3,6.2-4.4,10
			c0,7.7,0,15.4,0,23.1c0,15.4,0,30.8-0.1,46.2c0,30.7-0.1,61.3-0.1,91.7c0.1,60.7,0.1,120.5,0.2,178.3c0.1,28.9,0.1,57.4,0.2,85.2
			c0,13.9,0.1,27.7,0.1,41.3c0,1.7,0,3.4,0,5.1c0,1.6,0.4,3.2,1,4.7c1.2,3,3.3,5.5,6.1,7.1c1.4,0.8,2.9,1.4,4.4,1.7l1.1,0.2
			c0.4,0,0.8,0,1.2,0.1c0.7,0,1.6,0,2.5,0c3.3,0,6.7,0,10,0c26.5,0,52.3,0,77.2,0c24.9,0,49,0.1,72.2,0.1
			c92.5,0.2,169.7,0.5,223.6,0.6C679.9,529.9,710.8,529.9,710.8,529.9z"/>
	</g>
	<path class="st0" d="M249.8,506.8"/>
	<path class="st0" d="M264.8,521.8"/>
	<path class="st0" d="M724.1,521.8"/>
	<g>
		<path d="M727.1,34c0,0,0.5,0,1.4,0.1c0.9,0.1,2.3,0.3,4.1,0.9c1.7,0.7,3.7,1.8,5.6,3.8c1.8,1.9,3.5,4.7,4,8.2
			c0.2,1.7,0.2,3.5,0.2,5.4c0,1.9,0,3.9,0,5.9c0,4.1,0.1,8.6,0.1,13.4c0.1,9.5,0.1,20.3,0.2,32c0.1,23.5,0.2,50.9,0.3,80.2
			c0,29.3,0.1,60.7,0.1,92c0,31.3-0.1,62.6-0.1,92c-0.1,29.3-0.2,56.7-0.3,80.2c-0.2,23.5-0.3,43-0.4,56.7c0,1.7,0,3.3-0.3,4.9
			c-0.3,1.5-0.8,2.9-1.4,4.1c-1.3,2.4-2.9,4-4.4,5.1c-1.5,1.1-2.8,1.7-3.7,2c-0.9,0.3-1.4,0.4-1.4,0.4s0.5-0.1,1.4-0.5
			c0.9-0.3,2.2-1,3.6-2.1c1.5-1.1,3.1-2.8,4.3-5.1c0.6-1.2,1.1-2.5,1.4-4c0.3-1.5,0.2-3.1,0.2-4.8c-0.1-13.7-0.2-33.3-0.4-56.7
			c-0.1-23.5-0.2-50.9-0.3-80.2c0-29.3-0.1-60.7-0.1-92c0-31.3,0.1-62.6,0.1-92c0.1-29.3,0.2-56.7,0.3-80.2
			c0.1-11.7,0.1-22.5,0.2-32c0-4.8,0.1-9.2,0.1-13.4c0-2.1,0-4,0-5.9c0-1.9,0.1-3.7-0.1-5.4c-0.4-3.4-2-6.2-3.8-8.1
			c-1.8-2-3.8-3.1-5.5-3.8c-1.7-0.7-3.1-0.9-4-1C727.6,34,727.1,34,727.1,34z"/>
	</g>
	<path class="st0" d="M721,34"/>
	<g>
		<path d="M716,529.9c0,0,0.3-0.3,0.8-0.8c0.5-0.5,1.3-1.1,2.2-1.8c0.5-0.3,1-0.7,1.6-1c0.6-0.3,1.3-0.5,2-0.7
			c0.7-0.2,1.4-0.5,2.1-0.9c0.7-0.4,1.3-0.9,1.9-1.4c0.6-0.5,1.2-1,1.8-1.4c0.6-0.4,1.3-0.9,1.9-1.3c1.2-0.8,2.5-1.4,3.5-1.9
			c1.1-0.5,2-0.8,2.7-1c0.7-0.2,1.1-0.3,1.1-0.3l0.1,0.2c0,0-0.3,0.3-0.8,0.8c-0.5,0.5-1.3,1.1-2.2,1.8c-0.9,0.7-2.1,1.5-3.4,2.1
			c-0.7,0.3-1.3,0.7-2,1c-0.7,0.3-1.4,0.6-2.2,0.9c-0.7,0.3-1.5,0.6-2.1,0.9c-0.7,0.4-1.3,0.8-1.8,1.3c-0.6,0.5-1.1,1-1.6,1.3
			c-0.6,0.4-1.1,0.7-1.6,0.9c-1.1,0.5-2,0.8-2.7,1c-0.7,0.2-1.1,0.3-1.1,0.3L716,529.9z"/>
	</g>
	<path class="st0" d="M734,35.7"/>
	<g>
		<path d="M734,35.8c0,0-0.3,0.1-0.9,0.1c-0.5,0-1.3,0-2.2-0.2c-0.4-0.1-0.9-0.2-1.4-0.4c-0.5-0.2-1-0.5-1.4-0.8
			c-0.5-0.3-1-0.6-1.6-0.7c-0.6-0.2-1.2-0.3-1.8-0.3c-0.6,0-1.2-0.1-1.8-0.2c-0.6-0.1-1.2-0.2-1.7-0.4c-1.1-0.2-2.1-0.7-2.9-1
			c-0.8-0.4-1.5-0.8-1.9-1.1c-0.5-0.3-0.7-0.5-0.7-0.5l0.1-0.2c0,0,0.3,0,0.9,0c0.5,0,1.3,0,2.2,0.2c0.9,0.1,1.9,0.3,3,0.8
			c0.5,0.2,1.1,0.4,1.6,0.7c0.5,0.2,1.1,0.5,1.6,0.8c0.5,0.3,1.1,0.6,1.6,0.8c0.6,0.2,1.1,0.3,1.7,0.3c0.6,0,1.1,0,1.7,0.1
			c0.5,0.1,1,0.3,1.4,0.5c0.8,0.3,1.5,0.7,2,1c0.5,0.3,0.7,0.6,0.7,0.6L734,35.8z"/>
	</g>
</g>
<g id="vhs">
	<g>
		<path d="M595.2,422.4c0,0-37.1,0.2-92.8,0.6c-13.9,0-29,0.1-44.9,0c-15.9,0-32.8-0.2-50.2-0.3c-8.7,0-17.5-0.1-26.5-0.1
			c-4.5,0-9,0-13.5,0c-4.5,0-9.1-0.1-13.6,0.1c-1.2,0-2.3,0.1-3.5,0.2l-0.9,0l-0.9-0.1c-0.6-0.1-1.2-0.2-1.8-0.4
			c-2.3-0.7-4.5-2.3-5.7-4.5c-0.7-1.1-1.1-2.3-1.3-3.5c-0.1-0.6-0.2-1.3-0.2-1.9l0-1.7c0-2.3,0-4.6,0-6.9s0-4.6,0-6.9l0-3.5l0-1.8
			l0-0.9c0-0.3,0.1-0.7,0.1-1c0.5-2.5,1.8-4.9,3.8-6.5c2-1.6,4.5-2.5,7-2.5c18.6,0.1,37.1,0.2,55.4,0.2c18.3,0,36.2,0,53.6,0
			c17.4,0,34.2,0,50.2,0c15.9,0,31,0.1,44.9,0.1c13.9,0.1,26.7,0.2,38,0.3c1.4,0,2.8-0.1,4.2,0.2c1.4,0.2,2.7,0.7,3.9,1.5
			c2.3,1.5,3.9,3.8,4.5,6.2c0.3,1.2,0.3,2.5,0.3,3.6c0,1.2,0,2.3,0,3.4c0,2.2,0,4.4-0.1,6.4c0,2,0,4,0,5.8c0,1.8,0,3.5-0.1,5.1
			c-0.4,3.2-2.1,5.6-3.8,6.9c-1.7,1.4-3.4,1.8-4.5,2c-0.6,0.1-1,0.1-1.3,0.1C595.3,422.4,595.2,422.4,595.2,422.4z M595.2,422.3
			c0,0,0.1,0,0.4,0c0.3,0,0.7,0,1.3-0.1c1.1-0.2,2.7-0.7,4.4-2c1.7-1.3,3.4-3.6,3.7-6.8c0.1-3.1,0-6.8,0-10.8c0-2,0-4.2-0.1-6.4
			c0-1.1,0-2.3,0-3.4c0-1.2,0-2.3-0.4-3.5c-0.6-2.3-2.1-4.4-4.3-5.8c-1.1-0.7-2.3-1.1-3.6-1.3c-1.3-0.2-2.7-0.1-4.1-0.1
			c-11.3,0.1-24.1,0.2-38,0.3c-13.9,0.1-29,0.2-44.9,0.1c-15.9,0-32.8,0-50.2,0c-17.4,0-35.4,0-53.6,0c-18.3,0.1-36.8,0.2-55.4,0.2
			c-2.1,0-4.2,0.8-5.8,2.1c-1.6,1.3-2.7,3.3-3.1,5.3c0,0.2-0.1,0.5-0.1,0.7l0,0.9l0,1.7l0,3.5c0,2.3,0,4.6,0,6.9s0,4.6,0,6.9l0,1.7
			c0,0.5,0,1,0.1,1.5c0.2,1,0.6,2,1,2.9c1,1.8,2.6,3.3,4.5,4.2c1.9,1,4.3,0.9,6.5,1c4.6,0.2,9.1,0.1,13.6,0.1c4.5,0,9,0,13.5,0
			c9,0,17.8-0.1,26.5-0.1c17.4-0.1,34.2-0.3,50.2-0.3c15.9-0.1,31,0,44.9,0C558.1,422.1,595.2,422.3,595.2,422.3z"/>
	</g>
	<g>
		<g>
			<g>
				<path d="M461.9,391.5l-2.1,17.5l0,0.2l-0.2,0l-6.9,0.1l-0.2,0l0-0.3l-2.8-17.4l-0.1-0.5l0.5,0l4.8,0l0.4,0l0,0.4l0.6,6.1
					c0.2,2,0.4,4.1,0.5,6.1l-0.9,0l0.6-6.1c0.2-2,0.4-4,0.7-6.1l0-0.2l0.2,0L461.9,391.5z M461.8,391.6l-4.7,0.2l0.2-0.2l-0.8,12.2
					l-0.9,0c-0.2-2-0.4-4-0.6-6.1l-0.6-6.1l0.5,0.4l-4.8,0l0.4-0.5l2.5,17.4l-0.3-0.2l6.9,0.1l-0.2,0.2L461.8,391.6z"/>
			</g>
		</g>
		<g>
			<g>
				<path d="M474.6,391.5l0.2,17.4l0,0.2l-0.2,0l-4.5,0l-0.3,0l0-0.3l-0.1-7.3l0.3,0.3l-1.4,0l0.3-0.3l0.1,7.3l0,0.4l-0.4,0l-4.5,0
					l-0.4,0l0-0.4c0-5.8-0.1-11.6-0.1-17.4l0-0.5l0.5,0c1.5,0,3,0,4.5,0l0.5,0l0,0.5l-0.1,6.2l-0.4-0.4l1.4,0l-0.4,0.4l0.2-6.2
					l0-0.2l0.2,0L474.6,391.5z M474.5,391.6l-4.5,0.2l0.2-0.2l0.2,6.2l0,0.4l-0.4,0l-1.4,0l-0.4,0l0-0.4l-0.1-6.2l0.5,0.5
					c-1.5,0-3,0-4.5,0l0.5-0.5c0,5.8-0.1,11.6-0.1,17.4l-0.4-0.4l4.5,0l-0.4,0.4l0.1-7.3l0-0.3l0.3,0l1.4,0l0.3,0l0,0.3l-0.1,7.3
					l-0.3-0.3l4.5,0l-0.2,0.2L474.5,391.6z"/>
			</g>
		</g>
		<g>
			<g>
				<path d="M487.6,396.8l-4.2,0l-0.1,0l0-0.1c0-0.7,0-1.5-0.1-2.1c0-0.4-0.3-0.5-0.7-0.4c-0.3,0-0.5,0.4-0.5,0.7
					c-0.1,0.6-0.1,1.5,0.3,1.9c0.5,0.5,1.1,0.8,1.7,1.2c0.6,0.4,1.2,0.8,1.8,1.2c0.6,0.4,1.2,0.9,1.6,1.6c0.4,0.7,0.5,1.4,0.6,2.1
					c0.1,0.7,0.1,1.5,0.1,2.2c0,0.7-0.1,1.5-0.5,2.2c-0.4,0.7-1,1.2-1.7,1.5c-1.4,0.7-2.9,0.8-4.4,0.6c-0.7-0.1-1.5-0.3-2.1-0.7
					c-0.7-0.4-1.3-0.9-1.6-1.7c-0.3-0.7-0.4-1.5-0.5-2.2c-0.1-0.7,0-1.5-0.1-2.2l0,0l0-0.4l0.4,0l4.2-0.1l0.5,0l0,0.5l0,2.2
					c0,0.3,0,0.7,0.1,0.9c0,0.1,0,0,0,0.1c0,0,0.2,0,0.3,0c0.1,0,0.1,0,0.1-0.1c0-0.1,0.1-0.2,0.1-0.3c0.1-0.3,0-0.6,0-0.9
					c0-0.3-0.1-0.7-0.1-0.9c0-0.1-0.1-0.3-0.1-0.3c-0.1-0.1-0.2-0.2-0.3-0.3c-0.5-0.4-1.1-0.8-1.7-1.2l-1.7-1.3l-0.4-0.3
					c-0.2-0.2-0.3-0.3-0.5-0.5c-0.2-0.3-0.4-0.7-0.6-1c-0.3-0.8-0.4-1.5-0.4-2.3c0-0.7,0-1.5,0.2-2.2c0.1-0.4,0.2-0.8,0.4-1.1
					c0.2-0.3,0.5-0.7,0.8-0.9c1.3-1,2.9-1.2,4.3-1.1c0.7,0,1.5,0.2,2.2,0.4c0.7,0.3,1.4,0.6,1.9,1.2c0.5,0.6,0.6,1.4,0.7,2.1
					C487.6,395.3,487.6,396.1,487.6,396.8L487.6,396.8z M487.5,396.7c0-0.7,0-1.4-0.1-2.1c-0.1-0.7-0.2-1.4-0.7-1.9
					c-0.5-0.5-1.1-0.8-1.8-1c-0.7-0.2-1.4-0.3-2-0.3c-0.7,0-1.4,0.1-2,0.2c-0.6,0.2-1.3,0.5-1.7,0.9c-0.2,0.2-0.4,0.4-0.6,0.7
					c-0.1,0.2-0.2,0.6-0.3,0.9c-0.1,0.7-0.1,1.4-0.1,2c0,0.7,0.1,1.4,0.4,1.9c0.1,0.3,0.3,0.6,0.5,0.8c0.1,0.1,0.2,0.2,0.3,0.3
					l0.4,0.3l1.8,1.3c0.5,0.4,1.2,0.8,1.8,1.2c0.1,0.1,0.3,0.3,0.4,0.4c0.2,0.3,0.3,0.5,0.4,0.7c0.1,0.4,0.2,0.8,0.2,1.2
					c0,0.4,0,0.8-0.1,1.2c0,0.2-0.1,0.5-0.3,0.7c-0.2,0.2-0.5,0.4-0.8,0.5c-0.3,0-0.5,0-0.8-0.1c-0.3-0.1-0.6-0.4-0.7-0.7
					c-0.1-0.5-0.1-0.8-0.1-1.2l0-2.2l0.5,0.5l-4.2-0.1l0.4-0.4l0,0c0,0.7,0,1.4,0,2.1c0,0.7,0.1,1.4,0.4,2c0.2,0.6,0.7,1,1.3,1.4
					c0.6,0.3,1.2,0.6,1.9,0.7c1.4,0.2,2.8,0.1,4-0.5c0.6-0.3,1.2-0.7,1.5-1.3c0.3-0.6,0.4-1.3,0.4-2c0-0.7,0-1.4,0-2.1
					c-0.1-0.7-0.2-1.4-0.5-2c-0.3-0.6-0.9-1-1.4-1.5c-0.6-0.4-1.2-0.8-1.8-1.2c-0.6-0.4-1.3-0.7-1.8-1.3c-0.3-0.3-0.3-0.7-0.4-1.1
					c0-0.4,0-0.7,0-1.1c0.1-0.4,0.3-0.8,0.7-0.9c0.2,0,0.4,0,0.6,0.1c0.2,0.1,0.3,0.4,0.3,0.5c0.1,0.7,0,1.5,0,2.2l-0.1-0.1
					L487.5,396.7z"/>
			</g>
		</g>
	</g>
</g>
<g id="speaker_left">
	<g>
		<g>
			<g>
				<line class="st1" x1="245" y1="381.6" x2="247" y2="381.6"/>
				<line class="st2" x1="250.9" y1="381.6" x2="320" y2="381.6"/>
				<line class="st1" x1="322" y1="381.6" x2="324" y2="381.6"/>
			</g>
		</g>
		<g>
			<g>
				<line class="st1" x1="245" y1="386.6" x2="247" y2="386.6"/>
				<line class="st2" x1="250.9" y1="386.6" x2="320" y2="386.6"/>
				<line class="st1" x1="322" y1="386.6" x2="324" y2="386.6"/>
			</g>
		</g>
		<g>
			<g>
				<line class="st1" x1="245" y1="391.6" x2="247" y2="391.6"/>
				<line class="st2" x1="250.9" y1="391.6" x2="320" y2="391.6"/>
				<line class="st1" x1="322" y1="391.6" x2="324" y2="391.6"/>
			</g>
		</g>
		<g>
			<g>
				<line class="st1" x1="245" y1="396.6" x2="247" y2="396.6"/>
				<line class="st2" x1="250.9" y1="396.6" x2="320" y2="396.6"/>
				<line class="st1" x1="322" y1="396.6" x2="324" y2="396.6"/>
			</g>
		</g>
		<g>
			<g>
				<line class="st1" x1="245" y1="402.6" x2="247" y2="402.6"/>
				<line class="st2" x1="250.9" y1="402.6" x2="320" y2="402.6"/>
				<line class="st1" x1="322" y1="402.6" x2="324" y2="402.6"/>
			</g>
		</g>
		<g>
			<g>
				<line class="st1" x1="245" y1="407.6" x2="247" y2="407.6"/>
				<line class="st2" x1="250.9" y1="407.6" x2="320" y2="407.6"/>
				<line class="st1" x1="322" y1="407.6" x2="324" y2="407.6"/>
			</g>
		</g>
		<g>
			<g>
				<line class="st1" x1="245" y1="412.6" x2="247" y2="412.6"/>
				<line class="st2" x1="250.9" y1="412.6" x2="320" y2="412.6"/>
				<line class="st1" x1="322" y1="412.6" x2="324" y2="412.6"/>
			</g>
		</g>
		<g>
			<g>
				<line class="st1" x1="245" y1="417.6" x2="247" y2="417.6"/>
				<line class="st2" x1="250.9" y1="417.6" x2="320" y2="417.6"/>
				<line class="st1" x1="322" y1="417.6" x2="324" y2="417.6"/>
			</g>
		</g>
		<g>
			<g>
				<line class="st1" x1="245" y1="422.6" x2="247" y2="422.6"/>
				<line class="st2" x1="250.9" y1="422.6" x2="320" y2="422.6"/>
				<line class="st1" x1="322" y1="422.6" x2="324" y2="422.6"/>
			</g>
		</g>
		<g>
			<g>
				<line class="st1" x1="245" y1="427.6" x2="247" y2="427.6"/>
				<line class="st2" x1="250.9" y1="427.6" x2="320" y2="427.6"/>
				<line class="st1" x1="322" y1="427.6" x2="324" y2="427.6"/>
			</g>
		</g>
		<g>
			<g>
				<line class="st1" x1="245" y1="432.6" x2="247" y2="432.6"/>
				<line class="st2" x1="250.9" y1="432.6" x2="320" y2="432.6"/>
				<line class="st1" x1="322" y1="432.6" x2="324" y2="432.6"/>
			</g>
		</g>
	</g>
	<g>
		<g>
			<g>
				<line class="st3" x1="621.6" y1="382.1" x2="623.6" y2="382.1"/>
				<line class="st4" x1="627.5" y1="382.1" x2="696.6" y2="382.1"/>
				<line class="st3" x1="698.6" y1="382.1" x2="700.6" y2="382.1"/>
			</g>
		</g>
		<g>
			<g>
				<line class="st3" x1="621.6" y1="387.1" x2="623.6" y2="387.1"/>
				<line class="st4" x1="627.5" y1="387.1" x2="696.6" y2="387.1"/>
				<line class="st3" x1="698.6" y1="387.1" x2="700.6" y2="387.1"/>
			</g>
		</g>
		<g>
			<g>
				<line class="st3" x1="621.6" y1="392.1" x2="623.6" y2="392.1"/>
				<line class="st4" x1="627.5" y1="392.1" x2="696.6" y2="392.1"/>
				<line class="st3" x1="698.6" y1="392.1" x2="700.6" y2="392.1"/>
			</g>
		</g>
		<g>
			<g>
				<line class="st3" x1="621.6" y1="397.1" x2="623.6" y2="397.1"/>
				<line class="st4" x1="627.5" y1="397.1" x2="696.6" y2="397.1"/>
				<line class="st3" x1="698.6" y1="397.1" x2="700.6" y2="397.1"/>
			</g>
		</g>
		<g>
			<g>
				<line class="st3" x1="621.6" y1="403.1" x2="623.6" y2="403.1"/>
				<line class="st4" x1="627.5" y1="403.1" x2="696.6" y2="403.1"/>
				<line class="st3" x1="698.6" y1="403.1" x2="700.6" y2="403.1"/>
			</g>
		</g>
		<g>
			<g>
				<line class="st3" x1="621.6" y1="408.1" x2="623.6" y2="408.1"/>
				<line class="st4" x1="627.5" y1="408.1" x2="696.6" y2="408.1"/>
				<line class="st3" x1="698.6" y1="408.1" x2="700.6" y2="408.1"/>
			</g>
		</g>
		<g>
			<g>
				<line class="st3" x1="621.6" y1="413.1" x2="623.6" y2="413.1"/>
				<line class="st4" x1="627.5" y1="413.1" x2="696.6" y2="413.1"/>
				<line class="st3" x1="698.6" y1="413.1" x2="700.6" y2="413.1"/>
			</g>
		</g>
		<g>
			<g>
				<line class="st3" x1="621.6" y1="418.1" x2="623.6" y2="418.1"/>
				<line class="st4" x1="627.5" y1="418.1" x2="696.6" y2="418.1"/>
				<line class="st3" x1="698.6" y1="418.1" x2="700.6" y2="418.1"/>
			</g>
		</g>
		<g>
			<g>
				<line class="st3" x1="621.6" y1="423.1" x2="623.6" y2="423.1"/>
				<line class="st4" x1="627.5" y1="423.1" x2="696.6" y2="423.1"/>
				<line class="st3" x1="698.6" y1="423.1" x2="700.6" y2="423.1"/>
			</g>
		</g>
		<g>
			<g>
				<line class="st3" x1="621.6" y1="428.1" x2="623.6" y2="428.1"/>
				<line class="st4" x1="627.5" y1="428.1" x2="696.6" y2="428.1"/>
				<line class="st3" x1="698.6" y1="428.1" x2="700.6" y2="428.1"/>
			</g>
		</g>
		<g>
			<g>
				<line class="st3" x1="621.6" y1="433.1" x2="623.6" y2="433.1"/>
				<line class="st4" x1="627.5" y1="433.1" x2="696.6" y2="433.1"/>
				<line class="st3" x1="698.6" y1="433.1" x2="700.6" y2="433.1"/>
			</g>
		</g>
	</g>
</g>
<g id="speaker_right">
</g>
<g id="play">
	<g>
		<path d="M433.3,455.1c0,0-0.4,0-1,0c-0.7,0-1.7,0-2.9,0.1c-1.2,0-2.8,0.1-4.5,0.3c-1.7,0.1-3.7,0.3-5.8,0.4
			c-1.1,0.1-2.2,0.1-3.3,0.1c-0.6,0-1.2,0-1.8,0c-0.6,0-1.3,0-2-0.2c-1.4-0.4-2.7-1.3-3.4-2.6c-0.4-0.6-0.6-1.3-0.7-2.1
			c-0.1-0.4-0.1-0.7,0-1.1l0.1-1c0.2-2.7,0.2-5.4,0.2-8.3c0-0.7,0-1.5,0.2-2.2c0.2-0.7,0.6-1.4,1-2c1-1.2,2.5-2,4.1-2
			c1.4-0.1,2.9-0.1,4.3-0.2c1.4,0,2.8-0.1,4.2-0.1c2.8-0.1,5.6-0.1,8.3-0.2c0.7,0,1.3,0,2,0l1,0l0.2,0l0.3,0c0.2,0,0.3,0,0.6,0.1
			c1.6,0.2,3,1.1,3.9,2.3c0.9,1.1,1.3,2.7,1.3,4c0,1.2-0.1,2.3-0.1,3.3c-0.1,2.1-0.3,4.1-0.4,5.8c0,0.2,0,0.4,0,0.7
			c0,0.2,0,0.4-0.1,0.6c-0.1,0.5-0.2,0.8-0.4,1.2c-0.3,0.7-0.8,1.3-1.3,1.7c-1,0.9-2,1.2-2.6,1.3c-0.3,0.1-0.6,0.1-0.8,0.1
			C433.4,455.1,433.3,455.1,433.3,455.1z M433.3,454.9c0,0,0.1,0,0.3,0c0.2,0,0.4,0,0.7-0.1c0.6-0.1,1.6-0.5,2.4-1.4
			c0.4-0.4,0.8-1,1-1.7c0.1-0.3,0.2-0.7,0.2-1.1c0-0.2,0-0.4,0-0.6c0-0.2,0-0.4,0-0.6c-0.1-1.7-0.3-3.7-0.4-5.8
			c-0.1-1.1-0.1-2.2-0.1-3.3c0-1-0.3-1.9-0.9-2.7c-0.6-0.7-1.6-1.3-2.5-1.4c-0.1,0-0.2,0-0.4,0c-0.1,0-0.2,0-0.2,0l-0.2,0l-1,0
			c-0.7,0-1.3,0-2,0c-2.7-0.1-5.4-0.1-8.3-0.2c-1.4,0-2.8-0.1-4.2-0.1c-1.4-0.1-2.9-0.1-4.3-0.2c-1.3-0.1-2.6,0.5-3.5,1.4
			c-0.4,0.5-0.8,1.1-1,1.7c-0.2,0.6-0.2,1.3-0.2,2c0,2.8,0.1,5.6,0.2,8.3l0.1,1c0,0.3,0.1,0.6,0.1,0.9c0.1,0.6,0.4,1.1,0.7,1.5
			c0.7,0.9,1.6,1.5,2.6,1.7c0.1,0,0.2,0,0.3,0.1l0.2,0l0.2,0l0.2,0c0,0,0.1,0,0.2,0l0.4,0c0.6,0,1.2,0,1.8,0c1.2,0,2.3,0,3.3,0.1
			c2.1,0.1,4.1,0.3,5.8,0.4c1.7,0.1,3.3,0.2,4.5,0.3c1.2,0.1,2.2,0.1,2.9,0.1C432.9,454.9,433.3,454.9,433.3,454.9z"/>
	</g>
	<g>
		<path d="M428.1,444.7c-0.5,0.6-1,1.1-1.6,1.5c-0.6,0.5-1.2,0.9-1.8,1.3c-0.3,0.2-0.6,0.4-0.9,0.6c-0.3,0.2-0.6,0.3-1,0.5
			c-0.7,0.3-1.4,0.5-2.1,0.8l-0.8,0.3l0.1-0.7c0.3-1.4,0.2-2.9-0.1-4.3c-0.1-0.7-0.3-1.4-0.3-2.2c-0.1-0.7-0.1-1.4-0.2-2.2l-0.1-1.7
			l1.6,0.8c1.3,0.6,2.5,1.4,3.7,2.2c1.2,0.9,2.3,1.8,3.3,2.9V444.7L428.1,444.7z M427.7,444.7c-1.3-0.3-2.6-0.8-3.8-1.4
			c-1.3-0.6-2.6-1.3-3.8-2.1l1.5-0.9c0,0.7-0.1,1.4-0.2,2.2c-0.1,0.7-0.2,1.4-0.3,2.2c-0.2,1.4-0.4,2.9-0.1,4.3l-0.7-0.4
			c0.6-0.5,1.1-1,1.7-1.4c0.3-0.2,0.6-0.4,0.9-0.6c0.3-0.2,0.6-0.3,1-0.5c0.6-0.3,1.3-0.6,2-0.9C426.4,445,427,444.8,427.7,444.7z"
			/>
	</g>
</g>
<g id="pause">
	<g>
		<path d="M481.3,455.1c0,0-0.4,0-1,0c-0.7,0-1.7,0-2.9,0.1c-1.2,0-2.8,0.1-4.5,0.3c-1.7,0.1-3.7,0.3-5.8,0.4
			c-1.1,0.1-2.2,0.1-3.3,0.1c-0.6,0-1.2,0-1.8,0c-0.6,0-1.3,0-2-0.2c-1.4-0.4-2.7-1.3-3.4-2.6c-0.4-0.6-0.6-1.3-0.7-2.1
			c-0.1-0.4-0.1-0.7,0-1.1l0.1-1c0.2-2.7,0.2-5.4,0.2-8.3c0-0.7,0-1.5,0.2-2.2c0.2-0.7,0.6-1.4,1-2c1-1.2,2.5-2,4.1-2
			c1.4-0.1,2.9-0.1,4.3-0.2c1.4,0,2.8-0.1,4.2-0.1c2.8-0.1,5.6-0.1,8.3-0.2c0.7,0,1.3,0,2,0l1,0l0.2,0l0.3,0c0.2,0,0.3,0,0.6,0.1
			c1.6,0.2,3,1.1,3.9,2.3c0.9,1.1,1.3,2.7,1.3,4c0,1.2-0.1,2.3-0.1,3.3c-0.1,2.1-0.3,4.1-0.4,5.8c0,0.2,0,0.4,0,0.7
			c0,0.2,0,0.4-0.1,0.6c-0.1,0.5-0.2,0.8-0.4,1.2c-0.3,0.7-0.8,1.3-1.3,1.7c-1,0.9-2,1.2-2.6,1.3c-0.3,0.1-0.6,0.1-0.8,0.1
			C481.4,455.1,481.3,455.1,481.3,455.1z M481.3,454.9c0,0,0.1,0,0.3,0c0.2,0,0.4,0,0.7-0.1c0.6-0.1,1.6-0.5,2.4-1.4
			c0.4-0.4,0.8-1,1-1.7c0.1-0.3,0.2-0.7,0.2-1.1c0-0.2,0-0.4,0-0.6c0-0.2,0-0.4,0-0.6c-0.1-1.7-0.3-3.7-0.4-5.8
			c-0.1-1.1-0.1-2.2-0.1-3.3c0-1-0.3-1.9-0.9-2.7c-0.6-0.7-1.6-1.3-2.5-1.4c-0.1,0-0.2,0-0.4,0c-0.1,0-0.2,0-0.2,0l-0.2,0l-1,0
			c-0.7,0-1.3,0-2,0c-2.7-0.1-5.4-0.1-8.3-0.2c-1.4,0-2.8-0.1-4.2-0.1c-1.4-0.1-2.9-0.1-4.3-0.2c-1.3-0.1-2.6,0.5-3.5,1.4
			c-0.4,0.5-0.8,1.1-1,1.7c-0.2,0.6-0.2,1.3-0.2,2c0,2.8,0.1,5.6,0.2,8.3l0.1,1c0,0.3,0.1,0.6,0.1,0.9c0.1,0.6,0.4,1.1,0.7,1.5
			c0.7,0.9,1.6,1.5,2.6,1.7c0.1,0,0.2,0,0.3,0.1l0.2,0l0.2,0l0.2,0c0,0,0.1,0,0.2,0l0.4,0c0.6,0,1.2,0,1.8,0c1.2,0,2.3,0,3.3,0.1
			c2.1,0.1,4.1,0.3,5.8,0.4c1.7,0.1,3.3,0.2,4.5,0.3c1.2,0.1,2.2,0.1,2.9,0.1C480.9,454.9,481.3,454.9,481.3,454.9z"/>
	</g>
	<g>
		<path d="M470.2,449.8c-1,0.4-2,0.5-3,0.7l-0.7,0.1l-0.1-0.8c0-0.4-0.1-0.8-0.1-1.2c0-0.4-0.1-0.8,0-1.2c0-0.8,0.2-1.7,0.3-2.5
			c0.2-0.8,0.3-1.7,0.3-2.5c0-0.8-0.1-1.7-0.2-2.5l-0.1-0.4l0.6-0.1c1-0.2,2-0.3,3-0.4l0.9,0l0.1,1c0.1,1.7,0.2,3.3,0.1,5
			c-0.2,1.7-0.4,3.3-0.9,5L470.2,449.8L470.2,449.8z M470,449.5c-0.5-1.6-0.7-3.2-0.8-4.9c-0.2-1.7-0.1-3.3,0.1-5l0.9,0.9
			c-1-0.1-2-0.2-3-0.4l0.5-0.5c-0.1,0.8-0.2,1.7-0.2,2.5c0,0.8,0.1,1.7,0.3,2.5c0.2,0.8,0.3,1.7,0.3,2.5c0,0.4,0,0.8,0,1.2
			c0,0.4-0.1,0.8-0.1,1.2l-0.8-0.8C468.1,449,469.1,449.2,470,449.5z"/>
	</g>
	<g>
		<path d="M473.2,439.6c1-0.4,2-0.5,3-0.7l0.7-0.1l0.1,0.8c0,0.4,0.1,0.8,0.1,1.2c0,0.4,0.1,0.8,0,1.2c0,0.8-0.2,1.7-0.3,2.5
			c-0.2,0.8-0.3,1.7-0.3,2.5c0,0.8,0.1,1.7,0.2,2.5l0.1,0.4l-0.6,0.1c-1,0.2-2,0.3-3,0.4l-0.9,0l-0.1-1c-0.1-1.7-0.2-3.3-0.1-5
			c0.2-1.7,0.4-3.3,0.9-5L473.2,439.6L473.2,439.6z M473.3,439.8c0.5,1.6,0.7,3.2,0.8,4.9c0.2,1.7,0.1,3.3-0.1,5l-0.9-0.9
			c1,0.1,2,0.2,3,0.4l-0.5,0.5c0.1-0.8,0.2-1.7,0.2-2.5c0-0.8-0.1-1.7-0.3-2.5c-0.2-0.8-0.3-1.7-0.3-2.5c0-0.4,0-0.8,0-1.2
			c0-0.4,0.1-0.8,0.1-1.2l0.8,0.8C475.2,440.3,474.3,440.1,473.3,439.8z"/>
	</g>
</g>
<g id="full-screen">
	<g>
		<path class="st5" d="M512.5,452.8"/>
	</g>
	<g>
		<path class="st5" d="M532.5,452.5"/>
	</g>
	<g>
		<path d="M532.3,455.1c0,0-0.4,0-1,0c-0.7,0-1.7,0-2.9,0.1c-1.2,0-2.8,0.1-4.5,0.3c-1.7,0.1-3.7,0.3-5.8,0.4
			c-1.1,0.1-2.2,0.1-3.3,0.1c-0.6,0-1.2,0-1.8,0c-0.6,0-1.3,0-2-0.2c-1.4-0.4-2.7-1.3-3.4-2.6c-0.4-0.6-0.6-1.3-0.7-2.1
			c-0.1-0.4-0.1-0.7,0-1.1l0.1-1c0.2-2.7,0.2-5.4,0.2-8.3c0-0.7,0-1.5,0.2-2.2c0.2-0.7,0.6-1.4,1-2c1-1.2,2.5-2,4.1-2
			c1.4-0.1,2.9-0.1,4.3-0.2c1.4,0,2.8-0.1,4.2-0.1c2.8-0.1,5.6-0.1,8.3-0.2c0.7,0,1.3,0,2,0l1,0l0.2,0l0.3,0c0.2,0,0.3,0,0.6,0.1
			c1.6,0.2,3,1.1,3.9,2.3c0.9,1.1,1.3,2.7,1.3,4c0,1.2-0.1,2.3-0.1,3.3c-0.1,2.1-0.3,4.1-0.4,5.8c0,0.2,0,0.4,0,0.7
			c0,0.2,0,0.4-0.1,0.6c-0.1,0.5-0.2,0.8-0.4,1.2c-0.3,0.7-0.8,1.3-1.3,1.7c-1,0.9-2,1.2-2.6,1.3c-0.3,0.1-0.6,0.1-0.8,0.1
			C532.4,455.1,532.3,455.1,532.3,455.1z M532.3,454.9c0,0,0.1,0,0.3,0c0.2,0,0.4,0,0.7-0.1c0.6-0.1,1.6-0.5,2.4-1.4
			c0.4-0.4,0.8-1,1-1.7c0.1-0.3,0.2-0.7,0.2-1.1c0-0.2,0-0.4,0-0.6c0-0.2,0-0.4,0-0.6c-0.1-1.7-0.3-3.7-0.4-5.8
			c-0.1-1.1-0.1-2.2-0.1-3.3c0-1-0.3-1.9-0.9-2.7c-0.6-0.7-1.6-1.3-2.5-1.4c-0.1,0-0.2,0-0.4,0c-0.1,0-0.2,0-0.2,0l-0.2,0l-1,0
			c-0.7,0-1.3,0-2,0c-2.7-0.1-5.4-0.1-8.3-0.2c-1.4,0-2.8-0.1-4.2-0.1c-1.4-0.1-2.9-0.1-4.3-0.2c-1.3-0.1-2.6,0.5-3.5,1.4
			c-0.4,0.5-0.8,1.1-1,1.7c-0.2,0.6-0.2,1.3-0.2,2c0,2.8,0.1,5.6,0.2,8.3l0.1,1c0,0.3,0.1,0.6,0.1,0.9c0.1,0.6,0.4,1.1,0.7,1.5
			c0.7,0.9,1.6,1.5,2.6,1.7c0.1,0,0.2,0,0.3,0.1l0.2,0l0.2,0l0.2,0c0,0,0.1,0,0.2,0l0.4,0c0.6,0,1.2,0,1.8,0c1.2,0,2.3,0,3.3,0.1
			c2.1,0.1,4.1,0.3,5.8,0.4c1.7,0.1,3.3,0.2,4.5,0.3c1.2,0.1,2.2,0.1,2.9,0.1C531.9,454.9,532.3,454.9,532.3,454.9z"/>
	</g>
	<g>
		<path d="M519,439.6c-0.4,0.4-0.8,0.5-1.1,0.7c-0.4,0.1-0.7,0.2-1.1,0.1c-0.4-0.1-0.8-0.5-1.1-0.5c-0.4-0.1-0.7,0-1.1,0.2l0.5-0.5
			c0.2,0.4,0.3,0.8,0.4,1.1c0.1,0.4,0.2,0.8,0.1,1.1c0,0.4-0.1,0.7-0.3,1.1c-0.1,0.4-0.4,0.7-0.7,1.1h-0.2c-0.3-0.4-0.5-0.7-0.7-1.1
			c-0.2-0.4-0.2-0.8-0.3-1.1c0-0.4,0-0.8,0.1-1.1c0.1-0.4,0.2-0.7,0.4-1.1l0.3-0.7l0.2,0.1c0.4,0.2,0.7,0.3,1.1,0.2
			c0.4-0.1,0.8-0.4,1.1-0.5c0.4-0.1,0.8,0,1.1,0.1c0.4,0.1,0.8,0.3,1.1,0.7V439.6z"/>
	</g>
	<g>
		<path d="M514.6,446c0.4,0.4,0.5,0.7,0.7,1.1c0.1,0.4,0.2,0.8,0.1,1.1c-0.1,0.4-0.5,0.8-0.5,1.1c-0.1,0.4,0,0.7,0.2,1.1l-0.5-0.5
			c0.4-0.2,0.7-0.3,1.1-0.4c0.4-0.1,0.8-0.2,1.1-0.1c0.4,0,0.8,0.1,1.1,0.3c0.4,0.1,0.8,0.4,1.1,0.7v0.2c-0.4,0.3-0.8,0.5-1.1,0.7
			c-0.4,0.2-0.7,0.2-1.1,0.3c-0.4,0-0.8,0-1.1-0.1c-0.4-0.1-0.7-0.2-1.1-0.4l-0.7-0.3l0.1-0.2c0.2-0.4,0.3-0.8,0.2-1.1
			c-0.1-0.4-0.4-0.8-0.5-1.1c-0.1-0.4,0-0.7,0.1-1.1c0.1-0.4,0.3-0.7,0.7-1.1H514.6z"/>
	</g>
	<g>
		<path d="M525,439.4c0.4-0.4,0.8-0.5,1.1-0.7c0.4-0.1,0.7-0.2,1.1-0.1c0.4,0.1,0.8,0.5,1.1,0.5c0.4,0.1,0.7,0,1.1-0.2l0.2-0.1
			l0.3,0.7c0.2,0.4,0.3,0.8,0.4,1.1c0.1,0.4,0.2,0.8,0.1,1.1c0,0.4-0.1,0.7-0.3,1.1c-0.1,0.4-0.4,0.7-0.7,1.1h-0.2
			c-0.3-0.4-0.5-0.7-0.7-1.1c-0.2-0.4-0.2-0.8-0.3-1.1c0-0.4,0-0.8,0.1-1.1c0.1-0.4,0.2-0.7,0.4-1.1l0.5,0.5
			c-0.4-0.2-0.7-0.3-1.1-0.2c-0.4,0.1-0.8,0.4-1.1,0.5c-0.4,0.1-0.8,0-1.1-0.1c-0.4-0.1-0.8-0.3-1.1-0.7V439.4z"/>
	</g>
	<g>
		<path d="M529.6,446c0.4,0.4,0.5,0.7,0.7,1.1c0.1,0.4,0.2,0.8,0.1,1.1c-0.1,0.4-0.5,0.8-0.5,1.1c-0.1,0.4,0,0.7,0.2,1.1l0.1,0.2
			l-0.7,0.3c-0.4,0.2-0.7,0.3-1.1,0.4c-0.4,0.1-0.8,0.2-1.1,0.1c-0.4,0-0.8-0.1-1.1-0.3c-0.4-0.1-0.8-0.4-1.1-0.7v-0.2
			c0.4-0.3,0.8-0.5,1.1-0.7c0.4-0.2,0.7-0.2,1.1-0.3c0.4,0,0.8,0,1.1,0.1c0.4,0.1,0.7,0.2,1.1,0.4l-0.5,0.5c0.2-0.4,0.3-0.8,0.2-1.1
			c-0.1-0.4-0.4-0.8-0.5-1.1c-0.1-0.4,0-0.7,0.1-1.1c0.1-0.4,0.3-0.7,0.7-1.1H529.6z"/>
	</g>
</g>
<g id="shading-top-left">
</g>
<g id="shading-side">
</g>
<g id="screen">
	<g>
		<path d="M284.6,343.2c0,0,0,0.3,0.1,0.9c0.1,0.6,0.2,1.5,0.7,2.7c0.5,1.1,1.3,2.4,2.8,3.5c1.4,1.1,3.5,1.9,5.9,1.8
			c9.6,0,23.6,0,41.4-0.1c35.7-0.1,86.7-0.3,147.8-0.6c15.3,0,31.2-0.1,47.7-0.1c16.5,0,33.5,0,51.1,0c17.5,0,35.5,0.1,53.9,0.1
			c4.6,0,9.2,0,13.9,0l1.7,0l0.4,0c0.1,0,0.3,0,0.4,0c0.3,0,0.6,0,0.8-0.1c1-0.1,2.1-0.5,3-1c1.9-1.1,3.3-2.9,3.9-5
			c0.3-1.1,0.3-2.1,0.3-3.3l0-3.5c0-2.4,0-4.7,0-7.1c0-4.7,0-9.5,0.1-14.3c0.2-38.2,0.2-77.7,0.2-117.9
			c-0.1-40.1-0.2-80.9-0.2-121.7c0-2.5-1.1-4.8-2.9-6.4c-0.9-0.8-2-1.4-3.1-1.7c-1.2-0.4-2.3-0.4-3.6-0.4c-5.1,0-10.2,0-15.3,0
			c-10.2,0-20.4,0.1-30.5,0.1c-20.3,0.1-40.5,0.1-60.6,0.2c-40.1,0.1-79.6,0.1-117.9,0.2c-38.2,0-75.2,0-110.2,0
			c-4.4,0-8.7,0-13.1,0c-2.2,0-4.3,0-6.5,0c-1.1,0-2.1,0-3.2,0c-1,0-1.9,0.1-2.8,0.4c-1.8,0.6-3.3,1.9-4.3,3.5
			c-0.5,0.8-0.8,1.7-1,2.6c-0.1,0.5-0.1,0.9-0.1,1.4l0,1.6c0,4.2,0,8.3,0,12.5c0,16.5-0.1,32.4-0.1,47.7
			c-0.3,61.2-0.5,112.1-0.6,147.8C284.6,322.8,284.6,343.2,284.6,343.2L284.6,343.2z M284.4,343.2c0,0,0-20.4-0.1-56.1
			c-0.2-35.7-0.4-86.7-0.6-147.8c0-15.3-0.1-31.2-0.1-47.7c0-4.1,0-8.3,0-12.5l0-1.6c0-0.6,0.1-1.2,0.2-1.7c0.2-1.2,0.6-2.3,1.2-3.3
			c1.2-2,3.1-3.6,5.3-4.4c1.1-0.4,2.4-0.6,3.5-0.6c1.1,0,2.1,0,3.2,0c2.1,0,4.3,0,6.5,0c4.3,0,8.7,0,13.1,0c35,0,72,0,110.2,0
			c38.2,0.1,77.7,0.1,117.9,0.2c20.1,0.1,40.3,0.1,60.6,0.2c10.2,0,20.3,0.1,30.5,0.1c5.1,0,10.2,0,15.3,0c1.2,0,2.7,0,4,0.4
			c1.3,0.4,2.5,1.1,3.5,2c2,1.8,3.3,4.5,3.2,7.2c-0.1,40.8-0.2,81.6-0.2,121.7c0,40.1,0.1,79.6,0.2,117.9c0,4.8,0,9.5,0.1,14.3
			c0,2.4,0,4.7,0,7.1l0,3.5c0,1.1,0,2.5-0.3,3.7c-0.6,2.4-2.3,4.6-4.5,5.8c-1.1,0.6-2.3,1-3.6,1.2c-0.3,0.1-0.6,0.1-0.9,0.1
			c-0.2,0-0.3,0-0.5,0l-0.4,0l-1.7,0c-4.6,0-9.3,0-13.9,0c-18.4,0-36.4,0.1-53.9,0.1c-17.5,0-34.6,0-51.1,0
			c-16.5,0-32.4-0.1-47.7-0.1c-61.2-0.2-112.1-0.5-147.8-0.6c-17.8,0-31.9-0.1-41.4-0.1c-2.4,0.1-4.5-0.7-6-1.8
			c-1.5-1.1-2.3-2.5-2.9-3.6c-0.5-1.1-0.6-2.1-0.7-2.7C284.4,343.5,284.4,343.2,284.4,343.2L284.4,343.2z"/>
	</g>
	<g>
		<g>
			<g>
				<text transform="matrix(1 0 0 1 338.22 319.2381)"><tspan x="0" y="0" class="st6 st7">0.</tspan><tspan x="9.7" y="0" class="st6 st7">0</tspan></text>
				<text transform="matrix(1 0 0 1 390.4319 319.2381)"><tspan x="0" y="0" class="st6 st7">0</tspan><tspan x="7.1" y="0" class="st6 st7">.</tspan><tspan x="10.3" y="0" class="st6 st7">2</tspan></text>
				<text transform="matrix(1 0 0 1 442.8523 319.2381)"><tspan x="0" y="0" class="st6 st7">0</tspan><tspan x="7.1" y="0" class="st6 st7">.</tspan><tspan x="9.5" y="0" class="st6 st7">4</tspan></text>
				<text transform="matrix(1 0 0 1 494.8138 319.2381)"><tspan x="0" y="0" class="st6 st7">0</tspan><tspan x="7.1" y="0" class="st6 st7">.</tspan><tspan x="9.9" y="0" class="st6 st7">6</tspan></text>
				<text transform="matrix(1 0 0 1 547.1057 319.2381)"><tspan x="0" y="0" class="st6 st7">0</tspan><tspan x="7.1" y="0" class="st6 st7">.</tspan><tspan x="9.9" y="0" class="st6 st7">8</tspan></text>
				<text transform="matrix(1 0 0 1 600.3938 319.2381)"><tspan x="0" y="0" class="st6 st7">1</tspan><tspan x="4.8" y="0" class="st6 st7">.</tspan><tspan x="7.4" y="0" class="st6 st7">0</tspan></text>
			</g>
			<line class="st8" x1="346.9" y1="306.9" x2="607.9" y2="306.9"/>
			<g>
				<g>
					<line class="st8" x1="346.9" y1="306.9" x2="346.9" y2="301.9"/>
					<line class="st8" x1="399.1" y1="306.9" x2="399.1" y2="301.9"/>
					<line class="st8" x1="451.3" y1="306.9" x2="451.3" y2="301.9"/>
					<line class="st8" x1="503.5" y1="306.9" x2="503.5" y2="301.9"/>
					<line class="st8" x1="555.7" y1="306.9" x2="555.7" y2="301.9"/>
					<line class="st8" x1="607.9" y1="306.9" x2="607.9" y2="301.9"/>
				</g>
				<g>
				</g>
			</g>
		</g>
		<g>
			<g>
				<text transform="matrix(1 0 0 1 325.4798 311.5096)"><tspan x="0" y="0" class="st6 st7">0.</tspan><tspan x="9.7" y="0" class="st6 st7">0</tspan></text>
				<text transform="matrix(1 0 0 1 325.5042 271.3094)"><tspan x="0" y="0" class="st6 st7">0</tspan><tspan x="7.1" y="0" class="st6 st7">.</tspan><tspan x="10.3" y="0" class="st6 st7">2</tspan></text>
				<text transform="matrix(1 0 0 1 325.9446 231.1097)"><tspan x="0" y="0" class="st6 st7">0</tspan><tspan x="7.1" y="0" class="st6 st7">.</tspan><tspan x="9.5" y="0" class="st6 st7">4</tspan></text>
				<text transform="matrix(1 0 0 1 325.4676 190.9095)"><tspan x="0" y="0" class="st6 st7">0</tspan><tspan x="7.1" y="0" class="st6 st7">.</tspan><tspan x="9.9" y="0" class="st6 st7">6</tspan></text>
				<text transform="matrix(1 0 0 1 325.6512 150.7093)"><tspan x="0" y="0" class="st6 st7">0</tspan><tspan x="7.1" y="0" class="st6 st7">.</tspan><tspan x="9.9" y="0" class="st6 st7">8</tspan></text>
				<text transform="matrix(1 0 0 1 327.8289 110.5096)"><tspan x="0" y="0" class="st6 st7">1</tspan><tspan x="4.8" y="0" class="st6 st7">.</tspan><tspan x="7.4" y="0" class="st6 st7">0</tspan></text>
			</g>
			<line class="st8" x1="346.9" y1="306.9" x2="346.9" y2="105.9"/>
			<g>
				<g>
					<line class="st8" x1="346.9" y1="306.9" x2="353.4" y2="306.9"/>
					<line class="st8" x1="346.9" y1="266.7" x2="353.4" y2="266.7"/>
					<line class="st8" x1="346.9" y1="226.5" x2="353.4" y2="226.5"/>
					<line class="st8" x1="346.9" y1="186.3" x2="353.4" y2="186.3"/>
					<line class="st8" x1="346.9" y1="146.1" x2="353.4" y2="146.1"/>
					<line class="st8" x1="346.9" y1="105.9" x2="353.4" y2="105.9"/>
				</g>
				<g>
				</g>
			</g>
		</g>
		<g>
			<g>
			</g>
		</g>
		<g>
			<g>
			</g>
		</g>
	</g>
	<circle cx="378.2" cy="136.8" r="4.5"/>
	<circle cx="390.2" cy="127.8" r="4.5"/>
	<circle cx="408.3" cy="150.7" r="4.5"/>
	<circle cx="428" cy="118.8" r="4.5"/>
	<circle cx="408.3" cy="132.3" r="4.5"/>
	<circle cx="428" cy="132.3" r="4.5"/>
	<circle cx="362" cy="233.2" r="4.5"/>
	<circle cx="582.8" cy="268.8" r="4.5"/>
	<circle cx="477.6" cy="150.7" r="4.5"/>
	<circle cx="461.8" cy="127.8" r="4.5"/>
	<circle cx="445.5" cy="173.5" r="4.5"/>
	<circle cx="516.8" cy="192.4" r="4.5"/>
	<g>
	</g>
	<g>
	</g>
	<g>
	</g>
	<g>
	</g>
	<g>
	</g>
	<g>
	</g>
	<g>
	</g>
	<g>
	</g>
	<g>
	</g>
	<g>
	</g>
	<g>
	</g>
	<g>
	</g>
	<g>
	</g>
	<g>
	</g>
	<g>
	</g>
</g>
</svg>
