<?xml version="1.0" encoding="utf-8"?>
<!-- Generator: Adobe Illustrator 20.1.0, SVG Export Plug-In . SVG Version: 6.00 Build 0)  -->
<svg version="1.1" xmlns="http://www.w3.org/2000/svg" xmlns:xlink="http://www.w3.org/1999/xlink" x="0px" y="0px"
	 viewBox="0 0 960 560" style="enable-background:new 0 0 960 560;" xml:space="preserve">
<style type="text/css">
	.st0{fill:none;}
	.st1{fill:#FFFFFF;}
	.st2{fill:none;stroke:#000000;stroke-width:2;stroke-miterlimit:10;}
	.st3{fill:none;stroke:#000000;stroke-width:0.75;stroke-miterlimit:10;}
	.st4{fill:none;stroke:#000000;stroke-width:0.75;stroke-miterlimit:10;stroke-dasharray:5.0293,5.0293;}
</style>
<g id="Layer_1">
	<g>
		<rect x="287.2" y="13.6" class="st0" width="193.3" height="110.2"/>
		<path d="M321.4,13.6V54h4.4v10.5h-4.4v10.9H306V64.5h-18.3V54L301,13.6H321.4z M306,54V27.7L299.2,54H306z"/>
		<path d="M362.6,13.6v9.9h-19.1V34c2.4-2.8,5.5-4.2,9.2-4.2c4.2,0,7.5,1.2,9.6,3.6c2.2,2.4,3.3,6.9,3.3,13.7v8.8
			c0,4.4-0.2,7.6-0.6,9.6c-0.4,2-1.3,3.9-2.7,5.7c-1.4,1.7-3.3,3.1-5.7,4c-2.5,0.9-5.4,1.4-9,1.4c-4,0-7.5-0.7-10.5-2.1
			c-3-1.4-5.2-3.5-6.4-6.2c-1.3-2.7-1.9-7-1.9-12.7v-3.4h15.4V56c0,4,0.1,6.8,0.4,8.5c0.3,1.7,1.2,2.5,2.9,2.5
			c0.8,0,1.4-0.2,1.8-0.7c0.5-0.5,0.7-1,0.8-1.6c0-0.6,0.1-3,0.1-7.3V45.2c0-2.3-0.2-3.9-0.7-4.7c-0.5-0.8-1.3-1.3-2.4-1.3
			c-0.7,0-1.3,0.2-1.8,0.6c-0.5,0.4-0.8,0.9-0.9,1.4c-0.1,0.5-0.2,1.6-0.2,3.5h-15.3l0.6-31.1H362.6z"/>
		<path d="M407.9,30h-15.4c0-2.9,0-4.7-0.1-5.4c-0.1-0.7-0.4-1.4-0.9-1.9c-0.5-0.5-1.3-0.8-2.2-0.8c-0.8,0-1.4,0.2-1.9,0.7
			c-0.5,0.5-0.8,1.1-0.9,1.9c-0.1,0.8-0.1,2.3-0.1,4.6V39c0.8-1.7,1.9-2.9,3.5-3.7c1.5-0.8,3.4-1.2,5.6-1.2c2.8,0,5.3,0.8,7.5,2.3
			c2.2,1.5,3.5,3.4,4.1,5.5c0.6,2.1,0.9,5,0.9,8.7v4.9c0,4.3-0.2,7.5-0.5,9.6c-0.3,2.1-1.2,4.1-2.7,5.9c-1.4,1.8-3.4,3.2-5.9,4.2
			c-2.5,1-5.4,1.5-8.8,1.5c-4.1,0-7.5-0.6-10.2-1.7c-2.6-1.1-4.7-2.8-6.1-4.9c-1.4-2.1-2.3-4.4-2.5-6.8c-0.2-2.4-0.4-7-0.4-13.8
			v-8.5c0-7.3,0.1-12.3,0.3-14.7c0.2-2.5,1.1-4.8,2.7-7c1.6-2.2,3.7-3.9,6.3-5c2.7-1.1,5.8-1.7,9.3-1.7c4.3,0,7.9,0.7,10.6,2.1
			c2.8,1.4,4.8,3.4,5.9,5.9C407.3,22.9,407.9,26.1,407.9,30z M392.5,49.3c0-2.2-0.2-3.7-0.7-4.5c-0.5-0.8-1.3-1.2-2.4-1.2
			c-1.1,0-1.8,0.4-2.3,1.2c-0.5,0.8-0.7,2.3-0.7,4.6v11.2c0,2.7,0.2,4.5,0.7,5.3c0.5,0.8,1.3,1.3,2.3,1.3c0.7,0,1.3-0.3,2.1-1
			c0.7-0.6,1.1-2.4,1.1-5.2V49.3z"/>
	</g>
	<g id="mic">
		<g>
			<path d="M408.2,146.1c-0.4,1.3,0.3,2.4,0.8,3.5c-2.1,2.3-4.3,4.2-7.7,4.1c-2.4,0-4.6-0.4-6.7-1.7c-3-1.9-5.5-4.3-8.2-6.6
				c-3-2.5-5.8-5.3-8.8-7.8c-2.8-2.3-5.8-4.2-9.6-4.6c-4.3-0.5-8.2,2.1-9.5,6c-1.4,4.5-1.4,9,0.7,13.3c1.4-0.8,2.5-1.7,3.8-2.2
				c1.2-0.5,2.6-0.7,3.9-0.9c0.4-0.1,0.9,0.1,1.3,0.1c3.7,0.3,6.6,1.9,8.8,4.9c1.2,1.7,2.9,3.2,2.4,5.6c1.3,2.3,0.3,4.4-0.7,6.5
				c-1,2.3-3.3,3.5-5.7,3.1c-3.4-0.5-6.2-2.3-8.4-4.8c-1.7-1.9-3.5-3.8-4.4-6.3c-0.3-0.9-1.2-1.5-1.8-2.3c-3.8,3-5.1,7.5-6.6,11.7
				c-1,2.8-1.1,5.9-0.6,8.8c0.2,1.4-0.1,2.6,0.1,3.9c-0.2,0.1-0.4,0.2-0.7,0.3c-0.3-0.1-0.6-0.2-0.9-0.4c-0.2-0.4-0.4-0.9-0.6-1.3
				c1.3-0.8-0.8-1.9,0.3-2.8c-0.8-4.3,0.2-8.4,1.7-12.5c1.4-3.8,3.6-7,6.3-10.3c-1.5-3.4-2-7.2-1.7-11.1c0.4-5.5,3.1-9.3,8.1-11.3
				c2-0.8,4.3-0.8,6.5-0.1c4.5,1.4,8,4.5,11.5,7.4c3.4,2.9,6.4,6.2,10,8.9c1.3,1,2.5,2.2,4,2.9c3.8,1.8,7.1,2,11.2-1.6
				c0.7-0.6,0.4-1,0.2-1.4C406.7,146.5,407.6,146.4,408.2,146.1z M363.9,152.1c-0.9,0.4-1.6,0.6-2.2,1c-1.1,0.7-1.4,1.9-0.8,3.1
				c0.8,1.7,4.2,6.6,6.7,8.5c1.2,0.9,2.4,2.1,3.9,2.5c3.3,1,5.4,0.1,6-2.6c0.4-1.9,0.8-3.7,0.1-5.6c-0.9-2.5-2.3-4.8-4.5-6.1
				C370.2,151.3,366.9,150.3,363.9,152.1z"/>
			<path d="M475.4,67.8c-1.4,0.8-3.1,1-4.2,2.5c-0.6,0.8-1-0.4-1.3-0.9c1.7-0.7,3.5-1.5,5.2-2.2C475.2,67.3,475.3,67.6,475.4,67.8z"
				/>
			<path d="M497.8,80.5c-0.3-0.1-0.8-0.1-0.8-0.2c-0.7-1.4-1.3-2.8-1.8-4.2c-0.1-0.2,0.3-0.5,0.4-0.8
				C496.3,77,497.1,78.7,497.8,80.5z"/>
			<path d="M417.7,145.1c0.1,0,0.2-0.2,0.3-0.1c2.6,1.2,2.6,1.2,5.1,0.1c-0.4,1.8-2.3,1.4-3.4,2.1
				C419.1,146.5,418.4,145.8,417.7,145.1z"/>
			<path d="M468.7,73.9c0.8,1.8,1.6,3.7,2.5,5.7C469.4,77.9,468.5,75.5,468.7,73.9z"/>
			<path d="M496.6,91.8c-0.2,1.9-1.1,3.4-2.8,4.3C494.2,94.6,495.6,92.5,496.6,91.8z"/>
			<path d="M408.9,139.4c1.1,1.4,1.4,3,2.1,4.4c0,0.1-0.3,0.5-0.5,0.5c-0.2,0.1-0.5-0.1-0.7-0.2
				C410.5,142.5,408.5,141.3,408.9,139.4z"/>
			<path d="M456.3,91.9c0.5-0.5,0.8-0.9,1.2-1.3c0.3-0.3,0.6-0.5,1-0.7c0,0.4-0.1,0.7,0,1.1c0.1,0.4,0.4,0.8,0.5,1.3
				c0,0-0.5,0.3-0.6,0.2c-0.3-0.2-0.6-0.6-0.9-0.7C457.1,91.7,456.8,91.8,456.3,91.9z"/>
			<path d="M460.6,87.3c0.5,1,0.9,2.1,1.4,3.2c-1.3,0.3-0.6-2.1-2.3-1.4c-0.6,0.3-0.5-0.3-0.1-0.7C460,88.1,460.3,87.6,460.6,87.3z"
				/>
			<path d="M477.5,103.1c-0.9,0.4-1.9,0.8-2.8,1.2c-1.1,0.5-1.2,0.4-1-1.1c1,0.2,1.9,0,2.8-0.4C476.7,102.7,477.2,103,477.5,103.1z"
				/>
			<path d="M469.7,86.3c-0.6-1.4-1.2-2.9-1.9-4.4c0.3,0,0.6,0,0.6,0c0.6,1.4,1.2,2.7,1.8,4.1C470,86.2,469.8,86.3,469.7,86.3z"/>
			<path d="M463.8,76.6c-0.2-1.1,0.3-1.8,1.4-2.1c0.3,0.6,0.6,1.2,0.8,1.8c0.1,0.3-0.2,0.7-0.3,1C465.4,76.2,464.8,76,463.8,76.6z"
				/>
			<path d="M466,72.9c1.1-0.9,2.2-1.7,3.3-2.6C468.2,72.4,468.2,72.4,466,72.9z"/>
			<path d="M492.1,71.4c0.9,1.1,1.7,2.2,2.6,3.3C492.6,73.5,492.6,73.5,492.1,71.4z"/>
			<path d="M410.9,138c-0.4-1,0.6-0.9,1-1.2c0.4,1,0.9,2.1,1.3,3.1c-0.1,0.1-0.2,0.2-0.4,0.2c-0.3-0.4-0.6-0.8-0.8-1.3
				C411.7,138.4,411.7,137.7,410.9,138z"/>
			<path d="M462.7,79.4c0.5,1.8,0.3,2.8-0.8,3.4C462.2,81.7,461.5,80.4,462.7,79.4z"/>
			<path d="M497.4,88.4c0.7,1.4,0,2.4-0.8,3.4C495.8,90.4,496.6,89.4,497.4,88.4z"/>
			<path d="M487.2,100.5c0.8-0.3,1.1,0.3,1,0.8c0,0.3-0.6,0.6-1,0.7c-0.5,0.2-1.1,1-1.7,0C486.1,101.4,487.4,101.9,487.2,100.5z"/>
			<path d="M485.5,102c-0.8,0.4-1.6,0.8-2.5,1c-0.3,0.1-0.7-0.2-1-0.3c0.8-0.4,1.6-0.8,2.5-1C484.8,101.6,485.2,101.9,485.5,102z"/>
			<path d="M463.4,95.2c-0.4-1-0.9-2-1.6-3.7C463.4,92.7,463.3,94,463.4,95.2z"/>
			<path d="M473.4,84.1c-0.5-1.1-0.9-2.1-1.6-3.8C473.2,81.6,473.2,82.9,473.4,84.1z"/>
			<path d="M475.3,92.5c1.1,0.3,2,0.9,2.4,2C476.1,94.8,475.7,93.6,475.3,92.5z"/>
			<path d="M419.1,148.4c-0.7,0.3-1.4,0.6-2.1,0.9c-0.2,0.1-0.4-0.1-0.6-0.1c0.2-0.2,0.3-0.5,0.5-0.6c0.6-0.3,1.2-0.5,1.8-0.8
				C418.8,148,419,148.2,419.1,148.4z"/>
			<path d="M429.5,140c-0.2,0.3-0.2,0.8-0.5,1c-0.6,0.4-1.2,0.6-1.8,0.8c0.2-0.3,0.2-0.8,0.5-1C428.2,140.5,428.8,140.3,429.5,140z"
				/>
			<path d="M474.3,83.7c0.4,0.8,0.7,1.7,1.1,2.5c-0.1,0-0.2,0.1-0.3,0.1c-0.4-0.8-0.7-1.7-1.1-2.5C474.1,83.7,474.2,83.7,474.3,83.7
				z"/>
			<path d="M479.8,102.9c0.7-1.1,1.4-1.3,2.2-0.2C481.2,102.8,480.6,104,479.8,102.9z"/>
			<path d="M433.4,136.8c0.2-0.3,0.2-0.8,0.5-1c0.6-0.4,1.2-0.6,1.8-0.8c-0.2,0.3-0.2,0.8-0.5,1
				C434.7,136.3,434.1,136.5,433.4,136.8z"/>
			<path d="M471.8,89.4c-0.4-0.8-0.7-1.7-1.1-2.5c0.1,0,0.2-0.1,0.3-0.1c0.4,0.8,0.7,1.7,1.1,2.5C472,89.3,471.9,89.3,471.8,89.4z"
				/>
			<path d="M466.1,80.2c-0.3-0.7-0.6-1.4-0.9-2.1c-0.1-0.2,0.1-0.4,0.1-0.6c0.2,0.2,0.5,0.3,0.6,0.5c0.3,0.6,0.5,1.2,0.8,1.8
				C466.5,79.9,466.3,80.1,466.1,80.2z"/>
			<path d="M437.4,133.5c0.2-0.3,0.2-0.8,0.5-1c0.6-0.4,1.2-0.6,1.8-0.8c-0.2,0.3-0.2,0.8-0.5,1C438.7,133,438,133.3,437.4,133.5z"
				/>
			<path d="M442.1,130c-0.2,0.3-0.2,0.8-0.5,1c-0.6,0.4-1.2,0.6-1.8,0.8c0.2-0.3,0.2-0.8,0.5-1C440.8,130.4,441.5,130.2,442.1,130z"
				/>
			<path d="M473.2,101.9c0.2,0.4,0.4,0.9,0.6,1.3c-1.1,0.2-1.8-0.3-2.1-1.4C472.1,101.9,472.6,101.9,473.2,101.9z"/>
			<path d="M446.1,126.7c-0.2,0.3-0.2,0.8-0.5,1c-0.6,0.4-1.2,0.6-1.8,0.8c0.2-0.3,0.2-0.8,0.5-1C444.8,127.2,445.5,127,446.1,126.7
				z"/>
			<path d="M471.6,101.8c-1.1,0.2-1.8-0.3-2.1-1.4C470.6,100.2,471.2,100.8,471.6,101.8z"/>
			<path d="M452.4,121.7c-0.2,0.3-0.2,0.8-0.5,1c-0.6,0.4-1.2,0.6-1.8,0.8c0.2-0.3,0.2-0.8,0.5-1
				C451.1,122.1,451.8,121.9,452.4,121.7z"/>
			<path d="M489.5,70.2c-1.1,0.2-1.8-0.3-2.1-1.4C488.5,68.6,489.2,69.1,489.5,70.2z"/>
			<path d="M469,108.3c-0.2,0.3-0.2,0.8-0.5,1c-0.6,0.4-1.2,0.6-1.8,0.8c0.2-0.3,0.2-0.8,0.5-1C467.7,108.8,468.4,108.6,469,108.3z"
				/>
			<path d="M460.4,96c0.3,0.8,0.7,1.6,1,2.4c-0.1,0.1-0.3,0.1-0.4,0.2c-0.4-0.8-0.8-1.5-1.2-2.3C460.1,96.1,460.3,96,460.4,96z"/>
			<path d="M460.4,115.1c0.2-0.3,0.2-0.8,0.5-1c0.6-0.4,1.2-0.6,1.8-0.8c-0.2,0.3-0.2,0.8-0.5,1C461.6,114.7,461,114.9,460.4,115.1z
				"/>
			<path d="M458.7,116.6c-0.2,0.3-0.2,0.8-0.5,1c-0.6,0.4-1.2,0.6-1.8,0.8c0.2-0.3,0.2-0.8,0.5-1
				C457.4,117.1,458.1,116.9,458.7,116.6z"/>
			<path d="M456.4,118.4c-0.2,0.3-0.2,0.8-0.5,1c-0.6,0.4-1.2,0.6-1.8,0.8c0.2-0.3,0.2-0.8,0.5-1
				C455.1,118.9,455.8,118.7,456.4,118.4z"/>
			<path d="M497.4,88.4c-0.5-1-0.5-1.8,0.5-2.5C498.4,86.8,498.3,87.7,497.4,88.4z"/>
			<path d="M478.2,67.3c-0.7,0.3-1.4,0.6-2.1,0.9c-0.2,0.1-0.4-0.1-0.6-0.1c0.2-0.2,0.3-0.5,0.5-0.6c0.6-0.3,1.2-0.5,1.8-0.8
				C478,66.9,478.1,67.1,478.2,67.3z"/>
			<path d="M492,99c-0.8,0.4-1.7,0.7-2.5,1.1c0-0.1-0.1-0.2-0.1-0.3c0.8-0.4,1.7-0.7,2.5-1.1C491.9,98.8,491.9,98.9,492,99z"/>
			<path d="M431.2,139.3c-0.4,0.2-0.8,0.4-1.2,0.5c-0.2,0.1-0.5,0-0.7,0c0.1-0.2,0.2-0.4,0.3-0.5c0.5-0.2,1-0.4,1.5-0.6
				C431.2,138.8,431.2,139.1,431.2,139.3z"/>
			<path d="M476.6,86.7c0.2,0.4,0.4,0.8,0.5,1.2c0.1,0.2,0,0.5,0,0.7c-0.2-0.1-0.4-0.2-0.5-0.3c-0.2-0.5-0.4-1-0.6-1.5
				C476.2,86.8,476.4,86.8,476.6,86.7z"/>
			<path d="M445.2,103.2c-0.2-1.4,1.1-1,1.7-1.5C447.1,103.1,445.7,102.7,445.2,103.2z"/>
			<path d="M454,120.2c0.2,1.4-1.1,1-1.7,1.5C452.1,120.3,453.5,120.7,454,120.2z"/>
			<path d="M431.7,137.5c0.4-0.2,0.8-0.4,1.2-0.5c0.2-0.1,0.5,0,0.7,0c-0.1,0.2-0.2,0.4-0.3,0.5c-0.5,0.2-1,0.4-1.5,0.6
				C431.7,138,431.7,137.8,431.7,137.5z"/>
			<path d="M470.8,107.6c-0.4,0.2-0.8,0.4-1.2,0.5c-0.2,0.1-0.5,0-0.7,0c0.1-0.2,0.2-0.4,0.3-0.5c0.5-0.2,1-0.4,1.5-0.6
				C470.7,107.1,470.7,107.4,470.8,107.6z"/>
			<path d="M473.8,90.8c1.4-0.2,1,1.1,1.5,1.7C473.9,92.7,474.3,91.4,473.8,90.8z"/>
			<path d="M479.8,102.9c-0.7,0-1.4,1.3-2.2,0.2C478.3,103.1,478.9,101.8,479.8,102.9z"/>
			<path d="M472.3,89.2c1.4-0.2,1,1.1,1.5,1.7C472.4,91.1,472.8,89.7,472.3,89.2z"/>
			<path d="M429,119.4c0.2,1.4-1.1,1-1.7,1.5C427.1,119.5,428.5,119.9,429,119.4z"/>
			<path d="M414.1,147.4c-0.4,0.2-0.9,0.4-1.3,0.6c0-0.2-0.1-0.5,0-0.6c0.2-0.4,0.4-0.7,0.6-1C413.7,146.7,413.9,147.1,414.1,147.4z
				"/>
			<path d="M435.8,135c-0.2-1.4,1.1-1,1.7-1.5C437.7,134.9,436.3,134.5,435.8,135z"/>
			<path d="M411.9,145.9c-0.2-0.4-0.4-0.8-0.5-1.2c-0.1-0.2,0-0.5,0-0.7c0.2,0.1,0.4,0.2,0.5,0.3c0.2,0.5,0.4,1,0.6,1.5
				C412.3,145.8,412.1,145.8,411.9,145.9z"/>
			<path d="M430.1,118.2c-0.2-1.4,1.1-1,1.7-1.5C432,118.1,430.6,117.7,430.1,118.2z"/>
			<path d="M432.7,115.5c-0.2-1.4,1.1-1,1.7-1.5C434.6,115.4,433.3,115,432.7,115.5z"/>
			<path d="M448.3,124.2c0.4-0.2,0.8-0.4,1.2-0.5c0.2-0.1,0.5,0,0.7,0c-0.1,0.2-0.2,0.4-0.3,0.5c-0.5,0.2-1,0.4-1.5,0.6
				C448.4,124.6,448.3,124.4,448.3,124.2z"/>
			<path d="M442.1,130c-0.2-1.4,1.1-1,1.7-1.5C444,129.9,442.6,129.4,442.1,130z"/>
			<path d="M447.9,125.9c-0.4,0.2-0.8,0.4-1.2,0.5c-0.2,0.1-0.5,0-0.7,0c0.1-0.2,0.2-0.4,0.3-0.5c0.5-0.2,1-0.4,1.5-0.6
				C447.8,125.5,447.8,125.7,447.9,125.9z"/>
			<path d="M411.2,149.5c-0.2-1.4,1.1-1,1.7-1.5C413.1,149.4,411.7,149,411.2,149.5z"/>
			<path d="M471.7,106.6c-0.1-0.1-0.3-0.3-0.5-0.5c0.4-0.2,0.7-0.5,1.1-0.7c0.2-0.1,0.5,0.1,0.7,0.2
				C472.7,105.8,472.4,106.1,471.7,106.6z"/>
			<path d="M424.9,144.3c-0.4,0.2-0.8,0.4-1.2,0.5c-0.2,0.1-0.5,0-0.7,0c0.1-0.2,0.2-0.4,0.3-0.5c0.5-0.2,1-0.4,1.5-0.6
				C424.8,143.9,424.9,144.1,424.9,144.3z"/>
			<path d="M497.1,81.5c0.2,0.1,0.4,0.1,0.4,0.2c0.2,0.6,0.3,1.2,0.4,1.8c0,0-0.3,0.1-0.3,0.1c-0.2-0.5-0.5-1-0.7-1.5
				C497,82,497,81.9,497.1,81.5z"/>
			<path d="M464.5,112.6c-0.4,0.2-0.8,0.4-1.2,0.5c-0.2,0.1-0.5,0-0.7,0c0.1-0.2,0.2-0.4,0.3-0.5c0.5-0.2,1-0.4,1.5-0.6
				C464.4,112.2,464.4,112.4,464.5,112.6z"/>
			<path d="M452.2,96.3c0.2,1.4-1.1,1-1.7,1.5C450.3,96.4,451.7,96.8,452.2,96.3z"/>
			<path d="M425.3,142.6c0.4-0.2,0.8-0.4,1.2-0.5c0.2-0.1,0.5,0,0.7,0c-0.1,0.2-0.2,0.4-0.3,0.5c-0.5,0.2-1,0.4-1.5,0.6
				C425.4,143,425.4,142.8,425.3,142.6z"/>
			<path d="M460.4,115.1c0.2,1.4-1.1,1-1.7,1.5C458.4,115.3,459.8,115.7,460.4,115.1z"/>
			<path d="M464.9,110.9c0.4-0.2,0.8-0.4,1.2-0.5c0.2-0.1,0.5,0,0.7,0c-0.1,0.2-0.2,0.4-0.3,0.5c-0.5,0.2-1,0.4-1.5,0.6
				C465,111.3,464.9,111.1,464.9,110.9z"/>
			<path d="M415.3,143.1c1.4-0.2,1,1.1,1.5,1.7C415.4,145,415.9,143.6,415.3,143.1z"/>
			<path d="M497.8,85.9c0-0.7-1.3-1.4-0.2-2.2C497.7,84.4,499,85,497.8,85.9z"/>
			<path d="M414.9,133.2c-0.2-1.4,1.1-1,1.7-1.5C416.8,133.1,415.5,132.7,414.9,133.2z"/>
			<path d="M413.9,134.4c0.2,1.4-1.1,1-1.7,1.5C412,134.5,413.4,134.9,413.9,134.4z"/>
			<path d="M414.6,141.3c0.2,0.4,0.4,0.8,0.5,1.2c0.1,0.2,0,0.5,0,0.7c-0.2-0.1-0.4-0.2-0.5-0.3c-0.2-0.5-0.4-1-0.6-1.5
				C414.1,141.4,414.3,141.3,414.6,141.3z"/>
			<path d="M447.9,100.5c-0.2-1.4,1.1-1,1.7-1.5C449.8,100.4,448.4,100,447.9,100.5z"/>
			<path d="M439.3,108.2c0.6-0.3,0.9-0.5,1.2-0.7c0,0,0.2,0.2,0.3,0.4c-0.3,0.2-0.5,0.4-0.8,0.5C440,108.5,439.8,108.4,439.3,108.2z
				"/>
			<path d="M461.5,83.8c0.1,0.5,0.9,1.1-0.1,1.6C461.3,84.9,460.5,84.3,461.5,83.8z"/>
			<path d="M450.6,97.8c0.4,1-0.6,0.9-1,1.2C449.2,98,450.1,98.1,450.6,97.8z"/>
			<path d="M439.4,109.6c-0.3,0-0.5,0-0.7-0.1c0.3-0.3,0.5-0.5,0.8-0.8c0.1,0,0.3,0.1,0.4,0.2C439.7,109.1,439.6,109.4,439.4,109.6z
				"/>
			<path d="M483,67.6c0.5-0.1,1.1-0.9,1.6,0.1C484.1,67.8,483.5,68.5,483,67.6z"/>
			<path d="M451.8,95.9c0.6-0.3,0.9-0.5,1.2-0.7c0,0,0.2,0.2,0.3,0.4c-0.3,0.2-0.5,0.4-0.8,0.5C452.4,96.2,452.2,96.1,451.8,95.9z"
				/>
			<path d="M442.1,106.9c-0.3,0-0.5,0-0.7-0.1c0.3-0.3,0.5-0.5,0.8-0.8c0.1,0,0.3,0.1,0.4,0.2C442.4,106.4,442.3,106.7,442.1,106.9z
				"/>
			<path d="M493.8,96.1c0.4,1-0.6,0.9-1,1.2C492.4,96.3,493.3,96.4,493.8,96.1z"/>
			<path d="M442,105.5c0.6-0.3,0.9-0.5,1.2-0.7c0,0,0.2,0.2,0.3,0.4c-0.3,0.2-0.5,0.4-0.8,0.5C442.7,105.8,442.5,105.7,442,105.5z"
				/>
			<path d="M454.5,94.6c-0.3,0-0.5,0-0.7-0.1c0.3-0.3,0.5-0.5,0.8-0.8c0.1,0,0.3,0.1,0.4,0.2C454.9,94.1,454.7,94.4,454.5,94.6z"/>
			<path d="M407.7,145.8c0.6-0.3,0.9-0.5,1.2-0.7c0,0,0.2,0.2,0.3,0.4c-0.3,0.2-0.5,0.4-0.8,0.5C408.4,146,408.2,145.9,407.7,145.8z
				"/>
			<path d="M454.5,93.2c0.6-0.3,0.9-0.5,1.2-0.7c0,0,0.2,0.2,0.3,0.4c-0.3,0.2-0.5,0.4-0.8,0.5C455.1,93.5,454.9,93.4,454.5,93.2z"
				/>
			<path d="M465.8,97.8c0.1-0.1,0.3-0.3,0.5-0.5c0.2,0.1,0.4,0.3,0.4,0.4c0,0.2-0.1,0.5-0.2,0.7C466.4,98.3,466.2,98.2,465.8,97.8z"
				/>
			<path d="M469.9,104.9c0,0.3,0,0.5-0.1,0.7c-0.3-0.3-0.5-0.5-0.8-0.8c0-0.1,0.1-0.3,0.2-0.4C469.4,104.6,469.7,104.7,469.9,104.9z
				"/>
			<path d="M444.8,104.2c-0.3,0-0.5,0-0.7-0.1c0.3-0.3,0.5-0.5,0.8-0.8c0.1,0,0.3,0.1,0.4,0.2C445.1,103.7,445,104,444.8,104.2z"/>
			<path d="M465.2,95.7c0,0.6,0,0.8,0,1c-0.2-0.1-0.5-0.2-0.6-0.4c-0.1-0.1,0-0.4,0-0.6C464.8,95.7,465.1,95.7,465.2,95.7z"/>
			<path d="M461.9,99.5c0.1-0.1,0.3-0.3,0.5-0.5c0.2,0.1,0.4,0.3,0.4,0.4c0,0.2-0.1,0.5-0.2,0.7C462.5,100,462.3,99.9,461.9,99.5z"
				/>
			<path d="M495.1,83c-0.1-0.4-0.2-0.6-0.3-0.9c0,0,0.3-0.1,0.4-0.2c0.1,0.3,0.3,0.6,0.3,0.9C495.6,82.7,495.3,82.9,495.1,83z"/>
			<path d="M482.1,67.2c-0.5,0.1-1.1,0.9-1.6-0.1C481,67,481.6,66.3,482.1,67.2z"/>
			<path d="M464.2,102.2c-0.3-0.6-0.5-0.9-0.7-1.2c0,0,0.2-0.2,0.4-0.3c0.2,0.3,0.4,0.5,0.5,0.8
				C464.5,101.6,464.4,101.7,464.2,102.2z"/>
			<path d="M464.6,101.7c1-0.4,0.9,0.6,1.2,1C464.8,103.1,464.9,102.2,464.6,101.7z"/>
			<path d="M446.8,101.7c-0.4-1,0.6-0.9,1-1.2C448.2,101.5,447.3,101.4,446.8,101.7z"/>
			<path d="M486.5,95.4c1-0.4,0.9,0.6,1.2,1C486.7,96.8,486.8,95.8,486.5,95.4z"/>
			<path d="M414.9,133.2c0.4,1-0.6,0.9-1,1.2C413.5,133.4,414.5,133.5,414.9,133.2z"/>
			<path d="M483.5,93.6c1-0.4,0.9,0.6,1.2,1C483.7,95,483.8,94.1,483.5,93.6z"/>
			<path d="M416.1,131.4c0.6-0.3,0.9-0.5,1.2-0.7c0,0,0.2,0.2,0.3,0.4c-0.3,0.2-0.5,0.4-0.8,0.5
				C416.8,131.6,416.6,131.5,416.1,131.4z"/>
			<path d="M482.2,92.6c1-0.4,0.9,0.6,1.2,1C482.5,94,482.6,93,482.2,92.6z"/>
			<path d="M418.9,130c-0.3,0-0.5,0-0.7-0.1c0.3-0.3,0.5-0.5,0.8-0.8c0.1,0,0.3,0.1,0.4,0.2C419.2,129.5,419.1,129.8,418.9,130z"/>
			<path d="M418.8,128.6c0.6-0.3,0.9-0.5,1.2-0.7c0,0,0.2,0.2,0.3,0.4c-0.3,0.2-0.5,0.4-0.8,0.5
				C419.5,128.9,419.3,128.8,418.8,128.6z"/>
			<path d="M481,92.7c-0.3-0.6-0.5-0.9-0.7-1.2c0,0,0.2-0.2,0.4-0.3c0.2,0.3,0.4,0.5,0.5,0.8C481.2,92,481.1,92.2,481,92.7z"/>
			<path d="M484.4,99.4c-1,0.4-0.9-0.6-1.2-1C484.2,98,484.1,98.9,484.4,99.4z"/>
			<path d="M421.6,127.3c-0.3,0-0.5,0-0.7-0.1c0.3-0.3,0.5-0.5,0.8-0.8c0.1,0,0.3,0.1,0.4,0.2C421.9,126.8,421.8,127.1,421.6,127.3z
				"/>
			<path d="M479.6,89.9c0,0.3,0,0.5-0.1,0.7c-0.3-0.3-0.5-0.5-0.8-0.8c0-0.1,0.1-0.3,0.2-0.4C479.2,89.6,479.4,89.7,479.6,89.9z"/>
			<path d="M421.5,125.9c0.6-0.3,0.9-0.5,1.2-0.7c0,0,0.2,0.2,0.3,0.4c-0.3,0.2-0.5,0.4-0.8,0.5C422.2,126.2,422,126.1,421.5,125.9z
				"/>
			<path d="M477.4,88.5c1-0.4,0.9,0.6,1.2,1C477.6,89.9,477.7,89,477.4,88.5z"/>
			<path d="M482.3,98c-1,0.4-0.9-0.6-1.2-1C482,96.6,481.9,97.5,482.3,98z"/>
			<path d="M424.3,124.6c-0.3,0-0.5,0-0.7-0.1c0.3-0.3,0.5-0.5,0.8-0.8c0.1,0,0.3,0.1,0.4,0.2C424.6,124.1,424.5,124.4,424.3,124.6z
				"/>
			<path d="M424.2,123.2c0.6-0.3,0.9-0.5,1.2-0.7c0,0,0.2,0.2,0.3,0.4c-0.3,0.2-0.5,0.4-0.8,0.5
				C424.9,123.5,424.7,123.4,424.2,123.2z"/>
			<path d="M480,67.5c-0.4-0.1-0.6-0.2-0.9-0.2c0.2-0.2,0.4-0.5,0.7-0.6c0.1-0.1,0.4,0.1,0.6,0.1C480.3,67,480.1,67.2,480,67.5z"/>
			<path d="M491.7,98.5c-0.1-0.2-0.2-0.4-0.3-0.7c0.4-0.2,0.9-0.4,1.3-0.6C493.1,98.3,492.2,98.2,491.7,98.5z"/>
			<path d="M436.6,110.9c0.6-0.3,0.9-0.5,1.2-0.7c0,0,0.2,0.2,0.3,0.4c-0.3,0.2-0.5,0.4-0.8,0.5
				C437.3,111.2,437.1,111.1,436.6,110.9z"/>
			<path d="M436.7,112.3c-0.3,0-0.5,0-0.7-0.1c0.3-0.3,0.5-0.5,0.8-0.8c0.1,0,0.3,0.1,0.4,0.2C437.1,111.8,436.9,112.1,436.7,112.3z
				"/>
			<path d="M434,113.6c0.6-0.3,0.9-0.5,1.2-0.7c0,0,0.2,0.2,0.3,0.4c-0.3,0.2-0.5,0.4-0.8,0.5C434.6,113.9,434.4,113.8,434,113.6z"
				/>
			<path d="M491.7,71.6c-1,0.4-0.9-0.6-1.2-1C491.5,70.2,491.4,71.1,491.7,71.6z"/>
			<path d="M432.7,115.5c0.4,1-0.6,0.9-1,1.2C431.4,115.7,432.3,115.8,432.7,115.5z"/>
			<path d="M488.5,71.8c0.1-0.1,0.3-0.3,0.5-0.5c0.2,0.1,0.4,0.3,0.4,0.4c0,0.2-0.1,0.5-0.2,0.7C489.1,72.3,489,72.2,488.5,71.8z"/>
			<path d="M429,119.4c-0.4-1,0.6-0.9,1-1.2C430.4,119.2,429.5,119.1,429,119.4z"/>
			<path d="M465.2,74.5c-0.4-1,0.6-0.9,1-1.2C466.6,74.3,465.6,74.2,465.2,74.5z"/>
			<path d="M427,121.9c-0.3,0-0.5,0-0.7-0.1c0.3-0.3,0.5-0.5,0.8-0.8c0.1,0,0.3,0.1,0.4,0.2C427.3,121.4,427.1,121.7,427,121.9z"/>
			<path d="M410.5,139c-0.3,0-0.5,0-0.7-0.1c0.3-0.3,0.5-0.5,0.8-0.8c0.1,0,0.3,0.1,0.4,0.2C410.8,138.6,410.6,138.8,410.5,139z"/>
			<path d="M477.7,94.6c1-0.4,0.9,0.6,1.2,1C477.9,95.9,478,95,477.7,94.6z"/>
			<path d="M416.3,148.8c-1,0.4-0.9-0.6-1.2-1C416.1,147.4,416,148.4,416.3,148.8z"/>
			<path d="M478.9,95.6c1-0.4,0.9,0.6,1.2,1C479.1,97,479.2,96,478.9,95.6z"/>
			<path d="M411.9,136.8c0.1-0.3,0.2-0.6,0.4-0.9C412.1,136.2,412,136.5,411.9,136.8z"/>
			<path d="M415.1,147.8c-0.3-0.1-0.6-0.2-0.9-0.4C414.4,147.5,414.7,147.7,415.1,147.8z"/>
			<path d="M409.7,149.8c0,0.1-0.1,0.3-0.1,0.3c-0.2,0-0.3-0.1-0.5-0.1c0.1-0.1,0.1-0.3,0.2-0.4
				C409.4,149.6,409.5,149.7,409.7,149.8z"/>
			<path d="M489.5,70.2c0.3,0.1,0.6,0.2,0.9,0.4C490.2,70.4,489.8,70.3,489.5,70.2z"/>
			<path d="M411,150.2c-0.1,0-0.3-0.1-0.3-0.1c0-0.2,0.1-0.3,0.1-0.5c0.1,0.1,0.3,0.1,0.4,0.2C411.2,149.9,411.1,150.1,411,150.2z"
				/>
			<path d="M416.8,144.7c0.3,0.1,0.6,0.2,0.9,0.4C417.4,145,417.1,144.8,416.8,144.7z"/>
			<path d="M483.2,98.4c-0.3-0.1-0.6-0.2-0.9-0.4C482.6,98.1,482.9,98.2,483.2,98.4z"/>
			<path d="M473.7,76.9c-0.2,0-0.3,0-0.5-0.1c0-0.1,0.1-0.3,0.1-0.3c0.2,0,0.3,0,0.5,0C473.8,76.7,473.7,76.8,473.7,76.9z"/>
			<path d="M485.3,99.7c-0.3-0.1-0.6-0.2-0.9-0.4C484.7,99.5,485,99.6,485.3,99.7z"/>
			<path d="M481.3,92.2c0.3,0.1,0.6,0.2,0.9,0.4C481.9,92.5,481.6,92.3,481.3,92.2z"/>
			<path d="M485.3,99.7c0.3,0.1,0.6,0.2,0.9,0.4C486,100,485.6,99.9,485.3,99.7z"/>
			<path d="M479.8,85.8c-0.2,0-0.3,0-0.5-0.1c0-0.1,0.1-0.3,0.1-0.3c0.2,0,0.3,0,0.5,0C479.9,85.6,479.9,85.7,479.8,85.8z"/>
			<path d="M491.1,80.4c0.2,0,0.3,0,0.5,0.1c0,0.1-0.1,0.3-0.1,0.3c-0.2,0-0.3,0-0.5,0C491,80.6,491.1,80.5,491.1,80.4z"/>
			<path d="M487.2,100.5c-0.3-0.1-0.6-0.2-0.9-0.4C486.6,100.2,486.9,100.4,487.2,100.5z"/>
			<path d="M484.7,94.6c0.3,0.1,0.6,0.2,0.9,0.4C485.3,94.9,485,94.8,484.7,94.6z"/>
			<path d="M483.6,90.7c0,0.2,0,0.3-0.1,0.5c-0.1,0-0.3-0.1-0.3-0.1c0-0.2,0-0.3,0-0.5C483.4,90.6,483.5,90.7,483.6,90.7z"/>
			<path d="M479.4,81.4c-0.2,0-0.3,0-0.5-0.1c0-0.1,0.1-0.3,0.1-0.3c0.2,0,0.3,0,0.5,0C479.5,81.1,479.5,81.2,479.4,81.4z"/>
			<path d="M486.5,95.4c-0.3-0.1-0.6-0.2-0.9-0.4C485.9,95.1,486.2,95.2,486.5,95.4z"/>
			<path d="M478.2,77.3c-0.1,0-0.2-0.1-0.3-0.1c0.1-0.1,0.2-0.3,0.3-0.4c0,0,0.2,0.1,0.3,0.1C478.4,77,478.3,77.1,478.2,77.3z"/>
			<path d="M477.4,72.8c0,0.1-0.1,0.2-0.1,0.3c-0.1-0.1-0.3-0.2-0.4-0.3c0,0,0.1-0.2,0.1-0.3C477.2,72.6,477.3,72.7,477.4,72.8z"/>
			<path d="M475.6,69.7c0-0.2,0-0.3,0.1-0.5c0.1,0,0.3,0.1,0.3,0.1c0,0.2,0,0.3,0,0.5C475.8,69.8,475.7,69.8,475.6,69.7z"/>
			<path d="M484.6,67.7c0.3,0.1,0.6,0.2,0.9,0.4C485.2,67.9,484.9,67.8,484.6,67.7z"/>
			<path d="M487.7,96.4c0.3,0.1,0.6,0.2,0.9,0.4C488.4,96.6,488,96.5,487.7,96.4z"/>
			<path d="M483.7,85.9c0.1,0,0.2,0.1,0.3,0.1c-0.1,0.1-0.2,0.3-0.3,0.4c0,0-0.2-0.1-0.3-0.1C483.5,86.2,483.6,86,483.7,85.9z"/>
			<path d="M488.7,96.8c0.3,0.1,0.6,0.2,0.9,0.4C489.3,97,489,96.9,488.7,96.8z"/>
			<path d="M490.5,97.5c-0.3-0.1-0.6-0.2-0.9-0.4C489.9,97.3,490.2,97.4,490.5,97.5z"/>
			<path d="M491.5,97.9c-0.3-0.1-0.6-0.2-0.9-0.4C490.8,97.6,491.2,97.7,491.5,97.9z"/>
			<path d="M482.1,77.7c0-0.2,0-0.3,0.1-0.5c0.1,0,0.3,0.1,0.3,0.1c0,0.2,0,0.3,0,0.5C482.3,77.8,482.2,77.8,482.1,77.7z"/>
			<path d="M487.4,87.4c0.1,0,0.2,0.1,0.3,0.1c-0.1,0.1-0.2,0.3-0.3,0.4c0,0-0.2-0.1-0.3-0.1C487.2,87.7,487.3,87.5,487.4,87.4z"/>
			<path d="M481.5,73.3c0,0.1-0.1,0.2-0.1,0.3c-0.1-0.1-0.3-0.2-0.4-0.3c0,0,0.1-0.2,0.1-0.3C481.3,73.1,481.4,73.2,481.5,73.3z"/>
			<path d="M486.5,78.9c0-0.2,0-0.3,0.1-0.5c0.1,0,0.3,0.1,0.3,0.1c0,0.2,0,0.3,0,0.5C486.7,79,486.6,79,486.5,78.9z"/>
			<path d="M492.1,88.8c0,0.1-0.1,0.2-0.1,0.3c-0.1-0.1-0.3-0.2-0.4-0.3c0,0,0.1-0.2,0.1-0.3C491.8,88.6,492,88.7,492.1,88.8z"/>
			<path d="M482.1,67.2c0.3,0.1,0.6,0.2,0.9,0.4C482.7,67.5,482.4,67.3,482.1,67.2z"/>
			<path d="M484.3,70.4c0-0.1,0.1-0.2,0.1-0.3c0.1,0.1,0.3,0.2,0.4,0.3c0,0-0.1,0.2-0.1,0.3C484.6,70.6,484.5,70.5,484.3,70.4z"/>
			<path d="M492,84.9c-0.1,0.1-0.2,0.3-0.3,0.4c0,0-0.2-0.1-0.3-0.1c0.1-0.1,0.2-0.3,0.3-0.4C491.8,84.7,491.9,84.9,492,84.9z"/>
			<path d="M495.1,90.8c-0.2,0-0.3,0-0.5-0.1c0-0.1,0.1-0.3,0.1-0.3c0.2,0,0.3,0,0.5,0C495.2,90.6,495.1,90.7,495.1,90.8z"/>
			<path d="M466.6,102.9c0,0.1-0.1,0.3-0.1,0.3c-0.2,0-0.3-0.1-0.5-0.1c0.1-0.1,0.1-0.3,0.2-0.4
				C466.3,102.7,466.4,102.8,466.6,102.9z"/>
			<path d="M467.7,104.3c-0.2-0.1-0.3-0.2-0.5-0.3c0.1-0.1,0.3-0.3,0.3-0.3c0.2,0.1,0.3,0.3,0.4,0.4
				C467.9,104.2,467.8,104.2,467.7,104.3z"/>
			<path d="M468.9,104.5c-0.3-0.1-0.6-0.2-0.9-0.4C468.3,104.3,468.6,104.4,468.9,104.5z"/>
			<path d="M461,86.3c-0.1,0.3-0.2,0.6-0.4,0.9C460.8,86.9,460.9,86.6,461,86.3z"/>
			<path d="M463.2,89.7c0,0.1-0.1,0.2-0.1,0.3c-0.1-0.1-0.3-0.2-0.4-0.3c0,0,0.1-0.2,0.1-0.3C462.9,89.5,463,89.6,463.2,89.7z"/>
			<path d="M461.4,85.4c-0.1,0.3-0.2,0.6-0.4,0.9C461.2,86,461.3,85.7,461.4,85.4z"/>
			<path d="M467.9,99.6c-0.1-0.1-0.3-0.2-0.4-0.3c0,0,0.1-0.2,0.1-0.3c0.1,0.1,0.3,0.2,0.4,0.3C468,99.3,467.9,99.4,467.9,99.6z"/>
			<path d="M469.1,100.6c-0.2-0.1-0.3-0.2-0.5-0.3c0.1-0.1,0.3-0.3,0.3-0.3c0.2,0.1,0.3,0.3,0.4,0.4
				C469.3,100.5,469.2,100.5,469.1,100.6z"/>
			<path d="M466.2,94c-0.1,0-0.2-0.1-0.3-0.1c0.1-0.1,0.2-0.3,0.3-0.4c0,0,0.2,0.1,0.3,0.1C466.4,93.7,466.3,93.9,466.2,94z"/>
			<path d="M463.1,85.9c0,0.1-0.1,0.2-0.1,0.3c-0.1-0.1-0.3-0.2-0.4-0.3c0,0,0.1-0.2,0.1-0.3C462.8,85.7,462.9,85.8,463.1,85.9z"/>
			<path d="M461.5,83.8c0.1-0.3,0.2-0.6,0.4-0.9C461.7,83.2,461.6,83.5,461.5,83.8z"/>
			<path d="M470.1,97.7c-0.1,0-0.2-0.1-0.3-0.1c0.1-0.1,0.2-0.3,0.3-0.4c0,0,0.2,0.1,0.3,0.1C470.3,97.5,470.2,97.6,470.1,97.7z"/>
			<path d="M463.1,78.5c-0.1,0.3-0.2,0.6-0.4,0.9C462.8,79.1,462.9,78.8,463.1,78.5z"/>
			<path d="M473,101.6c0.1-0.2,0.2-0.3,0.3-0.5c0.1,0.1,0.3,0.3,0.3,0.3c-0.1,0.2-0.3,0.3-0.4,0.4
				C473.1,101.8,473.1,101.7,473,101.6z"/>
			<path d="M466.7,85c-0.1,0.1-0.2,0.3-0.3,0.4c0,0-0.2-0.1-0.3-0.1c0.1-0.1,0.2-0.3,0.3-0.4C466.4,84.9,466.5,85,466.7,85z"/>
			<path d="M463.1,78.5c0.1-0.3,0.2-0.6,0.4-0.9C463.3,77.9,463.2,78.2,463.1,78.5z"/>
			<path d="M470.9,93.4c0,0.1-0.1,0.2-0.1,0.3c-0.1-0.1-0.3-0.2-0.4-0.3c0,0,0.1-0.2,0.1-0.3C470.6,93.1,470.8,93.3,470.9,93.4z"/>
			<path d="M463.8,76.6c-0.1,0.3-0.2,0.6-0.4,0.9C463.6,77.3,463.7,77,463.8,76.6z"/>
			<path d="M466.4,81.6c-0.2,0-0.3,0-0.5-0.1c0-0.1,0.1-0.3,0.1-0.3c0.2,0,0.3,0,0.5,0C466.5,81.3,466.5,81.4,466.4,81.6z"/>
			<path d="M474.4,97.8c0,0.2,0,0.3-0.1,0.5c-0.1,0-0.3-0.1-0.3-0.1c0-0.2,0-0.3,0-0.5C474.1,97.7,474.2,97.8,474.4,97.8z"/>
			<path d="M470.4,89.1c-0.2,0-0.3,0-0.5-0.1c0-0.1,0.1-0.3,0.1-0.3c0.2,0,0.3,0,0.5,0C470.5,88.9,470.5,89,470.4,89.1z"/>
			<path d="M495.4,86.8c-0.1,0-0.2-0.1-0.3-0.1c0.1-0.1,0.2-0.3,0.3-0.4c0,0,0.2,0.1,0.3,0.1C495.7,86.5,495.5,86.7,495.4,86.8z"/>
			<path d="M487.4,68.8c-0.3-0.1-0.6-0.2-0.9-0.4C486.8,68.5,487.1,68.7,487.4,68.8z"/>
			<path d="M474.9,94.1c-0.2,0-0.3,0-0.5-0.1c0-0.1,0.1-0.3,0.1-0.3c0.2,0,0.3,0,0.5,0C475,93.9,475,94,474.9,94.1z"/>
			<path d="M478,98.6c0-0.1,0.1-0.2,0.1-0.3c0.1,0.1,0.3,0.2,0.4,0.3c0,0-0.1,0.2-0.1,0.3C478.3,98.8,478.1,98.7,478,98.6z"/>
			<path d="M490,76c-0.1,0-0.2-0.1-0.3-0.1c0.1-0.1,0.2-0.3,0.3-0.4c0,0,0.2,0.1,0.3,0.1C490.2,75.7,490.1,75.9,490,76z"/>
			<path d="M468.6,73.5c0.1-0.2,0.2-0.3,0.3-0.5c0.1,0.1,0.3,0.3,0.3,0.3c-0.1,0.2-0.3,0.3-0.4,0.4
				C468.7,73.7,468.6,73.6,468.6,73.5z"/>
			<path d="M481.9,99.6c-0.2,0-0.3,0-0.5-0.1c0-0.1,0.1-0.3,0.1-0.3c0.2,0,0.3,0,0.5,0C482,99.3,481.9,99.4,481.9,99.6z"/>
			<path d="M481,97c-0.3-0.1-0.6-0.2-0.9-0.4C480.4,96.7,480.7,96.8,481,97z"/>
			<path d="M485.5,68c0.3,0.1,0.6,0.2,0.9,0.4C486.2,68.3,485.8,68.2,485.5,68z"/>
			<path d="M474.5,80.6c0.1,0,0.2,0.1,0.3,0.1c-0.1,0.1-0.2,0.3-0.3,0.4c0,0-0.2-0.1-0.3-0.1C474.3,80.9,474.4,80.8,474.5,80.6z"/>
		</g>
	</g>
	<g>
		<rect x="298.5" y="86.1" class="st0" width="178.7" height="32.4"/>
		<path d="M308.8,102.9l-0.2,1.1c-1.7,1.8-3.2,2.7-4.6,2.7c-1.1,0-1.7-0.6-1.7-1.8c0-0.4,0.1-1,0.3-2l0.8-4c0.2-1.1,0.3-1.9,0.3-2.3
			c0-0.6-0.3-1-0.8-1c-0.3,0-1,0.1-1.9,0.4l0.1-0.7l5.7-1.9l-0.9,3.7l-1.1,5.7c-0.2,0.9-0.3,1.5-0.3,1.7c0,0.5,0.2,0.8,0.7,0.8
			C306.1,105.5,307.3,104.6,308.8,102.9z M304.6,91.5l0.8-1.6l3.3-2.1l-1,2.1L304.6,91.5z"/>
		<path d="M310.6,106.6l0.9-3.6l1.1-5.7c0.2-0.9,0.3-1.5,0.3-1.7c0-0.5-0.2-0.7-0.7-0.7c-0.8,0-1.9,0.9-3.5,2.6l0.2-1.1
			c1.7-1.8,3.2-2.7,4.6-2.7c1.1,0,1.7,0.6,1.7,1.7c0,0.4-0.1,1.1-0.3,2l-0.6,2.9h0.2c1-2,2.1-3.6,3.3-4.8c1.2-1.2,2.4-1.8,3.4-1.8
			c1.3,0,1.9,0.7,1.9,2.1c0,0.5-0.1,1-0.2,1.7l-1.1,5.7c-0.2,0.9-0.3,1.5-0.3,1.7c0,0.5,0.2,0.7,0.7,0.7c0.8,0,1.9-0.9,3.5-2.6
			l-0.2,1.1c-1.7,1.8-3.2,2.7-4.6,2.7c-1.1,0-1.7-0.6-1.7-1.8c0-0.4,0.1-1,0.3-2l1.1-5.7c0.1-0.4,0.1-0.8,0.1-1.1
			c0-0.6-0.2-0.9-0.7-0.9c-1.5,0-3.5,2.3-6.2,7l-0.8,4.1L310.6,106.6z"/>
		<path d="M329.7,94.7H327l0.8-0.9h2l0.7-3.3l2.4-0.6l-0.8,3.9h4.4l-1,1c-1-0.1-1.9-0.2-2.7-0.2h-0.9l-1.6,8
			c-0.2,0.8-0.2,1.4-0.2,1.7c0,0.6,0.3,0.9,0.8,0.9c0.8,0,2-0.6,3.4-1.9l-0.2,1.1c-1.5,1.5-2.9,2.2-4.3,2.2c-1.3,0-2-0.7-2-2.2
			c0-0.5,0.1-1.2,0.3-2.1L329.7,94.7z"/>
		<path d="M347.7,103.3l-0.2,0.9c-2.5,1.7-4.6,2.6-6.3,2.6c-1.1,0-2-0.4-2.7-1.2c-0.7-0.8-1-1.8-1-3c0-2.2,0.8-4.2,2.5-6.2
			s3.5-2.9,5.4-2.9c0.7,0,1.2,0.2,1.7,0.7c0.4,0.5,0.6,1.1,0.6,1.8c0,1.5-0.8,2.8-2.3,3.8c-1.5,1.1-3.3,1.6-5.4,1.6l0,0.5
			c0,2.3,0.8,3.4,2.5,3.4C343.9,105.4,345.7,104.7,347.7,103.3z M340,100.8c1.7-0.1,3.1-0.6,4.1-1.3s1.5-1.7,1.5-2.9
			c0-1.2-0.4-1.8-1.3-1.8c-0.9,0-1.8,0.6-2.7,1.9C340.7,97.8,340.2,99.2,340,100.8z"/>
		<path d="M351.4,106.6l0.9-3.6l1.1-5.7c0.1-0.6,0.2-1.1,0.2-1.5c0-0.7-0.2-1-0.7-1c-0.8,0-2,0.9-3.5,2.6l0.2-1
			c1.8-1.9,3.3-2.9,4.7-2.9c1.1,0,1.7,0.6,1.7,1.9c0,0.6-0.1,1.2-0.2,1.9l-0.6,2.8h0.2c0.9-1.9,2-3.5,3.3-4.7
			c1.3-1.2,2.4-1.8,3.5-1.8c0.5,0,1,0.1,1.5,0.4l-1.5,2.1c-0.5-0.3-0.8-0.5-1.2-0.5c-1.5,0-3.5,2.2-6,6.6l-0.8,4.2L351.4,106.6z"/>
		<path d="M368.7,106.7l0.1-1.6c0-3.1-0.3-5.5-0.8-7.2c-0.6-1.8-1.3-2.6-2.3-2.6c-1,0-2,0.9-3.1,2.8l0.3-1.7
			c1.4-1.9,2.7-2.8,3.9-2.8c2.7,0,4,3.4,4,10.2v0.6l0.9-1.1c2.8-3.4,4.2-5.9,4.2-7.4c0-0.7-0.3-1.4-0.8-1.9l2.5-0.3
			c0.4,0.6,0.6,1.1,0.6,1.5c0,0.6-0.3,1.4-0.8,2.2c-0.5,0.8-1.7,2.2-3.5,4.3l-4.2,4.8L368.7,106.7z"/>
		<path d="M388.5,102.9l-0.2,1.1c-1.7,1.8-3.2,2.7-4.6,2.7c-1.1,0-1.7-0.6-1.7-1.8c0-0.4,0.1-1,0.3-2l0.8-4c0.2-1.1,0.3-1.9,0.3-2.3
			c0-0.6-0.3-1-0.8-1c-0.3,0-1,0.1-1.9,0.4l0.1-0.7l5.7-1.9l-0.9,3.7l-1.1,5.7c-0.2,0.9-0.3,1.5-0.3,1.7c0,0.5,0.2,0.8,0.7,0.8
			C385.8,105.5,387,104.6,388.5,102.9z M384.2,91.5L385,90l3.3-2.1l-1,2.1L384.2,91.5z"/>
		<path d="M399.7,103.3l-0.2,0.9c-2.5,1.7-4.6,2.6-6.3,2.6c-1.1,0-2-0.4-2.7-1.2c-0.7-0.8-1-1.8-1-3c0-2.2,0.8-4.2,2.5-6.2
			s3.5-2.9,5.4-2.9c0.7,0,1.2,0.2,1.7,0.7c0.4,0.5,0.6,1.1,0.6,1.8c0,1.5-0.8,2.8-2.3,3.8c-1.5,1.1-3.3,1.6-5.4,1.6l0,0.5
			c0,2.3,0.8,3.4,2.5,3.4C395.9,105.4,397.6,104.7,399.7,103.3z M392,100.8c1.7-0.1,3.1-0.6,4.1-1.3s1.5-1.7,1.5-2.9
			c0-1.2-0.4-1.8-1.3-1.8c-0.9,0-1.8,0.6-2.7,1.9C392.7,97.8,392.1,99.2,392,100.8z"/>
		<path d="M406.9,106.7c0-0.8,0.1-1.5,0.1-2.3c0-3.5-0.2-5.9-0.6-7.2c-0.4-1.3-1-2-2-2c-0.9,0-2,0.9-3.2,2.8l0.3-1.6
			c1.4-1.9,2.7-2.9,4-2.9c2.4,0,3.6,3.1,3.6,9.4l0,1.2c2.6-3.7,4.1-7.1,4.5-10.2l1.1-0.3c1.1,3.4,1.6,6.8,1.6,10.1
			c1.1-1.5,2.1-3,2.9-4.6c0.8-1.6,1.2-2.8,1.2-3.7c0-0.5-0.2-1.1-0.5-1.7l2.6-0.1c0.1,0.4,0.2,0.7,0.2,1c0,0.6-0.4,1.5-1.1,2.8
			c-0.7,1.2-1.9,3-3.5,5.1l-0.6,0.8l-2.2,3l-1.2,0.3l0-1.4c0-3.1-0.2-5.7-0.6-7.7c-1.9,3.9-3.6,6.8-5.3,8.9L406.9,106.7z"/>
		<path d="M423.3,106l1.5-1.6c1,0.7,2,1.1,3.1,1.1c0.6,0,1.2-0.2,1.6-0.5c0.4-0.3,0.7-0.8,0.7-1.2c0-0.5-0.4-1.3-1.3-2.3l-1.1-1.2
			c-1-1.1-1.5-2.1-1.5-2.8c0-1.1,0.5-2,1.5-2.8s2.1-1.2,3.4-1.2c0.7,0,1.5,0.1,2.4,0.4l-0.5,2.6h-0.7l0-0.2c0-0.1,0-0.2,0-0.2
			c0-1-0.7-1.6-2-1.6c-1.5,0-2.3,0.6-2.3,1.8c0,0.6,0.4,1.4,1.3,2.4l1,1.1c1,1.2,1.6,2.1,1.6,2.9c0,1-0.5,2-1.6,2.8
			s-2.3,1.2-3.7,1.2C425.6,106.7,424.5,106.5,423.3,106z"/>
	</g>
	<g id="paper_stack">
		<g>
			<path d="M641,360.5c0.6-0.9,1.2-1.7,1.9-2.8c-4.3-2.6-8.6-5.3-13-8c5.2-5.1,11.7-6.6,17.6-9.5c0-0.2,0-0.5,0-0.7
				c-1.4-0.3-2.8-0.7-4.2-0.9c-1.4-0.1-2.9,0-4.3,0c-0.1-0.3-0.1-0.5-0.2-0.8c1.3-1.3,2.6-2.7,3.9-4c-0.9-0.4-1.8-0.8-3.2-1.4
				c3.5-2.1,6.4-3.9,9.5-5.7c-0.9-0.6-1.7-1.2-2.8-1.9c2.6-1.8,5.1-3.5,7.9-5.4c-0.9-0.7-1.9-1.4-2.9-2.2c0.8-0.7,1.6-1.4,2.7-2.4
				c-1.8-0.6-3.3-1.1-4.9-1.7c0-0.6,0-1.3,0-2.3c4.5-0.3,9-0.9,12.8-4.1c-5.5-8.2-12.6-14.4-21.2-18.8c2.7-1.7,5-3.1,7.5-4.7
				c-0.1-1-0.3-2-0.5-3.1c2-0.3,3.8-0.6,5.9-0.9c-1.6-1.1-3-2.2-4.5-3.3c1.2-0.9,2.4-1.9,3.6-2.6c1.5-0.8,2.6-1.8,3.2-3.8
				c0.3-1,2.1-1.3,3.3-1.9c-2-1.5-4.2-3.2-6.6-5.1c2.3-3.9,6.4-4.7,9.3-8.4c-3-1.4-5.8-2.8-8.6-4c-2.3-1-4.6-1.7-6.9-2.7
				c-0.3-0.1-0.6-0.7-0.8-1c0.3-0.3,0.6-0.9,0.9-1c2-0.5,4.1-0.9,6.3-1.4c-1.1-4.3-4.7-2.9-7.1-4.7c0-0.5,0-1.1,0-2.2
				c6,0.3,11.2-2.8,16.5-5.8c-1.6-0.3-3.2-0.6-4.7-0.9c0-0.2,0-0.5,0.1-0.7c1.4-1.3,2.8-2.6,4.3-4c-1.2-0.3-2.2-0.5-3.7-0.9
				c0.7-0.6,0.8-0.8,1-1c5.2-3,10.3-6.4,15.6-8.9c5.9-2.8,12.1-4.8,18.1-7c6.2-2.4,12.5-4.8,18.8-7c6.4-2.3,12.9-4.3,19.4-6.4
				c1.9-0.6,3.8-1.1,5.6-1.8c3-1.3,5.9-1.7,9-0.8c4.1,1.3,8.3,1.9,12.2,3.8c6,2.9,10.9,8,15.6,13.3c5,5.6,10.2,10.8,15.3,16.2
				c2.5,2.6,4.9,5.4,7.4,7.9c4,4,8.2,7.8,12.1,12c2.2,2.3,4,5.3,5.9,7.9c-0.1,0.3-0.3,0.7-0.4,1c-2,0.1-4,0.3-5.8,0.4
				c2.6,3.1,5.3,6.2,7.9,9.4c0.6,0.7,0.8,1.8,1.2,2.7c-0.8,0.2-1.6,0.4-2.4,0.6c-4.5,1.1-8.9,2.1-13.4,3.2c-0.5,0.1-1.1,0.4-1.4,0.5
				c0.6,1.1,1.3,2.3,2.2,3.9c-1.9,0-3.4,0-5.4,0c4.3,5.5,8.6,10.2,11.7,16c-0.1,0.4-0.2,0.7-0.4,1.1c-4.8,0-9.5,0-14.8,0
				c1.5,3.5,2.7,6.2,4,9.1c-4,0.8-8-1-11.8,1.9c2,3,3.9,5.9,5.9,8.8c3,4.3,6.2,8.6,9.2,12.8c0.2,0.3,0.4,0.7,0.6,0.9
				c3.5,2.8,5,7.6,7.8,11c0.1,0.1,0,0.3,0.1,0.8c-1.2,0.1-2.3,0.1-4.1,0.2c1.4,1.5,2.4,2.6,3.3,3.8c0.8,1.2,1.4,2.5,2.3,4
				c-9.5,0.3-18.6,0.6-27.7,0.9c0,0.2-0.1,0.4-0.1,0.6c2.8,2.7,5.6,5.4,8.4,8c2.7,2.4,5.6,4.6,8.6,7.1c-3.9,1.7-7.4,3.2-10.9,4.8
				c1.4,2.2,4.3,1.8,5.2,4.7c-3.1,1.3-6,2.6-9.5,4c2.4,1.9,4.4,3.6,6.4,5.2c1.7,1.4,3.6,2.6,5.2,4.1c0.9,0.8,1.6,2.1,2.4,3.1
				c-0.1,0.3-0.2,0.6-0.3,0.9c-3.1,0-6.1,0-9.4,0c2.1,3.6,4,6.8,6.2,10.5c-1.7,0-2.8,0-3.8,0c4.2,8.3,8.3,16.5,12.7,25.2
				c-4.3,0-8,0-11.7,0c0,0.2-0.1,0.3-0.1,0.5c3.9,2.6,7.9,5.2,12.1,8c-4,2-7.3,3.6-10.9,5.4c1,1.7,2.1,3.3,3.5,5.5
				c-1.8,0.2-3.1,0.3-4.8,0.5c1.6,1.5,3,2.6,4.3,4c1.7,1.9,3.3,3.9,4.7,6.1c1.1,1.6,0.5,2.6-1.2,2.7c-0.4,0-0.8,0-1.3,0
				c-0.4,0-0.8,0-1.7,0c1.9,1.4,3.4,2.5,4.9,3.7c-0.1,0.2-0.2,0.5-0.3,0.7c-0.9,0.3-1.8,0.6-2.7,0.9c1.5,2.7,3.1,5.4,4.9,8.7
				c-3.5,0-6.2,0-8.8,0c1.3,1.9,2.5,3.7,4.1,6.1c-2,0-3.4,0-4.6,0c1.5,1.8,3,3.6,4.5,5.3c-0.1,0.3-0.3,0.5-0.4,0.8c-1.5,0-3,0-4.6,0
				c1.3,1.6,2.4,3.1,3.9,5.1c-2.6,0-4.4,0-6.7,0c2,2.3,5.1,2.8,5.3,6.8c-1.6,0-3.1,0-4.7,0c1.9,4.8,6.3,7,7.8,12.3c-3,0-5.8,0-8.9,0
				c0.7,1.9,1.4,3.5,2.1,5.3c-0.4,0.2-0.8,0.4-1.3,0.7c0.4,1,0.7,2.1,1.2,3.3c-1.1,0-2,0-3,0c1.1,2.2,2.1,4.3,3.2,6.6
				c-1.3,0-2.3,0-3.4,0c1.5,3.6,3,7,4.6,10.8c-5.4,0-10.5-0.3-15.6,0.1c-5.5,0.4-10.9,1.4-16.3,2.4c-4.7,0.8-9.4,1.8-14.2,2.7
				c-9.6,1.8-19.1,3.8-28,8.5c-6.8,3.6-13.7,7-20.6,10.6c-0.5,0.3-0.9,0.7-1.6,1.1c-1-1.9-2-3.7-3-5.7c-3.2,1.2-6.5,2.3-9.7,3.5
				c0.3-5.5-2-10.1-3.6-14.8c-3.3-9.7-7.2-19.1-10.6-28.7c-1.9-5.5-5.5-8.9-9-12.4c-2-2-4.4-3.5-6.6-5.3c-1.5-1.2-1.4-2.6,0.2-3.8
				c0.6-0.4,1.1-0.9,1.7-1.4c-1.1-1.5-3.8-1.5-2.7-4.7c-4-3.1-8.3-4.7-13.3-3.8c0-0.3,0-0.6-0.1-0.9c1.3-1.3,2.7-2.7,4-4.1
				c-1-0.3-1.9-0.6-2.8-0.8c0-0.2,0-0.4,0-0.7c2.5-1.6,5-3.1,7.8-4.9c-3.5-1.2-6.6-2.4-9.8-3.5c0-0.6,0-1.3,0-2.2
				c2.3-0.3,4.6-0.5,6.8-0.8c0.1-0.2,0.2-0.4,0.3-0.6c-2.2-1.3-4.3-2.6-6.5-3.9c1.6-1.3,2.7-2.3,3.9-3.2c-0.7-0.7-1.6-1.5-2.6-2.4
				c0.1-0.3,0.2-0.6,0.3-0.8c2.7-0.4,5.5-0.8,8.2-1.2c0-0.2,0-0.4,0-0.7c-0.5-0.4-0.9-0.8-1.5-1.2c0.5-0.4,1-0.9,1.5-1.3
				c-2.6-2.5-6.6-1.6-8.7-5.9c5-0.9,9.6-1.6,13.4-4.9c-1.5-6.8-6.6-3.4-10.1-5.1c1.7-1.6,3.1-2.9,4.4-4.1c-0.9-0.5-1.8-1-3.2-1.8
				c2.4-1.5,4-2.5,5.8-3.6c-0.2-0.4-0.5-0.7-0.8-1.1c0.4-0.4,0.9-0.8,1.7-1.5c-4.4-1.8-8.6-3.5-13.1-5.3c0.4-0.6,0.7-1.3,1.2-1.5
				c0.9-0.4,1.9-0.4,2.8-0.7c3.5-1.2,7.1-2.5,11.2-4c-1.6-1.3-2.8-2.1-3.8-3c-0.6-0.5-1.3-1.3-1.3-2c0-0.6,0.7-1.5,1.3-1.9
				c2.4-1.9,4.9-3.7,7.5-5.5c-0.7-2.9-2.8-3.8-4.6-5.1c-3.8-2.8-7.7-4.8-12.3-4c-0.7,0.1-1.5-0.5-2.5-0.9c1.8-1.7,3.2-3,4.7-4.4
				c-1-0.3-1.8-0.6-2.7-0.9c0-0.2,0-0.4,0-0.6c2.1-1.3,4.1-2.6,5.9-3.7c-0.1-1.5-0.7-3.1-0.2-4c0.4-0.8,1.7-1.1,2.7-1.4
				c1-0.4,2-0.5,3-0.8c-0.3-3.8-3.1-4.4-5.2-6C645.4,363.3,643.2,362,641,360.5z M661.3,243.8c0.2-0.6,0.2-1.5,0.6-1.9
				c0.9-1.1,2-1.9,2.9-2.8c-1-0.4-1.8-0.8-3.1-1.4c2.8-1.7,4.9-3,7.1-4.4c-1.5-1.8-3-1.9-4.7-0.8c-0.6,0.4-1.2,0.7-1.9,1
				c-4.1,1.9-8.3,3.8-12.1,5.6c0.1,0,0.6,0.3,1.1,0.5C654.6,241,658,242.3,661.3,243.8c1.4,1,2.6,2.3,4.1,3.1
				c5.5,3,9.9,7.9,14.5,12.6c3.8,3.9,7.6,7.9,11.6,11.6c4.1,3.9,8.6,7.2,12.4,11.5c4,4.6,7.2,10.2,10.9,15.5c1.4-1.1,3.4-2.5,5.4-4
				c-3-5.2-5.4-10.8-9.7-14.7c-2.8-2.5-4.9-6.1-7.8-8.6c-6.8-6.1-13.7-12-20.8-17.5C675.5,248.5,669.5,242.7,661.3,243.8z
				 M720.7,286.7c0.9-0.5,1.7-1,2.5-1.5c9.7-6.5,20-11.6,30.6-15.5c13.1-4.7,26.5-8.6,39.8-12.8c5.8-1.8,11.6-3.5,17.8-5.3
				c-1.2-1.7-2.3-3.7-3.7-5.1c-2.6-2.7-5.6-5-8.2-7.7c-3.6-3.6-7-7.5-10.6-11.2c-5.4-5.7-10.8-11.5-16.3-17.2
				c-3.2-3.3-6.6-6.4-9.9-9.6c-5.7-5.5-12.6-6.3-19.4-6.8c-6.8-0.6-13.4,2.2-19.9,4.5c-14.8,5.3-29.6,10.8-44.2,16.5
				c-5.5,2.1-10.7,5.3-16.2,8c1.8,0.9,3.4,1.3,4.6,2.2c4.4,3.2,8.8,6.3,13,9.9c6.8,5.9,13.5,12.1,20.2,18.2
				c4.6,4.3,9.1,8.6,12.4,14.5C716.3,273.8,719.8,279.3,720.7,286.7z M701.1,396.5c-0.4-0.4-0.6-0.6-0.7-0.8c-0.2-0.5-0.4-1-0.6-1.6
				c-2.7-7.6-6.3-14.2-11.4-19.9c-5.3-6-10.9-11.5-16.9-16.5c-6.4-5.3-13-10.2-19.6-15.2c-0.7-0.6-2-0.9-2.7-0.6
				c-5.3,2.2-10.5,4.7-15.9,7.1c3.1,2.2,6.1,3.9,8.8,6.2c9.9,8.4,19.7,17.2,29.6,25.6c4.8,4.1,10,7.4,14.8,11.6
				c4.4,3.8,8.4,8.1,12.8,12.5c19.3-14.1,41.5-21.7,62.5-33.7c-0.7-0.1-1-0.2-1.3-0.1C740.3,378.2,719.4,383.2,701.1,396.5z
				 M714.2,386.1c-0.5-0.3-1.4-0.7-2.1-1.4c-2.3-2.6-4.5-5.4-6.8-8.2c-0.4-0.5-1-1.3-1.3-1.2c-2,1-2.1-0.9-2.8-2.2
				c-0.6-1-1.3-2-2.1-2.7c-1.3-1.2-2.7-2.1-4-3.2c-8.1-7.4-16.1-14.8-24.2-22.2c-5.7-5.2-11.5-10.3-17.3-15.3
				c-1.1-0.9-2.6-2.1-3.7-1.7c-2.1,0.6-3.9,2.3-5.8,3.4c1.4,0.5,2.9,0.6,4,1.4c4.7,3.3,9.4,6.5,13.8,10.2
				c5.4,4.5,10.6,9.5,15.9,14.2c6.9,5.9,12.8,13,17.7,21.4c2.8,4.9,5.3,10,6.5,16.1c3.2-2,6.4-4.1,9.5-6.1
				c7.8-5.1,16.1-8.3,24.5-11.5c5.9-2.3,11.8-4.6,17.8-6.4c8-2.5,16-4.5,24-6.8c4.8-1.3,9.5-2.6,14.4-3.9c-0.4-0.7-0.7-1.6-1.2-2.1
				c-3.1-3.3-6.3-6.5-9.4-9.9c-1.6-1.8-3.1-1.4-4.8-0.3c-5.1,3-10.2,6-15.4,8.9c-11.9,6.6-23.8,13.1-35.6,19.9
				c-3.7,2.1-7,5-10.5,7.7C715,384.3,714.8,385.1,714.2,386.1z M803.1,288.6c-0.5-1.8-0.7-3-1.2-3.8c-2.1-3.1-4.4-6.2-6.7-9.1
				c-0.3-0.4-1.2-0.6-1.7-0.5c-6.2,1.5-12.4,2.8-18.4,4.7c-11,3.5-22.1,7.1-33,11.5c-7,2.8-13.5,7.2-20.2,11.1
				c-3,1.7-5.8,3.8-8.8,5.8c-1.1-2.4-1.9-4.9-3.2-6.9c-3.7-5.6-7.9-10.6-12.7-14.9c-8-7.4-15.7-15.3-23.6-23c-2.2-2.2-4.7-4-7-6
				c12.9,19.1,25.2,38.4,34,60.9c0.5-0.4,1-0.8,1.5-1.2c2.5-2,4.9-4.1,7.4-6c6-4.4,12.6-7.2,19.3-9.7c6.1-2.3,12.2-5,18.4-6.6
				c7.7-1.9,15.6-3,23.4-4.3c5.5-0.9,11.1-1.6,16.6-2C792.5,288.4,797.7,288.6,803.1,288.6z M707.7,345.6c-0.1,0,0.4-0.1,0.7-0.4
				c9-7.8,19.2-12.7,29.1-18.2c8.4-4.7,16.9-9.1,25.4-13.7c3.2-1.7,6.3-3.6,9.4-5.4c3.7-2.2,7.4-4.4,11.5-6.9
				c-4.9-0.1-9.3-0.2-13.3,2.9c-1.2,0.9-2.6,1.5-4,2.2c-9,4.8-18,9.4-26.9,14.4c-5.8,3.3-11.5,7-17.2,10.7c-1.8,1.1-3.7,2.5-4.7,4.4
				c-1.2,2.4-1.8,1.5-2.9,0.3c-3.2-3.7-6.4-7.4-9.6-11c-2.5,1.4-4.9,2.8-7.5,4.3c-1.2-2.3-2.6-4.9-4-7.4c-1.9,0.7-3.7,1.3-5.5,1.9
				c0-1.3,0.2-2.5,0-3.6c-0.7-2.6-1.4-5.3-2.3-7.8c-0.9-2.5-1.7-5.5-3.3-7.2c-7.4-7.4-15.1-14.5-22.8-21.6c-0.9-0.8-2.3-1.9-3.1-1.6
				c-4.1,1.7-8.1,3.8-11.7,5.6c6.9,6.1,13.8,12.2,20.5,18.4c6.1,5.6,12.1,11.6,18.2,17.2c4.2,3.8,8.8,7,13,10.9
				C700.4,337.5,703.9,341.6,707.7,345.6z M814.3,265.2c-1.1-3.3-2.6-5.1-7.1-9c-1.2-1.1-2.3-1.2-3.8-0.7
				c-6.6,2.2-13.2,4.2-19.8,6.4c-11.3,3.7-22.6,7.4-33.9,11.4c-10.3,3.6-19.8,9.2-29.2,15.1c1.3,3.8,2.5,7.5,3.7,11.3
				c0.4-0.2,1.1-0.6,1.7-1c5.2-3,10.2-6.5,15.6-9c6.5-3.1,13.1-5.6,19.8-8.1c6.2-2.4,12.5-4.7,18.9-6.7c7.7-2.4,15.6-4.5,23.3-6.7
				C807.2,267.1,810.7,266.2,814.3,265.2z M670.3,385.8c10.8,14,20,29.6,26.2,47.9c3.5-1.9,6.7-3.9,9.9-5.4
				c9.6-4.4,19.3-8.5,29-12.7c9.1-4,18.1-8.4,27.3-11.8c9.6-3.6,19.4-6.6,30.2-6.9c-1.7-2.4-3.1-4.2-4.3-6.2
				c-0.9-1.6-1.9-1.7-3.4-1.2c-5.6,1.7-11.3,3.1-16.9,4.9c-9.9,3.1-19.7,6.2-29.5,9.9c-5.1,1.9-10.1,4.6-14.9,7.4
				c-4.1,2.4-7.9,5.6-11.8,8.5c-2.8,2.1-4.1,2-6.4-0.7c-3.2-3.7-6.2-7.8-9.7-11C687.7,400.6,678.9,393.3,670.3,385.8z M793.2,408.2
				c-1.6-4-4.6-6.5-7.8-8.8c-0.3-0.2-0.7-0.1-1-0.1c-1.6,0.3-3.3,0.5-4.9,1c-5,1.5-10.1,2.9-15,4.7c-6.9,2.5-13.7,5.3-20.4,8.2
				c-8.6,3.7-17.1,7.5-25.6,11.4c-6.1,2.8-12.2,5.8-18.2,8.6c1,3.5,2,6.6,2.9,9.9c0.4-0.2,0.9-0.5,1.4-0.8c4.4-2.6,8.7-5.8,13.3-7.8
				c10.1-4.5,20.3-8.7,30.6-12.4c10.4-3.7,20.9-6.6,31.4-9.9C784.2,410.9,788.7,409.6,793.2,408.2z M783.4,304
				c-20.2,11.1-40.1,22-59.9,32.9c0.1,0.2,0.1,0.4,0.2,0.7c1.4-0.3,2.8-0.7,4.2-1c5.2-1.2,10.5-2.3,15.7-3.5
				c3.4-0.7,6.8-1.5,10.2-2.2c4.9-0.9,9.8-1.9,14.8-2.7c4.6-0.7,9.2-1.5,13.8-1.9c4-0.3,8-0.1,12.5-0.1
				C790.9,318.4,787.1,311.1,783.4,304z M798.7,454.6c-1.4-3.6-2.7-5.1-6.7-8.6c-1.7-1.4-3.2-3.1-5.4-2.4c-2.4,0.7-4.9,1.2-7.1,2.4
				c-5.8,3.1-11.5,6.5-17.3,9.6c-12.7,6.9-25.5,13.4-37.7,21.7c-1.9,1.3-3.5,3.1-5.3,4.6C744.7,468.8,771.8,462.2,798.7,454.6z
				 M695.2,443.8c-2.4-6.7-4.9-13.1-7-19.6c-1.4-4.3-4.2-7-6.9-9.7c-4.2-4.2-8.7-8-13.1-12c-2.2-2-4.5-3.8-7.1-6
				c6.1,17.8,15.2,33.2,19.2,51.4c0.1,0.3,0.9,0.7,1.2,0.6C685.9,447,690.3,445.5,695.2,443.8z M798.4,467.3
				c0.2-0.2,0.3-0.4,0.5-0.7c-1.4-2.4-2.9-4.8-4-7.3c-1-2.1-2-2.1-3.7-1.5c-6.7,2.4-13.6,4.6-20.3,6.9c-12.9,4.4-25.8,8.9-38.8,13.3
				c-7.8,2.7-14.8,7.5-22.1,11.6c-0.8,0.4-1.6,0.9-2.4,1.4c-0.5-1.1-1-1.9-1.3-2.9c-1.9-6.5-5.5-11.7-9.2-16.7
				c-0.9-1.2-1.7-1.8-2.6,0.2c-1.4-2.6-2.7-4.9-3.9-7.2c-1.2,0.4-2.5,0.8-3.8,1.2c0.9-3.6-1.3-8.1-5.3-9.7
				c6.7,14.9,15.3,28.3,19,44.9c1.2-1.1,2.1-1.7,2.8-2.6c3.8-4.9,8.5-8.1,13.4-11c4.6-2.7,9.5-4.9,14.4-7.2c4-1.9,8-3.8,12.1-5.1
				c5.2-1.7,10.5-2.6,15.8-4.1c8.4-2.3,16.9-3.1,25.4-3.7C788.9,467.1,793.7,467.3,798.4,467.3z M696.8,552.1
				c-8.4-23.8-22-43.4-38-60.9c-0.6,0.7-1,1.1-1.3,1.5c-0.4,0.4-0.9,0.7-1.5,1.3c9.4,7.9,17.1,17.8,24.5,28
				c7.3,10.2,12.5,22.2,16.8,34.4c0.5,0,0.8,0,0.9-0.1c10.9-6.8,22.6-11.1,34.1-16.1c9.3-4.1,18.6-8.4,28.1-12
				c9.8-3.7,19.8-6.8,30.8-7.4c-1.8-1.9-2.2-4.9-4.8-4.5c-2.7,0.3-5.4,0.7-8,1.4c-5.2,1.4-10.3,3-15.4,4.8
				c-6.5,2.3-12.9,4.8-19.3,7.5c-9.5,4-19,8.2-28.4,12.6C709.4,545.4,703.5,548.7,696.8,552.1z M793.6,361.5
				c0.1,0.1,0.1,0.2,0.2,0.3c-0.4,0-0.8,0-1.1,0c-8,0.5-15.4,3.5-22.7,7.1c-6.9,3.4-13.6,7.4-20.5,10.8
				c-12.3,6.1-24.8,11.5-36.5,19.1c-1.7,1.1-3.4,2.1-5.2,3.2c1.8,2.6,3.4,4.9,5,7.3c1.4-1.1,2.7-2,4-3c7.8-6.4,16.3-11,24.9-15.6
				c8.4-4.5,17-8.5,25.3-13.1C775.9,372.5,784.7,366.9,793.6,361.5z M660.3,476.5c11.8,18.3,23.5,36.5,31.4,57.4
				c4.6-3.6,9.2-7.1,14.2-10.9c-1.9-2.7-3.7-5.8-6-8.3c-2.8-3.2-6.1-5.9-9-9c-1.8-2-3.7-2.8-6-1.7c-0.3,0.2-0.7,0.3-1.1,0.4
				c-0.1-3.8-1.3-6.8-3.6-9c-4-4-8-8.2-12.1-12.1C665.6,480.8,662.9,478.8,660.3,476.5z M803.3,331.4c-9.7,0-19.4,0-29.1,0
				c-1.7,0-3.5,0.4-5.2,0.7c-4.2,0.8-8.5,1.5-12.7,2.4c-5.5,1.2-11.1,2.2-16.5,3.8c-5,1.5-9.9,3.7-14.8,5.4
				c-7.2,2.5-14.1,6-20.5,10.8c-1.7,1.3-3.2,2.9-4.8,4.4c0.8,1.9,1.5,3.6,2.3,5.3c0.5-0.2,0.8-0.4,1.1-0.6c3.9-3,7.6-6.5,11.7-9
				c4.4-2.7,9.2-4.6,13.9-6.5c6.4-2.5,12.9-5.2,19.4-6.9c8-2.1,16.1-3.4,24.2-4.7c6-1,12-1.6,18.1-2c4.6-0.3,9.2-0.1,13.7-0.1
				C803.7,333.2,803.5,332.2,803.3,331.4z M702.7,372.5c2.9-2.5,5.6-5,8.5-7.1c7-5.1,14.9-7.5,22.5-10.9c7.8-3.5,15.9-5.5,24.1-7.3
				c9.4-2,18.8-3.8,28.3-4.4c5.8-0.4,11.7-0.4,17.5-0.6c0.7,0,1.3-0.1,2.1-0.1c-0.5-0.8-1-1.3-1.1-1.9c-0.6-2.4-1.9-3.3-3.9-3.2
				c-5.2,0.3-10.4,0.3-15.6,0.6c-2.2,0.1-4.5,0.2-6.7,0.6c-4.7,0.8-9.5,1.6-14.2,2.5c-4.8,0.9-9.8,1.6-14.5,3.1
				c-7.5,2.3-14.8,5.3-22.2,7.9c-7.1,2.5-13.5,6.7-19.6,11.9c-2.1,1.8-4.2,3.3-6.5,5.1C701.7,369.6,702.2,371,702.7,372.5z
				 M720.8,434c0,0.3,0.1,0.5,0.1,0.8c0.3,0,0.6,0.1,0.8,0.1c6.2-1.4,12.5-3,18.7-4.4c6.3-1.4,12.5-2.6,18.8-3.9
				c4.1-0.8,8.2-1.5,12.3-2.2c5.6-0.9,11.1-1.9,16.7-2.4c4.1-0.4,8.3-0.1,12.8-0.1c-1.8-3.8-3.4-7.3-5.2-10.7
				c-0.2-0.4-1-0.6-1.4-0.6c-3.5,0.5-7.1,0.8-10.5,1.9c-11.6,3.5-23.2,7.2-34.8,11.1C739.7,426.9,730.3,430.6,720.8,434z
				 M715.5,333.6c15.5-12.7,34-19.9,51.7-30.5c-1.2,0-1.8-0.1-2.5,0c-3.8,0.7-7.5,1.3-11.3,2.1c-3.6,0.8-7.3,1.3-10.7,2.6
				c-7.7,3.1-15.2,6.6-22.7,10c-4.4,2-8.7,3.9-12.8,5.7C710,326.9,712.7,330.1,715.5,333.6z M793.1,441.6c-0.9-1.9-0.9-4.1-3.2-4.1
				c-7.1,0-14.3-0.1-21.4,1.5c-8.4,1.8-17,3.1-25.5,4.7c-6.8,1.3-13.5,2.6-20.2,4.2c-6.5,1.6-13.1,3.5-19.5,5.6
				c-5.4,1.7-10.6,3.9-15.9,5.9c0.3,3.9,0.6,4.1,3.3,3.1c2.8-1,5.5-2,8.3-3c5-1.7,10.1-3.6,15.1-5c6.3-1.7,12.6-3.2,18.9-4.6
				c6.2-1.4,12.4-2.5,18.6-3.7c4.2-0.8,8.4-1.8,12.7-2.5c5.6-0.9,11.2-1.6,16.8-2.1C785.1,441.3,789,441.6,793.1,441.6z M714.7,311
				c0.1,0.3,0.2,0.5,0.4,0.8c4.5-1,8.9-2,13.4-3c5-1.1,10-2.3,15.1-3.4c3.9-0.8,7.8-1.5,11.7-2.2c4.2-0.8,8.4-1.5,12.6-2.2
				c4.4-0.7,8.8-1.6,13.2-1.9c4.4-0.3,8.9-0.1,13.8-0.1c-1.2-2.5-2.2-4.7-3.3-6.7c-0.3-0.6-1.2-1-1.8-1c-3.8,0.2-7.7,0.6-11.5,1
				c-2.8,0.3-5.5,0.7-8.3,1.2c-4,0.7-8.1,1.5-12.1,2.4c-4.7,1-9.4,2-14,3.4c-5.1,1.6-10.2,3.6-15.2,5.6
				C723.9,306.8,719.3,308.9,714.7,311z M689.9,502.7c7.8,6.1,14.4,13.3,18.6,23.5c2-1.5,3.9-2.9,5.8-4.2c4.6-3.1,9.2-6.4,14-9.1
				c4.5-2.5,9.2-4.6,13.9-6.3c7.9-2.9,15.9-5.4,23.9-8c5.3-1.7,10.6-3.1,15.9-4.4c3.6-0.9,7.3-1.3,11.2-2c-1.5-1.1-2.9-2.2-4.3-3.1
				c-0.6-0.4-1.5-0.6-2.1-0.4c-6.1,1.6-12.2,3.1-18.1,5c-10.6,3.4-21.2,6.9-31.6,10.9c-6,2.3-11.9,5.3-17.3,9.6
				c-3.4,2.8-7.2,5-10.8,7.4c-0.7-1.5-1.3-2.7-1.9-3.9c-3-5.6-6.4-10.7-10.8-14.9C694,500.7,692.2,501.2,689.9,502.7z M778.6,507.4
				c-3.6,0.2-6.9,0.1-10.1,0.6c-6.5,1-12.9,2.4-19.3,3.5c-6.4,1.1-12.7,2.4-18.8,5.1c-5.7,2.5-11.9,3.5-17.2,7.6
				c-1.7,1.4-3.6,2.6-5.4,3.9c-0.4-0.6-0.7-1.1-1-1.6c-1.7,1-3.2,2-4.7,2.9c0.8,2.8,1.5,5.4,2.2,8.1c0.5-0.3,1.2-0.7,1.9-1.1
				c10.7-7.2,22-12.5,33.7-16.6C752.6,515.6,765.3,511.7,778.6,507.4z M688.6,351.2c-0.7-1.3-1-2.5-1.7-3.2c-2-2.1-4.2-3.9-6.3-5.8
				c-4-3.7-7.8-7.5-11.9-11.1c-3.6-3.2-7.2-6.2-10.9-9.2c-0.5-0.4-1.4-1-1.9-0.7c-2.1,0.9-4,2-5.9,3c3.5,2.9,7,5.5,10.3,8.5
				c5.1,4.6,10,9.4,14.9,14.1c4.9,4.7,9.7,9.5,14.7,14.1c2.8,2.5,5.7,4.8,8.6,7.1c0.1-1,0-1.6-0.3-2.2c-1.7-3.6-3.5-7.1-5.3-10.7
				c-0.3-0.6-0.4-1.5-0.9-2C691.1,352,690.2,349.9,688.6,351.2z M793.5,431.3c-0.8-1.6-1.4-2.9-2-4.2c-1.5-3.3-1.8-3.4-5.2-2.7
				c0.6,1.5,1.3,3.1,2,4.8c-4.3,0-8.3-0.2-12.3,0c-5.7,0.3-11.4,0.8-17.1,1.6c-4.5,0.6-8.9,1.7-13.3,2.5c-4.1,0.8-8.2,1.4-12.3,2.3
				c-5.2,1.2-10.4,2.5-15.6,3.9c-4,1.1-7.9,2.3-11.8,3.6c-1.6,0.5-3,3-5,1.1c-0.1-0.1-0.5,0.2-0.7,0.3c-1.3,0.4-2.7,0.8-4,1.2
				c-3,0.9-5.9,1.9-8.9,2.8c0.2,0.9,0.3,1.3,0.3,1.8c0.3,2.2,1.3,2.7,3,2c2.8-1.1,5.7-2.1,8.5-3.1c5-1.7,10-3.6,15.1-5.1
				c6.3-1.7,12.6-3.2,18.9-4.5c6.2-1.4,12.4-2.5,18.6-3.7c4.1-0.8,8.2-1.5,12.3-2.2c5.5-0.9,11-1.9,16.5-2.4
				C784.7,431,788.8,431.3,793.5,431.3z M649.9,246.7c3.4,1.5,6.9,2.8,10.4,4.6c9,4.6,16.2,12.5,23.5,20.2
				c3.4,3.7,7.1,7.1,10.7,10.5c3.9,3.8,8.2,7.1,11.7,11.3c3.1,3.7,5.5,8.3,8.3,12.7c0.6-0.4,1.4-1,2.2-1.6c0.8-0.6,1.6-1.2,2.5-1.8
				c3.7-2.6,3.7-2.6,1.2-7c-2.4,1.7-4.8,3.4-7.4,5.2c-2.1-7.5-6.4-12.8-10.9-17.5c-6.9-7.2-14.4-13.5-21.3-20.6
				c-6.3-6.4-12.9-12.2-20-17.2c-1.2-0.8-2.7-1.7-3.8-1.5C654.5,244.5,652.2,245.8,649.9,246.7z M697.4,545.6c0.4-0.1,0.6,0,0.8-0.1
				c11-5.1,22-10.3,33-15.3c6.4-3,12.9-5.8,19.4-8.6c7.4-3.2,14.8-6.5,22.6-8c5.8-1,11.5-2.3,17.2-3.5c-1-3.3-2.1-3.9-5.1-2.9
				c-6.1,2-12.2,4-18.4,6c-11.3,3.8-22.7,7.2-33.8,11.5c-6.8,2.6-13.4,6.3-20,9.7c-3.4,1.7-6.6,3.7-10.1,5.7
				c-1.2-2.9-2.4-5.7-3.7-8.6c-2.1,1.9-3.9,3.5-5.8,5.2C695,539.6,696.2,542.6,697.4,545.6z M708.6,474.6c0.9-0.7,1.7-1.3,2.6-1.9
				c3.8-2.8,7.5-6.2,11.5-8.4c9.8-5.4,20.1-9.3,30.5-12.5c6.9-2.1,13.8-4.5,20.7-6.8c-2.1,0-4.2,0.3-6.2,0.7
				c-4.5,0.8-8.9,1.6-13.4,2.4c-4.1,0.7-8.2,1.5-12.3,2.3c-3.1,0.6-6.2,1.1-9.1,2.3c-5.4,2.1-10.6,4.6-15.9,7c-4.3,1.9-8.6,3.9-13,6
				C705.6,468.7,707,471.6,708.6,474.6z M772.8,447.7c-0.1-0.2-0.1-0.4-0.2-0.6c-0.6,0.2-1.2,0.4-1.7,0.6c-13,4.7-26,9.3-39,14
				c-7,2.5-13.1,7.4-19.4,11.9c0.5,0.9,1,1.8,1.5,2.5c0.5,0.8,1.4,1.4,1.7,2.2c0.8,2.2,1.8,1.8,3.1,0.8c8.2-6.4,16.7-12.1,25.8-16.7
				c5.5-2.8,11-5.7,16.5-8.6C765,451.9,768.9,449.8,772.8,447.7z M729.2,406.1c0.1,0.2,0.1,0.5,0.2,0.7c10.3-6,21.4-9.3,32.4-12.5
				c11.1-3.2,21.9-8.1,33.9-8.1c-4.1-3.3-7.8-6.4-11.6-9.3c-0.6-0.4-1.6-0.5-2.2-0.2c-8.3,4.7-16.4,9.7-24.7,14.4
				c-6.1,3.4-12.3,6.5-18.4,9.8C735.6,402.6,732.4,404.4,729.2,406.1z M670.3,265.8c-0.2,0.2-0.4,0.3-0.6,0.5c1,2.6,2,5.1,2.9,7.7
				c5.4,15.3,12.7,29.7,16.2,45.9c0.1,0.4,0.9,1,1.2,0.8c2.7-0.9,5.4-1.9,8.2-3c-2.4-5.6-4.3-11.3-7-16.4c-3.7-7-7.8-13.6-11.8-20.4
				C676.4,275.9,673.3,270.9,670.3,265.8z M645.5,379.6c14.2,8,26,20.3,38.8,30.9c-0.2-0.7-0.4-1.3-0.7-1.8
				c-3.5-5.3-7.1-10.6-10.6-16c-4.4-6.8-9.3-13.1-14.9-18.5c-0.4-0.4-1.2-0.6-1.6-0.3C652.7,375.8,649,377.8,645.5,379.6z
				 M793.6,480.7c-0.6-2.9-1.6-4.4-4.2-4.2c-3.6,0.3-7.2,0-10.8,0.1c-2.3,0.1-4.6,0.2-6.9,0.6c-5.1,0.9-10.1,2-15.2,3
				c-5.3,1.1-10.7,2-16,3.3c-5.5,1.3-11.1,2.8-16.5,4.5c-2.8,0.9-6.1,0.7-8.6,4.3c5.2-1.1,10-2.1,14.8-3.1
				c5.6-1.1,11.2-2.3,16.8-3.3c5.3-1,10.6-1.8,15.9-2.6c6.4-0.9,12.8-1.9,19.3-2.5C785.9,480.4,789.7,480.7,793.6,480.7z
				 M793.8,485.7c-1.6-1.7-3.6-3.1-6.1-2.3c-6.4,1.9-12.9,3.6-19.3,5.6c-9.9,3.1-19.9,6.3-29.7,9.9c-6.5,2.4-12.9,5.2-18.6,10.1
				c-3.2,2.8-6.8,5-9.9,7.2c-2.6-4.5-5-8.7-7.4-13c-0.8,0.8-1.3,1.4-1.5,1.7c3,4.9,5.9,9.6,8.9,14.4c0.3-0.2,0.8-0.6,1.3-0.9
				c5.8-3.9,10.8-9.3,17.2-11.9c5.9-2.4,11.6-5.2,17.5-7.5c4.6-1.8,9.3-3,14-4.4c6.6-2,13.2-4.2,19.9-6
				C784.6,487.3,789.3,486.6,793.8,485.7z M794.8,503.9c-1.9-2.9-3.5-5.5-5.2-7.9c-0.4-0.5-1.3-1-1.9-0.8c-5,1.1-9.9,2-14.8,3.5
				c-8.4,2.5-16.8,5.2-25.2,7.9c-1.9,0.6-3.8,1.3-5.8,2c-1.8,0.7-3.6,1.4-5.4,2.2C755.7,506.7,774.9,503.8,794.8,503.9z
				 M790.2,370.6c-3.4-2.7-3.4-2.7-6.9-0.6c-7.2,4.2-14.4,8.6-21.7,12.6c-11.8,6.5-24.1,11.9-35.4,19.8c-3.6,2.5-7.1,5.1-10.7,7.8
				c-0.4,0.3-0.6,1-1,1.8c8.6-4.7,16.6-9.2,24.7-13.6c7.8-4.2,15.8-8.1,23.5-12.4c6.6-3.7,12.9-7.9,19.4-11.6
				C784.7,372.8,787.5,371.8,790.2,370.6z M652.5,275.6c9.5,8.5,19.2,17.2,28.8,25.8c-1.1-3.6-2.2-7.2-4-10.2
				c-2.1-3.7-4.7-6.9-7.1-10.3c-2.2-3.1-4.6-6-6.9-8.9c-0.4-0.5-1.4-0.8-2-0.6C658.2,272.8,655.1,274.3,652.5,275.6z M745.4,488.1
				c-1.5,0.2-3.7,0.5-5.8,0.9c-6.7,1.5-13.3,2.8-19.9,4.6c-4.1,1.1-8.8,0.5-11.9,4.7c2.4,3,4.8,6.1,6.8,8.7
				C725.1,500.5,735.5,494.1,745.4,488.1z M791.5,532c-1.5-3.2-2.7-5.8-4-8.3c-0.2-0.4-0.9-0.7-1.3-0.7c-2.5,0.3-5,0.4-7.4,1.2
				c-8.5,2.7-17,5.6-25.5,8.6c-3.4,1.2-6.7,2.8-10.1,4.2C759.2,534.9,774.8,530.1,791.5,532z M697.5,549.9c0.7-0.4,1.3-0.7,1.9-1.1
				c3.2-1.8,6.3-3.8,9.6-5.2c8.6-3.9,17.3-7.5,25.9-11.2c8.5-3.7,16.9-7.8,25.5-10.9c9.8-3.5,19.8-6.3,30.1-7.1
				c-0.2-1.6-0.8-2.7-2.5-2.3c-3.9,0.9-7.7,1.9-11.6,2.5c-8.2,1.3-16,4.4-23.8,7.6c-11.3,4.7-22.4,9.8-33.6,15
				c-7.3,3.4-14.6,7-21.9,10.6c-0.1-0.1-0.4-0.5-0.7-0.9c-0.1,0.1-0.2,0.2-0.2,0.2C696.7,547.9,697.1,548.8,697.5,549.9z
				 M681.2,322.7c2.5,8.3,5.1,16.5,7.5,24.8c0.3,1.1,0.5,1.6,1.6,1c1.5-0.7,3.2-1.1,4.7-1.7c1.4-0.5,2.8-1,4.1-1.5
				c1.3-0.5,2.6-1.1,3.8-1.7c0.1-0.3,0.1-0.6,0.2-0.8C695.8,336,688.4,329.3,681.2,322.7z M793.1,435.4c0.1-0.2,0.2-0.4,0.3-0.5
				c-0.6-0.5-1.2-1.5-1.7-1.4c-6.3,0.1-12.7,0-19,0.6c-4.5,0.4-8.9,1.6-13.3,2.4c-6,1.1-12.1,1.7-18.1,3.2
				c-12.7,3.2-25.3,6.7-38,10.2c-5.2,1.5-10.3,3.5-15.4,5.3c0,0.3,0,0.6,0,0.8c0.5,0,1.1,0.2,1.6,0.1c4.2-1.4,8.4-2.8,12.6-4.2
				c4.8-1.6,9.5-3.3,14.4-4.5c6-1.5,12.1-2.7,18.2-4c5.4-1.1,10.9-2.3,16.4-3.3c4.3-0.8,8.6-1.5,13-2.2c5.8-0.9,11.6-1.9,17.4-2.4
				C785.2,435.1,789.2,435.4,793.1,435.4z M660,437.7c0.2-0.2,0.4-0.5,0.6-0.7c2.3,3.4,4.4,7,6.8,10.3c3.5,4.9,7.2,9.5,10.5,14.5
				c4.4,6.6,8.6,13.4,11.4,21.3c1.3,3.6,2.9,7.1,4.4,10.6c0.2,0.5,0.9,0.7,1.4,1.1c0.2-0.7,0.8-1.5,0.6-2c-1.5-4.3-2.9-8.8-4.9-12.8
				c-4.2-8.3-8.7-16.4-12-25.3c-0.5-1.3-1.3-2.6-2.3-3.4C671.1,446.7,665.5,442.2,660,437.7z M673.2,515.2c0,0.4-0.1,0.6-0.1,0.7
				c4.4,12.1,10,23.6,12.7,36.6c0.1,0.4,0.9,1,1.2,0.9c2.2-0.7,4.5-1.5,6.5-2.2C688.7,537.5,681.3,526.2,673.2,515.2z M684.8,502
				c0.3-0.1,0.5-0.2,0.8-0.3c0-1.2,0.2-2.6,0-3.7c-0.7-3.2-1.4-6.3-2.4-9.3c-3-9-6.1-18-9.1-27c-1.1-3.4-2.5-6.5-4.8-9
				c-2-2.2-3.5-5-5.4-7.4c-1.5-2-3.2-3.9-4.8-5.8c-0.2,0.2-0.4,0.4-0.5,0.5c6.4,9,10,19.8,14.5,30.1
				C677.5,480.4,682.6,490.4,684.8,502z M675.2,436c-5.2-9.9-11.8-18.2-18.8-25.7c-4.2,1.9-8.2,3.7-11.9,5.5
				c5.5,1.7,11,4.2,16.3,7.6C666,426.9,670.3,431.9,675.2,436z M668.3,380.3c-0.1,0.1-0.2,0.3-0.3,0.4c1.5,1.4,2.9,2.8,4.4,4.2
				c5,4.7,9.9,9.5,15,14c3.2,2.8,6.7,5.1,9.8,7.9c3.6,3.3,6.9,7,10.5,10.8c2-1.5,4.3-3.3,6.5-5.1c-3.6-2.2-5.5-6.5-8.7-9.3
				c-1.5,1.5-3.9,1.7-4.8,4.8c-0.4-0.2-1.2-0.3-1.8-0.8c-1.3-1.2-2.4-2.6-3.6-3.8c-2.9-3-5.7-6.2-8.8-8.8c-4.4-3.7-9-6.9-13.5-10.4
				C671.5,383.1,669.9,381.7,668.3,380.3z M680.5,493.4c-1.1-4.2-2.4-8-5.5-10.7c-3.9-3.3-7.4-7.1-11.2-10.4
				c-1.9-1.7-4.3-2.8-6.2-4.5c-4.3-3.9-8.8-3.7-13.7-1.1C658.6,470.9,669.9,481.5,680.5,493.4z M791.9,474c-0.4-2.5-1.2-3.9-3.6-3.7
				c-4.8,0.5-9.6,0.7-14.4,1.1c-2.4,0.2-4.8,0.8-7.2,1.3c-4.8,1.1-9.6,2.5-14.5,3.2c-6.8,1.1-13.1,4.2-19.5,7.1
				c0.4,0.1,0.8,0.1,1.2,0c4.1-1,8.1-2,12.2-2.9c6.2-1.4,12.4-2.8,18.6-3.9c5.1-0.9,10.2-1.8,15.3-2.2
				C783.9,473.7,787.9,474,791.9,474z M654.7,316.2c11.7,8.4,21.3,19.7,32.3,28.7c-3-4.8-4.6-10.5-8.7-14.3
				c-6.4-5.9-12.7-11.6-20.5-14.4C656.8,315.9,655.7,316.2,654.7,316.2z M666.8,236.8c1.3,0.5,2.9,0.6,4.1,1.5
				c4.4,3.1,8.8,6.3,13,9.8c4.3,3.6,8.6,7.4,12.7,11.4c5.2,5.1,11.2,9,15.2,15.7c0.4,0.7,1,1.2,1.5,1.8c0.5,0.6,1,1.1,1.5,1.7
				c-2-4.2-3.9-8.3-7.2-11.3c-3-2.8-5.3-6.6-8.4-9.3c-8.2-7.2-16.6-13.9-24.8-21.2C671.7,234.4,669.3,234.1,666.8,236.8z
				 M758.2,349.9c-15.1,3.3-29.7,8.3-43.7,16.4c1.1,2.2,2.1,3.9,3.2,6.1C729.9,361.5,743.7,354.7,758.2,349.9z M772.4,348.1
				c-0.6-0.1-0.8-0.3-1-0.2c-4.9,1.8-10,3.3-14.8,5.5c-11.1,5.1-21.8,11.6-32.2,18.6c-1.9,1.2-3.4,3.2-5.1,4.9
				c0.1,0.3,0.3,0.5,0.4,0.8C736.4,365.9,754.7,358.5,772.4,348.1z M654.8,262.1c7.1,6.8,14.3,13.1,19.9,21.7
				c-4.1-9.2-6.8-19.2-12.3-27.9C659.8,257.9,657.4,259.9,654.8,262.1z M651.4,404.2c6.7,6.5,14,11.7,18.9,20.4
				c0.2-0.6,0.2-1.1,0.1-1.4c-3.3-7.9-6.7-15.8-10-23.8c-0.6-1.5-1.4-1.1-2.2-0.5C655.9,400.6,653.8,402.3,651.4,404.2z
				 M675.9,462.1c0.4,1.3,0.7,2.2,1,3.1c3.6,10.4,7.8,20.5,9.8,31.6c0.1,0.4,1,1,1.3,0.9c1.7-0.5,3.3-1.3,4.9-1.9
				C687.9,484.2,683.6,472.1,675.9,462.1z M718.1,483.5c-2.6-2.9-5.1-5.8-7.5-8.5c-1.1,0.6-1.9,1.2-2.7,1.6
				c-1.8-3.4-3.5-6.6-5.4-10.1c-1.2,0.7-2.1,1.3-3.1,1.9c3.9,6.5,8.2,12.5,8.9,21C711.6,487.4,714.7,485.5,718.1,483.5z
				 M733.8,309.7c-1.1,0.1-1.7,0.1-2.2,0.3c-4.5,1.1-9,2.3-13.6,3.4c-5.3,1.3-10.7,2.3-15,7c-2.4,2.6-2.5,2.4-4.3-0.7
				c-1.2,0.5-2.3,1-3.6,1.6c0.8,2,1.6,3.8,2.2,5.3C709.4,321,721.3,315.5,733.8,309.7z M724.5,503.6c17.7-9.7,36.8-14.3,55.3-20.9
				C760.1,484.8,741.8,492.2,724.5,503.6z M675.2,479.5c-0.8-4.1-3.4-7.1-6.5-9.6c-3.7-3-7.5-5.9-11.4-8.7
				c-4.3-3.1-8.7-3.5-11.7-1.6c4.9,2.7,10.4,5.1,15.4,8.5C666.1,471.5,670.7,475.8,675.2,479.5z M663.8,308.3
				c-3.8,1.6-7.3,3.1-9.8,4.1c6.7,3.7,14.1,7.9,21.4,12C671.7,319.2,667.7,313.7,663.8,308.3z M724,454.6c0-0.2-0.1-0.4-0.1-0.6
				c-10.5,3.2-21.1,6.4-31.8,9.6c0.9,2.1,1.6,3.7,2.2,5C704.3,463.9,714.1,459.2,724,454.6z M696.3,358c3.8-3.1,7.5-6.2,11.2-9.2
				c-0.9-1.1-1.9-2.4-2.8-3.5c-3.9,1.5-7.7,2.9-11.5,4.3C694.2,352.5,695.3,355.3,696.3,358z M652.2,449.3c5.4,4.5,10.8,9,16.3,13.6
				c-2.7-5.9-5.5-11.7-8.2-17.6C657.5,446.7,654.8,448,652.2,449.3z M710.4,369.7c-1.5,1.3-3.1,2.8-4.4,4c2,2.8,4,5.6,6,8.4
				c0.3,0.4,1.1,0.5,1.5,0.3c1.9-1.3,3.7-2.7,5.2-3.9C716,375.5,713.3,372.6,710.4,369.7z M665,486.8c-3.6-5-6.7-9.6-10.1-13.9
				c-0.7-0.9-2.4-1.4-3.5-1.1c-1.7,0.5-3.2,1.8-4.7,2.7C653.4,477,658.4,483.1,665,486.8z M646.3,454.8c8.9,2.9,17,7.9,24.6,14.3
				c-0.2-0.8-0.5-1.6-1-2.1c-4.5-4-8.9-7.9-13.5-11.7c-1.3-1.1-2.9-2.6-4.4-2.6C650.2,452.7,648.2,454,646.3,454.8z M650.9,426.3
				c5.7,0.8,9.6,5.7,14.2,9c4.6,3.3,8.9,7.3,13.4,11.1c-0.5-1.1-1.1-2.1-1.9-2.8c-6.8-5.8-12.8-13-20.3-17.8
				C653.9,424.3,652.6,425.1,650.9,426.3z M700.6,441.8c-1.4-2.3-1.9-4.9-4.3-6.7c-2-1.5-2.8-5.4-4.2-8.1c-0.5-0.9-1-1.7-1.6-2.6
				c-0.2,0.1-0.4,0.3-0.5,0.4c0.3,0.7,0.6,1.4,0.8,2.1c1.3,3.9,2.8,7.7,3.8,11.6C696,444.3,695.9,444.4,700.6,441.8z M646.7,444.6
				c1.2,0.6,2.7,1.4,4.3,2.1c0.5,0.2,1.2,0.3,1.7,0c2.1-1,4.2-2.1,6.4-3.3c-0.9-1.3-1.8-2.6-2.4-3.6
				C653,441.5,649.7,443.1,646.7,444.6z M714.5,509.3c-1.6-1.9-3.3-3.7-4.9-5.5c-0.9-1-1.9-2-2.9-2.9c-0.3-0.2-0.7-0.2-1.1-0.2
				c0,0.4-0.1,1,0,1.3c1.7,3.4,3.4,6.8,5.1,10.3C712.1,511.2,713.3,510.3,714.5,509.3z M709.4,347.7c7-3,14.1-6.2,21.3-9.3
				C723.2,340.5,714.9,340,709.4,347.7z M657.9,488.7c8.5,7.3,15.2,16.9,22.3,26.1C673.1,505.7,667.9,494.3,657.9,488.7z
				 M784.3,424.2c-6.3,1-12.6,2.1-18.5,3c6.3,0,12.8,0,19.7,0C785.1,426,784.8,425.2,784.3,424.2z M741.9,358.7
				c-5.2,1.3-14.1,6.7-16.7,10C730.8,365.3,736.1,362.1,741.9,358.7z M795.9,433.2c-0.5,0.1-1,0.2-1.5,0.3c0.2,0.5,0.3,0.9,0.3,0.9
				c1.8-0.6,3.5-1.2,5.7-1.9c-2.3-1.5-4.3-2.9-6.8-4.5C794.6,430.1,795.2,431.6,795.9,433.2z M798.3,328.2c0.2-0.3,0.5-0.7,0.7-1
				c-1.9-2.9-3.8-5.7-5.7-8.6c0.7,2.8,1.9,5.3,3.1,7.7C796.8,327.1,797.6,327.6,798.3,328.2z M668.7,310.5c-0.2,0.2-0.4,0.4-0.7,0.7
				c2,2.8,4,5.5,6,8.3c0.2-0.2,0.4-0.4,0.6-0.7C672.6,316,670.6,313.3,668.7,310.5z M671.9,436.5c-1.9-3.6-7-8.2-8.9-8.5
				C666,430.8,668.9,433.7,671.9,436.5z M710.3,418.8c0.1,0.2,0.2,0.5,0.4,0.7c2.7-2,5.4-3.9,8-5.9c-0.1-0.2-0.2-0.4-0.3-0.6
				C715.7,415,713,416.9,710.3,418.8z M648.7,373.7c0.8,2.2,1.9,1.9,5.3-1.2C652,372.9,650.3,373.3,648.7,373.7z M715.7,373.1
				c-1-4.7-1.9-6-3.5-4.8C713.4,369.9,714.5,371.4,715.7,373.1z M793.4,273.1c1.7,0,3.5,0,5.6,0
				C796.9,270.7,795.2,272.7,793.4,273.1z"/>
		</g>
	</g>
	<g id="van">
		<g>
			<path d="M800.2,125.2c-1.6,0.8-3.3,1.6-5.3,2.6c0,4.5,0,9.4,0,14.4c0,0.5,0.5,1,0.9,1.4c2.3,2.1,2,4.7,1.2,7.2
				c-0.6,1.9-2.4,2.6-4.4,2.6c-4.1,0-8.3,0-12.4,0c-0.9,0-1.8,0.1-2.6,0.1c-0.9,17.1-15.6,25.1-27.3,24.5
				c-11-0.6-24.1-8.8-24.6-24.4c-44.5,0-89,0-133.8,0c-0.4,8.4-3.9,15.2-11.1,19.9c-4.9,3.2-10.3,4.6-16.1,4.3
				c-11.8-0.6-23.8-9.2-24.6-24.3c-0.8,0-1.7-0.1-2.6-0.1c-6.6,0-13.3-0.1-19.9,0c-2.6,0.1-4.7-0.6-6.2-2.8c0-1.7,0-3.3,0-5
				c1.9-1.8,2.2-4,2.2-6.5c-0.1-42.4-0.1-84.8,0-127.2c0-1.6,0.8-3.2,1.3-4.8c64.3,0,128.5,0,192.8,0c0.5,1.5,1.3,3.1,1.3,4.6
				c0.1,14.9,0.1,29.7,0.1,44.6c0,1,0,2,0,3.5c2.3,0,4.4,0,6.5,0c6.8,0.1,13.6,0.2,20.4,0.2c3.8,0,6.8,1.4,9,4.4c3,4,6,8.1,9,12.2
				c5.1,7.1,10.2,14.3,15.4,21.3c0.6,0.8,1.6,1.3,2.6,1.5c2.7,0.6,5.4,0.9,8,1.6c6,1.6,11.4,4.1,14,10.3c0.1,0.4,0.4,0.8,0.8,0.9
				c1.8,0.7,3.7,1.3,5.6,2C800.2,117.9,800.2,121.5,800.2,125.2z M707.6,142.5c0-0.9,0.1-1.7,0.1-2.6c0-42.8,0-85.5,0-128.3
				c0-3.2-0.2-3.4-3.4-3.4c-62,0-124,0-186,0c-3.5,0-3.6,0.1-3.6,3.6c0,42.6,0,85.2,0,127.8c0,0.9,0,1.8,0,2.9
				c7.8,0,15.3,0,22.9-0.1c0.5,0,1.3-0.7,1.6-1.2c3.8-7.7,10.1-12.3,18.1-14.9c12.9-4.2,29.6,1.3,35.8,14.6c0.8,1.7,1.9,1.5,3.2,1.5
				c36.3,0,72.6,0,108.8,0C705.8,142.6,706.6,142.5,707.6,142.5z M709.1,142.6c4.8,0,9.4,0.1,13.9-0.1c0.6,0,1.4-0.7,1.7-1.3
				c2-3.7,4.7-6.9,8.1-9.6c13.9-11.2,37.6-7.3,45.7,9.6c0.3,0.6,1,1.3,1.5,1.4c4.5,0.1,9.1,0.1,13.5,0.1c0.2-0.5,0.2-0.7,0.2-0.8
				c0-7.6-0.1-15.1,0.1-22.7c0.2-8.5-2.8-12.5-10.9-15.8c-3.6-1.5-7.7-1.7-11.6-2.7c-1-0.3-2.2-0.8-2.8-1.6
				c-4.9-6.6-9.6-13.3-14.4-19.9c-3.3-4.6-6.7-9.2-10.1-13.8c-2.1-2.8-4.8-4.1-8.3-4.1c-7.1,0-14.3-0.2-21.4-0.2c-1.7,0-3.4,0-5.3,0
				C709.1,88.2,709.1,115.2,709.1,142.6z M751.6,130.1c-13.1-0.2-24.7,10.5-24.7,23.3c0,12.7,11.4,23.3,24.5,23.3
				c13.2,0,24.7-9.9,24.8-23.2C776.2,140.6,765.3,130.1,751.6,130.1z M566,176.5c13.1,0.1,24.7-10.1,24.6-23.4
				c0-13.2-11.3-23.2-24.5-23.3c-13.6-0.1-24.6,10.4-24.8,23.3C541.2,166,552.9,176.7,566,176.5z M590.1,143.7
				c0.5,2,1.3,3.7,1.3,5.5c0,2.7,1.2,3.2,3.6,3.1c42.5-0.1,85,0,127.5-0.1c0.7,0,1.5,0.1,2.2-0.1c0.4-0.1,1-0.6,1.1-1
				c0.6-2.5,1-5,1.5-7.5C681.6,143.7,636,143.7,590.1,143.7z M541.8,143.8c-0.3-0.1-0.6-0.2-0.8-0.2c-8.2,0-16.4,0-24.6,0
				c-2.9,0-4.1,1.3-4.1,4.4c0,3,1.1,4.3,4.2,4.3c6.7,0,13.4,0,20.1,0c1.1,0,2.3,0,3.3,0C540.6,149.3,541.2,146.5,541.8,143.8z
				 M725.8,143c1-0.5,2.4-0.8,3.1-1.6c3.8-5.3,8.5-9.3,14.9-11.3c11.2-3.4,24.1,1.1,30.1,11c1.1,1.8,2.3,1.7,3.9,1.4
				c-2.8-8.9-14.3-16-25.5-16.3C740.4,125.7,728.2,133.8,725.8,143z M540.2,143c1-0.5,2.4-0.8,3-1.7c3.8-5.3,8.4-9.4,14.8-11.4
				c11.4-3.6,24.2,1,30.2,10.8c1.1,1.8,2.3,2.3,4.1,1.7c-2.9-8.9-14-15.9-25.2-16.4C555.3,125.5,543.1,133.2,540.2,143z
				 M777.6,152.1c0.3,0.1,0.6,0.2,0.8,0.2c4.6,0,9.1,0,13.7,0c3.3,0,4.4-1.1,4.4-4.2c0-3.3-1.1-4.4-4.5-4.4c-2.2,0-4.3,0-6.5,0
				c-3.3,0-6.5,0-9.9,0C776.3,146.6,776.9,149.3,777.6,152.1z M794.9,113.7c0,3.6,0,7.2,0,10.8c0,1.7,1,2,2,1.3
				c0.8-0.5,1.6-1.7,1.7-2.6c0.2-2.2,0.1-4.4,0.1-6.7C798.7,113.9,797.8,113.3,794.9,113.7z"/>
			<path d="M763.7,100.1c-16.9,0-33.8,0-50.9,0c0-11.7,0-23.3,0-35.3c1.6,0,3.1,0,4.7,0c5.4,0,10.8,0.3,16.2,0
				c3.9-0.2,6.2,1.7,8.3,4.3c0.1,0.1,0.1,0.1,0.1,0.2c5.8,8.2,11.6,16.3,17.4,24.5c1.4,2,3,3.8,4.6,5.7
				C763.9,99.7,763.8,99.9,763.7,100.1z M713.7,99.1c16.2,0,32.2,0,48.7,0c-1.2-1.4-2.1-2.4-2.9-3.5c-5.8-8.1-11.6-16.3-17.4-24.5
				c0-0.1-0.1-0.1-0.1-0.2c-2.4-3.4-5.2-5.5-9.9-5.1c-5.1,0.5-10.3,0.1-15.4,0c-1,0-1.9,0-2.9,0C713.7,77.1,713.7,88.1,713.7,99.1z"
				/>
			<path d="M751.5,163.1c-5.6-0.1-9.8-4.3-9.8-9.8c0-5.5,4.5-9.6,10.2-9.7c5.1-0.1,10.5,5.3,10.4,10
				C762.2,158.1,756.7,163.7,751.5,163.1z M751.8,162.1c4.7,0,9.1-4.1,9.4-8.6c0.2-4.2-4.7-8.8-9.4-8.9c-5.1,0-9.1,3.9-9,8.9
				C742.8,158.4,746.7,162.1,751.8,162.1z"/>
			<path d="M566.2,143.5c4.8-0.5,10.7,5,10.5,9.8c-0.3,5-5,9.7-10.4,9.7c-5.7,0-10.1-4.2-10.1-9.8
				C556.1,147.6,560.4,143.5,566.2,143.5z M566.1,144.5c-5.1,0-9,3.8-9,8.7c0,5,4.1,8.8,9.2,8.8c5.7-0.1,9.1-5.2,9.2-8.7
				C575.6,149.8,571.9,144.2,566.1,144.5z"/>
			<path d="M751.7,149.5c2.5,0,4.3,1.8,4.2,4.2c-0.1,2.3-1.9,3.9-4.3,3.9c-2.6,0-4.3-1.7-4.3-4.1
				C747.3,151.1,749.1,149.5,751.7,149.5z M751.8,150.3c-2.1-0.1-3.6,1.3-3.6,3.2c0,1.8,1.4,3.1,3.4,3.1c2,0,3.4-1.2,3.5-3
				C755,151.8,753.7,150.4,751.8,150.3z"/>
			<path d="M570.3,153.3c0,2.3-1.8,4-4.2,4c-2.5,0-4.4-1.7-4.5-4c-0.1-2.4,2-4.2,4.6-4.2C568.6,149.3,570.3,151.1,570.3,153.3z
				 M569.5,153.4c0.1-1.8-1.4-3.3-3.3-3.3c-2,0-3.4,0.9-3.6,3c-0.2,1.9,1.3,3.4,3.4,3.4C567.9,156.5,569.4,155.2,569.5,153.4z"/>
		</g>
	</g>
	<g>
		<rect x="392.4" y="441" class="st0" width="179.6" height="63.5"/>
		<path d="M420.4,464.3c2,0.8,3.5,2,4.6,3.6s1.6,5.4,1.6,11.3c0,4.3-0.4,7.5-1.3,9.6c-0.8,2.1-2.5,3.8-4.9,5.1c-2.4,1.3-5.7,2-9.8,2
			c-4,0-7.1-0.6-9.5-1.9c-2.3-1.3-4-2.9-5-5c-1-2.1-1.5-5.6-1.5-10.4c0-3.3,0.2-6.1,0.7-8.5s2.1-4.3,4.7-5.8
			c-1.7-0.8-2.9-2.1-3.7-3.8c-0.8-1.7-1.2-3.9-1.2-6.6c0-4.6,1.3-8.1,3.9-10.4c2.6-2.3,6.4-3.5,11.5-3.5c5.9,0,10,1.2,12.3,3.7
			c2.3,2.5,3.4,6,3.4,10.5c0,2.9-0.4,5-1.1,6.3C424.2,461.8,422.7,463,420.4,464.3z M413.1,475.1c0-2.1-0.2-3.4-0.6-4.1
			c-0.4-0.7-1.1-1-2-1c-0.9,0-1.5,0.3-1.9,1s-0.6,2-0.6,4.1v7c0,2.3,0.2,3.8,0.6,4.5c0.4,0.7,1.1,1,2,1c1,0,1.6-0.3,1.9-1
			c0.3-0.7,0.5-2.2,0.5-4.6V475.1z M412.8,452.7c0-1.8-0.2-3-0.5-3.6c-0.3-0.6-0.9-0.9-1.8-0.9c-0.9,0-1.5,0.3-1.8,0.9
			c-0.3,0.6-0.5,1.8-0.5,3.5v4.1c0,1.6,0.2,2.7,0.5,3.4c0.4,0.6,1,0.9,1.8,0.9c0.9,0,1.5-0.3,1.8-0.9c0.3-0.6,0.5-1.9,0.5-3.8V452.7
			z"/>
		<path d="M439,484.3v4.8c0,2.5-0.3,4.6-0.9,6.2c-0.6,1.6-1.6,3-3.1,4.1c-1.5,1.1-3.1,1.9-5,2.3v-3.9c1.3-0.8,2.1-1.8,2.3-3H430
			v-10.5H439z"/>
		<path d="M468.2,464.3c2,0.8,3.5,2,4.6,3.6s1.6,5.4,1.6,11.3c0,4.3-0.4,7.5-1.3,9.6c-0.8,2.1-2.5,3.8-4.9,5.1c-2.4,1.3-5.7,2-9.8,2
			c-4,0-7.1-0.6-9.5-1.9c-2.3-1.3-4-2.9-5-5c-1-2.1-1.5-5.6-1.5-10.4c0-3.3,0.2-6.1,0.7-8.5s2.1-4.3,4.7-5.8
			c-1.7-0.8-2.9-2.1-3.7-3.8c-0.8-1.7-1.2-3.9-1.2-6.6c0-4.6,1.3-8.1,3.9-10.4c2.6-2.3,6.4-3.5,11.5-3.5c5.9,0,10,1.2,12.3,3.7
			c2.3,2.5,3.4,6,3.4,10.5c0,2.9-0.4,5-1.1,6.3C472,461.8,470.5,463,468.2,464.3z M460.9,475.1c0-2.1-0.2-3.4-0.6-4.1
			c-0.4-0.7-1.1-1-2-1c-0.9,0-1.5,0.3-1.9,1s-0.6,2-0.6,4.1v7c0,2.3,0.2,3.8,0.6,4.5c0.4,0.7,1.1,1,2,1c1,0,1.6-0.3,1.9-1
			c0.3-0.7,0.5-2.2,0.5-4.6V475.1z M460.7,452.7c0-1.8-0.2-3-0.5-3.6c-0.3-0.6-0.9-0.9-1.8-0.9c-0.9,0-1.5,0.3-1.8,0.9
			c-0.3,0.6-0.5,1.8-0.5,3.5v4.1c0,1.6,0.2,2.7,0.5,3.4c0.4,0.6,1,0.9,1.8,0.9c0.9,0,1.5-0.3,1.8-0.9c0.3-0.6,0.5-1.9,0.5-3.8V452.7
			z"/>
		<path d="M508.3,441v8.6h-16.6v9.1c2.1-2.5,4.8-3.7,8-3.7c3.7,0,6.5,1,8.4,3.1c1.9,2.1,2.8,6.1,2.8,11.9v7.7c0,3.8-0.2,6.6-0.5,8.4
			c-0.4,1.8-1.1,3.4-2.3,5c-1.2,1.5-2.9,2.7-5,3.5c-2.1,0.8-4.7,1.2-7.8,1.2c-3.5,0-6.5-0.6-9.1-1.8c-2.6-1.2-4.5-3-5.6-5.4
			s-1.7-6.1-1.7-11.1v-2.9h13.4v3.4c0,3.5,0.1,5.9,0.4,7.4c0.2,1.5,1.1,2.2,2.5,2.2c0.7,0,1.2-0.2,1.6-0.6s0.6-0.9,0.7-1.4
			c0-0.5,0.1-2.6,0.1-6.3v-10.7c0-2-0.2-3.4-0.6-4.1c-0.4-0.7-1.1-1.1-2.1-1.1c-0.6,0-1.1,0.2-1.6,0.6c-0.4,0.4-0.7,0.8-0.8,1.2
			c-0.1,0.4-0.2,1.4-0.2,3h-13.3l0.6-27.1H508.3z"/>
		<path d="M547.2,459.2v17.9c0,4.1-0.2,7-0.7,8.9c-0.4,1.9-1.4,3.6-2.8,5.2s-3.1,2.8-5.1,3.5s-4.2,1.1-6.6,1.1c-3.2,0-5.9-0.4-8-1.1
			s-3.8-1.9-5.1-3.5c-1.3-1.6-2.2-3.2-2.7-5c-0.5-1.7-0.8-4.5-0.8-8.3v-18.8c0-4.9,0.4-8.6,1.3-11.1c0.9-2.5,2.5-4.4,5.1-5.9
			c2.5-1.5,5.6-2.2,9.2-2.2c2.9,0,5.6,0.5,7.9,1.5c2.3,1,4.1,2.3,5.2,3.8c1.2,1.5,1.9,3.2,2.3,5C547,452.2,547.2,455.1,547.2,459.2z
			 M533.7,454.7c0-2.9-0.1-4.6-0.4-5.4c-0.3-0.7-0.9-1.1-1.9-1.1c-1,0-1.7,0.4-2,1.1s-0.5,2.5-0.5,5.3V481c0,3.1,0.1,5,0.4,5.6
			c0.3,0.6,0.9,1,1.9,1s1.7-0.4,2-1.1c0.3-0.8,0.5-2.4,0.5-5.1V454.7z"/>
	</g>
	<g id="grave">
		<rect x="570" y="461.2" width="62.5" height="78.3"/>
		<path d="M570,461.2c0,0,12.3-25.1,31.3-25.1c19,0,31.3,25.1,31.3,25.1"/>
		<g>
			<rect x="581.2" y="473.2" class="st0" width="47.9" height="28.3"/>
			<path class="st1" d="M585.1,478.5v5.2c0,0.3,0,0.5,0.1,0.6c0.1,0.1,0.3,0.2,0.5,0.3v0.3h-3v-0.3c0.3-0.1,0.4-0.2,0.5-0.3
				c0.1-0.1,0.1-0.3,0.1-0.6v-11.8c0-0.3,0-0.5-0.1-0.6s-0.3-0.2-0.5-0.3v-0.3h7.8c1.1,0,1.9,0.1,2.5,0.2c0.6,0.1,1.2,0.3,1.6,0.6
				c0.5,0.3,0.9,0.7,1.2,1.2c0.3,0.6,0.5,1.2,0.5,2c0,1.1-0.4,2-1.1,2.7c-0.7,0.7-1.7,1.1-3,1.2l3.6,5.6c0.2,0.3,0.5,0.5,0.9,0.5
				v0.3h-3.3v-0.3c0.3-0.1,0.5-0.2,0.5-0.3c0-0.1-0.1-0.3-0.4-0.7l-3.2-5.1H585.1z M585.1,477.2h5.8c0.8,0,1.4,0,1.8-0.1
				c0.4-0.1,0.8-0.2,1.1-0.4c0.7-0.4,1.1-1.1,1.1-2.1c0-1-0.4-1.7-1.1-2.1c-0.3-0.2-0.7-0.3-1.1-0.4c-0.4-0.1-1-0.1-1.9-0.1h-5.6
				V477.2z"/>
			<path class="st1" d="M599.9,483.7v-11.8c0-0.3,0-0.5-0.1-0.6s-0.3-0.2-0.5-0.3v-0.3h3v0.3c-0.3,0.1-0.4,0.2-0.5,0.3
				c-0.1,0.1-0.1,0.3-0.1,0.6v11.8c0,0.3,0,0.5,0.1,0.6c0.1,0.1,0.3,0.2,0.5,0.3v0.3h-3v-0.3c0.3-0.1,0.5-0.2,0.5-0.3
				C599.8,484.2,599.9,484,599.9,483.7z"/>
			<path class="st1" d="M607.7,478.5v5.3c0,0.2,0,0.4,0.1,0.5s0.3,0.2,0.5,0.3v0.3h-3v-0.3c0.3-0.1,0.4-0.2,0.5-0.3s0.1-0.3,0.1-0.5
				v-12.1c0-0.2,0-0.4-0.1-0.5c-0.1-0.1-0.3-0.2-0.5-0.3v-0.3h7.5c1.1,0,1.9,0.1,2.5,0.2c0.6,0.1,1.1,0.3,1.6,0.6
				c0.5,0.3,0.9,0.7,1.2,1.2c0.3,0.6,0.5,1.2,0.5,1.9c0,1-0.3,1.8-0.9,2.5c-0.5,0.5-1,0.9-1.8,1.1c-0.7,0.2-1.7,0.3-3,0.3H607.7z
				 M607.7,477.2h5.4c0.8,0,1.4,0,1.8-0.1s0.7-0.2,1-0.4c0.7-0.4,1.1-1.1,1.1-2.1c0-1-0.4-1.7-1.1-2.1c-0.3-0.2-0.7-0.3-1-0.4
				c-0.4-0.1-1-0.1-1.8-0.1h-5.4V477.2z"/>
		</g>
	</g>
	<g id="arrow">
		<g>
			<line class="st2" x1="390.2" y1="542.9" x2="549.4" y2="542.9"/>
			<g>
				<path d="M555.6,542.9c-3,1.1-6.6,3-8.9,4.9l1.8-4.9l-1.8-4.9C549,539.9,552.7,541.8,555.6,542.9z"/>
			</g>
		</g>
	</g>
	<g>
		<rect x="399.8" y="504.6" class="st0" width="152.5" height="30.7"/>
		<path d="M410.5,523.8l-0.2,1.2c-2.1,2.1-3.9,3.2-5.4,3.2c-1.3,0-1.9-0.7-1.9-2c0-0.6,0.1-1.3,0.3-2.2l1.8-9.2
			c0.6-3.2,1.8-5.7,3.6-7.5c1.8-1.8,3.9-2.7,6.4-2.7c0.9,0,1.7,0.1,2.4,0.3l-1.8,1.9c-1-0.5-1.9-0.7-2.7-0.7c-1.4,0-2.5,0.5-3.2,1.5
			c-0.7,1-1.3,3-1.9,5.8l-2.1,10.5c-0.2,1-0.3,1.7-0.3,2c0,0.6,0.3,0.8,0.8,0.8c0.6,0,1.7-0.8,3.4-2.4
			C409.9,524.3,410.2,524.1,410.5,523.8z"/>
		<path d="M420.8,523.8l-0.2,1.2c-1.9,2.1-3.7,3.1-5.2,3.1c-1.3,0-1.9-0.7-1.9-2c0-0.5,0.1-1.2,0.3-2.2l0.9-4.6
			c0.2-1.3,0.4-2.2,0.4-2.6c0-0.7-0.3-1.1-0.9-1.1c-0.4,0-1.1,0.2-2.1,0.5l0.2-0.8l6.5-2.1l-1,4.2l-1.3,6.6c-0.2,1-0.3,1.7-0.3,2
			c0,0.6,0.3,0.9,0.8,0.9C417.7,526.7,419,525.8,420.8,523.8z M415.9,510.8l0.9-1.8l3.7-2.4l-1.1,2.4L415.9,510.8z"/>
		<path d="M413.6,536.5l1.9-2c0.8,0.3,1.7,0.5,2.6,0.5c1.3,0,2.2-0.4,2.9-1.3c0.7-0.9,1.2-2.3,1.5-4.3l2.5-15.1h-3l0.9-1h2.2l0-0.2
			c0.5-2.6,1.7-4.6,3.5-6.3c1.8-1.6,3.9-2.4,6.3-2.4c0.8,0,1.5,0.1,2.1,0.2l-1.9,2c-0.8-0.5-1.7-0.8-2.5-0.8c-1.3,0-2.3,0.4-3,1.2
			c-0.6,0.8-1.2,2.2-1.6,4.3l-0.4,1.9h5l-1.1,1.2c-1.1-0.1-2.3-0.2-3.4-0.2h-0.7l-1.9,11.4c-0.6,3.5-1.7,6.1-3.5,8s-3.9,2.8-6.6,2.8
			C415.1,536.7,414.4,536.6,413.6,536.5z"/>
		<path d="M444.7,524.2l-0.2,1c-2.8,2-5.2,2.9-7.2,2.9c-1.3,0-2.3-0.4-3.1-1.3c-0.8-0.9-1.2-2-1.2-3.4c0-2.5,1-4.8,2.9-7
			s3.9-3.3,6.1-3.3c0.8,0,1.4,0.3,1.9,0.8c0.5,0.5,0.7,1.2,0.7,2.1c0,1.7-0.9,3.2-2.6,4.4s-3.8,1.8-6.2,1.8l0,0.6
			c0,2.6,0.9,3.9,2.8,3.9C440.3,526.7,442.3,525.8,444.7,524.2z M435.9,521.4c2-0.2,3.5-0.7,4.6-1.5s1.7-2,1.7-3.3
			c0-1.4-0.5-2-1.5-2c-1.1,0-2.1,0.7-3.1,2.1C436.6,518,436.1,519.6,435.9,521.4z"/>
		<path d="M455,527.4l1.8-1.8c1.1,0.8,2.3,1.3,3.5,1.3c0.7,0,1.4-0.2,1.9-0.6s0.8-0.9,0.8-1.4c0-0.6-0.5-1.5-1.5-2.6l-1.2-1.3
			c-1.2-1.3-1.8-2.4-1.8-3.2c0-1.2,0.6-2.3,1.7-3.2c1.1-0.9,2.4-1.4,3.9-1.4c0.8,0,1.7,0.2,2.7,0.5l-0.6,2.9h-0.8l0-0.2
			c0-0.1,0-0.2,0-0.3c0-1.2-0.8-1.8-2.3-1.8c-1.7,0-2.6,0.7-2.6,2.1c0,0.7,0.5,1.6,1.5,2.8l1.1,1.2c1.2,1.3,1.8,2.4,1.8,3.3
			c0,1.2-0.6,2.2-1.9,3.2s-2.7,1.4-4.3,1.4C457.6,528.2,456.4,527.9,455,527.4z"/>
		<path d="M472.4,514.4h-3l0.9-1h2.3l0.8-3.8l2.7-0.7l-0.9,4.4h5l-1.1,1.2c-1.1-0.1-2.2-0.2-3-0.2H475l-1.8,9.1
			c-0.2,0.9-0.3,1.6-0.3,2c0,0.7,0.3,1,0.9,1c1,0,2.3-0.7,3.9-2.1l-0.2,1.2c-1.7,1.7-3.4,2.5-4.9,2.5c-1.5,0-2.3-0.8-2.3-2.5
			c0-0.6,0.1-1.4,0.3-2.4L472.4,514.4z"/>
		<path d="M485.5,528.2c-1.2,0-2.1-0.5-2.9-1.4c-0.8-0.9-1.2-2-1.2-3.4c0-2.5,1-4.9,2.9-7.1c1.9-2.2,4-3.2,6.3-3.2
			c1.2,0,2.2,0.4,3,1.3c0.8,0.9,1.2,2,1.2,3.4c0,2.6-1,5-2.9,7.2C490,527.1,487.8,528.2,485.5,528.2z M487,527
			c1.3,0,2.5-0.8,3.5-2.5c1-1.7,1.5-3.6,1.5-5.9c0-2.9-0.9-4.4-2.7-4.4c-1.3,0-2.4,0.9-3.4,2.6c-1,1.7-1.5,3.7-1.5,5.9
			C484.3,525.6,485.2,527,487,527z"/>
		<path d="M498.3,528l1-4.1l1.3-6.5c0.1-0.7,0.2-1.2,0.2-1.7c0-0.8-0.3-1.1-0.8-1.1c-0.9,0-2.3,1-4,3l0.2-1.2c2-2.2,3.8-3.3,5.3-3.3
			c1.3,0,1.9,0.7,1.9,2.2c0,0.6-0.1,1.4-0.2,2.1l-0.6,3.2h0.2c1.1-2.2,2.3-4,3.7-5.4c1.4-1.4,2.8-2.1,3.9-2.1c0.6,0,1.2,0.1,1.7,0.4
			l-1.8,2.4c-0.5-0.3-1-0.5-1.3-0.5c-1.7,0-4,2.5-6.9,7.6l-1,4.8L498.3,528z"/>
		<path d="M521.6,523.8l-0.2,1.2c-1.9,2.1-3.7,3.1-5.2,3.1c-1.3,0-1.9-0.7-1.9-2c0-0.5,0.1-1.2,0.3-2.2l0.9-4.6
			c0.2-1.3,0.4-2.2,0.4-2.6c0-0.7-0.3-1.1-0.9-1.1c-0.4,0-1.1,0.2-2.1,0.5l0.2-0.8l6.5-2.1l-1,4.2l-1.3,6.6c-0.2,1-0.3,1.7-0.3,2
			c0,0.6,0.3,0.9,0.8,0.9C518.5,526.7,519.8,525.8,521.6,523.8z M516.7,510.8l0.9-1.8l3.7-2.4l-1.1,2.4L516.7,510.8z"/>
		<path d="M534.4,524.2l-0.2,1c-2.8,2-5.2,2.9-7.2,2.9c-1.3,0-2.3-0.4-3.1-1.3c-0.8-0.9-1.2-2-1.2-3.4c0-2.5,1-4.8,2.9-7
			s3.9-3.3,6.1-3.3c0.8,0,1.4,0.3,1.9,0.8c0.5,0.5,0.7,1.2,0.7,2.1c0,1.7-0.9,3.2-2.6,4.4s-3.8,1.8-6.2,1.8l0,0.6
			c0,2.6,0.9,3.9,2.8,3.9C530,526.7,532,525.8,534.4,524.2z M525.6,521.4c2-0.2,3.5-0.7,4.6-1.5s1.7-2,1.7-3.3c0-1.4-0.5-2-1.5-2
			c-1.1,0-2.1,0.7-3.1,2.1C526.4,518,525.8,519.6,525.6,521.4z"/>
		<path d="M535.7,527.4l1.8-1.8c1.1,0.8,2.3,1.3,3.5,1.3c0.7,0,1.4-0.2,1.9-0.6s0.8-0.9,0.8-1.4c0-0.6-0.5-1.5-1.5-2.6l-1.2-1.3
			c-1.2-1.3-1.8-2.4-1.8-3.2c0-1.2,0.6-2.3,1.7-3.2c1.1-0.9,2.4-1.4,3.9-1.4c0.8,0,1.7,0.2,2.7,0.5l-0.6,2.9H546l0-0.2
			c0-0.1,0-0.2,0-0.3c0-1.2-0.8-1.8-2.3-1.8c-1.7,0-2.6,0.7-2.6,2.1c0,0.7,0.5,1.6,1.5,2.8l1.1,1.2c1.2,1.3,1.8,2.4,1.8,3.3
			c0,1.2-0.6,2.2-1.9,3.2s-2.7,1.4-4.3,1.4C538.3,528.2,537.1,527.9,535.7,527.4z"/>
	</g>
	<g id="stroller">
		<g>
			<path d="M349.6,431.4c0.8,1.2,1.6,2.5,2.4,3.7c-0.2,0.2-0.5,0.3-0.7,0.5c17.2,7.2,27.7,19.3,29,38.7c-15.4,0-30.4,0-45.7,0
				c1.8-6.4,3.5-12.7,5.2-19c1.9-7,3.9-14,5.9-20.9c0.3-1.1,1.2-2,1.9-3C348.2,431.4,348.9,431.4,349.6,431.4z"/>
			<path d="M354,542.3c-0.6-0.3-1.1-0.6-1.7-0.9c-6.7-2.8-10.4-9.6-9-16.6c1.4-7.1,7.7-12.2,14.8-12.1c7,0.1,13.1,5.3,14.3,12.1
				c1.3,7.3-2.3,14-9.2,16.7c-0.6,0.2-1.2,0.5-1.8,0.8C359,542.3,356.5,542.3,354,542.3z M357.9,518.5c-5.2,0-9.3,4.1-9.2,9.2
				c0,5.1,4.2,9.1,9.4,9.1c5-0.1,9-4.2,9-9.2C367,522.5,362.9,518.5,357.9,518.5z"/>
			<path d="M307.5,542.3c-2.5-1.7-5.5-3-7.6-5.2c-4.3-4.7-4.6-11.8-1.3-17.2c3.3-5.4,9.9-8.1,16-6.6c6.4,1.5,10.9,6.8,11.5,13.5
				c0.6,5.9-3.3,12.1-9.1,14.6c-0.7,0.3-1.5,0.7-2.2,1C312.4,542.3,310,542.3,307.5,542.3z M311.3,518.5c-5.1,0-9.1,4-9.2,9
				c-0.1,5.1,4.1,9.3,9.3,9.3c5,0,9-4.1,9-9.2C320.4,522.4,316.5,518.5,311.3,518.5z"/>
			<path d="M380.1,478.6c0,6.2-2.1,11.6-5.7,16.4c-8,10.3-19,15.2-31.6,16.9c-14.2,1.9-27.4-0.6-39.3-9
				c-7.6-5.4-12.7-12.4-13.7-21.9c-0.1-0.5-0.1-1-0.1-1.5c0-0.2,0.1-0.5,0.1-0.9C319.8,478.6,349.7,478.6,380.1,478.6z"/>
			<path d="M295,474.3c-1.7,0-3.4,0-5,0c-0.7-2.8-1.2-5.7-2.2-8.3c-1.4-3.8-3.8-6.6-8.3-7.1c-2.1-0.2-3.1-1.9-2.7-3.7
				c0.5-1.9,1.9-2.3,3.7-2c3.5,0.6,6.5,2,9,4.8C293,462.1,295.5,469.1,295,474.3z"/>
		</g>
	</g>
	<g>
		<rect x="535.2" y="45.5" class="st0" width="60" height="74.7"/>
		<path d="M557.1,45.5v51h-12.7V69.1c0-3.9-0.1-6.3-0.3-7.1c-0.2-0.8-0.7-1.4-1.6-1.8s-2.7-0.6-5.7-0.6h-1.3v-5.9
			c6.2-1.3,10.8-4,14-8.2H557.1z"/>
		<path d="M581.6,45.5v51h-12.7V69.1c0-3.9-0.1-6.3-0.3-7.1c-0.2-0.8-0.7-1.4-1.6-1.8s-2.7-0.6-5.7-0.6h-1.3v-5.9
			c6.2-1.3,10.8-4,14-8.2H581.6z"/>
	</g>
	<g>
		<rect x="465.4" y="123.8" class="st0" width="37.4" height="20.4"/>
		<path d="M475.7,140.6l-0.2,1.1c-1.7,1.8-3.2,2.7-4.6,2.7c-1.1,0-1.7-0.6-1.7-1.8c0-0.4,0.1-1,0.3-2l0.8-4c0.2-1.1,0.3-1.9,0.3-2.3
			c0-0.6-0.3-1-0.8-1c-0.3,0-1,0.1-1.9,0.4l0.1-0.7l5.7-1.9l-0.9,3.7l-1.1,5.7c-0.2,0.9-0.3,1.5-0.3,1.7c0,0.5,0.2,0.8,0.7,0.8
			C473,143.2,474.1,142.3,475.7,140.6z M471.4,129.2l0.8-1.6l3.3-2.1l-1,2.1L471.4,129.2z"/>
		<path d="M477.5,144.3l0.9-3.6l1.1-5.7c0.2-0.9,0.3-1.5,0.3-1.7c0-0.5-0.2-0.7-0.7-0.7c-0.8,0-1.9,0.9-3.5,2.6l0.2-1.1
			c1.7-1.8,3.2-2.7,4.6-2.7c1.1,0,1.7,0.6,1.7,1.7c0,0.4-0.1,1.1-0.3,2l-0.6,2.9h0.2c1-2,2.1-3.6,3.3-4.8c1.2-1.2,2.4-1.8,3.4-1.8
			c1.3,0,1.9,0.7,1.9,2.1c0,0.5-0.1,1-0.2,1.7l-1.1,5.7c-0.2,0.9-0.3,1.5-0.3,1.7c0,0.5,0.2,0.7,0.7,0.7c0.8,0,1.9-0.9,3.5-2.6
			l-0.2,1.1c-1.7,1.8-3.2,2.7-4.6,2.7c-1.1,0-1.7-0.6-1.7-1.8c0-0.4,0.1-1,0.3-2l1.1-5.7c0.1-0.4,0.1-0.8,0.1-1.1
			c0-0.6-0.2-0.9-0.7-0.9c-1.5,0-3.5,2.3-6.2,7l-0.8,4.1L477.5,144.3z"/>
	</g>
	<g>
		<rect x="594.3" y="52.2" class="st0" width="105.3" height="47.5"/>
		<path d="M595.4,79.3l2.1-2.1c1.4,1,2.8,1.5,4.2,1.5c0.9,0,1.6-0.2,2.2-0.7c0.6-0.5,0.9-1,0.9-1.7c0-0.7-0.6-1.8-1.8-3.1l-1.4-1.6
			c-1.4-1.5-2.1-2.8-2.1-3.8c0-1.4,0.7-2.7,2-3.8s2.9-1.7,4.6-1.7c1,0,2,0.2,3.2,0.6l-0.7,3.5h-1l0-0.3c0-0.1,0-0.2,0-0.3
			c0-1.4-0.9-2.1-2.7-2.1c-2,0-3.1,0.8-3.1,2.5c0,0.8,0.6,1.9,1.8,3.3l1.3,1.4c1.4,1.6,2.1,2.9,2.1,3.9c0,1.4-0.7,2.7-2.2,3.8
			c-1.5,1.1-3.2,1.7-5.1,1.7C598.5,80.2,597,79.9,595.4,79.3z"/>
		<path d="M616,63.9h-3.6l1.1-1.2h2.7l0.9-4.5l3.3-0.8l-1,5.2h5.9l-1.3,1.4c-1.4-0.1-2.6-0.2-3.6-0.2h-1.3L617,74.7
			c-0.2,1.1-0.3,1.9-0.3,2.3c0,0.8,0.4,1.2,1.1,1.2c1.1,0,2.7-0.8,4.6-2.5l-0.3,1.4c-2,2-4,3-5.9,3c-1.8,0-2.7-1-2.7-3
			c0-0.7,0.1-1.6,0.3-2.8L616,63.9z"/>
		<path d="M639.1,71.3h-0.3c-1.2,2.6-2.6,4.8-4.3,6.5c-1.7,1.7-3.2,2.5-4.7,2.5c-2.2,0-3.3-1.4-3.3-4.2c0-3.1,1.2-6,3.7-9
			c2.5-3,5.6-4.6,9.2-4.6c1.5,0,3.1,0.1,4.7,0.2l-1.1,4.7l-1.5,7.8c-0.2,1.2-0.4,2-0.4,2.4c0,0.7,0.3,1,0.9,1c1.1,0,2.6-1.2,4.7-3.5
			l-0.3,1.5c-2.3,2.5-4.4,3.7-6.2,3.7c-1.5,0-2.3-0.8-2.3-2.4c0-0.5,0.1-1.4,0.4-2.7L639.1,71.3z M640.3,65
			c-1.3-0.6-2.6-0.9-3.9-0.9c-1.9,0-3.4,1.2-4.6,3.6c-1.3,2.9-2,5.4-2,7.7c0,1.6,0.5,2.5,1.4,2.5c0.9,0,2.2-0.9,3.9-2.8
			c1.7-1.9,3.2-4.1,4.5-6.5L640.3,65z"/>
		<path d="M652.3,63.9h-3.6l1.1-1.2h2.7l0.9-4.5l3.3-0.8l-1,5.2h5.9l-1.3,1.4c-1.4-0.1-2.6-0.2-3.6-0.2h-1.3l-2.1,10.8
			c-0.2,1.1-0.3,1.9-0.3,2.3c0,0.8,0.4,1.2,1.1,1.2c1.1,0,2.7-0.8,4.6-2.5l-0.3,1.4c-2,2-4,3-5.9,3c-1.8,0-2.7-1-2.7-3
			c0-0.7,0.1-1.6,0.3-2.8L652.3,63.9z"/>
		<path d="M676.8,75.5l-0.2,1.2c-3.3,2.3-6.2,3.5-8.5,3.5c-1.5,0-2.7-0.5-3.6-1.6c-0.9-1-1.4-2.4-1.4-4.1c0-3,1.1-5.7,3.4-8.3
			c2.3-2.6,4.7-3.9,7.3-3.9c0.9,0,1.7,0.3,2.3,0.9c0.6,0.6,0.9,1.4,0.9,2.5c0,2-1,3.7-3.1,5.2c-2.1,1.4-4.5,2.2-7.4,2.2l0,0.7
			c0,3.1,1.1,4.6,3.4,4.6C671.6,78.4,674,77.4,676.8,75.5z M666.4,72.1c2.4-0.2,4.2-0.8,5.5-1.8s2-2.3,2-4c0-1.6-0.6-2.4-1.7-2.4
			c-1.3,0-2.5,0.8-3.7,2.5C667.3,68.1,666.6,70,666.4,72.1z"/>
		<path d="M678.4,79.3l2.1-2.1c1.4,1,2.8,1.5,4.2,1.5c0.9,0,1.6-0.2,2.2-0.7c0.6-0.5,0.9-1,0.9-1.7c0-0.7-0.6-1.8-1.8-3.1l-1.4-1.6
			c-1.4-1.5-2.1-2.8-2.1-3.8c0-1.4,0.7-2.7,2-3.8s2.9-1.7,4.6-1.7c1,0,2,0.2,3.2,0.6l-0.7,3.5h-1l0-0.3c0-0.1,0-0.2,0-0.3
			c0-1.4-0.9-2.1-2.7-2.1c-2,0-3.1,0.8-3.1,2.5c0,0.8,0.6,1.9,1.8,3.3l1.3,1.4c1.4,1.6,2.1,2.9,2.1,3.9c0,1.4-0.7,2.7-2.2,3.8
			c-1.5,1.1-3.2,1.7-5.1,1.7C681.5,80.2,680,79.9,678.4,79.3z"/>
	</g>
</g>
<g id="_x32_6520">
	<g>
		<rect x="285.3" y="222.3" class="st0" width="359.1" height="142.6"/>
		<path d="M341.6,302.5V319h-53.1l0-13.8c15.7-25.7,25.1-41.6,28-47.7c3-6.1,4.4-10.9,4.4-14.3c0-2.6-0.4-4.6-1.3-5.9
			c-0.9-1.3-2.3-1.9-4.1-1.9c-1.8,0-3.2,0.7-4.1,2.1c-0.9,1.4-1.3,4.3-1.3,8.5v9.2h-21.6v-3.5c0-5.4,0.3-9.7,0.8-12.8
			c0.6-3.1,1.9-6.2,4.1-9.2c2.2-3,5-5.3,8.5-6.9c3.5-1.6,7.7-2.3,12.6-2.3c9.6,0,16.8,2.4,21.8,7.1c4.9,4.8,7.4,10.8,7.4,18.1
			c0,5.5-1.4,11.4-4.1,17.5c-2.8,6.2-10.9,19.3-24.4,39.3H341.6z"/>
		<path d="M408.9,248h-24.1c0-4.5-0.1-7.3-0.1-8.5c-0.1-1.2-0.6-2.2-1.4-3c-0.9-0.8-2-1.2-3.5-1.2c-1.2,0-2.2,0.4-3,1.1
			c-0.8,0.8-1.3,1.7-1.4,2.9c-0.1,1.2-0.2,3.6-0.2,7.2V262c1.2-2.6,3-4.5,5.4-5.8c2.4-1.3,5.3-1.9,8.8-1.9c4.4,0,8.3,1.2,11.7,3.6
			c3.4,2.4,5.5,5.3,6.4,8.6c0.9,3.3,1.4,7.9,1.4,13.6v7.7c0,6.8-0.3,11.8-0.8,15.1c-0.5,3.3-1.9,6.4-4.1,9.2c-2.2,2.8-5.3,5-9.3,6.5
			c-3.9,1.6-8.5,2.3-13.7,2.3c-6.5,0-11.8-0.9-15.9-2.7c-4.1-1.8-7.3-4.4-9.6-7.7c-2.2-3.4-3.6-6.9-3.9-10.6
			c-0.4-3.7-0.6-10.9-0.6-21.5v-13.4c0-11.5,0.2-19.2,0.5-23.1c0.3-3.9,1.7-7.6,4.1-11c2.4-3.5,5.7-6.1,9.9-7.8
			c4.2-1.7,9-2.6,14.5-2.6c6.8,0,12.3,1.1,16.7,3.3c4.3,2.2,7.4,5.3,9.3,9.3C408,236.9,408.9,241.9,408.9,248z M384.8,278.1
			c0-3.4-0.4-5.8-1.1-7c-0.8-1.3-2-1.9-3.7-1.9c-1.7,0-2.9,0.6-3.7,1.8c-0.8,1.2-1.2,3.6-1.2,7.1v17.5c0,4.3,0.4,7,1.1,8.4
			c0.7,1.3,2,2,3.7,2c1,0,2.1-0.5,3.2-1.5c1.1-1,1.7-3.8,1.7-8.2V278.1z"/>
		<path d="M431.2,300v8.7c0,4.5-0.5,8.3-1.6,11.2c-1.1,2.9-2.9,5.4-5.6,7.4c-2.6,2-5.6,3.4-9,4.1v-6.9c2.4-1.4,3.7-3.2,4.1-5.4H415
			V300H431.2z"/>
		<path d="M490.4,222.3v15.5h-29.9v16.4c3.7-4.4,8.6-6.6,14.4-6.6c6.6,0,11.7,1.9,15.1,5.6c3.4,3.7,5.1,10.9,5.1,21.5v13.8
			c0,6.8-0.3,11.9-1,15.1c-0.7,3.2-2.1,6.2-4.2,8.9c-2.1,2.7-5.1,4.8-9,6.3s-8.5,2.2-14.1,2.2c-6.2,0-11.7-1.1-16.4-3.3
			c-4.7-2.2-8.1-5.4-10.1-9.7c-2-4.3-3-10.9-3-19.9v-5.3h24.1v6c0,6.2,0.2,10.7,0.7,13.3c0.4,2.6,1.9,3.9,4.5,3.9
			c1.2,0,2.2-0.4,2.9-1.1c0.7-0.8,1.1-1.6,1.2-2.4c0.1-0.9,0.1-4.7,0.2-11.4v-19.2c0-3.6-0.4-6.1-1.1-7.4c-0.8-1.3-2-2-3.8-2
			c-1.1,0-2.1,0.3-2.8,1c-0.8,0.7-1.2,1.4-1.5,2.2c-0.2,0.8-0.3,2.6-0.3,5.4h-23.9l1-48.7H490.4z"/>
		<path d="M552.9,302.5V319h-53.1l0-13.8c15.7-25.7,25.1-41.6,28-47.7c3-6.1,4.4-10.9,4.4-14.3c0-2.6-0.4-4.6-1.3-5.9
			c-0.9-1.3-2.3-1.9-4.1-1.9s-3.2,0.7-4.1,2.1c-0.9,1.4-1.3,4.3-1.3,8.5v9.2h-21.6v-3.5c0-5.4,0.3-9.7,0.8-12.8
			c0.6-3.1,1.9-6.2,4.1-9.2c2.2-3,5-5.3,8.5-6.9c3.5-1.6,7.7-2.3,12.6-2.3c9.6,0,16.8,2.4,21.8,7.1c4.9,4.8,7.4,10.8,7.4,18.1
			c0,5.5-1.4,11.4-4.1,17.5c-2.8,6.2-10.9,19.3-24.4,39.3H552.9z"/>
		<path d="M619.1,255v32.2c0,7.3-0.4,12.7-1.2,16s-2.4,6.5-5,9.4c-2.5,2.9-5.5,5-9.1,6.3c-3.5,1.3-7.5,1.9-11.9,1.9
			c-5.8,0-10.6-0.7-14.4-2c-3.8-1.3-6.9-3.4-9.1-6.2s-3.9-5.8-4.8-8.9c-1-3.1-1.4-8.1-1.4-14.9V255c0-8.9,0.8-15.5,2.3-19.9
			c1.5-4.4,4.6-8,9.1-10.6c4.6-2.7,10.1-4,16.6-4c5.3,0,10,0.9,14.2,2.8c4.2,1.9,7.3,4.1,9.4,6.8c2.1,2.7,3.5,5.7,4.2,9
			S619.1,247.7,619.1,255z M595,246.9c0-5.1-0.2-8.3-0.7-9.6c-0.5-1.3-1.7-1.9-3.5-1.9c-1.8,0-3,0.7-3.6,2.1
			c-0.6,1.4-0.9,4.5-0.9,9.5v47.2c0,5.6,0.3,9,0.8,10.1s1.7,1.7,3.5,1.7s3-0.7,3.5-2c0.6-1.4,0.8-4.4,0.8-9.1V246.9z"/>
	</g>
	<g>
		<rect x="321.1" y="342.8" class="st0" width="339.6" height="44.1"/>
		<path d="M313.7,384.6l2.4-2.5c1.2,0.6,2.4,0.9,3.7,0.9c3,0,4.9-2.5,5.9-7.4l2.7-13.5c0.3-1.7,0.5-2.9,0.5-3.4c0-1-0.4-1.5-1.1-1.5
			c-0.5,0-1.5,0.2-2.8,0.6l0.2-1.1l8.5-2.8l-1.3,5.6l-0.9,4.2h0.3c1.3-2.9,2.9-5.3,4.7-7.1c1.8-1.8,3.6-2.7,5.2-2.7
			c2.5,0,3.7,1.5,3.7,4.6c0,3.6-1.4,7-4.2,10.2c-2.8,3.2-5.8,4.8-9,4.8c-0.3,0-1-0.1-2-0.2c-0.1,0-0.3,0-0.6-0.1
			c-0.9,3.7-2.5,6.6-4.8,8.6c-2.3,2-5.1,3-8.4,3C315.5,384.9,314.6,384.8,313.7,384.6z M330,370.8c1.5,0.6,2.9,1,4.4,1
			c2.1,0,3.8-1.3,5-4c1.5-3.2,2.2-6,2.2-8.5c0-1.8-0.5-2.7-1.6-2.7c-1,0-2.4,1-4.3,3.1c-1.9,2.1-3.5,4.5-5,7.2L330,370.8z"/>
		<path d="M361.9,363.8h-0.3c-1.3,2.9-2.9,5.3-4.7,7.1s-3.6,2.8-5.2,2.8c-2.4,0-3.7-1.5-3.7-4.6c0-3.4,1.3-6.7,4-9.9
			c2.8-3.4,6.2-5,10.2-5c1.7,0,3.4,0.1,5.2,0.2l-1.3,5.2l-1.7,8.6c-0.3,1.3-0.4,2.2-0.4,2.6c0,0.7,0.3,1.1,1,1.1
			c1.2,0,2.9-1.3,5.2-3.8l-0.3,1.6c-2.5,2.7-4.8,4.1-6.9,4.1c-1.7,0-2.5-0.9-2.5-2.6c0-0.6,0.1-1.6,0.4-3L361.9,363.8z M363.3,356.9
			c-1.5-0.7-2.9-1-4.3-1c-2.1,0-3.8,1.3-5.1,4c-1.5,3.2-2.2,6-2.2,8.5c0,1.8,0.5,2.7,1.6,2.7c1,0,2.4-1,4.3-3.1
			c1.9-2.1,3.5-4.5,4.9-7.2L363.3,356.9z"/>
		<path d="M374,373c-1.4-0.7-2.1-2.1-2.1-4.2c0-3.4,1.4-6.8,4.2-10c2.7-3.1,6.1-4.7,10.1-4.7c0.8,0,2.4,0.1,4.9,0.2l-1.2,5.2l-0.8,4
			c-0.4,2.1-0.7,3.7-0.9,4.7c-0.6,4.1-1.3,7-1.9,8.6c-0.6,1.6-1.8,3.2-3.4,4.7c-2.4,2.2-5.2,3.3-8.3,3.3c-2,0-3.7-0.4-5-1.2
			c-1.3-0.8-1.9-1.8-1.9-3.1C367.6,378,369.7,375.5,374,373z M385.5,363.8h-0.3c-1.2,2.7-2.7,4.9-4.4,6.6c-1.7,1.7-3.5,2.6-5.4,2.9
			c-3,2.1-4.6,4.1-4.6,5.9c0,1.2,0.6,2.2,1.7,3c1.1,0.8,2.5,1.2,4.1,1.2c2.1,0,3.7-0.8,4.9-2.4c1.2-1.6,2.1-4.2,2.6-7.7L385.5,363.8
			z M386.9,356.9c-1.4-0.7-2.8-1-4.2-1c-1.5,0-2.8,0.7-3.9,2.1c-0.8,1.1-1.6,2.7-2.3,4.8c-0.7,2.1-1,4-1,5.5c0,1.6,0.5,2.5,1.5,2.5
			c2.3,0,5.3-3.3,9.1-9.9L386.9,356.9z"/>
		<path d="M409.2,368.5l-0.3,1.3c-3.7,2.6-6.8,3.9-9.4,3.9c-1.6,0-3-0.6-4-1.7c-1-1.2-1.5-2.6-1.5-4.5c0-3.3,1.3-6.3,3.8-9.2
			c2.5-2.9,5.2-4.3,8-4.3c1,0,1.9,0.3,2.5,1s1,1.6,1,2.7c0,2.2-1.1,4.1-3.4,5.7c-2.3,1.6-5,2.4-8.1,2.4l0,0.8c0,3.4,1.2,5.1,3.7,5.1
			C403.5,371.7,406.1,370.7,409.2,368.5z M397.7,364.8c2.6-0.2,4.6-0.9,6.1-2c1.5-1.1,2.2-2.6,2.2-4.4c0-1.8-0.6-2.7-1.9-2.7
			c-1.4,0-2.7,0.9-4,2.8C398.7,360.4,398,362.5,397.7,364.8z"/>
		<path d="M411,372.7l2.3-2.4c1.5,1.1,3,1.7,4.6,1.7c1,0,1.8-0.3,2.4-0.8c0.7-0.5,1-1.1,1-1.9c0-0.8-0.7-2-2-3.4l-1.6-1.7
			c-1.5-1.7-2.3-3.1-2.3-4.2c0-1.6,0.7-3,2.2-4.2c1.5-1.2,3.2-1.8,5.1-1.8c1.1,0,2.2,0.2,3.6,0.7l-0.8,3.8h-1.1l0.1-0.3
			c0-0.1,0-0.2,0-0.4c0-1.6-1-2.4-3-2.4c-2.3,0-3.4,0.9-3.4,2.7c0,0.9,0.7,2.1,2,3.7l1.4,1.6c1.6,1.8,2.3,3.2,2.3,4.3
			c0,1.6-0.8,2.9-2.5,4.2s-3.5,1.8-5.6,1.8C414.4,373.7,412.8,373.4,411,372.7z"/>
		<path d="M448,373.7c0.1-1.1,0.1-2.3,0.1-3.4c0-5.2-0.3-8.8-0.8-10.8c-0.6-2-1.6-3-3-3c-1.4,0-2.9,1.4-4.8,4.2l0.5-2.4
			c2.1-2.9,4.1-4.4,6-4.4c3.6,0,5.4,4.7,5.4,14l0,1.8c3.9-5.6,6.2-10.7,6.7-15.2l1.6-0.4c1.6,5.1,2.4,10.2,2.4,15.2
			c1.7-2.2,3.1-4.5,4.3-6.9c1.2-2.4,1.8-4.3,1.8-5.5c0-0.7-0.3-1.6-0.8-2.5l3.9-0.2c0.2,0.5,0.3,1,0.3,1.5c0,0.9-0.5,2.3-1.6,4.2
			c-1.1,1.9-2.8,4.4-5.3,7.7l-0.9,1.3l-3.2,4.5l-1.8,0.4l0.1-2.1c0-4.7-0.3-8.6-0.9-11.6c-2.8,5.8-5.5,10.2-8,13.3L448,373.7z"/>
		<path d="M476.3,373.5l1.3-5.4l1.7-8.5c0.2-0.9,0.3-1.6,0.3-2.2c0-1-0.3-1.5-1-1.5c-1.2,0-3,1.3-5.3,3.9l0.3-1.5
			c2.7-2.9,5-4.3,7-4.3c1.7,0,2.5,1,2.5,2.9c0,0.8-0.1,1.8-0.3,2.8l-0.8,4.2h0.2c1.4-2.9,3-5.3,4.9-7.1s3.6-2.8,5.2-2.8
			c0.8,0,1.5,0.2,2.2,0.5l-2.3,3.1c-0.7-0.5-1.3-0.7-1.7-0.7c-2.3,0-5.3,3.3-9,10l-1.3,6.3L476.3,373.5z"/>
		<path d="M506.9,368l-0.3,1.6c-2.5,2.7-4.8,4.1-6.8,4.1c-1.7,0-2.5-0.9-2.5-2.6c0-0.6,0.1-1.6,0.4-2.9l1.2-6.1
			c0.3-1.7,0.5-2.9,0.5-3.4c0-1-0.4-1.5-1.1-1.5c-0.5,0-1.5,0.2-2.8,0.6l0.2-1.1l8.5-2.8l-1.3,5.6l-1.7,8.6
			c-0.3,1.3-0.4,2.2-0.4,2.6c0,0.8,0.3,1.1,1,1.1C502.9,371.9,504.6,370.6,506.9,368z M500.5,350.9l1.2-2.4l4.9-3.2l-1.5,3.2
			L500.5,350.9z"/>
		<path d="M512.8,355.7h-4l1.2-1.3h3l1-4.9l3.6-0.9l-1.1,5.8h6.6l-1.4,1.5c-1.5-0.2-2.8-0.2-4-0.2h-1.4l-2.4,11.9
			c-0.2,1.2-0.4,2.1-0.4,2.6c0,0.9,0.4,1.4,1.2,1.4c1.3,0,3-0.9,5.1-2.8l-0.3,1.6c-2.3,2.2-4.4,3.3-6.5,3.3c-2,0-3-1.1-3-3.3
			c0-0.8,0.1-1.8,0.4-3.1L512.8,355.7z"/>
		<path d="M529.1,355.7h-4l1.2-1.3h3l1-4.9l3.6-0.9l-1.1,5.8h6.6l-1.4,1.5c-1.5-0.2-2.8-0.2-4-0.2h-1.4l-2.4,11.9
			c-0.2,1.2-0.4,2.1-0.4,2.6c0,0.9,0.4,1.4,1.2,1.4c1.3,0,3-0.9,5.1-2.8l-0.3,1.6c-2.3,2.2-4.4,3.3-6.5,3.3c-2,0-3-1.1-3-3.3
			c0-0.8,0.1-1.8,0.4-3.1L529.1,355.7z"/>
		<path d="M556.1,368.5l-0.3,1.3c-3.7,2.6-6.8,3.9-9.4,3.9c-1.6,0-3-0.6-4-1.7c-1-1.2-1.5-2.6-1.5-4.5c0-3.3,1.3-6.3,3.8-9.2
			c2.5-2.9,5.2-4.3,8-4.3c1,0,1.9,0.3,2.5,1c0.6,0.7,1,1.6,1,2.7c0,2.2-1.1,4.1-3.4,5.7c-2.3,1.6-5,2.4-8.1,2.4l0,0.8
			c0,3.4,1.2,5.1,3.7,5.1C550.4,371.7,553.1,370.7,556.1,368.5z M544.6,364.8c2.6-0.2,4.6-0.9,6.1-2c1.5-1.1,2.2-2.6,2.2-4.4
			c0-1.8-0.6-2.7-1.9-2.7c-1.4,0-2.7,0.9-4,2.8S544.9,362.5,544.6,364.8z"/>
		<path d="M561.4,373.5l1.3-5.4l1.7-8.6c0.3-1.3,0.4-2.2,0.4-2.6c0-0.7-0.3-1.1-1-1.1c-1.1,0-2.9,1.3-5.2,3.8l0.3-1.6
			c2.5-2.7,4.8-4.1,6.8-4.1c1.7,0,2.5,0.9,2.5,2.6c0,0.6-0.1,1.6-0.4,3l-0.9,4.3h0.3c1.5-3,3.1-5.4,4.9-7.2s3.5-2.7,5.1-2.7
			c1.9,0,2.9,1.1,2.9,3.2c0,0.7-0.1,1.5-0.3,2.5l-1.7,8.5c-0.3,1.3-0.4,2.2-0.4,2.6c0,0.7,0.3,1.1,1,1.1c1.2,0,2.9-1.3,5.2-3.8
			l-0.3,1.6c-2.5,2.7-4.8,4.1-6.8,4.1c-1.7,0-2.5-0.9-2.5-2.6c0-0.6,0.1-1.6,0.4-3l1.7-8.5c0.1-0.7,0.2-1.2,0.2-1.7
			c0-0.9-0.3-1.4-1-1.4c-2.2,0-5.3,3.5-9.2,10.5l-1.3,6.2L561.4,373.5z"/>
	</g>
	<g>
		<g>
			<line class="st3" x1="280.4" y1="195.7" x2="282.9" y2="195.7"/>
			<line class="st4" x1="287.9" y1="195.7" x2="617.3" y2="193.9"/>
			<line class="st3" x1="619.8" y1="193.9" x2="622.3" y2="193.8"/>
		</g>
	</g>
	<g>
		<g>
			<line class="st3" x1="287.2" y1="408.5" x2="289.7" y2="408.5"/>
			<line class="st4" x1="294.7" y1="408.5" x2="624.2" y2="406.7"/>
			<line class="st3" x1="626.7" y1="406.6" x2="629.2" y2="406.6"/>
		</g>
	</g>
	<g>
	</g>
	<g>
	</g>
	<g>
	</g>
	<g>
	</g>
	<g>
	</g>
	<g>
	</g>
	<g>
	</g>
	<g>
	</g>
	<g>
	</g>
	<g>
	</g>
	<g>
	</g>
	<g>
	</g>
	<g>
	</g>
	<g>
	</g>
	<g>
	</g>
	<g>
	</g>
</g>
</svg>
