<?xml version="1.0" encoding="utf-8"?>
<!-- Generator: Adobe Illustrator 20.1.0, SVG Export Plug-In . SVG Version: 6.00 Build 0)  -->
<svg version="1.1" xmlns="http://www.w3.org/2000/svg" xmlns:xlink="http://www.w3.org/1999/xlink" x="0px" y="0px"
	 viewBox="0 0 960 560" style="enable-background:new 0 0 960 560;" xml:space="preserve">
<style type="text/css">
	.st0{fill:none;}
	.st1{fill:#FFFFFF;}
	.st2{fill:none;stroke:#000000;stroke-width:2;stroke-miterlimit:10;}
	.st3{fill:none;stroke:#000000;stroke-width:0.75;stroke-miterlimit:10;}
	.st4{fill:none;stroke:#000000;stroke-width:0.75;stroke-miterlimit:10;stroke-dasharray:4.9842,4.9842;}
</style>
<g id="Layer_1">
</g>
<g id="_x32_6520">
	<g>
		<g>
			<rect x="321.8" y="37.9" class="st0" width="174.7" height="99.6"/>
			<path d="M352.7,37.9v36.5h4v9.5h-4v9.8h-13.9v-9.8h-16.5v-9.5l12-36.5H352.7z M338.7,74.4V50.6l-6.2,23.7H338.7z"/>
			<path d="M389.9,37.9v8.9h-17.3v9.5c2.2-2.6,4.9-3.8,8.3-3.8c3.8,0,6.7,1.1,8.7,3.2c2,2.1,2.9,6.3,2.9,12.4v8c0,4-0.2,6.9-0.6,8.7
				c-0.4,1.9-1.2,3.6-2.4,5.1c-1.2,1.6-3,2.8-5.2,3.6c-2.2,0.8-4.9,1.3-8.1,1.3c-3.6,0-6.7-0.6-9.5-1.9c-2.7-1.3-4.7-3.1-5.8-5.6
				c-1.1-2.5-1.7-6.3-1.7-11.5v-3h13.9v3.5c0,3.6,0.1,6.2,0.4,7.7c0.3,1.5,1.1,2.3,2.6,2.3c0.7,0,1.2-0.2,1.7-0.7
				c0.4-0.4,0.7-0.9,0.7-1.4c0-0.5,0.1-2.7,0.1-6.6V66.5c0-2.1-0.2-3.5-0.7-4.3s-1.2-1.1-2.2-1.1c-0.6,0-1.2,0.2-1.6,0.6
				s-0.7,0.8-0.8,1.3c-0.1,0.4-0.2,1.5-0.2,3.1h-13.8l0.6-28.1H389.9z"/>
			<path d="M430.8,52.7h-13.9c0-2.6,0-4.2-0.1-4.9c-0.1-0.7-0.3-1.2-0.8-1.7c-0.5-0.5-1.2-0.7-2-0.7c-0.7,0-1.3,0.2-1.8,0.7
				c-0.5,0.4-0.7,1-0.8,1.7s-0.1,2.1-0.1,4.2v8.9c0.7-1.5,1.8-2.6,3.1-3.4c1.4-0.7,3.1-1.1,5.1-1.1c2.6,0,4.8,0.7,6.8,2.1
				c2,1.4,3.2,3,3.7,5c0.5,1.9,0.8,4.5,0.8,7.8v4.4c0,3.9-0.1,6.8-0.4,8.7c-0.3,1.9-1.1,3.7-2.4,5.3c-1.3,1.6-3.1,2.9-5.3,3.8
				c-2.3,0.9-4.9,1.3-7.9,1.3c-3.7,0-6.8-0.5-9.2-1.6c-2.4-1-4.2-2.5-5.5-4.5c-1.3-1.9-2.1-4-2.3-6.1c-0.2-2.1-0.3-6.3-0.3-12.4
				v-7.7c0-6.6,0.1-11.1,0.3-13.3c0.2-2.2,1-4.4,2.4-6.4c1.4-2,3.3-3.5,5.7-4.5c2.4-1,5.2-1.5,8.4-1.5c3.9,0,7.1,0.6,9.6,1.9
				c2.5,1.3,4.3,3,5.4,5.3C430.3,46.3,430.8,49.2,430.8,52.7z M416.9,70.1c0-2-0.2-3.3-0.7-4.1c-0.4-0.7-1.1-1.1-2.1-1.1
				c-1,0-1.7,0.4-2.1,1.1c-0.4,0.7-0.7,2.1-0.7,4.1v10.1c0,2.5,0.2,4.1,0.6,4.8c0.4,0.8,1.1,1.1,2.1,1.1c0.6,0,1.2-0.3,1.9-0.9
				s1-2.2,1-4.7V70.1z"/>
		</g>
		<g id="mic">
			<g>
				<path d="M431.1,157.7c-0.4,1.2,0.3,2.2,0.7,3.2c-1.9,2-3.9,3.8-6.9,3.7c-2.2,0-4.2-0.4-6.1-1.6c-2.7-1.7-5-3.9-7.4-5.9
					c-2.7-2.3-5.2-4.8-8-7c-2.5-2.1-5.2-3.8-8.7-4.2c-3.9-0.4-7.4,1.9-8.5,5.4c-1.3,4-1.2,8.1,0.7,12c1.2-0.7,2.3-1.5,3.5-2
					c1.1-0.5,2.3-0.6,3.5-0.8c0.4-0.1,0.8,0.1,1.2,0.1c3.3,0.3,6,1.7,7.9,4.5c1.1,1.5,2.6,2.9,2.2,5.1c1.2,2.1,0.2,4-0.6,5.9
					c-0.9,2.1-3,3.2-5.2,2.8c-3.1-0.5-5.6-2.1-7.6-4.3c-1.5-1.7-3.1-3.4-4-5.7c-0.3-0.8-1.1-1.4-1.6-2.1c-3.5,2.8-4.6,6.8-5.9,10.6
					c-0.9,2.5-1,5.3-0.5,7.9c0.2,1.2-0.1,2.4,0.1,3.6c-0.2,0.1-0.4,0.2-0.6,0.3c-0.3-0.1-0.6-0.2-0.8-0.3c-0.2-0.4-0.3-0.8-0.5-1.2
					c1.2-0.7-0.8-1.8,0.3-2.5c-0.7-3.9,0.2-7.6,1.5-11.3c1.2-3.4,3.2-6.3,5.7-9.3c-1.3-3.1-1.8-6.5-1.5-10.1c0.3-5,2.8-8.4,7.3-10.2
					c1.8-0.7,3.9-0.7,5.9-0.1c4.1,1.3,7.2,4.1,10.4,6.7c3.1,2.6,5.8,5.6,9.1,8c1.2,0.9,2.3,2,3.6,2.6c3.5,1.6,6.4,1.8,10.1-1.5
					c0.6-0.5,0.4-0.9,0.2-1.3C429.7,158,430.6,157.9,431.1,157.7z M391.1,163.1c-0.9,0.4-1.5,0.6-2,0.9c-1,0.6-1.2,1.7-0.7,2.8
					c0.7,1.5,3.8,6,6.1,7.7c1.1,0.8,2.2,1.9,3.5,2.3c3,0.9,4.8,0.1,5.4-2.3c0.4-1.7,0.7-3.4,0.1-5c-0.8-2.2-2.1-4.3-4.1-5.5
					C396.8,162.3,393.8,161.4,391.1,163.1z"/>
				<path d="M491.8,86.9c-1.3,0.7-2.8,0.9-3.8,2.3c-0.6,0.7-0.9-0.4-1.1-0.8c1.6-0.7,3.1-1.4,4.7-2
					C491.7,86.5,491.8,86.7,491.8,86.9z"/>
				<path d="M512.1,98.3c-0.3-0.1-0.7-0.1-0.8-0.2c-0.6-1.2-1.1-2.5-1.6-3.8c-0.1-0.2,0.2-0.5,0.4-0.7
					C510.8,95.2,511.4,96.8,512.1,98.3z"/>
				<path d="M439.7,156.7c0.1,0,0.2-0.1,0.3-0.1c2.4,1.1,2.4,1.1,4.6,0.1c-0.4,1.7-2.1,1.3-3.1,1.9
					C440.9,158,440.3,157.4,439.7,156.7z"/>
				<path d="M485.8,92.4c0.7,1.6,1.4,3.3,2.2,5.2C486.4,96,485.6,93.9,485.8,92.4z"/>
				<path d="M511,108.6c-0.2,1.7-1,3-2.5,3.9C508.9,111.1,510.1,109.2,511,108.6z"/>
				<path d="M431.7,151.6c1,1.3,1.3,2.7,1.9,3.9c0,0.1-0.2,0.4-0.4,0.5c-0.2,0.1-0.4-0.1-0.7-0.1
					C433.2,154.3,431.4,153.3,431.7,151.6z"/>
				<path d="M474.6,108.6c0.4-0.5,0.7-0.9,1-1.2c0.3-0.2,0.6-0.4,0.9-0.6c0,0.3-0.1,0.7,0,1c0.1,0.4,0.3,0.8,0.4,1.2
					c0,0-0.4,0.3-0.5,0.2c-0.3-0.2-0.5-0.5-0.8-0.6C475.3,108.4,475,108.6,474.6,108.6z"/>
				<path d="M478.4,104.5c0.4,0.9,0.8,1.9,1.2,2.9c-1.1,0.2-0.6-1.9-2-1.2c-0.5,0.3-0.5-0.3-0.1-0.6
					C477.9,105.2,478.2,104.8,478.4,104.5z"/>
				<path d="M493.8,118.8c-0.8,0.4-1.7,0.7-2.5,1.1c-1,0.4-1,0.4-0.9-1c0.9,0.2,1.7,0,2.5-0.4C493.1,118.4,493.5,118.7,493.8,118.8z
					"/>
				<path d="M486.7,103.6c-0.6-1.3-1.1-2.6-1.7-4c0.3,0,0.5,0,0.6,0c0.6,1.2,1.1,2.5,1.6,3.7C487,103.5,486.8,103.5,486.7,103.6z"/>
				<path d="M481.4,94.9c-0.2-1,0.3-1.6,1.3-1.9c0.2,0.6,0.5,1.1,0.7,1.7c0.1,0.3-0.2,0.6-0.3,0.9C482.8,94.5,482.2,94.3,481.4,94.9
					z"/>
				<path d="M483.4,91.5c1-0.8,2-1.5,2.9-2.3C485.3,91,485.3,91,483.4,91.5z"/>
				<path d="M506.9,90.1c0.8,1,1.5,2,2.3,2.9C507.4,92.1,507.4,92.1,506.9,90.1z"/>
				<path d="M433.5,150.4c-0.3-0.9,0.5-0.8,0.9-1.1c0.4,0.9,0.8,1.9,1.2,2.8c-0.1,0.1-0.2,0.1-0.3,0.2c-0.3-0.4-0.5-0.8-0.8-1.1
					C434.3,150.7,434.3,150,433.5,150.4z"/>
				<path d="M480.4,97.4c0.4,1.7,0.2,2.5-0.7,3.1C479.9,99.5,479.3,98.2,480.4,97.4z"/>
				<path d="M511.7,105.5c0.6,1.3,0,2.2-0.7,3.1C510.3,107.3,511,106.4,511.7,105.5z"/>
				<path d="M502.5,116.4c0.7-0.3,1,0.2,0.9,0.7c0,0.3-0.5,0.5-0.9,0.7c-0.5,0.2-1,0.9-1.5,0C501.5,117.3,502.7,117.7,502.5,116.4z"
					/>
				<path d="M501,117.8c-0.7,0.3-1.5,0.7-2.2,0.9c-0.3,0.1-0.6-0.2-0.9-0.3c0.7-0.3,1.5-0.7,2.2-0.9
					C500.3,117.4,500.7,117.7,501,117.8z"/>
				<path d="M481,111.6c-0.4-0.9-0.8-1.8-1.5-3.4C481,109.4,481,110.6,481,111.6z"/>
				<path d="M490,101.6c-0.4-1-0.8-1.9-1.5-3.4C489.9,99.3,489.8,100.5,490,101.6z"/>
				<path d="M491.7,109.2c1,0.3,1.8,0.8,2.2,1.8C492.5,111.3,492.1,110.2,491.7,109.2z"/>
				<path d="M441,159.7c-0.6,0.3-1.2,0.6-1.9,0.8c-0.2,0.1-0.4-0.1-0.6-0.1c0.1-0.2,0.3-0.4,0.4-0.5c0.5-0.3,1.1-0.5,1.6-0.7
					C440.7,159.3,440.9,159.5,441,159.7z"/>
				<path d="M450.3,152.2c-0.1,0.3-0.2,0.7-0.5,0.9c-0.5,0.3-1.1,0.5-1.6,0.7c0.1-0.3,0.2-0.7,0.5-0.9
					C449.2,152.6,449.8,152.4,450.3,152.2z"/>
				<path d="M490.9,101.2c0.3,0.8,0.7,1.5,1,2.3c-0.1,0-0.2,0.1-0.3,0.1c-0.3-0.8-0.7-1.5-1-2.3
					C490.7,101.3,490.8,101.2,490.9,101.2z"/>
				<path d="M495.8,118.6c0.6-1,1.3-1.1,2-0.2C497.1,118.5,496.6,119.6,495.8,118.6z"/>
				<path d="M453.9,149.2c0.1-0.3,0.2-0.7,0.5-0.9c0.5-0.3,1.1-0.5,1.6-0.7c-0.1,0.3-0.2,0.7-0.5,0.9
					C455.1,148.8,454.5,149,453.9,149.2z"/>
				<path d="M488.6,106.4c-0.3-0.8-0.7-1.5-1-2.3c0.1,0,0.2-0.1,0.3-0.1c0.3,0.8,0.7,1.5,1,2.3C488.8,106.3,488.7,106.3,488.6,106.4
					z"/>
				<path d="M483.5,98.1c-0.3-0.6-0.6-1.2-0.8-1.9c-0.1-0.2,0.1-0.4,0.1-0.6c0.2,0.1,0.4,0.3,0.5,0.4c0.3,0.5,0.5,1.1,0.7,1.6
					C483.8,97.9,483.6,98,483.5,98.1z"/>
				<path d="M457.5,146.3c0.1-0.3,0.2-0.7,0.5-0.9c0.5-0.3,1.1-0.5,1.6-0.7c-0.1,0.3-0.2,0.7-0.5,0.9
					C458.7,145.8,458.1,146,457.5,146.3z"/>
				<path d="M461.7,143.1c-0.1,0.3-0.2,0.7-0.5,0.9c-0.5,0.3-1.1,0.5-1.6,0.7c0.1-0.3,0.2-0.7,0.5-0.9
					C460.6,143.5,461.2,143.3,461.7,143.1z"/>
				<path d="M489.8,117.7c0.2,0.4,0.3,0.8,0.5,1.2c-1,0.2-1.6-0.3-1.9-1.3C488.9,117.6,489.3,117.7,489.8,117.7z"/>
				<path d="M465.3,140.1c-0.1,0.3-0.2,0.7-0.5,0.9c-0.5,0.3-1.1,0.5-1.6,0.7c0.1-0.3,0.2-0.7,0.5-0.9
					C464.2,140.5,464.8,140.3,465.3,140.1z"/>
				<path d="M488.4,117.6c-1,0.2-1.6-0.3-1.9-1.3C487.5,116.2,488.1,116.7,488.4,117.6z"/>
				<path d="M471,135.6c-0.1,0.3-0.2,0.7-0.5,0.9c-0.5,0.3-1.1,0.5-1.6,0.7c0.1-0.3,0.2-0.7,0.5-0.9
					C469.9,136,470.5,135.8,471,135.6z"/>
				<path d="M504.6,89c-1,0.2-1.6-0.3-1.9-1.3C503.7,87.6,504.3,88.1,504.6,89z"/>
				<path d="M486.1,123.5c-0.1,0.3-0.2,0.7-0.5,0.9c-0.5,0.3-1.1,0.5-1.6,0.7c0.1-0.3,0.2-0.7,0.5-0.9
					C484.9,123.9,485.5,123.7,486.1,123.5z"/>
				<path d="M478.3,112.3c0.3,0.7,0.6,1.4,0.9,2.1c-0.1,0.1-0.2,0.1-0.4,0.2c-0.4-0.7-0.7-1.4-1.1-2.1
					C478,112.5,478.2,112.4,478.3,112.3z"/>
				<path d="M478.3,129.7c0.1-0.3,0.2-0.7,0.5-0.9c0.5-0.3,1.1-0.5,1.6-0.7c-0.1,0.3-0.2,0.7-0.5,0.9
					C479.4,129.2,478.8,129.4,478.3,129.7z"/>
				<path d="M476.7,131c-0.1,0.3-0.2,0.7-0.5,0.9c-0.5,0.3-1.1,0.5-1.6,0.7c0.1-0.3,0.2-0.7,0.5-0.9
					C475.6,131.4,476.2,131.2,476.7,131z"/>
				<path d="M474.6,132.6c-0.1,0.3-0.2,0.7-0.5,0.9c-0.5,0.3-1.1,0.5-1.6,0.7c0.1-0.3,0.2-0.7,0.5-0.9
					C473.5,133,474.1,132.8,474.6,132.6z"/>
				<path d="M511.7,105.5c-0.5-0.9-0.4-1.6,0.4-2.3C512.6,104.1,512.6,104.8,511.7,105.5z"/>
				<path d="M494.4,86.4c-0.6,0.3-1.2,0.6-1.9,0.8c-0.2,0.1-0.4-0.1-0.6-0.1c0.1-0.2,0.3-0.4,0.4-0.5c0.5-0.3,1.1-0.5,1.6-0.7
					C494.2,86.1,494.3,86.3,494.4,86.4z"/>
				<path d="M506.8,115.1c-0.8,0.3-1.5,0.7-2.3,1c0-0.1-0.1-0.2-0.1-0.3c0.8-0.3,1.5-0.7,2.3-1C506.7,114.9,506.8,115,506.8,115.1z"
					/>
				<path d="M451.9,151.5c-0.4,0.2-0.7,0.3-1.1,0.4c-0.2,0.1-0.4,0-0.7,0c0.1-0.2,0.2-0.4,0.3-0.5c0.4-0.2,0.9-0.4,1.3-0.5
					C451.9,151.1,451.9,151.3,451.9,151.5z"/>
				<path d="M493,104c0.2,0.4,0.3,0.7,0.4,1.1c0.1,0.2,0,0.4,0,0.7c-0.2-0.1-0.4-0.2-0.5-0.3c-0.2-0.4-0.4-0.9-0.5-1.3
					C492.6,104.1,492.8,104,493,104z"/>
				<path d="M464.5,118.9c-0.2-1.3,1-0.9,1.5-1.3C466.3,118.8,465,118.4,464.5,118.9z"/>
				<path d="M472.6,134.2c0.2,1.3-1,0.9-1.5,1.3C470.8,134.3,472.1,134.7,472.6,134.2z"/>
				<path d="M452.3,149.9c0.4-0.2,0.7-0.3,1.1-0.4c0.2-0.1,0.4,0,0.7,0c-0.1,0.2-0.2,0.4-0.3,0.5c-0.4,0.2-0.9,0.4-1.3,0.5
					C452.4,150.3,452.4,150.1,452.3,149.9z"/>
				<path d="M487.7,122.8c-0.4,0.2-0.7,0.3-1.1,0.4c-0.2,0.1-0.4,0-0.7,0c0.1-0.2,0.2-0.4,0.3-0.5c0.4-0.2,0.9-0.4,1.3-0.5
					C487.6,122.4,487.6,122.6,487.7,122.8z"/>
				<path d="M490.4,107.7c1.3-0.2,0.9,1,1.3,1.5C490.5,109.4,490.9,108.2,490.4,107.7z"/>
				<path d="M495.8,118.6c-0.7,0-1.3,1.2-2,0.2C494.4,118.8,495,117.6,495.8,118.6z"/>
				<path d="M489,106.2c1.3-0.2,0.9,1,1.3,1.5C489.1,107.9,489.5,106.7,489,106.2z"/>
				<path d="M449.9,133.5c0.2,1.3-1,0.9-1.5,1.3C448.2,133.6,449.5,134,449.9,133.5z"/>
				<path d="M436.5,158.8c-0.4,0.2-0.8,0.3-1.2,0.5c0-0.2-0.1-0.4,0-0.6c0.1-0.3,0.4-0.6,0.5-0.9
					C436.1,158.2,436.3,158.5,436.5,158.8z"/>
				<path d="M456,147.6c-0.2-1.3,1-0.9,1.5-1.3C457.8,147.5,456.5,147.1,456,147.6z"/>
				<path d="M434.5,157.4c-0.2-0.4-0.3-0.7-0.4-1.1c-0.1-0.2,0-0.4,0-0.7c0.2,0.1,0.4,0.2,0.5,0.3c0.2,0.4,0.4,0.9,0.5,1.3
					C434.9,157.3,434.7,157.4,434.5,157.4z"/>
				<path d="M450.9,132.4c-0.2-1.3,1-0.9,1.5-1.3C452.6,132.3,451.3,131.9,450.9,132.4z"/>
				<path d="M453.3,130c-0.2-1.3,1-0.9,1.5-1.3C455,129.9,453.8,129.5,453.3,130z"/>
				<path d="M467.3,137.9c0.4-0.2,0.7-0.3,1.1-0.4c0.2-0.1,0.4,0,0.7,0c-0.1,0.2-0.2,0.4-0.3,0.5c-0.4,0.2-0.9,0.4-1.3,0.5
					C467.4,138.2,467.4,138,467.3,137.9z"/>
				<path d="M461.7,143.1c-0.2-1.3,1-0.9,1.5-1.3C463.5,143,462.2,142.6,461.7,143.1z"/>
				<path d="M467,139.4c-0.4,0.2-0.7,0.3-1.1,0.4c-0.2,0.1-0.4,0-0.7,0c0.1-0.2,0.2-0.4,0.3-0.5c0.4-0.2,0.9-0.4,1.3-0.5
					C466.9,139,466.9,139.2,467,139.4z"/>
				<path d="M433.8,160.7c-0.2-1.3,1-0.9,1.5-1.3C435.5,160.6,434.3,160.2,433.8,160.7z"/>
				<path d="M488.5,121.9c-0.1-0.1-0.3-0.3-0.4-0.5c0.3-0.2,0.6-0.5,1-0.6c0.2-0.1,0.4,0.1,0.7,0.1
					C489.4,121.2,489.1,121.5,488.5,121.9z"/>
				<path d="M446.2,156c-0.4,0.2-0.7,0.3-1.1,0.4c-0.2,0.1-0.4,0-0.7,0c0.1-0.2,0.2-0.4,0.3-0.5c0.4-0.2,0.9-0.4,1.3-0.5
					C446.2,155.6,446.2,155.8,446.2,156z"/>
				<path d="M511.5,99.3c0.2,0.1,0.4,0.1,0.4,0.2c0.1,0.5,0.3,1.1,0.4,1.6c0,0-0.3,0.1-0.3,0.1c-0.2-0.5-0.4-0.9-0.6-1.4
					C511.3,99.7,511.4,99.6,511.5,99.3z"/>
				<path d="M482,127.4c-0.4,0.2-0.7,0.3-1.1,0.4c-0.2,0.1-0.4,0-0.7,0c0.1-0.2,0.2-0.4,0.3-0.5c0.4-0.2,0.9-0.4,1.3-0.5
					C481.9,127,481.9,127.2,482,127.4z"/>
				<path d="M470.9,112.6c0.2,1.3-1,0.9-1.5,1.3C469.2,112.7,470.4,113.1,470.9,112.6z"/>
				<path d="M446.6,154.5c0.4-0.2,0.7-0.3,1.1-0.4c0.2-0.1,0.4,0,0.7,0c-0.1,0.2-0.2,0.4-0.3,0.5c-0.4,0.2-0.9,0.4-1.3,0.5
					C446.7,154.8,446.7,154.6,446.6,154.5z"/>
				<path d="M478.3,129.7c0.2,1.3-1,0.9-1.5,1.3C476.5,129.8,477.8,130.1,478.3,129.7z"/>
				<path d="M482.3,125.8c0.4-0.2,0.7-0.3,1.1-0.4c0.2-0.1,0.4,0,0.7,0c-0.1,0.2-0.2,0.4-0.3,0.5c-0.4,0.2-0.9,0.4-1.3,0.5
					C482.4,126.2,482.4,126,482.3,125.8z"/>
				<path d="M437.6,154.9c1.3-0.2,0.9,1,1.3,1.5C437.7,156.6,438,155.4,437.6,154.9z"/>
				<path d="M512.1,103.2c0-0.7-1.2-1.3-0.2-2C512,101.9,513.2,102.4,512.1,103.2z"/>
				<path d="M437.2,146c-0.2-1.3,1-0.9,1.5-1.3C438.9,145.9,437.7,145.5,437.2,146z"/>
				<path d="M436.3,147.1c0.2,1.3-1,0.9-1.5,1.3C434.6,147.2,435.8,147.5,436.3,147.1z"/>
				<path d="M436.9,153.3c0.2,0.4,0.3,0.7,0.4,1.1c0.1,0.2,0,0.4,0,0.7c-0.2-0.1-0.4-0.2-0.5-0.3c-0.2-0.4-0.4-0.9-0.5-1.3
					C436.5,153.3,436.7,153.3,436.9,153.3z"/>
				<path d="M467,116.4c-0.2-1.3,1-0.9,1.5-1.3C468.7,116.3,467.4,115.9,467,116.4z"/>
				<path d="M459.3,123.4c0.5-0.3,0.8-0.5,1.1-0.6c0,0,0.2,0.2,0.3,0.3c-0.2,0.2-0.4,0.3-0.7,0.5
					C459.8,123.6,459.7,123.5,459.3,123.4z"/>
				<path d="M479.3,101.3c0.1,0.5,0.8,1-0.1,1.4C479.1,102.3,478.4,101.8,479.3,101.3z"/>
				<path d="M469.4,114c0.3,0.9-0.5,0.8-0.9,1.1C468.1,114.2,469,114.2,469.4,114z"/>
				<path d="M459.3,124.6c-0.3,0-0.5,0-0.6-0.1c0.2-0.2,0.5-0.5,0.7-0.7c0.1,0,0.2,0.1,0.4,0.1C459.6,124.2,459.5,124.4,459.3,124.6
					z"/>
				<path d="M498.7,86.7c0.5-0.1,1-0.8,1.4,0.1C499.7,86.9,499.2,87.5,498.7,86.7z"/>
				<path d="M470.5,112.3c0.5-0.3,0.8-0.5,1.1-0.6c0,0,0.2,0.2,0.3,0.3c-0.2,0.2-0.4,0.3-0.7,0.5
					C471.1,112.5,470.9,112.4,470.5,112.3z"/>
				<path d="M461.8,122.2c-0.3,0-0.5,0-0.6-0.1c0.2-0.2,0.5-0.5,0.7-0.7c0.1,0,0.2,0.1,0.4,0.1C462.1,121.8,461.9,122,461.8,122.2z"
					/>
				<path d="M508.5,112.4c0.3,0.9-0.5,0.8-0.9,1.1C507.2,112.6,508.1,112.7,508.5,112.4z"/>
				<path d="M461.7,121c0.5-0.3,0.8-0.5,1.1-0.6c0,0,0.2,0.2,0.3,0.3c-0.2,0.2-0.4,0.3-0.7,0.5C462.3,121.2,462.1,121.1,461.7,121z"
					/>
				<path d="M473,111.1c-0.3,0-0.5,0-0.6-0.1c0.2-0.2,0.5-0.5,0.7-0.7c0.1,0,0.3,0.1,0.4,0.1C473.3,110.7,473.1,110.9,473,111.1z"/>
				<path d="M430.7,157.3c0.5-0.3,0.8-0.5,1.1-0.6c0,0,0.2,0.2,0.3,0.3c-0.2,0.2-0.4,0.3-0.7,0.5
					C431.3,157.6,431.1,157.5,430.7,157.3z"/>
				<path d="M472.9,109.9c0.5-0.3,0.8-0.5,1.1-0.6c0,0,0.2,0.2,0.3,0.3c-0.2,0.2-0.4,0.3-0.7,0.5C473.5,110.1,473.3,110,472.9,109.9
					z"/>
				<path d="M483.2,114c0.1-0.1,0.2-0.3,0.4-0.4c0.1,0.1,0.4,0.3,0.4,0.4c0,0.2-0.1,0.4-0.1,0.7C483.7,114.5,483.6,114.3,483.2,114z
					"/>
				<path d="M486.9,120.4c0,0.3,0,0.5-0.1,0.6c-0.2-0.2-0.5-0.5-0.7-0.7c0-0.1,0.1-0.3,0.1-0.4C486.5,120.1,486.7,120.3,486.9,120.4
					z"/>
				<path d="M464.2,119.7c-0.3,0-0.5,0-0.6-0.1c0.2-0.2,0.5-0.5,0.7-0.7c0.1,0,0.3,0.1,0.4,0.1C464.5,119.3,464.3,119.6,464.2,119.7
					z"/>
				<path d="M482.7,112.1c0,0.5,0,0.7,0,0.9c-0.2-0.1-0.5-0.2-0.6-0.4c-0.1-0.1,0-0.4,0-0.6C482.3,112.1,482.6,112.1,482.7,112.1z"
					/>
				<path d="M479.7,115.5c0.1-0.1,0.2-0.3,0.4-0.4c0.1,0.1,0.4,0.3,0.4,0.4c0,0.2-0.1,0.4-0.1,0.7C480.2,116,480,115.8,479.7,115.5z
					"/>
				<path d="M509.7,100.6c-0.1-0.3-0.2-0.6-0.3-0.9c0,0,0.2-0.1,0.4-0.2c0.1,0.3,0.2,0.5,0.3,0.8
					C510.1,100.4,509.8,100.5,509.7,100.6z"/>
				<path d="M497.9,86.3c-0.5,0.1-1,0.8-1.4-0.1C497,86.2,497.5,85.5,497.9,86.3z"/>
				<path d="M481.8,118c-0.3-0.5-0.5-0.8-0.6-1.1c0,0,0.2-0.2,0.3-0.3c0.2,0.2,0.3,0.4,0.5,0.7C482,117.4,481.9,117.5,481.8,118z"/>
				<path d="M482.1,117.5c0.9-0.3,0.8,0.5,1.1,0.9C482.3,118.8,482.4,118,482.1,117.5z"/>
				<path d="M466,117.5c-0.3-0.9,0.5-0.8,0.9-1.1C467.3,117.3,466.4,117.2,466,117.5z"/>
				<path d="M501.9,111.8c0.9-0.3,0.8,0.5,1.1,0.9C502.1,113,502.2,112.2,501.9,111.8z"/>
				<path d="M437.2,146c0.3,0.9-0.5,0.8-0.9,1.1C436,146.2,436.8,146.3,437.2,146z"/>
				<path d="M499.1,110.2c0.9-0.3,0.8,0.5,1.1,0.9C499.3,111.4,499.4,110.6,499.1,110.2z"/>
				<path d="M438.3,144.3c0.5-0.3,0.8-0.5,1.1-0.6c0,0,0.2,0.2,0.3,0.3c-0.2,0.2-0.4,0.3-0.7,0.5
					C438.9,144.5,438.7,144.4,438.3,144.3z"/>
				<path d="M498,109.3c0.9-0.3,0.8,0.5,1.1,0.9C498.2,110.5,498.3,109.7,498,109.3z"/>
				<path d="M440.8,143.1c-0.3,0-0.5,0-0.6-0.1c0.2-0.2,0.5-0.5,0.7-0.7c0.1,0,0.2,0.1,0.4,0.1C441.1,142.7,440.9,142.9,440.8,143.1
					z"/>
				<path d="M440.7,141.9c0.5-0.3,0.8-0.5,1.1-0.6c0,0,0.2,0.2,0.3,0.3c-0.2,0.2-0.4,0.3-0.7,0.5C441.3,142.1,441.1,142,440.7,141.9
					z"/>
				<path d="M496.9,109.4c-0.3-0.5-0.5-0.8-0.6-1.1c0,0,0.2-0.2,0.3-0.3c0.2,0.2,0.3,0.4,0.5,0.7C497.1,108.8,497,108.9,496.9,109.4
					z"/>
				<path d="M500,115.4c-0.9,0.3-0.8-0.5-1.1-0.9C499.8,114.2,499.7,115,500,115.4z"/>
				<path d="M443.2,140.6c-0.3,0-0.5,0-0.6-0.1c0.2-0.2,0.5-0.5,0.7-0.7c0.1,0,0.3,0.1,0.4,0.1C443.5,140.2,443.4,140.4,443.2,140.6
					z"/>
				<path d="M495.6,106.8c0,0.3,0,0.5-0.1,0.6c-0.2-0.2-0.5-0.5-0.7-0.7c0-0.1,0.1-0.3,0.1-0.4C495.2,106.6,495.5,106.7,495.6,106.8
					z"/>
				<path d="M443.2,139.4c0.5-0.3,0.8-0.5,1.1-0.6c0,0,0.2,0.2,0.3,0.3c-0.2,0.2-0.4,0.3-0.7,0.5
					C443.7,139.7,443.6,139.5,443.2,139.4z"/>
				<path d="M493.7,105.6c0.9-0.3,0.8,0.5,1.1,0.9C493.9,106.8,493.9,106,493.7,105.6z"/>
				<path d="M498,114.1c-0.9,0.3-0.8-0.5-1.1-0.9C497.9,112.9,497.8,113.7,498,114.1z"/>
				<path d="M445.7,138.2c-0.3,0-0.5,0-0.6-0.1c0.2-0.2,0.5-0.5,0.7-0.7c0.1,0,0.3,0.1,0.4,0.1C446,137.8,445.8,138,445.7,138.2z"/>
				<path d="M445.6,137c0.5-0.3,0.8-0.5,1.1-0.6c0,0,0.2,0.2,0.3,0.3c-0.2,0.2-0.4,0.3-0.7,0.5C446.2,137.2,446,137.1,445.6,137z"/>
				<path d="M496,86.6c-0.3-0.1-0.6-0.1-0.8-0.2c0.2-0.2,0.4-0.4,0.6-0.5c0.1-0.1,0.4,0.1,0.5,0.1C496.2,86.2,496.1,86.4,496,86.6z"
					/>
				<path d="M506.6,114.6c-0.1-0.2-0.2-0.4-0.3-0.6c0.4-0.2,0.8-0.3,1.2-0.5C507.9,114.4,507,114.4,506.6,114.6z"/>
				<path d="M456.8,125.9c0.5-0.3,0.8-0.5,1.1-0.6c0,0,0.2,0.2,0.3,0.3c-0.2,0.2-0.4,0.3-0.7,0.5C457.4,126.1,457.2,126,456.8,125.9
					z"/>
				<path d="M456.9,127.1c-0.3,0-0.5,0-0.6-0.1c0.2-0.2,0.5-0.5,0.7-0.7c0.1,0,0.3,0.1,0.4,0.1C457.2,126.7,457,126.9,456.9,127.1z"
					/>
				<path d="M454.4,128.3c0.5-0.3,0.8-0.5,1.1-0.6c0,0,0.2,0.2,0.3,0.3c-0.2,0.2-0.4,0.3-0.7,0.5C455,128.5,454.8,128.4,454.4,128.3
					z"/>
				<path d="M506.6,90.3c-0.9,0.3-0.8-0.5-1.1-0.9C506.4,89,506.3,89.9,506.6,90.3z"/>
				<path d="M453.3,130c0.3,0.9-0.5,0.8-0.9,1.1C452,130.2,452.9,130.2,453.3,130z"/>
				<path d="M503.7,90.5c0.1-0.1,0.2-0.3,0.4-0.4c0.1,0.1,0.4,0.3,0.4,0.4c0,0.2-0.1,0.4-0.1,0.7C504.2,91,504.1,90.8,503.7,90.5z"
					/>
				<path d="M449.9,133.5c-0.3-0.9,0.5-0.8,0.9-1.1C451.2,133.3,450.4,133.2,449.9,133.5z"/>
				<path d="M482.6,92.9c-0.3-0.9,0.5-0.8,0.9-1.1C483.9,92.7,483,92.6,482.6,92.9z"/>
				<path d="M448.1,135.7c-0.3,0-0.5,0-0.6-0.1c0.2-0.2,0.5-0.5,0.7-0.7c0.1,0,0.3,0.1,0.4,0.1C448.4,135.3,448.2,135.6,448.1,135.7
					z"/>
				<path d="M433.2,151.2c-0.3,0-0.5,0-0.6-0.1c0.2-0.2,0.5-0.5,0.7-0.7c0.1,0,0.3,0.1,0.4,0.1C433.5,150.8,433.3,151.1,433.2,151.2
					z"/>
				<path d="M493.9,111.1c0.9-0.3,0.8,0.5,1.1,0.9C494.1,112.3,494.2,111.5,493.9,111.1z"/>
				<path d="M438.4,160.1c-0.9,0.3-0.8-0.5-1.1-0.9C438.2,158.8,438.1,159.7,438.4,160.1z"/>
				<path d="M495,112c0.9-0.3,0.8,0.5,1.1,0.9C495.2,113.2,495.3,112.4,495,112z"/>
				<path d="M434.4,149.3c0.1-0.3,0.2-0.6,0.3-0.8C434.7,148.7,434.5,149,434.4,149.3z"/>
				<path d="M437.3,159.2c-0.3-0.1-0.6-0.2-0.8-0.3C436.8,158.9,437,159.1,437.3,159.2z"/>
				<path d="M432.5,161c0,0.1-0.1,0.3-0.1,0.3c-0.2,0-0.3-0.1-0.5-0.1c0-0.1,0.1-0.3,0.1-0.4C432.2,160.8,432.3,160.9,432.5,161z"/>
				<path d="M504.6,89c0.3,0.1,0.6,0.2,0.8,0.3C505.2,89.2,504.9,89.1,504.6,89z"/>
				<path d="M433.7,161.4c-0.1,0-0.3-0.1-0.3-0.1c0-0.2,0.1-0.3,0.1-0.5c0.1,0,0.3,0.1,0.4,0.1C433.8,161.1,433.8,161.2,433.7,161.4
					z"/>
				<path d="M438.9,156.4c0.3,0.1,0.6,0.2,0.8,0.3C439.5,156.6,439.2,156.5,438.9,156.4z"/>
				<path d="M498.9,114.5c-0.3-0.1-0.6-0.2-0.8-0.3C498.3,114.3,498.6,114.4,498.9,114.5z"/>
				<path d="M490.3,95.1c-0.2,0-0.3,0-0.5,0c0-0.1,0.1-0.3,0.1-0.3c0.2,0,0.3,0,0.5,0C490.4,94.9,490.3,95,490.3,95.1z"/>
				<path d="M500.8,115.7c-0.3-0.1-0.6-0.2-0.8-0.3C500.3,115.5,500.5,115.6,500.8,115.7z"/>
				<path d="M497.2,108.9c0.3,0.1,0.6,0.2,0.8,0.3C497.8,109.2,497.5,109.1,497.2,108.9z"/>
				<path d="M500.8,115.7c0.3,0.1,0.6,0.2,0.8,0.3C501.4,116,501.1,115.9,500.8,115.7z"/>
				<path d="M495.8,103.2c-0.2,0-0.3,0-0.5,0c0-0.1,0.1-0.3,0.1-0.3c0.2,0,0.3,0,0.5,0C495.9,102.9,495.9,103,495.8,103.2z"/>
				<path d="M506.1,98.2c0.2,0,0.3,0,0.5,0c0,0.1-0.1,0.3-0.1,0.3c-0.2,0-0.3,0-0.5,0C506,98.5,506,98.4,506.1,98.2z"/>
				<path d="M502.5,116.4c-0.3-0.1-0.6-0.2-0.8-0.3C501.9,116.2,502.2,116.3,502.5,116.4z"/>
				<path d="M500.2,111.1c0.3,0.1,0.6,0.2,0.8,0.3C500.8,111.3,500.5,111.2,500.2,111.1z"/>
				<path d="M499.3,107.6c0,0.2,0,0.3,0,0.5c-0.1,0-0.3-0.1-0.3-0.1c0-0.2,0-0.3,0-0.5C499.1,107.5,499.2,107.5,499.3,107.6z"/>
				<path d="M495.5,99.1c-0.2,0-0.3,0-0.5,0c0-0.1,0.1-0.3,0.1-0.3c0.2,0,0.3,0,0.5,0C495.6,98.9,495.5,99,495.5,99.1z"/>
				<path d="M501.9,111.8c-0.3-0.1-0.6-0.2-0.8-0.3C501.3,111.6,501.6,111.7,501.9,111.8z"/>
				<path d="M494.4,95.4c-0.1,0-0.2-0.1-0.3-0.1c0.1-0.1,0.2-0.3,0.3-0.4c0,0,0.2,0.1,0.3,0.1C494.6,95.2,494.5,95.3,494.4,95.4z"/>
				<path d="M493.7,91.4c0,0.1-0.1,0.2-0.1,0.3c-0.1-0.1-0.3-0.2-0.4-0.3c0,0,0.1-0.2,0.1-0.3C493.5,91.2,493.6,91.3,493.7,91.4z"/>
				<path d="M492,88.6c0-0.2,0-0.3,0-0.5c0.1,0,0.3,0.1,0.3,0.1c0,0.2,0,0.3,0,0.5C492.2,88.7,492.1,88.7,492,88.6z"/>
				<path d="M500.2,86.8c0.3,0.1,0.6,0.2,0.8,0.3C500.7,87,500.4,86.9,500.2,86.8z"/>
				<path d="M503,112.7c0.3,0.1,0.6,0.2,0.8,0.3C503.6,112.9,503.3,112.8,503,112.7z"/>
				<path d="M499.4,103.2c0.1,0,0.2,0.1,0.3,0.1c-0.1,0.1-0.2,0.3-0.3,0.4c0,0-0.2-0.1-0.3-0.1C499.2,103.5,499.3,103.4,499.4,103.2
					z"/>
				<path d="M503.8,113c0.3,0.1,0.6,0.2,0.8,0.3C504.4,113.3,504.1,113.2,503.8,113z"/>
				<path d="M505.5,113.7c-0.3-0.1-0.6-0.2-0.8-0.3C505,113.5,505.2,113.6,505.5,113.7z"/>
				<path d="M506.4,114c-0.3-0.1-0.6-0.2-0.8-0.3C505.8,113.8,506.1,113.9,506.4,114z"/>
				<path d="M497.9,95.8c0-0.2,0-0.3,0-0.5c0.1,0,0.3,0.1,0.3,0.1c0,0.2,0,0.3,0,0.5C498.1,95.9,498,95.9,497.9,95.8z"/>
				<path d="M502.7,104.6c0.1,0,0.2,0.1,0.3,0.1c-0.1,0.1-0.2,0.3-0.3,0.4c0,0-0.2-0.1-0.3-0.1C502.5,104.8,502.6,104.7,502.7,104.6
					z"/>
				<path d="M497.4,91.9c0,0.1-0.1,0.2-0.1,0.3c-0.1-0.1-0.3-0.2-0.4-0.3c0,0,0.1-0.2,0.1-0.3C497.2,91.7,497.3,91.8,497.4,91.9z"/>
				<path d="M501.9,96.9c0-0.2,0-0.3,0-0.5c0.1,0,0.3,0.1,0.3,0.1c0,0.2,0,0.3,0,0.5C502.1,97,502,97,501.9,96.9z"/>
				<path d="M506.9,105.9c0,0.1-0.1,0.2-0.1,0.3c-0.1-0.1-0.3-0.2-0.4-0.3c0,0,0.1-0.2,0.1-0.3C506.7,105.7,506.8,105.8,506.9,105.9
					z"/>
				<path d="M497.9,86.3c0.3,0.1,0.6,0.2,0.8,0.3C498.5,86.6,498.2,86.4,497.9,86.3z"/>
				<path d="M499.9,89.2c0-0.1,0.1-0.2,0.1-0.3c0.1,0.1,0.3,0.2,0.4,0.3c0,0-0.1,0.2-0.1,0.3C500.2,89.4,500,89.3,499.9,89.2z"/>
				<path d="M506.9,102.3c-0.1,0.1-0.2,0.3-0.3,0.4c0,0-0.2-0.1-0.3-0.1c0.1-0.1,0.2-0.3,0.3-0.4
					C506.7,102.2,506.8,102.3,506.9,102.3z"/>
				<path d="M509.6,107.7c-0.2,0-0.3,0-0.5,0c0-0.1,0.1-0.3,0.1-0.3c0.2,0,0.3,0,0.5,0C509.7,107.5,509.7,107.5,509.6,107.7z"/>
				<path d="M483.9,118.6c0,0.1-0.1,0.3-0.1,0.3c-0.2,0-0.3-0.1-0.5-0.1c0-0.1,0.1-0.3,0.1-0.4C483.6,118.4,483.7,118.5,483.9,118.6
					z"/>
				<path d="M484.9,119.8c-0.1-0.1-0.3-0.2-0.4-0.2c0.1-0.1,0.3-0.3,0.3-0.3c0.1,0.1,0.2,0.2,0.4,0.4
					C485,119.8,484.9,119.8,484.9,119.8z"/>
				<path d="M486,120.1c-0.3-0.1-0.6-0.2-0.8-0.3C485.4,119.8,485.7,119.9,486,120.1z"/>
				<path d="M478.9,103.6c-0.1,0.3-0.2,0.6-0.3,0.8C478.6,104.2,478.8,103.9,478.9,103.6z"/>
				<path d="M480.8,106.7c0,0.1-0.1,0.2-0.1,0.3c-0.1-0.1-0.3-0.2-0.4-0.3c0,0,0.1-0.2,0.1-0.3C480.6,106.5,480.7,106.6,480.8,106.7
					z"/>
				<path d="M479.2,102.8c-0.1,0.3-0.2,0.6-0.3,0.8C479,103.3,479.1,103,479.2,102.8z"/>
				<path d="M485.1,115.6c-0.1-0.1-0.3-0.2-0.4-0.3c0,0,0.1-0.2,0.1-0.3c0.1,0.1,0.3,0.2,0.4,0.3
					C485.2,115.3,485.1,115.5,485.1,115.6z"/>
				<path d="M486.2,116.5c-0.1-0.1-0.3-0.2-0.4-0.2c0.1-0.1,0.3-0.3,0.3-0.3c0.1,0.1,0.2,0.2,0.4,0.4
					C486.4,116.4,486.3,116.4,486.2,116.5z"/>
				<path d="M483.5,110.6c-0.1,0-0.2-0.1-0.3-0.1c0.1-0.1,0.2-0.3,0.3-0.4c0,0,0.2,0.1,0.3,0.1C483.7,110.3,483.6,110.4,483.5,110.6
					z"/>
				<path d="M480.7,103.3c0,0.1-0.1,0.2-0.1,0.3c-0.1-0.1-0.3-0.2-0.4-0.3c0,0,0.1-0.2,0.1-0.3C480.5,103.1,480.6,103.2,480.7,103.3
					z"/>
				<path d="M479.3,101.3c0.1-0.3,0.2-0.6,0.3-0.8C479.5,100.8,479.4,101.1,479.3,101.3z"/>
				<path d="M487,113.9c-0.1,0-0.2-0.1-0.3-0.1c0.1-0.1,0.2-0.3,0.3-0.4c0,0,0.2,0.1,0.3,0.1C487.2,113.7,487.1,113.8,487,113.9z"/>
				<path d="M480.7,96.5c-0.1,0.3-0.2,0.6-0.3,0.8C480.5,97.1,480.6,96.8,480.7,96.5z"/>
				<path d="M489.7,117.4c0.1-0.1,0.2-0.3,0.2-0.4c0.1,0.1,0.3,0.3,0.3,0.3c-0.1,0.1-0.2,0.2-0.4,0.4
					C489.8,117.6,489.7,117.5,489.7,117.4z"/>
				<path d="M483.9,102.5c-0.1,0.1-0.2,0.3-0.3,0.4c0,0-0.2-0.1-0.3-0.1c0.1-0.1,0.2-0.3,0.3-0.4
					C483.7,102.3,483.9,102.4,483.9,102.5z"/>
				<path d="M480.7,96.5c0.1-0.3,0.2-0.6,0.3-0.8C480.9,96,480.8,96.3,480.7,96.5z"/>
				<path d="M487.8,110c0,0.1-0.1,0.2-0.1,0.3c-0.1-0.1-0.3-0.2-0.4-0.3c0,0,0.1-0.2,0.1-0.3C487.5,109.8,487.7,109.9,487.8,110z"/>
				<path d="M481.4,94.9c-0.1,0.3-0.2,0.6-0.3,0.8C481.1,95.4,481.3,95.1,481.4,94.9z"/>
				<path d="M483.7,99.3c-0.2,0-0.3,0-0.5,0c0-0.1,0.1-0.3,0.1-0.3c0.2,0,0.3,0,0.5,0C483.8,99.1,483.8,99.2,483.7,99.3z"/>
				<path d="M490.9,114c0,0.2,0,0.3,0,0.5c-0.1,0-0.3-0.1-0.3-0.1c0-0.2,0-0.3,0-0.5C490.7,113.9,490.8,113.9,490.9,114z"/>
				<path d="M487.4,106.1c-0.2,0-0.3,0-0.5,0c0-0.1,0.1-0.3,0.1-0.3c0.2,0,0.3,0,0.5,0C487.4,105.9,487.4,106,487.4,106.1z"/>
				<path d="M510,104c-0.1,0-0.2-0.1-0.3-0.1c0.1-0.1,0.2-0.3,0.3-0.4c0,0,0.2,0.1,0.3,0.1C510.2,103.8,510.1,103.9,510,104z"/>
				<path d="M502.7,87.8c-0.3-0.1-0.6-0.2-0.8-0.3C502.1,87.5,502.4,87.6,502.7,87.8z"/>
				<path d="M491.4,110.6c-0.2,0-0.3,0-0.5,0c0-0.1,0.1-0.3,0.1-0.3c0.2,0,0.3,0,0.5,0C491.5,110.4,491.5,110.5,491.4,110.6z"/>
				<path d="M494.2,114.7c0-0.1,0.1-0.2,0.1-0.3c0.1,0.1,0.3,0.2,0.4,0.3c0,0-0.1,0.2-0.1,0.3C494.4,114.9,494.3,114.8,494.2,114.7z
					"/>
				<path d="M505.1,94.3c-0.1,0-0.2-0.1-0.3-0.1c0.1-0.1,0.2-0.3,0.3-0.4c0,0,0.2,0.1,0.3,0.1C505.3,94,505.2,94.2,505.1,94.3z"/>
				<path d="M485.7,92c0.1-0.1,0.2-0.3,0.2-0.4c0.1,0.1,0.3,0.3,0.3,0.3c-0.1,0.1-0.2,0.2-0.4,0.4C485.8,92.2,485.7,92.1,485.7,92z"
					/>
				<path d="M497.7,115.6c-0.2,0-0.3,0-0.5,0c0-0.1,0.1-0.3,0.1-0.3c0.2,0,0.3,0,0.5,0C497.8,115.4,497.8,115.5,497.7,115.6z"/>
				<path d="M497,113.2c-0.3-0.1-0.6-0.2-0.8-0.3C496.4,113,496.7,113.1,497,113.2z"/>
				<path d="M501,87.1c0.3,0.1,0.6,0.2,0.8,0.3C501.6,87.3,501.3,87.2,501,87.1z"/>
				<path d="M491,98.5c0.1,0,0.2,0.1,0.3,0.1c-0.1,0.1-0.2,0.3-0.3,0.4c0,0-0.2-0.1-0.3-0.1C490.8,98.7,490.9,98.6,491,98.5z"/>
			</g>
		</g>
		<g>
			<rect x="332" y="103.4" class="st0" width="161.5" height="29.2"/>
			<path d="M341.3,118.6l-0.2,1c-1.5,1.6-2.9,2.5-4.1,2.5c-1,0-1.5-0.5-1.5-1.6c0-0.4,0.1-0.9,0.2-1.8l0.7-3.7
				c0.2-1,0.3-1.7,0.3-2.1c0-0.6-0.2-0.9-0.7-0.9c-0.3,0-0.9,0.1-1.7,0.4l0.1-0.6l5.1-1.7l-0.8,3.4l-1,5.2c-0.2,0.8-0.2,1.3-0.2,1.6
				c0,0.5,0.2,0.7,0.6,0.7C338.9,120.9,339.9,120.1,341.3,118.6z M337.5,108.3l0.7-1.4l3-1.9l-0.9,1.9L337.5,108.3z"/>
			<path d="M342.9,121.9l0.8-3.2l1-5.2c0.2-0.8,0.2-1.3,0.2-1.6c0-0.4-0.2-0.7-0.6-0.7c-0.7,0-1.7,0.8-3.1,2.3l0.2-1
				c1.5-1.6,2.9-2.5,4.1-2.5c1,0,1.5,0.5,1.5,1.6c0,0.4-0.1,1-0.2,1.8l-0.5,2.6h0.2c0.9-1.8,1.9-3.2,3-4.3c1.1-1.1,2.1-1.6,3.1-1.6
				c1.1,0,1.7,0.6,1.7,1.9c0,0.4-0.1,0.9-0.2,1.5l-1,5.1c-0.2,0.8-0.2,1.3-0.2,1.6c0,0.4,0.2,0.7,0.6,0.7c0.7,0,1.7-0.8,3.1-2.3
				l-0.2,1c-1.5,1.6-2.9,2.5-4.1,2.5c-1,0-1.5-0.5-1.5-1.6c0-0.3,0.1-0.9,0.3-1.8l1-5.1c0.1-0.4,0.1-0.7,0.1-1
				c0-0.6-0.2-0.8-0.6-0.8c-1.3,0-3.2,2.1-5.6,6.3l-0.8,3.7L342.9,121.9z"/>
			<path d="M360.1,111.2h-2.4l0.7-0.8h1.8l0.6-3l2.2-0.5l-0.7,3.5h4l-0.9,0.9c-0.9-0.1-1.7-0.1-2.4-0.1h-0.8l-1.4,7.2
				c-0.1,0.7-0.2,1.3-0.2,1.6c0,0.6,0.2,0.8,0.7,0.8c0.8,0,1.8-0.6,3.1-1.7l-0.2,1c-1.4,1.3-2.7,2-3.9,2c-1.2,0-1.8-0.7-1.8-2
				c0-0.5,0.1-1.1,0.2-1.9L360.1,111.2z"/>
			<path d="M376.5,118.9l-0.2,0.8c-2.2,1.6-4.1,2.3-5.7,2.3c-1,0-1.8-0.3-2.4-1c-0.6-0.7-0.9-1.6-0.9-2.7c0-2,0.8-3.8,2.3-5.6
				c1.5-1.7,3.1-2.6,4.8-2.6c0.6,0,1.1,0.2,1.5,0.6c0.4,0.4,0.6,1,0.6,1.6c0,1.3-0.7,2.5-2.1,3.5c-1.4,1-3,1.4-4.9,1.4l0,0.5
				c0,2,0.7,3.1,2.2,3.1C373,120.8,374.6,120.2,376.5,118.9z M369.5,116.7c1.6-0.1,2.8-0.5,3.7-1.2c0.9-0.7,1.3-1.6,1.3-2.6
				c0-1.1-0.4-1.6-1.2-1.6c-0.8,0-1.7,0.6-2.4,1.7S369.7,115.3,369.5,116.7z"/>
			<path d="M379.7,121.9l0.8-3.2l1-5.1c0.1-0.5,0.2-1,0.2-1.3c0-0.6-0.2-0.9-0.6-0.9c-0.7,0-1.8,0.8-3.2,2.4l0.2-0.9
				c1.6-1.7,3-2.6,4.2-2.6c1,0,1.5,0.6,1.5,1.7c0,0.5-0.1,1.1-0.2,1.7l-0.5,2.5h0.1c0.8-1.8,1.8-3.2,3-4.3c1.1-1.1,2.2-1.7,3.1-1.7
				c0.5,0,0.9,0.1,1.3,0.3l-1.4,1.9c-0.4-0.3-0.8-0.4-1-0.4c-1.4,0-3.2,2-5.4,6l-0.8,3.8L379.7,121.9z"/>
			<path d="M395.4,122l0.1-1.4c0-2.8-0.3-4.9-0.8-6.5s-1.2-2.4-2-2.4c-0.9,0-1.8,0.8-2.8,2.5l0.3-1.6c1.3-1.7,2.4-2.5,3.5-2.5
				c2.4,0,3.6,3.1,3.6,9.2v0.6l0.9-1c2.5-3.1,3.8-5.3,3.8-6.7c0-0.7-0.2-1.2-0.7-1.8l2.2-0.3c0.3,0.5,0.5,1,0.5,1.4
				c0,0.6-0.2,1.2-0.7,2c-0.5,0.7-1.5,2-3.1,3.9l-3.8,4.4L395.4,122z"/>
			<path d="M413.3,118.6l-0.2,1c-1.5,1.6-2.9,2.5-4.1,2.5c-1,0-1.5-0.5-1.5-1.6c0-0.4,0.1-0.9,0.2-1.8l0.7-3.7
				c0.2-1,0.3-1.7,0.3-2.1c0-0.6-0.2-0.9-0.7-0.9c-0.3,0-0.9,0.1-1.7,0.4l0.1-0.6l5.1-1.7l-0.8,3.4l-1,5.2c-0.2,0.8-0.2,1.3-0.2,1.6
				c0,0.5,0.2,0.7,0.6,0.7C410.9,120.9,411.9,120.1,413.3,118.6z M409.5,108.3l0.7-1.4l3-1.9l-0.9,1.9L409.5,108.3z"/>
			<path d="M423.4,118.9l-0.2,0.8c-2.2,1.6-4.1,2.3-5.7,2.3c-1,0-1.8-0.3-2.4-1c-0.6-0.7-0.9-1.6-0.9-2.7c0-2,0.8-3.8,2.3-5.6
				c1.5-1.7,3.1-2.6,4.8-2.6c0.6,0,1.1,0.2,1.5,0.6c0.4,0.4,0.6,1,0.6,1.6c0,1.3-0.7,2.5-2.1,3.5c-1.4,1-3,1.4-4.9,1.4l0,0.5
				c0,2,0.7,3.1,2.2,3.1C420,120.8,421.5,120.2,423.4,118.9z M416.5,116.7c1.6-0.1,2.8-0.5,3.7-1.2c0.9-0.7,1.3-1.6,1.3-2.6
				c0-1.1-0.4-1.6-1.2-1.6c-0.8,0-1.7,0.6-2.4,1.7S416.6,115.3,416.5,116.7z"/>
			<path d="M430,122c0-0.7,0.1-1.4,0.1-2.1c0-3.1-0.2-5.3-0.5-6.5c-0.3-1.2-0.9-1.8-1.8-1.8c-0.8,0-1.8,0.9-2.9,2.6l0.3-1.4
				c1.2-1.7,2.4-2.6,3.6-2.6c2.1,0,3.2,2.8,3.2,8.5l0,1.1c2.4-3.4,3.7-6.4,4.1-9.2l1-0.2c1,3.1,1.4,6.1,1.4,9.2
				c1-1.3,1.9-2.7,2.6-4.2s1.1-2.6,1.1-3.3c0-0.4-0.2-1-0.5-1.5l2.3-0.1c0.1,0.3,0.2,0.6,0.2,0.9c0,0.6-0.3,1.4-1,2.5
				c-0.6,1.1-1.7,2.7-3.2,4.7l-0.6,0.8l-2,2.7l-1.1,0.3l0-1.3c0-2.8-0.2-5.2-0.5-7c-1.7,3.5-3.3,6.2-4.8,8L430,122z"/>
			<path d="M444.8,121.4l1.4-1.4c0.9,0.7,1.8,1,2.8,1c0.6,0,1.1-0.2,1.5-0.5c0.4-0.3,0.6-0.7,0.6-1.1c0-0.5-0.4-1.2-1.2-2l-1-1
				c-0.9-1-1.4-1.9-1.4-2.6c0-1,0.5-1.8,1.4-2.5c0.9-0.7,1.9-1.1,3.1-1.1c0.6,0,1.3,0.1,2.1,0.4l-0.5,2.3h-0.7l0-0.2
				c0-0.1,0-0.1,0-0.2c0-0.9-0.6-1.4-1.8-1.4c-1.4,0-2,0.5-2,1.6c0,0.6,0.4,1.3,1.2,2.2l0.9,1c0.9,1.1,1.4,1.9,1.4,2.6
				c0,0.9-0.5,1.8-1.5,2.5c-1,0.7-2.1,1.1-3.4,1.1C446.8,122,445.8,121.8,444.8,121.4z"/>
		</g>
		<g id="paper_stack">
			<g>
				<path d="M641.5,351.4c0.5-0.8,1.1-1.6,1.7-2.6c-3.9-2.4-7.8-4.8-11.8-7.2c4.7-4.6,10.5-5.9,15.9-8.6c0-0.2,0-0.4,0-0.6
					c-1.3-0.3-2.5-0.6-3.8-0.8c-1.3-0.1-2.6,0-3.9,0c-0.1-0.2-0.1-0.5-0.2-0.7c1.2-1.2,2.4-2.4,3.6-3.6c-0.8-0.4-1.6-0.7-2.9-1.2
					c3.2-1.9,5.8-3.5,8.6-5.2c-0.8-0.6-1.6-1.1-2.5-1.7c2.4-1.6,4.6-3.2,7.1-4.9c-0.9-0.6-1.7-1.3-2.7-2c0.7-0.6,1.4-1.3,2.4-2.2
					c-1.6-0.6-3-1-4.4-1.5c0-0.6,0-1.2,0-2c4.1-0.3,8.1-0.8,11.5-3.7c-5-7.4-11.3-13-19.2-17c2.4-1.5,4.6-2.8,6.8-4.2
					c-0.1-0.9-0.3-1.8-0.4-2.8c1.8-0.3,3.4-0.5,5.3-0.8c-1.4-1-2.7-2-4.1-3c1.1-0.8,2.1-1.8,3.3-2.4c1.3-0.8,2.3-1.6,2.9-3.5
					c0.3-0.9,1.9-1.1,3-1.7c-1.8-1.4-3.8-2.9-6-4.6c2.1-3.5,5.8-4.2,8.4-7.5c-2.7-1.3-5.2-2.5-7.8-3.6c-2.1-0.9-4.2-1.6-6.2-2.4
					c-0.3-0.1-0.5-0.6-0.8-0.9c0.3-0.3,0.5-0.8,0.8-0.9c1.8-0.5,3.7-0.8,5.7-1.3c-1-3.9-4.3-2.7-6.4-4.2c0-0.4,0-1,0-2
					c5.4,0.3,10.2-2.5,14.9-5.3c-1.5-0.3-2.9-0.6-4.2-0.8c0-0.2,0-0.4,0.1-0.7c1.3-1.2,2.5-2.4,3.9-3.6c-1-0.2-1.9-0.5-3.3-0.8
					c0.6-0.6,0.7-0.8,0.9-0.9c4.7-2.7,9.3-5.8,14.1-8c5.3-2.5,10.9-4.3,16.4-6.4c5.6-2.1,11.3-4.3,17-6.3c5.8-2,11.7-3.9,17.5-5.8
					c1.7-0.6,3.4-1,5.1-1.7c2.7-1.1,5.3-1.6,8.1-0.7c3.7,1.1,7.5,1.7,11,3.4c5.4,2.7,9.8,7.2,14.1,12c4.5,5,9.2,9.7,13.8,14.6
					c2.2,2.4,4.4,4.8,6.7,7.1c3.6,3.7,7.4,7.1,10.9,10.9c2,2.1,3.6,4.8,5.3,7.2c-0.1,0.3-0.2,0.6-0.4,0.9c-1.8,0.1-3.6,0.2-5.2,0.4
					c2.3,2.8,4.8,5.6,7.1,8.5c0.5,0.6,0.7,1.6,1.1,2.5c-0.7,0.2-1.4,0.4-2.1,0.6c-4,1-8.1,1.9-12.1,2.9c-0.5,0.1-1,0.3-1.3,0.5
					c0.6,1,1.2,2.1,2,3.5c-1.7,0-3,0-4.9,0c3.8,5,7.7,9.2,10.6,14.4c-0.1,0.3-0.2,0.6-0.3,1c-4.3,0-8.6,0-13.4,0
					c1.4,3.2,2.5,5.6,3.6,8.3c-3.6,0.7-7.2-0.9-10.7,1.7c1.8,2.7,3.5,5.3,5.3,7.9c2.7,3.9,5.6,7.7,8.3,11.6c0.2,0.3,0.3,0.6,0.6,0.8
					c3.1,2.5,4.5,6.9,7.1,9.9c0.1,0.1,0,0.3,0.1,0.7c-1,0.1-2.1,0.1-3.7,0.2c1.2,1.4,2.2,2.3,3,3.5c0.7,1.1,1.3,2.3,2,3.6
					c-8.6,0.3-16.8,0.5-25.1,0.8c0,0.2-0.1,0.4-0.1,0.6c2.5,2.4,5,4.9,7.6,7.2c2.5,2.2,5,4.2,7.7,6.4c-3.5,1.5-6.7,2.9-9.9,4.3
					c1.3,2,3.9,1.7,4.7,4.2c-2.8,1.2-5.4,2.3-8.6,3.6c2.1,1.7,4,3.2,5.8,4.7c1.6,1.2,3.2,2.3,4.7,3.7c0.8,0.7,1.5,1.9,2.2,2.8
					c-0.1,0.3-0.2,0.5-0.3,0.8c-2.8,0-5.5,0-8.5,0c1.9,3.3,3.6,6.2,5.6,9.5c-1.5,0-2.5,0-3.4,0c3.8,7.5,7.5,14.9,11.5,22.7
					c-3.9,0-7.2,0-10.6,0c0,0.1-0.1,0.3-0.1,0.4c3.6,2.3,7.1,4.7,11,7.2c-3.6,1.8-6.6,3.3-9.8,4.9c0.9,1.5,1.9,3,3.1,5
					c-1.6,0.2-2.8,0.3-4.3,0.4c1.4,1.3,2.8,2.3,3.9,3.6c1.5,1.7,3,3.5,4.2,5.5c1,1.5,0.5,2.3-1.1,2.4c-0.4,0-0.8,0-1.1,0
					c-0.4,0-0.7,0-1.5,0c1.7,1.3,3.1,2.3,4.4,3.3c-0.1,0.2-0.2,0.4-0.3,0.6c-0.8,0.3-1.7,0.5-2.4,0.8c1.4,2.4,2.8,4.9,4.4,7.9
					c-3.2,0-5.6,0-8,0c1.1,1.7,2.3,3.4,3.7,5.5c-1.8,0-3,0-4.2,0c1.4,1.6,2.7,3.2,4.1,4.8c-0.1,0.2-0.3,0.5-0.4,0.7
					c-1.4,0-2.7,0-4.2,0c1.1,1.5,2.2,2.8,3.6,4.6c-2.3,0-4,0-6.1,0c1.8,2.1,4.6,2.5,4.8,6.2c-1.4,0-2.8,0-4.3,0
					c1.7,4.3,5.7,6.3,7.1,11.1c-2.7,0-5.2,0-8,0c0.7,1.7,1.2,3.2,1.9,4.8c-0.3,0.2-0.7,0.4-1.1,0.7c0.3,0.9,0.7,1.9,1,3
					c-1,0-1.8,0-2.7,0c1,2,1.9,3.9,2.9,6c-1.2,0-2.1,0-3.1,0c1.4,3.3,2.7,6.4,4.1,9.8c-4.9,0-9.5-0.3-14.1,0.1
					c-4.9,0.4-9.8,1.3-14.8,2.1c-4.3,0.7-8.5,1.6-12.8,2.4c-8.6,1.6-17.2,3.4-25.3,7.7c-6.2,3.2-12.4,6.4-18.6,9.5
					c-0.5,0.2-0.9,0.6-1.4,1c-0.9-1.7-1.8-3.4-2.7-5.1c-2.9,1.1-5.8,2.1-8.7,3.2c0.3-4.9-1.8-9.1-3.3-13.4c-2.9-8.8-6.6-17.2-9.6-26
					c-1.7-5-4.9-8.1-8.1-11.2c-1.8-1.8-3.9-3.2-5.9-4.8c-1.4-1.1-1.3-2.4,0.2-3.4c0.5-0.4,1-0.8,1.5-1.3c-1-1.4-3.4-1.4-2.5-4.2
					c-3.6-2.8-7.5-4.2-12-3.4c0-0.3,0-0.5-0.1-0.8c1.2-1.2,2.4-2.4,3.6-3.7c-0.9-0.3-1.7-0.5-2.6-0.7c0-0.2,0-0.4,0-0.6
					c2.3-1.4,4.5-2.8,7.1-4.4c-3.1-1.1-6-2.2-8.9-3.2c0-0.6,0-1.2,0-2c2.1-0.2,4.1-0.5,6.2-0.7c0.1-0.2,0.2-0.4,0.2-0.6
					c-1.9-1.2-3.9-2.3-5.9-3.5c1.4-1.2,2.5-2.1,3.5-2.9c-0.7-0.6-1.5-1.4-2.3-2.1c0.1-0.3,0.2-0.5,0.2-0.8c2.5-0.4,5-0.7,7.4-1.1
					c0-0.2,0-0.4,0-0.6c-0.4-0.3-0.8-0.7-1.3-1.1c0.4-0.4,0.9-0.8,1.3-1.2c-2.3-2.2-5.9-1.4-7.9-5.4c4.5-0.9,8.7-1.5,12.1-4.4
					c-1.4-6.2-5.9-3-9.1-4.6c1.5-1.4,2.8-2.6,3.9-3.7c-0.8-0.5-1.6-0.9-2.9-1.6c2.1-1.3,3.6-2.2,5.3-3.3c-0.2-0.3-0.4-0.6-0.7-1
					c0.4-0.4,0.8-0.7,1.5-1.4c-4-1.6-7.7-3.1-11.9-4.8c0.4-0.5,0.6-1.2,1-1.4c0.8-0.4,1.7-0.4,2.5-0.7c3.2-1.1,6.4-2.3,10.1-3.6
					c-1.5-1.2-2.5-1.9-3.4-2.7c-0.5-0.5-1.1-1.2-1.2-1.8c0-0.6,0.7-1.3,1.2-1.7c2.2-1.7,4.5-3.3,6.8-5c-0.6-2.6-2.5-3.5-4.1-4.6
					c-3.4-2.5-6.9-4.3-11.1-3.6c-0.6,0.1-1.3-0.4-2.3-0.8c1.6-1.5,2.9-2.7,4.2-4c-0.9-0.3-1.7-0.5-2.5-0.8c0-0.2,0-0.4,0-0.6
					c1.9-1.2,3.7-2.3,5.3-3.3c-0.1-1.4-0.6-2.8-0.2-3.6c0.3-0.8,1.6-1,2.5-1.3c0.9-0.3,1.8-0.5,2.7-0.7c-0.3-3.4-2.8-4-4.7-5.4
					C645.5,353.9,643.5,352.7,641.5,351.4z M659.8,245.9c0.2-0.6,0.2-1.3,0.6-1.7c0.8-1,1.8-1.7,2.6-2.5c-0.9-0.4-1.6-0.7-2.8-1.3
					c2.5-1.5,4.4-2.7,6.4-4c-1.3-1.6-2.7-1.8-4.2-0.7c-0.5,0.4-1.1,0.7-1.7,0.9c-3.7,1.7-7.5,3.5-10.9,5.1c0.1,0,0.5,0.2,1,0.4
					C653.8,243.4,656.8,244.6,659.8,245.9c1.3,0.9,2.4,2.1,3.7,2.8c5,2.8,9,7.2,13.1,11.4c3.4,3.6,6.9,7.1,10.5,10.5
					c3.7,3.5,7.8,6.5,11.2,10.4c3.6,4.2,6.5,9.2,9.9,14c1.3-1,3-2.3,4.9-3.6c-2.7-4.7-4.9-9.8-8.8-13.3c-2.5-2.3-4.5-5.5-7-7.8
					c-6.1-5.5-12.4-10.8-18.8-15.8C672.7,250.1,667.2,244.9,659.8,245.9z M713.5,284.7c0.8-0.5,1.6-0.9,2.3-1.4
					c8.8-5.8,18-10.5,27.6-14c11.9-4.3,23.9-7.8,35.9-11.6c5.2-1.6,10.5-3.1,16-4.8c-1.1-1.6-2.1-3.3-3.4-4.6
					c-2.4-2.4-5-4.5-7.4-6.9c-3.2-3.3-6.4-6.8-9.5-10.1c-4.9-5.2-9.8-10.4-14.7-15.5c-2.9-3-6-5.8-9-8.7c-5.1-5-11.4-5.7-17.5-6.2
					c-6.2-0.5-12.1,2-18,4.1c-13.4,4.8-26.7,9.7-40,14.9c-4.9,1.9-9.7,4.8-14.6,7.2c1.7,0.8,3,1.2,4.2,2c4,2.9,8,5.7,11.8,8.9
					c6.2,5.3,12.2,10.9,18.2,16.5c4.2,3.9,8.3,7.8,11.2,13.1C709.5,273,712.7,278,713.5,284.7z M695.8,383.9
					c-0.4-0.4-0.6-0.5-0.7-0.7c-0.2-0.5-0.4-0.9-0.6-1.4c-2.5-6.8-5.7-12.8-10.3-18c-4.8-5.4-9.9-10.4-15.3-14.9
					c-5.8-4.8-11.7-9.2-17.7-13.7c-0.7-0.5-1.8-0.9-2.5-0.6c-4.8,2-9.5,4.2-14.3,6.4c2.8,1.9,5.5,3.6,7.9,5.6
					c9,7.6,17.8,15.5,26.8,23.1c4.4,3.7,9.1,6.7,13.4,10.5c3.9,3.4,7.6,7.4,11.6,11.3c17.5-12.7,37.5-19.6,56.5-30.5
					c-0.6-0.1-0.9-0.2-1.1-0.1C731.2,367.4,712.4,371.9,695.8,383.9z M707.7,374.5c-0.4-0.3-1.3-0.6-1.9-1.2
					c-2.1-2.4-4.1-4.9-6.1-7.4c-0.3-0.4-0.9-1.2-1.1-1c-1.8,0.9-1.9-0.9-2.6-2c-0.5-0.9-1.2-1.8-1.9-2.4c-1.1-1.1-2.4-1.9-3.6-2.9
					c-7.3-6.7-14.6-13.4-21.9-20.1c-5.2-4.7-10.4-9.3-15.6-13.8c-1-0.8-2.4-1.9-3.3-1.6c-1.9,0.6-3.5,2-5.2,3.1
					c1.3,0.4,2.6,0.5,3.6,1.3c4.2,2.9,8.5,5.9,12.5,9.2c4.9,4.1,9.5,8.6,14.4,12.8c6.2,5.4,11.6,11.7,16,19.3
					c2.6,4.4,4.8,9,5.9,14.6c2.9-1.8,5.7-3.7,8.6-5.5c7-4.6,14.6-7.5,22.1-10.4c5.3-2.1,10.7-4.1,16.1-5.8
					c7.2-2.2,14.4-4.1,21.7-6.1c4.3-1.2,8.6-2.4,13-3.6c-0.3-0.6-0.6-1.4-1.1-1.9c-2.8-3-5.7-5.9-8.5-8.9c-1.5-1.6-2.8-1.2-4.4-0.3
					c-4.6,2.7-9.2,5.4-13.9,8c-10.7,6-21.5,11.8-32.2,17.9c-3.3,1.9-6.3,4.5-9.5,6.9C708.4,372.9,708.2,373.6,707.7,374.5z
					 M788,286.5c-0.5-1.6-0.6-2.7-1.1-3.4c-1.9-2.8-4-5.6-6-8.3c-0.3-0.4-1.1-0.6-1.5-0.5c-5.6,1.4-11.2,2.5-16.6,4.3
					c-10,3.2-20,6.4-29.8,10.4c-6.3,2.6-12.2,6.5-18.2,10c-2.7,1.6-5.3,3.5-7.9,5.2c-1-2.2-1.7-4.4-2.9-6.2
					c-3.4-5-7.1-9.5-11.5-13.5c-7.3-6.7-14.2-13.9-21.3-20.8c-2-2-4.2-3.6-6.3-5.4c11.6,17.3,22.8,34.7,30.7,55.1
					c0.5-0.4,0.9-0.7,1.4-1.1c2.2-1.8,4.4-3.7,6.7-5.4c5.5-4,11.4-6.5,17.4-8.8c5.5-2.1,11-4.5,16.6-6c7-1.8,14.1-2.7,21.2-3.8
					c5-0.8,10-1.5,15-1.8C778.4,286.2,783.1,286.5,788,286.5z M701.8,337.9c-0.1,0,0.3-0.1,0.6-0.3c8.1-7.1,17.3-11.5,26.3-16.4
					c7.6-4.2,15.3-8.2,22.9-12.4c2.9-1.6,5.7-3.2,8.5-4.9c3.3-2,6.7-4,10.4-6.2c-4.4-0.1-8.4-0.2-12.1,2.6c-1.1,0.8-2.4,1.3-3.6,2
					c-8.1,4.3-16.3,8.5-24.3,13c-5.3,3-10.4,6.3-15.6,9.6c-1.6,1-3.4,2.2-4.3,4c-1.1,2.2-1.7,1.3-2.6,0.2c-2.9-3.3-5.8-6.7-8.7-10
					c-2.3,1.3-4.4,2.5-6.8,3.9c-1.1-2.1-2.4-4.4-3.6-6.7c-1.7,0.6-3.3,1.2-5,1.7c0-1.2,0.2-2.3,0-3.2c-0.6-2.4-1.3-4.8-2.1-7
					c-0.8-2.3-1.5-5-3-6.5c-6.7-6.7-13.7-13.1-20.6-19.6c-0.8-0.7-2.1-1.7-2.8-1.5c-3.7,1.5-7.3,3.5-10.6,5.1
					c6.2,5.6,12.4,11,18.6,16.7c5.5,5.1,10.9,10.5,16.5,15.5c3.8,3.4,7.9,6.3,11.7,9.8C695.2,330.6,698.3,334.3,701.8,337.9z
					 M798.1,265.2c-1-3-2.3-4.6-6.4-8.1c-1.1-1-2.1-1.1-3.4-0.6c-5.9,2-11.9,3.8-17.9,5.8c-10.2,3.4-20.4,6.7-30.6,10.3
					c-9.3,3.3-17.9,8.3-26.4,13.6c1.1,3.4,2.2,6.8,3.4,10.2c0.3-0.2,1-0.6,1.6-0.9c4.7-2.8,9.2-5.9,14.1-8.2
					c5.8-2.8,11.9-5,17.9-7.3c5.6-2.2,11.3-4.2,17-6c7-2.2,14.1-4.1,21.1-6.1C791.7,267,794.8,266.1,798.1,265.2z M668,374.3
					c9.8,12.7,18,26.8,23.6,43.3c3.2-1.8,6-3.6,9-4.9c8.7-3.9,17.5-7.7,26.2-11.5c8.2-3.6,16.3-7.6,24.7-10.7
					c8.7-3.2,17.6-6,27.3-6.3c-1.5-2.1-2.8-3.8-3.9-5.6c-0.8-1.4-1.7-1.5-3-1.1c-5.1,1.6-10.2,2.8-15.3,4.4
					c-8.9,2.8-17.8,5.6-26.6,8.9c-4.6,1.7-9.1,4.1-13.5,6.7c-3.7,2.2-7.1,5-10.6,7.7c-2.6,1.9-3.7,1.8-5.8-0.6
					c-2.9-3.4-5.6-7.1-8.7-10C683.7,387.6,675.8,381,668,374.3z M779.1,394.5c-1.4-3.7-4.2-5.9-7-8c-0.2-0.2-0.6-0.1-0.9-0.1
					c-1.5,0.3-3,0.5-4.4,0.9c-4.5,1.3-9.1,2.6-13.6,4.2c-6.2,2.3-12.3,4.8-18.5,7.4c-7.8,3.3-15.5,6.8-23.2,10.3
					c-5.5,2.5-11,5.2-16.4,7.8c0.9,3.2,1.8,6,2.6,8.9c0.3-0.2,0.8-0.5,1.2-0.7c4-2.4,7.9-5.2,12-7c9.1-4,18.3-7.9,27.6-11.2
					c9.4-3.3,18.9-6,28.4-8.9C771,396.9,775,395.7,779.1,394.5z M770.2,300.4c-18.3,10-36.2,19.9-54.1,29.7c0.1,0.2,0.1,0.4,0.2,0.6
					c1.3-0.3,2.5-0.6,3.8-0.9c4.7-1.1,9.4-2.1,14.2-3.1c3.1-0.7,6.1-1.4,9.2-2c4.4-0.9,8.9-1.7,13.4-2.4c4.2-0.7,8.3-1.4,12.5-1.7
					c3.6-0.3,7.2-0.1,11.3-0.1C777,313.3,773.5,306.7,770.2,300.4z M784,436.4c-1.2-3.2-2.4-4.6-6.1-7.7c-1.5-1.3-2.9-2.8-4.9-2.2
					c-2.2,0.6-4.4,1.1-6.4,2.2c-5.3,2.8-10.4,5.9-15.7,8.7c-11.5,6.2-23.1,12.1-34.1,19.6c-1.7,1.2-3.2,2.8-4.7,4.2
					C735.2,449.3,759.7,443.3,784,436.4z M690.5,426.6c-2.2-6.1-4.4-11.8-6.3-17.7c-1.3-3.9-3.8-6.3-6.2-8.7
					c-3.8-3.8-7.9-7.3-11.9-10.8c-2-1.8-4.1-3.5-6.4-5.5c5.5,16.1,13.7,30,17.4,46.4c0.1,0.3,0.8,0.7,1.1,0.5
					C682.1,429.5,686.1,428.2,690.5,426.6z M783.7,447.9c0.2-0.2,0.3-0.4,0.5-0.6c-1.2-2.2-2.6-4.3-3.7-6.6
					c-0.9-1.9-1.8-1.9-3.4-1.3c-6.1,2.2-12.2,4.1-18.4,6.2c-11.7,4-23.4,8.1-35,12.1c-7,2.4-13.4,6.8-19.9,10.5
					c-0.7,0.4-1.4,0.8-2.2,1.3c-0.4-1-0.9-1.7-1.1-2.6c-1.7-5.9-4.9-10.5-8.3-15.1c-0.8-1.1-1.5-1.6-2.4,0.2
					c-1.3-2.3-2.4-4.4-3.6-6.5c-1.1,0.3-2.2,0.7-3.5,1.1c0.8-3.3-1.2-7.4-4.8-8.7c6.1,13.5,13.8,25.6,17.2,40.6
					c1.1-1,1.9-1.6,2.5-2.3c3.4-4.4,7.7-7.4,12.1-9.9c4.2-2.5,8.6-4.4,13-6.5c3.6-1.7,7.2-3.4,10.9-4.6c4.7-1.5,9.5-2.4,14.3-3.7
					c7.6-2,15.3-2.8,23-3.3C775.2,447.7,779.5,447.9,783.7,447.9z M692,524.5c-7.6-21.5-19.9-39.2-34.4-55c-0.6,0.6-0.9,1-1.2,1.4
					c-0.4,0.4-0.8,0.7-1.3,1.1c8.5,7.1,15.5,16.1,22.1,25.3c6.6,9.2,11.3,20,15.2,31.1c0.5,0,0.7,0,0.9-0.1
					c9.9-6.2,20.5-10,30.8-14.5c8.4-3.7,16.8-7.6,25.4-10.9c8.9-3.4,17.9-6.1,27.8-6.7c-1.7-1.7-2-4.4-4.3-4.1
					c-2.4,0.3-4.9,0.6-7.2,1.3c-4.7,1.3-9.3,2.7-13.9,4.3c-5.9,2.1-11.7,4.3-17.4,6.8c-8.6,3.7-17.1,7.4-25.6,11.4
					C703.3,518.5,698,521.4,692,524.5z M779.4,352.3c0.1,0.1,0.1,0.2,0.2,0.2c-0.3,0-0.7,0-1,0c-7.2,0.5-14,3.2-20.5,6.4
					c-6.2,3.1-12.3,6.7-18.5,9.8c-11.1,5.5-22.4,10.4-33,17.3c-1.5,1-3.1,1.9-4.7,2.9c1.6,2.3,3,4.4,4.5,6.6c1.3-1,2.4-1.8,3.6-2.7
					c7-5.8,14.8-9.9,22.5-14.1c7.6-4.1,15.3-7.6,22.9-11.9C763.4,362.2,771.4,357.2,779.4,352.3z M658.9,456.2
					c10.7,16.6,21.2,33,28.4,51.9c4.2-3.2,8.3-6.4,12.8-9.8c-1.7-2.4-3.4-5.2-5.4-7.5c-2.6-2.9-5.5-5.3-8.1-8.2
					c-1.7-1.8-3.3-2.5-5.4-1.6c-0.3,0.1-0.6,0.2-1,0.4c-0.1-3.5-1.2-6.1-3.2-8.2c-3.6-3.6-7.2-7.4-10.9-10.9
					C663.7,460.1,661.3,458.3,658.9,456.2z M788.2,325.1c-8.8,0-17.5,0-26.3,0c-1.6,0-3.1,0.3-4.7,0.6c-3.8,0.7-7.7,1.4-11.5,2.2
					c-5,1.1-10,2-14.9,3.4c-4.5,1.3-8.9,3.3-13.4,4.9c-6.5,2.3-12.7,5.5-18.5,9.8c-1.5,1.1-2.9,2.6-4.4,3.9c0.7,1.7,1.4,3.3,2,4.8
					c0.4-0.2,0.7-0.3,1-0.5c3.5-2.7,6.9-5.9,10.6-8.2c4-2.4,8.3-4.2,12.5-5.9c5.8-2.3,11.6-4.7,17.6-6.2c7.2-1.9,14.5-3.1,21.9-4.3
					c5.4-0.9,10.9-1.4,16.4-1.8c4.2-0.3,8.3-0.1,12.4-0.1C788.6,326.7,788.3,325.8,788.2,325.1z M697.2,362.3
					c2.7-2.2,5.1-4.5,7.7-6.4c6.3-4.6,13.5-6.8,20.3-9.9c7.1-3.2,14.3-5,21.7-6.6c8.5-1.8,16.9-3.5,25.5-4
					c5.3-0.3,10.5-0.3,15.8-0.5c0.6,0,1.2-0.1,1.9-0.1c-0.4-0.7-0.9-1.1-1-1.7c-0.6-2.1-1.7-3-3.6-2.9c-4.7,0.2-9.4,0.3-14.1,0.5
					c-2,0.1-4,0.2-6,0.5c-4.3,0.7-8.6,1.5-12.8,2.3c-4.4,0.8-8.8,1.4-13.1,2.8c-6.8,2.1-13.4,4.8-20.1,7.2
					c-6.4,2.3-12.2,6.1-17.7,10.7c-1.9,1.6-3.8,3-5.8,4.6C696.3,359.6,696.8,360.9,697.2,362.3z M713.6,417.8c0,0.2,0.1,0.5,0.1,0.7
					c0.3,0,0.5,0.1,0.8,0c5.6-1.3,11.3-2.7,16.9-3.9c5.7-1.2,11.3-2.4,17-3.5c3.7-0.7,7.4-1.4,11.1-2c5-0.8,10.1-1.7,15.1-2.2
					c3.7-0.3,7.5-0.1,11.5-0.1c-1.6-3.4-3.1-6.6-4.7-9.7c-0.2-0.4-0.9-0.6-1.3-0.5c-3.2,0.5-6.4,0.7-9.5,1.7
					c-10.5,3.2-21,6.5-31.4,10C730.7,411.4,722.2,414.7,713.6,417.8z M708.9,327.1c14-11.5,30.7-18,46.7-27.6c-1.1,0-1.7-0.1-2.2,0
					c-3.4,0.6-6.8,1.2-10.2,1.9c-3.3,0.7-6.6,1.1-9.7,2.4c-6.9,2.8-13.7,6-20.6,9c-4,1.8-7.9,3.5-11.5,5.2
					C703.9,321,706.3,323.9,708.9,327.1z M779,424.7c-0.8-1.7-0.8-3.7-2.8-3.7c-6.5,0-12.9-0.1-19.3,1.3c-7.6,1.7-15.3,2.8-23,4.3
					c-6.1,1.2-12.2,2.3-18.3,3.8c-5.9,1.5-11.8,3.2-17.6,5.1c-4.9,1.6-9.6,3.5-14.4,5.3c0.3,3.5,0.5,3.7,3,2.8
					c2.5-0.9,5-1.8,7.5-2.7c4.6-1.5,9.1-3.2,13.7-4.5c5.7-1.6,11.4-2.9,17.1-4.2c5.6-1.2,11.2-2.2,16.8-3.3
					c3.8-0.8,7.6-1.6,11.5-2.2c5-0.8,10.1-1.5,15.2-1.9C771.8,424.4,775.2,424.7,779,424.7z M708.1,306.6c0.1,0.2,0.2,0.5,0.3,0.7
					c4-0.9,8.1-1.8,12.1-2.7c4.5-1,9.1-2.1,13.6-3.1c3.5-0.7,7-1.4,10.6-2c3.8-0.7,7.6-1.4,11.3-2c4-0.6,8-1.4,12-1.7
					c4-0.3,8.1-0.1,12.4-0.1c-1.1-2.3-2-4.2-3-6c-0.3-0.5-1.1-0.9-1.6-0.9c-3.5,0.2-6.9,0.5-10.4,0.9c-2.5,0.3-5,0.6-7.5,1
					c-3.6,0.7-7.3,1.4-10.9,2.2c-4.2,0.9-8.5,1.8-12.7,3.1c-4.6,1.4-9.2,3.2-13.8,5.1C716.4,302.8,712.3,304.8,708.1,306.6z
					 M685.7,479.9c7.1,5.5,13,12,16.8,21.2c1.8-1.3,3.5-2.7,5.3-3.8c4.2-2.8,8.3-5.8,12.7-8.3c4.1-2.3,8.3-4.2,12.6-5.7
					c7.2-2.6,14.4-4.9,21.6-7.2c4.8-1.5,9.6-2.8,14.4-4c3.3-0.8,6.6-1.2,10.1-1.8c-1.4-1-2.6-2-3.9-2.8c-0.6-0.3-1.3-0.6-1.9-0.4
					c-5.5,1.5-11,2.8-16.4,4.6c-9.6,3.1-19.1,6.2-28.6,9.8c-5.5,2.1-10.8,4.7-15.6,8.6c-3.1,2.5-6.5,4.5-9.7,6.7
					c-0.7-1.3-1.2-2.4-1.8-3.5c-2.7-5.1-5.8-9.7-9.8-13.4C689.4,478,687.8,478.5,685.7,479.9z M765.8,484.2
					c-3.3,0.2-6.2,0.1-9.1,0.6c-5.8,0.9-11.6,2.2-17.4,3.2c-5.8,1-11.5,2.1-17,4.6c-5.2,2.3-10.8,3.2-15.6,6.9
					c-1.6,1.2-3.2,2.3-4.9,3.5c-0.3-0.5-0.6-1-0.9-1.4c-1.5,0.9-2.9,1.8-4.2,2.6c0.7,2.6,1.3,4.9,2,7.3c0.5-0.3,1.1-0.6,1.7-1
					c9.7-6.5,19.9-11.3,30.5-15C742.3,491.5,753.9,488,765.8,484.2z M684.5,343c-0.6-1.2-0.9-2.3-1.5-2.9c-1.8-1.9-3.8-3.5-5.7-5.3
					c-3.6-3.3-7.1-6.8-10.7-10c-3.2-2.9-6.5-5.6-9.8-8.3c-0.5-0.4-1.3-0.9-1.7-0.7c-1.9,0.8-3.6,1.8-5.4,2.7c3.1,2.6,6.3,5,9.3,7.7
					c4.6,4.1,9,8.5,13.5,12.7c4.4,4.2,8.8,8.6,13.3,12.7c2.5,2.3,5.2,4.3,7.7,6.5c0.1-0.9,0-1.5-0.3-1.9c-1.6-3.2-3.2-6.4-4.8-9.6
					c-0.3-0.6-0.4-1.4-0.8-1.8C686.8,343.7,686,341.8,684.5,343z M779.3,415.3c-0.7-1.5-1.3-2.7-1.8-3.8c-1.4-3-1.6-3.1-4.7-2.4
					c0.6,1.4,1.2,2.8,1.8,4.4c-3.9,0-7.5-0.2-11.1,0c-5.2,0.3-10.3,0.7-15.5,1.4c-4,0.5-8,1.5-12,2.3c-3.7,0.7-7.4,1.3-11.1,2.1
					c-4.7,1.1-9.4,2.2-14.1,3.5c-3.6,1-7.1,2.1-10.7,3.2c-1.5,0.5-2.7,2.7-4.5,1c-0.1-0.1-0.4,0.2-0.7,0.3c-1.2,0.4-2.4,0.7-3.6,1.1
					c-2.7,0.8-5.4,1.7-8,2.6c0.1,0.8,0.2,1.2,0.3,1.6c0.3,2,1.2,2.4,2.7,1.8c2.5-1,5.1-1.9,7.7-2.8c4.5-1.6,9.1-3.3,13.7-4.6
					c5.6-1.6,11.4-2.9,17.1-4.1c5.6-1.2,11.2-2.3,16.8-3.4c3.7-0.7,7.4-1.4,11.1-2c5-0.8,9.9-1.7,14.9-2.1
					C771.3,415.1,775.1,415.3,779.3,415.3z M649.6,248.6c3.1,1.3,6.3,2.6,9.4,4.2c8.2,4.2,14.7,11.3,21.2,18.3
					c3.1,3.3,6.4,6.4,9.6,9.5c3.5,3.4,7.4,6.4,10.6,10.2c2.8,3.3,5,7.5,7.5,11.5c0.5-0.4,1.3-0.9,2-1.5c0.7-0.5,1.5-1.1,2.2-1.6
					c3.3-2.3,3.3-2.3,1.1-6.4c-2.2,1.5-4.3,3.1-6.7,4.7c-1.9-6.8-5.8-11.5-9.9-15.8c-6.2-6.5-13-12.2-19.3-18.6
					c-5.7-5.8-11.6-11-18-15.5c-1-0.7-2.4-1.5-3.5-1.3C653.7,246.6,651.6,247.7,649.6,248.6z M692.5,518.7c0.4-0.1,0.6,0,0.7-0.1
					c9.9-4.6,19.9-9.3,29.8-13.8c5.8-2.7,11.7-5.2,17.6-7.8c6.7-2.9,13.3-5.9,20.4-7.2c5.2-0.9,10.4-2.1,15.6-3.2
					c-0.9-2.9-1.9-3.5-4.6-2.7c-5.5,1.8-11.1,3.6-16.6,5.4c-10.2,3.4-20.5,6.5-30.6,10.4c-6.2,2.3-12.1,5.7-18.1,8.7
					c-3,1.5-6,3.4-9.1,5.2c-1.1-2.6-2.2-5.1-3.3-7.8c-1.9,1.7-3.6,3.2-5.3,4.7C690.3,513.3,691.4,515.9,692.5,518.7z M702.6,454.5
					c0.8-0.6,1.6-1.1,2.3-1.7c3.5-2.6,6.7-5.6,10.4-7.6c8.9-4.8,18.1-8.4,27.6-11.3c6.3-1.9,12.5-4.1,18.7-6.2
					c-1.9,0-3.8,0.3-5.6,0.6c-4,0.7-8.1,1.4-12.1,2.1c-3.7,0.7-7.4,1.3-11.1,2.1c-2.8,0.6-5.6,1-8.2,2.1c-4.9,1.9-9.6,4.2-14.4,6.3
					c-3.9,1.8-7.8,3.6-11.8,5.4C699.9,449.2,701.2,451.8,702.6,454.5z M760.6,430.2c-0.1-0.2-0.1-0.3-0.2-0.5
					c-0.5,0.2-1,0.4-1.6,0.6c-11.7,4.2-23.5,8.4-35.2,12.6c-6.4,2.3-11.8,6.7-17.5,10.8c0.5,0.8,0.9,1.6,1.4,2.3
					c0.5,0.7,1.3,1.2,1.5,2c0.7,2,1.7,1.6,2.8,0.7c7.4-5.8,15.1-11,23.3-15.1c5-2.5,10-5.2,15-7.8
					C753.6,434,757.1,432.1,760.6,430.2z M721.2,392.6c0.1,0.2,0.1,0.4,0.2,0.7c9.3-5.4,19.3-8.4,29.3-11.3
					c10-2.9,19.8-7.3,30.6-7.3c-3.7-3-7.1-5.8-10.5-8.4c-0.5-0.4-1.4-0.5-2-0.2c-7.5,4.3-14.9,8.8-22.3,13
					c-5.5,3.1-11.1,5.9-16.6,8.8C727,389.5,724.1,391.1,721.2,392.6z M667.9,265.8c-0.2,0.1-0.4,0.3-0.5,0.4
					c0.9,2.3,1.8,4.6,2.6,6.9c4.9,13.8,11.5,26.8,14.7,41.5c0.1,0.4,0.8,0.9,1.1,0.8c2.4-0.8,4.8-1.7,7.4-2.7
					c-2.1-5.1-3.9-10.2-6.3-14.8c-3.3-6.3-7.1-12.3-10.7-18.4C673.5,274.9,670.7,270.4,667.9,265.8z M645.6,368.7
					c12.9,7.2,23.5,18.4,35,27.9c-0.2-0.6-0.4-1.1-0.6-1.6c-3.2-4.8-6.4-9.6-9.6-14.4c-4-6.1-8.4-11.8-13.4-16.7
					c-0.3-0.3-1.1-0.5-1.5-0.3C652.1,365.2,648.8,367,645.6,368.7z M779.4,460c-0.6-2.6-1.5-4-3.8-3.8c-3.2,0.3-6.5,0-9.8,0.1
					c-2.1,0.1-4.2,0.2-6.2,0.5c-4.6,0.8-9.1,1.8-13.7,2.7c-4.8,1-9.6,1.8-14.4,3c-5,1.2-10,2.5-15,4.1c-2.5,0.8-5.5,0.6-7.8,3.9
					c4.7-1,9.1-1.9,13.4-2.8c5.1-1,10.1-2.1,15.2-3c4.8-0.9,9.6-1.7,14.3-2.4c5.8-0.8,11.6-1.7,17.4-2.2
					C772.5,459.8,775.9,460,779.4,460z M779.6,464.5c-1.5-1.6-3.2-2.8-5.5-2.1c-5.8,1.7-11.7,3.2-17.4,5.1c-9,2.8-18,5.7-26.8,8.9
					c-5.9,2.2-11.7,4.7-16.8,9.1c-2.9,2.5-6.2,4.5-9,6.5c-2.3-4-4.5-7.8-6.7-11.7c-0.7,0.8-1.1,1.2-1.4,1.5c2.8,4.5,5.4,8.7,8,13
					c0.3-0.2,0.7-0.5,1.1-0.8c5.2-3.6,9.8-8.4,15.6-10.8c5.3-2.1,10.5-4.7,15.8-6.8c4.2-1.6,8.4-2.7,12.7-4c6-1.8,11.9-3.8,17.9-5.4
					C771.3,465.9,775.5,465.3,779.6,464.5z M780.5,481c-1.7-2.6-3.1-4.9-4.7-7.1c-0.3-0.5-1.2-0.9-1.7-0.8c-4.5,1-9,1.8-13.4,3.1
					c-7.6,2.2-15.2,4.7-22.8,7.1c-1.7,0.6-3.5,1.2-5.2,1.8c-1.6,0.6-3.2,1.3-4.9,2C745.2,483.5,762.5,480.9,780.5,481z M776.4,360.5
					c-3.1-2.5-3.1-2.4-6.3-0.6c-6.5,3.8-13,7.8-19.6,11.4c-10.7,5.9-21.7,10.8-32,17.9c-3.2,2.3-6.4,4.6-9.6,7
					c-0.4,0.3-0.5,0.9-0.9,1.6c7.7-4.3,15-8.3,22.3-12.3c7.1-3.8,14.3-7.3,21.3-11.2c5.9-3.3,11.7-7.1,17.5-10.5
					C771.4,362.5,773.9,361.6,776.4,360.5z M651.9,274.6c8.6,7.7,17.3,15.5,26,23.3c-1-3.2-2-6.5-3.6-9.3c-1.9-3.3-4.2-6.3-6.4-9.3
					c-2-2.8-4.1-5.4-6.3-8c-0.4-0.5-1.3-0.7-1.8-0.5C657,272.1,654.3,273.5,651.9,274.6z M735.8,466.7c-1.4,0.2-3.3,0.4-5.3,0.8
					c-6,1.3-12,2.6-18,4.2c-3.7,1-8,0.4-10.7,4.2c2.1,2.7,4.3,5.5,6.1,7.8C717.5,477.9,726.9,472.2,735.8,466.7z M777.6,506.4
					c-1.4-2.9-2.5-5.2-3.7-7.5c-0.2-0.4-0.8-0.7-1.2-0.6c-2.2,0.3-4.5,0.4-6.7,1.1c-7.7,2.5-15.4,5.1-23,7.8
					c-3.1,1.1-6.1,2.5-9.1,3.8C748.3,509,762.4,504.7,777.6,506.4z M692.6,522.6c0.6-0.3,1.2-0.7,1.7-1c2.9-1.6,5.7-3.4,8.7-4.7
					c7.8-3.5,15.6-6.7,23.4-10.1c7.7-3.3,15.3-7,23.1-9.9c8.8-3.2,17.9-5.7,27.2-6.4c-0.2-1.5-0.8-2.4-2.2-2.1
					c-3.5,0.8-7,1.7-10.5,2.3c-7.4,1.2-14.5,3.9-21.5,6.9c-10.2,4.3-20.3,8.9-30.3,13.5c-6.6,3-13.2,6.3-19.8,9.5
					c-0.1-0.1-0.3-0.4-0.6-0.8c-0.1,0.1-0.1,0.1-0.2,0.2C691.9,520.8,692.2,521.6,692.6,522.6z M677.8,317.2
					c2.3,7.5,4.6,14.9,6.8,22.4c0.3,1,0.4,1.4,1.4,0.9c1.4-0.7,2.9-1,4.3-1.5c1.3-0.4,2.5-0.9,3.7-1.4c1.2-0.5,2.3-1,3.5-1.5
					c0.1-0.3,0.1-0.5,0.2-0.8C691,329.3,684.4,323.2,677.8,317.2z M779,419.1c0.1-0.2,0.2-0.3,0.2-0.5c-0.5-0.5-1.1-1.3-1.6-1.3
					c-5.7,0.1-11.4,0-17.1,0.5c-4,0.3-8,1.5-12.1,2.2c-5.4,1-11,1.6-16.3,2.9c-11.5,2.9-22.9,6-34.3,9.2c-4.7,1.3-9.3,3.2-13.9,4.8
					c0,0.3,0,0.5,0,0.8c0.5,0,1,0.2,1.4,0.1c3.8-1.2,7.6-2.6,11.3-3.8c4.3-1.4,8.6-3,13-4.1c5.4-1.4,10.9-2.4,16.4-3.6
					c4.9-1,9.9-2,14.8-3c3.9-0.7,7.8-1.4,11.7-2c5.2-0.8,10.4-1.7,15.7-2.2C771.8,418.8,775.4,419.1,779,419.1z M658.7,421.2
					c0.2-0.2,0.4-0.4,0.6-0.7c2,3.1,4,6.3,6.1,9.3c3.1,4.4,6.5,8.6,9.5,13.1c4,6,7.8,12.1,10.3,19.3c1.1,3.3,2.6,6.4,4,9.6
					c0.2,0.5,0.8,0.7,1.3,1c0.2-0.6,0.7-1.4,0.6-1.8c-1.4-3.9-2.6-7.9-4.5-11.5c-3.8-7.5-7.9-14.8-10.8-22.9
					c-0.4-1.2-1.2-2.3-2.1-3.1C668.7,429.3,663.7,425.3,658.7,421.2z M670.6,491.2c0,0.4-0.1,0.5-0.1,0.6c4,10.9,9.1,21.3,11.5,33.1
					c0.1,0.4,0.8,0.9,1.1,0.9c2-0.6,4-1.3,5.9-2C684.6,511.4,677.9,501.1,670.6,491.2z M681.1,479.3c0.2-0.1,0.5-0.2,0.7-0.3
					c0-1.1,0.2-2.3,0-3.4c-0.6-2.8-1.3-5.7-2.2-8.4c-2.7-8.2-5.5-16.2-8.2-24.4c-1-3.1-2.3-5.8-4.3-8.1c-1.8-2-3.2-4.5-4.9-6.7
					c-1.4-1.8-2.9-3.5-4.3-5.3c-0.2,0.2-0.3,0.3-0.5,0.5c5.8,8.1,9.1,17.9,13.1,27.2C674.5,459.7,679.1,468.7,681.1,479.3z
					 M672.4,419.7c-4.7-9-10.7-16.5-17-23.3c-3.8,1.7-7.4,3.4-10.8,4.9c5,1.5,9.9,3.8,14.7,6.9C664.1,411.4,667.9,415.9,672.4,419.7
					z M666.2,369.2c-0.1,0.1-0.2,0.3-0.3,0.4c1.3,1.3,2.7,2.6,4,3.8c4.5,4.2,8.9,8.6,13.5,12.7c2.9,2.6,6.1,4.6,8.9,7.2
					c3.2,3,6.2,6.4,9.5,9.8c1.8-1.4,3.9-3,5.9-4.6c-3.2-2-5-5.9-7.8-8.4c-1.3,1.4-3.5,1.5-4.3,4.3c-0.4-0.2-1.1-0.2-1.6-0.7
					c-1.2-1.1-2.2-2.3-3.3-3.5c-2.6-2.7-5.2-5.6-8-8c-3.9-3.3-8.1-6.2-12.2-9.4C669,371.8,667.6,370.5,666.2,369.2z M677.2,471.5
					c-1-3.8-2.1-7.2-4.9-9.6c-3.5-3-6.7-6.4-10.1-9.4c-1.8-1.6-3.9-2.5-5.6-4.1c-3.9-3.5-7.9-3.3-12.4-1
					C657.4,451.2,667.6,460.8,677.2,471.5z M777.9,454c-0.4-2.2-1.1-3.6-3.3-3.3c-4.3,0.5-8.7,0.6-13,1c-2.2,0.2-4.3,0.7-6.5,1.2
					c-4.4,1-8.7,2.2-13.1,2.9c-6.2,1-11.9,3.8-17.6,6.4c0.4,0.1,0.8,0.1,1.1,0c3.7-0.9,7.3-1.8,11-2.6c5.6-1.2,11.2-2.5,16.8-3.5
					c4.6-0.8,9.2-1.6,13.8-2C770.7,453.7,774.2,454,777.9,454z M653.8,311.3c10.6,7.6,19.2,17.8,29.2,26c-2.7-4.3-4.1-9.5-7.9-13
					c-5.7-5.3-11.5-10.5-18.5-13C655.8,311.1,654.8,311.3,653.8,311.3z M664.8,239.6c1.2,0.4,2.6,0.6,3.7,1.3c4,2.8,8,5.7,11.8,8.9
					c3.9,3.2,7.8,6.7,11.5,10.3c4.7,4.6,10.1,8.1,13.7,14.2c0.4,0.6,0.9,1.1,1.3,1.7c0.5,0.5,0.9,1,1.4,1.6
					c-1.8-3.8-3.5-7.5-6.5-10.2c-2.7-2.5-4.8-6-7.6-8.4c-7.4-6.5-15-12.6-22.4-19.1C669.2,237.4,667.1,237.2,664.8,239.6z
					 M747.4,341.8c-13.6,3-26.9,7.5-39.5,14.9c1,2,1.9,3.6,2.9,5.5C721.8,352.3,734.3,346.1,747.4,341.8z M760.2,340.2
					c-0.6-0.1-0.8-0.2-0.9-0.2c-4.5,1.6-9,2.9-13.4,4.9c-10.1,4.6-19.7,10.5-29.1,16.8c-1.7,1.1-3.1,2.9-4.6,4.4
					c0.1,0.2,0.2,0.5,0.4,0.7C727.7,356.3,744.3,349.6,760.2,340.2z M654,262.5c6.4,6.1,12.9,11.8,18,19.6
					c-3.7-8.3-6.2-17.4-11.1-25.2C658.5,258.7,656.3,260.5,654,262.5z M650.9,390.9c6.1,5.8,12.7,10.6,17.1,18.4
					c0.1-0.5,0.2-0.9,0.1-1.3c-3-7.2-6-14.3-9-21.5c-0.6-1.4-1.3-1-2-0.5C655,387.6,653,389.2,650.9,390.9z M673,443.2
					c0.4,1.2,0.6,2,0.9,2.8c3.2,9.4,7.1,18.5,8.9,28.6c0.1,0.4,0.9,0.9,1.2,0.8c1.5-0.5,3-1.1,4.5-1.7
					C683.8,463.2,680,452.3,673,443.2z M711.1,462.5c-2.3-2.7-4.6-5.2-6.8-7.7c-1,0.6-1.8,1-2.4,1.4c-1.6-3-3.2-6-4.9-9.1
					c-1.1,0.7-1.9,1.2-2.8,1.7c3.5,5.9,7.4,11.3,8.1,19C705.3,466.1,708.1,464.4,711.1,462.5z M725.4,305.5c-1,0.1-1.5,0.1-2,0.2
					c-4.1,1-8.2,2.1-12.2,3.1c-4.8,1.2-9.7,2.1-13.6,6.3c-2.2,2.3-2.3,2.2-3.9-0.6c-1,0.5-2.1,0.9-3.2,1.4c0.7,1.8,1.4,3.4,2,4.8
					C703.3,315.7,714.1,310.7,725.4,305.5z M717,480.7c16-8.8,33.2-12.9,50-18.9C749.2,463.7,732.6,470.4,717,480.7z M672.4,459
					c-0.7-3.7-3.1-6.5-5.9-8.7c-3.4-2.7-6.8-5.4-10.3-7.9c-3.9-2.8-7.8-3.1-10.6-1.4c4.4,2.4,9.4,4.7,13.9,7.7
					C664.2,451.7,668.3,455.6,672.4,459z M662.1,304.2c-3.5,1.5-6.6,2.8-8.8,3.7c6,3.4,12.8,7.2,19.3,10.8
					C669.2,314,665.7,309.1,662.1,304.2z M716.5,436.4c0-0.2-0.1-0.4-0.1-0.6c-9.5,2.9-19.1,5.8-28.7,8.7c0.8,1.9,1.4,3.4,2,4.6
					C698.7,444.8,707.6,440.6,716.5,436.4z M691.5,349.2c3.5-2.8,6.8-5.6,10.1-8.3c-0.8-1-1.7-2.1-2.6-3.2c-3.5,1.3-7,2.6-10.4,3.9
					C689.6,344.1,690.5,346.7,691.5,349.2z M651.6,431.6c4.9,4.1,9.8,8.1,14.7,12.3c-2.5-5.3-5-10.6-7.4-15.9
					C656.4,429.3,653.9,430.5,651.6,431.6z M704.3,359.7c-1.3,1.2-2.8,2.5-4,3.6c1.8,2.6,3.6,5.1,5.4,7.6c0.3,0.3,1,0.5,1.4,0.3
					c1.7-1.2,3.4-2.5,4.7-3.5C709.3,365,706.8,362.4,704.3,359.7z M663.2,465.6c-3.2-4.5-6.1-8.6-9.1-12.5c-0.7-0.8-2.2-1.3-3.2-1
					c-1.5,0.4-2.9,1.6-4.3,2.5C652.7,456.7,657.2,462.2,663.2,465.6z M646.3,436.6c8.1,2.7,15.4,7.2,22.3,12.9
					c-0.2-0.7-0.4-1.5-0.9-1.9c-4-3.6-8.1-7.2-12.2-10.6c-1.2-1-2.6-2.4-4-2.3C649.8,434.7,648,435.9,646.3,436.6z M650.5,410.9
					c5.2,0.7,8.7,5.2,12.8,8.1c4.2,3,8.1,6.6,12.1,10c-0.4-1-1-1.9-1.7-2.5c-6.2-5.2-11.6-11.7-18.4-16.1
					C653.2,409,652,409.7,650.5,410.9z M695.3,424.9c-1.3-2.1-1.7-4.5-3.8-6.1c-1.8-1.4-2.6-4.8-3.8-7.4c-0.4-0.8-0.9-1.5-1.4-2.3
					c-0.2,0.1-0.3,0.3-0.5,0.4c0.3,0.6,0.5,1.3,0.8,1.9c1.2,3.5,2.5,6.9,3.4,10.5C691.2,427.1,691.1,427.2,695.3,424.9z
					 M646.6,427.4c1.1,0.5,2.5,1.3,3.9,1.9c0.5,0.2,1.1,0.3,1.6,0c1.9-0.9,3.8-1.9,5.8-3c-0.8-1.2-1.6-2.4-2.2-3.2
					C652.4,424.6,649.4,426.1,646.6,427.4z M707.9,485.8c-1.5-1.7-2.9-3.4-4.4-5c-0.8-0.9-1.7-1.8-2.6-2.7c-0.2-0.2-0.6-0.1-0.9-0.2
					c0,0.4-0.1,0.9,0,1.2c1.5,3.1,3,6.2,4.6,9.3C705.7,487.6,706.8,486.7,707.9,485.8z M703.3,339.8c6.3-2.7,12.8-5.6,19.3-8.4
					C715.8,333.3,708.3,332.9,703.3,339.8z M656.8,467.3c7.7,6.6,13.7,15.3,20.1,23.5C670.5,482.6,665.8,472.3,656.8,467.3z
					 M771,408.9c-5.7,0.9-11.4,1.9-16.7,2.7c5.6,0,11.6,0,17.8,0C771.7,410.6,771.4,409.9,771,408.9z M732.7,349.7
					c-4.7,1.2-12.8,6.1-15.1,9.1C722.7,355.7,727.4,352.9,732.7,349.7z M781.5,417.1c-0.5,0.1-0.9,0.2-1.4,0.3
					c0.1,0.4,0.3,0.8,0.3,0.8c1.6-0.5,3.2-1,5.1-1.7c-2.1-1.4-3.9-2.6-6.1-4.1C780.3,414.3,780.9,415.6,781.5,417.1z M783.6,322.2
					c0.2-0.3,0.4-0.6,0.7-0.9c-1.7-2.6-3.4-5.2-5.1-7.8c0.7,2.5,1.7,4.8,2.8,7C782.3,321.2,783.1,321.6,783.6,322.2z M666.5,306.2
					c-0.2,0.2-0.4,0.4-0.6,0.6c1.8,2.5,3.6,5,5.4,7.5c0.2-0.2,0.4-0.4,0.6-0.6C670.1,311.2,668.3,308.7,666.5,306.2z M669.4,420
					c-1.8-3.2-6.3-7.4-8-7.7C664.1,415,666.7,417.5,669.4,420z M704.2,404.1c0.1,0.2,0.2,0.4,0.3,0.7c2.4-1.8,4.8-3.6,7.3-5.3
					c-0.1-0.2-0.2-0.4-0.3-0.6C709,400.6,706.6,402.4,704.2,404.1z M648.4,363.3c0.7,2,1.8,1.7,4.7-1.1
					C651.4,362.6,649.9,362.9,648.4,363.3z M709,362.8c-0.9-4.2-1.8-5.4-3.1-4.3C706.9,359.9,707.9,361.3,709,362.8z M779.3,272.4
					c1.6,0,3.1,0,5.1,0C782.4,270.2,780.8,272.1,779.3,272.4z"/>
			</g>
		</g>
		<g id="van">
			<g>
				<path d="M701.7,24.1c0.4,1.5,1.2,3.1,1.2,4.6c0.1,14.4,0.1,28.8,0.1,43.1c0,0.9,0,1.9,0,3.1c1.1,0.1,2.1,0.2,3.1,0.2
					c6.8,0.1,13.6,0.3,20.4,0.2c4.2-0.1,7.1,1.7,9.3,5c5.1,7.5,10.2,15,15.3,22.5c1.9,2.8,3.8,5.6,5.5,8.5c1.1,1.9,2.6,2.6,4.7,3
					c3.3,0.6,6.6,1.5,9.8,2.7c3.8,1.4,6.6,4.1,8.4,8c0.3,0.6,1.3,1.2,2.1,1.3c2.4,0.2,3.4,1.6,3.5,3.7c0.2,2.5,0.1,5.1,0,7.6
					c-0.1,2.8-2.1,3.2-4.6,3.4c0,4.9,0,9.8,0,14.7c0,0.5,0.4,1,0.8,1.3c2.2,2,1.9,4.4,1.2,6.8c-0.5,1.9-2.2,2.6-4.1,2.5
					c-3.6,0-7.3,0-10.9,0c-0.8,0-1.7,0-2.8,0c-0.3,7.9-3,14.4-9.2,19.1c-4.6,3.5-9.8,5-15.5,4.8c-11.9-0.4-20.1-9.1-22.2-23.7
					c-40.1,0-80.3,0-120.8,0c-0.4,8-3.4,14.8-10.3,19.5c-4.3,3-9.1,4.4-14.3,4c-12.6-0.9-20.2-8.9-22.4-23.7c-1.1,0-2.2,0-3.4,0
					c-5.5,0-11.1-0.1-16.6,0c-2.5,0.1-4.5-0.6-5.9-2.7c0-1.6,0-3.2,0-4.7c1.9-1.7,2.1-3.8,2.1-6.2c-0.1-41.3-0.1-82.6,0-123.9
					c0-1.5,0.8-3.1,1.2-4.6C585.7,24.1,643.7,24.1,701.7,24.1z M701.8,155.9c0-1.1,0-1.8,0-2.6c0-41.6,0-83.2,0-124.7
					c0-3.3-0.1-3.4-3.3-3.4c-55.9,0-111.8,0-167.7,0c-3.2,0-3.4,0.1-3.4,3.3c0,41.6,0,83.2,0,124.7c0,0.8,0.1,1.7,0.1,2.7
					c6.8,0,13.5,0,20.1-0.1c0.6,0,1.3-0.7,1.7-1.3c1.6-2.3,2.8-5,4.6-7.1c12.6-13.8,35.7-10.9,43.8,6.2c0.8,1.8,1.8,2.3,3.7,2.3
					c32.4-0.1,64.8,0,97.2,0C699.7,155.9,700.6,155.9,701.8,155.9z M703.1,155.9c4.2,0,8.2,0.1,12.1-0.1c0.6,0,1.5-0.7,1.9-1.3
					c1.3-1.9,2.2-4.1,3.6-5.8c5.2-6.2,11.9-9.7,20-9.7c11.3-0.1,19.7,4.9,24.9,15c0.4,0.7,1,1.8,1.5,1.9c4.1,0.2,8.1,0.1,12.3,0.1
					c0-9,0.1-17.6,0-26.2c-0.1-5.2-2.8-9.1-7.5-11.2c-3.6-1.5-7.5-2.5-11.3-3.3c-2-0.4-3.2-1.1-4.3-2.7c-4.7-7.1-9.6-14.1-14.3-21.2
					c-2.4-3.5-4.7-7.1-7.1-10.6c-1.8-2.6-4.2-4.3-7.7-4.3c-6.8,0.1-13.6-0.1-20.4-0.2c-1.2,0-2.3,0-3.6,0
					C703.1,102.9,703.1,129.3,703.1,155.9z M719.3,166.1c-0.1,12.8,9.7,22.9,22.2,22.9c12.4,0,22.3-9.9,22.3-22.6
					c0-11.5-9.2-22.8-22.1-22.9C728.7,143.4,719.3,154.7,719.3,166.1z M573.8,188.7c12.4,0,22.1-9.9,22.2-22.6
					c0-12.4-9.9-22.7-22.1-22.8c-12.2-0.1-22.4,10.4-22.3,22.8C551.6,178.9,561.4,188.7,573.8,188.7z M595.5,157
					c0.5,1.9,1.2,3.6,1.2,5.2c0,2.6,1.2,3,3.5,3c38.3-0.1,76.5,0,114.8,0c0.7,0,1.4,0.1,2.1-0.1c0.4-0.1,0.9-0.4,1-0.7
					c0.6-2.4,1-4.9,1.5-7.4C678.3,157,637,157,595.5,157z M552,156.9c-7.7,0-15.2,0-22.6,0c-2.9,0-4,1.2-4,4c0,3.1,1,4.2,4,4.2
					c6.5,0,12.9,0,19.4,0c0.5,0,1.1-0.1,1.5-0.2C550.8,162.3,551.3,159.7,552,156.9z M717.8,155.7c2.5,0.3,2.3,0.2,3.8-1.7
					c2-2.5,3.9-5.3,6.3-7.2c8.7-6.8,25.5-6.9,33.5,7.3c1,1.7,2.1,2.1,3.8,1.6c-3-9.1-12.7-16-23.7-16
					C730.5,139.8,720.8,146.7,717.8,155.7z M597.8,155.7c-3.9-10.6-14.7-17.1-26.7-15.9c-10.1,1-18.5,8.1-20.8,16
					c1.7,0.6,2.7-0.2,3.6-1.7c1.2-2.1,2.6-4.2,4.4-5.8c9.5-9,27.5-8.7,35.5,5.7C594.7,155.7,595.8,156.3,597.8,155.7z M765.1,165.1
					c4.7,0,9.3,0.1,14,0c2.1-0.1,3-1.5,3-3.5c0.1-2.8-0.7-4.5-2.7-4.6c-5.4-0.2-10.8-0.1-16.2-0.1
					C763.8,159.8,764.4,162.3,765.1,165.1z M780.5,133.5C780.6,133.5,780.6,133.5,780.5,133.5c0.1,1.3-0.1,2.7,0.1,4
					c0.1,0.8,0.6,2,1,2.1c1.4,0.2,2.5-0.6,2.5-2.1c0.1-1.7,0-3.5,0-5.2c0-0.9,0.3-2.1-0.2-2.8c-0.6-1-1.8-1.6-2.7-2.3
					c-0.3,0.8-0.7,1.7-0.8,2.5C780.4,131,780.5,132.2,780.5,133.5z"/>
				<path d="M752.5,114.5c-15.5,0-30.8,0-46.3,0c0-11.4,0-22.8,0-34.5c1.9,0,3.7,0,5.6,0c4.8,0,9.6,0.1,14.5,0.1
					c2,0,3.5,0.5,4.8,2.3c7,10.4,14.1,20.7,21.2,31.1C752.3,113.7,752.3,113.9,752.5,114.5z M750.9,113.6c-2.6-4.1-5-7.8-7.4-11.4
					c-3.8-5.6-7.7-11-11.4-16.6c-2.1-3.3-4.6-5.1-8.7-4.6c-2.6,0.3-5.2,0-7.8,0c-2.8,0-5.6,0-8.5,0c0,11,0,21.8,0,32.6
					C721.8,113.6,736.2,113.6,750.9,113.6z"/>
				<path d="M741.7,175.9c-5.1,0.1-9.4-4.4-9.4-9.8c0-5.1,4.1-9.2,9.2-9.3c5.1-0.1,9.5,4.1,9.4,9.3
					C750.8,170.7,747.2,176.1,741.7,175.9z M741.7,175c4.6,0.3,8.3-5.1,8.2-8.9c-0.2-4.5-3.9-8.2-8.4-8.2c-4.5,0.1-8.2,3.8-8.2,8.4
					C733.2,170,737.1,175.4,741.7,175z"/>
				<path d="M564.6,166c0-5.2,4.2-9.3,9.4-9.2c5.1,0,9.2,4.1,9.2,9.2c0,5.3-4.4,9.9-9.4,9.8C568.9,175.7,564.6,171.2,564.6,166z
					 M565.6,165.9c0,4.6,4,8.9,8.3,8.9c4.3,0,8.3-4.3,8.3-8.8c0-4.6-3.7-8.2-8.3-8.3C569.4,157.7,565.6,161.4,565.6,165.9z"/>
				<path d="M741.6,162.5c2.2,0,3.9,1.8,3.8,4c-0.1,2.1-1.9,3.8-4,3.7c-2.1-0.1-3.7-1.8-3.7-3.9
					C737.7,164.1,739.3,162.5,741.6,162.5z M744.5,166.5c0-1.9-1.3-3.2-3-3.3c-1.7,0-3.2,1.5-3,3.2c0.2,1.8,1.2,2.9,3.1,2.8
					C743.4,169.3,744.4,168.1,744.5,166.5z"/>
				<path d="M577.7,166.1c0,2.1-1.8,3.9-3.9,3.9c-2,0-3.8-1.7-3.8-3.8c-0.1-2.1,1.7-4,3.8-4C575.9,162.2,577.7,164,577.7,166.1z
					 M576.9,166c-0.3-1.8-1.3-2.9-3.1-2.9c-1.7,0-3.1,1.5-3,3.2c0.2,1.8,1.3,2.9,3.2,2.8C575.8,169,576.7,167.8,576.9,166z"/>
			</g>
		</g>
		<g>
			<rect x="416.8" y="424.1" class="st0" width="162.3" height="57.4"/>
			<path d="M442.1,445.2c1.8,0.7,3.2,1.8,4.1,3.2c1,1.4,1.4,4.8,1.4,10.2c0,3.9-0.4,6.8-1.1,8.7c-0.8,1.9-2.2,3.4-4.4,4.6
				c-2.2,1.2-5.2,1.8-8.9,1.8c-3.6,0-6.5-0.6-8.6-1.7s-3.6-2.7-4.5-4.5s-1.4-5-1.4-9.4c0-2.9,0.2-5.5,0.7-7.7
				c0.5-2.2,1.9-3.9,4.2-5.2c-1.5-0.7-2.6-1.9-3.4-3.4c-0.8-1.6-1.1-3.6-1.1-6c0-4.2,1.2-7.3,3.5-9.4s5.8-3.1,10.4-3.1
				c5.3,0,9,1.1,11.1,3.3c2,2.2,3.1,5.4,3.1,9.5c0,2.6-0.3,4.5-1,5.7C445.6,442.9,444.2,444,442.1,445.2z M435.6,455
				c0-1.9-0.2-3.1-0.6-3.7c-0.4-0.6-1-0.9-1.8-0.9c-0.8,0-1.4,0.3-1.7,0.9c-0.4,0.6-0.5,1.8-0.5,3.7v6.3c0,2.1,0.2,3.5,0.6,4.1
				c0.4,0.6,1,0.9,1.8,0.9c0.9,0,1.4-0.3,1.7-0.9c0.3-0.6,0.5-2,0.5-4.1V455z M435.3,434.7c0-1.6-0.1-2.7-0.4-3.3
				c-0.3-0.5-0.8-0.8-1.7-0.8c-0.8,0-1.3,0.3-1.6,0.9c-0.3,0.6-0.4,1.6-0.4,3.2v3.7c0,1.5,0.2,2.5,0.5,3c0.3,0.6,0.9,0.8,1.6,0.8
				c0.8,0,1.3-0.3,1.6-0.8c0.3-0.5,0.4-1.7,0.4-3.4V434.7z"/>
			<path d="M458.9,463.2v4.4c0,2.3-0.3,4.2-0.8,5.6s-1.5,2.7-2.8,3.7c-1.3,1-2.8,1.7-4.5,2v-3.5c1.2-0.7,1.9-1.6,2-2.7h-2v-9.5
				H458.9z"/>
			<path d="M485.3,445.2c1.8,0.7,3.2,1.8,4.1,3.2c1,1.4,1.4,4.8,1.4,10.2c0,3.9-0.4,6.8-1.1,8.7c-0.8,1.9-2.2,3.4-4.4,4.6
				c-2.2,1.2-5.2,1.8-8.9,1.8c-3.6,0-6.5-0.6-8.6-1.7s-3.6-2.7-4.5-4.5s-1.4-5-1.4-9.4c0-2.9,0.2-5.5,0.7-7.7
				c0.5-2.2,1.9-3.9,4.2-5.2c-1.5-0.7-2.6-1.9-3.4-3.4c-0.8-1.6-1.1-3.6-1.1-6c0-4.2,1.2-7.3,3.5-9.4s5.8-3.1,10.4-3.1
				c5.3,0,9,1.1,11.1,3.3c2,2.2,3.1,5.4,3.1,9.5c0,2.6-0.3,4.5-1,5.7S487.4,444,485.3,445.2z M478.8,455c0-1.9-0.2-3.1-0.6-3.7
				c-0.4-0.6-1-0.9-1.8-0.9c-0.8,0-1.4,0.3-1.7,0.9c-0.4,0.6-0.5,1.8-0.5,3.7v6.3c0,2.1,0.2,3.5,0.6,4.1c0.4,0.6,1,0.9,1.8,0.9
				c0.9,0,1.4-0.3,1.7-0.9c0.3-0.6,0.5-2,0.5-4.1V455z M478.5,434.7c0-1.6-0.1-2.7-0.4-3.3c-0.3-0.5-0.8-0.8-1.7-0.8
				c-0.8,0-1.3,0.3-1.6,0.9c-0.3,0.6-0.4,1.6-0.4,3.2v3.7c0,1.5,0.2,2.5,0.5,3c0.3,0.6,0.9,0.8,1.6,0.8c0.8,0,1.3-0.3,1.6-0.8
				c0.3-0.5,0.4-1.7,0.4-3.4V434.7z"/>
			<path d="M521.6,424.1v7.8h-15v8.3c1.9-2.2,4.3-3.3,7.3-3.3c3.3,0,5.9,0.9,7.6,2.8c1.7,1.9,2.6,5.5,2.6,10.8v6.9
				c0,3.4-0.2,6-0.5,7.6c-0.3,1.6-1,3.1-2.1,4.5s-2.6,2.4-4.5,3.2s-4.3,1.1-7.1,1.1c-3.1,0-5.9-0.5-8.3-1.6
				c-2.4-1.1-4.1-2.7-5.1-4.9s-1.5-5.5-1.5-10v-2.6H507v3c0,3.1,0.1,5.4,0.3,6.7c0.2,1.3,1,2,2.3,2c0.6,0,1.1-0.2,1.5-0.6
				c0.4-0.4,0.6-0.8,0.6-1.2c0-0.4,0.1-2.4,0.1-5.7V449c0-1.8-0.2-3.1-0.6-3.7c-0.4-0.7-1-1-1.9-1c-0.6,0-1,0.2-1.4,0.5
				c-0.4,0.3-0.6,0.7-0.7,1.1c-0.1,0.4-0.2,1.3-0.2,2.7h-12l0.5-24.5H521.6z"/>
			<path d="M556.7,440.6v16.2c0,3.7-0.2,6.4-0.6,8s-1.2,3.3-2.5,4.7c-1.3,1.5-2.8,2.5-4.6,3.2c-1.8,0.6-3.8,1-6,1
				c-2.9,0-5.3-0.3-7.2-1c-1.9-0.7-3.5-1.7-4.6-3.1c-1.1-1.4-2-2.9-2.4-4.5c-0.5-1.6-0.7-4.1-0.7-7.5v-17c0-4.5,0.4-7.8,1.2-10
				c0.8-2.2,2.3-4,4.6-5.3c2.3-1.3,5.1-2,8.3-2c2.7,0,5,0.5,7.1,1.4c2.1,0.9,3.7,2.1,4.7,3.4c1,1.3,1.7,2.9,2.1,4.5
				C556.5,434.2,556.7,436.9,556.7,440.6z M544.6,436.5c0-2.6-0.1-4.2-0.4-4.8c-0.3-0.7-0.8-1-1.8-1c-0.9,0-1.5,0.3-1.8,1
				c-0.3,0.7-0.4,2.3-0.4,4.8v23.7c0,2.8,0.1,4.5,0.4,5.1c0.3,0.6,0.9,0.9,1.8,0.9c0.9,0,1.5-0.3,1.8-1c0.3-0.7,0.4-2.2,0.4-4.6
				V436.5z"/>
		</g>
		<g id="grave">
			<rect x="577.3" y="442.4" width="56.5" height="70.8"/>
			<path d="M577.3,442.4c0,0,11.1-22.7,28.2-22.7c17.1,0,28.2,22.7,28.2,22.7"/>
			<g>
				<rect x="587.5" y="453.3" class="st0" width="43.3" height="25.6"/>
				<path class="st1" d="M591,458v4.7c0,0.3,0,0.4,0.1,0.6c0.1,0.1,0.2,0.2,0.5,0.3v0.3h-2.7v-0.3c0.2-0.1,0.4-0.1,0.5-0.3
					c0.1-0.1,0.1-0.3,0.1-0.6v-10.7c0-0.3,0-0.5-0.1-0.6s-0.2-0.2-0.5-0.3v-0.3h7.1c1,0,1.7,0.1,2.3,0.2c0.6,0.1,1.1,0.3,1.5,0.5
					c0.4,0.3,0.8,0.6,1,1.1c0.3,0.5,0.5,1.1,0.5,1.8c0,1-0.3,1.8-1,2.4c-0.7,0.6-1.5,1-2.7,1.1l3.3,5.1c0.2,0.3,0.5,0.5,0.9,0.5v0.3
					h-3v-0.3c0.3,0,0.5-0.1,0.5-0.3c0-0.1-0.1-0.3-0.3-0.6l-2.9-4.6H591z M591,456.8h5.2c0.7,0,1.2,0,1.6-0.1c0.4-0.1,0.7-0.2,1-0.3
					c0.6-0.4,1-1,1-1.9c0-0.9-0.3-1.5-1-1.9c-0.3-0.2-0.6-0.3-1-0.3s-0.9-0.1-1.7-0.1H591V456.8z"/>
				<path class="st1" d="M604.3,462.7v-10.7c0-0.3,0-0.5-0.1-0.6s-0.2-0.2-0.5-0.3v-0.3h2.7v0.3c-0.2,0.1-0.4,0.1-0.5,0.3
					c-0.1,0.1-0.1,0.3-0.1,0.6v10.7c0,0.3,0,0.5,0.1,0.6c0.1,0.1,0.2,0.2,0.5,0.3v0.3h-2.7v-0.3c0.2-0.1,0.4-0.1,0.5-0.3
					C604.3,463.2,604.3,463,604.3,462.7z"/>
				<path class="st1" d="M611.4,458v4.8c0,0.2,0,0.3,0.1,0.4s0.2,0.2,0.5,0.2v0.3h-2.7v-0.3c0.2-0.1,0.4-0.1,0.5-0.2
					s0.1-0.2,0.1-0.4v-10.9c0-0.2,0-0.3-0.1-0.4s-0.2-0.2-0.5-0.2v-0.3h6.8c1,0,1.7,0,2.2,0.2c0.5,0.1,1,0.3,1.4,0.5
					c0.4,0.3,0.8,0.6,1,1.1c0.3,0.5,0.4,1.1,0.4,1.7c0,0.9-0.3,1.6-0.8,2.3c-0.4,0.5-0.9,0.8-1.6,1c-0.6,0.2-1.6,0.3-2.7,0.3H611.4z
					 M611.4,456.8h4.8c0.7,0,1.3,0,1.6-0.1s0.7-0.2,0.9-0.3c0.6-0.4,1-1,1-1.9c0-0.9-0.3-1.5-1-1.9c-0.3-0.2-0.6-0.3-0.9-0.3
					c-0.3-0.1-0.9-0.1-1.6-0.1h-4.8V456.8z"/>
			</g>
		</g>
		<g id="arrow">
			<g>
				<line class="st2" x1="414.8" y1="516.2" x2="558.1" y2="516.2"/>
				<g>
					<path d="M564.4,516.2c-3,1.1-6.6,3-8.9,4.9l1.8-4.9l-1.8-4.9C557.7,513.3,561.4,515.1,564.4,516.2z"/>
				</g>
			</g>
		</g>
		<g>
			<rect x="423.5" y="481.6" class="st0" width="137.8" height="27.8"/>
			<path d="M433.2,498.9L433,500c-1.9,1.9-3.5,2.9-4.9,2.9c-1.1,0-1.7-0.6-1.7-1.8c0-0.5,0.1-1.2,0.3-2l1.6-8.3
				c0.6-2.9,1.7-5.1,3.3-6.8c1.6-1.6,3.5-2.4,5.8-2.4c0.8,0,1.5,0.1,2.2,0.3l-1.6,1.7c-0.9-0.4-1.7-0.6-2.4-0.6
				c-1.3,0-2.2,0.5-2.9,1.4s-1.2,2.7-1.7,5.3l-1.9,9.5c-0.2,0.9-0.3,1.5-0.3,1.8c0,0.5,0.2,0.8,0.7,0.8c0.5,0,1.6-0.7,3.1-2.1
				C432.7,499.4,432.9,499.2,433.2,498.9z"/>
			<path d="M442.5,499l-0.2,1.1c-1.8,1.9-3.3,2.8-4.7,2.8c-1.2,0-1.7-0.6-1.7-1.8c0-0.4,0.1-1.1,0.3-2l0.8-4.2
				c0.2-1.2,0.3-2,0.3-2.4c0-0.7-0.3-1-0.8-1c-0.4,0-1,0.1-1.9,0.4l0.1-0.7l5.9-1.9l-0.9,3.8l-1.2,5.9c-0.2,0.9-0.3,1.5-0.3,1.8
				c0,0.5,0.2,0.8,0.7,0.8C439.7,501.6,440.9,500.8,442.5,499z M438.1,487.2l0.8-1.6l3.4-2.2l-1,2.2L438.1,487.2z"/>
			<path d="M436,510.5l1.7-1.8c0.8,0.3,1.6,0.5,2.3,0.5c1.1,0,2-0.4,2.6-1.2c0.6-0.8,1.1-2.1,1.4-3.8l2.3-13.6h-2.7l0.8-0.9h2l0-0.2
				c0.5-2.3,1.5-4.2,3.2-5.7c1.6-1.5,3.6-2.2,5.7-2.2c0.7,0,1.3,0.1,1.9,0.2l-1.7,1.8c-0.7-0.5-1.5-0.7-2.3-0.7
				c-1.2,0-2.1,0.4-2.7,1.1s-1.1,2-1.4,3.9l-0.3,1.7h4.5l-1,1.1c-1-0.1-2-0.2-3.1-0.2h-0.6l-1.8,10.3c-0.5,3.1-1.6,5.6-3.2,7.3
				c-1.6,1.7-3.5,2.6-5.9,2.6C437.4,510.6,436.7,510.6,436,510.5z"/>
			<path d="M464.1,499.3l-0.2,0.9c-2.5,1.8-4.7,2.7-6.5,2.7c-1.1,0-2.1-0.4-2.8-1.2c-0.7-0.8-1.1-1.8-1.1-3.1c0-2.3,0.9-4.4,2.6-6.4
				c1.7-2,3.6-3,5.5-3c0.7,0,1.3,0.2,1.7,0.7c0.4,0.5,0.7,1.1,0.7,1.9c0,1.5-0.8,2.8-2.3,4c-1.6,1.1-3.4,1.7-5.6,1.7l0,0.5
				c0,2.3,0.9,3.5,2.6,3.5C460.1,501.5,461.9,500.8,464.1,499.3z M456.1,496.8c1.8-0.1,3.2-0.6,4.2-1.4c1-0.8,1.5-1.8,1.5-3
				c0-1.2-0.4-1.8-1.3-1.8c-1,0-1.9,0.6-2.8,1.9S456.3,495.2,456.1,496.8z"/>
			<path d="M473.4,502.2l1.6-1.6c1,0.8,2.1,1.1,3.2,1.1c0.7,0,1.2-0.2,1.7-0.5s0.7-0.8,0.7-1.3c0-0.6-0.5-1.3-1.4-2.3l-1.1-1.2
				c-1.1-1.2-1.6-2.1-1.6-2.9c0-1.1,0.5-2.1,1.5-2.9c1-0.8,2.2-1.3,3.5-1.3c0.7,0,1.5,0.2,2.4,0.5l-0.5,2.6h-0.8l0-0.2
				c0-0.1,0-0.2,0-0.3c0-1.1-0.7-1.6-2.1-1.6c-1.6,0-2.3,0.6-2.3,1.9c0,0.6,0.5,1.5,1.4,2.5l1,1.1c1.1,1.2,1.6,2.2,1.6,3
				c0,1.1-0.6,2-1.7,2.9c-1.1,0.8-2.4,1.3-3.9,1.3C475.8,502.9,474.7,502.7,473.4,502.2z"/>
			<path d="M489.1,490.5h-2.7l0.8-0.9h2.1l0.7-3.4l2.5-0.6l-0.8,4h4.5l-1,1.1c-1-0.1-1.9-0.2-2.7-0.2h-1l-1.6,8.2
				c-0.2,0.8-0.3,1.4-0.3,1.8c0,0.6,0.3,0.9,0.8,0.9c0.9,0,2-0.6,3.5-1.9l-0.2,1.1c-1.6,1.5-3,2.3-4.5,2.3c-1.4,0-2-0.8-2-2.3
				c0-0.5,0.1-1.2,0.3-2.1L489.1,490.5z"/>
			<path d="M500.9,502.9c-1,0-1.9-0.4-2.6-1.2c-0.7-0.8-1-1.8-1-3.1c0-2.3,0.9-4.4,2.6-6.4c1.7-2,3.6-2.9,5.7-2.9
				c1.1,0,2,0.4,2.7,1.2c0.7,0.8,1.1,1.8,1.1,3.1c0,2.4-0.9,4.5-2.6,6.5S503.1,502.9,500.9,502.9z M502.3,501.9
				c1.2,0,2.2-0.8,3.1-2.3s1.3-3.3,1.3-5.3c0-2.6-0.8-4-2.4-4c-1.1,0-2.2,0.8-3.1,2.4c-0.9,1.6-1.4,3.3-1.4,5.3
				C499.9,500.6,500.7,501.9,502.3,501.9z"/>
			<path d="M512.5,502.8l0.9-3.7l1.2-5.9c0.1-0.6,0.2-1.1,0.2-1.5c0-0.7-0.2-1-0.7-1c-0.8,0-2.1,0.9-3.6,2.7l0.2-1.1
				c1.8-2,3.4-3,4.8-3c1.2,0,1.7,0.7,1.7,2c0,0.6-0.1,1.2-0.2,1.9l-0.6,2.9h0.2c1-2,2.1-3.6,3.4-4.9c1.3-1.3,2.5-1.9,3.6-1.9
				c0.6,0,1.1,0.1,1.5,0.4l-1.6,2.2c-0.5-0.3-0.9-0.5-1.2-0.5c-1.6,0-3.6,2.3-6.2,6.9l-0.9,4.4L512.5,502.8z"/>
			<path d="M533.6,499l-0.2,1.1c-1.8,1.9-3.3,2.8-4.7,2.8c-1.2,0-1.7-0.6-1.7-1.8c0-0.4,0.1-1.1,0.3-2l0.8-4.2
				c0.2-1.2,0.3-2,0.3-2.4c0-0.7-0.3-1-0.8-1c-0.4,0-1,0.1-1.9,0.4l0.1-0.7l5.9-1.9l-0.9,3.8l-1.2,5.9c-0.2,0.9-0.3,1.5-0.3,1.8
				c0,0.5,0.2,0.8,0.7,0.8C530.8,501.6,532,500.8,533.6,499z M529.2,487.2l0.8-1.6l3.4-2.2l-1,2.2L529.2,487.2z"/>
			<path d="M545.1,499.3l-0.2,0.9c-2.5,1.8-4.7,2.7-6.5,2.7c-1.1,0-2.1-0.4-2.8-1.2c-0.7-0.8-1.1-1.8-1.1-3.1c0-2.3,0.9-4.4,2.6-6.4
				s3.6-3,5.5-3c0.7,0,1.3,0.2,1.7,0.7c0.4,0.5,0.7,1.1,0.7,1.9c0,1.5-0.8,2.8-2.3,4s-3.4,1.7-5.6,1.7l0,0.5c0,2.3,0.9,3.5,2.6,3.5
				C541.2,501.5,543,500.8,545.1,499.3z M537.2,496.8c1.8-0.1,3.2-0.6,4.2-1.4s1.5-1.8,1.5-3c0-1.2-0.4-1.8-1.3-1.8
				c-1,0-1.9,0.6-2.8,1.9C537.9,493.7,537.4,495.2,537.2,496.8z"/>
			<path d="M546.4,502.2l1.6-1.6c1,0.8,2.1,1.1,3.2,1.1c0.7,0,1.2-0.2,1.7-0.5c0.5-0.3,0.7-0.8,0.7-1.3c0-0.6-0.5-1.3-1.4-2.3
				l-1.1-1.2c-1.1-1.2-1.6-2.1-1.6-2.9c0-1.1,0.5-2.1,1.5-2.9c1-0.8,2.2-1.3,3.5-1.3c0.7,0,1.5,0.2,2.4,0.5l-0.5,2.6h-0.8l0-0.2
				c0-0.1,0-0.2,0-0.3c0-1.1-0.7-1.6-2.1-1.6c-1.6,0-2.3,0.6-2.3,1.9c0,0.6,0.5,1.5,1.4,2.5l1,1.1c1.1,1.2,1.6,2.2,1.6,3
				c0,1.1-0.6,2-1.7,2.9s-2.4,1.3-3.9,1.3C548.7,502.9,547.6,502.7,546.4,502.2z"/>
		</g>
		<g id="stroller">
			<g>
				<path d="M378.1,415.5c0.7,1.1,1.5,2.3,2.2,3.4c-0.2,0.2-0.4,0.3-0.7,0.5c15.6,6.5,25,17.4,26.2,34.9c-13.9,0-27.5,0-41.3,0
					c1.6-5.8,3.2-11.5,4.7-17.1c1.8-6.3,3.5-12.6,5.3-18.9c0.3-1,1.1-1.8,1.7-2.7C376.9,415.5,377.5,415.5,378.1,415.5z"/>
				<path d="M382.2,515.6c-0.5-0.3-1-0.6-1.6-0.8c-6.1-2.5-9.4-8.7-8.2-15c1.3-6.4,7-11.1,13.4-10.9c6.3,0.1,11.8,4.8,13,10.9
					c1.2,6.6-2.1,12.6-8.3,15.1c-0.5,0.2-1.1,0.5-1.6,0.7C386.6,515.6,384.4,515.6,382.2,515.6z M385.7,494.2
					c-4.7,0-8.4,3.7-8.4,8.3c0,4.6,3.8,8.3,8.5,8.2c4.5-0.1,8.2-3.8,8.1-8.3C393.9,497.8,390.2,494.2,385.7,494.2z"/>
				<path d="M340.1,515.6c-2.3-1.6-5-2.8-6.8-4.7c-3.9-4.2-4.2-10.7-1.1-15.6c3-4.9,8.9-7.3,14.5-6c5.8,1.4,9.8,6.1,10.4,12.2
					c0.5,5.3-3,10.9-8.2,13.2c-0.7,0.3-1.3,0.6-2,0.9C344.6,515.6,342.4,515.6,340.1,515.6z M343.6,494.2c-4.6,0-8.3,3.6-8.3,8.1
					c-0.1,4.6,3.7,8.4,8.4,8.4c4.5,0,8.1-3.7,8.1-8.3C351.8,497.7,348.2,494.2,343.6,494.2z"/>
				<path d="M405.7,458.1c0,5.6-1.9,10.5-5.2,14.8c-7.2,9.3-17.2,13.8-28.5,15.3c-12.8,1.7-24.8-0.6-35.5-8.1
					c-6.8-4.8-11.5-11.2-12.4-19.8c0-0.4-0.1-0.9-0.1-1.3c0-0.2,0.1-0.4,0.1-0.8C351.2,458.1,378.3,458.1,405.7,458.1z"/>
				<path d="M328.8,454.3c-1.5,0-3,0-4.5,0c-0.7-2.6-1.1-5.1-2-7.5c-1.3-3.5-3.5-6-7.5-6.4c-1.9-0.2-2.8-1.7-2.4-3.3
					c0.4-1.7,1.8-2.1,3.3-1.8c3.2,0.5,5.9,1.8,8.1,4.3C327.1,443.2,329.3,449.5,328.8,454.3z"/>
			</g>
		</g>
		<g>
			<rect x="545.9" y="66.7" class="st0" width="54.2" height="67.5"/>
			<path d="M565.6,66.7v46.1h-11.5V88.1c0-3.6-0.1-5.7-0.3-6.4c-0.2-0.7-0.6-1.3-1.4-1.6c-0.8-0.4-2.5-0.6-5.1-0.6h-1.1v-5.4
				c5.6-1.2,9.8-3.7,12.7-7.4H565.6z"/>
			<path d="M587.9,66.7v46.1h-11.5V88.1c0-3.6-0.1-5.7-0.3-6.4c-0.2-0.7-0.6-1.3-1.4-1.6c-0.8-0.4-2.5-0.6-5.1-0.6h-1.1v-5.4
				c5.6-1.2,9.8-3.7,12.7-7.4H587.9z"/>
		</g>
		<g>
			<rect x="482.8" y="137.5" class="st0" width="33.8" height="18.4"/>
			<path d="M492.1,152.7l-0.2,1c-1.5,1.6-2.9,2.5-4.1,2.5c-1,0-1.5-0.5-1.5-1.6c0-0.4,0.1-0.9,0.2-1.8l0.7-3.7
				c0.2-1,0.3-1.7,0.3-2.1c0-0.6-0.2-0.9-0.7-0.9c-0.3,0-0.9,0.1-1.7,0.4l0.1-0.6l5.1-1.7l-0.8,3.4l-1,5.2c-0.2,0.8-0.2,1.3-0.2,1.6
				c0,0.5,0.2,0.7,0.6,0.7C489.7,155,490.7,154.2,492.1,152.7z M488.2,142.4l0.7-1.4l3-1.9L491,141L488.2,142.4z"/>
			<path d="M493.7,156l0.8-3.2l1-5.2c0.2-0.8,0.2-1.3,0.2-1.6c0-0.4-0.2-0.7-0.6-0.7c-0.7,0-1.7,0.8-3.1,2.3l0.2-1
				c1.5-1.6,2.9-2.5,4.1-2.5c1,0,1.5,0.5,1.5,1.6c0,0.4-0.1,1-0.2,1.8l-0.5,2.6h0.2c0.9-1.8,1.9-3.2,3-4.3s2.1-1.6,3.1-1.6
				c1.1,0,1.7,0.6,1.7,1.9c0,0.4-0.1,0.9-0.2,1.5l-1,5.1c-0.2,0.8-0.2,1.3-0.2,1.6c0,0.4,0.2,0.7,0.6,0.7c0.7,0,1.7-0.8,3.1-2.3
				l-0.2,1c-1.5,1.6-2.9,2.5-4.1,2.5c-1,0-1.5-0.5-1.5-1.6c0-0.3,0.1-0.9,0.3-1.8l1-5.1c0.1-0.4,0.1-0.7,0.1-1
				c0-0.6-0.2-0.8-0.6-0.8c-1.3,0-3.2,2.1-5.6,6.3l-0.8,3.7L493.7,156z"/>
		</g>
		<g>
			<rect x="599.3" y="72.8" class="st0" width="95.2" height="43"/>
			<path d="M600.3,97.3l1.9-1.9c1.2,0.9,2.5,1.4,3.8,1.4c0.8,0,1.4-0.2,2-0.6c0.5-0.4,0.8-0.9,0.8-1.5c0-0.7-0.5-1.6-1.6-2.8
				l-1.3-1.4c-1.3-1.4-1.9-2.5-1.9-3.5c0-1.3,0.6-2.4,1.8-3.4c1.2-1,2.6-1.5,4.2-1.5c0.9,0,1.8,0.2,2.9,0.5l-0.6,3.1h-0.9l0-0.2
				c0-0.1,0-0.2,0-0.3c0-1.3-0.8-1.9-2.5-1.9c-1.8,0-2.8,0.7-2.8,2.2c0,0.8,0.6,1.7,1.7,3l1.2,1.3c1.3,1.4,1.9,2.6,1.9,3.5
				c0,1.3-0.7,2.4-2,3.4c-1.3,1-2.9,1.5-4.6,1.5C603.1,98.1,601.7,97.8,600.3,97.3z"/>
			<path d="M618.9,83.3h-3.3l1-1.1h2.5l0.8-4l2.9-0.7l-0.9,4.7h5.4l-1.2,1.3c-1.2-0.1-2.3-0.2-3.3-0.2h-1.2l-1.9,9.8
				c-0.2,1-0.3,1.7-0.3,2.1c0,0.7,0.3,1.1,1,1.1c1,0,2.4-0.8,4.2-2.3l-0.3,1.3c-1.8,1.8-3.6,2.7-5.3,2.7c-1.6,0-2.4-0.9-2.4-2.7
				c0-0.6,0.1-1.5,0.3-2.5L618.9,83.3z"/>
			<path d="M639.7,90h-0.3c-1.1,2.4-2.4,4.3-3.9,5.8c-1.5,1.5-2.9,2.3-4.2,2.3c-2,0-3-1.3-3-3.8c0-2.8,1.1-5.5,3.3-8.1
				c2.3-2.7,5.1-4.1,8.3-4.1c1.4,0,2.8,0.1,4.3,0.2l-1,4.2l-1.4,7c-0.2,1.1-0.3,1.8-0.3,2.1c0,0.6,0.3,0.9,0.8,0.9
				c0.9,0,2.4-1,4.2-3.1l-0.3,1.3c-2.1,2.2-4,3.3-5.6,3.3c-1.4,0-2.1-0.7-2.1-2.1c0-0.5,0.1-1.3,0.3-2.4L639.7,90z M640.9,84.3
				c-1.2-0.5-2.4-0.8-3.5-0.8c-1.7,0-3.1,1.1-4.1,3.3c-1.2,2.6-1.8,4.9-1.8,7c0,1.5,0.4,2.2,1.3,2.2c0.8,0,2-0.9,3.5-2.6
				c1.5-1.7,2.9-3.7,4-5.9L640.9,84.3z"/>
			<path d="M651.7,83.3h-3.3l1-1.1h2.5l0.8-4l2.9-0.7l-0.9,4.7h5.4l-1.2,1.3c-1.2-0.1-2.3-0.2-3.3-0.2h-1.2l-1.9,9.8
				c-0.2,1-0.3,1.7-0.3,2.1c0,0.7,0.3,1.1,1,1.1c1,0,2.4-0.8,4.2-2.3l-0.3,1.3c-1.8,1.8-3.6,2.7-5.3,2.7c-1.6,0-2.4-0.9-2.4-2.7
				c0-0.6,0.1-1.5,0.3-2.5L651.7,83.3z"/>
			<path d="M673.8,93.8l-0.2,1.1c-3,2.1-5.6,3.2-7.7,3.2c-1.3,0-2.4-0.5-3.3-1.4c-0.8-0.9-1.3-2.2-1.3-3.7c0-2.7,1-5.2,3.1-7.5
				c2-2.4,4.2-3.5,6.6-3.5c0.8,0,1.5,0.3,2,0.9c0.5,0.6,0.8,1.3,0.8,2.2c0,1.8-0.9,3.4-2.8,4.7c-1.9,1.3-4.1,2-6.7,2l0,0.6
				c0,2.8,1,4.2,3,4.2C669.2,96.5,671.3,95.6,673.8,93.8z M664.4,90.8c2.1-0.2,3.8-0.7,5-1.6c1.2-0.9,1.8-2.1,1.8-3.6
				c0-1.5-0.5-2.2-1.6-2.2c-1.1,0-2.2,0.8-3.3,2.3C665.3,87.2,664.6,88.9,664.4,90.8z"/>
			<path d="M675.3,97.3l1.9-1.9c1.2,0.9,2.5,1.4,3.8,1.4c0.8,0,1.4-0.2,2-0.6c0.5-0.4,0.8-0.9,0.8-1.5c0-0.7-0.5-1.6-1.6-2.8
				l-1.3-1.4c-1.3-1.4-1.9-2.5-1.9-3.5c0-1.3,0.6-2.4,1.8-3.4c1.2-1,2.6-1.5,4.2-1.5c0.9,0,1.8,0.2,2.9,0.5l-0.6,3.1h-0.9l0-0.2
				c0-0.1,0-0.2,0-0.3c0-1.3-0.8-1.9-2.5-1.9c-1.8,0-2.8,0.7-2.8,2.2c0,0.8,0.6,1.7,1.7,3l1.2,1.3c1.3,1.4,1.9,2.6,1.9,3.5
				c0,1.3-0.7,2.4-2,3.4c-1.3,1-2.9,1.5-4.6,1.5C678.1,98.1,676.7,97.8,675.3,97.3z"/>
		</g>
		<g>
			<rect x="320.1" y="226.5" class="st0" width="324.5" height="128.9"/>
			<path d="M371,299v14.9h-48l0-12.5c14.2-23.2,22.6-37.6,25.3-43.1c2.7-5.5,4-9.8,4-12.9c0-2.4-0.4-4.1-1.2-5.3
				c-0.8-1.2-2-1.8-3.7-1.8c-1.7,0-2.9,0.6-3.7,1.9c-0.8,1.3-1.2,3.9-1.2,7.7v8.3H323V253c0-4.9,0.3-8.7,0.8-11.6
				c0.5-2.8,1.7-5.6,3.7-8.3c2-2.7,4.5-4.8,7.7-6.2c3.2-1.4,7-2.1,11.4-2.1c8.7,0,15.2,2.1,19.7,6.4c4.4,4.3,6.7,9.7,6.7,16.3
				c0,5-1.2,10.3-3.8,15.9c-2.5,5.6-9.9,17.4-22.1,35.5H371z"/>
			<path d="M431.7,249.7H410c0-4.1,0-6.6-0.1-7.7c-0.1-1.1-0.5-2-1.3-2.7c-0.8-0.7-1.8-1.1-3.2-1.1c-1.1,0-2,0.3-2.8,1
				c-0.7,0.7-1.1,1.6-1.2,2.6c-0.1,1.1-0.2,3.3-0.2,6.5v13.9c1.1-2.3,2.8-4.1,4.9-5.3c2.2-1.2,4.8-1.8,8-1.8c4,0,7.5,1.1,10.6,3.2
				c3.1,2.2,5,4.7,5.8,7.8c0.8,3,1.2,7.1,1.2,12.2v7c0,6.1-0.2,10.7-0.7,13.6c-0.5,3-1.7,5.7-3.7,8.3c-2,2.5-4.8,4.5-8.4,5.9
				c-3.5,1.4-7.7,2.1-12.4,2.1c-5.9,0-10.7-0.8-14.4-2.4c-3.7-1.6-6.6-3.9-8.7-7c-2-3-3.2-6.2-3.6-9.6c-0.3-3.3-0.5-9.8-0.5-19.5
				V265c0-10.4,0.2-17.3,0.5-20.8c0.3-3.5,1.6-6.8,3.7-10c2.2-3.1,5.2-5.5,9-7c3.8-1.6,8.2-2.3,13.1-2.3c6.1,0,11.1,1,15.1,3
				c3.9,2,6.7,4.8,8.4,8.4C430.9,239.7,431.7,244.2,431.7,249.7z M410,276.9c0-3.1-0.3-5.2-1-6.4c-0.7-1.2-1.8-1.7-3.3-1.7
				c-1.5,0-2.6,0.5-3.3,1.6c-0.7,1.1-1.1,3.2-1.1,6.4v15.8c0,3.8,0.3,6.4,1,7.6c0.7,1.2,1.8,1.8,3.3,1.8c0.9,0,1.9-0.5,2.9-1.4
				c1-0.9,1.5-3.4,1.5-7.4V276.9z"/>
			<path d="M451.9,296.7v7.8c0,4.1-0.5,7.5-1.5,10.1c-1,2.6-2.7,4.9-5,6.7c-2.4,1.8-5.1,3.1-8.1,3.7v-6.3c2.2-1.2,3.4-2.9,3.7-4.9
				h-3.7v-17.1H451.9z"/>
			<path d="M505.4,226.5v14h-27v14.8c3.4-4,7.7-6,13.1-6c6,0,10.5,1.7,13.6,5c3.1,3.4,4.6,9.8,4.6,19.4v12.5
				c0,6.2-0.3,10.7-0.9,13.6c-0.6,2.9-1.9,5.6-3.8,8c-1.9,2.5-4.6,4.4-8.1,5.7s-7.7,2-12.7,2c-5.6,0-10.6-1-14.8-2.9
				c-4.3-2-7.3-4.9-9.1-8.8c-1.8-3.9-2.7-9.9-2.7-18V281h21.8v5.4c0,5.6,0.2,9.7,0.6,12c0.4,2.4,1.8,3.6,4.1,3.6c1.1,0,2-0.3,2.6-1
				c0.7-0.7,1-1.4,1.1-2.2c0.1-0.8,0.1-4.2,0.2-10.3v-17.3c0-3.3-0.3-5.5-1-6.7c-0.7-1.2-1.8-1.8-3.4-1.8c-1,0-1.9,0.3-2.5,0.9
				c-0.7,0.6-1.1,1.3-1.3,2c-0.2,0.7-0.3,2.3-0.3,4.9h-21.6l0.9-44H505.4z"/>
			<path d="M561.9,299v14.9h-48l0-12.5c14.2-23.2,22.6-37.6,25.3-43.1c2.7-5.5,4-9.8,4-12.9c0-2.4-0.4-4.1-1.2-5.3
				c-0.8-1.2-2-1.8-3.7-1.8c-1.7,0-2.9,0.6-3.7,1.9c-0.8,1.3-1.2,3.9-1.2,7.7v8.3h-19.5V253c0-4.9,0.3-8.7,0.8-11.6
				c0.5-2.8,1.7-5.6,3.7-8.3c2-2.7,4.5-4.8,7.7-6.2c3.2-1.4,7-2.1,11.4-2.1c8.7,0,15.2,2.1,19.7,6.4c4.4,4.3,6.7,9.7,6.7,16.3
				c0,5-1.2,10.3-3.8,15.9c-2.5,5.6-9.9,17.4-22.1,35.5H561.9z"/>
			<path d="M621.7,256.1v29.1c0,6.6-0.4,11.4-1.1,14.5c-0.7,3-2.2,5.8-4.5,8.5s-5,4.5-8.2,5.7c-3.2,1.2-6.8,1.7-10.7,1.7
				c-5.2,0-9.5-0.6-13-1.8c-3.5-1.2-6.2-3.1-8.3-5.6c-2-2.6-3.5-5.2-4.4-8.1s-1.3-7.3-1.3-13.5v-30.5c0-8,0.7-14,2.1-18
				c1.4-4,4.1-7.2,8.3-9.6c4.1-2.4,9.1-3.6,15-3.6c4.8,0,9.1,0.8,12.8,2.5c3.8,1.7,6.6,3.7,8.5,6.1c1.9,2.4,3.1,5.1,3.8,8.1
				C621.4,244.6,621.7,249.5,621.7,256.1z M600,248.7c0-4.6-0.2-7.5-0.7-8.7c-0.5-1.2-1.5-1.8-3.2-1.8c-1.6,0-2.7,0.6-3.2,1.9
				s-0.8,4.1-0.8,8.6v42.6c0,5.1,0.2,8.1,0.7,9.2s1.5,1.6,3.2,1.6c1.6,0,2.7-0.6,3.2-1.8c0.5-1.2,0.8-4,0.8-8.3V248.7z"/>
		</g>
		<g>
			<rect x="352.4" y="335.4" class="st0" width="306.9" height="39.9"/>
			<path d="M345.7,373.1l2.1-2.2c1.1,0.5,2.2,0.8,3.3,0.8c2.7,0,4.5-2.2,5.3-6.6l2.4-12.2c0.3-1.6,0.4-2.6,0.4-3.1
				c0-0.9-0.3-1.3-1-1.3c-0.5,0-1.3,0.2-2.5,0.6l0.2-1l7.7-2.5l-1.2,5.1l-0.8,3.8h0.3c1.2-2.6,2.6-4.8,4.3-6.4
				c1.7-1.7,3.2-2.5,4.7-2.5c2.2,0,3.4,1.4,3.4,4.2c0,3.2-1.3,6.3-3.8,9.2c-2.6,2.9-5.3,4.3-8.1,4.3c-0.3,0-0.9-0.1-1.8-0.2
				c-0.1,0-0.3,0-0.5-0.1c-0.8,3.4-2.3,6-4.3,7.8s-4.6,2.7-7.6,2.7C347.3,373.4,346.5,373.3,345.7,373.1z M360.4,360.7
				c1.3,0.6,2.6,0.9,3.9,0.9c1.9,0,3.4-1.2,4.6-3.6c1.4-2.9,2-5.4,2-7.7c0-1.6-0.5-2.5-1.5-2.5c-0.9,0-2.2,0.9-3.9,2.8
				c-1.7,1.9-3.2,4.1-4.5,6.5L360.4,360.7z"/>
			<path d="M389.2,354.4H389c-1.2,2.6-2.6,4.8-4.3,6.4c-1.7,1.7-3.2,2.5-4.7,2.5c-2.2,0-3.3-1.4-3.3-4.2c0-3.1,1.2-6,3.7-9
				c2.5-3,5.6-4.5,9.2-4.5c1.5,0,3.1,0.1,4.7,0.2l-1.1,4.7l-1.5,7.8c-0.2,1.2-0.4,2-0.4,2.4c0,0.7,0.3,1,0.9,1c1,0,2.6-1.2,4.7-3.5
				l-0.3,1.5c-2.3,2.5-4.4,3.7-6.2,3.7c-1.5,0-2.3-0.8-2.3-2.4c0-0.5,0.1-1.4,0.4-2.7L389.2,354.4z M390.5,348.1
				c-1.3-0.6-2.6-0.9-3.9-0.9c-1.9,0-3.4,1.2-4.6,3.6c-1.3,2.9-2,5.4-2,7.7c0,1.6,0.5,2.5,1.4,2.5c0.9,0,2.2-0.9,3.9-2.8
				s3.2-4.1,4.5-6.5L390.5,348.1z"/>
			<path d="M400.2,362.7c-1.3-0.6-1.9-1.9-1.9-3.8c0-3.1,1.3-6.1,3.8-9c2.4-2.8,5.5-4.2,9.1-4.2c0.7,0,2.2,0.1,4.4,0.2l-1.1,4.7
				l-0.7,3.7c-0.4,1.9-0.6,3.3-0.8,4.2c-0.6,3.7-1.2,6.3-1.7,7.7s-1.6,2.9-3.1,4.2c-2.2,2-4.7,3-7.5,3c-1.8,0-3.3-0.4-4.5-1.1
				c-1.2-0.7-1.7-1.7-1.7-2.8C394.4,367.2,396.3,365,400.2,362.7z M410.6,354.4h-0.3c-1.1,2.5-2.4,4.4-4,5.9
				c-1.6,1.5-3.2,2.4-4.9,2.6c-2.7,1.9-4.1,3.7-4.1,5.3c0,1,0.5,1.9,1.5,2.7c1,0.7,2.3,1.1,3.7,1.1c1.9,0,3.4-0.7,4.4-2.2
				c1.1-1.5,1.9-3.8,2.3-6.9L410.6,354.4z M411.8,348.2c-1.3-0.6-2.5-0.9-3.8-0.9c-1.4,0-2.6,0.6-3.5,1.9c-0.8,1-1.5,2.4-2.1,4.4
				s-0.9,3.6-0.9,4.9c0,1.5,0.5,2.2,1.4,2.2c2.1,0,4.8-3,8.2-9L411.8,348.2z"/>
			<path d="M432.1,358.6l-0.2,1.2c-3.3,2.3-6.2,3.5-8.5,3.5c-1.5,0-2.7-0.5-3.6-1.6c-0.9-1-1.4-2.4-1.4-4c0-3,1.1-5.7,3.4-8.3
				c2.3-2.6,4.7-3.9,7.3-3.9c0.9,0,1.7,0.3,2.3,0.9c0.6,0.6,0.9,1.4,0.9,2.5c0,2-1,3.7-3.1,5.2c-2.1,1.4-4.5,2.2-7.4,2.2l0,0.7
				c0,3.1,1.1,4.6,3.4,4.6C426.9,361.5,429.3,360.6,432.1,358.6z M421.6,355.3c2.3-0.2,4.2-0.8,5.5-1.8c1.3-1,2-2.3,2-4
				c0-1.6-0.6-2.4-1.7-2.4c-1.3,0-2.5,0.8-3.7,2.5C422.6,351.3,421.9,353.2,421.6,355.3z"/>
			<path d="M433.6,362.4l2.1-2.1c1.4,1,2.7,1.5,4.2,1.5c0.9,0,1.6-0.2,2.2-0.7s0.9-1,0.9-1.7c0-0.7-0.6-1.8-1.8-3.1l-1.4-1.6
				c-1.4-1.5-2.1-2.8-2.1-3.8c0-1.4,0.7-2.7,2-3.8c1.4-1.1,2.9-1.7,4.6-1.7c1,0,2,0.2,3.2,0.6l-0.7,3.5h-1l0-0.3c0-0.1,0-0.2,0-0.3
				c0-1.4-0.9-2.1-2.7-2.1c-2,0-3.1,0.8-3.1,2.5c0,0.8,0.6,1.9,1.8,3.3l1.3,1.4c1.4,1.6,2.1,2.9,2.1,3.9c0,1.4-0.7,2.7-2.2,3.8
				c-1.5,1.1-3.2,1.7-5.1,1.7C436.7,363.3,435.3,363,433.6,362.4z"/>
			<path d="M467.1,363.3c0.1-1,0.1-2.1,0.1-3.1c0-4.7-0.3-8-0.8-9.8s-1.4-2.7-2.7-2.7c-1.2,0-2.7,1.3-4.3,3.8l0.4-2.1
				c1.9-2.6,3.7-3.9,5.4-3.9c3.2,0,4.8,4.2,4.8,12.7l0,1.6c3.6-5.1,5.6-9.7,6.1-13.8l1.5-0.3c1.4,4.6,2.1,9.2,2.1,13.7
				c1.5-2,2.8-4.1,3.9-6.3c1.1-2.2,1.6-3.9,1.6-5c0-0.7-0.2-1.4-0.7-2.3l3.5-0.2c0.2,0.5,0.3,0.9,0.3,1.3c0,0.8-0.5,2.1-1.4,3.8
				c-1,1.7-2.5,4-4.8,7l-0.9,1.1l-2.9,4l-1.6,0.4l0-1.9c0-4.3-0.3-7.8-0.8-10.5c-2.5,5.2-4.9,9.2-7.2,12L467.1,363.3z"/>
			<path d="M492.7,363.1l1.2-4.8l1.5-7.7c0.2-0.8,0.2-1.4,0.2-2c0-0.9-0.3-1.4-0.9-1.4c-1.1,0-2.7,1.2-4.8,3.6l0.3-1.4
				c2.4-2.6,4.5-3.9,6.3-3.9c1.5,0,2.3,0.9,2.3,2.6c0,0.8-0.1,1.6-0.3,2.5l-0.8,3.8h0.2c1.2-2.6,2.7-4.8,4.4-6.4
				c1.7-1.7,3.3-2.5,4.7-2.5c0.7,0,1.4,0.2,2,0.5l-2.1,2.8c-0.6-0.4-1.1-0.6-1.6-0.6c-2,0-4.8,3-8.2,9L496,363L492.7,363.1z"/>
			<path d="M520.3,358.2l-0.3,1.5c-2.3,2.5-4.4,3.7-6.2,3.7c-1.5,0-2.3-0.8-2.3-2.4c0-0.5,0.1-1.4,0.4-2.6l1.1-5.5
				c0.3-1.6,0.4-2.6,0.4-3.1c0-0.9-0.3-1.3-1-1.3c-0.5,0-1.3,0.2-2.5,0.5l0.2-1l7.7-2.5l-1.2,5l-1.5,7.8c-0.2,1.2-0.4,2-0.4,2.3
				c0,0.7,0.3,1,0.9,1C516.7,361.6,518.2,360.5,520.3,358.2z M514.6,342.8l1.1-2.1l4.4-2.9l-1.4,2.9L514.6,342.8z"/>
			<path d="M525.7,347h-3.6l1.1-1.2h2.7l0.9-4.5l3.3-0.8l-1,5.2h5.9l-1.3,1.4c-1.4-0.1-2.6-0.2-3.6-0.2h-1.3l-2.1,10.8
				c-0.2,1.1-0.3,1.9-0.3,2.3c0,0.8,0.4,1.2,1.1,1.2c1.1,0,2.7-0.8,4.6-2.5l-0.3,1.4c-2,2-4,3-5.9,3c-1.8,0-2.7-1-2.7-3
				c0-0.7,0.1-1.6,0.3-2.8L525.7,347z"/>
			<path d="M540.4,347h-3.6l1.1-1.2h2.7l0.9-4.5l3.3-0.8l-1,5.2h5.9l-1.3,1.4c-1.4-0.1-2.6-0.2-3.6-0.2h-1.3l-2.1,10.8
				c-0.2,1.1-0.3,1.9-0.3,2.3c0,0.8,0.4,1.2,1.1,1.2c1.1,0,2.7-0.8,4.6-2.5l-0.3,1.4c-2,2-4,3-5.9,3c-1.8,0-2.7-1-2.7-3
				c0-0.7,0.1-1.6,0.3-2.8L540.4,347z"/>
			<path d="M564.8,358.6l-0.2,1.2c-3.3,2.3-6.2,3.5-8.5,3.5c-1.5,0-2.7-0.5-3.6-1.6c-0.9-1-1.4-2.4-1.4-4c0-3,1.1-5.7,3.4-8.3
				c2.3-2.6,4.7-3.9,7.3-3.9c0.9,0,1.7,0.3,2.3,0.9c0.6,0.6,0.9,1.4,0.9,2.5c0,2-1,3.7-3.1,5.2s-4.5,2.2-7.4,2.2l0,0.7
				c0,3.1,1.1,4.6,3.4,4.6C559.7,361.5,562,360.6,564.8,358.6z M554.4,355.3c2.3-0.2,4.2-0.8,5.5-1.8c1.3-1,2-2.3,2-4
				c0-1.6-0.6-2.4-1.7-2.4c-1.3,0-2.5,0.8-3.7,2.5C555.3,351.3,554.6,353.2,554.4,355.3z"/>
			<path d="M569.6,363.1l1.2-4.8l1.5-7.8c0.2-1.2,0.4-2,0.4-2.4c0-0.7-0.3-1-0.9-1c-1,0-2.6,1.2-4.7,3.5l0.3-1.4
				c2.3-2.5,4.3-3.7,6.2-3.7c1.5,0,2.3,0.8,2.3,2.4c0,0.5-0.1,1.4-0.4,2.7l-0.8,3.9h0.2c1.3-2.7,2.8-4.8,4.4-6.5
				c1.7-1.6,3.2-2.4,4.6-2.4c1.7,0,2.6,1,2.6,2.9c0,0.6-0.1,1.4-0.3,2.3l-1.5,7.7c-0.2,1.2-0.4,2-0.4,2.4c0,0.7,0.3,1,0.9,1
				c1,0,2.6-1.2,4.7-3.5l-0.3,1.5c-2.3,2.5-4.3,3.7-6.2,3.7c-1.5,0-2.3-0.8-2.3-2.4c0-0.5,0.1-1.4,0.4-2.7l1.5-7.7
				c0.1-0.6,0.2-1.1,0.2-1.5c0-0.8-0.3-1.3-0.9-1.3c-2,0-4.8,3.2-8.3,9.5l-1.1,5.6L569.6,363.1z"/>
		</g>
		<g>
			<g>
				<line class="st3" x1="315.6" y1="202.5" x2="318.1" y2="202.5"/>
				<line class="st4" x1="323.1" y1="202.4" x2="619.6" y2="200.8"/>
				<line class="st3" x1="622.1" y1="200.8" x2="624.6" y2="200.8"/>
			</g>
		</g>
		<g>
			<g>
				<line class="st3" x1="321.8" y1="394.8" x2="324.3" y2="394.8"/>
				<line class="st4" x1="329.3" y1="394.7" x2="625.8" y2="393.1"/>
				<line class="st3" x1="628.3" y1="393.1" x2="630.8" y2="393.1"/>
			</g>
		</g>
	</g>
	<g>
	</g>
	<g>
	</g>
	<g>
	</g>
	<g>
	</g>
	<g>
	</g>
	<g>
	</g>
	<g>
	</g>
	<g>
	</g>
	<g>
	</g>
	<g>
	</g>
	<g>
	</g>
	<g>
	</g>
	<g>
	</g>
	<g>
	</g>
	<g>
	</g>
	<g>
	</g>
</g>
</svg>
