<?xml version="1.0" encoding="utf-8"?>
<!-- Generator: Adobe Illustrator 20.1.0, SVG Export Plug-In . SVG Version: 6.00 Build 0)  -->
<svg version="1.1" id="clock" xmlns="http://www.w3.org/2000/svg" xmlns:xlink="http://www.w3.org/1999/xlink" x="0px" y="0px"
	 viewBox="0 0 960 560" style="enable-background:new 0 0 960 560;" xml:space="preserve">
<g>
	<g>
		<path d="M605.9,261.8c0.3,2.2,0.7,4.4,0.9,6.6c0.3,2.6,0.5,5.1,0.7,7.7c0.1,1.8,0.2,3.5,0.1,5.3c-0.1,4.3-0.2,8.6-0.3,12.9
			c0,0.2,0,0.3-0.3,0.5c0-0.4,0-0.8,0-1.2c0-1.3,0.1-2.5,0.1-3.8c0-0.3-0.2-0.8-0.4-1c-1.6-0.8-3.3-1.6-5.3-2.1
			c-0.3,4.9-0.5,9.6-0.8,14.4c0.2,0.1,0.3,0.2,0.5,0.2c1.7,0.2,3.3,0.5,5.2,0.8c0.2-2,0.4-4,0.6-5.9c0.1,0,0.1,0,0.2,0
			c-0.1,1.1-0.1,2.2-0.2,3.3c-0.3,4.2-0.9,8.3-1.6,12.4c-0.6,3.3-1.3,6.5-2,9.8c-0.1,0.3-0.3,0.6-0.4,0.9c0.1-0.6,0.2-1.3,0.3-1.9
			c0.1-0.7,0.5-1.4,0.3-2.2c-1.8-0.4-3.6-1-5.5-1.1c-1.3,4.6-2.5,9-3.8,13.6c1.8,0.7,3.5,1.4,5.4,1.9c0.2-0.5,0.4-0.9,0.5-1.3
			c0.7-2.5,1.4-4.9,2.2-7.4c0.2-0.5,0.4-1,0.6-1.5c-0.6,2.4-1.2,4.8-1.9,7.2c-1.6,5.5-3.6,10.8-5.9,16c-2.6,5.8-5.4,11.5-8.7,16.9
			c-3.5,5.9-7.3,11.6-11.6,16.9c-2,2.5-4.1,5-6.2,7.4c-4,4.6-8.4,8.8-12.9,12.9c-4.7,4.1-9.6,8-14.8,11.5c-6.4,4.3-13,8.2-20,11.5
			c-4.2,1.9-8.4,3.7-12.7,5.5c-2,0.8-4.1,1.4-6.1,2.1c-4.6,1.7-9.3,2.7-14,3.9c-2.1,0.6-4.3,0.8-6.5,1.2c-5.3,1-10.6,1.5-16,1.9
			c-2.8,0.2-5.6,0.4-8.4,0.4c-3.3,0-6.7-0.1-10-0.3c-2.8-0.1-5.6-0.3-8.3-0.6c-3.1-0.4-6.3-0.8-9.4-1.3c-2.3-0.4-4.6-0.7-6.8-1.2
			c-3.6-0.9-7.2-1.9-10.7-3c-3.9-1.2-7.9-2.6-11.7-4.1c-5.7-2.2-11.3-4.8-16.6-7.8c-6.2-3.4-12.1-7.1-17.7-11.3
			c-6.3-4.7-12.2-9.8-17.7-15.4c-3-3.1-6-6.2-8.8-9.5c-2.7-3.2-5.1-6.5-7.5-9.9c-2.3-3.3-4.6-6.6-6.7-10c-2.2-3.6-4.2-7.3-6-11
			c-1.8-3.7-3.4-7.5-5-11.2c-1.8-4.5-3.4-9.1-4.6-13.8c-0.9-3.8-2-7.5-2.8-11.3c-1.6-7-2.4-14.2-2.7-21.4c-0.2-4.1-0.2-8.3-0.3-12.4
			c0-8.7,0.8-17.3,2.5-25.8c1.2-6.5,2.7-13,4.9-19.3c1.7-4.7,3.5-9.4,5.4-14.1c2-4.8,4.4-9.3,6.9-13.8c4.3-7.7,9.3-15,14.9-21.9
			c4.4-5.4,9.2-10.5,14.3-15.2c3.6-3.3,7.3-6.5,11.3-9.5c3.2-2.4,6.5-4.5,9.7-6.9c3-2.2,6.3-4.1,9.6-5.9c2.6-1.4,5.4-2.7,8.1-4
			c5.6-2.7,11.5-5,17.4-7c4.3-1.4,8.7-2.6,13.1-3.6c3.9-0.9,7.8-1.6,11.7-2.2c3.6-0.5,7.1-0.9,10.7-1.2c5-0.4,10-0.5,15.1-0.4
			c6.6,0.1,13.2,0.7,19.7,1.7c4.8,0.7,9.6,1.7,14.3,3c2.2,0.6,4.3,1.1,6.5,1.8c7.3,2.3,14.5,4.9,21.4,8.3c5.4,2.6,10.6,5.5,15.6,8.7
			c5.2,3.2,10.1,6.8,14.8,10.7c3.8,3.1,7.4,6.3,10.8,9.8c2.1,2.1,4.2,4.2,6.2,6.4c2.8,3.2,5.5,6.5,8.1,9.9c2,2.6,3.8,5.3,5.6,8
			c0.2,0.3,0.3,0.6,0.5,0.9c-0.3-0.3-0.6-0.5-0.8-0.8c-1-1.4-1.9-2.8-2.9-4.2c-0.2-0.3-0.4-0.5-0.7-0.9c-1.6,1.1-3.1,2.2-4.6,3.3
			c0.4,0.6,0.8,1.2,1.2,1.8c0.6,0.9,1.1,1.8,1.6,2.7c-0.2-0.2-0.4-0.3-0.5-0.5c-2.6-3.8-5.4-7.5-8.3-11.1c-3.4-4.2-7.1-8.1-11-11.9
			c-1-1-1.9-2-2.9-3c0.2,0.1,0.5,0.2,0.6,0.3c2.5,2.4,4.9,4.9,7.3,7.3c0.6,0.6,1.2,1.2,2,2c1.4-1.3,2.8-2.6,4.2-3.9
			c-3.3-3.8-6.8-7.2-10.5-10.6c-1.2,1.4-2.4,2.7-3.6,4c-0.1,0.2,0,0.6,0,0.9c-0.3-0.2-0.6-0.3-0.8-0.6c-2.4-2.1-4.9-4.1-7.3-6.2
			c-0.2-0.2-0.4-0.4-0.6-0.7c0.3,0.2,0.7,0.3,1,0.5c1.9,1.6,3.7,3.2,5.6,4.7c0.4,0.3,0.8,0.6,1.3,1c1.3-1.5,2.6-2.8,3.8-4.1
			c-1.5-1.9-10.4-9.1-11.9-9.7c-1.1,1.5-2.1,3-3.3,4.5c1,0.8,1.9,1.4,2.7,2.1c0.3,0.3,0.6,0.6,0.9,1c-0.8-0.5-1.5-1-2.3-1.6
			c-2.2-1.6-4.3-3.3-6.6-4.7c-3-2-6.1-3.8-9.2-5.6c-2-1.2-4.1-2.3-6.3-3.4c-2.2-1.1-4.4-2-6.6-3c-2.5-1.1-4.9-2.2-7.5-3.1
			c-2.8-1-5.6-2-8.4-2.9c-4.8-1.6-9.7-2.8-14.7-3.7c-4.3-0.8-8.6-1.3-12.9-1.9c-5.1-0.7-10.2-0.8-15.3-0.8
			c-6.6,0.1-13.2,0.4-19.7,1.3c-5.4,0.7-10.7,1.8-15.9,3.1c-4.5,1.2-9,2.5-13.4,4.2c-2.6,1.1-5.3,2-7.9,3.1c-4.6,2-9.1,4.1-13.4,6.6
			c-3.2,1.8-6.4,3.7-9.5,5.7c-4.7,3.1-9.1,6.4-13.4,10c-5,4.3-9.8,8.8-14.2,13.7c-2.4,2.7-4.6,5.5-6.9,8.3c-1.4,1.7-2.7,3.4-3.9,5.2
			c-2.6,4.1-5.3,8.2-7.7,12.4c-5,8.4-8.8,17.3-11.9,26.6c-2,5.9-3.5,11.9-4.7,18c-1.1,5.5-1.7,11.1-2.2,16.7
			c-0.4,4.6-0.4,9.3-0.4,13.9c0.1,7.3,0.6,14.6,1.8,21.8c1.1,6.5,2.6,12.9,4.5,19.2c2.4,7.7,5.5,15.1,9,22.3
			c2.9,5.8,6.2,11.3,9.8,16.7c3.8,5.6,8.1,10.9,12.6,16c4.7,5.3,9.9,10.2,15.4,14.7c5.7,4.7,11.8,8.9,18.1,12.8
			c5.7,3.4,11.6,6.4,17.7,9c6.8,2.9,13.8,5.2,21,7c6,1.5,12,2.6,18.1,3.3c5.5,0.6,11.1,1.1,16.7,0.9c4.9-0.1,9.7-0.3,14.6-0.7
			c6.3-0.5,12.5-1.5,18.6-3.1c4.5-1.2,9-2.4,13.4-3.8c4-1.3,7.9-2.9,11.8-4.7c5-2.2,9.8-4.7,14.6-7.4c4.8-2.7,9.4-5.8,13.8-9.1
			c5.6-4.1,10.9-8.7,15.8-13.7c2.5-2.5,4.8-5.1,7.1-7.7c5-5.8,9.6-11.9,13.7-18.4c1.9-3.1,3.8-6.3,5.5-9.5c3.2-6,6-12.2,8.3-18.6
			c2.2-6.2,4-12.5,5.4-18.9c1.2-5.4,2-10.8,2.5-16.3c0.7-7.2,0.7-14.4,0.5-21.5c-0.1-3-0.4-6-0.7-9c-0.5-4.1-1.1-8.3-1.9-12.4
			c-1.3-7.1-3.3-14.1-5.7-20.9c-0.5-1.3-0.9-2.7-1.3-4.1c0.1,0.2,0.3,0.4,0.4,0.6c0.5,1.3,0.9,2.5,1.4,3.8c0.5,1.4,1,2.9,1.4,4.3
			c1.5-0.1,4.8-1,5.6-1.6c-0.4-2.5-4.5-13.1-5.5-14.4c-1.5,0.7-3,1.4-4.6,2c-0.5,0.2-0.4,0.7-0.4,1.1c-1-1.5-1.6-3.2-2.2-4.9
			c0.6,1.1,1.2,2.2,1.8,3.3c1-0.4,1.8-0.7,2.7-1c0.8-0.3,1.7-0.7,2.5-1c0-0.3,0-0.4-0.1-0.5c-1.7-3.6-3.5-7.2-5.2-10.8
			c-0.2-0.4-0.6-0.6-1-0.6c-1.3,0.1-2.6,0.3-3.9,0.4c-0.5,0.1-1,0.2-1.5,0.3c0,0.4,0,0.6,0,0.9c-1.2-1.5-2.2-3.1-2.8-4.9
			c0.3,0.4,0.6,0.7,0.8,1.1c0.4,0.6,0.8,1.3,1.3,2.1c1.4-1.8,2.5-3.5,3.5-5.5c-0.2-0.4-0.5-0.9-0.7-1.3c-0.3-0.6-0.5-1.1-0.8-1.7
			c0.7,1.1,1.5,2.1,2.2,3.2c2.5,4.2,4.8,8.5,6.9,13c2,4.4,4,8.8,5.5,13.3c0.8,2.2,1.5,4.4,2.2,6.6c0.1,0.4,0.2,0.9,0.3,1.3
			c-0.3-0.3-0.5-0.6-0.8-1c-1.8,0.4-3.6,0.8-5.3,1.6c1.2,4.5,2.3,9,3.5,13.4c1.2,0.1,4-0.4,5.6-1c-0.1-0.4-0.1-0.8-0.2-1.2
			c-0.9-3.6-1.8-7.2-2.7-10.8c-0.1-0.3-0.1-0.7-0.1-1.1c0.5,1.5,1,2.9,1.4,4.4c0.7,2.9,1.5,5.7,2.1,8.6
			C605.2,256.1,605.5,259,605.9,261.8c-0.1-0.2-0.2-0.4-0.3-0.6c-0.2-1-0.3-2-0.5-3c-0.3-1.4-0.5-2.7-0.8-4.2
			c-1.9,0.4-3.7,0.7-5.7,1.1c0.4,2.5,0.9,4.9,1.3,7.4c0.4,2.4,0.5,4.8,1,7.3c2-0.1,3.8-0.1,5.7-0.4c-0.1-1.2-0.2-2.2-0.3-3.3
			C606.1,264.6,606,263.2,605.9,261.8z M593.5,347.9c1.4-1.9,5.8-13,5.8-14.7c-1.7-0.6-3.4-1.2-5.2-1.8c-1.9,4.8-3.7,9.4-5.6,14.1
			C590.2,346.3,591.8,347.1,593.5,347.9z M499.3,425c0.5,1.8,0.8,3.7,1.5,5.4c3.9-0.9,13.5-4.7,14.6-5.7c-0.7-1.6-1.3-3.3-2-5
			C508.7,421.4,504,423.2,499.3,425z M408.2,429.7c0.8-1.8,1.6-4.7,1.5-5.5c-4.5-1.8-9.1-3.6-13.7-5.4c-0.8,1.7-1.6,3.3-2.4,5.1
			C398.4,426.1,403.2,428,408.2,429.7z M307.8,252.3c-1,2.4-2.7,14-2.4,15.7c1.8,0.3,3.6,0.5,5.4,0.4c0.8-4.9,1.5-9.8,2.3-14.7
			C311.3,253.3,309.6,252.8,307.8,252.3z M563.7,383.3c1.1,1.6,2.7,2.7,3.9,4.2c3.6-3.9,6.7-7.9,9.8-12.1c-1.6-1.2-3-2.3-4.6-3.4
			C569.9,375.7,566.8,379.5,563.7,383.3z M516.8,144.8c-4.8-2.1-9.6-4-14.6-5.5c-0.6,1.9-1.2,3.7-1.8,5.4c4.7,1.8,9.2,3.5,13.8,5.2
			C515.2,148.1,516,146.5,516.8,144.8z M598.3,316.5c1.9,0.5,3.7,0.9,5.6,1.4c1.2-5.1,2-10,2.5-15.2c-1.6-0.2-3.1-0.4-4.5-0.6
			c-0.4,0-0.7,0-1.1,0C599.8,306.9,599.1,311.6,598.3,316.5z M337.3,370.4c-1.6,1-3.2,2-4.6,3.2c2,3.5,8.2,11.1,9.6,11.9
			c1.3-1.2,2.7-2.5,4.1-3.7C343.4,378,340.4,374.2,337.3,370.4z M544.1,408.6c0.5-0.4,0.9-0.6,1.2-0.8c1.6-1.2,3.2-2.4,4.7-3.7
			c1.8-1.5,3.6-3,5.5-4.5c0.3-0.3,0.6-0.6,0.3-1.1c-1-1.4-2-2.8-3.2-4c-3.9,3.2-7.7,6.2-11.5,9.3C542,405.4,543,407,544.1,408.6z
			 M368.8,402.6c-3.8-3.2-7.5-6.2-11.3-9.4c-1.3,1.3-2.6,2.7-3.9,4c1,1.6,10.1,9.2,11.9,9.9C366.7,405.6,367.7,404.1,368.8,402.6z
			 M358.2,175.3c3.9-3.2,7.7-6.3,11.6-9.4c-0.5-0.8-1-1.6-1.5-2.3c-0.5-0.8-1.1-1.5-1.6-2.3c-4.3,3-8.2,6.3-12.1,9.9
			C355.8,172.6,356.9,173.9,358.2,175.3z M439,430.6c-4.9-0.8-9.6-1.5-14.4-2.3c-0.4,1.8-0.8,3.6-1.2,5.5c5,1.1,9.9,1.9,15,2.5
			C438.6,434.3,438.8,432.5,439,430.6z M484.3,428.8c-5,0.7-9.7,1.4-14.5,2.1c0,1.9,0.1,3.7,0.5,5.7c5-0.6,10-1.1,15-2.4
			C484.9,432.3,484.6,430.5,484.3,428.8z M573.3,197.6c1.6-1.1,3.1-2.2,4.6-3.3c-3-4.2-6.1-8.1-9.6-11.9c-1.5,1.4-2.8,2.6-4.1,3.8
			C567.3,190,570.2,193.7,573.3,197.6z M310.6,300c-1.9,0.1-3.7,0-5.6,0.5c0.4,5.1,1.3,10,2.3,15c1.9-0.4,3.7-0.8,5.5-1.1
			C312.1,309.5,311.3,304.8,310.6,300z M425.7,140.7c4.8-0.7,9.6-1.5,14.3-2.2c0-1.9-0.1-3.7-0.5-5.6c-5,0.5-9.9,1.2-14.9,2.4
			C425.1,137.2,425.4,138.9,425.7,140.7z M307.6,316.2c0,2.3,3,13.5,3.9,14.6c1.7-0.4,3.5-0.9,5.1-1.6c-1.2-4.7-2.4-9.3-3.7-13.9
			C311.1,315.6,309.3,315.9,307.6,316.2z M347,382.5c-1.5,1.2-2.9,2.4-4.4,3.7c3.3,3.7,6.7,7.2,10.4,10.5c1.1-0.7,3.4-3.4,3.8-4.2
			C353.6,389.2,350.3,385.9,347,382.5z M317.3,222.6c-2.1,4.6-3.9,9.2-5.4,13.9c1.8,0.8,3.5,1.4,5.3,1.9c1.8-4.6,3.5-9,5.3-13.5
			C320.8,224.2,319.1,223.5,317.3,222.6z M342.9,182.8c-3.4,3.9-6.6,7.7-9.5,11.8c1.5,1.2,3,2.3,4.4,3.4c3.1-3.8,6-7.5,9.1-11.3
			C345.7,185.4,344.4,184.1,342.9,182.8z M556.7,398.4c3.7-3.3,7.2-6.7,10.5-10.4c-1.4-1.4-2.7-2.6-4-4c-3.3,3.3-6.6,6.5-9.9,9.9
			C554.2,395.5,555.3,397,556.7,398.4z M487.3,135.2c-0.4,1.9-0.8,3.7-1.2,5.6c2.4,0.6,4.6,1.1,6.9,1.7c2.2,0.6,4.4,1.3,6.8,1.9
			c0.7-1.8,1.2-3.5,1.9-5.4C496.9,137.4,492.2,136.2,487.3,135.2z M321.9,343.2c-1.7-4.5-3.4-8.8-5-13.1c-1.8,0.2-3.5,0.9-5.4,1.5
			c1.5,4.8,3.2,9.3,5.3,13.9C318.5,344.7,320.2,344,321.9,343.2z M471.5,138.5c4.7,0.7,9.1,1.4,13.7,2c0.5-1.8,0.9-3.6,1.4-5.5
			c-5-1.1-9.8-1.9-14.7-2.3C471.8,134.7,471.6,136.6,471.5,138.5z M411.3,144.6c4.7-1.3,9.2-2.5,13.8-3.7c-0.4-1.8-0.5-3.6-1.1-5.5
			c-4.9,1-9.6,2.2-14.3,3.9C410,141.1,410.7,142.8,411.3,144.6z M606.7,270c-2,0.1-3.9,0-5.6,0.4c0.2,5.1,0.4,10,0.6,15
			c1.9-0.7,3.6-1.5,5.2-2.4c0.5-0.3,0.5-0.7,0.5-1.2c-0.1-2.5-0.1-5.1-0.2-7.6C607,272.9,606.8,271.5,606.7,270z M397.2,150
			c4.5-1.7,8.8-3.4,13.3-5.1c-0.6-1.8-0.9-3.6-1.7-5.3c-4.7,1.5-9.2,3.3-13.8,5.4C395.7,146.7,396.5,148.3,397.2,150z M516.1,424.6
			c0.4-0.1,0.5-0.2,0.7-0.3c2.6-1.2,5.3-2.4,7.9-3.8c1.1-0.6,2.4-1.1,3.3-2.1c0.2-2-0.2-3.9-0.5-6c-4.5,2.3-8.9,4.5-13.4,6.7
			C514.5,421.1,515.4,422.7,516.1,424.6z M408.8,429.9c4.7,1.5,9.2,2.8,13.9,3.8c0.4-1.9,0.8-3.7,1.2-5.5c-4.5-1.2-8.9-2.4-13.4-3.7
			C410,426.2,409.4,427.9,408.8,429.9z M486.1,433.8c2.1,0.1,12.3-2.4,14-3.4c-0.5-1.7-1-3.4-1.5-5.3c-4.6,1.2-9.1,2.3-13.7,3.5
			C485.3,430.5,485.7,432.1,486.1,433.8z M311.7,237.5c-1.6,4.7-2.9,9.4-3.9,14.2c1.9,0.4,3.7,0.8,5.5,1.2c1.2-4.5,2.4-8.9,3.6-13.4
			C315.2,238.9,313.6,238.2,311.7,237.5z M353.9,171.7c-3.8,3.4-7.2,6.8-10.4,10.4c1.4,1.3,2.7,2.6,3.8,3.5
			c3.5-3.3,6.8-6.5,10.2-9.8C356.4,174.5,355.2,173.2,353.9,171.7z M517.4,145c-0.8,1.9-1.5,3.6-2.3,5.3c2.2,1.1,4.3,2.2,6.5,3.2
			c2.1,1,4.1,2.4,6.5,3.4c0.3-1.8,0.4-3.4,0.7-4.9c0.2-0.8-0.1-1.3-0.9-1.7c-2.2-1.1-4.3-2.2-6.4-3.3
			C520.2,146.3,518.9,145.7,517.4,145z M395.4,418.5c-4.4-2.3-8.6-4.5-12.9-6.7c-0.1,0.2-0.2,0.3-0.2,0.5c-0.1,1.7-0.3,3.4-0.4,5.2
			c0,0.5,0.3,0.7,0.7,0.9c2.3,1.2,4.6,2.5,7,3.6c1.1,0.6,2.2,1,3.4,1.6C393.8,421.8,394.6,420.2,395.4,418.5z M439.1,436.4
			c3.9,0.5,7.6,0.7,11.4,0.8c0.6,0,0.9-0.3,1.1-0.8c0.6-1.2,1.3-2.4,1.9-3.6c0.2-0.4,0.3-0.8,0.5-1.3c-4.9-0.3-9.5-0.6-14.3-0.8
			C439.5,432.6,439,434.4,439.1,436.4z M455.1,137.7c-0.4-1.7-1.1-3.1-1.6-4.6c-0.3-0.8-0.8-1.1-1.6-1.1c-3.4,0.2-6.8,0.4-10.2,0.6
			c-0.4,0-0.7,0.1-1.2,0.2c0.2,1.9,0.3,3.7,0.5,5.5C445.7,138.1,450.3,137.9,455.1,137.7z M456.4,137.7c4.8,0.2,9.4,0.5,14.2,0.7
			c0.2-1.9,0.8-3.6,0.6-5.5c-0.2-0.1-0.3-0.2-0.4-0.2c-3.7-0.2-7.5-0.5-11.2-0.7c-0.7,0-1,0.4-1.2,0.9c-0.5,1.2-1.1,2.5-1.6,3.7
			C456.6,136.9,456.5,137.2,456.4,137.7z M544.5,160.7c-0.9-0.6-1.6-1.2-2.4-1.7c-2.3-1.5-4.7-3.1-7-4.6c-0.7-0.5-1.3-0.4-2,0.1
			c-0.6,0.5-1.2,0.8-1.7,1.3c-0.8,0.5-1.5,1.1-2.3,1.7c4.1,2.6,7.9,5.2,12,7.8C542.2,163.8,543.3,162.3,544.5,160.7z M309.9,284.3
			c-1.7,0.8-3.2,1.6-4.7,2.3c-0.7,0.3-0.9,0.8-0.9,1.5c0.2,3.5,0.3,6.9,0.4,10.4c0,0.4,0.2,0.7,0.2,1c1.9-0.2,3.6-0.3,5.5-0.4
			C310.3,294.1,310.1,289.3,309.9,284.3z M329.8,210.6c2.6-4.1,5.1-8,7.7-12c-1.5-1.1-2.9-2.2-4.4-3.4c-2.6,3.4-4.9,6.9-7,10.6
			C327.1,207.5,328.4,208.9,329.8,210.6z M322.2,344.1c-1.7,0.7-3.4,1.5-5.2,2.2c1.7,3.9,3.5,7.6,5.4,11.1c2.4,0,5.3-0.4,6-0.9
			C326.5,352.4,324.4,348.4,322.2,344.1z M588,359.1c2-3.5,3.8-7,5.4-10.5c-1.2-0.9-4-2.2-5.3-2.4c-2.1,4-4.2,8.1-6.4,12.3
			C583.9,358.7,586,358.9,588,359.1z M528.4,412c1.4,1.3,2.9,2.3,4.4,3.2c0.6,0.3,0.9,0.3,1.5,0c1.9-1.3,3.9-2.5,5.9-3.7
			c1.1-0.7,2.2-1.5,3.4-2.3c-1.1-1.7-2.1-3.2-3.3-4.7C536.3,406.9,532.4,409.4,528.4,412z M455.2,431.5c0.4,1.8,1.2,3.3,1.8,4.8
			c0.3,0.7,0.8,0.9,1.6,0.9c2.9-0.2,5.9-0.3,8.9-0.4c0.7,0,1.3-0.2,2-0.3c0-2-0.2-3.8-0.6-5.6C464.3,431.2,459.9,431.3,455.2,431.5z
			 M573.5,371.2c1.5,1.2,2.9,2.4,4.4,3.6c2.5-3.4,4.8-6.7,6.8-10.2c-1.3-1.6-2.2-3.4-3.8-4.8C578.4,363.7,576,367.4,573.5,371.2z
			 M394.4,145.1c-3.9,1.9-7.6,3.6-11.2,5.7c0,2.1,0.1,4.1,0.4,6.1c4.3-2.2,8.5-4.4,12.9-6.6C395.8,148.6,395.1,146.9,394.4,145.1z
			 M366.1,407.5c0.1,0.2,0.1,0.3,0.2,0.3c3,2,5.9,4.1,8.9,6.1c0.4,0.3,0.7,0.2,1,0c1.4-0.9,2.9-1.8,4.3-2.7c0.2-0.1,0.2-0.3,0.4-0.5
			c-3.8-2.5-7.5-5.1-11.4-7.6C368.2,404.5,367.1,405.9,366.1,407.5z M370.5,165.4c2-1.4,3.9-2.7,5.8-4c2-1.3,4-2.5,6.1-3.8
			c-1.5-1.3-2.8-2.3-4.4-3.1c-0.6-0.3-1.2-0.3-1.8,0.1c-2.2,1.5-4.5,3-6.8,4.5c-0.7,0.5-1.4,1-2.2,1.6
			C368.4,162.3,369.4,163.8,370.5,165.4z M332.2,373c1.6-1.2,3.1-2.2,4.7-3.3c-2.5-3.9-5-7.7-7.5-11.6c-1.2,1.5-2.3,3-3.5,4.4
			c-0.3,0.4-0.1,0.8,0.1,1.2c1.4,2.2,2.8,4.5,4.3,6.7C330.9,371.3,331.5,372.1,332.2,373z M329.1,211.9c-0.5-0.1-0.9-0.2-1.4-0.2
			c-1.2-0.1-2.5,0-3.7-0.2c-1-0.2-1.5,0.3-1.9,1.1c-1.3,2.6-2.6,5.2-3.9,7.8c-0.2,0.4-0.4,0.9-0.6,1.4c1.7,0.9,3.3,1.7,5.1,2.3
			C324.9,220.1,327,216.1,329.1,211.9z M309.9,282.8c0.3-4.6,0.6-8.8,0.9-13.3c-1.9-0.2-3.7-0.8-5.6-0.6c-0.1,0.3-0.2,0.4-0.2,0.6
			c-0.2,3.3-0.5,6.6-0.7,10c0,0.3,0.3,0.9,0.6,1C306.5,281.3,308.1,282,309.9,282.8z"/>
		<path d="M584.1,202.8c-0.6-0.4-1-0.9-1-1.7C583.4,201.7,583.7,202.3,584.1,202.8z"/>
		<path d="M580,208.2c-0.1-0.1-0.3-0.2-0.4-0.3c-1-1.5-2-3.1-3-4.7c-0.1-0.2-0.2-0.5-0.3-0.7C577.8,204.3,579.1,206.1,580,208.2z"/>
		<path d="M583.1,349.1c0.3-0.4,0.5-0.7,0.8-1.2c-0.5,2.7-9,17.6-10.9,19.2c0.3-0.7,0.4-1.1,0.6-1.7c-0.3-0.2-0.7-0.5-1-0.7
			c-7.7-4.7-15.4-9.3-23.1-13.9c-3.7-2.2-7.3-4.4-11-6.6c-0.1-0.1-0.3-0.2-0.4-0.3c-0.8-0.4-0.8-0.4-1.5,0.3
			c-0.1,0.1-0.2,0.3-0.3,0.5c-0.5-0.6-0.1-0.9,0.1-1.1c1.1-1.6,2.3-3.2,3.3-4.9c2-3.5,3.9-7,5.8-10.5c0.3-0.5,0.6-1.1,1-1.7
			c0,0.8,0.6,1.1,1.1,1.4c4.5,2.7,8.9,5.4,13.4,8c5.3,3.2,10.6,6.4,16,9.6C579,346.7,580.9,347.8,583.1,349.1z M581.2,352.9
			c-0.2-0.3-0.3-0.5-0.5-0.6c-0.2-0.2-0.5-0.3-0.7-0.5c-6.3-3.8-12.5-7.5-18.8-11.3c-4.9-2.9-9.7-5.9-14.6-8.9
			c-0.3-0.2-0.6-0.4-0.9-0.5c-0.3-0.2-0.7-0.2-0.9,0.2c-0.1,0.2,0.1,0.6,0.3,0.7c0.3,0.3,0.7,0.5,1,0.7c7,4.2,14,8.5,21,12.7
			c4.1,2.5,8.2,4.9,12.3,7.4c0.3,0.2,0.6,0.4,0.9,0.4C580.6,353.3,580.8,353.1,581.2,352.9z M578.9,357.1c-0.5-0.4-0.8-0.7-1.1-0.9
			c-2.3-1.4-4.6-2.8-6.9-4.2c-8.7-5.2-17.3-10.4-26-15.6c-0.5-0.3-1.1-0.7-1.7-0.9c-0.2-0.1-0.5,0-0.8,0.1c0.1,0.2,0.1,0.6,0.3,0.7
			c0.2,0.2,0.5,0.4,0.8,0.6c2.4,1.5,4.8,2.9,7.1,4.3c3.6,2.2,7.3,4.3,10.9,6.5c5.2,3.2,10.5,6.4,15.7,9.5c0.2,0.2,0.5,0.3,0.8,0.3
			C578.3,357.6,578.5,357.3,578.9,357.1z M576.2,361.3c-0.5-0.3-0.9-0.7-1.4-1c-4-2.5-8.1-4.9-12.1-7.4c-7.1-4.3-14.2-8.5-21.3-12.8
			c-0.3-0.2-0.7-0.4-1-0.5c-0.2,0-0.5,0.1-0.6,0.3c-0.1,0.2,0,0.5,0.1,0.7c0.1,0.2,0.4,0.3,0.6,0.4c6.9,4.1,13.8,8.2,20.7,12.4
			c3.6,2.2,7.3,4.3,10.9,6.4c1,0.6,2,1.2,2.9,1.8C575.4,361.8,575.8,362,576.2,361.3z"/>
		<path d="M373.7,342c-1,0.7-2,1.4-2.9,2.2c-9.3,6.8-18.6,13.6-28,20.5c-1,0.7-2,1.5-2.9,2.2c-0.9,0.7-0.9,0.7-0.8,1.7
			c-0.8-0.5-2.3-2.8-2.9-4.5c0.7,0.2,1.2,0.1,1.7-0.3c5.4-4,10.9-8.1,16.3-12.1c0.2-0.2,0.4-0.4,0.6-0.7c-0.3,0.1-0.7,0.2-1,0.3
			c-4.3,2-8.6,3.9-12.9,5.9c-1.8,0.8-3.5,1.7-5.3,2.5c-0.6,0.3-1.2,0.4-0.9,1.5c-1.4-1.1-7.6-13.6-8-15.9c0.1,0,0.2,0,0.2,0
			c0.9,1.1,0.9,1.1,2.1,0.4c5.7-3.3,11.5-6.5,17.2-9.8c6.2-3.5,12.4-7,18.7-10.5c0.3-0.1,0.5-0.3,0.8-0.5c0-0.4,0-0.8,0-1.2
			c0,0,0.1,0,0.1,0c1.1,2.5,2.1,4.9,3.2,7.4c1.1,2.4,2.4,4.8,3.6,7.2c-0.1,0.1-0.2,0.2-0.4,0.3c-0.1-0.2-0.1-0.3-0.2-0.5
			c-0.4-0.7-0.8-0.6-1.4-0.2c-4.2,2.4-8.4,4.8-12.7,7.2c-3,1.7-6,3.4-9,5.2c-4.8,2.7-9.5,5.5-14.3,8.3c-0.3,0.2-1,0.3-0.7,0.8
			c0.3,0.6,0.8,0.2,1.2,0c6.6-3,13.2-6,19.7-9c5.9-2.7,11.8-5.4,17.7-8.2c0.3-0.1,0.6-0.2,0.9-0.3
			C373.6,341.8,373.7,341.9,373.7,342z M329.8,350.8c0.4-0.2,0.7-0.3,1-0.5c3.8-2.1,7.5-4.3,11.2-6.4c8.2-4.6,16.3-9.3,24.5-13.9
			c0.3-0.2,0.6-0.3,0.8-0.6c0.1-0.1,0.1-0.4,0-0.6c0-0.1-0.3-0.2-0.4-0.2c-0.2,0-0.5,0.1-0.7,0.3c-1.1,0.6-2.2,1.2-3.3,1.8
			c-6.5,3.7-13,7.4-19.5,11.1c-4.4,2.5-8.7,5-13.1,7.5c-0.3,0.2-0.6,0.4-0.8,0.6c-0.1,0.1-0.1,0.3-0.1,0.4
			C329.5,350.6,329.7,350.7,329.8,350.8z M369.7,333.7c-0.5-0.7-0.6-0.7-1.4-0.3c-1.8,1-3.6,2-5.4,3c-5.2,3-10.4,6-15.6,9
			c-4.3,2.5-8.6,5-13,7.4c-0.8,0.4-1.5,0.9-2.3,1.4c-0.2,0.1-0.2,0.4-0.3,0.6c0.3,0.1,0.5,0.2,0.8,0.1c0.5-0.2,1.1-0.5,1.6-0.8
			c4.9-2.8,9.8-5.6,14.6-8.4c6.8-3.9,13.6-7.7,20.4-11.6C369.3,334.1,369.5,333.9,369.7,333.7z"/>
		<path d="M598.4,278.9c0.1-0.4,0.2-0.7,0.4-1.3c0.2,0.4,0.4,0.5,0.4,0.7c0,4.9,0,9.8-0.1,14.7c0,0.3-0.1,0.6-0.4,1
			c-0.1-0.4-0.2-0.7-0.3-1.1c-1.3-0.3-40.4-0.4-41.7-0.1c-0.1,0.3-0.2,0.7-0.3,1c-0.1,0-0.1,0-0.2,0c0-5.4,0-10.8,0-16.2
			c0.1,0,0.2,0,0.3,0.1c0.5,1.2,0.5,1.2,1.8,1.2c9.3,0,18.7,0,28,0c3.7,0,7.4,0,11.2,0C597.8,279,598.1,279,598.4,278.9z
			 M577.9,283.7C577.9,283.8,577.9,283.8,577.9,283.7c6.5,0.1,13.1,0.1,19.6,0.1c0.2,0,0.4,0.1,0.6,0c0.2-0.1,0.5-0.3,0.5-0.5
			c0-0.2-0.2-0.4-0.4-0.5c-0.3-0.1-0.7-0.1-1-0.1c-3.8,0-7.5,0-11.3,0c-9.3,0-18.5-0.1-27.8-0.2c-0.2,0-0.4,0-0.6,0.1
			c-0.2,0.1-0.4,0.3-0.6,0.5c0.2,0.2,0.4,0.5,0.7,0.6c0.3,0.1,0.6,0,0.9,0C565,283.7,571.4,283.7,577.9,283.7z M556.8,288.3
			c0.4,0.5,0.9,0.5,1.4,0.5c6.9,0,13.8,0.1,20.7,0.1c6.1,0,12.3,0.1,18.4,0.1c0.3,0,0.7,0,1-0.1c0.2,0,0.4-0.3,0.4-0.4
			c0-0.2-0.2-0.4-0.3-0.4c-0.4-0.1-0.8-0.1-1.3-0.1c-6.7,0-13.4-0.1-20-0.1c-6.3,0-12.6,0-18.9,0
			C557.7,287.9,557.2,287.7,556.8,288.3z"/>
		<path d="M447,140.8c-0.5-0.1-0.7-0.2-1-0.3c0.1-0.5,3.9-0.7,5.7-0.3c-0.4,0.2-0.7,0.4-1.1,0.6c0.4,4.3,0.8,8.6,1.2,12.9
			c0.1,0,0.2,0,0.3,0.1c0.2-0.6,0.4-1.2,0.7-1.9c0,0,0.1,0,0.1,0c-0.2,1-0.4,2-0.6,3c-0.1,0.9-0.3,1.8-0.2,2.6
			c0.5,6.1,1.1,12.1,1.7,18.2c0.2,2.3,0.4,4.5,0.6,6.8c0,0.5,0.1,0.9,0.2,1.4c0.1,0.2,0.4,0.4,0.5,0.4c0.2,0,0.4-0.2,0.5-0.4
			c0.1-0.3,0.1-0.7,0.1-1c0.1-4.7,0.1-9.3,0.2-14c0.1-5.3,0.2-10.7,0.3-16c0.1-3.6,0.1-7.1,0.2-10.7c0-0.3,0-0.7,0-1
			c0-0.4-0.2-0.7-0.6-0.7c-0.3,0-0.6,0.3-0.7,0.5c-0.2,0.4-0.2,0.8-0.4,1.2c-0.1-1.2-0.2-1.8-0.6-2.3c4.2-0.1,8.3,0.2,12.4,0.8
			c-0.2,0.1-0.4,0.2-0.6,0.2c-0.2,0-0.5,0.1-0.8,0.1c-0.1,0.3-0.1,0.7-0.1,1c-0.1,3.9-0.2,7.9-0.2,11.8c-0.1,7.6-0.2,15.1-0.3,22.7
			c0,2.2-0.1,4.5-0.2,6.7c0,1.4,0,1.4,0.9,2c-5-0.2-9.9-0.4-14.8-0.7c0.1-0.5,0.4-0.9,0.4-1.4c-0.3-4-0.7-7.9-1.1-11.9
			c0-0.3-0.1-0.6-0.4-1c-0.2,0.5-0.4,1-0.5,1.4c0,0-0.1,0-0.1,0c0.2-1,0.4-2,0.5-3c0.1-0.7,0.2-1.5,0.1-2.3
			c-0.3-3.5-0.6-6.9-0.9-10.4c-0.4-4-0.8-8.1-1.2-12.1C447.1,143,447.1,141.9,447,140.8z M460.5,140.8c0,0.4-0.1,0.7-0.1,1.1
			c-0.1,2.5-0.1,4.9-0.2,7.4c-0.1,5.9-0.2,11.8-0.3,17.8c-0.1,4.4-0.1,8.8-0.2,13.2c0,1.2,0,2.4,0,3.6c0,0.4,0.2,0.7,0.6,0.6
			c0.2,0,0.5-0.3,0.5-0.6c0.1-0.4,0.1-0.8,0.1-1.1c0.1-6.9,0.2-13.9,0.3-20.8c0.1-5.6,0.2-11.2,0.3-16.8c0-1.2,0-2.4,0-3.6
			C461.6,141,461.4,140.6,460.5,140.8z"/>
		<path d="M399.4,365.3c3,1.8,6,3.6,8.9,5.4c0.1,0.1,0.1,0.2,0.2,0.5c-0.5-0.1-0.9-0.1-1.4-0.2c-0.3,0.4-0.7,0.9-1,1.4
			c-3.9,6.4-7.7,12.8-11.6,19.2c-3.1,5.1-6.2,10.3-9.4,15.4c-0.2,0.3-0.4,0.6-0.7,1c0.3,0.2,0.6,0.4,0.9,0.7
			c8.6-11.7,17.2-23.4,25.8-35.1c0.1,0.1,0.2,0.1,0.3,0.2c-0.1,0.4-0.3,0.8-0.4,1.1c-2.7,5.7-5.3,11.5-8.1,17.2
			c-3.1,6.5-6.3,13-9.4,19.5c-0.3,0.6-0.7,1.1,0.1,1.7c-1.2,0-4.7-1.7-5.5-2.7c0.6-0.5,1.1,0.3,1.8,0.1c3-6.3,6.1-12.8,9.1-19.2
			c-0.1-0.1-0.2-0.1-0.3-0.2c-0.6,0.8-1.2,1.5-1.8,2.3c-3.5,4.8-7,9.6-10.5,14.3c-0.3,0.5-0.6,0.9-0.3,1.4c-0.5,0.5-0.9,0.1-1.2-0.1
			c-1.4-0.9-2.9-1.8-4.3-2.7c-1.4-0.9-2.8-1.7-4.2-2.6c-0.3-0.2-0.6-0.4-0.9-0.7c0.4-0.8,0.8-0.1,1.3-0.1c0.3-0.4,0.6-0.8,0.9-1.3
			c3.4-5.5,6.7-10.9,10.1-16.4c3.7-6,7.3-12.1,11-18.1C399.4,366.8,399.8,366.1,399.4,365.3z M381.3,406.2c0.2-0.4,0.3-0.7,0.5-1
			c2.6-4.3,5.3-8.7,7.9-13c1.4-2.3,2.9-4.6,4.3-6.9c2.9-4.7,5.7-9.5,8.5-14.3c0.3-0.6,0.7-1.2,1-1.8c0.2-0.5,0.1-0.8-0.6-0.9
			c-0.3,0.4-0.6,0.8-0.8,1.2c-2.9,4.8-5.8,9.6-8.7,14.4c-3.6,5.9-7.1,11.8-10.7,17.7c-0.7,1.1-1.3,2.2-2,3.4
			C380.4,405.6,380.4,406.1,381.3,406.2z"/>
		<path d="M312.8,278.1c0-0.7,0.1-1.5,0.1-2.2c0.2,1.2,1.1,1.3,2,1.5c4.5,1,9,2,13.5,2.8c1.3,0.3,2.8,0,4.1-0.1
			c7.2-0.6,14.4-1.3,21.6-2c0.5,0,1-0.2,1.5-0.2c0.7,0,1.3-0.2,1.6-1.1c-0.1,1.9-0.3,3.8-0.4,5.7c-0.1,0-0.1,0-0.2,0
			c-0.1-0.3-0.2-0.5-0.4-0.9c-4.4,0.4-8.8,0.9-13.3,1.4c1.3,0.7,2.8,0.9,4.3,1.2c1.5,0.3,3,0.6,4.5,0.9c1.5,0.3,3,0.6,4.5,0.9
			c0.2-0.4,0.4-0.8,0.6-1.3c0,2.6,0,5,0,7.7c-0.3-1-0.9-1-1.5-1c-5.6-0.1-11.2-0.1-16.9-0.2c-4.4-0.1-8.8-0.2-13.2-0.3
			c-3.6-0.1-7.1-0.2-10.7-0.2c-0.4,0-0.8,0-1.3,0c-0.2,0.5-0.3,0.8-0.5,1.3c-0.5-1.2-0.5-7.6-0.1-11.2c0.4,0.6,0.8,0.9,1.5,0.8
			c3.9-0.4,7.7-0.7,11.6-1c0.1,0,0.2-0.1,0.5-0.2c-0.3-0.2-0.5-0.3-0.7-0.4c-3.6-0.8-7.2-1.7-10.9-2.5
			C314.1,277.6,313.4,277.4,312.8,278.1z M334.7,287.6C334.7,287.6,334.7,287.7,334.7,287.6c6.6,0.1,13.2,0.2,19.8,0.3
			c0.3,0,0.7,0,1,0c0.4,0,0.8-0.1,0.8-0.6c0-0.4-0.2-0.6-0.6-0.7c-0.2-0.1-0.5-0.1-0.7-0.2c-4.1-0.9-8.1-1.7-12.2-2.5
			c-1-0.2-1.9-0.5-2.9-0.5c-2.3,0.1-4.6,0.4-6.9,0.6c-4.6,0.4-9.3,0.9-13.9,1.3c-1.8,0.2-3.6,0.3-5.4,0.5c-0.4,0-0.7,0.2-0.7,0.7
			c0,0.4,0.2,0.7,0.7,0.7c0.4,0,0.8,0.1,1.3,0.1C321.5,287.4,328.1,287.5,334.7,287.6z"/>
		<path d="M539.9,228.8c0.5,0.5,0.8,0.8,1.3,1.3c0.4-0.2,0.8-0.4,1.2-0.6c7.4-4.4,14.9-8.7,22.3-13.1c3.8-2.2,7.5-4.4,11.3-6.5
			c1.3-0.7,1.2-0.7,1.1-2.1c1.2,1.2,5.5,9.2,5.6,10.4c-1.2-1.1-1.2-1.1-2.7-0.2c-6,3.6-12.1,7.1-18.1,10.7c-5.1,3-10.1,5.9-15.2,8.9
			c-0.4,0.2-0.8,0.5-1.2,0.7c0.2,0.6,0.3,1.1,0.5,1.7c-0.3-0.1-0.4-0.2-0.5-0.2c-1.9-3.5-3.8-7-5.6-10.5
			C539.8,229.2,539.9,229.1,539.9,228.8z M543.9,234.6c0.3-0.2,0.6-0.3,0.9-0.4c3.9-2.3,7.8-4.6,11.7-6.9
			c7.4-4.3,14.7-8.6,22.1-12.9c0.3-0.2,0.7-0.4,0.9-0.6c0.2-0.2,0.2-0.6,0.1-0.7c-0.1-0.2-0.5-0.2-0.7-0.2c-0.2,0-0.4,0.2-0.7,0.4
			c-3.3,1.9-6.7,3.8-10,5.7c-8,4.7-15.9,9.3-23.8,14c-0.3,0.2-0.7,0.4-0.9,0.6c-0.1,0.1-0.2,0.5-0.1,0.6
			C543.4,234.4,543.7,234.5,543.9,234.6z"/>
		<path d="M388.4,161.8c-0.3-0.6-0.6-1.2-0.8-1.8c-0.2-0.6-0.2-1.4-1.4-1.3c2.3-1.5,4.5-2.5,6.8-3.6c0,0.1,0.1,0.2,0.1,0.2
			c-0.3,0.2-0.6,0.5-1.1,0.8c0.6,1.2,1.1,2.3,1.7,3.5c2.6,4.9,5.1,9.8,7.7,14.7c2.3,4.4,4.7,8.8,7,13.2c1.1,2,2.1,4,3.2,6.1
			c0.7,1.2,0.7,1.2,2,1.1c-0.9,0.8-2,1.1-3.1,1.7c-1.1,0.6-2.2,1.1-3.3,1.7c-1.1,0.6-2.1,1.2-3.3,1.7c0.3-0.6,0.3-1.1-0.1-1.7
			c-2.3-3.4-4.6-6.8-6.9-10.2c-0.1-0.1-0.2-0.2-0.3-0.3c-0.2,0.1-0.4,0.1-0.6,0.2c-0.5-2.9-2.6-5-4.1-7.4c-3.2-4.9-6.4-9.6-9.7-14.4
			c-0.6-0.9-1.2-1.8-1.8-2.7c-0.4-0.6-0.4-0.6-1.6-0.7c1.6-1.1,3.2-1.9,5-2.9c-0.2,0.5-0.5,0.8-0.5,1.1c0,0.3,0.2,0.6,0.4,0.9
			c2.2,3.2,4.3,6.5,6.5,9.7c0.1,0.2,0.3,0.3,0.5,0.5c0.4-0.5,0.1-0.9,0.1-1.4c0.1,0.2,0.2,0.5,0.3,0.7c0.6,1.5,0.9,3.1,1.9,4.5
			c3.8,5.5,7.6,11.1,11.3,16.7c0.9,1.3,1.8,2.7,2.7,4c0.6,0.8,0.7,0.8,1.6,0c-0.3-0.6-0.6-1.3-0.9-1.9c-1.4-2.7-2.8-5.3-4.2-8
			c-4.6-8.7-9.1-17.4-13.7-26c-0.4-0.7-0.7-1.3-1.1-2c-0.2-0.4-0.5-0.6-0.9-0.5c-0.5,0.2-0.4,0.5-0.3,0.9
			C387.9,160,388.2,160.9,388.4,161.8z"/>
		<path d="M459.5,385.1c0.9,14,1.8,28.1,2.6,42.1c0.4,0.2,0.7,0.4,1.1,0.6c-0.3,0.2-0.4,0.4-0.5,0.4c-0.8,0.2-4.6,0.1-5.2-0.1
			c0.3-0.3,0.7-0.6,0.8-0.9c0.1-0.4,0-0.8,0-1.3c-0.3-4.5-0.6-9-1-13.5c-0.1-1.6-0.2-3.3-0.3-4.9c-0.1,0-0.2,0-0.3,0
			c-0.1,0.3-0.2,0.6-0.3,0.9c-0.4,3.2-0.9,6.5-1.3,9.7c-0.3,2.6-0.7,5.3-1,7.9c-0.1,0.5-0.1,1.1-0.1,1.6c0.4,0.1,0.7,0.2,1,0.4
			c-0.1,0.2-0.2,0.3-0.2,0.3c-0.1,0.1-0.2,0.1-0.4,0.1c-2.1-0.1-4.2-0.1-6.3-0.2c-0.3,0-0.5-0.1-0.8-0.4c0.3-0.1,0.7-0.2,1.1-0.3
			c0.5-1.5,0.4-3.1,0.4-4.7c0.3-8.7,0.6-17.4,0.9-26.1c0.1-4,0.3-7.9,0.4-11.9c0-0.3,0-0.6,0-0.8c-0.5-0.3-0.9-0.6-1.3-1
			c0-0.1,0.1-0.2,0.1-0.3c0.7,0,1.4,0.1,2,0.1c1.2,0,2.4,0.1,3.6,0.1c0.7,0,0.7,0.1,1,0.9c-0.5,0-0.9,0.1-1.3,0.1
			c-0.1,0.1-0.2,0.3-0.2,0.4c-0.5,14.4-1,28.8-1.6,43.2c0.6,0.2,0.9,0.1,1-0.5c0.2-1.3,0.5-2.6,0.7-3.9c0.8-6.1,1.5-12.2,2.3-18.2
			c0.8-6.5,1.7-12.9,2.6-19.4c0-0.2,0.1-0.3,0.2-0.4C459.4,385.1,459.5,385.1,459.5,385.1z"/>
		<path d="M524.9,159.2c-0.4-0.5-0.7-0.8-1.1-1.3c0.9-0.1,1.3,0.3,1.7,0.7c1.4,1,3,1.6,4.1,3.1c-0.1,0-0.3,0-0.4-0.1
			c-0.6-0.4-1-0.2-1.3,0.4c-0.8,1.5-1.7,3-2.6,4.5c-4.6,7.9-9.2,15.8-13.8,23.8c-1.3,2.2-2.6,4.5-3.9,6.7c-0.2,0.4-0.4,0.8-0.7,1.3
			c0.3,0.4,0.5,0.7,0.8,1c-0.8,0-4.5-2.3-5.5-3.3c0-0.1,0.1-0.2,0.1-0.1c1.2,0.2,1.2,0.2,1.9-0.9c3.6-6.2,7.1-12.4,10.7-18.5
			c3.1-5.4,6.3-10.7,9.4-16.1C524.6,159.9,524.8,159.5,524.9,159.2z"/>
		<path d="M343.5,217.3c0.6,0.5,1.3,0.9,1.8,1.4c1,1,2.2,1.7,3.5,2.3c5.1,2.4,10.2,4.8,15.3,7.2c2.1,1,4.1,1.9,6.2,2.9
			c1.3,0.6,1.3,0.6,2.6-0.2c-1.1,1.8-2.1,3.3-3.1,4.8c-0.4-0.4-0.6-0.9-1-1.1c-3.7-1.8-7.4-3.5-11.2-5.2c-0.2-0.1-0.5-0.1-1-0.3
			c0.8,1.3,2,2,2.6,3.2c-0.4-0.3-0.7-0.6-1.1-1c-1-1-2-1.9-3.1-2.9c-0.4-0.3-0.8-0.6-1.3-0.8c-7.6-3.6-15.1-7.2-22.7-10.7
			c-0.6-0.3-1.1-0.5-1.7,0.2c0.6-2,1.8-3.6,3-5.2c-0.1,0.4-0.1,0.8-0.2,1.3c4,1.9,8.1,3.8,12.1,5.7c0.1-0.1,0.1-0.1,0.2-0.2
			C344.3,218.2,343.9,217.7,343.5,217.3L343.5,217.3z"/>
		<path d="M530.5,405.6c0.5-0.1,0.8-0.1,1.4-0.2c-0.1,0.3-0.1,0.6-0.3,0.7c-1.6,1.1-3.2,2.1-4.9,3.2c-0.4-0.8,0.5-0.8,0.6-1.3
			c-3.9-5.6-8-11.2-12-16.6c-0.2,0-0.2,0-0.2,0.1c0,0-0.1,0.1,0,0.1c0.1,0.2,0.1,0.5,0.2,0.7c2.7,6,5.4,11.9,8.2,18
			c0.6-0.3,1.2-0.5,1.7-0.7c0.3,0.4,0.2,0.8-0.1,0.9c-1,0.4-1.6,1.5-2.9,1.2c0.3-0.3,0.6-0.7,1.1-1.2c-5.9-13-11.9-26-17.9-39.2
			c1,0.6,4,4.7,8.6,11.2c2.7,3.9,5.6,7.7,8.4,11.6C524.9,397.8,527.7,401.7,530.5,405.6z"/>
		<path d="M456.8,284.5c0,0.7-0.6,1.3-1.3,1.3c-0.6,0-1.2-0.7-1.2-1.3c0-0.7,0.6-1.2,1.2-1.2C456.3,283.3,456.8,283.8,456.8,284.5z"
			/>
		<path d="M336.7,210.9c-0.6-0.5-1.3-1.1-1.9-1.6c-0.4,0.2-0.6,0.4-1.1,0.8c0.3-1.2,0.9-1.9,1.7-2.5c-0.1,0.4-0.3,0.7-0.4,1.1
			c0.7,0.7,1.3,1.4,2,2.1C336.8,210.8,336.8,210.8,336.7,210.9z"/>
		<path d="M364.7,236.9c0.6,0.5,1.1,1,1.7,1.5c0.8,0.7,0.8,0.7,1.8,0.1c-0.3,0.6-0.6,1.2-0.9,1.8c-0.1-0.9-0.7-1.3-1.2-1.8
			c-0.5-0.5-1-0.9-1.5-1.4C364.5,237,364.6,236.9,364.7,236.9z"/>
		<path d="M342.1,216c-1.4-1.4-2.9-2.7-4.4-4.2C338.5,212.1,341.5,214.8,342.1,216z"/>
		<path d="M402.1,201.1c-0.9,0.6-1.7,1.1-2.4,1.6c0,0-0.1-0.1-0.1-0.1c0.3-0.5,0.6-1.1,0.8-1.5C400.8,201.1,401.3,201.1,402.1,201.1
			z"/>
		<path d="M582.8,212.9c1,1.3,1.8,2.8,2.3,4.4C584.3,215.8,583.5,214.4,582.8,212.9z"/>
		<path d="M363,235.7c-0.9-0.8-1.8-1.6-2.6-2.4c0.1-0.1,0.1-0.1,0.2-0.2c0.9,0.8,1.8,1.6,2.6,2.4C363.1,235.6,363.1,235.6,363,235.7
			z"/>
		<path d="M447.5,185c-0.9,0-1.5,0.1-1.8,0.1c0.2-0.2,0.4-0.5,0.7-0.8C446.6,184.4,447,184.6,447.5,185z"/>
		<path d="M589.6,226.9c0.7,0.9,1.1,2,1.3,3.1C590.5,229,590,227.9,589.6,226.9z"/>
		<path d="M586.1,219.3c0.9,0.6,1,1.7,1.4,2.6c-0.1-0.1-0.3-0.1-0.4-0.2C586.7,220.9,586.4,220.1,586.1,219.3z"/>
		<path d="M388.8,163.2c0.3,0.9,0.6,1.7,0.8,2.6C389.3,164.9,389,164,388.8,163.2z"/>
		<path d="M585,217.2c0.6,0.6,0.9,1.3,1,2.1C585.7,218.6,585.4,217.9,585,217.2z"/>
		<path d="M398.1,193.4c0.1,0.3,0.2,0.6,0.3,0.9c0,0-0.1,0-0.1,0.1c-0.1-0.3-0.2-0.6-0.3-0.9C398,193.5,398.1,193.4,398.1,193.4z"/>
		<path d="M343.6,217.3c-0.4-0.3-0.7-0.5-1.3-0.9C343.2,216.6,343.2,216.6,343.6,217.3C343.5,217.3,343.6,217.3,343.6,217.3z"/>
		<path d="M590.9,229.9c0.2,0.4,0.4,0.9,0.5,1.3C591.2,230.8,591.1,230.4,590.9,229.9z"/>
		<path d="M454,146.5c0,0.3,0,0.5,0,0.8c-0.1,0-0.1,0-0.2,0c0-0.3,0-0.5,0-0.8C453.9,146.5,454,146.5,454,146.5z"/>
	</g>
</g>
<g>
</g>
<g>
</g>
<g>
</g>
<g>
</g>
<g>
</g>
<g>
</g>
<g>
</g>
<g>
</g>
<g>
</g>
<g>
</g>
<g>
</g>
<g>
</g>
<g>
</g>
<g>
</g>
<g>
</g>
</svg>
