<svg xmlns="http://www.w3.org/2000/svg" viewBox="0 0 162.17 236.12">
  <title>self-portrait</title>
  <path d="M479.75,248.33c-.24-3.71,1.31-7.6-.73-11s-6.59-4.37-10.3-5a183.13,183.13,0,0,0-37.6-2.63.77.77,0,0,0-.72.55c-3.91,14.43,2.12,33.25,16.6,39.49,6.19,2.67,16,4.33,21.94.21s8-13.47,9.45-20.06c.21-.94-1.23-1.34-1.45-.4-1.11,5-2.42,10.23-5,14.64-3.39,5.7-8.61,7.06-15,6.48-12.33-1.12-21.21-9.48-24.7-21.17-1.36-4.57-2.75-11.68-1-16.36,1.15-3,5.34-2.07,8.22-2.08,3.39,0,6.77.07,10.15.28a173.32,173.32,0,0,1,19.38,2.6c4.47.8,9.18,2.21,9.64,7.57.2,2.3-.53,4.6-.39,6.91.06,1,1.56,1,1.5,0Z" transform="translate(-403.97 -126.31)"/>
  <path d="M477.06,259.87c1.36-9.44,9.3-16.23,18.76-11.65a.76.76,0,0,0,1-.27c4.77-9.86-19.28-15.36-15.67-2.26a.76.76,0,0,0,1.1.45c5-3.51,9.93-3.06,14.85.17a.76.76,0,0,0,1.1-.45c3.7-9.6,21.55-9.37,29.8-9.08,4.67.16,10,.37,14.28,2.38,6.71,3.13,7,10.7,5,16.93-4.56,13.82-20.42,20.45-34.15,16.49-9.16-2.64-12.12-11.65-13.14-20.24-.35-3-1-6.5-.38-9.47,1.16-5.19,7.55-5.41,11.84-5.89,8.49-.94,16.72-.45,25.18.34a72.8,72.8,0,0,1,8,1,12.26,12.26,0,0,1,3.76,1.12,5.09,5.09,0,0,1,1.45,1c1.81,2.49-1.63,2.34-3,.79-.63-.73-1.69.33-1.06,1.06a13.11,13.11,0,0,0,3.52,2.91.76.76,0,0,0,.91-.12c5-6.45-4.24-8.19-9.06-8.76-5.07-.6-10.23-1.19-15.32-1.36-7.05-.23-16.21-.56-22.9,2.15a7.57,7.57,0,0,0-5,7,46.38,46.38,0,0,0,2.37,17.33c3.84,11.36,14.12,14.78,25.29,13.22,10.36-1.44,18.54-6.61,22.49-16.5,2.95-7.37,2.77-17-5.56-20.52-7.73-3.3-18-2.82-26.15-1.89a41.45,41.45,0,0,0-12.74,3.16,16.29,16.29,0,0,0-4.32,2.75c-.9.85-2,2.84-2.55,2.85s-3.36-1.75-3.94-1.91a12.75,12.75,0,0,0-4.58-.45,11.56,11.56,0,0,0-3.9,1c-1.51.7-2.61,2.18-2.09-.65,1-5.32,9.63-2.77,12.21-.15.74.75,2,2.17,1.54,3.34s-1.87.16-3-.13a12.82,12.82,0,0,0-7.94.47c-5.61,2.22-8.63,7.77-9.45,13.48-.14.94,1.31,1.35,1.45.4Z" transform="translate(-403.97 -126.31)"/>
  <path d="M478.2,241.14c-4.32-4.54-9.08-8.09-15.39-9.13-4.61-.76-9.62-.61-14.29-.61-7.06,0-18.84.5-18.93,10h1.5a54.83,54.83,0,0,1-.2-6c.09-1,.6-5.11,2.79-4.06.66.32-1.09,5.41-1.3,6-.31.86.91,1.22,1.37.58a12.79,12.79,0,0,1,4.82-4.09.76.76,0,0,0-.18-1.37c-10.07-2.87-5.41,12.93-5.45,17.83h1.5a31.09,31.09,0,0,0-2-8.77c-.35-.89-1.8-.5-1.45.4a29.27,29.27,0,0,1,2,8.38.75.75,0,0,0,1.5,0c0-4-4.13-18.58,3.55-16.38l-.18-1.37a14.24,14.24,0,0,0-5.36,4.63l1.37.58a16.62,16.62,0,0,0,1.17-8A.76.76,0,0,0,434,229c-5.77,1.78-4.57,7.49-4.45,12.39a.75.75,0,0,0,1.5,0c.09-9.38,13.84-8.6,20.36-8.44,4,.1,8.27-.1,12.21.74,5.51,1.18,9.67,4.52,13.48,8.52.67.7,1.73-.36,1.06-1.06Z" transform="translate(-403.97 -126.31)"/>
  <path d="M461.67,238.25c-8.08,0-14.93,1.3-20.53,7.55-.64.72.41,1.78,1.06,1.06,5.32-5.94,11.82-7.08,19.47-7.11a.75.75,0,0,0,0-1.5Z" transform="translate(-403.97 -126.31)"/>
  <path d="M460.13,240.39c1.48.4,3,1.51,2.8,3.24s-1.47,2.17-2.9,2.26a61.21,61.21,0,0,1-6.27-.37l.72.55a5.09,5.09,0,0,1,1.07-5l-1.28-.53c.15,1.22.56,2.39.62,3.63a.75.75,0,0,0,1.47.2,24.64,24.64,0,0,1,1.8-2.93l-1.4-.38c0,1-.36,2.12-.24,3.12a.77.77,0,0,0,.95.72c.41-.06.63-.52.82-.84a.75.75,0,0,0-1.3-.76q-.43.57.07.15l.95.72c-.12-1,.25-2.11.24-3.12a.76.76,0,0,0-1.4-.38,27.13,27.13,0,0,0-2,3.29l1.47.2c-.06-1.25-.47-2.4-.62-3.63-.07-.59-.8-1.06-1.28-.53a6.65,6.65,0,0,0-1.46,6.48.77.77,0,0,0,.72.55c2.66.12,6.81,1.37,9.1-.46,3.25-2.6,1-6.7-2.34-7.62a.75.75,0,0,0-.4,1.45Z" transform="translate(-403.97 -126.31)"/>
  <path d="M510.53,243.72c7-1.48,17.86-3.57,20.41,5.48a.75.75,0,0,0,1.45-.4c-2.82-10-14.34-8.19-22.26-6.52-.94.2-.54,1.65.4,1.45Z" transform="translate(-403.97 -126.31)"/>
  <path d="M512.28,244.8c-.62,4.33,3.11,7.58,7.35,7.31a5,5,0,0,0,4.25-2.53,3,3,0,0,0,.35-2.42c-.3-.69-1.64-1.39-2.24-1.9q-1.24-1-2.45-2.12c-.72-.64-1.79.42-1.06,1.06,1.1,1,4.62,3.07,4.13,4.55s-2.07,1.85-3.32,1.87c-3,.07-6-2.19-5.56-5.42.14-.94-1.31-1.35-1.45-.4Z" transform="translate(-403.97 -126.31)"/>
  <path d="M484.71,287c-2.7-1.93-5.42-3.72-8.7-2a.74.74,0,0,0-.37.65c0,.51.06,1.07.58,1.32.3.15,1.12.06.92-.13.7.66,1.76-.39,1.06-1.06a1.3,1.3,0,0,0-.91-.44,1.66,1.66,0,0,0-.39.07c-.79.19.24.18.24.24l-.37.65c2.72-1.42,5,.46,7.19,2,.79.56,1.54-.74.76-1.3Z" transform="translate(-403.97 -126.31)"/>
  <path d="M471.06,281.2c1.77-6.57,6.87-11.23,9.92-17.15.44-.86-.85-1.62-1.3-.76-3.12,6-8.27,10.8-10.08,17.51a.75.75,0,0,0,1.45.4Z" transform="translate(-403.97 -126.31)"/>
  <path d="M475.67,286.25c-3.43-.29-4.29-3.68-4.58-6.58-.1-1-1.6-1-1.5,0,.39,3.83,1.71,7.71,6.08,8.08,1,.08,1-1.42,0-1.5Z" transform="translate(-403.97 -126.31)"/>
  <path d="M429.06,230.8c-.67-2-2.72-2.5-4.65-2.45a.76.76,0,0,0-.72.95,3.16,3.16,0,0,0,1,1.95,14.43,14.43,0,0,0,1.9,1.07.75.75,0,0,0,.76-1.3c-.49-.29-1-.49-1.52-.8a1.76,1.76,0,0,1-.73-1.32l-.72.95c1.18,0,2.77,0,3.21,1.35.3.91,1.75.52,1.45-.4Z" transform="translate(-403.97 -126.31)"/>
  <path d="M424.35,224.71c.81,1.33-.9,6.16-1.22,7.61-.61,2.78-1.27,5.56-2.12,8.27a.76.76,0,0,0,1.25.73,24.68,24.68,0,0,1,4.36-3l-1.13-.65c-.09,4.2-1.3,8.68-4.3,11.76l1.25.73c.2-.83.43-1.65.65-2.47a.75.75,0,0,0-1.45-.4l0,.15a.75.75,0,0,0,1.45.4l0-.15-1.45-.4c-.22.82-.44,1.64-.65,2.47a.76.76,0,0,0,1.25.73c3.28-3.37,4.64-8.21,4.73-12.82a.76.76,0,0,0-1.13-.65,26.9,26.9,0,0,0-4.66,3.23l1.25.73a100.27,100.27,0,0,0,2.69-11c.28-1.46,1.38-4.64.5-6.08-.5-.82-1.8-.07-1.3.76Z" transform="translate(-403.97 -126.31)"/>
  <path d="M409.58,246.33c-.36,4.44,1.26,8.6,2.64,12.74,1.85,5.53,2.16,10.82,2.91,16.55s3.48,13.54,9.21,16.16c.87.4,1.63-.89.76-1.3-7.8-3.57-8.29-14.58-9.05-21.88-.79-7.52-5.58-14.67-5-22.28.08-1-1.42-1-1.5,0Z" transform="translate(-403.97 -126.31)"/>
  <path d="M411.72,251.47c-2.33-7.52-.19-15.38-.07-23.05a.76.76,0,0,0-.75-.75c-1.84,0,.25-5.21.61-6.75a74,74,0,0,1,2.67-9,.76.76,0,0,0-1.1-.85c-1.59,1-3.38,1.61-5,2.48l1.13.65c.18-6.74,3.08-13,3-19.78a.76.76,0,0,0-.95-.72c-3.87,1-2.64-.94-2.07-4.28.37-2.15.8-4.28,1.07-6.45.05-.42-.39-.73-.75-.75-11.34-.55,6.59-13.2,6.24-17.34-.18-2.17-2.48-2.92-3-4.75-1-3.42,3.72-4.49,6-4.72,1.47-.15,3-.11,4.42-.36,2.27-.38,3-1.5,4.8-2.52,4-2.3,11.4.63,15.55,1.88a.76.76,0,0,0,.85-.34c3.2-6.29,5-14,10.41-18.87,2.84-2.56,6.41-3.6,10-4.59,1.66-.46,3.34-.87,5-1.22,2.37-.49,4.21-1.8,4.39,1.69a.76.76,0,0,0,.75.75,18.85,18.85,0,0,0,6.81-1.73c4-1.63,6.29-2.28,10.51-.37a13.08,13.08,0,0,0,9.05.88c3.62-.76,7.14-2,10.81-2.52,6.06-.84,8.3,2.15,7.26,8.16a.76.76,0,0,0,.72.95c1.74.08,6.29-1.62,7.52-1.12,1,.42-1.09,8.87-1.09,10.75a9.29,9.29,0,0,0,1.13,5c1.18,1.9,2.94,3,3.19,5.55.15,1.56-.61,3.15-.28,4.73.83,3.93,4.66,4.71,8,5.34,4.44.84,6.37,3.2,8.41,6.94a10,10,0,0,0,4.5,4.59c2.2,1.15,4,1.42,5.45,3.92,1.13,1.91,1.26,4.5,1.52,6.64.38,3.15.93,6.25,1.54,9.37,1.57,8,2.82,15.87,3.77,23.95a63.59,63.59,0,0,1,.74,9.42c-.05,1.71,0,3.86-.82,5.45s-1.3,1.57-3,2.5c-4.31,2.44-5.49,8.07-6.4,12.6-1.35,6.71-1.74,13.61-2.88,20.36-.6,3.53-.83,7.19-1.61,10.68s-2.19,7.14-3.32,10.64c-2.36,7.29-5.2,14.48-8,21.6-3.09,7.73-6.54,15.88-11.9,22.36-4.1,5-9,11.16-14.46,14.57-6.81,4.25-15.39,6.64-23.34,7.32-7.13.61-13.27.19-19.59-3.55a73.14,73.14,0,0,1-15.74-12.37c-11.33-12.1-20.38-25.14-23.69-41.62-1.76-8.76-4.06-17.2-4.61-26.19-.48-7.82,0-15.52-2.17-23.14a.75.75,0,0,0-1.45.4c2.25,7.83,1.61,15.69,2.18,23.7a137.7,137.7,0,0,0,4,22.91c1.5,6.16,2.65,12.16,5.31,18a83.71,83.71,0,0,0,10.54,16.83c7.73,9.83,17.64,20.32,29.48,25.13,11.15,4.53,26.15.67,36.5-4.35,5.81-2.82,9.69-7.37,14-12.05a70,70,0,0,0,11.71-16.9c3.27-6.62,5.79-13.56,8.42-20.45,2.77-7.29,5.85-14.8,7.6-22.41.8-3.48,1-7.15,1.61-10.68a95.83,95.83,0,0,0,1.63-9.68,73.51,73.51,0,0,1,1.61-12.3,30.23,30.23,0,0,1,2.33-6.87,6.11,6.11,0,0,1,2.67-2.83,31.06,31.06,0,0,0,3-1.28c2.44-2.72,1.95-9,1.69-12.38a196.85,196.85,0,0,0-2.79-21.54c-.86-4.54-1.92-9.05-2.64-13.62-.49-3.11-.44-6.65-1.62-9.62s-2.79-3.77-5.37-5.22A12.27,12.27,0,0,1,548,173a20.33,20.33,0,0,0-1.73-3.15c-1.88-2.48-4.35-3.3-7.28-3.86-2.75-.52-3.2-.37-5.23-2.82-2.48-3-1.2-3-1.41-6.37-.16-2.55-1.6-3-2.81-5.08-3-5.13-.26-11.24.06-16.7a.76.76,0,0,0-.95-.72c-1.3.29-6.74,2.1-7.41,1.27-.51-.64,0-2.16,0-3a6.77,6.77,0,0,0-1.46-4.34c-2.46-2.73-7-1.84-10.09-1.19-6,1.24-11.28,4-17.17,1.14-2.49-1.19-4.4-1.73-7.21-1-3.37.88-8.68,5.33-10.22.6a.76.76,0,0,0-.72-.55c-7.88.52-17.7,2.85-22.82,9.29-3,3.82-4.69,8.45-6.63,12.86-.55,1.23-.74,2.58-2,3-1.45.44-3.59-.67-5.05-1a45.52,45.52,0,0,0-10-1,.75.75,0,0,0-.65.37c-2.72,5.23-16,.52-16.22,8.37-.08,2.45,2.87,3.43,3.06,5.7.18,2-2.46,3.8-3.85,5.32-2.21,2.41-6.92,6.84-6.16,10.58.38,1.87,1.6,1.9,3,2.72.29.17,1.32.05,1.44.23.53.75-.47,3.74-.62,4.55a46.5,46.5,0,0,0-.88,7.28.75.75,0,0,0,.95.72c3.08-1.29,3-.74,2.44,2.92-.25,1.67-.69,3.31-1.08,4.95a49.31,49.31,0,0,0-1.63,10.11.76.76,0,0,0,1.13.65c1.67-.87,3.46-1.45,5-2.48l-1.1-.85c-2,5.4-3.1,11.05-4.42,16.65a.76.76,0,0,0,.72.95c2.26.18.37,9.18.24,11.05a31.52,31.52,0,0,0,1,11.73c.28.92,1.73.53,1.45-.4Z" transform="translate(-403.97 -126.31)"/>
  <path d="M498.47,284.47a4.69,4.69,0,0,0-1,1.34.76.76,0,0,0,.65,1.13c.36,0,.69-.33.94-.55l1-.86c.74-.63-.33-1.68-1.06-1.06l-.78.67-.34.29c-.1.09-.24.18-.13.11l.38-.1h0l.65,1.13a3.52,3.52,0,0,1,.79-1c.67-.7-.39-1.76-1.06-1.06Z" transform="translate(-403.97 -126.31)"/>
  <path d="M517.62,242.85a11.75,11.75,0,0,0-1.23.72,3.73,3.73,0,0,0-.84.45,3.49,3.49,0,0,0-.34,2.16,6.42,6.42,0,0,0,2.24,4.3.79.79,0,0,0,.91.12c2.94-1.27,3.16-4.67,2.86-7.46l-1.4.38a6.65,6.65,0,0,1,.77,5.37c-.17.68.75,1.33,1.25.73,1.35-1.6,1.92-3.62.8-5.51a.75.75,0,0,0-1.3.76,3.07,3.07,0,0,1-.56,3.69l1.25.73a8.19,8.19,0,0,0-.92-6.53c-.37-.57-1.48-.41-1.4.38.25,2.27.33,5.11-2.12,6.16l.91.12a4.84,4.84,0,0,1-1.71-4.67l-.52.52c.75-.31,1.36-.81,2.09-1.14s.12-1.68-.76-1.3Z" transform="translate(-403.97 -126.31)"/>
  <path d="M449.62,243.65h0l-.34-.45c.22.54.33,1.33,1.09,1.3a1,1,0,0,0,.85-.75,8.16,8.16,0,0,0,0-2.13.75.75,0,0,0-1.47-.2,4,4,0,0,0-.36,2.28,13.82,13.82,0,0,0,.82,1.85.76.76,0,0,0,1.37.18,6.34,6.34,0,0,0,1.13-4.8c-.12-.72-1-.62-1.37-.18a4.07,4.07,0,0,0-1,3.66,3.14,3.14,0,0,0,3.06,1.85c1,.06,1-1.44,0-1.5-.71,0-1.57-.23-1.7-1.05a3.15,3.15,0,0,1,.88-2.19l-1.37-.18a4.83,4.83,0,0,1-1,3.65l1.37.18c-.22-.55-.58-1.07-.76-1.62a2.67,2.67,0,0,1,.3-1.7l-1.47-.2c0,.33,0,.64,0,1,0,.09-.1.84.09.64l.53-.22h-.06l.53.22c.12.1,0-.22-.1-.36a1,1,0,0,0-.39-.52c-.8-.54-1.55.76-.76,1.3Z" transform="translate(-403.97 -126.31)"/>
  <path d="M553,243.25a5.93,5.93,0,0,0,2.73-.63.76.76,0,0,0-.38-1.4c-.62,0-1.23,0-1.85,0-1,0-1,1.47,0,1.5.62,0,1.23,0,1.85,0l-.38-1.4a4.24,4.24,0,0,1-2,.42c-1,.09-1,1.59,0,1.5Z" transform="translate(-403.97 -126.31)"/>
  <path d="M494.85,240.38c.15.23.51.49.47.77a.76.76,0,0,0,1.25.73c1.16-.91,2.58-1.41,3.8-2.23.8-.54,0-1.84-.76-1.3-1.33.9-2.84,1.47-4.1,2.47l1.25.73a2.31,2.31,0,0,0-.62-1.93c-.52-.81-1.82-.05-1.3.76Z" transform="translate(-403.97 -126.31)"/>
  <path d="M499.85,241.12a13.45,13.45,0,0,0-2.1,6.86c.1,3,2.16,5.59,2,8.64l1.47-.2c-1.24-4.72-1.13-13.43,3.63-16.28a.75.75,0,0,0-.76-1.3c-5.43,3.24-5.74,12.56-4.32,18a.75.75,0,0,0,1.47-.2c.09-2.14-.8-3.82-1.41-5.81-1-3.3-.35-6,1.28-8.94.46-.85-.83-1.61-1.3-.76Z" transform="translate(-403.97 -126.31)"/>
  <path d="M547,240.53a5.41,5.41,0,0,0,3.95,1.64.75.75,0,0,0,.65-.37c1.49-2.47,7-1,9.24-.58.94.16,1.35-1.29.4-1.45a29.3,29.3,0,0,0-7-.69,6.27,6.27,0,0,0-2.49.6c-.31.17-.6.52-.9.65-1,.46-1.87,0-2.74-.88-.69-.67-1.76.39-1.06,1.06Z" transform="translate(-403.97 -126.31)"/>
  <path d="M471.78,235.7c.3,1.22,1.39,1.63,2.36,2.3,3.34,2.33,3.06,6.08,2.25,9.67l1.47.2c-.38-6.24,1.4-13.58-6.8-14.46-.54-.06-.79.52-.72.95.43,2.92,2.24,5.1,4.07,7.32.52.63,1.38-.07,1.25-.73-.61-3.14-2.85-5-5.76-6a.75.75,0,0,0-.58,1.37c3.27,1.66,5,4.53,7.09,7.39.33.46,1.25.53,1.37-.18,1.43-8.47-14.09-10.94-19.59-12.74-.92-.3-1.31,1.15-.4,1.45,4.56,1.49,19.7,4.06,18.55,10.9l1.37-.18c-2.25-3.07-4.14-6.15-7.63-7.93l-.58,1.37c2.41.86,4.21,2.34,4.71,5l1.25-.73c-1.69-2-3.3-4-3.69-6.66l-.72.95c6.94.75,5,8,5.3,13,0,.8,1.28,1.07,1.47.2.59-2.59,1-5.67,0-8.22a5.71,5.71,0,0,0-1.41-2.05c-.79-.76-2.94-1.43-3.21-2.5a.75.75,0,0,0-1.45.4Z" transform="translate(-403.97 -126.31)"/>
  <path d="M500.72,250.2c.83-3.62,2.4-6.59,5.75-8.39,2.84-1.53,6.15-2.18,9.22-3.08a.75.75,0,0,0-.4-1.45c-3.58,1.05-7.52,1.79-10.69,3.89s-4.54,5.15-5.34,8.63c-.21.94,1.23,1.34,1.45.4Z" transform="translate(-403.97 -126.31)"/>
  <path d="M515,238.75c5.53.22,10.94-.93,16.46-1,5.35-.07,10.69.45,16,.5a.75.75,0,0,0,0-1.5c-5.35,0-10.7-.57-16-.5-5.51.07-10.93,1.22-16.46,1-1,0-1,1.46,0,1.5Z" transform="translate(-403.97 -126.31)"/>
  <path d="M505.53,234c5.2-4.53,16.75-5.64,22.59-1.88.81.52,1.57-.77.76-1.3-6.45-4.15-18.68-2.87-24.41,2.12-.73.64.34,1.69,1.06,1.06Z" transform="translate(-403.97 -126.31)"/>
  <path d="M467.38,229.35c-5.47-2.57-11.43-1.38-17.08-.08-.94.22-.54,1.66.4,1.45,5.21-1.21,10.85-2.46,15.92-.08.87.41,1.63-.89.76-1.3Z" transform="translate(-403.97 -126.31)"/>
  <path d="M492.8,167.61c-5.58,1.93-10.66-5.37-12.44-9.82-.29-.72-1.51-.72-1.47.2.14,3.16,1,6.18,1.27,9.33l1.13-.65a59.91,59.91,0,0,0-13-7.51c-.48-.2-.92.3-.95.72a16.85,16.85,0,0,0,.85,6.61l1.1-.85c-5.17-2.48-5.87-8.86-5.58-14,.05-1-1.45-1-1.5,0-.32,5.67.66,12.56,6.32,15.27.55.26,1.31-.18,1.1-.85l-.5-1.56q-2-3.92.58-2.89c1.18-.08,3,1.22,3.92,1.74a64,64,0,0,1,6.86,4.57.75.75,0,0,0,1.13-.65c-.27-3.14-1.13-6.17-1.27-9.33l-1.47.2c2.08,5.2,7.74,13.14,14.29,10.87.91-.31.52-1.76-.4-1.45Z" transform="translate(-403.97 -126.31)"/>
  <path d="M545,195.38c1.87,2.48,2.4,6.36,3.16,9.3.89,3.45,1.66,6.95,2.79,10.33a.75.75,0,0,0,1.45-.4,8.56,8.56,0,0,0-2.77-4.79.76.76,0,0,0-1.28.53c.48,8.14,3.61,15.81,3.88,24,0,1,1.53,1,1.5,0-.27-8.17-3.39-15.84-3.88-24l-1.28.53A8.23,8.23,0,0,1,551,215l1.45-.4c-1.26-3.77-2.09-7.67-3.1-11.51-.72-2.73-1.26-6.17-3-8.48-.57-.76-1.88,0-1.3.76Z" transform="translate(-403.97 -126.31)"/>
  <path d="M458.7,254.22a14.84,14.84,0,0,0,4.68-2.08c.8-.54,0-1.84-.76-1.3a13.59,13.59,0,0,1-4.32,1.92.75.75,0,0,0,.4,1.45Z" transform="translate(-403.97 -126.31)"/>
  <path d="M510.5,252.25a13.11,13.11,0,0,0-1.37,0,.76.76,0,0,0-.65,1.13,14.62,14.62,0,0,0,4.14,4.23c.81.53,1.56-.76.76-1.3a12.79,12.79,0,0,1-3.6-3.69l-.65,1.13a13.13,13.13,0,0,1,1.37,0,.75.75,0,0,0,0-1.5Z" transform="translate(-403.97 -126.31)"/>
  <path d="M462.25,311q0-1.18,0-2.36c0-.7-1.09-1.08-1.4-.38a12.52,12.52,0,0,1-2.78,4.06l1.06,1.06c6-6.18,18.48-1.32,25.75-.26,8.37,1.22,19.08-3,26.7,1.53a.75.75,0,0,0,.76-1.3c-8.47-5.07-20.35-.37-29.68-2.16-7.16-1.38-18.66-4.93-24.59,1.13a.75.75,0,0,0,1.06,1.06,13,13,0,0,0,3-4.36l-1.4-.38q0,1.18,0,2.36a.75.75,0,0,0,1.5,0Z" transform="translate(-403.97 -126.31)"/>
  <path d="M482.62,326.65c3,1.85,7.75,2.12,11.08,1.08.92-.29.53-1.74-.4-1.45-3,.93-7.24.72-9.92-.92-.82-.51-1.58.79-.76,1.3Z" transform="translate(-403.97 -126.31)"/>
  <path d="M549.65,297.38c4.64-6.38,4.86-13.77,6.67-21.15,1.68-6.84,4.77-12.74,2.9-19.92a.75.75,0,0,0-1.45.4c1.92,7.39-1.79,13.58-3.24,20.62-1.41,6.81-2,13.48-6.18,19.3-.57.78.73,1.53,1.3.76Z" transform="translate(-403.97 -126.31)"/>
  <path d="M484.22,285.55c-.75-3-4.18-3.28-6.67-2.52-.92.28-.53,1.73.4,1.45,1.68-.51,4.29-.65,4.83,1.48a.75.75,0,0,0,1.45-.4Z" transform="translate(-403.97 -126.31)"/>
  <path d="M421.22,269.3c-.34-1.2-1-2.18-1.08-3.47a19.92,19.92,0,0,0-.17-3.78c-.21-.94-1.66-.54-1.45.4.31,1.36,0,2.72.17,4.09a21.53,21.53,0,0,0,1.08,3.16.75.75,0,0,0,1.45-.4Z" transform="translate(-403.97 -126.31)"/>
  <path d="M440.86,168.47a27.17,27.17,0,0,0-4.15-3.45c-.81-.53-1.56.77-.76,1.3a25.26,25.26,0,0,1,3.85,3.22.75.75,0,0,0,1.06-1.06Z" transform="translate(-403.97 -126.31)"/>
  <path d="M431.2,175.61c-3.3-.93-6.48-2.15-9.9-2.59-.77-.1-1,1.05-.38,1.4A72.24,72.24,0,0,0,430.5,179l-.33-1.25a33.45,33.45,0,0,1-7.4,4.87c-.8.4-.21,1.53.58,1.37s1.63-.32,2.44-.53l-.92-.92c-.58,3.12-2.33,5.91-1.94,9.15.11.95,1.61,1,1.5,0-.36-3,1.34-5.81,1.89-8.75a.76.76,0,0,0-.92-.92q-1.21.31-2.44.53l.58,1.37a35.13,35.13,0,0,0,7.71-5.11.76.76,0,0,0-.33-1.25,69.54,69.54,0,0,1-9.22-4.41l-.38,1.4c3.28.42,6.34,1.64,9.5,2.54a.75.75,0,0,0,.4-1.45Z" transform="translate(-403.97 -126.31)"/>
  <path d="M527,171.58c-4.31-.55-7.6-2.41-9-6.69-1.1-3.37-1.2-7.06-1.59-10.56-.1-.95-1.61-1-1.5,0,.47,4.28.46,9.19,2.5,13.1,2,3.75,5.58,5.14,9.58,5.65,1,.12.95-1.38,0-1.5Z" transform="translate(-403.97 -126.31)"/>
  <path d="M456,245.75l.61,0,.24,0h.07q.38.1-.34-.44l.08-.58c.12-.18.38-.28.14-.21a.75.75,0,0,0,.4,1.45,1.16,1.16,0,0,0,.76-.48.79.79,0,0,0-.32-1.08,4.2,4.2,0,0,0-1.64-.25c-1-.09-1,1.41,0,1.5Z" transform="translate(-403.97 -126.31)"/>
  <path d="M457.71,241.31a1.87,1.87,0,0,1,1.42-.26.77.77,0,0,0,.92-.52.76.76,0,0,0-.52-.92A3.42,3.42,0,0,0,457,240a.77.77,0,0,0-.27,1,.76.76,0,0,0,1,.27Z" transform="translate(-403.97 -126.31)"/>
  <path d="M432.72,343.2c1.31-5.66,1.05-11.43,1-17.2a.75.75,0,0,0-1.5,0c0,5.63.31,11.28-1,16.8-.22.94,1.23,1.34,1.45.4Z" transform="translate(-403.97 -126.31)"/>
</svg>
