<?xml version="1.0" encoding="utf-8"?>
<!-- Generator: Adobe Illustrator 20.1.0, SVG Export Plug-In . SVG Version: 6.00 Build 0)  -->
<svg version="1.1" id="Layer_1" xmlns="http://www.w3.org/2000/svg" xmlns:xlink="http://www.w3.org/1999/xlink" x="0px" y="0px"
	 viewBox="0 0 960 560" style="enable-background:new 0 0 960 560;" xml:space="preserve">
<path d="M308.1,205.5c0-5.8,0-11.6,0-18c2.7-0.3,5.5-0.6,8.3-0.8c0-0.4,0-0.8,0-1.2c-2.6-0.2-5.1-0.5-8-0.7c0-6.5,0-12.9,0-19.7
	c12.1-2.7,24,3.3,36.2,1.4c0.4,2.5,0.7,4.4,1,6.3c0.3,0,0.7,0,1,0c0.3-1.8,0.5-3.6,0.8-5.4c5.7-3.2,10.7,1.8,16.3,1.4
	c5.8-0.4,11.6-0.1,18.4-0.1c0,8,0.2,16.1,0,24.2c-0.2,9.3,1.7,18.3,5,26.6c1.5,3.9,0.4,6-0.9,8.9c-6.6-0.4-11.9,3.8-18.1,4.9
	c-2.7,0.5-5,2.3-7.6,3.3c-2.8,1.1-4.9-0.9-7.2-2c-0.8-2,1.9-5.2-2.1-6.2c-0.8-2,1.9-5.2-2.8-6.1c-0.1,0,0.4,0,1-0.1
	c-1-8.1-2-16.3-3.1-24.8c-1.2,0.3-2.4,0.6-3.1,0.8c1.6,8.4,3.1,16.3,5.2,24.1c1.5,2-1.2,5.2,2.8,6.1c0.8,2-1.9,5.2,2.1,6.2
	c0,1,0,2,0,3.3c-11.3,3.6-22.7,7.1-34.1,10.7c-1.3-3.8-2.7-8-4.1-12.2c-1.8-5.2-0.5-7.2,4.8-8.1c1.7-0.3,4.3,1.4,4.6-2.8
	c0-0.2,0,0.4,0.1,1c1.3-0.3,2.7-0.5,4-0.8c-0.1-0.4-0.1-0.9-0.2-1.3c-1.3,0.1-2.6,0.2-3.9,1.1c-3.7,0.8-7.4,0.8-11.2,0.8
	c-2.9-1.1,1.1-5.8-4-6.2c-0.5,0-0.1,0,0.2,0c0-2.7,0-5.4,0-8.1c-0.3,0-0.6,0-0.9,0c0,2.7,0,5.4,0.8,8.1c1.4,5.1,1.8,10.4,2.9,15.4
	c1.1,4.9,3,9.6,4.5,14.2c-4.6,1.4-8.5,2.6-12.4,3.9c-0.9,0.3-1.7,1.4-2.4,1.4c-7.3-0.5-13.2,5.8-20.7,4.2c-0.1-4.6,0.8-9.4-4.1-12.3
	c0-1.9,0.2-3.9-0.1-5.8c-0.1-0.9-1.3-1.6-2-2.4c0-2.6,0.2-5.2-0.1-7.8c-0.1-0.9-1.3-1.6-2-2.5c0-1.9,0-3.8,0-5.5
	c1.7-0.6,2.8-0.9,4-1.3c-2.1-1.9-4.1-3.7-6-5.5c0-4.7,0-9.5,0-14.2c0-1.4,0.3-2.8-0.1-4.1c-0.6-2.4-3.8-5.2-1.8-7.1
	c3.2-3.1-1.1-5-0.3-7.7c0.7-2.5,0.2-5.4,0.2-8.1c0.7-0.5,1.9-1,2-1.6c0.2-3.3,0.1-6.7,0.1-10.1c11.7-2.1,22.8,0.6,35,2.2
	c0,8.7,0,18.2,0,27.6c0,3.8-0.1,7.5,0.1,11.2C306.2,204.5,307.5,205,308.1,205.5c0.1,1.3,0.2,2.6,0.2,3.3c4.3-0.7,8.2-1.3,13.8-2.2
	C316.5,204.9,312.2,206,308.1,205.5z M366,188.9c-0.1,0.1-0.3,0.3-0.4,0.4c0.5,0.6,1,1.1,1.4,1.7c0.2-0.2,0.4-0.4,0.6-0.6
	c-0.6-0.5-1.1-1-1.9-1.2c-5.3-3-10.9-1.8-16.1-1.8c0,5.1,0,9.4,0,13.4c2.3-0.5,4.4-1.3,6.5-1.3c6.5-0.2,12.9,0,19.4-0.1
	c0.9,0,1.8-0.5,2.3-0.6c0-3.3,0-6.3,0-9.7c-2.9,0.1-5.4,0.3-7,0.3c0.5,2.9,0.8,5.3,1.4,8.9c-2.7-1.3-4-1.9-5.3-2.5
	c-1.4,0.5-3,1.1-5.3,2c0.2-3.7,0.3-6.2,0.4-8.7C363.8,189.1,364.8,189.1,366,188.9z M309.7,234.2c-9.9,3.3-19.1,6.3-28.7,9.4
	c1,3.6,2,7.3,3.2,11.6c9.6-0.9,18.5-4.7,28.4-7.4C311.8,243.5,310.8,239.2,309.7,234.2z M321.3,244.8c9.8-3.3,19-6.4,28.2-9.6
	c-1.8-4.7-3.5-9-5-13c-7.5,4-15,6.3-22.8,8c-1.9,0.4-3.6,1.7-5,2.4C318.5,237.3,319.9,241.1,321.3,244.8z M342.9,205.7
	c-5.7-0.7-10.3,1.7-15.1,2.4c-5,0.8-10.3,1.1-15.2,1.7c0.9,5,1.7,9.4,2.4,13.8c9.2-1.5,18.4-2.9,27.9-4.4
	C342.9,215.1,342.9,210.8,342.9,205.7z M272.7,179.4c10.8-2.6,19.8,4,28.8,0.9c0.9-4.7,1.8-9,2.7-13.3c-9.9-1.7-19.4,1.4-28.4-2.1
	C271,168.6,274.1,173.7,272.7,179.4z M305.6,218c-9.6,2.2-18.8,4.4-29.1,6.8c1.2,4.3,2.3,8.1,3.5,12.2c10-2,19.1-3.7,28.8-5.6
	C307.6,226.7,306.6,222.4,305.6,218z M340.9,187.7c-10.7,0.7-20.5,1.3-30.8,2c0.1,2.3-0.1,4.7,0.4,6.9c0.6,2.4,1.8,4.6,2.7,6.8
	c4.1-3.6,9-1.4,13.5-1.8c4.6-0.4,9.3-0.1,14.1-0.1C340.9,196.4,340.9,192.1,340.9,187.7z M276.1,218.6c4.8-1,9.3-2.6,13.8-2.5
	c4.6,0.1,9-1.8,13.9-0.9c0-4.3,0-8.9,0-14.2c-10.3,1-20.1,2-30.6,3.1C273.9,208.5,274.8,212.8,276.1,218.6z M349.5,184.7
	c10,0,19.1,0,28.6,0c0-2.2-0.2-4.3,0.1-6.2c0.2-1.9,0.9-3.8,1.5-6.1c-10.5,1.9-20-4.2-30.2-1.1C349.5,175.6,349.5,179.9,349.5,184.7
	z M273.4,197.1c10.6,0,20.4,0,29.8,0c-0.7-4.2-1.3-8.1-1.8-11.6c-3.4-0.7-6.9-2.5-9.2-1.5c-3.1,1.3-5.9,0.7-8.7,1
	c-3.3,0.3-6.6,0.1-10.1,0.1C273.4,189.3,273.4,193,273.4,197.1z M356.3,232.6c10.8-1,20.2-6.1,29.9-8.9c-1.5-3.6-2.8-6.7-4.1-9.8
	c-2.3,1.1-4,1.9-6,2.9c0,2.1,0,4.4,0,7.4c-2.4,0.9-4.7,1.8-7,2.7c-1.3-2.6-2.1-4.4-2.9-6c0.7-1,1.1-1.6,2.8-3.9
	c-6.6,1.6-11.1,2.6-16,3.8C354.1,224.7,355,228.1,356.3,232.6z M309.5,181.2c11.6-1.9,21.4,4.1,31.3,1c0-4,0-7.7,0-11.2
	c-9.5-4.4-19-2-27.9-2.2C311.7,173,310.8,176.3,309.5,181.2z M363.1,203.9c-4.8,0-9.2,0-12.9,0c0.6,4,1.1,7.7,1.7,12
	c10.4,0.3,20.3-2.5,29.5-4.5c-0.8-3.7-1.4-6.8-2.2-10.6c-2,1.2-3.6,2.2-5,3.1c-0.3,2.9-0.5,5.4-1,9.8c-2.4-3-3.6-4.4-4.7-5.8
	c-1.9,4.2-3.1,4.9-4.8,2.8c0.6-0.7,1.2-1.4,1.5-1.8C364.6,207.2,364,205.7,363.1,203.9z M344.9,175.1c-1.3,6.6-2.3,13.3,0,19.9
	C344.9,188.4,344.9,181.7,344.9,175.1z M371.7,217.2c-0.2-0.4-0.5-0.9-0.7-1.3c-0.2,0.2-0.7,0.5-0.6,0.7c0.1,0.5,0.4,0.9,0.6,1.4
	C371.2,217.7,371.4,217.5,371.7,217.2z M374,221c-0.2-0.2-0.5-0.7-0.7-0.6c-0.5,0.1-0.9,0.4-1.4,0.6c0.2,0.2,0.5,0.7,0.7,0.6
	C373.1,221.5,373.6,221.2,374,221z M318.8,186.3c0.3,0.3,0.5,0.5,0.7,0.7c0.2-0.5,0.5-0.9,0.6-1.4c0-0.2-0.4-0.4-0.6-0.7
	C319.2,185.4,319,185.9,318.8,186.3z"/>
<path d="M423.4,209.7c-2.1-1.6-4.2-3.2-6.2-4.8c0-3.3,0.1-6.4,0-9.4c-0.1-3.3,0.7-7.3-0.8-9.8c-2.1-3.4,2.5-4.8,1.1-8
	c-1-2.3-1.4-6,1.9-8.3c-1.3-0.5-2.5-0.9-3.7-1.3c-2.5-2,3-4.1,0-6.6c-0.7-0.5,2.1-5,1.4-5.8c-2.7-2.7,0.7-4.5,0.3-6.7
	c-0.3-1.3,0.1-2.7-0.1-4.1c-0.2-1-1.3-2.6-1.1-2.8c1.6-1.4,0.1-2-0.4-3c-0.8-1.6-1-3.3,1.7-3.6c0,0-0.2,0.2-0.3,0.3
	c0.5,0.6,1,1.1,1.4,1.7c0.2-0.2,0.4-0.4,0.6-0.6c-0.6-0.5-1.1-1-1.8-1.3c-0.3-3.5,1.1-7.5-3-10c-0.2,0.1-0.5,0.1-0.7,0.3
	c-0.2,0.2-0.5,0.5-0.5,0.8c0,27.7,0,55.4,0,83c-1.5-1.9-3-3.8-4.3-5.5c0.8-2.2,2.1-3.9,2.1-5.7c0.1-24.3,0.1-48.5,0.1-72.8
	c-12.5,0-24.4,0-36.3,0.1c-0.5,0-1,0.9-2,1.9c-1-1.2-2.1-2.3-3.5-3.9c1.1-1.5,2-2.7,3.1-4.2c72.2,0,144.4,0,214.7,0
	c2.7,1.3,4.3,2.1,6.4,3.2c-1.9,2.1-3,3.3-4.2,4.6c-0.7-0.6-1.4-1.7-2-1.7c-11.2-0.1-22.4-0.1-34.2-0.1c0,16,0,31.7,0,47.4
	c0,8.9,0,17.8,0,26.7c0,4-0.2,7.7-4.1,10c0.7-3.5,1.9-7,2-10.4c0.2-22.9,0.2-45.8,0-68.8c0-1.7-1.7-3.5-2.4-4.7
	c-5,1.8-3.6,5.3-3.6,8.2c-0.1,23.6,0,47.2,0,70.9c-1.4,1-2.8,1.9-4.1,2.8c3.2-8,1.7-16.2,2.1-24.8c-5.9,0-10.9,0-15.6,0
	c-2.8-2.5-4.5-4.7-2.1-8.1c2.3-3.3,1.4-6.6-1.1-10.5c6.6,0,12.6,0,18.9,0c-0.5-5.2,0.5-9.8-0.7-14.2c-5.5,3.5-10.7,1.6-15.3,1.8
	c-1.3-4.5-2.4-8.2-3.4-11.8c-2.6-0.3-5.1-0.5-7.9-0.8c0-5,0-9.4,0-13.8c-21.8,0-43.3,0-64,0c-1.6,1.2-2.6,2-3.7,2.9
	c3.3,1.7,0.6,3.1,0.3,4.7c-0.4,2.2-0.3,4.5-0.4,6.7c-3.1,0-5.5,0-8.7,0c-0.4,0,0.1,0,0.5,0c0-4.7,0-9.3,0-13.2
	c-3.2-0.4-5.9-1-8.6-1.1c-3.7-0.2-7.4,0-11.3,0c0,2.9,0,5.4,0,7.4c2.4-0.5,4.4-1,6.5-1.2c2-0.2,4.8-0.9,5.9,0.1
	c2,1.8,3.6,0.1,5.3,0.5c0.3,2.5,0.5,5.1,1.6,7.6c-0.4,2.4-3.2,4.8,0.3,7.1c-1,1.8-1.8,3.5-2.7,5.3c-5.7-0.6-11.7,1.2-17.1-1.7
	c0,5.5,0,10.5,0,15.7c5.9-3.3,11.8-1,18.3-2c0.9,5.5,1.7,10.6,2.5,15.1c-1.7,1.7-2.7,2.7-3.7,3.7c-5.7-0.7-11.6,1.2-17.2-1.6
	c0,7.4,0,14.5,0,21.2C421.4,205,424.5,206.2,423.4,209.7z M540.9,141.6c-0.1,0.1-0.3,0.3-0.4,0.4c0.5,0.6,1,1.1,1.4,1.7
	c0.2-0.2,0.4-0.4,0.6-0.6c-0.6-0.5-1.1-1-2.1-1C540.7,141.9,540.8,141.7,540.9,141.6c-0.4-0.5-0.9-1.1-1.4-1.7
	c-0.2,0.2-0.4,0.4-0.6,0.6C539.4,141,540,141.5,540.9,141.6z M419.8,146c0.6,0,1.2-0.1,1.7-0.1c-0.3-2-0.5-4-0.8-6.1
	c-1.1,0.9-1.5,1.8-1.5,2.7c0,1.2,0.3,2.3,1.9,3.4c2.9,8.3,9.7,1.1,16.2,4.8c-3.3-4.2-5.1-6.5-7-8.9c-0.6,1.3-1.2,2.7-1.9,4
	C426.1,145.9,423.7,145.9,419.8,146z M540.9,172.4c-0.1,0.1-0.3,0.3-0.4,0.4c0.5,0.6,1,1.1,1.4,1.7c0.2-0.2,0.4-0.4,0.6-0.6
	c-0.6-0.5-1.1-1-2.2,0.6c0-3.7,0-5.7,0-7.5c-4.2,0-8.1,0-12.1,0c0.2,1.4,0.3,2.3,0.5,3.5c1.2-0.6,2.1-1.1,3.3-1.7
	c0.3,2,0.5,3.9,0.9,6.1c1.5-0.3,2.6-0.6,3.9-0.8c-1-1.1-1.6-1.8-2.2-2.5c1-1,2-2,3-3C538.3,169.9,539,171.3,540.9,172.4z
	 M435.9,170.4c-0.1,0.1-0.3,0.3-0.4,0.4c0.5,0.6,1,1.1,1.4,1.7c0.2-0.2,0.4-0.4,0.6-0.6c-0.6-0.5-1.1-1-1.7-0.7
	c-0.2-1.8-0.3-3.1-0.4-4.5c-4.1,0-7.7,0-11.3,0c-4,5.6-4,8.7-0.6,13.3c4.3-0.6,8.2-1.2,12-1.7c0-0.4-0.1-0.9-0.1-1.3
	c-3.9,0-7.8,0-12.2,0c0.8-1.7,1.3-2.6,1.7-3.5c-0.5-0.7-1-1.4-2-2.7c2.5-0.9,4.3-1.5,7.9-2.7c-2,2.2-2.7,3-2.2,2.5
	c0.6,1.6,1.1,3.1,2.2,6.1c0.7-4.2,1-6.1,1.4-8.2C433.6,169.4,434.6,170.1,435.9,170.4z M524.2,125.5c0,4.3,0,7.7,0.1,11
	c0,0.3,0.8,0.6,1.6,1.1c0.3-2.1,0.6-4,0.9-6.2c5.3,0.7,10.6-1.2,15.6,2c0-2.7,0-5.2,0-7.9C536.3,125.5,530.6,125.5,524.2,125.5z
	 M541.2,146.4c-4.6,0-8.7,0-13,0c0.2,1.4,0.4,2.3,0.6,3.4c3.2,0,6.1,0,9,0C538.8,148.8,539.8,147.9,541.2,146.4z M528.4,136
	c0,1.2,0,1.9,0,2.6c4.1-0.3,8.7,1.9,12.6-2.6C536.8,136,532.9,136,528.4,136z M422.1,136.1c3.5,1.7,5.7,2.8,7.7,3.8
	c2.2-1.2,4-2.2,6.7-3.8C431.8,136.1,428,136.1,422.1,136.1z M540.3,178.8c0-0.7,0-1.4,0-2.2c-4,0.5-8.1-0.6-12.3,0.9
	c0.4,1.4,0.7,2.3,0.9,3.2c1.4-0.1,2.1-3.1,3.9-0.7c0.1,0.2,1.8-1,2.7-1.2C537.1,178.7,538.7,178.8,540.3,178.8z M426.8,142.1
	c-0.4,0.2-0.9,0.5-1.3,0.7c0.2,0.2,0.5,0.7,0.7,0.6c0.5-0.1,0.9-0.4,1.4-0.6C427.3,142.6,427.1,142.3,426.8,142.1z M435,140
	c-0.4,0.2-0.9,0.5-1.3,0.7c0.2,0.2,0.5,0.7,0.7,0.6c0.5-0.1,0.9-0.4,1.4-0.6C435.5,140.5,435.3,140.3,435,140z M534.8,142.5
	c0.2,0.4,0.5,0.9,0.7,1.3c0.2-0.2,0.7-0.5,0.6-0.7c-0.1-0.5-0.4-0.9-0.6-1.4C535.3,142,535.1,142.2,534.8,142.5z M528.1,142.5
	c-0.3-0.3-0.5-0.5-0.7-0.7c-0.2,0.5-0.5,0.9-0.6,1.4c0,0.2,0.4,0.4,0.6,0.7C527.6,143.4,527.8,142.9,528.1,142.5z M530.1,173.4
	c-0.3-0.3-0.5-0.5-0.7-0.7c-0.2,0.5-0.5,0.9-0.6,1.4c0,0.2,0.4,0.4,0.6,0.7C529.6,174.2,529.9,173.8,530.1,173.4z"/>
<path d="M610.7,234.4c-1.7,2.5-3.4,4.9-5.7,8.1c-10.2-3.6-21.4-6.7-32.1-13.1c10-19.3,9.4-39.9,8.9-60.4c11.7-1.9,23.3,2,34.5-3.5
	c0.4,3.1,0.7,5,1,6.9c0.3,0,0.7,0,1,0.1c0.3-1.7,0.6-3.3,1.1-6c1.6,0,3.6-0.2,5.5,0c10.2,1.5,19.9-3.2,30.8-1.9
	c0.1,3,0.3,6.3,0.3,9.5c0.1,3.4,0,6.8,0,10.9c-10.4,0-20.5,0-30.7,0c0,0.5,0,1.1,0,1.6c5.1,0.2,11.1-1.2,15.2,0.9
	c5.2,2.7,10.1-0.2,15.5,2.5c0,5.4,0,11.5,0,17.6c-2.1,1.9-4.2,0.4-6.4,0.2c-6.7-0.6-13.5-0.2-20.5-0.3c-2.5-2-2.5-2-5.9-0.1
	c2.3,0,4.2,0,5.9,0.1c0.4,0.7,0.6,1.8,0.9,1.8c8.4,0.2,16.1,3.2,24.5,5.3c-2.1,5.3-3.2,10.4-2.6,15.6c-3.5,1.8-6.5,2.6-10.8,1
	c-4.8-1.7-10.1-4.3-16-2.6c0.6,0.8,0.8,1.4,1.3,1.6c5.5,2.1,11,4.3,16.7,6.1c3.2,1,5.2,2.6,4.7,6.2c-4,1-1.3,4.1-2.1,6.2
	c-4,1-1.3,4.1-2.1,6.2c-0.8,0.4-1.7,0.8-2.7,1.3c-10.6-4.1-21.4-8.2-32.1-12.4C609.4,240.6,610,237.5,610.7,234.4
	c4-1,1.3-4.1,2.1-6.2c4-1,1.3-4.1,2.1-6.2c0.7-0.8,1.8-1.5,2-2.4c0.3-1.9,0.1-3.9,0.1-5.8c0.7-0.8,1.9-1.6,2-2.5
	c0.2-4,0.1-7.9,0.3-12.3c2.3-3.9,2.7-11.1,1-24.1c-0.2,0.1-0.7,0.3-0.7,0.4c0,8,0,16.1-0.3,23.7c-0.9,1.2-2.2,2-2.2,2.9
	c-0.2,4-0.1,7.9-0.1,11.9c-0.7,0.8-1.8,1.5-2,2.4c-0.3,1.9-0.1,3.9-0.1,5.8c-4,1-1.3,4.1-2.1,6.2
	C608.8,229.2,611.5,232.3,610.7,234.4z M631.3,236.4c-4.4-4.6-10.1-5.4-15.7-6.2c-1,4.4-1.8,8.1-2.6,12.2c9.7,1.8,17.7,9,29.1,8.3
	c-2.4-4.6,3.8-7.8,0.8-12.3c-2,0-3.7,0-5.4,0C636.5,234.5,633.3,237.2,631.3,236.4z M614.8,170c-10.7,1.1-20.6,2.1-29.9,3.1
	c0.6,3.9,1.1,7.6,1.7,11.9c4.9,0,10-0.4,15,0.1c4.6,0.5,8.8-1.7,13.2-1.1C614.8,179.9,614.8,175.8,614.8,170z M577.4,229.7
	c9.6,1.2,17.3,6.3,26.1,8.8c3.3-3.2,5.8-6.8,5.1-11.6c-9-4.9-18.4-7.4-28-9.1C579.4,222.1,578.4,225.7,577.4,229.7z M618.5,224.5
	c11-2,19.4,5.6,29.6,3.2c0.6-1.8,1.2-3.6,1.7-5.4c0.5-2,1-4,1.4-5.9c-9.9-2-19.8-4-29.6-6C620.6,214.6,619.7,218.9,618.5,224.5z
	 M581.6,214.7c10.3,2.3,19.3,4.4,28.6,6.5c2.5-3.5,3.5-8.1,2.1-13.5c-9.2-1.6-18.4-3.2-27.5-4.7
	C583.5,207.5,582.5,211.2,581.6,214.7z M654.5,191.6c-11.2-1.3-21.2,1.4-31.1-2.4c0,4.9,0,9.5,0,13.7c9.5,1,18.6,1.9,27.9,2.8
	C652.4,200.9,653.4,196.6,654.5,191.6z M623.4,171.1c0,4.2,0,7.9,0,12.5c10.5-1,20.5-2,31.1-3.1c-1.2-4.3-2.3-8-3.4-11.9
	c-4.7,0-9.4-0.3-14.1,0.1C632.5,169,628.1,170.2,623.4,171.1z M584.6,199.9c4.7,2.9,9.8,1,14.7,1.6c5,0.6,10.1,1.3,15,1.9
	c0-5.1,0-9.7,0-14c-9.6,0-18.7,0-27.7,0C586,192.6,585.4,195.7,584.6,199.9z M619.2,226.5c0.1,0.6,0.1,1.2,0.2,1.8
	c1.1-0.3,2.2-0.5,3.3-0.8c-0.1-0.3-0.1-0.7-0.2-1C621.5,226.5,620.4,226.5,619.2,226.5z"/>
<path d="M695,178.8c-0.7,4-3.9,2-5.7,1.9c-4.7-0.3-8.9,0.8-14.7,3.9c7.8,0,13.7,0,20.3,0c0,1.9,0,3.2-0.1,4.6c-2,2.5-2,2.5-0.1,5.9
	c0-2.3,0-4.2,0.1-5.9c1-1.3,1.9-2.3,3.3-4c10.5,0,21.7,0,33.6,0c0.1,2.9,0.3,6.2,0.3,9.5c0.1,3.4,0,6.7,0,10.8
	c-6.4,0-12.4,0.3-18.5-0.1c-5.9-0.4-11.7-1.5-18.1-2.3c-0.3-1.7-0.7-3.7-1.1-5.8c-0.3,0-0.6,0-0.9,0c-0.3,1.9-0.6,3.8-1,6.3
	c-6,0-11.9,0-17.9,0c0,0.4,0,0.8,0,1.2c5.9,0.7,11.9,1.4,18.5,2.2c0,3.5,0,6.2,0,8.8c-0.7,0.5-1.9,1-2,1.6c-0.2,2.7-0.1,5.3-0.1,8.6
	c-7.2,0.9-13.7-3.6-23.1-3.1c-1.1,0.4-0.6,1.2-0.3,1.1c1-0.1,1.9-0.6,2.9-0.9c-1.2-0.4-2.5-0.7-2.5-0.2c3.5,1.8,14.5,5.3,15.5,5.3
	c1.6,0,3.3,0,5.5,0c0.2,7.6-2.7,14-4.6,20.5c-3.6-0.7-6.7-1.4-9.8-2c-1-4-4.1-1.3-6.3-2.2c-2.5-2-2.5-2-5.9-0.1c2.3,0,4.2,0,5.9,0.1
	c1.1,4.1,4.3,1.4,6.3,2.2c2.7,1.8,5.3,3.7,8.2,5.7c-0.6,3.3-1.3,7-2.1,10.8c-1.7,2.1-3.4,4.2-4.9,6c-9.7-3.4-19.1-6.7-28.3-10.2
	c-1.5-0.6-2.5-2.6-3.8-4c4-1,1.3-4.1,2.1-6.2c4-1,1.3-4.1,2.1-6.2c3.3-3.5,4.3-7.7,4.1-12.3c0.6-0.2,1.6-0.4,1.6-0.7
	c1.1-7.3,3.5-14.4,2.5-21.9c2.8,0,2-2.2,2-3.7c0.1-12.9,0-25.9,0-38.8c11.4-1.7,22.5-4.2,34.6-2.4c0.9,4,0,8.7,0.5,13.3
	C693.2,177.1,694.4,177.9,695,178.8z M685.4,233.1c-8.8-5.2-18.3-5.4-27.8-8.8c-0.6,2.3-1.1,4.4-1.6,6.5c-0.7,2.3-1.4,4.7-2,6.8
	c9.7,2.4,18.9,4.7,28.6,7C683.5,240.7,684.4,237,685.4,233.1z M691.2,187.4c-10,0-19.3,0-28.5,0c-0.6,4-1.1,7.7-1.7,12
	c4.1,0,8.8-0.2,13.5,0c4.7,0.2,9.6-1.2,14,1.5C692.9,196.9,690.1,192,691.2,187.4z M648,254.7c4.9,2.4,9,4.7,13.4,6.4
	c4.7,1.7,9.6,2.7,14.5,4.1c1.5-3.9,2.9-7.7,4.4-11.6c-9.1-3.4-18.5-6.9-27.9-10.4C651,246.7,649.6,250.4,648,254.7z M663,182
	c8.9-5.6,18.5-2,27.7-3.6c0-4,0-7.6,0-12.2c-2.1-0.6-4.9-2.3-6.2-1.6c-4.5,2.8-9.1,1.5-13.7,1.8c-3.6,0.2-7.2,0.2-11.5,0.3
	C660.6,172.1,661.6,176.4,663,182z M658.9,218c4.3,3.9,10.3,0.1,14.3,2.3c5.4,2.9,10.3,1,15.4,1.8c0-4.5,0-8.2,0-12.3
	c-9.4-1.5-18.6-3-27.9-4.6C660.1,209.7,659.6,213.4,658.9,218z M699.4,201.1c9.5,0,18.9,0,28.1,0c0.6-4.1,1.1-7.8,1.6-12
	c-4.5,0-9.5,0.2-14.5-0.1c-5.1-0.3-10.1-1.2-15.2-1.8C699.4,192.2,699.4,196.5,699.4,201.1z"/>
<path d="M537.8,427.8c-0.5,3.9-5,1.2-7.3,3.9c-1,1.2-4.7-0.3-6.9,0.4c-1.7,0.5-3,2.6-4.5-0.1c-1.5,2.5-4,2.1-6.3,2.1
	c-2,0-4.8-0.8-6,0.2c-2.1,1.9-4.2,1.8-6.5,1.8c-0.7,0-1.3-0.1-2.3-0.2c-1-12.1-2-24.2-3.1-36.9c4.7,0,8.5,0.4,12.1-0.1
	c5.8-0.7,11.4-2,17.1-3c0.1,0,0-0.6,0-1c2.6,0,5.2,0.2,7.8-0.1c0.9-0.1,1.6-1.3,2.5-2c5.1,0.2,9.6-2.2,14.4-3.3
	c1.5-0.3,2.7-1.9,4.1-2.9c2-0.8,5.2,1.9,6.2-2.1c4.1,0.2,7.9-0.2,10.3-4.1c1.6-0.3,3.9,1,4.1-2.1c1.6-0.3,3.9,1,4.1-2.1
	c3.2-0.5,5,1.2,6.2,3.8c4.2,9.2,8.4,18.4,13,28.2c-12.4,5.4-24.5,10.6-36.7,15.9c-0.7-1.9-1.1-3.1-2-5.6c-0.5,2.7-0.9,4.4-1.2,6.1
	c-4.9,1.4-10.1,2.8-15.9,4.4C540.8,429.1,539.7,428.4,537.8,427.8c-0.2,0,0.4,0,1.1,0c-0.3-2-0.5-4-0.8-6.1c-0.5,0-0.9,0.1-1.4,0.1
	C536.8,423.8,536.9,425.8,537.8,427.8z M588,399c-0.2-1.3-0.2-2.6-0.8-3.8c-2.2-4.9-4.5-9.7-7.1-15.3c-4,1.7-8.3,3.5-12.6,5.4
	c0.8,1.3,1.4,2.4,2,3.4c2.9,4.7,4,10.5,8.2,14.4c0,3-0.6,6.7,2.9,7.8c4.9,1.6,8.5-1.5,12.1-5.4C591.2,403.3,589.6,401.2,588,399z
	 M538.7,411.3c0.8,2-1.9,5.2,2.1,6.2c0,2.6,0,5.3,0,8.4c3.1-0.9,5.5-2,7.9-2.1c2.9-0.1,5.1-0.7,5.9-2.7c-2.9-9.7-5.6-18.8-8.1-27.6
	c-2.2,0.5-4.2,1.2-6.3,1.3c-3.2,0.1-5,1.4-5.5,3.9c0.8,4.4,1.5,8.2,2.4,11.9C537,411,538.1,411.1,538.7,411.3z M534.3,427.3
	c0.9-2.7-2.8-4.7,0-6.9c-2.6-1.6-1.9-4.1-1.8-6.4c0.1-2.6-3.2-3.7-2.2-6.8c0.7-2.4,0.1-5.2,0.1-8c-4.4,0-8,0-12.6,0
	c-0.6,2-2.4,4.9-1.6,6.1c2,3.1,1.2,6.4,1.9,9.5c1.2,5.1,3,10.1,4.7,15.3C526.3,426.3,530.4,428.7,534.3,427.3z M563.3,387.1
	c-4.5,1.8-8.3,3.2-12.3,4.8c3.6,9.2,7.2,18.5,11,28.2c4.2-1.7,8-3.3,10.8-4.4C571.2,405,567.3,396.1,563.3,387.1z M497.8,403.6
	c3,4.5,1.8,9.4,1.6,13.9c-0.2,5.1,1.8,9.6,3,14.1c3.7,0,7.4,0,11.9,0c-1.1-10.4-2.1-20.5-3.2-31.2
	C506.3,401.6,501.9,402.6,497.8,403.6z M577.5,412.1c-0.3-0.3-0.5-0.5-0.7-0.7c-0.2,0.5-0.5,0.9-0.6,1.4c0,0.2,0.4,0.4,0.6,0.7
	C577,413,577.2,412.5,577.5,412.1z M556.9,414.1c-0.3-0.3-0.5-0.5-0.7-0.7c-0.2,0.5-0.5,0.9-0.6,1.4c0,0.2,0.4,0.4,0.6,0.7
	C556.4,415,556.6,414.6,556.9,414.1z"/>
<path d="M361.7,362c1.4,1.8,2.7,3.7,4.6,6.3c-5.9,8.7-12,17.7-18.5,27.3c-2.9-1.2-6.2-2-8.6-3.8c-14.8-10.9-36.5-30.5-49.1-45
	c-6.8-7.9-13-16.4-18.8-25c-4.2-6.3-7.3-13.3-10.9-20.2c5.4-3.1,10.3-6,15.3-8.9c5-2.9,9.9-5.8,14.6-8.5c1.9,1.9,3.8,3.8,5.7,5.7
	c0.3,1.6-1,3.9,2.1,4.1c-0.3,3.2,0.9,5.4,4.1,6.2c-0.3,3.2,0.9,5.4,4.1,6.2c-0.3,3.2,0.9,5.4,4.1,6.2c0.7,0.7,1.4,1.4,2.1,2.1
	c-0.3,3.2,0.9,5.4,4.1,6.2c0.7,0.7,1.4,1.4,2.1,2.1c0.7,2.1,1.4,4.1,2.1,6.2c-1.7,0-3.4,0-5.5,0c-2.8,3.3-5.8,6.8-8.9,10.3
	c-5.8,0.3-7.8,5-9.8,7.4c3.7,3.7,6.8,6.9,10.1,10.2c3.7-4.1,7.9-8.8,12.1-13.5c1.3-0.9,2.5-2,3.8-2.7c1.4-0.7,2.9-0.9,4.4-1.4
	c-6,7.4-11.9,14.8-17.9,22.2c2.7,2.7,5.6,5.6,8.7,8.7c6.6-7.8,15.9-13.3,19.7-23c-0.9-1.6-1.6-2.7-2.2-3.8c1.4,0,2.7,0,4.1,0
	c0.7,0.7,1.4,1.4,2.1,2.1c0.7,0.7,1.4,1.4,2.1,2.1c0.7,0.7,1.4,1.4,2.1,2.1c2.7,3.7,4.7,8.2,10.3,8.2c0.7,1.4,1.4,2.7,4.6,7.6
	c-0.6-1.7-4-3.7-7.5-5.1c-5.7,7.7-11.5,15.5-17.6,23.8c3.6,2.9,7.3,6,10.9,8.9c3-4.3,5.7-8.3,8.4-12.2c2.7-3.9,5.5-7.8,5.8-15.3
	C358.9,362,360.3,362,361.7,362z M334.9,357.8c-5,5-9.9,10-15.1,15.2c4.2,2.9,7.6,5.3,11.9,8.3c1.7-4.5,7.8-5.2,7.3-11.2
	c3.7-3.3,7.3-6.5,10.5-9.3c-3.1-3.4-5.6-6.1-8.3-9.1c-0.7,0-2,0-3.3,0C336.8,353.9,335.9,355.8,334.9,357.8z M304.1,333.1
	c1.5-0.5,3.2-0.6,4.4-1.4c2.6-1.8,4.9-4,7.3-5.9c-2.2-2.7-4.6-5.9-7.2-9.1c-3.1-0.3-5.7,0.6-6.6,4.1c-1,0-2.4-0.4-3,0.1
	c-5.3,4.3-10.5,8.7-15.5,13c2.9,3.4,5.6,6.5,8.5,10C295.5,339.5,301.9,338.9,304.1,333.1z M280,330.1c5.3-3.1,9.9-5.1,13.4-8.1
	c3.9-3.3,7.5-6.8,12.8-7.8c-2.6-4.1-4.9-7.9-7.5-12c-5.8,3.8-11.7,7.7-17.5,11.7c-7,4.7-6.9,4.8-1.9,12.1
	C279.8,326.7,279.6,327.8,280,330.1z M271.7,315.1c3.6-2.7,6.1-4.9,8.9-6.6c2.7-1.7,6-2.5,8.3-4.6c2.2-2.1,6.6-1.3,7.1-6.4
	c-2-2.9-4.3-6.4-6.4-9.5c-8.7,5.3-16.8,10.2-25.5,15.5C266.8,307.7,269.1,311.2,271.7,315.1z"/>
<path d="M295.8,289.9c-0.7-2.1-1.3-4.2-2.3-7.3c9.7-5.8,19.7-11.8,30.2-17c0.8,0.5,1.9,1.1,3,1.7c0.3,1.6-1,3.9,2.1,4.1
	c0.3,1.6-1,3.9,2.1,4.1c-0.3,3.2,0.9,5.4,4.1,6.2c-0.3,3.2,0.9,5.4,4.1,6.2c0.7,0.7,1.4,1.4,2.1,2.1c-0.3,3.2,0.9,5.4,4.1,6.2
	c0.7,0.7,1.4,1.4,2.1,2.1c0,1.4,0,2.7,0,4.1c-2.5-2-5-3.9-7.5-5.9c-7.3,5.8-14.6,11.7-22.3,17.8c2.9,4.2,5.3,7.6,7.9,11.3
	c3.2-4.9,9.9-5.1,11.6-10.8c4.1-1.9,8.3-3.7,10.3-7.8c0-1.9,0-3.2,0-4.6c2.1,2.1,4.1,4.1,6.2,6.2c-4.5-0.3-6.4,2.9-8.2,6.2
	c-5.9,3.9-10.2,9.3-15.3,14.7c3.4,3.2,6.3,5.9,9.5,9c5-5.6,9.5-10.5,14-15.5c2.1-1.6,4.1-3.2,6.1-4.7c-1.8-3.6-7-4.7-6.1-9.7
	c3.3,3,6.6,6.1,10.1,8.9c1.1,0.9,2.9,0.9,4.3,1.4c0.7,0.7,1.4,1.4,2.1,2.1c1.8,3.3,3.7,6.5,8.2,6.2c0.7,0.7,1.4,1.4,2.1,2.1
	c0.2,3.1,2.6,1.7,4.1,2.1c0.7,0.7,1.4,1.4,2.1,2.1c0.7,1.4,1.5,2.8,2.5,4.8c-2.2,1.8-4.4,3.6-6.6,5.5c0.7-2.4,1.3-4.9,2.1-7.4
	c-3.1-2.2-6.3-4.5-9.5-6.7c-1.7,2.5-5.9,3.7-4.9,8c-6.9,3.9-9.3,11-12.8,17.6c5.1,0.1,6.8,7.8,13.2,3.9c0.1-4.3,6.3-5.9,5.8-11.2
	c2.1-1.4,4.1-2.7,6.2-4.1c-1,6.6-5.4,11.3-9.2,16.3c-1.2,1.6-2.8,2.9-4.2,4.3c-2.4-0.7-4.8-1.4-7.2-2.1c-0.8-3.2-3-4.4-6.2-4.1
	c-2.7-3.7-4.7-8.2-10.3-8.2c-0.7-0.7-1.4-1.4-2.1-2.1c-0.7-0.7-1.4-1.4-2.1-2.1c-0.7-0.7-1.4-1.4-2.1-2.1c-1.4-1.4-2.7-2.7-4.1-4.1
	c-5.5-5.5-11-11-16.5-16.5c-0.7-0.7-1.4-1.4-2.1-2.1c0.3-3.2-0.9-5.4-4.1-6.2c-0.7-0.7-1.4-1.4-2.1-2.1c0.3-3.2-0.9-5.4-4.1-6.2
	c0-1.4,0-2.7,0-4.1c2.7,2.5,5.3,5.1,8.3,7.8c4.6-2,12.5-7.6,16.4-12c4.3,0.9,5.5-3.2,8-4.9c-2.6-3.2-5.1-6.4-7.8-9.6
	c-8.3,5.2-16.6,10.4-24.9,15.6c0,1,0,2,0,3c-1.4-0.7-2.7-1.4-4.1-2.1c0.3-3.2-0.9-5.4-4.1-6.2C297.6,292.5,298.9,290.1,295.8,289.9z
	 M353.4,331.1c-3.6,3.2-7.3,6.4-10.9,9.6c2.8,5.5,7.2,7.3,12.4,9.7c0.3-5.9,5.1-7.8,8-11.2c1.5-1.8,3.5-3.2,2.8-6
	c2.1-1.6,4.2-3.2,6.3-4.9c-6.6-6.7-6.6-6.7-11.5-7.5c-2.1,2.1-4.4,4.2-6.3,6.6C353.5,328.2,353.7,329.8,353.4,331.1z M323.3,268.6
	c-4.8,3-8.9,5.5-13,8c-4.2,2.5-8.5,5-12.6,7.4c2.7,4.7,4.8,8.5,7,12.4c7.6-7,18-8.7,24.5-16.1C327.1,276.2,325.4,272.8,323.3,268.6z
	"/>
<path d="M503.7,359.9c7.6,1.4,14.5-2.6,22-2.5c0.2,0,0.5-1.1,0.7-1.6c2-0.8,5.2,1.9,6.2-2.1c3,0.3,5.6-0.9,8.3-1.8
	c2.4-0.8,5.2-1.3,8-1.4c2.2-0.1,4.2-3.2,6.3-5c1.6-0.3,3.9,1,4.1-2.1c1.6-0.3,3.9,1,4.1-2.1c1.4,1.2,3.4,2.2,4,3.8
	c2.7,6.9,7.6,12.9,9,20.4c0.4,2.3,2.4,4.3,3.6,6.5c-0.8,1.5-1.5,2.9-2.3,4.2c-1.6,0.3-3.9-1-4.1,2.1c-1.6,0.3-3.9-1-4.1,2.1
	c-2.6,0-5.2,0-7.7,0c-2-5.2-3.7-9.8-5.7-14.4c-0.7-1.5-2-2.8-3.1-4.2c-0.3-1.6,1-3.9-2.9-4.1c-0.2,0,0.4,0,1-0.1
	c-0.3-1.3-0.5-2.7-0.8-4c-0.4,0.1-0.9,0.1-1.3,0.2c0.1,1.3,0.2,2.6,1.1,3.9c1.1,1.5-0.2,3.9,2.9,4.1c0.5,2.2,0.8,4.4,1.4,6.5
	c1.5,5.4,3.2,10.8,4.8,16.1c-2,0.8-5.2-1.9-6.2,2.1c-1.7,0-4-0.7-4.9,0.1c-2,1.8-4.2,2.7-6.3,1.8c-2.4-1.1-2.5-4.2-3.6-6.3
	c-2.4-4.6-1.6-10.4-6.7-14.1c-0.2,0,0.4-0.1,1.1-0.1c-0.3-2-0.5-4-0.8-6c-0.5,0-0.9,0.1-1.4,0.1c0.1,2,0.2,4,1.1,6
	c0,5.6,1.9,11.1,3.9,15.9c1.7,4,0,6-1,8.8c-2.6,0-5.2-0.2-7.8,0.1c-0.9,0.1-1.6,1.3-2.5,2c-3,0-6.2,0.5-7.7-2.5
	c-1.1-6.8-2.1-13.2-3.1-19.6c-2,5.5-2,6.1-0.3,12.1c1.2,4.2,2.3,8.5-2.2,11.9c-5.5,0-11.2,0-17.1,0c-1.1-11.3-2.1-22.5-3.2-34.4
	c3.8-0.1,7.1-0.1,10.3-0.5C502,361.8,502.8,360.6,503.7,359.9z M559.2,364c0.3,1.6-1,3.9,2.1,4.1c1,3.5,2,7,3.1,10.8
	c4.3-2.2,7.9-4,12.1-6.1c-4.1-9.3-8.1-18.4-12.2-27.8c-4,2-7.6,3.9-11.2,5.7C553.2,356.2,556,360.2,559.2,364z M533.2,358.2
	c3.6,9.8,6.9,19.1,10.2,27.9c4.4-1.8,8.1-3.3,11.8-4.8c-3.1-9.3-6.2-18.5-9.3-27.7C541.2,355.2,537.1,356.8,533.2,358.2z
	 M510.3,391.9c-1.1-9.4-2.1-18.6-3.2-28.2c-4.7,1.4-10.2-2.3-12.8,2.2c2.5,10.4-1.2,20.5,4.6,29.2
	C502.3,394.2,505.7,393.3,510.3,391.9z M532.6,388.2c-1.7-9-3.4-17.5-5-26.1c-0.9-0.8-1.9-1.6-2.7-2.3c-2.1,0.8-3.9,1.7-5.7,2.2
	c-1.7,0.5-3.5,0.5-5.6,0.8c4.3,9.5,2.8,19.7,7.7,28.8C525.3,390.3,528.9,389.3,532.6,388.2z M511.6,366.8c-0.3-0.3-0.5-0.5-0.7-0.7
	c-0.2,0.5-0.5,0.9-0.6,1.4c0,0.2,0.4,0.4,0.6,0.7C511.1,367.7,511.4,367.2,511.6,366.8z"/>
<path d="M258.8,223.3c-8.1-0.8-15.7,3.5-24.7,2.7c0-3.6,0.3-7.2-0.1-10.8c-0.3-3-1.5-6-2.3-9c11.7-1.2,22.5-2.2,33.3-3.3
	c-5.3-1.8-10.7-1.3-16-1.4c-5.4-0.1-10.8,0-16.6,0c0-6,0-11.8,0-18.4c5.3-0.2,11-0.1,16.6-0.1c5.8,0,11.5,0,17.5,0
	c1.4,5.6-1.1,11.6,2.5,16.6c-2.7,4.6,1.5,9.1,0.1,13.7c-0.2,0.6,1.3,1.7,1.9,2.6c-0.4,2.6-0.8,5.1-1.3,8.2c0.9,1.1,2.1,2.6,3.4,4.1
	c0,2.6-0.2,5.2,0.1,7.8c0.1,0.9,1.3,1.6,2,2.5c-2,3.4-1.4,6.2,2.1,8.2c-0.2,4.6,0.8,8.9,4.1,12.3c-3.3,4.4-8.7,4.9-13.3,5.9
	c-6.9,1.5-13.4,4.1-20.8,6.7c-2.2-6-4.4-12.1-6.7-18.3c7.7-2.6,15.2-6.5,23.6-7.1c0.3,0,0.5-1.1,0.7-2.5c0-0.2,0,0.4,0,1.1
	c2-0.3,4-0.5,6.1-0.8c0-0.5-0.1-0.9-0.1-1.4c-2,0.1-4,0.2-6,1.1c-6.4-0.2-12.1,2.7-18.2,3.7c-2.5,0.4-5,1.1-7.7,1.8
	c-1.1-6.2-2.2-11.9-3.3-18.2c6.5-2.3,12.5-5.1,19.4-5C256.6,226.1,258.8,226.9,258.8,223.3c0-0.5,0-0.1,0,0.2c2.7,0,5.4,0,8.1,0
	c0-0.3,0-0.6,0-0.9C264.2,222.6,261.5,222.6,258.8,223.3z M268.2,225.8c-9.2,4.2-19.3,2.7-28.7,7.8c1.1,3.6,2.2,7.5,3.4,11.4
	c8.8-1.9,16.6-4.5,24.8-4.7c1.2,0,2.4-2.1,3.1-2.7C270,233.6,269.2,230.1,268.2,225.8z M272.5,246c-4.7,1.3-7.2,2.6-9.8,4.6
	c-2.2,1.7-6.2-0.7-9.3,2.1c-2.2,1.9-5.8,2.1-8.6,3c1.5,3.9,3.1,7.9,4.6,11.8c9.8-3.4,19.5-4.8,28.3-9.8
	C275.9,253.7,274.3,250,272.5,246z M266.8,205.4c-5.4,0.8-10.5,2.2-15.6,2c-5.5-0.2-10.1,1.9-15.7,3.3c0.9,2.2,1.7,3.9,2.2,5.7
	c0.5,1.8,0.7,3.8,1.1,5.9c9.6-1,18.8-2,28-3.1C266.8,214.8,266.8,210.5,266.8,205.4z M264.7,185.3c-9.6,0-18.9,0-27.8,0
	c-6.3,5.4-1.2,9.6,0.1,13.6c9.6,0,18.7,0,27.7,0C264.7,194.2,264.7,189.9,264.7,185.3z"/>
<path d="M452.2,396.9c0.9,0.7,1.7,1.9,2.7,2c4.4,0.2,8.8,0.1,14.1,0.1c-1.4,6.9,0.8,13.3-2,20c-1.9,4.7-0.4,10.8-0.4,17.1
	c-31.5-4-62.3-9.2-90.6-24.1c4.5-10.6,8.9-21.1,13.3-31.6c1.8,0,3.6,0,5.3,0c2.4,3.9,6.2,4.3,10.3,4.1c5.2,4.9,11.6,6.3,18.5,6.2
	c0.8,0.7,1.5,1.8,2.4,2c1.9,0.3,3.9,0.1,5.8,0.1c0.8,0.7,1.5,1.8,2.4,2c1.9,0.3,3.9,0.1,5.8,0.1c0.8,0.7,1.6,1.9,2.5,2
	C445.6,397.1,448.9,396.9,452.2,396.9z M391.4,384.1c-4,9.1-7.7,17.6-11.5,26.1c3.9,2,7.5,3.8,11.6,5.9c4.2-9.7,9.4-18.5,11.5-28.6
	C398.9,386.2,395.6,385.3,391.4,384.1z M405.9,390.5c-3.5,9.5-6.5,17.7-9.5,26c4.5,3.7,9.1,5.3,13.6,5c3.1-10,5.9-19,8.7-28
	c-1.8-0.6-3.8-1.5-6-2C410.5,390.9,408.2,390.8,405.9,390.5z M465.6,403.4c-3.5-2.1-8-3.5-13.3-1.7c0,4.1,1.3,8.9-0.3,12.1
	c-2.9,6-0.9,11.8-1.9,17.6c4.6,0,8.6,0,13,0C463.9,421.9,464.7,412.9,465.6,403.4z M445.8,430.5c0.7-6.1-0.1-10.5,2.1-15.1
	c1.8-3.8,1.1-8.8,1.6-13.7c-2.9-1.4-6.4-4.2-11.8-2c-4.3,8.3-3.5,18.2-6.2,27.5C436.5,428.4,440.8,429.4,445.8,430.5z M413.5,423.3
	c4.6,1,8.9,1.9,12.8,2.7c4.1-9.6,5.5-19,7.6-28.2c-4.1-1-7.8-2-12.1-3.1C419.1,404,416.4,413.4,413.5,423.3z"/>
<path d="M419.3,349.6c3.5,3.3,7.7,4.3,12.3,4.1c1,4,4.1,1.3,6.2,2.1c0.2,0.6,0.4,1.6,0.7,1.6c7.3,0.9,14.6,1.7,21.9,2.5
	c0.5,0.7,1,1.9,1.6,2c3.3,0.2,6.7,0.1,11,0.1c-1,11.7-1.9,23.1-2.9,35c-5.9,0-11.9,0-17.9,0c-1-1.4-2-2.7-3.1-4.2
	c-2.8,3.5-6.3,1.7-9.3,2.2c-0.8-0.7-1.5-1.8-2.4-2c-1.9-0.3-3.9-0.1-5.8-0.1c-0.8-0.7-1.5-1.8-2.4-2c-1.9-0.3-3.9-0.1-5.8-0.1
	c-4.4-2.8-13.5-5.8-18.5-6.2c-2.4-3.9-6.2-4.3-10.3-4.1c-1.1-0.9-2.1-1.8-3.9-3.2c3.9-8.6,8.2-17.8,12-27.1c1.3-3.1,2.7-5.1,6.3-4.7
	c1,4,4.1,1.3,6.2,2.1C415.4,350.6,417.7,349.3,419.3,349.6z M448.1,378.4c4.3-2.1,0.6-7.4,4-10.1c1-0.8,0.1-3.8,0.1-5.7
	c-4.4-0.6-8.3-1.2-12.2-1.8c-2.2,4-2.2,4-2.2,13.5c-0.7,0.9-1.8,1.7-2,2.6c-0.7,3.4-1.1,6.9-1.7,11.3c2.2,4.3,7,2.1,10.8,2.5
	C450.1,387.4,447.4,382.5,448.1,378.4z M395,375.5c3.8,1.9,7.1,3.5,10.6,5.3c7.8-7.2,7.1-18.6,13.8-26.2c-4.8-1.1-8.2-6.4-13.8-4.8
	C402,358.6,398.5,367,395,375.5z M422.3,355.2c-3.1,10.2-5.9,19.5-8.9,29.3c5-1.1,9,4.6,14.2,1.2c0-1.4-0.4-2.9,0.1-4.1
	c2.5-7.1,5.2-14,8.2-21.9C431.2,358.2,426.8,356.7,422.3,355.2z M466,395.2c1.4-11.1,4.2-20.8,2.1-30.7c-4,0-7.8,0-11.4,0
	c-0.9,5-2,9.4-2.4,13.8c-0.4,4.6-0.1,9.4-0.1,13.9C458.5,393.3,462.1,394.2,466,395.2z M431.3,384.9c-0.6,0.1-1.2,0.1-1.8,0.2
	c0.3,1.1,0.5,2.2,0.8,3.3c0.3-0.1,0.7-0.1,1-0.2C431.3,387.2,431.3,386.1,431.3,384.9z M410.8,381.2c-0.3-0.3-0.5-0.5-0.7-0.7
	c-0.2,0.5-0.5,0.9-0.6,1.4c0,0.2,0.4,0.4,0.6,0.7C410.3,382.1,410.5,381.6,410.8,381.2z"/>
<path d="M392.5,329c0,1.2,0,2.4,0,4.1c-2.4,0-4.3,0-6.2,0c-0.7-0.7-1.4-1.4-2.1-2.1c-0.2-3.1-2.6-1.7-4.1-2.1
	c-0.7-0.7-1.4-1.4-2.1-2.1c-1.8-3.3-3.7-6.5-8.2-6.2c-0.7-0.7-1.4-1.4-2.1-2.1c-6.9-6.9-13.7-13.7-20.6-20.6
	c-0.7-0.7-1.4-1.4-2.1-2.1c0.3-3.2-0.9-5.4-4.1-6.2c-0.7-0.7-1.4-1.4-2.1-2.1c0.3-3.2-0.9-5.4-4.1-6.2c0.3-3.2-0.9-5.4-4.1-6.2
	c-0.3-1.6,1-3.9-2.1-4.1c-0.3-1.6,1-3.9-2.1-4.1c-0.4-3.7,1.8-4.8,4.8-6.3c8.2-4.3,16-9.4,24.1-14.3c1.2,0.6,2.6,1.4,4,2.1
	c-0.2,3.8,2.3,6.4,4.1,9.3c0.6,1,0.7,2.7,1.5,3.3c4.6,3.2,5,10,10.9,12c0.7,0.7,1.4,1.4,2.1,2.1c0.5,1.5,0.5,3.3,1.4,4.4
	c4.9,5.6,10.6,10.4,17.1,14.1c0.8,3.2,3,4.4,6.2,4.1c1.4,2.1,2.7,4.1,4.1,6.2c-2.2,0.3-3.7-0.5-5.3-2c-1.5-1.4-3.8-1.9-6.2-2.9
	c-3.2,4.3-5.9,8-8.6,11.6c-2.8,3.8-5.6,7.5-8.4,11.2c4,2.9,7.7,5.7,11,8.2C390.8,329.8,391.7,329.4,392.5,329z M361,306.8
	c5.6-8.9,14.9-12.8,20.9-19.7c-2.6-3.3-5.1-6.3-7.6-9.5c-9.3,4.3-15.6,12.6-23,19.5C354.6,300.4,357.5,303.3,361,306.8z
	 M385.1,290.2c-7,7-13.6,13.6-20.3,20.3c3.1,2.3,5.3,6.8,10.2,8.7c6.6-7.6,12.9-14.9,19.4-22.4C391.3,294.6,387.8,292.1,385.1,290.2
	z M364.4,264.3c-7.8,5.3-15,10-21.9,15.1c-1.2,0.9-1.3,3.4-1.7,4.7c2.8,3,5.1,5.4,7.1,7.6c8-5.7,15.9-11.4,23.7-16.9
	C369.5,271.6,367.3,268.5,364.4,264.3z M337.3,277c8.3-5,16.5-9.9,24.9-14.9c-2-4-3.9-7.7-6.1-12c-8,6.6-18.6,8.7-25.7,16.7
	C333,270.6,335.3,274,337.3,277z"/>
<path d="M583.9,329c-1.7,0-3.4,0-5.6,0c-6-7.5-12.3-15.1-18.2-23c-1-1.4-0.6-3.8-0.8-5.8c0.7-0.7,1.4-1.4,2.1-2.1
	c0.7-0.7,1.4-1.4,2.1-2.1c1.6-0.3,3.9,1,4.1-2.1c0.7-0.7,1.4-1.4,2.1-2.1c1,0,2.5,0.4,3-0.1c7.4-6.8,14.2-14.1,19.6-22.6
	c0.3-0.5,0-1.3,0-2c0.7-0.7,1.4-1.4,2.1-2.1c3.2-0.8,4.4-3,4.1-6.2c3.2-0.8,4.4-3,4.1-6.2c5.1-0.1,7.8,4.2,11.7,6.3
	c6.8,3.6,13.1,8.3,18.8,12c-0.7,2.8-1.2,4.6-1.7,6.4c-3.1,0.2-1.7,2.6-2.1,4.1c-0.7,0.7-1.4,1.4-2.1,2.1c-3.3-0.5-1.2,5.7-5.2,4.2
	c0,4.2-6.1,5.5-5,10.2c-0.7,0.7-1.4,1.4-2.1,2.1c-2.1,0.7-4.1,1.4-6.2,2.1c0-0.7,0-1.4,0.4-1.8c3.5-3.6,6.6-7.6,9.8-11.6
	c-7.7-6-15.3-12-23.6-18.4c-1.9,4.3-6.5,5.5-7.6,10.3c3.4,3.3,6.5,7,10.4,9.6c4.1,2.8,8,5.5,11,10c-1,0-1.5,0.2-2.1,0.4
	c0.6,0.5,1.1,0.9,1.7,1.4c-0.2,1.3,0,2.9-0.7,3.7c-3.2,3.5-6.5,6.8-10,10c-0.8,0.7-2.4,0.5-3.7,0.7c-0.7-0.7-1.4-1.4-2.1-2.1
	c0-0.7,0-1.4,0-2.1c1.7,0,3.4,0,3.3,0c3.5-3.5,6.1-6.1,8-8c-6.2-6.2-12.9-12.9-19.6-19.6c-2.2,2.2-5.1,5.1-8.4,8.4
	c2.7,2.5,6.5,4.5,7.8,7.6c1.5,3.7,4.8,3.5,6.9,5.5c0.7,2.1,1.4,4.1,2.1,6.2c-0.6,0.2-1.1,0.5-1.7,0.7c0.6,0.5,1.1,0.9,1.7,1.4
	c0.7,0.7,1.4,1.4,2.1,2.1c0,1.4,0,2.7,0,4.1c-0.7,0.7-1.4,1.4-2.1,2.1c-1.6,0.3-3.9-1-4.1,2.1c-0.7,0.7-1.4,1.4-2.1,2.1
	C585.3,327.7,584.6,328.3,583.9,329z M575.7,318.7c-0.9,4.3,3.2,5.5,5,8c3.2-2.6,6.3-5.3,9.9-8.3c-5.9-7.7-11.9-15.3-18.1-23.3
	c-4.3,3-7.7,5.5-11.1,8c4.4,4.9,8.4,9.2,12.3,13.5C574.3,317.4,575,318.1,575.7,318.7z M597.3,267.9c4.9,3.1,8.7,6.1,13,8.1
	c4.4,2,7.3,6.4,12.4,7.3c2.4-3.6,4.6-7.1,7.2-11c-8.6-5.3-16.6-10.2-25-15.4C602.4,260.5,600.2,263.6,597.3,267.9z"/>
<path d="M666.2,341.4c1.8,2.3,3.7,4.7,5.9,7.5c-3.7,3.7-7.6,7.8-11.7,11.6c-1.1,1-3,1-4.5,1.5c-0.7-0.7-1.4-1.4-2.1-2.1
	s-1.4-1.4-2.1-2.1s-1.4-1.4-2.1-2.1c-0.7-0.7-1.4-1.4-2.1-2.1c-0.7-0.7-1.4-1.4-2.1-2.1c-0.7-0.7-1.4-1.4-2.1-2.1
	c-0.7-0.7-1.4-1.4-2.2-2c0,0,0.2-0.2,0.3-0.3c-0.5-0.6-1-1.1-1.4-1.7c-0.2,0.2-0.4,0.4-0.6,0.6c0.6,0.5,1.1,1,1.8,1.3
	c0.8,0.6,1.5,1.3,2.2,2c0.7,0.7,1.4,1.4,2.1,2.1c0.7,0.7,1.4,1.4,2.1,2.1c0.7,0.7,1.4,1.4,2.1,2.1c0.7,0.7,1.4,1.4,2.1,2.1
	s1.4,1.4,2.1,2.1s1.4,1.4,2.1,2.1c-0.5,1.5-0.6,3.4-1.5,4.5c-3.2,3.5-6.7,6.8-9.6,9.8c-1.9,0-3.2,0-5.3,0c0-1.4,0-2.7,0-4
	c1.1,0.6,2.2,1.3,1.6,0.9c3.7-3.4,7.1-6.5,11-10.1c-2-1.6-4.2-3.4-6.4-5.3c-1.4-1.4-2.7-2.7-4.1-4.1c-2.5-3.6-4.9-7.2-7.2-10.5
	c-3.1,0.9-5.2,1.6-7.2,2.2c4.1-4.4,8.1-9,12.3-13.2c1.6-1.6,2.4-3.1,2.1-5.3c0.7-0.7,1.4-1.4,2.1-2.1c0.7-0.7,1.4-1.4,2.1-2.1
	c3.3-1.8,6.5-3.7,6.2-8.2c3.3-1.8,6.5-3.7,6.2-8.2c3.2-0.8,4.4-3,4.1-6.2c3.1-0.2,1.7-2.6,2.1-4.1c0.7-0.7,1.4-1.4,2.1-2.1
	c5.2,0.1,8.9,3.4,12.9,5.9c6,3.7,11.7,7.8,18.3,12.3c-2.7,4.5-5.6,9.4-8.9,14.8c-2,0-3.9,0-5.9,0c-0.8-3.2-3-4.4-6.2-4.1
	c-0.7-0.7-1.4-1.4-2.1-2.1c-0.2-3.1-2.6-1.7-4.1-2.1c-0.7-0.7-1.4-1.4-2.2-2c0,0,0.2-0.2,0.3-0.3c-0.5-0.6-1-1.1-1.4-1.7
	c-0.2,0.2-0.4,0.4-0.6,0.6c0.6,0.5,1.1,1,1.8,1.3c0.8,0.6,1.5,1.3,2.2,2c0,0.7,0,1.4,0,2.1c-1.5-0.5-3.3-0.6-4.5-1.5
	c-2.5-2-4.6-4.5-7.2-7c-3.2,4.3-6,8.1-8.5,11.6c5,3.7,9.8,7.1,14.3,10.8c2.3,1.9,3.9,4.5,5.8,6.7C669,341.4,667.6,341.4,666.2,341.4
	c-0.7-0.7-1.4-1.4-2.1-2.1c-0.8-3.2-3-4.4-6.2-4.1c-0.7-0.7-1.4-1.4-2.1-2.1c-0.7-0.7-1.4-1.4-2.2-2c0,0,0.2-0.2,0.3-0.3
	c-0.5-0.6-1-1.1-1.4-1.7c-0.2,0.2-0.4,0.4-0.6,0.6c0.6,0.5,1.1,1,1.8,1.3c0.8,0.6,1.5,1.3,2.2,2c0.7,0.7,1.4,1.4,2.1,2.1
	c0,0.7,0,1.4,0,2.1c-1.5-0.5-3.3-0.6-4.5-1.5c-2.5-2-4.6-4.5-6.8-6.7c-3.4,3.4-6.3,6.3-8.2,8.2c6.7,6.7,13.4,13.4,19.6,19.6
	c2.7-2.7,5.9-5.9,9-9c-1.9-2.3-4.5-5.4-7.1-8.5c1.4,0,2.7,0,4.1,0C664.9,340,665.5,340.7,666.2,341.4z M676.5,316.7
	c0.2,3.1,2.6,1.7,4.1,2.1c1.7,2.1,3.4,4.1,5.4,6.4c2.8-4.1,5-7.3,7.5-11c-6.5-7.6-16.2-10.5-24.2-17c-2.9,4.3-5.4,8-7.6,11.3
	c4.4,3.1,8,5.7,11.8,8.2C674.2,317.1,675.5,316.7,676.5,316.7z"/>
<path d="M542.8,215.9c-1.1,0.9-2.2,1.8-3.8,3.2c0,0.9,0,2.5,0,4.6c-37.1,0-73.8,0-111.5,0c-0.5-1.4-1.7-3.5-1.8-5.6
	c-0.2-3-0.1-5.9-2.2-8.4c4.3-0.4,0.2-5.1,2.4-5.9c38.1,0,75.3,0,111.8,0c1.3,1.6,2.2,2.7,3.1,3.8c-0.8,2.4-1.7,4.9-2.9,8.2
	C540.3,215.9,541.6,215.9,542.8,215.9z M510,222.5c8.4-0.6,16-5.8,23.2-0.2c1.3-1.3,2.3-2.3,3.2-3.2c0-4.4,0-8.7,0-13.3
	c-8.9,0-17.5,0-26.4,0C510,211.2,510,216.3,510,222.5z M480.9,205.9c-8.7,0-16.4,0-24.6,0c0.2,5.6-0.2,10.9,0.4,16.9
	c3.2-3.5,5.7-3.9,8.4-1.2c2.4-3,5.5,0.8,7.8-0.8c2.9-1.9,5.2-0.3,7.9,0.9C480.9,216.3,480.9,211.3,480.9,205.9z M452,205.9
	c-8.7,0-16.4,0-24.3,0c0,4.7,0,9,0,13.2c1.1,1,2,1.9,3,2.8c1.7-2.7,4.8,0.3,7-1.8c0.5-0.5,3.7,1.1,6.3,0c2.2-0.9,5.3,0.6,8,1
	C452,216.3,452,211.2,452,205.9z M507.6,205.9c-8.6,0-16.4,0-24.8,0c1.4,5.6-2.5,11.7,3.5,16.1c1.8-2.4,3.4-2.5,5.9-0.5
	c1,0.8,4-1.4,6-1.3c2.1,0.1,4.2,1.2,6.4,2c0.9-0.9,1.9-1.8,3-2.9C507.6,215,507.6,210.6,507.6,205.9z"/>
<path d="M489.7,359.8c-1.1-8.4,0.6-16.5-2.3-24.3c-1.1-3-0.2-6.7-0.2-10.1c2.3-0.4,4.2-0.6,7.2-1.1c-3.6-1.4-6.2-2.3-9.2-3.5
	c0-3,0.2-5.7,0-8.3c-0.7-8.6-1.5-17.2-2.3-26.2c7.1,0,13.7,0,20.4,0c1,11.3,2,22.5,3,34.5c-3.9,0-7.1,0-10.3,0
	c2.7,3,5.9,1.7,9.4,2.3c4.1,10.7,2.5,22.4,5.2,33.2C503.8,360.3,497.1,360.2,489.7,359.8z M487.5,290.6c-1.3,9.8,0.7,18.8,2.5,27.6
	c3.9,0,7.8,0,11.1,0c2-10.6-0.6-20.2-2.2-30C495.2,289,491.6,289.8,487.5,290.6z M506.4,355.2c-1.1-9.6-2.1-18.7-3.1-27.7
	c-4.2,0-8.1,0-11.9,0c0,5.6-0.3,10.7,0.1,15.8c0.4,4.8,1.6,9.5,2.4,13.6C497.6,356.3,501.3,355.8,506.4,355.2z"/>
<path d="M453.9,356.7c0.8-5.6,1.7-11.1,2.4-16.6c0.7-5.5,1.3-11,1.9-17.2c3.6,0,6.8,0,10,0c0-0.6,0.1-1.1,0.1-1.7
	c-3-0.2-6-0.4-9.8-0.6c0.2-5.9-1.5-11.9,1.5-18.1c1.5-3.1,0-7.4,0.3-11.1c0.2-1.8,1.3-3.5,2-5.3c6.2,0,12,0,18.6,0
	c-0.9,11.3-1.8,22.5-2.9,34.8c-1.9,0.8-4.7,2-8.2,3.5c2.6,0.4,4.5,0.7,6.9,1c-1.1,5.9,0.6,11.6-1.9,17.7c-1.9,4.7-0.4,10.7-0.4,16.4
	C467.8,360.7,461.3,359.9,453.9,356.7z M460.5,326c1.7,9.5-4.5,19.4-1.5,29.3c4.2,0.6,7.9,1.1,11.5,1.7c1.1-9.8,2.3-19.7,3.4-29.6
	C469.8,326.9,465.4,326.5,460.5,326z M477.5,290.7c-5.4-1.1-9-1.9-12.3-2.6c-1.8,10.5-4,20.5-2.2,30.2c4.3,0,8,0,11.8,0
	C475.7,308.9,476.6,299.8,477.5,290.7z"/>
<path d="M684.2,251.3c13,5.1,23.9,9.3,35.5,13.8c-2.2,5.6-4.3,10.6-6.3,15.8c-6.4,4-10.7-2.7-16.3-3.6c-5.5-0.8-10.5-4-15.8-6.2
	C677.6,264.1,686.3,259.8,684.2,251.3z M707.2,265.5c0.1-0.1,0.3-0.3,0.4-0.4c-0.5-0.6-1-1.1-1.4-1.7c-0.2,0.2-0.4,0.4-0.6,0.6
	c0.6,0.5,1.1,1,2.1,1C707.4,265.2,707.3,265.3,707.2,265.5c0.4,0.5,0.9,1.1,1.4,1.7c0.2-0.2,0.4-0.4,0.6-0.6
	C708.7,266,708.1,265.5,707.2,265.5z M699,273.7c0.1-0.1,0.3-0.3,0.4-0.4c-0.5-0.6-1-1.1-1.4-1.7c-0.2,0.2-0.4,0.4-0.6,0.6
	c0.6,0.5,1.1,1,6.2,0.2c-0.4-0.3-0.9-0.6-1.3-0.9c-0.7,0.7-1.4,1.3-2.1,2c-1.2,1.2-0.2,2.6,1.4,1.9C702.4,275,702.9,273.5,699,273.7
	z M711,273.5c-0.3,0-0.7,0-1,0c0,2.1,0,4.1,0,6.2c0.3,0,0.7,0,1,0C711,277.6,711,275.5,711,273.5z M692.7,271.1
	c-0.1-0.6-0.1-1.2-0.2-1.8c-1.1,0.3-2.2,0.5-3.3,0.8c0.1,0.3,0.1,0.7,0.2,1C690.4,271.1,691.5,271.1,692.7,271.1z M693.3,259.8
	c0.2,0.4,0.5,0.9,0.7,1.3c0.2-0.2,0.7-0.5,0.6-0.7c-0.1-0.5-0.4-0.9-0.6-1.4C693.8,259.3,693.6,259.5,693.3,259.8z M697.4,266
	c0.2,0.4,0.5,0.9,0.7,1.3c0.2-0.2,0.7-0.5,0.6-0.7c-0.1-0.5-0.4-0.9-0.6-1.4C697.9,265.5,697.7,265.7,697.4,266z M688.6,258.3
	c-0.2-0.4-0.5-0.9-0.7-1.3c-0.2,0.2-0.7,0.5-0.6,0.7c0.1,0.5,0.4,0.9,0.6,1.4C688.1,258.8,688.3,258.6,688.6,258.3z M713.9,268
	c0.2,0.4,0.5,0.9,0.7,1.3c0.2-0.2,0.7-0.5,0.6-0.7c-0.1-0.5-0.4-0.9-0.6-1.4C714.4,267.5,714.1,267.8,713.9,268z M684.5,268.6
	c-0.2-0.4-0.5-0.9-0.7-1.3c-0.2,0.2-0.7,0.5-0.6,0.7c0.1,0.5,0.4,0.9,0.6,1.4C684,269.1,684.2,268.9,684.5,268.6z"/>
<path d="M639.5,372.2c-2.7-2.1-5.5-4.1-8.2-6.2c-0.7-0.7-1.4-1.4-2.1-2.1c-0.7-0.7-1.4-1.4-2.1-2.1c-0.7-0.7-1.4-1.4-2.1-2.1
	c-0.2-0.6-0.5-1.1-0.7-1.7c-0.5,0.6-0.9,1.1-1.4,1.7c-1.8-1.3-3.6-2.6-5.6-4.1c-3.1,2.4-6.3,5-10,7.9c3.6,4,6.5,7.3,9.4,10.6
	c1.8,5.1,5.2,8.9,9.6,12.4c3.1-2.5,6.4-5.1,10.4-8.2c-3.1-2.6-5.3-4.4-7.6-6.2c0.7-2.7-1-4.2-2.7-5.8c-1.8-1.8-4.3-3.3-3.5-6.5
	c0.7,0,1.4,0,2.1,0c0.7,0.7,1.4,1.4,2.1,2.1c0.7,0.7,1.4,1.4,2.1,2.1c0.7,0.7,1.4,1.4,2.1,2.1c0.5,1.5,0.6,3.2,1.5,4.5
	c2,2.9,4.4,5.6,7.1,9.1c-4.9,3.9-9.6,7.7-14.9,11.9c-7-9.2-13.7-18.2-20.7-27.5c2.1-2.7,4.3-5.5,6.5-8.3c1.3-0.2,2.9,0,3.7-0.8
	c3-3,5.8-6.3,8.7-9.5c1.4,0,2.7,0,4.1,0c-1.4,2.1-2.9,4.1-4.6,6.7c5,5,9.9,10.1,15,14.8C639.1,368.6,639.8,370.1,639.5,372.2z"/>
<path d="M266.4,181.3c-11.5-1-22.4-2-34.2-3.1c0.4-6.2-2-13.1,1.9-19.8c5.4,3.2,10.7,1.6,15.9,1.8c5.4,0.3,10.8,0.1,16.1,0.1
	C269.6,165.1,269.6,165.1,266.4,181.3z M268.5,164.4c-7.3,0-12.3,0.1-17.4,0c-5-0.1-9.7-4.3-14.6-1.1c0,4.6,0,8.9,0,13
	c9.7,0,19.1,0,27.7,0C266.1,172.4,263,168.2,268.5,164.4z"/>
<path d="M694.8,178.9c1.6-6.1-2.4-12.9,3.3-18.9c9.5,0,19.3,0,29.1-0.1c0.5,0,1-0.9,1.8-1.7c5.8,6,1.6,13.3,3.4,20.8
	C719.6,176.7,707.5,184.8,694.8,178.9z M699.4,177.9c9.7-2.4,19.1-0.2,28.1-1.5c0-4.9,0-9.5,0-14.5c-10.3,1.1-20.1,2.1-29.9,3.1
	C700.6,169,698.3,173.8,699.4,177.9z"/>
<path d="M691.9,230c11.1,2.8,22.2,5.6,33.6,8.5c0.5,3.4,0.8,6.2-1.3,9.5c-1.5,2.4,0.6,6.8-4,9.3c-10.8-2-22.3-4.7-32.6-8.7
	C689,242.2,690.4,236.3,691.9,230z M722.3,241.4c-10.7-2.6-19.6-5.7-28.5-7.1c-1,4.5-1.8,8.1-2.8,12.3c9.5,2,18.4,5.7,28.5,6.4
	C720.5,248.8,721.4,245.1,722.3,241.4z"/>
<path d="M559.2,150.1c0-6,0-10.8,0-16.1c2.5-0.6,6.1-2.7,7.5-1.7c3.1,2.3,4.5-1.2,6.9-1.2c2.5,0,4.8,5.2,7.1,0.3
	c1.2,1.2,2.2,2.2,3.3,3.3c-1.3,5.5,2.2,12-3,17.4C574,151.1,566.6,153.9,559.2,150.1z M563.6,149.2c2.2-0.2,4.3-1.2,5.4-0.5
	c2.6,1.6,4.6,1.8,7.2-0.1c1.2-0.8,3.2-0.5,4.7-0.9c0.3-0.1,0.4-0.9,0.6-1.5c-2-0.3-3.9-0.6-5.5-0.9c0-2.7,0-5,0-7.2
	c2-0.5,3.7-1,5.4-1.5c-6.9-0.9-13.5-1.5-20.5-0.9c0.5,2.5,0.8,4,1.3,6.7c1-2.4,1.5-3.6,2.5-6.1c0.6,3.5,0.9,5.4,1.3,7.7
	c1.6-2.6,3-4.6,4.3-6.8c1.3,1.3,2.3,2.3,3,3c0,1.9,0,3.5,0,5.8c-4.2,0-8.1,0-12.8,0C562.2,147.9,563.2,148.8,563.6,149.2z
	 M581.6,140.4c-0.3-0.3-0.5-0.5-0.7-0.7c-0.2,0.5-0.5,0.9-0.6,1.4c0,0.2,0.4,0.4,0.6,0.7C581.1,141.3,581.3,140.9,581.6,140.4z"/>
<path d="M694.9,207c6.8,1,12.3,1.8,17.8,2.6c5.5,0.8,10.9,1.7,17.4,2.6c0,3.1,0.3,6.8-0.1,10.3c-0.4,3.1-1.6,6.1-2.6,9.3
	c-11.3-1.8-22.5-3.6-33.3-5.3C690.6,219.6,696.2,214.3,694.9,207z M697.1,223.8c5,0.8,9.4,1.6,13.9,2.3c4.8,0.7,9.5,1.2,14.3,1.9
	c0.6-4,1.1-7.8,1.8-12.3c-3-5.1-9.4-0.6-14.3-3c-4.3-2.1-10.4-0.4-15.7-0.4C697.1,216.1,697.1,219.5,697.1,223.8z"/>
<path d="M526.3,355.8c-2.4,0-4.8,0-7.5,0c-3.1-11.2-6.3-22.5-9.4-33.8c6.2-1.8,12-3.4,18.3-5.2c4.6,10.6,6.8,22.2,9.3,33.4
	c-1.8,1.4-3.1,2.5-4.5,3.5C530.5,354.5,527.3,351.8,526.3,355.8z M534.2,349.2c-2.8-9.7-5.6-19.2-8.4-28.9c-2.6,1.1-4.3,2.1-6.1,2.5
	c-1.8,0.4-3.8,0.3-6.2,0.4c2.6,10,5,19.2,7.5,28.9C525.5,351.1,529.8,350.2,534.2,349.2z"/>
<path d="M431.6,353.7c-1.2-2.9-2.8-4.9-0.8-8.9c2.8-5.6,3.4-12.2,5-18.4c0.6-2.4,1.6-4.8,2.3-7.1c8.7-0.6,12.8,0.4,18.3,4.6
	c-2.7,10.4-5.4,20.8-8.2,31.8c-3.7,0-7.1,0-10.4,0C436.9,351.8,433.7,354.5,431.6,353.7z M445.5,353.8c1.4-5.6,2.7-10,3.6-14.5
	c1-4.6,4.6-8.7,2.3-14.9c-3.3-0.9-7.1-2-11-3.1c-2.3,8.7-4.6,17.7-6.5,24.9C435.1,355,442.6,349.2,445.5,353.8z"/>
<path d="M376.1,273.5c0.2-1.3,0-3,0.8-3.7c6.6-6.8,13.3-13.6,20.2-20.2c1-1,2.8-1.2,5.1-2.2c4.8,2.8,7,8.8,11,13.2
	c-6,9-17.1,19.3-25.1,23.2c-3.3-2.7-6.6-5.5-9.8-8.2C377.5,274.8,376.8,274.2,376.1,273.5z M401.3,251.4c-2.2,1.2-3.7,4.1-6.6,5.8
	c-3.1,1.7-5.7,4.6-8.3,7.1c-2.4,2.3-4.5,4.8-7,7.5c3.3,3.2,6.2,5.8,8.7,8.3c8.9-4.9,15-11.9,21.6-18.6
	C406.8,257.9,404.3,254.9,401.3,251.4z"/>
<path d="M544.8,308.5c-5-1-8.5,2.6-13.2,4.4c-7.8-9.4-10.4-21.5-15.9-31.6c5.3-2.5,10.1-4.8,15-7c1.1-0.5,2.5-0.5,3.8-0.8
	c0.5,1.5,0.8,3.1,1.5,4.5c3.3,7.5,6.4,15.1,10.2,22.4C548,303.9,545.7,305.9,544.8,308.5z M519.8,282.8c3.4,9.2,9.7,16.2,11.2,25.5
	c5.6,0.9,8.9-3.7,13.4-4.6c-4.6-9.2-8.9-17.9-13.3-26.5C527.1,279.2,523.7,280.9,519.8,282.8z"/>
<path d="M544.8,308.5c1.7,0,3.4,0,5.1,0c3.5,7,6.9,14.1,10.7,20.8c2.2,3.9,3,7.8,2.7,12.1c-1.6,0.3-3.9-1-4.1,2.1
	c-1.6,0.3-3.9-1-4.1,2.1c-2.5,0.3-5.5-1.2-7.7,3.6c-5.4-11.7-10.3-22.3-15.1-32.9C536.3,313.1,541.5,312.3,544.8,308.5z
	 M561.1,338.7c-2.4-4.8-4.9-9.2-7-13.8c-2-4.3-1.9-9.8-7.9-13c-3.1,1.8-6.6,3.7-10.3,5.8c4.8,9.3,9.1,17.6,13.2,25.6
	C553.7,341.5,557.6,340.1,561.1,338.7z"/>
<path d="M534.5,273.5c4.7-4.3,9.5-8.5,14.9-13.4c7.4,9.4,14.5,18.3,22.1,27.8c-0.4,0.8-1.2,2.4-2,4.1c-0.7,0.7-1.4,1.4-2.1,2.1
	c-1.6,0.3-3.9-1-4.1,2.1c-0.7,0.7-1.4,1.4-2.1,2.1c-0.7,0.7-1.4,1.4-2.1,2.1c-2.1,0.3-3.9-0.2-5.2-2.1c-4.7-6.8-9.3-13.7-14.3-20.3
	C538.5,276,536.3,274.9,534.5,273.5z M548.9,283.8c0.5,1.5,0.7,3.2,1.5,4.5c0.9,1.4,2.5,2.4,3.5,3.7c1,1.4,1.8,3,3.1,5.3
	c2.3-2.3,3.8-4.1,5.6-5.5c1.6-1.3,3.5-2.3,6-4c-2.9-2.4-5.1-4.2-7.3-6.1c-2.2-6.6-8.1-10.5-11-16.4c-4.1,2.5-7.8,4.9-11.7,7.2
	C543,275.4,543.3,282,548.9,283.8z"/>
<path d="M631.3,277.6c1.8-1.3,3.7-2.7,5.7-4.2c8,4.8,16.2,9.5,24.2,14.7c2.1,1.4,3.4,3.9,5.1,6c-0.7,0.7-1.4,1.4-2.1,2.1
	c-3.1,0.2-1.7,2.6-2.1,4.1c-3.2,0.8-4.4,3-4.1,6.2c-1.1,0.6-2.2,1.3-2.9,1.7c-9.3-6.8-20.3-11.2-27.9-19.2c0-2.4,0-3.8,0-5.1
	c0.7-0.7,1.4-1.4,2.1-2.1C632.3,281.5,630.9,279.1,631.3,277.6z M641.5,294c0.8,3.2,3,4.4,6.2,4.1c2.3,2.1,4.7,4.2,7,6.3
	c2.5-4,4.8-7.7,7.1-11.4c-8.2-5.3-16.5-10.7-25.1-16.2c-2.7,3.8-5,7-7.3,10.3C632.6,290.5,636.1,293.8,641.5,294z"/>
<path d="M423.4,310.5c-4.4-5.1-0.4-9.7,1.1-14.3c1.3-4.2,3.3-8.3,5.8-11.9c1.6-2.3,1-4.5,1.3-6.7c1.1-0.6,2.2-1.3,3.7-2.2
	c5.2,2.1,10.8,4.4,16.3,6.7c-2.8,8.4-7.1,16-10,24.3c-1.2,3.5-1.8,9-8,8.2C431.3,310.7,427.5,310.3,423.4,310.5z M436.5,279.1
	c-1.1,2.2-1.6,4.1-2.8,5.5c-2.7,3.2-2.3,7.5-4.4,10.9c-2.1,3.3-3.8,6.9-5.8,10.6c4.8,2.5,9.1,4.4,14.8,4.4c-2-6.4,3.7-9.7,4-15.2
	c0.2-3.7,3.7-7.2,6-11.4C444.7,282.5,441.2,281,436.5,279.1z"/>
<path d="M359.6,248.8c-0.5-3.1,1.2-4.8,3.8-6.2c6.1-3.3,12-7.2,18.2-10.1c2.3-1.1,4-1.9,4.7-4.3c4.5-0.5,6.4,2.9,8.2,6
	c1.6,2.7,2.8,5.6,4.5,9.1c-8.4,8.3-19.8,11.8-30,18.7c-2-3.1-4.3-5.6-5.2-8.5C363.1,251,362,249.5,359.6,248.8z M380.2,250.8
	c6.1,0.1,9.3-5.5,15.4-7.5c-2.2-4-4.3-7.7-7.1-12.6c-3.6,5.3-10.5,3.9-12.5,9.8c-5.1-0.1-8.2,3.9-12.9,5.1c2.2,4.3,4,7.9,5.9,11.6
	C373.5,256.1,378.2,255.9,380.2,250.8z"/>
<path d="M409,345.5c-1.1-0.9-2.1-1.8-3.9-3.2c3.9-8.6,8.2-17.8,12-27.1c1.3-3.1,2.7-5.1,6.3-4.7c2.4,3.9,6.2,4.3,10.3,4.1
	c0.6,1.1,1.3,2.2,2,3.5c-2.5,9.4-7.9,18-10.3,27.8c-0.7,2.7-3,4.2-6.1,3.7c-0.2-3.1-2.6-1.7-4.1-2.1
	C414.2,343.6,411,346.3,409,345.5z M418.7,313.9c2.4,6.3-2.3,9.3-3.6,13.7c-1.4,4.5-3.6,8.7-5.6,13c3.1,1.6,6.8,3.4,11.1,5.6
	c4.7-9.6,10.1-18.4,11.3-28.8C427.4,316.2,423.8,315.3,418.7,313.9z"/>
<path d="M592.2,267.3c-10.4-6.3-20.7-12.6-30.9-18.7c3.8-5.6,7.2-10.7,10.9-16.2c9.9,6.3,19.7,12.5,29.5,18.8
	c0.4,0.3,0.5,1.1,0.7,1.7c-3.2,0.8-4.4,3-4.1,6.2c-3.2,0.8-4.4,3-4.1,6.2C593.5,265.9,592.8,266.6,592.2,267.3z M598.4,251.3
	c-5-0.7-8.1-4.7-12.3-6.4c-5-2-8.4-6-12.9-9.2c-2.8,4.4-5.3,8.3-7.8,12.3c4.4,2.4,8.7,4.5,12.8,7c4.3,2.7,8.4,5.8,12.4,8.7
	C593.5,259.2,595.8,255.4,598.4,251.3z"/>
<path d="M382.3,132.6c6.5-0.9,12.2-0.9,18.3-0.9c4.7,6.1,1.1,13.1,2.6,20c-7.8,0-15.1,0-23.2,0C381.3,144.9,378.1,137.8,382.3,132.6
	c0,2.6,0,4.3,0,5.6c2,1.8,3.9,3.5,5.8,5.2c0.3-1.9,0.6-3.8,1-5.9c5.2,0.7,6.2,3.6,5.2,8.5c-3.9,0-7.8,0-12.3,0
	c0.5,1.9,0.8,3.1,1.2,4.3c6.1-3.1,12.2,2.3,18.5-1.8c-1.8-1.4-3.3-2.6-4.4-3.4c0-2.6,0-4.9,0-6.9c1.5-0.5,2.6-0.9,4.5-1.5
	C394.7,134.1,387.8,137.8,382.3,132.6z M391.8,143.5c0.3-0.3,0.5-0.5,0.7-0.7c-0.5-0.2-0.9-0.5-1.4-0.6c-0.2,0-0.4,0.4-0.7,0.6
	C390.9,143,391.4,143.3,391.8,143.5z M399,140.4c0.2,0.4,0.5,0.9,0.7,1.3c0.2-0.2,0.7-0.5,0.6-0.7c-0.1-0.5-0.4-0.9-0.6-1.4
	C399.5,139.9,399.3,140.2,399,140.4z"/>
<path d="M407,298.2c-1.4,0-2.7,0-4.1,0c-0.8-3.2-3-4.4-6.2-4.1c-0.4-4.8,3.9-7.2,5.9-10.8c3.5-6.1,8.4-11.5,12.5-17.3
	c0.5-0.7,0.4-1.8,0.8-3.5c6.1,3.5,11.5,6.9,15.7,12c0.5,0.6,0.1,2,0.1,3c-7.6,3.8-8.9,12.5-14.3,18c-2,2-3.4,4.7-5.6,7.9
	C409.7,301.3,408.3,299.7,407,298.2c2,0,3.9,0,6.5,0c0.1-5.4,6.3-7,5.9-12.3c4.8-2.3,5.5-7.6,8.9-11.1c-3.8-2.7-7-4.9-10.3-7.3
	c-1.4,2.6-5.8,3.7-4.8,8.1c-6.6,3.1-7.8,10.5-12.1,15.2C403,293.2,405,295.7,407,298.2z"/>
<path d="M610.7,355.8c-4.1-1.4-5.1,3.8-9.2,4.3c-6.6-8.7-13.3-17.6-20-26.4c1-1.9,1.7-3.2,2.4-4.6c0.7-0.7,1.4-1.4,2.1-2.1
	c0.7-0.7,1.4-1.4,2.1-2.1c1.6-0.3,3.9,1,4.1-2.1c0.7-0.7,1.4-1.4,2.1-2.1c1.4,0.7,2.7,1.4,4.1,2.1c4.6,9.7,12.8,16.9,18,25.8
	C614.4,351.1,612.5,353.4,610.7,355.8z M594.2,343.4c0.5,1.5,0.7,3.2,1.5,4.5c0.9,1.4,2.5,2.3,3.5,3.7c1,1.4,1.7,3,2.9,5.1
	c4.1-2.9,7.5-5.3,11.6-8.2c-3.4-3.4-6.3-6.3-9.2-9.2c-0.2-1.3-0.1-2.8-0.8-3.7c-2.7-3.6-5.7-7.1-8.4-10.4c-3.3,2.5-6.6,4.9-10.3,7.7
	C588.5,336.8,589.2,341.9,594.2,343.4z"/>
<path d="M536.1,248.5c-15.8,0-31.1,0-46.6,0c0-5.3,0-10.4,0-15.8c15.6,0,31.2,0,46.6,0C536.1,238.2,536.1,243.5,536.1,248.5z
	 M491.3,246.4c3.6,0.1,7.2,0.4,10.9,0.3c4-0.2,7.9-0.8,11.9-1.1c3.1-0.2,6.5,3.3,9.2-0.9c3.4,3.8,7.4,1.4,10.9,1.9
	c0-4.5,0-8.1,0-12.3c-14.5,0.3-28.7-0.3-42.9,0.4C491.3,238.8,491.3,242.3,491.3,246.4z"/>
<path d="M427.5,248.5c0-4.9,0-10,0-15.1c0.2-0.3,0.4-0.5,0.7-0.7c0.2-0.2,0.6-0.4,0.9-0.4c15,0,30,0,45.4,0c0,5.4,0,10.7,0,16.2
	C458.7,248.5,443.1,248.5,427.5,248.5z M429.9,234.5c0,4.6,0,8.2,0,12.2c14.5-0.3,28.7,0.4,42.5-0.4c0-4.4,0-8.1,0-11.9
	C458.2,234.5,444.2,234.5,429.9,234.5z"/>
<path d="M682.7,327c0.6,1.1,1.3,2.2,2.5,4.2c-3.1,4.5-6.5,9.4-10.5,15.1c-1.6-1.8-3-3.3-4.3-4.9c6.7-1.9,9.6-5.3,9.9-11.6
	c-1.9-0.9-3.9-1.8-5.8-2.8c-1.4-2.1-2.7-4.1-4.1-6.2c1.4,0,2.7,0,4.1,0c0.7,0.7,1.4,1.4,2.1,2.1C677.3,326.1,679.5,327.3,682.7,327z
	"/>
<path d="M407,308.5c1.5,4.2-2.8,5.6-4.3,8.2c-2.7,4.5-4.5,10.1-10.1,12.4C394.4,320.1,400.5,314.2,407,308.5z"/>
<path d="M417.7,213c1.9,1.2,3.7,2.4,6.3,4.1C419.3,218.8,418.4,216.1,417.7,213z"/>
<path d="M548.9,209.7c0,1.2,0,2.4,0,4.1c-1.7,0-2.9,0-4.1,0C546.2,212.4,547.6,211,548.9,209.7z"/>
<path d="M407,304.3c0.7,0.9,1.4,1.7,2.1,2.6c-0.7,0.5-1.4,1-2.1,1.6C407,307.1,407,305.7,407,304.3z"/>
<path d="M433.7,263.2c-0.7,0-1.4,0-2.1,0c0.7-0.7,1.4-1.4,2.1-2.1C433.7,261.8,433.7,262.5,433.7,263.2z"/>
<path d="M748.5,314.6c-0.7-0.7-1.4-1.4-2.1-2.1C747.2,313.3,747.9,313.9,748.5,314.6z"/>
<path d="M544.8,213.8c-0.7,0.7-1.4,1.4-2.1,2.1C543.5,215.2,544.1,214.5,544.8,213.8z"/>
<path d="M417.2,213.8c-0.7-0.7-1.4-1.4-2.1-2.1C415.9,212.4,416.6,213.1,417.2,213.8z"/>
<path d="M415.2,211.7c-0.7-0.7-1.4-1.4-2.1-2.1C413.8,210.4,414.5,211,415.2,211.7z"/>
<path d="M754.7,261.1c0.7,0.7,1.4,1.4,2.1,2.1C756.1,262.5,755.4,261.8,754.7,261.1z"/>
<path d="M330,209.6c6.9,0.1,5.1,5.1,8,7.4c-2.1,0.5-3,0.8-4.6,1.2c-0.2-1.8-0.1-3.4-0.6-4.9C332.5,212.4,331.5,211.6,330,209.6z"/>
<path d="M330.6,211.6c0,2,0,3.9,0,7.4c-2-2.6-3.2-4-5-6.3C328,212.1,329.4,211.8,330.6,211.6z"/>
<path d="M287.9,172.5c-0.9-1.4-1.6-2.4-2.8-4.2c4,0.5,6.9,0.9,10.4,1.4c0,1.7,0,4.2,0,6.9c-1.3,0-2.2,0-3.9,0c0.9-1.3,1.4-2.2,2-3.1
	c-5-4.6-2.6,6.4-7.5,2.3C286.4,175.3,287,174.2,287.9,172.5z"/>
<path d="M299.8,230.1c-1.4,0-2.4,0-4,0c0.8-1.3,1.4-2.2,2.1-3.3c-1-0.3-1.9-0.5-3.4-0.9c-0.5,2.3-0.9,4.4-1.5,7.7
	c-1.1-3.5-1.9-5.9-2.7-8.6c2.4-0.9,5.2-1.9,8.6-3.1C300.9,224.4,299.7,227.2,299.8,230.1z"/>
<path d="M288.9,230.6c0.3,0.3,0.5,0.5,0.7,0.7c-0.5,0.2-0.9,0.5-1.4,0.6c-0.2,0-0.4-0.4-0.7-0.6C288,231,288.5,230.8,288.9,230.6z"
	/>
<path d="M325.2,191.5c3.9-0.8,7.6-1.1,10.3,3.9c-1.3,1.4-2.4,2.6-3.8,4.1c-0.7-1.7-1.1-2.9-1.6-4.1c-1.2,1.5-2.4,3-3.6,4.4
	c-0.5-0.2-1-0.4-1.5-0.6c0.2-1.3,0.4-2.6,0.4-3.9C325.6,194.2,325.3,193,325.2,191.5z"/>
<path d="M298.2,206.5c-0.6,2.2-1.3,4.5-2,6.9c-3.1,0-5.4,0-5.4,0c-3.1-1.4-4.6-2.1-6.9-3.1c1.8-2,2.9-3.8,3.5-3.7
	C291,207.4,294.1,204.2,298.2,206.5z"/>
<path d="M301.7,206.9c-0.3,0.3-0.5,0.5-0.7,0.7c-0.2-0.5-0.5-0.9-0.6-1.4c0-0.2,0.4-0.4,0.6-0.7C301.2,206,301.5,206.5,301.7,206.9z
	"/>
<path d="M362,174.2c2,0.9,3.3,1.4,5,2.1c0.9-0.5,2.2-1.3,3.3-1.9c0.7,0.5,1,0.7,1.2,0.9c-3.6,2.3,2.2,4.7-0.6,7.7
	c-1-0.3-2.4-0.8-4.3-1.4c-0.9,0.3-2.5,0.9-4.5,1.6C362,180.1,362,177.5,362,174.2z"/>
<path d="M337,238.5c-1,0-2,0-3.1,0c-1.1-2.2-2.2-4.4-3.7-7.4c1.9-0.3,3.3-0.6,5.5-0.9c0.2,0-0.4,0-1,0.1c0.3,1.3,0.5,2.7,0.8,4
	c0.4-0.1,0.9-0.1,1.3-0.2c-0.1-1.3-0.2-2.6-1.1-3.9c-0.6-0.5-0.4-1.6-0.1-1.6c1.6-0.3,3.2-0.3,5.1-0.5c0,2.7,0,5,0,7.4
	C339.7,236.3,338.3,237.4,337,238.5z"/>
<path d="M302.5,237.4c1.6,3.2,2.7,5.4,4.1,8.2c-1.3,0.9-2.6,1.9-3.8,2.8c-0.5-0.4-1.2-1-1.9-1.6c-0.5,0.5-1,1-1.6,1.6
	c-1.8-0.9-3.6-1.8-5.7-2.8c0.3-0.9,0.2-2.1,0.8-2.6C296.7,241.3,299.2,239.7,302.5,237.4z"/>
<path d="M290.7,193.3c-0.7,0.6-1.4,1.3-2.7,2.5c-1.1-2.6-2.1-5-3.6-8.3c4.3-0.2,7.5-0.3,10.5-0.5c2,3.7,0.6,6.1-2.1,8.2
	C292.1,194.5,291.4,193.9,290.7,193.3z M292,189.8c0.2,0.4,0.5,0.9,0.7,1.3c0.2-0.2,0.7-0.5,0.6-0.7c-0.1-0.5-0.4-0.9-0.6-1.4
	C292.5,189.3,292.3,189.6,292,189.8z"/>
<path d="M332.4,181.7c-3.3-4.8-7.5-1.7-11.6-3.6c-0.1-1.8-0.2-4.3-0.3-7c1.6,0.3,3.5,1,3.9,0.6c2.5-3.2,5.6,2.4,7.9-0.6
	c0.9,1.3,2.5,2.7,2.5,4C334.6,177.1,333.4,179.1,332.4,181.7z M332.1,176.5c0.3-0.3,0.5-0.5,0.7-0.7c-0.5-0.2-0.9-0.5-1.4-0.6
	c-0.2,0-0.4,0.4-0.7,0.6C331.3,176,331.7,176.2,332.1,176.5z M323.6,174.7c-0.2,0.2-0.7,0.5-0.6,0.7c0.1,0.5,0.4,0.9,0.6,1.4
	c0.2-0.2,0.7-0.5,0.6-0.7C324.1,175.6,323.8,175.2,323.6,174.7z"/>
<path d="M338.3,174.4c-0.4-0.2-0.9-0.5-1.3-0.7c0.2-0.2,0.5-0.7,0.7-0.6c0.5,0.1,0.9,0.4,1.4,0.6
	C338.8,173.9,338.6,174.1,338.3,174.4z"/>
<path d="M454.3,139.7c3,0.2,5.8-0.1,8.2-2.1c0,9.5,0,18.9,0,28.6c2.4-1.2,4.1-1.2,5.8,0.1c1.7,1.3,2.3-3.2,4.8-0.9
	c1.4,1.3,4.2-3.3,6.3,0.3c2.4-1.3,4.8-2.4,7.1,0.2c1.3-2.9,4.7,2,5.8-1.7c3.6,1.8,7.4,2.3,11.4,2c0.1,3.4,0.2,6.9,0.3,10.4
	c1.7-1,2.8-1.6,3.8-2.2c0.7,4.6-2.9,5.8-6,7.2c0.6,0.8,1.2,1.5,1.8,2.2c-0.7,0.3-1.3,0.8-1.9,0.8c-11.9,0-23.7,0.1-35.6,0
	c-1.5,0-3.6,0.8-3.6-2.2c12.2-0.2,24.4-0.2,36.6-0.2c0.4-4.7,0.8-9.2,1.2-13.7c-12.1,0-24.9,0-37.8,0c2.7,6.5,2.7,8,0,13.8
	c-2.9,0.1-2.1-2-2.1-3.5c-0.1-12.3,0-24.5,0-37c-1.2-0.2-2.2-0.4-3.9-0.7c0.2,12.5-1.4,24.7,1.3,37c-2.7-1.2-3.6-3.1-3.6-6
	C454.4,161.6,454.3,150.7,454.3,139.7z"/>
<path d="M503.7,166.5c0-7.7,0-15.4,0-23.9c-1.2-0.6-3.1-1.5-4-2c0.3-3.6-2-6.3,1.9-7c0.9,5.7,1.3,6.1,8.2,6.2c0,10.5,0,20.9,0,31.4
	c0,1.5,0.7,3.6-2,3.6c-0.3-10.9,0.6-21.9-1.3-32.8c-0.8,7-0.8,14-0.8,21C505.7,164.3,506.4,166.4,503.7,166.5z"/>
<path d="M462.5,133.5c-3.4-2.6-6.9-2.6-10.3,0c0-1,0-2,0-3.8c3.2-0.1,6.4-0.3,10.3-0.5C462.5,131,462.5,132.3,462.5,133.5z"/>
<path d="M509.8,131.5c1.5,1.1,2.9,2.1,5.2,3.8c-2.1,1.8-3.6,3.1-5.2,4.5C509.8,137,509.8,134.2,509.8,131.5z"/>
<path d="M501.6,133.5c0-1,0-2,0-3.7c2.9-0.2,5.9-2,8.2,1.7C506.9,131.2,504,131.6,501.6,133.5z"/>
<path d="M462.5,133.5c0.7,0.9,1.4,1.7,2.1,2.6c-0.7,0.5-1.4,1-2.1,1.6C462.5,136.3,462.5,134.9,462.5,133.5z"/>
<path d="M454.1,139.9c-0.6-0.5-1.1-1-1.7-1.4c0.2-0.2,0.4-0.4,0.6-0.6c0.5,0.6,1,1.1,1.4,1.7C454.4,139.7,454.2,139.8,454.1,139.9z"
	/>
<path d="M452.4,133.7c-0.5,0.6-1,1.1-1.4,1.7c-0.2-0.2-0.4-0.4-0.6-0.6c0.6-0.5,1.1-1,1.7-1.4C452.2,133.5,452.3,133.6,452.4,133.7z
	"/>
<path d="M640.7,226.3c-1.3-1.3-2-2-3-3c2.1-2.2,2.6-4.6,0.5-7.7c1.8,0.9,3.7,1.8,4.9,2.4C642.2,221.1,641.5,223.5,640.7,226.3z"/>
<path d="M599.7,206.7c0.5,2.8,0.8,4.7,1.4,8.2c1-2.5,1.5-3.6,2.6-6.4c0.5,3.7,0.8,6,1,8.2c-0.5,0.4-0.8,0.9-0.9,0.8
	c-2.3-0.7-4.6-1.5-7.1-2.4c-0.5-1.3-1.2-2.8-2.1-4.9C595.9,209.4,597.5,208.3,599.7,206.7z"/>
<path d="M636.5,201.4c-0.3-3-0.6-5.3-0.9-7.9c3,0,6,0,9.6,0c0.1,1.2,0.2,2.8,0.3,4.3c0.2,2.2,0.1,4-3.1,3.7
	C640.4,201.2,638.1,201.4,636.5,201.4z M642.6,199.3c0.2-0.2,0.7-0.5,0.7-0.7c0-0.9,0.3-2.1-0.2-2.6c-0.5-0.6-1.7-0.5-2.6-0.7
	c0.2,0.9,0.4,1.9,0.8,2.8C641.5,198.6,642.2,198.9,642.6,199.3z"/>
<path d="M642.4,179c-0.6-1.7-1.1-2.9-1.5-4.2c-1.3,1.6-2.5,3.1-4.1,5.2c-0.5-3.4-0.8-5.7-1.3-8.9c3.1-0.2,6.2-0.4,9.3-0.6
	C647.1,174.4,645.1,176.6,642.4,179z"/>
<path d="M589.5,231.7c1.3-2.9,2.4-5.1,3.5-7.4c0.3-0.1,0.7-0.3,0.9-0.2c2,0.8,4,1.7,6.1,2.6c1.7,3.4-0.1,5.6-1.8,6.9
	C595.1,233,592.6,232.4,589.5,231.7z"/>
<path d="M598.2,191.4c3.9,0,6.8,0,10.7,0c-0.8,1.2-1.3,1.8-1.8,2.5c0.6,1.4,1.2,2.9,2,5.1c-2.3,0-3.9,0-5.7,0
	C602,196.9,600.3,194.4,598.2,191.4z"/>
<path d="M598,200.3c0.7-2.5,1.1-3.7,1.4-5c0.3,1,0.8,1.9,0.9,2.9C600.4,198.5,599.6,198.9,598,200.3z"/>
<path d="M597.6,172c2.1,1.3,3.4,2.1,5,3c1-0.8,2-1.5,2-1.5c1.7,0.8,3.2,1.5,5,2.4c-1.4,1.9-2.1,2.9-2.9,4c0.5,0.6,1.2,1.3,2.4,2.6
	c-3.7,0.2-6.9,0.3-11.2,0.5c0.8-2.3,1.4-3.8,1.9-5.3C599.3,176.2,598.6,174.5,597.6,172z M604.2,177.5c-0.3-0.3-0.5-0.5-0.7-0.7
	c-0.2,0.5-0.5,0.9-0.6,1.4c0,0.2,0.4,0.4,0.6,0.7C603.7,178.4,604,177.9,604.2,177.5z"/>
<path d="M631.3,236.4c0,1.2,0,2.4,0,3.7c2.4-0.7,4.3-1.2,6.2-1.7c-0.8,2.7-1.7,5.4-2.5,8.2c-3.2-0.9-6.2-1.7-9.7-2.7
	c1.7-1,3.3-1.9,4.5-2.6c-1.2-2.4-1.7-3.3-2.6-4.9C628.7,236.4,630,236.4,631.3,236.4z"/>
<path d="M677.7,197c1.2-3.2,2.2-5.7,3.6-9.3c1.6,3.8,2.6,6.3,3.9,9.3C682.8,197,681.2,197,677.7,197z"/>
<path d="M676.2,230.1c1,1.6,1.8,3,2.9,4.8c-2.2,1.5-4.3,3.1-6.5,4.7c-1.2-0.3-3.5-1-6.9-1.9c2-0.8,3.2-1.3,4.4-1.8
	c-0.7-1.3-1.3-2.6-2.5-4.8C670.9,230.6,673.7,230.3,676.2,230.1z M672.8,236.1c0.6,0,1.2-0.1,1.8-0.1c-0.2-1.1-0.5-2.3-0.7-3.4
	c-0.3,0-0.7,0.1-1,0.1C672.8,233.8,672.8,234.9,672.8,236.1z"/>
<path d="M669.9,258c-3.5,1.2-6.9,1.9-9.5-1.8c0.8-1.6,1.7-3.5,2.9-6c3.1,1.2,6.2,2.4,10.1,3.9C671.8,256.1,670.7,257.4,669.9,258
	c0.4-0.9,0.5-1.1,0.7-1.2c-0.5-0.6-1-1.1-1.4-1.7c-0.2,0.2-0.4,0.4-0.6,0.6C669,256.3,669.6,256.7,669.9,258z"/>
<path d="M671,176.2c2.8-1.2,4.1-1.9,5.3-2.4c-1.5-1.2-3-2.4-5.9-4.8c5.2,0,8.3,0,12.4,0c0.7,1.9,1.6,4.2,2.7,7.2
	C680.6,176.2,676.5,176.2,671,176.2z"/>
<path d="M683.3,212.8c-0.8,2.4-1.7,4.7-2.3,6.5c-3.9-0.8-7-1.4-10.8-2.2c1-2.6,2-5.1,3-7.6C676.5,210.6,679.5,211.6,683.3,212.8z"/>
<path d="M721.5,199.2c-2.6,0-4.9,0-8,0c-0.8-2.2-1.7-4.5-2.9-7.6c4.2,0,7.3,0,10.9,0C721.5,193.8,721.5,196.1,721.5,199.2z
	 M719.4,196c-0.3-0.3-0.5-0.5-0.7-0.7c-0.2,0.5-0.5,0.9-0.6,1.4c0,0.2,0.4,0.4,0.6,0.7C719,196.9,719.2,196.4,719.4,196z"/>
<path d="M569.9,409c-2.8,1.1-4.8,2-7.5,3.1c-1.4-3.7-2.6-6.8-3.8-10C566.1,398.5,566.6,405.1,569.9,409z"/>
<path d="M507.7,419.7c1.1-0.1,2.1-0.1,3.7-0.1c0.2,1.1,0.4,2.2,0.7,3.8c-3.5,0-6.4,0-10,0c-0.8-3.9-1.2-7.8,4.7-10.7
	c0.7,1.6,1.5,3.1,2.3,4.8C509,417.4,508.3,418.4,507.7,419.7c0.2,0,0.1-0.2-0.1-0.3c-0.6,0.5-1.1,1-1.7,1.4c0.2,0.2,0.4,0.4,0.6,0.6
	C507,420.9,507.5,420.3,507.7,419.7z"/>
<path d="M530.6,411.9c-0.5,1.3-1.2,3-1.8,4.8c0.6,0.8,1.3,1.8,2.3,3.4c-2.3,1.3-4.1,2.3-6.7,3.8c-0.7-2-1.4-4.1-2.3-6.1
	c-0.7-1.7-1.6-3.4-3-6.4c2.8,0.6,4.4,0.9,6.4,1.3c0.3-0.7,1-2,1.6-3.3C528.2,410.1,529.2,410.9,530.6,411.9z"/>
<path d="M540.7,417.5c-0.8-2,1.9-5.2-2.1-6.2c0-1,0-2.1,0-4.2c1.6,0.9,2.7,1.5,3.9,2.2c1.6-0.8,3.3-1.7,5.9-2.9
	c0.2,4,0.4,7.2,0.6,11.1C546,417.5,543.4,417.5,540.7,417.5z"/>
<path d="M588,399c-1.8,2.2-3.7,4.4-5.5,6.6c-2-1.1-3.4-1.8-4.8-2.5c1.3-1.1,2.7-2.1,4.2-3.3c-1.3-0.5-2.5-0.9-4-1.4
	c0-1.5,0-3.1,0-4.7c0.4-0.1,1.2-0.4,1.3-0.3c1.3,2,5.5,1,5.1,4.9C584.4,398.4,586.8,398.8,588,399z"/>
<path d="M352.5,377.6c-2.9-0.1-5.1-1.1-7.6-2.4c1.5-0.5,2.7-0.9,4.4-1.5c-0.5-0.8-1-1.4-1.9-2.7c1-1.1,2-2.4,3-3.7
	C356.9,372.9,356.9,372.9,352.5,377.6c0.9-1.1,1-1.3,1.2-1.4c-0.5-0.6-1-1.1-1.4-1.7c-0.2,0.2-0.4,0.4-0.6,0.6
	C352.1,375.6,352.7,376.1,352.5,377.6z"/>
<path d="M327,353.8c-0.7,2.1-1.7,4.1-3,6.7c-1.9-2.4-3.4-4.2-4.9-6c1.4-2,3.2-4.5,5.4-7.6c2.2,2,4.2,3.8,7.1,6.4
	C329.3,353.6,328,353.7,327,353.8c-0.3,0-0.2-0.2,0-0.3c-0.5-0.6-1-1.1-1.4-1.7c-0.2,0.2-0.4,0.4-0.6,0.6
	C325.4,353,325.9,353.5,327,353.8z"/>
<path d="M334.9,339.3c0,1.4,0,2.7,0,4.1c-1.5-0.4-3-0.7-4.4-1.4c-1.4-0.7-2.6-1.8-3.8-2.7c-1.4-1.7-2.6-3.7-4.2-5.1
	c-1.7-1.5-2.2-3.1-2-5.2c3.3,3,6.6,6.1,10.1,8.9C331.7,338.8,333.5,338.9,334.9,339.3z"/>
<path d="M289.7,302.3c-1.4,0-2.7,0-4.1,0c0-1.2,0-2.4,0-4.1c-1.7,0-2.9,0-4.1,0c0.9-1.3,1.7-2.6,2.8-4.3
	C286.6,296.6,290.3,297.9,289.7,302.3z"/>
<path d="M285.5,302.3c-2.1,3.8-5.2,1.4-7.9,2.1c-0.7-4,1.2-5.3,3.8-6.2C282.8,299.5,284.2,300.9,285.5,302.3z"/>
<path d="M297.9,316.7c-1.4,0-2.7,0-4.1,0c0-1.2,0-2.4,0-4.1c-1.7,0-2.9,0-4.1,0c0.9-1.3,1.7-2.6,2.8-4.3
	C294.8,311,298.6,312.3,297.9,316.7z"/>
<path d="M293.8,316.7c-0.9,1.3-1.8,2.7-2.7,4.1c-1.8-2.6-3.5-5.1-5.6-8.2c1.7,0,3,0,4.3,0C291,313.9,292.4,315.3,293.8,316.7z"/>
<path d="M302,320.8c0.8,1.2,1.5,2.4,2.4,3.4c1.1,1.3,2.4,2.4,3.5,3.6c-1.3,1.8-2.6,3.6-3.9,5.4c-4.4,0.7-5.7-3-9.2-6.2
	c2.6,0,3.8,0,7.5,1.2c1.1-0.4,0.7-1.2,0.4-1.1c-1,0.1-1.9,0.6-2.9,0.9c1.2,0.4,2.5,0.7,2.5,0.2C300.6,324.9,301.3,322.9,302,320.8z"
	/>
<path d="M334.9,357.8c3.1-0.5,5.3,1,6,3.7c0.4,1.4,1.4,4.2-1.9,4.5c0-1.2,0-2.4,0-4.1c-1.7,0-2.9,0-4.1,0
	C334.9,360.6,334.9,359.2,334.9,357.8z"/>
<path d="M339,366.1c0,1.4,0,2.7,0,4.1c-2-1.6-4.2-3-5.8-4.9c-1-1.2-0.8-3.2,1.7-3.3C336.3,363.3,337.7,364.7,339,366.1z"/>
<path d="M306.1,339.3c1.4,0,2.7,0,4.2-0.1c0,0-0.2,0.2-0.3,0.3c0.5,0.6,1,1.1,1.4,1.7c0.2-0.2,0.4-0.4,0.6-0.6
	c-0.6-0.5-1.1-1-1.8-1.3c0.8-1.2,1.7-2.5,2.5-3.8c1.8,0.9,3.4,1.6,5.7,2.7c0,1.5,0,3.4,0,5.3c-3.8-1.2-4.9,2.7-6.8,3.6
	c-1.5-1.3-2.5-2.9-4-3.5C305.3,342.6,306.4,340.8,306.1,339.3z"/>
<path d="M325.4,292c-0.1-0.8,0.5-1.7,2.1-3.7c1.4,4.2,2.4,7,3.3,9.9c-1.8,0.5-3.5,1-5.7,1.5c-0.2-0.2-0.9-0.8-1.6-1.5
	c-0.7,0.7-1.4,1.3-2.6,2.4c0-3,0-5.5,0-8.6C322.1,292,323.4,292,325.4,292c0.2,0-0.4,0-1,0.1c0.3,1.3,0.5,2.7,0.8,4
	c0.4-0.1,0.9-0.1,1.3-0.2C326.5,294.6,326.3,293.2,325.4,292z"/>
<path d="M314.3,285.8c-0.9-1.3-2-2.5-2.7-3.8c-0.7-1.4-0.9-2.9-1.4-4.4c1.1,0.6,2.2,1.2,3.3,1.9c1.1-1.1,2.3-2.3,3-3
	c1.8,1.6,3.6,3.2,5.4,4.8c-0.4,0.4-1.3,1.3-2.4,2.4c-0.7-0.6-1.4-1.3-2.1-1.9C316.5,283.1,315.4,284.5,314.3,285.8z"/>
<path d="M303.8,286.5c-0.2,0.4-0.5,0.9-0.7,1.3c-0.2-0.2-0.7-0.5-0.6-0.7c0.1-0.5,0.4-0.9,0.6-1.4
	C303.3,286,303.5,286.3,303.8,286.5z"/>
<path d="M314.6,286c-0.5,0.6-1,1.1-1.4,1.7c-0.2-0.2-0.4-0.4-0.6-0.6c0.6-0.5,1.1-1,1.7-1.4C314.3,285.7,314.4,285.9,314.6,286z"/>
<path d="M337,310.5c0,1.4,0,2.7,0,4.1c-1.4-0.5-2.9-0.7-4.1-1.5c-1.3-0.9-2.1-2.4-3.6-4.1c0.8-0.6,2.1-1.6,3.5-2.6
	c0.7,0.7,1.4,1.4,2.1,2.1S336.3,309.8,337,310.5z"/>
<path d="M332.9,306.4c0.4-0.8,0.8-1.5,1.7-3c2.5,2.3,4.5,4.1,7.7,7.1c-2.8,0-4,0-5.3,0c-0.7-0.7-1.4-1.4-2.1-2.1
	S333.6,307.1,332.9,306.4z"/>
<path d="M345.2,314.6c1.6,0.7,3.4,1.2,4.9,2.1c2.3,1.3,3.9,3.2,3.3,6.1c-2.1-0.7-4.1-1.4-6.2-2.1c-0.7-0.7-1.4-1.4-2.1-2.1
	C345.2,317.4,345.2,316,345.2,314.6z"/>
<path d="M347.3,320.8c0,2,0,3.9,0,6.6c-2.1-2.3-3.5-3.9-5.5-6.1c0.7-0.5,2.1-1.5,3.5-2.5C345.9,319.4,346.6,320.1,347.3,320.8z"/>
<path d="M353.4,331.1c1.4,0,2.7,0,4.2-0.1c0,0-0.2,0.2-0.3,0.3c0.5,0.6,1,1.1,1.4,1.7c0.2-0.2,0.4-0.4,0.6-0.6
	c-0.6-0.5-1.1-1-1.8-1.3c-0.1-1.1-0.1-2.4-0.1-4.7c3.4,1.4,5.9,2.5,8.2,3.5c0,1.3,0,2.3,0,3.3c-2.1,1.4-4.2,2.9-6.8,4.7
	C357.1,335.5,355.3,333.3,353.4,331.1z"/>
<path d="M369.9,337.3c2.8,0.9,5.6,1.9,8.4,2.8c-0.8,2.9-1.5,5.2-2.2,7.5c-0.8,0.4-1.7,0.8-3.1,1.4c-1.2-0.5-3-1.3-4.9-2.2
	c0.2-1.9-2.1-4.7,1.9-5.5c0,0-0.2,0.2-0.3,0.3c0.5,0.6,1,1.1,1.4,1.7c0.2-0.2,0.4-0.4,0.6-0.6c-0.6-0.5-1.1-1-1.8-1.3
	C369.9,340,369.9,338.6,369.9,337.3z"/>
<path d="M551.6,375.3c-3.1,1.4-5.1,2.3-7.6,3.4c-1.1-3.2-2.3-6.3-3.4-9.5c1.8-0.9,3.5-1.8,5.9-3c0.6,0.6,1.7,1.7,3,3
	c-1.9,0.7-3.1,1.1-4.6,1.7C547,372.3,548.9,373.6,551.6,375.3z"/>
<path d="M498.2,379.7c2.5-3.9,4.5-0.3,6.7-3.1c1,3,1.9,6,3.1,9.7c-2.7,0.1-5.2,0.3-7.9,0.4C499.1,383.3,498.1,380.3,498.2,379.7
	c2,2.9,2.7,2.9,3.5,2.7c0,0-0.2,0.2-0.3,0.3c0.5,0.6,1,1.1,1.4,1.7c0.2-0.2,0.4-0.4,0.6-0.6c-0.6-0.5-1.1-1-1.8-1.3
	c-0.3-0.5-0.5-1-0.8-1.6C500.5,381.4,500,382,498.2,379.7z"/>
<path d="M561.3,368.1c-0.3-1.6,1-3.9-2.1-4.1c0-1,0-2,0-4c1.2,0.5,2,0.9,3.4,1.4c1-0.9,2.5-2.2,4.8-4.4c0,2.4,0,3.6-1.2,7.3
	c0.4,1.1,1.2,0.7,1.1,0.4c-0.1-1-0.6-1.9-0.9-2.9c-0.4,1.2-0.7,2.5-0.2,2.5c2.5-0.9,3.8,0.7,5.3,2.6c-2.1,1.1-4.1,2.2-6.2,3.3
	C564,369.6,562.6,368.9,561.3,368.1z"/>
<path d="M524.1,377.3c1.6,0.9,3.1,1.8,6.2,3.5c-4.1,1.5-6.7,2.4-9.6,3.4c0-3.6,0-7.4,0-11.4c3.1-1.7,5.5-0.3,7.7,2.6
	C526.9,376,525.6,376.7,524.1,377.3z"/>
<path d="M258.5,217.7c-1.2,0-2.1,0-4,0c0.7-1.1,1.1-1.7,1.8-2.6c-0.6-1.2-1.2-2.8-2.2-4.8c1.7-0.3,2.9-0.4,4.4-0.7
	C258.5,212.6,258.5,215.1,258.5,217.7z"/>
<path d="M253.2,189.1c-0.3-0.9,0.3-1.6,1.3-2.8c1.6,1.4,3.1,2.6,4.4,3.7c-0.5,2.4-0.9,4.4-1.4,7.2c-1.2-0.5-3.2-1.2-5.1-2
	c-1,0.6-2,1.2-3.1,1.8c-0.7-2.4-1.4-4.8-2.2-7.5c0.5-0.5,1.4-1.4,2.4-2.4C250.4,187.9,251.4,188.6,253.2,189.1c0.4,0-0.2,0-0.7,0
	c0.3,1.3,0.5,2.7,0.8,4c0.4-0.1,0.9-0.1,1.3-0.2C254.4,191.7,254.3,190.4,253.2,189.1z"/>
<path d="M264.8,250.6c4,1.5,5.2,4.1,3.9,7.8c-2.4,0.6-4.7,1.3-7.9,2.1c-0.7-1.7-1.7-4-2.6-6.3C260.8,252.9,262.8,251.7,264.8,250.6z
	"/>
<path d="M258.9,232.2c0.9-0.7,1.9-1.4,3.7-2.8c0,3.6,0,5.9,0,8.3c-2.8,0.9-5.8,1.9-10.3,3.4c1.1-2.1,1.7-3.2,2.6-4.7
	c-0.6-0.9-1.3-1.9-2-3c0.5-0.9,1.2-2,1.8-3.1C256,230.9,257.4,231.6,258.9,232.2c0,0-0.2,0.2-0.3,0.3c0.5,0.6,1,1.1,1.4,1.7
	c0.2-0.2,0.4-0.4,0.6-0.6C260.1,233.1,259.5,232.6,258.9,232.2z"/>
<path d="M401.2,405.4c2.3-1.4,3.5-2.1,5.4-3.2c0.2-1.1,0.5-3,0.9-5.8c2.2,1.2,4,2.2,6,3.2c-3,2.4-3.8,4.5-0.4,6.4
	c-1.2,1.3-2.2,2.2-3.5,3.5C407.4,408.5,405,407.3,401.2,405.4z"/>
<path d="M454.3,410c2.2-1,3.7-1.6,5.7-2.5c0.7,0.7,1.8,1.8,3.1,3.1c-1.8,3.2-3.4,5.9-5,8.8C453.2,417.6,454.4,413.7,454.3,410z"/>
<path d="M444.1,412.2c0.6,0.9,1.2,1.6,2,2.4c-2.4,0.8-4.8,1.5-7.7,2.4c-0.4-0.3-1.3-1.2-2.3-2.1c1.1-3.1,2.3-6.1,3.6-9.5
	c2.3,1,4.2,1.7,6.6,2.8C445.8,409.3,445.3,410.5,444.1,412.2c-0.2-0.7,0-0.9,0.1-1c-0.5-0.6-1-1.1-1.4-1.7c-0.2,0.2-0.4,0.4-0.6,0.6
	C442.7,410.6,443.2,411.1,444.1,412.2z"/>
<path d="M443.7,420.9c-0.3,0.3-0.5,0.5-0.7,0.7c-0.2-0.5-0.5-0.9-0.6-1.4c0-0.2,0.4-0.4,0.6-0.7C443.2,420,443.5,420.5,443.7,420.9z
	"/>
<path d="M427,412.7c-2.4-0.6-4.7-1.3-7.6-2c0.7-0.9,1.6-1.7,1.9-2.7c0.3-1.2,0.1-2.6,0.1-4.4c2.6,0,5.1,0,7.9,0
	c0.1,0.8,0.5,1.8,0.3,2.6C428.8,408.5,427.8,410.8,427,412.7z"/>
<path d="M388.4,399c0-2.1,0-4.1,0-6.2c1.4-0.7,2.8-1.5,4.8-2.5c1.3,1.7,2.6,3.4,4.1,5.3c-2,1-3.4,1.6-4.6,2.1
	c0.8,1.4,1.5,2.8,2.3,4.3c-1,0.3-1.7,0.7-1.9,0.5C391.5,401.4,390,400.2,388.4,399z"/>
<path d="M388.6,399.2c-0.5,0.6-1,1.1-1.4,1.7c-0.2-0.2-0.4-0.4-0.6-0.6c0.6-0.5,1.1-1,1.7-1.4C388.4,398.9,388.5,399,388.6,399.2z"
	/>
<path d="M390.8,406.5c0.2-0.4,0.5-0.9,0.7-1.3c0.2,0.2,0.7,0.5,0.6,0.7c-0.1,0.5-0.4,0.9-0.6,1.4C391.3,407,391.1,406.8,390.8,406.5
	z"/>
<path d="M413.7,358.9c-2.6,2.9-2.6,2.9-8.8,2.4c0-1.3-0.1-2.6,0.1-3.9c0.1-0.4,1.2-1,1.6-0.8C408.7,357.1,410.8,357.9,413.7,358.9z"
	/>
<path d="M429.8,367.3c-1.8,0.6-3,1.1-4.2,1.5c0.8,1.4,1.6,2.7,2.3,4c-0.9,0.6-1.4,1.3-1.7,1.2c-2.1-0.7-4.1-1.6-6.7-2.7
	c1.6-2.4,3.3-5.1,5.6-8.5C427,364.6,428.1,365.7,429.8,367.3z"/>
<path d="M466.3,379.7c-3,0.9-5,1.6-7.4,2.3c0-3.3,0-7.2,0-11.2c3-1.7,5.4-0.4,7.8,2.6C466.5,375.5,466.4,378,466.3,379.7z
	 M464.6,375.8c0-0.3,0-0.7,0-1c-1.4,0-2.7,0-4.1,0c0,0.3,0,0.7,0,1C461.8,375.8,463.2,375.8,464.6,375.8z"/>
<path d="M437.8,374.3c4.3-0.9,0.1-6.9,5.2-7.6c1.1,0.5,2.7,1.1,5.1,2.1c0,3,0,6.3,0,9.6c-1.7-0.4-3.4-0.9-5.5-1.4
	c-0.9,0.4-2.5,1-4.8,2C437.8,376.7,437.8,375.5,437.8,374.3z"/>
<path d="M359.3,268.7c2.6,3.1,3.8,4.6,5.4,6.6c-1.5,1.6-2.5,2.8-3.6,4c-1.8-1.7-3.5-3.4-4.3-4.1C357.4,273.7,358,272.1,359.3,268.7z
	"/>
<path d="M349.6,284.5c0.3-0.3,0.5-0.5,0.7-0.7c0.2,0.5,0.5,0.9,0.6,1.4c0,0.2-0.4,0.4-0.6,0.7C350.1,285.4,349.9,284.9,349.6,284.5z
	"/>
<path d="M342.7,266.9c1.2-2.8,2.1-5.1,3.1-7.6c0.9,0.5,1.9,1,2.8,1.5c0.5-1.2,1-2.3,1.8-4.3c1.2,1.5,2.2,2.7,3.3,4.2
	c-1.9,2.2-3.7,4.3-5.5,6.3C346.7,266.9,345,266.9,342.7,266.9z"/>
<path d="M392.6,310.4c-0.1-1.2-0.1-2.4-0.1-5.6c2.4,3.4,3.7,5.2,5.4,7.6c-0.6,0.8-2,2.6-3.3,4.4c-0.2-0.6-0.5-1.1-0.7-1.7
	c-0.5,0.6-0.9,1.1-1.4,1.7c-1.3-0.9-2.6-1.7-4.5-2.9C389.8,312.5,391.2,311.5,392.6,310.4c0,0-0.2,0.2-0.3,0.3
	c0.5,0.6,1,1.1,1.4,1.7c0.2-0.2,0.4-0.4,0.6-0.6C393.9,311.3,393.3,310.8,392.6,310.4z"/>
<path d="M394.6,316.7c-0.5,0.6-0.9,1.1-1.4,1.7c-0.2-0.6-0.5-1.1-0.7-1.7C393.2,316.7,393.9,316.7,394.6,316.7z"/>
<path d="M378.2,296.1c3.3-0.2,6.7-0.4,8.4,4.4c-2.6,2.7-4.3,6.9-10.8,5.4C376.7,302.6,377.4,299.4,378.2,296.1z"/>
<path d="M370.2,296.6c-3.2-1.9-5.9-3.5-8.9-5.3c2.8-2.4,5.2-4.4,8-6.8c1.1,0.5,2.9,1.4,5.6,2.7c-1.6,1.4-2.9,2.4-4.7,3.9
	C370.2,292.2,370.2,294.2,370.2,296.6z"/>
<path d="M609.4,286c0.4,3.9-0.9,4.9-2.6,6.2c-2.7-1.5-5.7-3.1-8.8-4.9c2.4-2,4.4-3.7,6.9-5.8C606.6,283.1,608.8,285.1,609.4,286
	c-2.8-2.2-2.9-2.3-3-2.5c-0.6,0.5-1.1,1-1.7,1.4c0.2,0.2,0.4,0.4,0.6,0.6C605.8,285.1,606.3,284.5,609.4,286z"/>
<path d="M614.8,277.6c0-1.4,0-2.7,0-4.1c1.2,0,2.4,0,4.1,0c0-1.7,0-2.9,0-4.1c1.3,0.9,2.6,1.7,4.3,2.8
	C620.5,274.5,619.2,278.3,614.8,277.6z"/>
<path d="M614.8,273.5c-1.2,0-2.4,0-4.3,0c1.8-2.5,3-4.3,4.3-6.2c1.6,0.3,3.9-1,4.1,2.1C617.5,270.7,616.2,272.1,614.8,273.5z"/>
<path d="M614.6,267.5c-0.6-0.5-1.1-1-1.7-1.4c0.2-0.2,0.4-0.4,0.6-0.6c0.5,0.6,1,1.1,1.4,1.7C614.9,267.2,614.7,267.4,614.6,267.5z"
	/>
<path d="M575.7,318.7c-0.7-0.7-1.4-1.4-2.1-2.1c-0.5-1.8-1-3.6-1.5-5.5c1.8-0.6,4.1-1.3,7.1-2.2c1.4,1.5,3.3,3.6,6,6.6
	C581.4,316.8,578.5,317.8,575.7,318.7z M576,312.9c0.1,0.6,0.1,1.2,0.2,1.8c1.1-0.3,2.2-0.5,3.3-0.8c-0.1-0.3-0.1-0.7-0.2-1
	C578.3,312.9,577.2,312.9,576,312.9z"/>
<path d="M591.2,306.4c-1.5-2-2.6-3.5-4.4-6c0.8-1.3,2.2-3.9,3.5-6.1c2.8,2.7,5.3,5.1,8,7.7C597.3,306.5,594,307,591.2,306.4z"/>
<path d="M643.6,324.9c-0.7,0.7-1.4,1.4-2.1,2.1c-4.6,1-6.5-3.6-9.9-5.2c-3.5-1.7-5.8-6-8.7-9.2c1.5,0.5,3.3,0.6,4.5,1.5
	c4.2,3,8.2,6.3,12.6,9.7c2.8-3.9,5.1-7.2,7.4-10.4c-2.4-2.4-4.2-5.4-6.9-6.6c-5.1-2.3-8.3-6.3-11.4-10.6c1,0,2.5-0.4,2.9,0.1
	c5.7,7.1,15.2,10.1,19.7,18.5c-3.3,1.8-6.5,3.7-6.2,8.2C645,323.5,644.3,324.2,643.6,324.9z"/>
<path d="M623,312.6c-1.4,0-2.7,0-4.1,0c-0.7-0.7-1.4-1.4-2.1-2.1c-0.7-0.7-1.4-1.4-2.1-2.1c-0.7-0.7-1.4-1.4-2.1-2.1
	c0.7-2.1,1.4-4.1,2.1-6.2c0.7-0.7,1.4-1.4,2.1-2.1c2.5-2,5.1-4.1,8.3-6.7c1.3,1.5,2.7,3,4,4.6c-1.7,0-3.4,0-3.4,0
	c-3.4,3.4-6,6-9,9.1c1.8,1.3,4,2.9,6.3,4.6C623,310.5,623,311.6,623,312.6z"/>
<path d="M623,345.5c-6.6-6.3-13.3-12.5-19.8-18.9c-0.8-0.7-0.5-2.5-0.8-3.7c6.6,6.1,13.2,12.2,19.5,18c3-2.8,6.2-5.8,9.5-8.9
	c-2.3-1.7-4.3-3.3-6.4-4.9c-0.7-0.7-1.4-1.4-2.1-2.1s-1.4-1.4-2.1-2.1c-2.9-4.2-5.9-8.4-8.9-12.7c-3,3-5.8,5.5-8.2,8.3
	c-0.9,1.1-1,2.9-1.5,4.4c-1.4,0-2.7,0-4.1,0c0.2-1.2,0-2.9,0.7-3.7c4.4-4.4,9.1-8.6,13.7-12.8c0.7,0.7,1.4,1.4,2.1,2.1
	c0.7,0.7,1.4,1.4,2.1,2.1c0.7,0.7,1.4,1.4,2.1,2.1c5.4,6.6,10.9,13.1,16.1,19.4C631,336.5,627,341,623,345.5z"/>
<path d="M652.1,348c0.9-0.2,1.8-0.4,3.3-0.6c0.3-1.8,0.7-3.9,1-5.7c1.5,1,2.8,2,3.9,2.8C658.9,349.2,656.2,350.4,652.1,348z"/>
<path d="M658,337.3c0.7,0.7,1.4,1.4,2.1,2.1C659.4,338.6,658.7,337.9,658,337.3z"/>
<path d="M675.4,327c-1.8,3.6-3,6-4.6,9.2c-2-1.8-3.4-3-4.7-4.2C666.9,326.6,670.7,326.9,675.4,327z"/>
<path d="M641.5,353.7c0,1.2,0,2.4,0,4.1c1.7,0,2.9,0,4.1,0c0.9,4.2-3,5.4-4.7,7.7c-2.2-2.2-4.4-4.5-7-7.1
	C635.8,356.7,637.1,353.1,641.5,353.7z"/>
<path d="M680.6,318.7c-0.2-3.1-2.6-1.7-4.1-2.1c-0.6-1.1-1.3-2.2-2.2-3.8c1-1.9,2.2-4.3,3.5-7.1c3.1,2.1,5.6,3.9,8.4,5.9
	C684.5,313.7,684.8,317.8,680.6,318.7z M679.9,312.9c-0.4,0.2-0.9,0.5-1.3,0.7c0.2,0.2,0.5,0.7,0.7,0.6c0.5-0.1,0.9-0.4,1.4-0.6
	C680.4,313.4,680.2,313.1,679.9,312.9z"/>
<path d="M516.1,216.2c0.6-1.5,1.6-3.8,2.8-6.8c1.6,2.2,3,4.1,4.6,6.3c0.4-1.9,0.9-3.9,1.3-5.7c0.8-0.1,1.5-0.3,2.1-0.3
	c0.3,0,0.6,0.3,0.8,0.4c-0.2,1.2-0.6,2.4-0.5,3.6c0.1,1.1,0.9,2.2,1.3,3.2C524.5,219.4,520.6,216.7,516.1,216.2z"/>
<path d="M464.9,209.9c1.9,0,3.5,0,5.5,0c0,1.6,0,3.2,0,5.1c-1.4,0.7-3.3,1.7-5.5,2.8C464.9,215.1,464.9,212.6,464.9,209.9z"/>
<path d="M433.4,216.9c0.7-1.3,1.7-2.5,2-3.9c0.1-0.8-0.9-1.8-2.3-4c2.8,1,4.1,1.4,6,2.1c0.9-0.4,2.5-1,5.5-2.2
	c-2.2,3.6-4.1,6.1-1,9.1c-1.6-0.5-3.2-1-5-1.6c-0.9,0.5-2.2,1.3-3.6,2C434.5,217.8,433.9,217.4,433.4,216.9z"/>
<path d="M495.9,217.7c-2.7,0-4.3,0-6.6,0c0.3-2.9-1.1-5.9,2.7-9.5c0.7,2.5,0.9,3.9,1.4,5.1C493.9,214.6,494.7,215.7,495.9,217.7z"/>
<path d="M495,215.7c2.4-4.6,2.4-4.6,6.5-5.7c-0.8,1.5-1.4,2.7-2.1,4c0.7,1.1,1.4,2.1,2.8,4.5C499.2,217.3,497.3,216.6,495,215.7z"/>
<path d="M491.5,312.5c0-2.2,0-3.8,0-5.8c2.7,0,5.2,0,8.1,0C499.4,312,496.3,312.8,491.5,312.5z"/>
<path d="M503.7,347.5c-2.4,0.9-4.7,1.9-6.9,2.7c-0.7-1.2-1.4-1.8-1.3-2.3c0.4-3.5-1.6-7.7,3.1-10.5
	C500.1,340.5,501.8,343.7,503.7,347.5z M499.6,346.5c-0.2-0.2-0.5-0.7-0.7-0.6c-0.5,0.1-0.9,0.4-1.4,0.6c0.2,0.2,0.5,0.7,0.7,0.6
	C498.7,347.1,499.1,346.8,499.6,346.5z"/>
<path d="M475.8,294.9c-1.4,3.7-2,5.3-2.5,6.8c0.5,0.5,1,1,1.5,1.5c-0.9,0.9-1.7,1.8-2.6,2.8c-1.8-0.9-3.7-1.8-5.6-2.7
	c0.6-0.6,1-1,1.7-1.7c-0.6-1.4-1.3-3-2.5-5.9c1.9,0.9,2.6,1.2,3.8,1.7C470.6,297.1,472.1,296.4,475.8,294.9z"/>
<path d="M463.6,333.2c2.1,0,4.1,0,6.6,0c0,3.2,0,6.4,0,10.5c-1.5-0.5-2.9-0.9-5-1.5c-0.8,0.3-2.3,0.9-4.3,1.6
	c-0.2-1.5-0.7-2.6-0.4-3.4C461.3,338.2,462.3,336.1,463.6,333.2z M465.9,339c0.3-0.3,0.5-0.5,0.7-0.7c-0.5-0.2-0.9-0.5-1.4-0.6
	c-0.2,0-0.4,0.4-0.7,0.6C465,338.5,465.5,338.8,465.9,339z"/>
<path d="M467.4,330.8c-0.3-0.3-0.5-0.5-0.7-0.7c0.5-0.2,0.9-0.5,1.4-0.6c0.2,0,0.4,0.4,0.7,0.6C468.2,330.3,467.8,330.6,467.4,330.8
	z"/>
<path d="M629.2,372.2c-1.5,5.4-1.5,5.4-7.3,6c-0.3-0.5-0.6-1-0.9-1.6c-0.2-0.6-0.3-1.2-0.6-2.4c-1.1,0-2.3,0-3.5,0
	c1.5-5.4,1.5-5.4,7.6-6.1c0.4,1.1,0.7,2.3,1.3,4C626.7,372.2,628,372.2,629.2,372.2z"/>
<path d="M248.7,174.4c0-2.7,0-5,0-7.6c3.1,0,6.1,0,9.8,0c0.1,2.2,0.2,4.7,0.4,7.6C255.5,174.4,252.5,174.4,248.7,174.4z
	 M252.9,169.3c0.2,0.4,0.5,0.9,0.7,1.3c0.2-0.2,0.7-0.5,0.6-0.7c-0.1-0.5-0.4-0.9-0.6-1.4C253.4,168.8,253.2,169,252.9,169.3z"/>
<path d="M711.2,173.7c0.6-1.4,1.2-2.7,1.9-4.4c-0.3-0.3-0.9-1.1-2.1-2.4c3.7-0.2,6.8-0.3,10.4-0.5c0,2.9,0,5.5,0,8.1
	c-1.3,0-2.2,0-3.3,0c-0.3-2-0.6-3.9-0.9-6.2c-1.7,2.5-3,4.6-4.4,6.6C712.3,174.5,711.8,174.1,711.2,173.7z"/>
<path d="M715.6,240.5c-0.6,1.1-1.2,2.1-1.7,3c0.7,1.3,1.4,2.6,2.3,4.3c-2.8,0.7-5.3,2.7-6.8-1.2c0,0,0.2,0.2,0.3,0.3
	c0.6-0.5,1.1-1,1.7-1.4c-0.2-0.2-0.4-0.4-0.6-0.6c-0.5,0.6-1,1.1-1.3,1.8c-1.9-0.5-3.9-1.2-8.1-2.5c3.3-1.3,4.8-1.9,7.4-2.9
	c-0.6-0.3,0.7,0.4,1.5,0.8C712.1,241.5,713.9,241,715.6,240.5z"/>
<path d="M709.8,216c3.3,0,6.3,0,9.3,0c1.6,3.3,0.9,5.9-2.7,7.9c-1.7,0-4,0-6.6,0C709.8,221.4,709.8,219.2,709.8,216z M715.4,219.8
	c0.1,0.1,0.3,0.3,0.4,0.4c0.6-0.5,1.1-1,1.7-1.4c-0.2-0.2-0.4-0.4-0.6-0.6c-0.5,0.6-1,1.1-1,2.1C715.7,220,715.6,219.9,715.4,219.8
	c-0.5,0.4-1.1,0.9-1.7,1.4c0.2,0.2,0.4,0.4,0.6,0.6C714.9,221.3,715.4,220.7,715.4,219.8z"/>
<path d="M520.3,335.8c0.6-0.5,1.9-1.6,3.7-3c1.3,1,3.3,1.9,4.2,3.5c1,1.8,1,4.2,1.5,6.8c-4.1,3.2-4.1,3.2-9.1-0.2
	C523.9,340.6,519.7,338.8,520.3,335.8z M526,342.7c-0.2-0.4-0.5-0.9-0.7-1.3c-0.2,0.2-0.7,0.5-0.6,0.7c0.1,0.5,0.4,0.9,0.6,1.4
	C525.5,343.2,525.7,343,526,342.7z"/>
<path d="M447.8,339.2c-0.6,0.4-1.4,0.9-2.5,1.7c-1.3-0.5-2.9-1.2-4.9-2.1c0-2.9,0-6.1,0-9.5c2.5,0,4.8,0,7.5,0
	C447.8,332.6,447.8,336,447.8,339.2z M442.3,333.5c0.1,0.6,0.1,1.2,0.2,1.8c1.1-0.3,2.2-0.5,3.3-0.8c-0.1-0.3-0.1-0.7-0.2-1
	C444.5,333.5,443.4,333.5,442.3,333.5z"/>
<path d="M396.7,257c0.8,1.1,1.4,2.5,2.4,3.3c1.1,0.9,2.6,1.2,5.1,2.2c-2.3,2-3.9,3.4-6.2,4.7c-0.2,0,0.4,0,1-0.1
	c-0.3-1.3-0.5-2.7-0.8-4c-0.4,0.1-0.9,0.1-1.3,0.2c0.1,1.3,0.2,2.6,1.1,3.9c-0.1,1.3-0.9,2.6-2.5,4.9c-0.4-2.6-0.7-4.2-1.1-6.2
	c-1.1-0.5-2.5-1.1-4.1-1.8C394.4,263.4,395.1,259.9,396.7,257z"/>
<path d="M530.5,302c0.9-1.8,1.8-3.7,2.8-5.7c1.6,0,3.2,0,5.2,0c0,1.2,0.3,2.3-0.1,3C536.6,302.4,533.7,303,530.5,302z"/>
<path d="M549,331c-1.2-0.8-2.3-1.7-3.6-2.8c1.4-1.4,3.1-3.2,4.8-4.9c0.7,0.4,1.7,1,2.8,1.6c0.1,2.6-0.8,5.4,2,7.3
	c-2,2.6-4.4,4.2-8.5,2C547.4,333.1,548.2,332.1,549,331c0,0-0.2,0.2-0.3,0.3c0.5,0.6,1,1.1,1.4,1.7c0.2-0.2,0.4-0.4,0.6-0.6
	C550.2,331.8,549.7,331.4,549,331z"/>
<path d="M561.3,281.7c-1.5,5.4-1.5,5.4-7.6,6.1c-0.4-1.1-0.7-2.3-1.3-4c-1,0-2.3,0-3.5,0c1.5-5.4,1.5-5.4,7.6-6.1
	c0.4,1.1,0.7,2.3,1.3,4C558.8,281.7,560.1,281.7,561.3,281.7z"/>
<path d="M647.7,298.2c-0.8-3.2-3-4.4-6.2-4.1c1.5-2.8,3-5.5,4.5-8.3c2.7,1.9,5,3.6,7.1,5.2c-0.5,1.9-1.2,4.2-2,7.2
	C650.2,298.2,649,298.2,647.7,298.2z"/>
<path d="M431.3,290.8c2,1.9,2.8,2.6,4.7,4.4c-0.8-3-1.2-4.6-1.8-6.7c2.2,0,4.9,0,7.7,0c-1,3.3-1.9,6.3-2.7,9.3
	C433.2,297.5,433.2,297.5,431.3,290.8z"/>
<path d="M376.1,240.5c2.1-0.6,4.1-1.3,6.9-2.1c1.2,1.8,2.7,3.9,4.2,6c-1.6,1.5-4.3,3.9-7,6.4c-1.6-1.9-1.6-2.8-0.2-5.4
	C377.8,244.5,374.8,244.2,376.1,240.5z"/>
<path d="M371.7,251.6c-0.2,0.4-0.5,0.9-0.7,1.3c-0.2-0.2-0.7-0.5-0.6-0.7c0.1-0.5,0.4-0.9,0.6-1.4
	C371.2,251.1,371.4,251.3,371.7,251.6z"/>
<path d="M419.2,320.8c4.4-1,5.5,3.1,8.2,5c-1.7,2.6-3.3,5.1-5.6,8.5c-2.1-2.3-3.7-3.9-6.1-6.5c3.5-0.6,5.6-1,9-1.7
	c-2.5-0.8-3.7-1.2-5.3-1.7C419.4,323.3,419.3,322.1,419.2,320.8z"/>
<path d="M590.8,249.4c-1.5,3-2.7,5.4-4.2,8.6c-2.7-2.4-4.8-4.3-7.4-6.7c1.3-1.7,2.4-3.2,3.7-4.9
	C585.3,247.4,587.6,248.3,590.8,249.4z"/>
<path d="M413.1,275.5c3.9,0,6.5,1.9,8.7,4.3c-0.4,0.6-0.8,1.1-1.2,1.7c-0.9-0.5-1.8-1.1-4-2.4c1.1,3,1.8,4.9,2.6,6.7
	c-2.7-0.8-5.4-1.6-8.9-2.7c1.2-1.5,2-2.5,2.9-3.5c0,0-0.2,0.2-0.3,0.3c0.5,0.6,1,1.1,1.4,1.7c0.2-0.2,0.4-0.4,0.6-0.6
	c-0.6-0.5-1.1-1-1.8-1.3C413.1,278.3,413.1,276.9,413.1,275.5z"/>
<path d="M604.5,339.3c-0.6,1.1-1.2,2.2-2,3.4c1.1,0.4,2.3,0.8,2.7,0.9c-1.4,1.4-3.1,3.1-4.4,4.5c0-0.3-0.4-2.1-0.8-4.6
	c-1.8,0-3.7,0-5.7,0c0.9-1.3,1.8-2.7,2.8-4.2c0.9,0.7,1.6,1.3,2.4,2c0.6-1.3,1.2-2.7,1.8-3.9C602.3,338.1,603.4,338.7,604.5,339.3z"
	/>
<path d="M478.8,180.6c-1.8-3.6-2.7-5.5-3.6-7.4c3.9-0.6,7.7-1.1,9.8-1.4c2,0.7,3.7,1.3,6.6,2.4c-3.8,2.2-5.6,3.3-7.6,4.4
	c-0.5-1.1-1.2-2.5-1.8-3.8C481.3,176.3,480.4,177.7,478.8,180.6z"/>
<path d="M631.1,308.9c3.6-3.3,6.8-0.2,10.9,2.8c-2.9,1.8-5.4,3.3-8.1,4.9C634.3,312.4,629.3,311.5,631.1,308.9
	c2.2,2.7,2.2,3.3,2.3,3.9c1.3-0.3,2.7-0.5,4-0.8c-0.1-0.4-0.1-0.9-0.2-1.3C635.9,310.7,634.6,310.9,631.1,308.9z"/>
<path d="M631,303c-0.2,0.4-0.5,0.9-0.7,1.3c-0.2-0.2-0.7-0.5-0.6-0.7c0.1-0.5,0.4-0.9,0.6-1.4C630.5,302.5,630.7,302.7,631,303z"/>
<path d="M623,324.9c0.7,0.7,1.4,1.4,2.1,2.1c-1.6,2-3,4.2-4.9,5.8c-1.2,1-3.2,0.8-3.4-1.8c0,0,0.2,0.2,0.3,0.3
	c0.6-0.5,1.1-1,1.7-1.4c-0.2-0.2-0.4-0.4-0.6-0.6c-0.5,0.6-1,1.1-1.3,1.8c-1.3-0.9-2.6-1.9-4.3-3.1c2.7-1.1,5.7-1.4,4.4-5.1
	c1.4,0,2.7,0,4.1,0C621.6,323.5,622.3,324.2,623,324.9z"/>
<path d="M616.7,323.1c-0.6-0.5-1.1-1-1.7-1.4c0.2-0.2,0.4-0.4,0.6-0.6c0.5,0.6,1,1.1,1.4,1.7C616.9,322.8,616.8,322.9,616.7,323.1z"
	/>
<g>
</g>
<g>
</g>
<g>
</g>
<g>
</g>
<g>
</g>
<g>
</g>
<g>
</g>
<g>
</g>
<g>
</g>
<g>
</g>
<g>
</g>
<g>
</g>
<g>
</g>
<g>
</g>
<g>
</g>
</svg>
