<?xml version="1.0" encoding="utf-8"?>
<!-- Generator: Adobe Illustrator 20.1.0, SVG Export Plug-In . SVG Version: 6.00 Build 0)  -->
<svg version="1.1" id="Layer_1" xmlns="http://www.w3.org/2000/svg" xmlns:xlink="http://www.w3.org/1999/xlink" x="0px" y="0px"
	 viewBox="0 0 378 396" style="enable-background:new 0 0 378 396;" xml:space="preserve">
<style type="text/css">
	.st0{fill:none;stroke:#000000;stroke-width:2;stroke-linecap:round;stroke-linejoin:round;stroke-miterlimit:10;}
</style>
<g>
	<path d="M71,229.2c2.2,0.3,4.8,0.6,7.2,0.9c0.9,2.6,2.6,4.7,0.3,7c0.7,1.3,1.4,2.7,2.3,4.3c-1,1.5-2.1,3.2-3.2,4.8
		c-2.9,0-5.5,0-8.5,0c-0.5-0.7-1.2-1.6-2.3-3.1c0-0.4-0.1-1.7,0-3c0.2-1.2,0.9-2.4,0.9-3.5c0-1.2-0.7-2.3-1.1-3.3
		C67.9,232,69.1,230.9,71,229.2z M73.8,243.5c0.3-0.2,0.6-0.3,0.9-0.5c-0.1-1.3-0.2-2.5-0.3-4.5c-1.4,1.2-2.1,1.8-3.3,2.8
		C72.2,242.2,73,242.9,73.8,243.5z M74.6,232.8c-1,1.2-3.1-0.7-2.8,2.4c0.9,0,1.8,0,2.8,0C74.6,234.6,74.6,234.1,74.6,232.8z"/>
	<path d="M71.9,122.2c-4.4-1.5-5.5-4.3-5.2-8c0.1-1.8,0-3.6,0-5c1.1-2.3,2-4.4,4.7-4.1c2-2.3,3.7,1.2,5.7,0.3
		c0.8,0.8,1.6,1.6,2.5,2.5c0,1-0.4,2.3,0.1,2.9c2.1,2.5,0.3,4.7,0,7.1c-0.2,1.6-1.4,2.2-2.2,3C75.7,122.5,73.4,122.3,71.9,122.2z
		 M71.8,117.2c0.8,0.4,1.7,0.8,2.8,1.3c0-3.3,0-6,0-8.7c-0.5-0.5-0.9-0.9-1.4-1.4c-0.4,0.5-0.8,1-1.4,1.6
		C71.8,112.1,71.8,114.5,71.8,117.2z"/>
	<path d="M295.7,105.3c0.9,1.7,1.6,3,2.3,4.2c-1.8,4.6-1.9,4.8-6.2,7.4c2,0.8,3.9,0.2,5.8,0.5c0.5,1.7,0.8,3.4-1.1,4.8
		c-4,0-8,0-12,0c-0.2-0.2-0.4-0.3-0.4-0.4c0-1,0-2,0-3.2c2.5-2.5,5.2-5.2,8-7.9c0-0.7-0.1-1.4-0.1-2.4c-0.8,0.2-1.4,0.2-1.6,0.4
		c-0.6,0.9-1,1.9-1.5,2.8c-1.7-0.6-3.2-1.1-4.8-1.6c0.8-2.4,1.6-4.8,4.9-4.7C291.3,102.7,293.4,106.2,295.7,105.3z"/>
	<path d="M187.1,299.7c2.2,3.3,2.2,5.9,0.2,9c-2.3,1.7-5.7,0.9-9.1,1.1c-1-1.4-2.1-2.9-3.2-4.3c-0.4-4.8-0.4-9.3,4.7-12.4
		c1.2,0,3,0,4.7,0c1.5,1.2,4.3,1.3,3.3,4.5c-2.1,0.8-4.1,0.4-6.4-1.1c-0.2,0.9-0.3,1.4-0.5,2C183.1,298.9,185.2,299.3,187.1,299.7z
		 M181.3,306.9c2.2-0.5,2.6-1.8,2.4-3.6c-0.5-0.5-1.2-1.1-2.1-1.9c-0.7,1.2-1.2,2.1-1.6,2.9C180.4,305.1,180.8,305.9,181.3,306.9z"
		/>
	<path d="M58.5,182.8c-2.2,0.2-5.3,0.2-7.5-2.4c0-0.8,0-1.6,0-2.8c2.1,0.3,4.1,0.5,6.7,0.8c0-0.1,0.5-0.7,0.9-1.4
		c-1.5,0-3.3,0-5.3,0c-1.2-1.8-2.4-3.5-3.4-5c0.5-4.6,3.5-6.1,7-7.1c1,0.4,2.2,0.8,4,1.4c0.6,0.6,1.8,1.8,3,3.1c0,1.7-0.1,3.5,0,5.3
		C64,178.4,63,181.3,58.5,182.8z M58.6,172.5c0.4-2.1-0.2-3.2-1.4-3.1c-1,0.3-1.9,0.6-2.8,0.9c0.8,1.6,1.4,2.6,2.1,4
		C57.5,173.5,58.2,172.9,58.6,172.5z"/>
	<path d="M241.9,291.9c-2.1-2.2-2.1-2.2-2.5-4.8c1.4-0.1,2.8-0.2,4.2-0.3c1.1,0.8,2.1,1.6,3.6,2.7c0.1-2.1,0.2-3.7,0.3-5.7
		c-2.7,0.5-5.1,0.9-7.5,1.3c-1-2-0.4-3.5,0.4-5.1c0.7-1.5-0.6-3.7,1.6-4.9c3.3,0,6.7,0,10.3,0c0,1.2,0,2.3,0,3.6
		c-0.3,0.3-0.8,0.8-1.4,1.4c-1.6,0-3.4,0-5.1,0c0,0.2-0.1,0.3-0.1,0.5c0.6,0.1,1.2,0.3,1.8,0.4c0.8,0.1,1.6,0,2.9,0
		c1.1,1.6,2.3,3.4,3.7,5.4c-1.4,2-2.6,3.8-3.6,5.5C247.1,291.9,244.5,291.9,241.9,291.9z"/>
	<path d="M191.3,39.9c1.5,1.1,3,2.2,4.4,3.2c-0.2,4.7-1.6,6.8-6.5,9.4c1.5,0.1,2.4,0.2,3.3,0.2c1,0,1.9,0,3,0c0,1.3,0,2.4,0,4
		c-2.1,0-4.4,0-6.6,0c-2.3,0-4.6,0-7,0c0-1,0-1.8,0-2.6c2.8-2.8,5.8-5.8,8.8-8.8c-0.7-0.6-1.3-1.1-2.3-2c-0.5,1.1-0.7,1.7-1,2.4
		c-1.7,0-3.5,0-5.3,0C182.8,40.8,184.3,39.8,191.3,39.9z"/>
	<path d="M280.2,238.9c2.7-3.2,5.5-6.3,8.2-9.4c1.5,0,2.9,0,4.5,0c0,3.2,0,6.3,0,9.5c0.6,0.1,1,0.2,1.9,0.4c0.1,1.1,0.1,2.3,0.2,3.6
		c-0.7,0.1-1.1,0.2-1.8,0.4c-0.1,0.8-0.3,1.7-0.4,2.7c-1.5,0-2.9,0-4.5,0c0-0.7,0-1.5,0-2.6c-2.7,0-5.3,0-8,0
		C280.2,241.7,280.2,240.3,280.2,238.9z M287.8,236.5c-0.2-0.1-0.5-0.1-0.7-0.2c-0.4,0.9-0.8,1.7-1.3,2.9c1,0,1.4,0,2,0
		C287.8,238.3,287.8,237.4,287.8,236.5z"/>
	<path d="M309.8,166.4c0.5,0.5,1.2,1.2,2.2,2.2c-0.3,1.3-0.6,2.9-1.1,4.9c0.5,0.1,1.6,0.4,1.8,0.5c0,2.4,0,3.7,0,5.5
		c-1.2,0.9-2.7,2-4,3.1c-6.7,0.3-7,0.2-9.6-4.1c0.7-2.1,2.5-1.6,4.4-1.6c0.3,0.6,0.7,1.6,0.8,1.9c1.7,0,2.5,0,3.4,0
		c0-0.9,0-1.7,0-2.6c-1.9-0.3-4.4-0.2-3.8-3.6c0.9-1,3.2-0.8,2.9-3.2c-1.8-1.2-2.3,1-3.4,1.6c-1.6,0-3.3,0.6-4.2-1.2
		c1.1-1.1,2.3-2.2,3.7-3.6c0.6-0.2,1.7-0.6,3-1C306.9,165.3,308.1,165.8,309.8,166.4z"/>
	<path d="M117,291.8c-1.5,0-2.9,0-4.4,0c-1.1-4.6,1.6-8,3.8-11.7c-2.4,0-4.5,0-6.8,0c0-1.7,0-3.3,0-4.9c4.1,0,8.2,0,12.6,0
		c0.4,0.8,0.9,1.8,1.2,2.4c-1.8,2.9-3.7,5.2-4.9,7.9C117.6,287.2,117.5,289.3,117,291.8z"/>
	<path d="M103.8,73.4c-0.3-0.3-0.8-0.8-1.4-1.4c0-2.6,0-5.3,0-8.6c-1.2,0.5-2.2,0.8-3.4,1.3c-0.4-0.5-0.9-1.2-1.4-1.9
		c0-0.5,0-1.1,0-1.7c0.5-0.5,1-1,1.4-1.4c0.6,0,1.3,0,2,0c1.3-1.3,2.5-2.6,4.1-4.2c1,0.3,2.1,0.7,3.3,1c0,5.5,0,10.5,0,15.6
		c-0.3,0.3-0.7,0.7-1.2,1.2C106.2,73.4,105.1,73.4,103.8,73.4z"/>
	<path d="M119.4,55.5c0.9,0.5,1.9,0.9,2.7,1.3c0,5.4,0,10.4,0,15.4c-1.9,2-3.7,1.9-5.9,0c0-2.6,0-5.5,0-8.9
		c-1.3,0.6-2.1,0.9-3.2,1.5c-0.5-0.5-1.2-1.1-1.9-1.7c0.3-0.5,0.4-1.1,0.7-1.3C114.2,59.8,116.6,57.9,119.4,55.5z"/>
	<path d="M60.6,104.1c1.1,0.5,2.1,0.9,3.1,1.3c0,5.3,0,10.3,0,15.5c-0.3,0.3-0.8,0.8-1.3,1.3c-1.6,0.1-3.3,0.5-4.5-1.4
		c0-2.5,0-5.2,0-8.5c-1.4,0.4-2.4,0.8-3.8,1.2c-0.1-1.7-0.2-3.2-0.2-4.9c1,0,1.7,0,2.4,0C57.6,107.1,58.8,105.8,60.6,104.1z"/>
	<path d="M252.2,56.8c0,5.8,0,11.2,0,16.7c-1.5,0-2.9,0-4.7,0c0-3,0-6.2,0-10c-1.9,0.5-3.3,0.8-4.9,1.2c0-1.3,0-2.5,0-3.6
		c2.2-1.8,4.3-3.5,6.8-5.5C250.1,55.9,251.2,56.3,252.2,56.8z"/>
	<path d="M174.1,40c1.5,0,2.4,0,3.6,0c0,5.6,0,11.1,0,16.7c-1.6,0-3,0-4.8,0c0-3.2,0-6.4,0-9.8c-1.7,0.8-3,1.5-4.7,2.4
		c-0.1-1.9-0.2-3.4-0.3-5.2c0.9,0,1.7,0,2.4,0C171.6,42.6,172.9,41.3,174.1,40z"/>
	<path d="M138,95.1c-0.5,0.5-1,0.9-1.6,1.5c-3.2-1-3-4.5-4.9-6.5c-1.8-1.9-2.4-4.8-4.2-7.1c-1.7-2.1-2.5-4.9-4.2-8.4
		c0.2-0.2,0.9-0.9,2-1.8C129.7,80.6,133.8,87.8,138,95.1z"/>
	<path d="M227.6,97.1c-1.1-1.1-1.5-1.6-1.9-2c4.1-7.1,8.2-14.3,12.5-21.7c0.8,0.6,1.6,1.2,2.4,1.8C236,82.4,232.5,89.9,227.6,97.1z"
		/>
	<path d="M225.7,254.6c0.4-0.5,0.9-1,1.3-1.6c3.3,0.9,3.2,4.5,5,6.5c1.7,2,2.5,4.8,4.2,7.1c1.7,2.1,2.5,4.8,4,7.8
		c-0.3,0.3-1,1.1-1.9,2.2C234,269,229.9,261.9,225.7,254.6z"/>
	<path d="M135.8,252.5c1.1,1,1.6,1.4,2.2,2c-4.1,7.2-8.3,14.4-12.6,21.9c-0.8-0.7-1.5-1.2-2.3-1.9
		C127.3,267.3,131.4,260.1,135.8,252.5z"/>
	<path d="M261,130.4c-0.7-0.6-1.1-1.1-1.6-1.5c0.1-0.2,0.2-0.5,0.3-0.7c2.7-2.6,6.2-4,9.4-5.9c3.2-2,6.6-3.9,10.3-6.1
		c0.6,0.3,1.5,0.7,3.2,1.5C275,122.1,268,126.3,261,130.4z"/>
	<path d="M260.4,222.3c0-1.2,0-2,0-3.4c7.5,4.4,14.6,8.6,22.2,13c-1.4,0.7-2.4,1.2-3,1.6C272.9,229.6,266.7,226,260.4,222.3z"/>
	<path d="M83.4,233.7c-0.8-0.8-1.3-1.3-2-2c7.2-4.2,14.3-8.4,21.8-12.8c0,1.4,0,2.1,0,3.4C96.8,226,90.2,230.1,83.4,233.7z"/>
	<path d="M81.4,117.9c0.7-0.7,1.1-1.1,2-2c6.7,3.3,13,7.7,19.9,11.1c0,1.1,0,2,0,3.6C95.7,126.3,88.6,122.1,81.4,117.9z"/>
	<path d="M181,265.2c0.6,0,1.1,0,1.6,0c0,8.6,0,17.1,0,25.6c-0.6,0-1.1,0-1.6,0C181,282.2,181,273.7,181,265.2z"/>
	<path d="M182.6,84.4c-0.6,0-1,0-1.7,0c0-8.6,0-17,0-25.6c0.6,0,1,0,1.7,0C182.6,67.4,182.6,75.9,182.6,84.4z"/>
	<path d="M272.2,175.6c0-0.6,0-1,0-1.7c8.2,0,16.4,0,24.6,0c0,0.6,0,1,0,1.7C288.6,175.6,280.4,175.6,272.2,175.6z"/>
	<path d="M91.4,174c0,0.6,0,1.1,0,1.6c-8.2,0-16.4,0-24.6,0c0-0.6,0-1.1,0-1.6C75.1,174,83.2,174,91.4,174z"/>
	<path d="M201.8,272.3c0.4-0.1,0.8-0.2,1.5-0.4c1.2,5.3,2.3,10.5,3.5,15.8c-0.8,0.1-1.3,0.1-1.8,0.1
		C203.9,282.7,202.8,277.6,201.8,272.3z"/>
	<path d="M249.3,267.1c0,0.4-0.1,1.2-0.2,2.6c-3.5-4.9-6.6-9.1-9.9-13.7c0.4-0.3,0.8-0.6,1.3-1C243.5,259,246.3,263,249.3,267.1z"/>
	<path d="M152,80.4c-0.6,0.1-0.9,0.1-1.6,0.2c-1.7-5.1-3.3-10.3-5-15.6c0.1,0,0.5-0.2,1.4-0.5C148.5,69.7,150.2,74.9,152,80.4z"/>
	<path d="M161.9,77.5c-0.6,0.1-1,0.1-1.5,0.2c-1.2-5.2-2.3-10.4-3.5-15.7c0.8-0.1,1.2-0.1,1.8-0.2C159.7,66.9,160.8,72,161.9,77.5z"
		/>
	<path d="M194.7,289.8c-0.8,0-1.2,0-1.7,0c-0.1-2.5,0.2-5-0.5-7.3c-0.7-2.3-0.9-4.6-0.9-7c0-0.5,0.1-0.9,0.2-1.5
		c1.6,1.6,1.9,3.4,1.8,5.4c-0.1,2.2-0.4,4.4,0.9,6.5C195.2,287,194.7,288.5,194.7,289.8z"/>
	<path d="M217.2,64.8c0.2,3.1-3.4,13.5-5.3,15.6C211.8,77.4,215.3,66.9,217.2,64.8z"/>
	<path d="M218.1,284.9c-0.3,0-0.6,0-1.2,0.1c-1.5-5.1-4.5-9.9-4.2-16.8c1,1.9,1.6,2.8,1.9,3.8c0.4,1,0.2,2.2,0.7,3.1
		c0.6,1.1-0.3,2.6,1.2,3.5c0.5,0.3,0.2,1.9,1,3C218.1,282.4,217.9,283.8,218.1,284.9z"/>
	<path d="M146.5,284.8c-0.2-3.1,3.4-13.5,5.3-15.6C151.9,272.3,148.3,282.8,146.5,284.8z"/>
	<path d="M221.3,265.7c4.3,1.4,3.5,5.2,5.1,7.4c1.5,2.1,2.2,4.9,3.5,7.9c-2.1-1.6-3.9-3.8-5-7.2C224,271.3,222.9,268.8,221.3,265.7z
		"/>
	<path d="M142.7,84.1c-1.5-0.6-2.4-0.7-2.5-1.1c-2-4.7-4.7-9-5.7-14.1C138.4,72.9,139,78.6,142.7,84.1z"/>
	<path d="M168.9,59.7c0.8,0,1.1,0,1.9,0c0.1,2.7-0.6,5.6,0.2,8c1,2.7,0.7,5.2,0,7.9c-0.4-1.6-1-3.2-1.1-4.8c-0.2-2.5,0.2-5-1-7.5
		C168.5,62.5,168.9,61.2,168.9,59.7z"/>
	<path d="M115.6,268.2c-0.5-0.2-0.9-0.4-1.5-0.7c3-4.2,5.9-8.2,8.9-12.4c0.3,0.1,0.8,0.2,1.7,0.4C121.5,259.9,118.6,264,115.6,268.2
		z"/>
	<path d="M114.3,82.4c0-0.4,0.1-1,0.2-2.3c3.5,4.8,6.7,9.2,9.8,13.5c-0.7,1.3-1.2,1.3-2.1,0.1C119.8,90,117.2,86.5,114.3,82.4z"/>
	<path d="M287,222.3c-5.2-0.5-8.9-4.2-13.7-5.2c-0.5-0.1-0.8-0.8-1.4-1.3C275.7,215.7,283.9,219.3,287,222.3z"/>
	<path d="M203.7,76c-0.8,0.8-1.1,1.1-1.5,1.5c-0.2-0.2-0.6-0.4-0.6-0.6c0.3-2.6,0.3-5.5,1.3-7.9c0.6-1.5,0.3-2.8,0.7-4.1
		c0.3-1.1,0.9-2.1,1.7-3.9C206.3,66.7,203.1,71.2,203.7,76z"/>
	<path d="M267.2,98c-3.7,3.4-7.3,6.9-11,10.3c-0.1,0.1-0.3,0-0.5,0c-0.2-0.2-0.4-0.5-0.8-1c0.6-0.6,1-1.6,1.8-2
		c3.9-1.9,5.9-6.1,9.7-8.1C266.8,97.5,267,97.8,267.2,98z"/>
	<path d="M107.8,108.3c-3.4-2.1-9.9-8.7-11.3-11.5c1.1-0.6,1.3,0.5,1.7,0.9c3.2,2.7,5.5,6.3,9.3,8.3
		C108.4,106.5,109,107.5,107.8,108.3z"/>
	<path d="M255.4,241.2c4.9,2.6,7.8,7,11.7,10.5c0.2,0.2-0.1,0.9-0.1,1.5c-4-3.6-7.9-7.1-11.7-10.6
		C255.1,242.4,255.3,242,255.4,241.2z"/>
	<path d="M240.5,94.7c-0.5-0.4-0.9-0.7-1.3-1c3-4.1,5.9-8.1,8.9-12.2c0.3,0.1,0.8,0.3,1.5,0.6C246.6,86.2,243.7,90.3,240.5,94.7z"/>
	<path d="M227.8,68.6c0.1,6.1-3.6,10.7-5.8,17.1c-0.3-1.7-0.6-2.2-0.5-2.6C223.6,78.3,225.7,73.5,227.8,68.6z"/>
	<path d="M135.9,280.9c-0.6-5.5,3.6-9.5,4.6-14.8c0.5,0.1,1.1,0.2,1.9,0.4C140.2,271.4,138,276.1,135.9,280.9z"/>
	<path d="M157.8,287.6c0.8-4.7,1.7-9.5,2.5-14.4c0.3-0.3,0.8-0.7,1.9-1.7c-0.8,6.1-1.8,11.3-3.4,16.4
		C158.4,287.8,158.1,287.7,157.8,287.6z"/>
	<path d="M291,209.8c-0.2,0.8-0.2,1.1-0.4,1.8c-4.9-1.9-10-2.9-14.6-5.6C281.4,206,285.8,209,291,209.8z"/>
	<path d="M87.2,144.1c-5.1-0.8-9.6-3.3-14.7-4.4c0.2-0.7,0.3-1.1,0.5-1.8c5,1.7,9.8,3.4,14.6,5C87.5,143.4,87.4,143.8,87.2,144.1z"
		/>
	<path d="M84.5,194.7c0.1,0.7,0.1,1,0.2,1.5c-4.9,1.1-9.7,2.2-14.7,3.3c-0.1-0.6-0.1-1-0.2-1.7C74.5,196.8,79.3,195.8,84.5,194.7z"
		/>
	<path d="M279.2,154.9c-0.1-0.6-0.1-1-0.2-1.5c4.9-1.1,9.7-2.2,14.6-3.3c0.1,0.3,0.2,0.7,0.6,1.6
		C289.1,152.8,284.3,153.8,279.2,154.9z"/>
	<path d="M280.2,165c2.4-1.8,5-2.1,7.7-2.2c2.6,0,5.2-0.6,7.9-1c0,0.8,0,1.3,0,1.7c-2.6,1.1-5.4-0.2-8.1,0.8
		C285.5,165.3,282.8,164.9,280.2,165z"/>
	<path d="M84.1,185.1c-3.1,1.4-5.7,1.7-8.4,1.7c-2.6,0-5.2,0.6-7.9,1c0-0.8,0-1.3,0-2.1C73.1,186.5,78.1,183.8,84.1,185.1z"/>
	<path d="M75.9,127c6.3,1.4,10.7,4.5,16,6.7c-3.6,1-5.8-1.4-8.3-2.2C81.2,130.7,78.6,129.7,75.9,127z"/>
	<path d="M170.4,289.8c0-3.6-1.3-7.2,0.4-10.8c0.6-1.3,0.1-3.1,0.1-4.8c0.7,0,1.2,0,1.9,0c-0.3,1.7-0.7,3.3-0.8,4.9
		c-0.1,1.9,0.4,4-0.2,5.8C171.3,286.5,170.6,288,170.4,289.8z"/>
	<path d="M274.9,143.5c6.1-1.4,10.8-3.5,16-3.9c-0.7,0.5-1.3,1.2-2.1,1.4C284.6,141.8,280.8,145,274.9,143.5z"/>
	<path d="M192.8,75.5c-0.8,0-1.2,0-1.9,0c0.3-1.7,0.7-3.3,0.8-4.9c0.1-1.9-0.4-4.1,0.2-5.8c0.5-1.6,0.9-3.2,1.1-4.9
		C195.1,65.2,192.2,70.2,192.8,75.5z"/>
	<path d="M275.2,106.7c-3.7,4-8.2,6.7-13.5,10c0.7-1.4,0.9-2.1,1.3-2.4c2-1.5,4-3,6.1-4.4c1.6-1.2,3.3-2.4,5-3.5
		C274.2,106.3,274.6,106.6,275.2,106.7z"/>
	<path d="M259.4,260.5c-3.9,0.2-4.1-3.2-6.1-4.9c-2.1-1.8-4-3.9-6.7-6.6c1.7,0.6,2.6,0.6,3.1,1.1C252.9,253.5,256.1,257,259.4,260.5
		z"/>
	<path d="M105.3,260.7c0.4-0.8,0.7-1.5,1.1-2.3c1.7-3.4,5-5.4,7.5-8.2c0.5-0.5,1.2-0.8,2.4-0.7c-0.3,0.4-0.6,0.7-0.9,1.1
		c-2.2,2.5-5.1,4.4-6.7,7.6c-0.6,1.2-1.9,2-2.8,2.9C105.7,261,105.5,260.9,105.3,260.7z"/>
	<path d="M108.2,241.6c0.1,0.3,0.3,0.7,0.2,0.9c-0.4,0.7-0.9,1.5-1.5,1.8c-3.9,1.9-5.9,6.1-10.3,8.4
		C99.9,247.7,104.5,243.4,108.2,241.6z"/>
	<path d="M104.7,88.4c3.5,0.7,3.8,4.2,5.9,5.9c2.1,1.7,3.8,3.7,6,5.9C113.3,99.6,109.1,95.3,104.7,88.4z"/>
	<path d="M262,232.6c5,3.7,9.1,6.7,13.3,9.8c-0.1,0.2-0.2,0.5-0.3,0.7c-0.6-0.1-1.4-0.1-1.9-0.4c-3.6-2.4-6.9-5.5-10.7-7.7
		C262.2,234.9,262.3,234.2,262,232.6z"/>
	<path d="M88.8,243c3.5-4.1,7.8-6.9,12.5-9.3C97.7,237.5,93.6,240.8,88.8,243z"/>
	<path d="M72.9,210.6c4.5-2.7,9.1-5.1,14.8-5c-1.7,1.6-3.2,1.9-5,2.1c-1.6,0.2-3,1.4-4.6,1.8C76.4,210,74.6,210.2,72.9,210.6z"/>
	<path d="M87.9,106.6c3.1,0.4,12,6.8,14,9.9c-3-1.5-5.2-3-7.3-4.6C92.5,110.3,90.5,108.6,87.9,106.6z"/>
	<path d="M90.8,215.2c-0.6,0.7-1.1,2-1.7,2.1c-3.2,0.3-5.6,2.6-8.4,3.6c-1.2,0.4-1.2,0.5-4.3,0c4.8-2.1,9.3-4.2,13.8-6.2
		C90.4,214.9,90.6,215.1,90.8,215.2z"/>
	<path d="M281.1,186.5c0-0.5,0-1,0-1.7c2.5,0.3,5,0.9,7.4,0.9c2.6-0.1,4.9,0.9,8.3,1.7c-3.4,0.6-6.3,1.2-8.2,0.2
		C286,186.2,283.5,187.5,281.1,186.5z"/>
	<path d="M258.3,88.9c-0.4,0.8-0.7,1.5-1.1,2.3c-1.7,3.4-5,5.4-7.5,8.2c-0.5,0.5-1.2,0.8-2.9,1.9c0.8-2,1.7-2.6,2.4-3.3
		c0.8-0.8,1.6-1.6,2.4-2.4c0.7-0.7,1.5-1.3,2.1-2.1c0.7-0.8,1.1-1.9,1.8-2.7c0.6-0.8,1.5-1.5,2.2-2.2
		C257.9,88.6,258.1,88.8,258.3,88.9z"/>
	<path d="M67.9,162.2c2.8,0.3,5.5-1,8.4,0.6c1.6,0.9,4.1,0.2,6.2,0.2c0,0.8,0,1.2,0,1.9c-2.6,0.4-4.8-1.6-7.4-1
		C72.6,164.5,70.3,163.1,67.9,162.2z"/>
	<path d="M71.2,152.1c-0.8-0.8-1.1-1.1-1.5-1.5c0.2-0.2,0.5-0.6,0.6-0.5c1.8,0.3,3.7,0.6,5.5,1c2.9,0.7,5.8,1.4,8.6,2.4
		C79.8,154.9,75.8,151.2,71.2,152.1z"/>
	<path d="M292.4,197.6c0.6,0.6,1,1,1.5,1.5c-0.2,0.2-0.5,0.5-0.7,0.5c-1.8-0.3-3.8-0.3-5.5-1c-2.8-1.1-6.1-0.3-8.8-2.6
		C283.9,194.8,287.9,198.4,292.4,197.6z"/>
	<path d="M273.3,135c-0.1-0.5-0.1-0.8-0.3-1.4c4.5-1.8,8.5-5,13.9-4.8C282.5,130.8,278,132.9,273.3,135z"/>
	<path d="M179.1,174.8c1-1.1,1.6-1.7,2.8-3c0.9,1.3,1.5,2,2.2,3c-0.7,0.8-1.3,1.4-2.1,2.4C181.2,176.5,180.5,175.9,179.1,174.8z"/>
	<path class="st0" d="M145.6,65.2c1.6-0.2,1.2,1.5,1.4,2c1.4,3.9,2.4,7.9,3.6,11.9c0.1,0.4,0.6,0.7,1,1"/>
	<path class="st0" d="M213.1,269.6c0.6,5.2,2.7,10,4.5,14.9c0,0.1,0.3,0,0.5,0"/>
	<path class="st0" d="M192.2,274.5c0.2,0.8,0.3,1.7,0.5,2.5"/>
	<path class="st0" d="M192.7,280.5c0.2,0.8,0.3,1.7,0.5,2.5c0.2,1,0.3,2,0.5,3"/>
	<path class="st0" d="M161.5,272.5c-1,5-2,9.9-3,14.9"/>
	<path class="st0" d="M151.6,269.6c-1.7,5-3.3,9.9-5,14.9"/>
	<path class="st0" d="M83.1,185.2c-1.2,0.2-2.3,0.3-3.5,0.5"/>
	<path class="st0" d="M76.2,185.7c-0.8,0.2-1.7,0.3-2.5,0.5c-1,0.2-2,0.3-3,0.5"/>
	<path class="st0" d="M292.4,162.9c-0.8,0.2-1.7,0.3-2.5,0.5c-1,0.2-2,0.3-3,0.5"/>
	<path class="st0" d="M283.5,163.9c-1,0.2-2,0.3-3,0.5"/>
	<path class="st0" d="M228,69.2c-0.5,3.2-2.4,5.9-3.5,8.9c-0.7,2-1.6,4-2.5,6"/>
	<path class="st0" d="M169.9,64.2c0.2,0.8,0.3,1.7,0.5,2.5c0.2,1,0.3,2,0.5,3"/>
	<path class="st0" d="M170.9,73.1c0.2,0.7,0.3,1.3,0.5,2"/>
	<path class="st0" d="M217,65.2c-1.7,5-3.3,9.9-5,14.9"/>
	<path class="st0" d="M205.1,62.2c-1,5-2,9.9-3,14.9"/>
	<path class="st0" d="M171.9,275c-0.3,2-0.7,4-1,6"/>
	<path class="st0" d="M170.9,285.4c-0.2,1.3-0.3,2.6-0.5,4"/>
	<path class="st0" d="M193.2,60.2c-0.2,1.5-0.3,3-0.5,4.5"/>
	<path class="st0" d="M192.7,69.2c-0.2,0.8-0.3,1.7-0.5,2.5c-0.2,1-0.3,2-0.5,3"/>
	<path class="st0" d="M202.7,273c1,4.8,2,9.6,3,14.4"/>
	<path class="st0" d="M222,266.6c0.5,0.5,1.2,0.9,1.5,1.5c1.9,4.1,3.7,8.3,5.5,12.4"/>
	<path class="st0" d="M158,62.2c1,4.8,2,9.6,3,14.4"/>
	<path class="st0" d="M134.7,69.2c1.8,4.1,3.6,8.3,5.5,12.4c0.3,0.6,1,1,1.5,1.5"/>
	<path class="st0" d="M272.6,216c4.6,2,9.3,4,13.9,6"/>
	<path class="st0" d="M87.1,206.1c-4.9,0.5-9.3,2.6-13.9,4"/>
	<path class="st0" d="M293.4,199.1c-4.6-1-9.3-2-13.9-3"/>
	<path class="st0" d="M295.4,187.2c-1.2-0.2-2.3-0.3-3.5-0.5"/>
	<path class="st0" d="M288.5,186.7c-2.3-0.3-4.6-0.7-6.9-1"/>
	<path class="st0" d="M82.1,163.9c-2.5-0.3-5-0.7-7.4-1"/>
	<path class="st0" d="M71.2,162.9c-1-0.2-2-0.3-3-0.5"/>
	<path class="st0" d="M70.2,150.5c4.6,1,9.3,2,13.9,3"/>
	<path class="st0" d="M290.5,139.6c-4.6,1.3-9,3.5-13.9,4"/>
	<path class="st0" d="M77.1,127.7c4.7,1.8,9,4.6,13.9,6"/>
	<path class="st0" d="M276.6,206.1c4.5,1.5,8.9,3,13.4,4.5"/>
	<path class="st0" d="M90,215c-0.2,0.3-0.2,0.8-0.5,1c-3.6,1.7-7.3,3.4-10.9,5c-0.4,0.2-1,0-1.5,0"/>
	<path class="st0" d="M141.1,267.1c-1.7,3.8-3.3,7.6-4.9,11.4c-0.3,0.6-0.3,1.3-0.5,2"/>
	<path class="st0" d="M73.7,139.1c4.5,1.5,8.9,3,13.4,4.5"/>
	<path class="st0" d="M286.5,128.7c-3.2,0.5-6,2.3-8.9,3.5c-1.4,0.6-3.1,0.9-4,2.4"/>
	<path class="st0" d="M83.6,195.7c-4.3,1-8.6,2-12.9,3"/>
	<path class="st0" d="M292.9,151c-4.3,1-8.6,2-12.9,3"/>
	<path class="st0" d="M114.8,81.1c1.9,4.1,4.7,7.4,7.4,10.9c0.4,0.5,0.7,1,1,1.5"/>
	<path class="st0" d="M89.1,106.9c4,2.9,8.1,5.8,11.9,8.9"/>
	<path class="st0" d="M274.6,106.9c-4,2.9-8.1,5.8-11.9,8.9"/>
	<path class="st0" d="M240.4,256.2c3,3.2,4.7,7.4,7.9,10.5c0.4,0.4,0.4,1.3,0.5,1.9"/>
	<path class="st0" d="M101,233.9c-4,3-7.9,6-11.9,8.9"/>
	<path class="st0" d="M262.7,233.9c4,3,7.9,6,11.9,8.9"/>
	<path class="st0" d="M104.9,89c2.8,3,5.6,6,8.4,8.9c0.7,0.8,1.6,1.3,2.5,2"/>
	<path class="st0" d="M255.7,241.8c3.6,3.6,7.3,7.3,10.9,10.9"/>
	<path class="st0" d="M247.8,249.7c3.6,2.9,6.9,6,9.5,9.9c0.3,0.5,1,0.7,1.5,1"/>
	<path class="st0" d="M107.9,241.8c-1.8,1.7-3.6,3.3-5.5,5c-1.8,1.7-3.6,3.3-5.5,5"/>
	<path class="st0" d="M115.8,249.7c-4,3-7.3,6.6-9.9,10.9"/>
	<path class="st0" d="M257.7,89c-2.3,4.5-6,7.8-9.9,10.9"/>
	<path class="st0" d="M248.3,82.5c-2.6,3.6-5.3,7.3-7.9,10.9"/>
	<path class="st0" d="M97,96.9c3.5,3.5,6.9,6.9,10.4,10.4"/>
	<path class="st0" d="M123.3,256.2c-2.6,3.6-5.3,7.3-7.9,10.9"/>
	<path class="st0" d="M266.6,97.9c-2.8,2.5-5.6,5-8.4,7.4"/>
</g>
<g>
</g>
<g>
</g>
<g>
</g>
<g>
</g>
<g>
</g>
<g>
</g>
<g>
</g>
<g>
</g>
<g>
</g>
<g>
</g>
<g>
</g>
<g>
</g>
<g>
</g>
<g>
</g>
<g>
</g>
</svg>
