<?xml version="1.0" encoding="utf-8"?>
<!-- Generator: Adobe Illustrator 20.1.0, SVG Export Plug-In . SVG Version: 6.00 Build 0)  -->
<svg version="1.1" id="Layer_1" xmlns="http://www.w3.org/2000/svg" xmlns:xlink="http://www.w3.org/1999/xlink" x="0px" y="0px"
	 viewBox="0 0 960 560" style="enable-background:new 0 0 960 560;" xml:space="preserve">
<g>
	<g>
		<path d="M479.6,328.5c-0.8-0.1-1.4-0.4-2-0.3c-2.2,0.2-4.3-0.4-6.4-0.5c-1.8-0.1-3.6-0.7-5.4-1.3c-1.8-0.5-3.5-1.2-5.2-1.8
			c-3.4-1.3-6.5-3.2-9.6-5.1c-0.7-0.4-1.4-0.9-2-1.5c-1.9-1.7-4.1-3.3-5.7-5.2c-3.5-4-6.6-8.3-8.6-13.2c-1-2.5-2-5-2.6-7.7
			c-0.4-2-0.6-4-0.9-5.9c-0.4-2.4-0.2-4.8-0.3-7.2c0-0.8,0-1.6,0.4-2.4c0.3-0.6-0.1-1.4,0.4-2.2c0.5-0.9,0.2-2,0.5-3
			c0.7-2.3,1.2-4.7,2.3-6.9c0.5-1,0.9-2,1.3-2.9c1.5-2.9,3.1-5.6,5.3-8c1.4-1.5,2.6-3.2,3.9-4.7c0.6-0.7,1.4-1.1,2.1-1.7
			c0.7-0.5,1.3-1,2-1.6c1.5-1.3,3.2-2.3,4.8-3.3c2.1-1.3,4.3-2.4,6.6-3.2c1.7-0.6,3.3-1.2,5-1.8c1.5-0.5,3.1-0.6,4.6-1.2
			c0.6-0.2,1.2-0.4,1.8-0.4c0.7-0.1,1.4,0.1,2,0c3.6-0.9,7.3-0.4,10.9-0.3c1.6,0,3.2,0.4,4.7,0.7c1.5,0.3,3,0.7,4.5,1
			c1,0.2,1.8,0.6,2.7,0.9c3.8,1.2,7.3,3,10.7,5c4.4,2.6,8,6,11.4,9.6c2.7,2.8,4.5,6.3,6.3,9.8c1.6,3,2.4,6.3,3.5,9.4
			c0.4,1.2,0.2,2.5,0.5,3.7c0.9,3.8,0.2,7.6,0.4,11.3c0.1,1.1-0.7,2-0.4,3.1c-1,0.8,0.1,2.1-0.9,2.9c-0.5,2.7-1.5,5.3-2.6,7.8
			c-1.1,2.6-2.4,5-4,7.3c-1.2,1.7-2.4,3.4-3.9,4.9c-2.2,2.2-4.4,4.4-6.9,6.3c-2.8,2.1-5.8,3.9-9,5.4c-2.4,1.1-4.9,2-7.5,2.6
			c-2.1,0.5-4.2,0.9-6.3,1.4c-2.4,0.5-4.8,0.2-7.1,0.4C480.3,328.2,479.9,328.4,479.6,328.5z M432.1,281.3c0,1.7-0.1,3.3,0,5
			c0.1,1.6,0.5,3.1,0.9,4.6c0.3,1.4,0.5,2.8,1.1,4.1c1.2,2.8,2.2,5.6,3.7,8.3c1.5,2.6,3,5.1,5,7.3c2.2,2.3,4.4,4.8,7.1,6.7
			c2.1,1.5,4.3,3.1,6.6,4.3c4,2,8.2,3.7,12.7,4.5c1,0.2,2.1,0,2.9,0.5c0.9,0.5,1.8,0,2.5,0.4c0.9,0.5,1.8,0.4,2.7,0.4
			c2.1,0,4.1,0,6.2,0c1.5,0,3-0.3,4.4-0.6c1.6-0.3,3.2-0.7,4.8-1.1c2.3-0.6,4.5-1.2,6.6-2.1c3.8-1.7,7.5-3.4,10.7-6
			c1.1-0.9,2-2,3.2-2.8c1.3-0.8,2.2-1.9,3.1-3c1.9-2.2,3.8-4.4,5.3-7c1.6-2.7,3.1-5.5,4.1-8.5c0.7-2.3,1.8-4.6,1.8-7.1
			c0.8-1.1,0.1-2.4,0.5-3.5c0.6-1.3,0.3-2.5,0.4-3.8c0.1-1.5,0.4-3.2-0.1-4.5c-0.5-1.5-0.3-3-0.7-4.5c-0.4-1.6-1.1-3.1-1-4.8
			c-1.2-1.8-1.6-4-2.6-5.9c-1.8-3.7-4.2-7.1-6.8-10.2c-2.7-3.2-6.1-5.7-9.6-8.2c-1.5-1.1-3.4-1.6-4.8-2.8c-1.4,0-2.5-0.9-3.6-1.5
			c-1.2-0.7-2.7-0.5-3.8-1.4c-0.5-0.4-1.4-0.4-2.2-0.5c-1.5-0.3-2.9-1-4.5-0.9c-0.7-0.8-1.7-0.3-2.5-0.4s-1.6-0.5-2.5-0.5
			c-3.1,0.3-6.3-0.4-9.3,0.5c-2.9-0.4-5.5,1.2-8.3,1.3c-4,1.6-8.1,2.8-11.7,5.2c-2.2,1.5-4.5,2.8-6.5,4.5c-3.3,2.9-6.5,6.1-8.8,9.9
			c-0.9,1.4-1.8,2.9-2.6,4.4c-0.6,1.2-1.1,2.5-1.6,3.7c-0.1,0.3-0.3,0.6-0.4,0.9c-0.8,2.2-1.8,4.4-1.8,6.9c-0.8,0.7-0.1,1.7-0.5,2.4
			c-0.5,0.9-0.4,1.8-0.4,2.7C432.1,279,432.1,280.2,432.1,281.3z"/>
		<path d="M525.5,273.8c0.1,0.2,0.4,0.3,0.4,0.5c0,0.8,0,1.7,0.1,2.6c-0.5-0.2-0.8-0.4-1.4-0.7c0,0.6,0.1,1.1,0.1,1.8
			c0.6-0.4,0.9-0.7,1.3-1.1c0,0.1,0.3,0.3,0.3,0.5c0,2.5,0.2,5.1,0,7.6c-0.3,2.9-0.8,5.8-1.8,8.6c-0.3,1-0.2,2.2-1.2,3
			c0.2,1.2-1.2,1.9-0.9,3.1c-1.1,1.8-2.3,3.7-3.4,5.5c-1.8,2.8-3.9,5.4-6.4,7.6c-2.5,2.1-5,4.2-7.9,5.8c-3.2,1.9-6.5,3.3-10.1,4.5
			c-1.4,0.5-2.9,0.7-4.4,1.1c-4.3,1.2-8.7,0.7-13.1,0.9c-1.6,0.1-3.1-0.4-4.7-0.5c-1.6-0.1-3.2-0.5-4.7-0.9
			c-1.5-0.4-2.9-0.9-4.3-1.4c-2.2-0.8-4.3-1.9-6.5-3c-0.3-0.2-0.6-0.6-0.8-0.8c0.3-0.4,1.2-0.5,0.5-1.5c-0.4,0.3-0.7,0.5-1.1,0.7
			c0.2,0.2,0.4,0.5,0.5,0.8c-1.2,0-1.8-0.8-2.6-1.3c-1.5-1-3.1-1.9-4.2-3.5c0.4,0,0.6,0,0.9-0.1c0-0.5,0-0.8,0-1.6
			c-0.5,0.8-0.7,1.2-0.9,1.7c-0.1,0-0.4,0.1-0.5,0c-1.1-1.1-2.4-2-2.9-3.5c0.3,0,0.6,0,0.9,0c-0.1,0.6,0.2,1,0.9,1.3
			c0.1-0.4,0.3-0.9,0.4-1.3c0.4,0.4,0.9,0.9,1.3,1.3c-0.4,0-0.8,0-1.3,0c0,0.3,0.1,0.5,0.1,0.8c0.5-0.1,0.9-0.1,1.2-0.1
			c0-0.3,0-0.4,0-0.7c0.8,0.3,1.5,0.7,2.1,1.3c0.9,0.9,1.9,1.8,3,2.4c0.9,0.5,1.7,1.5,2.9,1.4c0.3,0.3,0.5,0.7,0.8,0.9
			c3.4,1.5,6.7,3.5,10.5,3.9c0.5,0.9,1.6,0.2,2.4,0.8c0.6,0.5,1.7,0,2.7,0.4c0.7,0.3,1.7,0,2.6,0.1c0.9,0,1.8-0.2,2.7,0.4
			c0.3,0.2,0.9-0.2,1.4-0.2c0.5,0,1.2,0.4,1.5,0.2c0.5-0.3,0.9-0.4,1.4-0.4c1.5,0,3-0.1,4.5-0.4c2.2-0.3,4.3-1.2,6.5-1.4
			c1.1-0.8,2.5-1,3.8-1.5c1.4-0.6,2.9-1.2,4.2-2c0.8-0.4,1.4-1.1,2-1.7c0.3,0,0.6,0,0.8-0.1c1.7-1.1,3.4-2.1,4.5-3.8
			c0.1,0,0.3,0.1,0.4,0c1.2-1.1,2.4-2.3,3.6-3.5c0.1-0.1,0-0.3,0-0.4c0.7-0.6,1.5-1.2,2.2-1.7c0.2,0.6,0.5,1,1.3,0.8
			c0-0.4,0-0.8,0-1.2c0.3-0.1,0.6-0.1,1.3-0.2c-0.6-0.5-0.9-0.8-1.3-1.1c0.2-0.9,0.3-1.8,1.3-2.2c0.2,0.6,0.5,1,1.3,0.8
			c0-0.4,0-0.8-0.2-1.6c0.4,0.3,0.4,0.3,1-0.4c-0.2-0.2-0.4-0.4-0.6-0.5c-0.2,0.2-0.4,0.4-0.4,1c-0.2,0.5-0.7,0.6-1.1,0.8
			c0.1-0.4,0.2-0.9,0.5-1.3c0.9-1.6,1.4-3.4,2.6-4.8c0,0.4,0,0.9,0,1.3c-0.6,0.4-0.5,0.8-0.2,1.4c0.3-0.1,0.5-0.1,0.8-0.2
			c-0.2-0.4-0.4-0.8-0.6-1.2c0.9,0.1,1.3-0.3,1.4-1.3c-0.5,0-0.9,0-1.4,0c0-1,0.2-1.9,0.8-2.5c0.4,0.3,0.5,1.2,1.5,0.5
			c-0.3-0.4-0.5-0.7-0.8-1c-0.2,0.2-0.5,0.3-0.8,0.5c0.2-0.5-0.4-1.2,0.4-1.4c0.4,0.6,0.8,0.4,1.4,0.2c-0.1-0.2-0.1-0.5-0.2-0.8
			c-0.5,0.2-0.8,0.4-1.2,0.6c0.1-0.4,0-0.9,0.1-1.3c0-0.2,0.3-0.3,0.4-0.5c0.3,0.5,0.5,1.1,1.4,0.7c-0.2-0.4-0.4-0.8-0.5-1
			c0.2-0.5,1.1-0.5,0.6-1.4c-0.3,0-0.7,0-1.3,0.1c0.3,0.5,0.4,0.9,0.7,1.4c-0.4,0-0.7,0.2-1,0.3c0.2-1.5,0.3-3.1,0.5-4.6
			c0-0.1,0.2-0.1,0.3-0.1c0.1,0.4,0.2,0.7,0.3,0.8c-0.1,0.7-0.2,1.2-0.3,2c0.7-0.4,1-0.7,1.4-0.9c-0.2-0.2-0.3-0.4-0.5-0.6
			c0.2-0.4,0.3-0.8,0.6-1.4c-0.6,0-1,0-1.5,0c0-3.4,0-6.7,0-10c0.4,0,0.9-0.1,1.5-0.1c-0.3-0.6-0.5-1-0.6-1.2
			C525.2,274.3,525.3,274.1,525.5,273.8z M514.7,308.6c-0.2,0-0.5,0.1-1,0.2c0.4,0.5,0.7,0.8,0.9,1.1c0.2-0.2,0.5-0.4,0.7-0.6
			C515.1,309,514.9,308.8,514.7,308.6c0.1,0,0.2,0.1,0.2,0.2c0.4-0.3,0.8-0.5,1.3-0.8c-0.3-0.3-0.5-0.5-0.8-0.7
			C515.1,307.7,514.9,308.1,514.7,308.6z M525,282.5c-0.2,0.3-0.3,0.7-0.6,1.3c0.7,0,1.1-0.1,1.7-0.1c-0.3-0.5-0.5-0.9-0.6-1.2
			c0.2-0.4,0.3-0.8,0.6-1.3c-0.6,0-1,0-1.6,0.1C524.7,281.8,524.9,282.2,525,282.5z M526,278.3c-0.6,0-1,0-1.6,0
			c0.2,0.5,0.4,1,0.5,1.2c-0.2,0.5-0.3,0.8-0.5,1.3c0.7-0.1,1.1-0.1,1.6-0.1c-0.3-0.5-0.5-0.9-0.6-1.2
			C525.6,279.1,525.8,278.7,526,278.3z M524.5,285.9c0.7-0.5,1-0.8,1.5-1.1c-0.5-0.3-0.8-0.5-1.4-0.8
			C524.6,284.6,524.6,285,524.5,285.9z M520.4,299.4c-0.1,0.1-0.2,0.2-0.3,0.4c0.2,0.3,0.5,0.7,0.7,1c0.3-0.3,0.5-0.4,0.8-0.7
			C521.1,299.8,520.8,299.6,520.4,299.4z M513.8,309.7c-0.5,0.3-0.8,0.6-1.4,1c0.7,0,1.1,0,1.6,0
			C513.9,310.3,513.9,310.1,513.8,309.7z M476.6,324.7c0.3-0.3,0.5-0.5,0.7-0.7c-0.2-0.2-0.4-0.4-0.7-0.7c-0.2,0.2-0.4,0.4-0.6,0.7
			C476.1,324.2,476.3,324.4,476.6,324.7z M501.3,319.5c0.5-0.3,0.5-0.3,1-1c-0.5,0-0.8,0.1-1.4,0.1
			C501.1,319.1,501.2,319.3,501.3,319.5z M460.6,319.4c-0.2,0.2-0.4,0.4-0.6,0.6c0.2,0.3,0.4,0.5,0.6,0.8c0.3-0.3,0.5-0.5,0.7-0.7
			C461,319.9,460.8,319.6,460.6,319.4z M463.7,320.7c-0.3,0.3-0.5,0.5-0.7,0.7c0.2,0.2,0.4,0.4,0.7,0.7c0.2-0.2,0.4-0.4,0.6-0.7
			C464.2,321.2,464,321,463.7,320.7z M493.8,321.4c-0.1,0.4-0.1,0.7-0.2,1c0.5,0,0.9,0,1.6,0C494.6,322,494.2,321.8,493.8,321.4z
			 M518.1,303.2c0,0.6,0,1.1,0,1.6c0.4-0.1,0.6-0.2,1-0.4C518.7,304,518.4,303.7,518.1,303.2z M483.3,324.7c0-0.3,0-0.6,0-0.9
			c-0.3,0.1-0.5,0.1-0.8,0.2c0.1,0.3,0.1,0.5,0.2,0.8C482.9,324.7,483.1,324.7,483.3,324.7z M501.1,319.6c-0.7,0-1,0-1.3,0
			c0.1,0.3,0.1,0.5,0.2,0.9C500.3,320.2,500.5,320,501.1,319.6z M498.5,319.9c0,1,0.3,1,0.9,0.6c0-0.2-0.1-0.4-0.1-0.6
			C499,319.9,498.8,319.9,498.5,319.9z M462,320.2c-0.1,0.1-0.2,0.2-0.3,0.3c0,0.2,0.1,0.4,0.1,0.7c0.3-0.1,0.6-0.1,1.1-0.2
			C462.5,320.6,462.2,320.4,462,320.2z M458.1,319.4c0-0.7,0-1,0-1.3c-0.3,0.1-0.5,0.1-0.9,0.2C457.4,318.6,457.6,318.9,458.1,319.4
			z M504.2,317.6c0.3,0,0.6,0,0.9,0c-0.1-0.3-0.1-0.5-0.2-0.8c-0.3,0.1-0.6,0.1-0.8,0.2C504.2,317.2,504.2,317.3,504.2,317.6z
			 M473.6,324.2c0-0.3,0-0.6,0-0.9c-0.3,0.1-0.5,0.1-0.8,0.2c0.1,0.3,0.1,0.5,0.2,0.8C473.2,324.2,473.3,324.2,473.6,324.2z
			 M496.2,321.2c-1,0-1,0.3-0.7,0.9c0.2,0,0.4-0.1,0.7-0.1C496.2,321.7,496.2,321.5,496.2,321.2z M480.2,324.7c0-0.3,0-0.6,0-0.9
			c-0.3,0.1-0.5,0.1-0.8,0.2c0.1,0.3,0.1,0.5,0.2,0.8C479.8,324.7,480,324.7,480.2,324.7z M523.1,296.4c0-0.7,0-1,0-1.3
			c-0.3,0.1-0.5,0.1-0.9,0.2C522.5,295.6,522.7,295.9,523.1,296.4z M493.1,322.1c-1,0-1,0.3-0.7,0.9c0.2,0,0.4-0.1,0.7-0.1
			C493.1,322.6,493.1,322.4,493.1,322.1z M467.9,322.5c0,1,0.3,1,0.9,0.6c0-0.2-0.1-0.4-0.1-0.6
			C468.5,322.5,468.3,322.5,467.9,322.5z M489.2,323c0,1,0.3,1,0.9,0.6c0-0.2-0.1-0.4-0.1-0.6C489.7,323,489.5,323,489.2,323z
			 M469.8,324.2c0.4-0.7,0.5-1,0.6-1c-0.1-0.2-0.2-0.5-0.4-0.8c-0.1,0.1-0.1,0.1-0.2,0.2C469.8,323,469.8,323.3,469.8,324.2z
			 M490.1,323.2c0.7,0,1,0,1.3,0c-0.1-0.3-0.1-0.5-0.2-0.9C490.9,322.6,490.6,322.8,490.1,323.2z M470.7,323.9
			c0.8-0.1,1.2-0.2,1.6-0.2c-0.3-0.3-0.5-0.5-0.7-0.7C471.5,323.1,471.3,323.3,470.7,323.9z M477.7,323.8c0,1,0.3,1,0.9,0.6
			c0-0.2-0.1-0.4-0.1-0.6C478.2,323.8,478,323.8,477.7,323.8z M486.1,324.1c0.3,0,0.6,0,0.9,0c-0.1-0.3-0.1-0.5-0.2-0.8
			c-0.3,0.1-0.6,0.1-0.8,0.2C486.1,323.7,486.1,323.9,486.1,324.1z M484.6,323.3c-0.1,0.1-0.2,0.2-0.3,0.3c0,0.2,0.1,0.4,0.1,0.7
			c0.3-0.1,0.6-0.1,1.1-0.2C485.1,323.7,484.8,323.5,484.6,323.3z M512.4,312.1c0.1-0.1,0.2-0.2,0.3-0.3c0-0.2-0.1-0.4-0.1-0.7
			c-0.3,0.1-0.6,0.1-1.1,0.2C511.9,311.7,512.1,311.9,512.4,312.1z M510.1,313c0.8-0.1,1.2-0.2,1.6-0.2c-0.3-0.3-0.5-0.5-0.7-0.7
			C510.9,312.3,510.7,312.5,510.1,313z M510.3,313.6c-0.2,0.1-0.3,0.3-0.5,0.4c0-0.4,0-0.7,0-1.1c-0.1,0.1-0.2,0.1-0.3,0.2
			c0,0.4,0.1,0.8,0.1,1.3C509.9,314,510.1,313.8,510.3,313.6z M450.3,314.6c0.7,0,1,0,1.3,0c-0.1-0.3-0.1-0.5-0.2-0.9
			C451,313.9,450.8,314.1,450.3,314.6z M508.2,315.1c1,0,1-0.3,0.7-0.9c-0.2,0-0.4,0.1-0.7,0.1C508.2,314.6,508.2,314.8,508.2,315.1
			z M452,315.4c0.3,0,0.6,0,0.9,0c-0.1-0.3-0.1-0.5-0.2-0.8c-0.3,0.1-0.6,0.1-0.8,0.2C452,315,452,315.2,452,315.4z M507,315.1
			c0,0.3,0,0.6,0,0.9c0.3-0.1,0.5-0.1,0.8-0.2c-0.1-0.3-0.1-0.5-0.2-0.8C507.4,315.1,507.2,315.1,507,315.1z M505.7,315.6
			c0,0.7,0,1,0,1.3c0.3-0.1,0.5-0.1,0.9-0.2C506.3,316.3,506.1,316.1,505.7,315.6z M454.6,316.1c0.1,0.8,0.2,1.2,0.2,1.7
			c0.3-0.3,0.5-0.5,0.7-0.7C455.3,316.9,455.1,316.7,454.6,316.1z M453.6,315.4c-0.5,1.2,0,1,0.6,0.9
			C453.9,316,453.8,315.7,453.6,315.4z M475.3,324.2c-0.2-0.3-0.3-0.6-0.7-1.3c0,0.8,0,1,0,1.3C474.9,324.2,475.1,324.2,475.3,324.2
			z M467.3,322.2c-0.1,0-0.4,0-0.7,0c0.1,0.3,0.1,0.5,0.2,1.1C467,322.7,467.2,322.4,467.3,322.2z M465.7,321.6
			c-0.4,0.1-0.6,0.1-0.9,0.2c0.4,0.2,0.6,0.4,0.9,0.6C465.7,322.1,465.7,322,465.7,321.6z M496.6,320.9c0.3,0.3,0.6,0.5,1.1,1.1
			c-0.2-0.7-0.2-1-0.3-1.2C497.2,320.8,497,320.8,496.6,320.9z M502.9,318.6c0.4-0.1,0.6-0.1,0.9-0.2c-0.4-0.2-0.6-0.4-0.9-0.6
			C502.9,318,502.9,318.2,502.9,318.6z M487.5,323.4c0,0.1,0,0.3,0,0.4c0.2-0.1,0.5-0.1,0.7-0.2c0-0.1,0-0.1,0-0.2
			C488,323.4,487.7,323.4,487.5,323.4z M481.3,324.6c0.1,0,0.3,0,0.4,0c-0.1-0.2-0.1-0.5-0.2-0.7c-0.1,0-0.1,0-0.2,0
			C481.3,324.1,481.3,324.3,481.3,324.6z M459.2,319.4c0,0,0.1,0,0.1,0c0-0.1,0-0.3,0-0.4c0,0-0.1,0-0.1,0
			C459.2,319.2,459.2,319.3,459.2,319.4z"/>
		<path d="M443.6,307.7c-1.6-0.8-2.1-2.5-3.1-3.9c-1.9-2.6-3.3-5.6-4.2-8.7c-0.6-2.1-1.2-4.2-1.7-6.3c-0.4-1.7-0.3-3.4-0.4-5
			c0-0.4-0.2-0.8-0.3-1.2c0,0,0.2-0.2,0.4-0.4c-0.2-0.3-0.4-0.5-0.5-0.8c0.9-1.9,0.1-4,0.5-5.9c0.8-3.5,1.5-7,3-10.3
			c1-2.3,2.3-4.4,3.4-6.6c0.4-0.7,0.7-1.3,1.5-1.7c0,0-0.1,0.1-0.2,0.2c0.3,0.4,0.5,0.8,0.8,1.2c0.3-0.3,0.5-0.5,0.8-0.8
			c-0.5-0.2-0.9-0.4-1.4-0.6c0-0.2-0.1-0.5,0-0.6c1.7-1.9,3.2-4,5.3-5.4c0,0.4,0,0.9,0,1.3c-0.5,0.2-0.9,0.3-1.3,0.5
			c0.2,0.4,0.3,0.6,0.7,0.8c-0.7,0.1-1.1,0.1-1.7,0.2c0.2,0.4,0.3,0.6,0.5,0.9c0.4-0.4,0.7-0.6,1.2-1.1c0.5-0.1,0.8-0.6,0.7-1.3
			c0.6,0.1,1-0.2,1.3-0.9c-0.4-0.1-0.9-0.3-1.3-0.4c1.5-2.2,3.7-3.6,5.9-5.1c2.4-1.6,5-3.1,7.7-4.2c0.5-0.2,1-0.2,1.5-0.4
			c0,0.5,0,0.9,0,1.6c0.5-0.3,0.9-0.5,1.4-0.8c-0.5-0.3-0.8-0.5-1.4-0.8c0.8-0.6,1.8-0.8,2.8-1.2c1.4-0.4,2.8-0.7,4.2-1.1
			c0.9-0.2,1.9-0.6,2.8-0.7c2.1-0.2,4.1-0.7,6.2-0.5c1.3,0.1,2.6,0,4,0c2.2,0,4.3,0.5,6.5,0.8c2.2,0.3,4.1,1.2,6.3,1.4
			c1.1,0.8,2.6,0.6,3.5,1.7c-0.3,0-0.5,0-0.9,0c0,0.5,0,0.9,0,1.3c-0.3,0-0.6,0.1-0.9,0c-2-0.8-4.1-1.4-6.2-1.9
			c-2.1-0.5-4.2-0.9-6.3-1.1c-0.7,0-1.5,0-2.2,0c-0.1,0-0.2-0.3-0.3-0.4c0.2,0,0.5,0,0.8-0.1c0-0.5,0-0.8,0-1.3
			c-0.3,0-0.5,0-0.7,0.1c0,0.4,0,0.8,0,1.2c-1.2,0.1-2.5-0.3-3.6,0.4c-2.4-0.3-4.7,0.6-7.1,0.4c0.1-0.3,0.3-0.6,0.3-0.9
			c0.5,0.2,0.8,0.4,1.4,0.7c0-0.6-0.1-1.1-0.1-1.8c-0.6,0.4-0.9,0.7-1.3,1.1c-0.3-0.1-0.7-0.3-1.1-0.4c-0.2,0.9,0.2,1.2,0.8,1.4
			c-0.5,0.8-1.1,0.4-1.7,0.4c0.2-0.4,0.3-0.8,0.4-1.3c-0.6,0.1-1,0.1-1.5,0.2c0.3,0.6,0.4,1,0.7,1.6c-0.9,0.1-1.7-0.1-2.3,0.5
			c-0.6,0.6-1.5,0.4-2.4,0.6c0.3-0.5,0.5-0.8,0.8-1.4c-0.5,0-0.8-0.1-1.1-0.1c0.1,0.5,0.1,0.9,0.3,1.5c-0.2,0.1-0.5,0.5-0.9,0.6
			c-2.7,0.7-5.2,2.1-7.5,3.6c-2.5,1.6-5.1,3.3-7.1,5.5c-1.2,1.3-2.5,2.4-3.8,3.5c0.1-0.6-0.2-1-0.7-1.2c-0.2,0.2-0.4,0.4-0.6,0.5
			c0.1,0.2,0.3,0.5,0.5,0.7c0,0-0.1-0.1-0.2-0.2c-0.4,0.3-0.8,0.5-1.3,0.8c0.3,0.3,0.5,0.5,0.8,0.7c0.2-0.5,0.5-0.9,0.6-1.3
			c0.2,0,0.5,0,0.8,0c0.1,0.6-0.2,0.9-0.6,1.2c-0.6,0.6-1.4,2-1.6,2.7c-0.3,0.3-0.6,0.7-0.9,1c-0.5,0.5-0.4,1.4-1.4,1.7
			c0,0,0.1-0.1,0.2-0.2c-0.3-0.4-0.5-0.8-0.8-1.2c-0.3,0.3-0.5,0.5-0.8,0.8c0.5,0.2,0.9,0.4,1.4,0.6c0,1-0.6,1.8-1.3,2.5
			c0-0.2,0-0.5-0.1-0.7c-0.5,0-0.9,0-1.3,0c0,0.3,0,0.5,0.1,0.7c0.4,0,0.9,0,1.3,0c-0.1,0.4-0.1,0.9-0.2,1.3
			c-0.3,1.3-0.9,2.5-1.3,3.8c-1,3-1.7,6.1-1.6,9.3c0,0.7-0.3,1.3-0.4,2c0.2,0.2,0.3,0.4,0.4,0.5c-0.2,0.6-0.5,1.3-0.4,1.5
			c0.6,0.9,0.3,1.8,0.4,2.7c0.2,1.5,0.4,3,0.8,4.4c0.4,1.5,0.6,3.1,1.1,4.6c-0.5-0.2-0.8-0.4-1.4-0.7c0,0.6,0.1,1.1,0.1,1.8
			c0.6-0.4,0.9-0.7,1.3-1.1c0.7,0.1,0.2,0.8,0.3,1.3c-0.4,0-0.8,0-1.3,0c0,0.3,0.1,0.5,0.1,0.8c0.5-0.1,0.9-0.1,1.2-0.1
			c0-0.3,0-0.4,0-0.7c0.1,0.1,0.4,0.2,0.4,0.3c0.7,1.4,1.3,2.9,1.9,4.4c0.1,0.3,0.2,0.6,0.3,1c-0.4,0-0.8,0-1.3,0
			c0,0.3,0.1,0.5,0.1,0.8c0.5-0.1,0.9-0.1,1.2-0.1c0-0.3,0-0.4,0-0.7c0.2,0.1,0.6,0.2,0.7,0.4c0.8,1.5,1.6,2.9,2.9,4.1
			c0.1,0.1,0,0.4,0,0.6c-0.4,0-0.9,0-1.3,0c0.1-0.2,0.2-0.4,0.5-0.8c-0.4-0.2-0.9-0.3-1.3-0.5c0.1-0.2,0.2-0.4,0.5-0.8
			c-0.4-0.2-0.9-0.3-1.5-0.4c0.2-0.3,0.4-0.6,0.6-0.8c-0.4-0.2-0.8-0.4-1.2-0.6c-0.1,0.1-0.2,0.2-0.2,0.2c0.2,0.4,0.4,0.8,0.8,1.2
			c0.1,0.6,0.3,1,1,1.2c-0.1,0.7,0.2,1.1,0.9,1.3C443.6,307.1,443.6,307.4,443.6,307.7z M491.5,239.9c-0.4-0.6-0.9-0.4-1.5-0.2
			c0.1,0.2,0.1,0.5,0.2,0.8c0.5-0.2,0.8-0.4,1-0.5c0.4,0.3,0.7,0.6,1.2,1.1c0.1-0.5,0.2-0.7,0.3-1.1
			C492.2,240,491.8,240,491.5,239.9z M460.8,242.9c0.4,0,0.8,0,1.3,0c0-0.3-0.1-0.5-0.1-0.8c-0.5,0.1-0.9,0.1-1.2,0.1
			c0,0.3,0,0.4,0,1c-0.3-0.3-0.5-0.4-0.7-0.6c-0.2,0.2-0.4,0.4-0.4,0.4c0.1,0.3,0.3,0.6,0.4,0.9
			C460.4,243.6,460.6,243.4,460.8,242.9z M439.9,299.7c-0.3,0.4-0.5,0.6-0.7,0.9c0.4,0.2,0.8,0.4,1.2,0.6c0.1-0.1,0.2-0.2,0.2-0.2
			c-0.2-0.4-0.4-0.8-1-1.1c0-0.4,0-0.8,0-1.3c-0.3,0-0.6,0.1-0.9,0.1c0.1,0.5,0.1,0.9,0.1,1.2C439.1,299.9,439.3,299.9,439.9,299.7z
			 M453.8,246.9c0.4,0,0.8,0,1.3,0c0-0.4,0-0.6,0-0.9c0.4,0,0.8,0,1.3,0c0-0.3-0.1-0.5-0.1-0.8c-0.5,0.1-0.9,0.1-1.2,0.1
			c0,0.3,0,0.4,0,0.8c-0.4,0-0.8,0-1.3,0C453.8,246.4,453.8,246.6,453.8,246.9c-0.4,0.1-0.8,0.1-1.3,0.1c0,0.3,0.1,0.5,0.1,0.8
			c0.5-0.1,0.9-0.1,1.2-0.1C453.8,247.4,453.8,247.2,453.8,246.9z M436.5,272.2c-0.7,0.5-1,0.8-1.5,1.1c0.5,0.3,0.8,0.5,1.4,0.8
			C436.5,273.4,436.5,273.1,436.5,272.2z M437.7,266.4c-0.3,0.3-0.5,0.5-0.7,0.7c0.4,0.3,0.6,1.1,1.4,0.4
			C438.2,267.1,438,266.8,437.7,266.4z M487.8,238.6c-0.4,0.1-0.6,0.1-0.9,0.2c0,0.4,0.1,0.8,0.1,1.3c0.3-0.1,0.5-0.1,0.8-0.1
			C487.8,239.5,487.8,239.1,487.8,238.6z M436.9,271.3c-0.4,0-0.8,0-1.2,0c0,0.3,0,0.4,0,0.7c0.4,0,0.8,0,1.2,0
			C436.9,271.8,436.9,271.6,436.9,271.3z M489.6,239.2c-0.4,0-0.8,0-1.3,0c0,0.3,0,0.5,0,0.7c0.4,0,0.8,0,1.3,0
			C489.6,239.6,489.6,239.4,489.6,239.2z M477.3,238.3c0,0.4,0,0.8,0,1.2c0.3,0,0.5,0,0.7,0c0-0.4,0-0.8,0-1.2
			C477.8,238.3,477.6,238.3,477.3,238.3z M435.5,275.5c-0.3,0.3-0.5,0.5-0.7,0.7c0.3,0.3,0.5,1,1.4,0.5
			C435.9,276.3,435.7,275.9,435.5,275.5z M439.1,297.4c-0.5,0-1.3-0.5-1.3,0.7c0.5,0,0.9,0,1.3,0
			C439.1,297.8,439.1,297.6,439.1,297.4z M441.6,258.1c-0.1,0.1-0.2,0.2-0.3,0.4c0.2,0.3,0.5,0.7,0.7,1c0.3-0.3,0.5-0.4,0.8-0.7
			C442.4,258.5,442,258.3,441.6,258.1z M494.4,240.5c-0.4,0-0.8,0-1.2,0c0,0.3,0,0.4,0,0.7c0.4,0,0.8,0,1.2,0
			C494.4,240.9,494.4,240.7,494.4,240.5z M473.6,238.7c0.1,0.4,0.1,0.6,0.2,0.9c0.5,0,0.8-0.1,1.3-0.1c-0.1-0.3-0.1-0.5-0.1-0.8
			C474.5,238.7,474.2,238.7,473.6,238.7z M435,277.2c-0.1,0.1-0.2,0.2-0.3,0.4c0.2,0.3,0.5,0.7,0.7,1c0.3-0.3,0.5-0.4,0.8-0.7
			C435.7,277.7,435.3,277.5,435,277.2z M434.8,280.4c0,0.4,0,0.8,0,1.2c0.3,0,0.5,0,0.7,0c0-0.4,0-0.8,0-1.2
			C435.3,280.4,435.1,280.4,434.8,280.4z M497.6,241.4c-0.4,0-0.9,0-1.4,0c0.1,0.3,0.1,0.5,0.2,0.8c0.4,0,0.8-0.1,1.2-0.1
			C497.6,241.8,497.6,241.6,497.6,241.4z M435.7,289.4c0.3-0.2,0.6-0.3,1.1-0.6c-0.7-0.3-1.1-0.5-1.9-0.8
			C435.3,288.8,435.5,289.1,435.7,289.4z M480.3,238.2c0.1,0.4,0.1,0.6,0.2,0.9c0.5,0,0.8-0.1,1.3-0.1c-0.1-0.3-0.1-0.5-0.1-0.8
			C481.2,238.2,480.8,238.2,480.3,238.2z M484.2,238.3c-0.3,0.2-0.6,0.3-0.9,0.5c0.4,0.3,0.6,0.5,0.7,0.7c0.3-0.2,0.5-0.4,0.7-0.6
			C484.5,238.6,484.3,238.4,484.2,238.3z M436.1,291.2c0,0.5,0,0.9,0,1.6c0.4-0.6,0.7-0.9,1-1.4
			C436.7,291.3,436.5,291.2,436.1,291.2z M435.6,283.1c-0.5,0.6-0.7,0.9-1.1,1.4c0.5,0.1,0.8,0.2,1.1,0.2
			C435.6,284.2,435.6,283.9,435.6,283.1z M476.8,238.9c-0.2-0.2-0.4-0.4-0.6-0.6c-0.3,0.2-0.5,0.4-0.8,0.6c0.3,0.3,0.6,0.5,0.8,0.7
			C476.4,239.3,476.6,239.1,476.8,238.9z M441.8,260.1c-0.2-0.2-0.4-0.4-0.6-0.6c-0.3,0.2-0.5,0.4-0.8,0.6c0.3,0.3,0.6,0.5,0.8,0.7
			C441.4,260.6,441.6,260.4,441.8,260.1z M450.7,248.9c-0.3,0.1-0.6,0.3-1,0.4c0.3,0.3,0.5,0.5,0.7,0.6c0.3-0.2,0.5-0.4,0.7-0.6
			C450.9,249.1,450.7,248.9,450.7,248.9z M452.2,248.6c-0.1-0.3-0.3-0.6-0.4-0.9c-0.3,0.3-0.5,0.5-0.7,0.7c0.2,0.3,0.4,0.5,0.6,0.7
			C452,248.9,452.2,248.7,452.2,248.6z M459.8,244.3c-0.5-0.4-0.9-0.7-1.3-1.1c-0.1,0.5-0.2,0.7-0.3,1.1
			C458.7,244.3,459,244.3,459.8,244.3z M437.4,270.1c-0.3-0.3-0.5-0.5-0.7-0.6c-0.2,0.2-0.4,0.4-0.7,0.7c0.2,0.2,0.4,0.4,0.7,0.6
			C436.9,270.6,437.1,270.4,437.4,270.1z M466,239.8c-0.2,0.8-0.3,1-0.4,1.5c0.6,0,1-0.1,1.4-0.1C466.8,240.8,466.6,240.6,466,239.8
			z M486.8,238.7c-0.7,0-1.1,0-1.6,0c0.1,0.3,0.1,0.6,0.2,1C485.8,239.4,486.2,239.1,486.8,238.7z M457.7,245.1c0-1-0.3-1-0.9-0.6
			c0,0.2,0.1,0.4,0.1,0.6C457.2,245.1,457.4,245.1,457.7,245.1z M436.1,275.1c0-1-0.3-1-0.9-0.6c0,0.2,0.1,0.4,0.1,0.6
			C435.5,275.1,435.7,275.1,436.1,275.1z M438.8,265.4c-0.1-0.1-0.2-0.2-0.3-0.3c-0.2,0-0.4,0.1-0.7,0.1c0.1,0.3,0.1,0.5,0.2,1.1
			C438.4,265.9,438.6,265.6,438.8,265.4z M437,268.2c0,1,0.3,1,0.9,0.6c0-0.2-0.1-0.4-0.1-0.6C437.5,268.2,437.3,268.2,437,268.2z
			 M448.9,250c0,1,0.3,1,0.9,0.6c0-0.2-0.1-0.4-0.1-0.6C449.4,250,449.2,250,448.9,250z M479.8,239.1c0-0.3,0-0.6,0-0.9
			c-0.3,0.1-0.5,0.1-0.8,0.2c0.1,0.3,0.1,0.5,0.2,0.8C479.4,239.1,479.5,239.1,479.8,239.1z M439.3,262.5c0,0.3,0,0.6,0,0.9
			c0.3-0.1,0.5-0.1,0.8-0.2c-0.1-0.3-0.1-0.5-0.2-0.8C439.7,262.5,439.5,262.5,439.3,262.5z M468.4,240.1c-0.3,0-0.6,0-0.9,0
			c0.1,0.3,0.1,0.5,0.2,0.8c0.3-0.1,0.6-0.1,0.8-0.2C468.4,240.4,468.4,240.3,468.4,240.1z M495.9,241.1c-0.1-0.1-0.2-0.2-0.3-0.3
			c-0.2,0-0.4,0.1-0.7,0.1c0.1,0.3,0.1,0.5,0.2,1.1C495.5,241.6,495.7,241.3,495.9,241.1z M436.8,292.9c-0.1,0.1-0.2,0.2-0.3,0.3
			c0,0.2,0.1,0.4,0.1,0.7c0.3-0.1,0.6-0.1,1.1-0.2C437.3,293.3,437,293.1,436.8,292.9z M436.6,290.2c-0.1-0.1-0.2-0.2-0.3-0.3
			c-0.2,0-0.4,0.1-0.7,0.1c0.1,0.3,0.1,0.5,0.2,1.1C436.2,290.6,436.4,290.4,436.6,290.2z M435,279c-0.1,0.1-0.2,0.2-0.3,0.3
			c0,0.2,0.1,0.4,0.1,0.7c0.3-0.1,0.6-0.1,1.1-0.2C435.5,279.4,435.2,279.2,435,279z M434.3,282.8c0.7,0,1,0,1.3,0
			c-0.1-0.3-0.1-0.5-0.2-0.9C435.1,282.2,434.9,282.4,434.3,282.8z M435.6,285.3c-0.3,0.1-0.6,0.3-0.9,0.4c0.1,0.1,0.1,0.2,0.2,0.3
			c0.4-0.1,0.8-0.1,1.3-0.2C435.8,285.5,435.6,285.3,435.6,285.3z M435.2,287.6c0.3,0,0.6,0,0.9,0c-0.1-0.3-0.1-0.5-0.2-0.8
			c-0.3,0.1-0.6,0.1-0.8,0.2C435.2,287.2,435.2,287.4,435.2,287.6z"/>
		<path d="M510,248.2c0.5-0.1,0.8,0.1,1.1,0.4c1.6,1.6,3.3,3.1,4.8,4.8c1.7,1.9,3.3,3.9,4.5,6.1c0.1,0.2,0.1,0.5,0.2,0.8
			c-0.4,0-0.9,0.1-1.8,0.2c0.6,0.5,1,0.8,1.3,1.1c0,0.4,0,0.8,0,1.3c0.4,0,0.6,0,0.9,0c-0.1,0.2-0.3,0.5-0.3,0.5
			c0.4,0.8,0.7,1.4,1,2.1c0.2,0,0.4,0.1,0.6,0.1c-0.2,0.3-0.3,0.5-0.3,0.5c0.1,0.8,0.3,1.4,0.4,2c-0.1-0.2-0.3-0.3-0.4-0.5
			c-0.9-1.8-1.9-3.5-2.6-5.3c-0.3-0.8-1.1-1.4-0.9-2.4c0.4,0,0.8,0,1.3,0c0-0.3-0.1-0.5-0.1-0.8c-0.5,0-0.9,0.1-1.2,0.1
			c0,0.3,0,0.4,0,0.7c-0.7-0.1-1-0.6-0.9-1.3c0.4,0,0.8,0,1.3,0c0-0.3-0.1-0.5-0.1-0.8c-0.5,0-0.9,0.1-1.2,0.1c0,0.3,0,0.4,0,0.7
			c-0.7-0.1-1-0.6-0.9-1.3c0.4,0,0.8,0,1.3,0c0-0.3,0-0.5,0-0.9c-0.4,0-0.9,0-1.3,0c0.1-0.2,0.2-0.4,0.5-0.8
			c-0.4-0.2-0.9-0.3-1.3-0.5c0-0.4,0-0.8,0-1.3c-0.4,0-0.6,0-0.9,0c0.1-0.7-0.2-1.1-0.9-1.3c-0.2-0.7-0.6-0.9-1.4-0.8
			c0,0,0.1-0.1,0.2-0.2c-0.3-0.4-0.5-0.8-0.8-1.2c-0.3,0.3-0.5,0.5-0.8,0.8c0.5,0.2,0.9,0.4,1.4,0.6c0,0.6,0.2,1.1,0.9,1.2
			c0.2,0.7,0.6,0.9,1.3,0.9c0,0.4,0,0.9,0,1.3c-1.9-1.9-3.8-3.8-5.8-5.6c0.5-0.2,0.9-0.3,1.3-0.5C510.2,248.6,510.1,248.4,510,248.2
			z M511.3,249.5c-1,0-1,0.3-0.7,0.9c0.2,0,0.4-0.1,0.7-0.1C511.3,250,511.3,249.8,511.3,249.5z"/>
		<path d="M498.9,241.7c0.4,0,0.8-0.1,1.1,0c3.4,1.8,6.7,3.6,9.7,6c0.1,0.1,0.2,0.3,0.3,0.5c-0.7,0.2-1,0.6-0.9,1.3
			c-0.7,0.1-1.2-0.2-1.3-0.9c0.6,0.1,1-0.2,1.3-0.9c-0.5-0.1-0.9-0.3-1.3-0.4c-0.2-0.7-0.6-0.9-1.3-0.9c-0.2-0.7-0.6-0.9-1.3-0.9
			c-0.3-0.4-0.5-1.1-1.5-0.5c0.3,0.4,0.5,0.7,0.8,1c0.3-0.2,0.5-0.3,0.7-0.5c0,0.3,0,0.6,0,0.9c0.5,0,0.9,0,1.3,0c0,0.4,0,0.9,0,1.3
			c-0.8-0.2-1.3-0.9-2.2-0.9c-0.3-0.3-0.5-0.6-0.8-0.9c-0.3-0.3-0.7-0.6-1-0.9c0.2,0,0.5,0,0.8-0.1c0-0.5,0-0.8,0-1.3
			c-0.3,0-0.5,0-0.7,0.1c0,0.4,0,0.8,0,1.2c-1.1-0.1-1.9-0.6-2.7-1.3c0.3-0.1,0.6-0.3,0.9-0.4c0.3,0.4,0.5,1.1,1.5,0.5
			c-0.3-0.4-0.5-0.7-0.8-1c-0.3,0.2-0.5,0.3-0.7,0.5c-0.3-0.6-0.5-1.2-1.4-0.7c0.2,0.4,0.4,0.8,0.6,1.1c-0.8,0-1.3-0.3-1.8-0.9
			c0.3,0,0.5,0,0.9,0C498.9,242.5,498.9,242.1,498.9,241.7z"/>
		<path d="M523.3,266c0.8,0.4,0.8,1.3,1,2.1c0.6,1.9,1.3,3.7,1.2,5.8c-0.4-0.2-0.7-0.3-1.4-0.6c0.1,0.8,0.2,1.3,0.3,1.6
			c-0.1,0.6-0.2,0.9-0.2,1.2c-0.1-0.2-0.4-0.3-0.4-0.5c0-0.8,0-1.7,0-2.5c0.4,0,0.9-0.1,1.5-0.1c-0.2-0.5-0.5-0.9-0.6-1.2
			c-0.1-0.4,0-0.8,0-1.3c-0.6,0.1-1,0.1-1.3,0.1c0,0.4,0,0.6,0,0.8c-0.8-0.3-0.4-0.8-0.3-1.2c0.4-0.1,0.8-0.1,1.6-0.3
			c-0.6-0.5-0.9-0.8-1.3-1.1c0.2-0.3,0.3-0.7,0.5-1.1c-0.4-0.2-0.7-0.3-0.9-0.4C523,266.8,523.1,266.4,523.3,266z"/>
		<path d="M445.8,310.3c-0.7-0.6-1.4-1.2-2-1.8c-0.2-0.2-0.1-0.5-0.2-0.8c0.4,0,0.8,0,1.3,0c0-0.4,0-0.6,0-0.9
			c0.8,0.6,1.8,1,1.8,2.2c-0.3,0-0.6,0-0.9,0.1c0-0.4,0-0.6-0.1-0.9c-0.5,0-0.8,0-1.7,0c0.8,0.5,1.2,0.7,1.7,0.9
			C445.8,309.5,445.8,309.9,445.8,310.3z"/>
		<path d="M520.6,260.4c1.5,2,1.7,2.3,2.2,4.3c-1-0.2-0.7-1.2-1.1-1.7c-0.3,0-0.5,0-0.7,0c0-0.4,0-0.8,0-1.3c-0.4,0-0.6,0-0.9,0
			C520.3,261.2,520.4,260.8,520.6,260.4z"/>
		<path d="M522.8,264.7c0.9,0.2,0.3,0.9,0.4,1.3C522.4,265.8,523,265.1,522.8,264.7z"/>
		<path d="M443.5,284c-1.3-0.6-2.2-1.2-3.2-1.4c-1.1-0.2-1.2-0.8-1.1-1.8c1.2,0,2.3,0,3.5,0c0.7,0,1.4,0.2,2.1-0.4
			c0.2-0.2,1,0.2,1.5,0.4c-0.3,0.5-0.4,0.9-0.6,1.2c-1.2-0.7-2.5-0.2-3.8-0.2c1,1,2.1,1.6,3.5,1.7c-0.1,1.4-1.5,1.4-2.3,2.4
			c0.2,0.1,0.5,0.2,0.9,0.4c0.5-0.1,1.3-0.3,2.1-0.5c0,0.4,0,0.9,0,1.5c-0.9-0.7-1.8-0.2-2.8,0.1c-1,0.3-2.2-0.4-2.9,0.3
			c-0.3-0.2-0.7-0.3-1-0.5c0.2-0.4,0.3-0.6,0.5-0.7C441,285.6,442.1,284.9,443.5,284z"/>
		<path d="M493.9,311.6c0.3-0.3,0.5-0.5,0.7-0.8c1.5,0.6,3,1.4,4.9,1.8c-0.7-1.2-1.3-2.1-1.8-3.1c0.2-0.1,0.5-0.4,0.8-0.6
			c1.2,1.9,2.3,3.7,3.6,5.6c-0.8,0.1-1.4,0.1-2,0.2c-2.2-1.3-2.2-1.3-3.8-1.2c0.6,0.9,1.2,1.8,1.7,2.6c-0.2,0.3-0.4,0.6-0.6,0.9
			c-1.4-0.6-1-2.1-2-2.7C495.4,313.1,494.6,312.4,493.9,311.6z"/>
		<path d="M467.4,245.2c0.4,0.6,0.9,1.2,1.3,1.8c-0.2,0.5-0.5,0.9-0.8,1.5c0.8,0.5,1.7,1.1,2.6,1.7c-0.4,0.2-0.8,0.4-1.3,0.6
			c-1.3-0.9-1.8-1.2-3.2-1.3c0.2,0.6,0.3,1.2,0.5,1.9c0,0.1-0.2,0.2-0.3,0.4c-0.1,0.1-0.3,0.3-0.6,0.5c-1.6-1.6-1.3-4.1-3.1-5.6
			C464.1,245.6,465.4,245.2,467.4,245.2z M467.8,247.3c-0.7-0.6-1.2-1-1.6-1.4c-0.5,0.3-0.9,0.5-1.3,0.8c0,0.4,0,0.9,0,1.5
			c0.4,0.2,0.9,0.4,1.2,0.5C466.7,248.2,467.1,247.8,467.8,247.3z"/>
		<path d="M450.3,261.7c-1-1.4-2.3-1.8-3.4-2.2c0.3-0.3,0.7-0.7,1-1c1.5,1,3.2,2.2,4.9,3.4c-0.2,0.2-0.4,0.4-0.5,0.5
			c-1.6,0.2-3.1,0.4-4.9,0.7c0.9,1,2.2,1.2,3.3,1.9c-0.2,0.4-0.5,0.7-0.6,1c-1.9-1.1-3.8-2.2-5.8-3.3c0.2-0.3,0.4-0.5,0.7-0.9
			C446.7,261.7,448.4,261.7,450.3,261.7z"/>
		<path d="M513,265.8c-1.2-0.6-1.5,0.5-2.3,0.8c-0.2-0.4-0.5-0.8-0.7-1.2c0.1,0,0.3-0.1,0.5-0.2c1.5-0.7,2.9-1.4,4.4-2.2
			c0.2-0.1,0.4-0.5,0.7-0.8c1.1,1.1,1.6,2.4,2,3.6c0,0.3,0,0.4,0,0.4c-0.3,0.4-0.7,0.7-1,1.2c-0.9,0-1.8,0-2.7,0
			c-0.5,0.9-0.9,1.8-1.3,2.6c-0.2-0.4-0.5-0.8-0.7-1.3C512.2,267.7,513.3,267,513,265.8z M514,264.8c-0.2,0.9,0.1,1.4,0.8,1.7
			c0.4-0.2,0.9-0.5,1.5-0.8c-0.2-0.7-0.4-1.3-0.6-1.9C515,264.2,514.6,264.5,514,264.8z"/>
		<path d="M468.3,312.2c0,0.5,0,0.9,0,1.5c-0.1,0-0.3,0-0.3,0c-0.6-0.4-1.2-0.9-1.8-1.4c-0.7-0.5-1.2-0.1-1.7,0.5
			c1,1.2,3.2,1.8,2.5,4.1c-0.5,0.3-1.2,0.6-1.9,1c-1-0.5-1.9-0.9-2.8-1.4c0-0.6,0-1.2,0-1.8c0.3,0.1,0.6,0,0.7,0.1
			c0.4,0.5,0.8,1.1,1.1,1.6c0.6,0,1.1,0,1.7,0c0-0.3,0-0.7,0-0.8c-0.9-0.8-1.8-1.6-2.6-2.3c0-0.5,0-1,0-1.6c0.6-0.3,1.2-0.7,1.9-1
			C466.1,311.2,467.2,311.7,468.3,312.2z"/>
		<path d="M488.7,243.2c0.4,0.4,0.6,0.6,0.7,0.7c0.4,2.2,0.9,4.2,1.3,6.4c-0.3,0-0.8,0.1-1.4,0.1c-0.2-0.6-0.3-1.1-0.5-1.6
			c-0.8-0.2-1.5-0.3-2.3-0.5c-0.2,0.3-0.5,0.7-0.7,1.1c-0.3,0-0.6,0-0.9,0c-0.2-0.2-0.4-0.4-0.5-0.5
			C485.8,247.1,487.2,245.2,488.7,243.2z M488.6,245.7c-0.6,0.6-1,0.9-1.5,1.4c0.6,0.3,1.1,0.5,1.6,0.7
			C488.7,247.1,488.7,246.5,488.6,245.7z"/>
		<path d="M455.6,312.1c-0.8-0.4-1.5-0.8-2.4-1.2c-0.2-0.5-0.5-1-0.9-1.7c0.3-0.2,0.5-0.4,0.9-0.7c0.3,0.7,0.7,1.5,1,2.2
			c0.7,0,1.3,0,2,0c0.4-0.5,0.9-1,1.5-1.7c0-0.3,0-0.9,0-1.6c-0.3-0.3-0.7-0.6-1.1-0.9c-0.6,0.4-1.7,0.5-1.6,1.6
			c-0.5-0.2-0.8-0.4-1.2-0.6c0-0.3,0-0.6,0-0.9c0.3-0.3,0.7-0.7,1.1-1c0.6,0,1.4,0,2.1,0c1.2,1,2.3,2.1,2,3.9
			C458.9,310.7,458.2,311.2,455.6,312.1z"/>
		<path d="M440,296c-0.8-0.4-0.7-1.3-1-2.1c-0.8-2.2-1.3-4.4-1.7-6.7c-0.5-2.5-0.2-4.9-0.4-7.4c0-1-0.1-2,0.4-3.1
			c0.4-0.9-0.3-2,0.5-2.8c-0.2-1.7,0.6-3.2,1-4.8c0.3-1.5,1.2-2.9,1.9-4.4c0.2-0.3,0.4-0.6,0.7-0.9c0.2,0.7-0.2,1.4-0.5,2
			c-1.2,2.6-2.2,5.9-2.7,8.2c-0.3,1.3-0.1,2.7-0.4,3.9c-0.5,1.6-0.3,3.2-0.4,4.8c0,1,0,1.9,0.4,2.9c0.4,0.9-0.3,2,0.5,2.8
			c0.1,2.3,0.9,4.4,1.8,6.4C440.2,295.2,440,295.6,440,296z"/>
		<path d="M503.7,308.6c-0.7-0.5-1.1-0.8-1.6-1.1c-0.7,0.6-1.2,1.1-1.7,1.6c-0.2-0.1-0.4-0.1-0.6-0.2c0.1-0.9,0.9-1.3,1.5-1.8
			c0.5-0.5,1.2-0.7,1.7-1.1c1.3,1.5,2.6,3.1,4,4.7c-0.6,1.4-2.2,1.7-3.4,2.6c-0.2-0.2-0.4-0.3-0.7-0.7c0.7-0.6,1.5-1.1,2.2-1.7
			c-0.2-0.4-0.4-0.7-0.5-1.1c-0.2,0-0.5,0-1,0c-0.3,0.4-0.7,1-0.9,1.3c-0.5-0.3-0.8-0.5-1.1-0.7
			C501.9,309.6,502.6,309.1,503.7,308.6z"/>
		<path d="M460.1,252.1c0.4,0.5,0.7,0.9,1.1,1.5c1-0.7,1.8-1.3,2.7-1.9c0,0.3,0,0.7,0,1.2c-1.2,0.7-2.4,1.4-3.6,2.1
			c-1.1-1.7-2.2-3.4-3.4-5.3c1-1.1,2.6-1.7,4.2-2.6c0.1,0.3,0.3,0.7,0.4,1c-0.8,0.4-1.8,0.9-3,1.5c0.3,0.7,0.6,1.1,0.9,1.7
			c0.7-0.5,1.4-0.9,2.2-1.4c0.2,0.2,0.4,0.5,0.8,0.9C461.5,251.4,460.7,251.8,460.1,252.1z"/>
		<path d="M509.5,262.5c-0.2-0.4-0.5-0.9-0.8-1.3c-0.2-0.3-0.6-0.6-0.9-0.9c-0.4,0.2-0.7,0.4-1.1,0.7c-0.3-0.4-0.6-0.7-0.8-1.1
			c0.2-0.2,0.3-0.3,0.4-0.3c2.3,0,4.4-1,6.5-1.8c0.2,0.3,0.4,0.7,0.6,1.2c-1.2,1.7-2.5,3.5-3.8,5.3c0,0.1-0.3,0-0.4,0
			C509.3,264.2,509.5,262.5,509.5,262.5z M511.6,259.7c-1.3-0.4-1.9-0.1-2.1,0.7c0.3,0.4,0.4,0.6,0.6,0.9
			C510.7,260.8,511,260.4,511.6,259.7z"/>
		<path d="M449.3,289.5c-0.7-0.5-0.7-1.2-0.8-1.9c-0.3-1.5-0.4-3-0.5-4.5c-0.1-1.6-0.1-3.2,0-4.7c0.2-1.6,0.6-3.2,0.9-4.8
			c0-0.1,0.2-0.1,0.4-0.2c-0.2,0.8,0.2,1.6-0.4,2.4c-0.5,0.7,0.3,1.8-0.5,2.6c-0.4,0.4,0,3.3,0.4,4.4c0-1.9,0.2-3.3,0.3-4.7
			c0.1-1.2,0.3-2.4,0.6-3.4c0.4-1,0-2.4,1.2-3c0,0.4,0,0.8-0.2,1.2c-0.5,1.8-1.2,3.6-1.2,5.5c0,0.4,0.2,1,0,1.3
			c-0.8,0.8-0.6,1.9-0.3,2.6c0.5,1.5,0.3,3,0.4,4.6c-0.9-0.1-0.4-0.8-0.4-1.2c-0.1-0.9,0.2-1.9-0.9-2.8c0,0.4-0.1,0.7,0,0.9
			C449.1,285.6,449,287.6,449.3,289.5z"/>
		<path d="M518.1,275.6c-1,0-2,0-3,0c-0.4-0.5-0.9-1-1.6-1.8c0-0.5,0-1.4,0-2.3c0.4-1.4,1.6-2,3.1-2.4c0.4,0.2,0.9,0.3,1.8,0.6
			C521.2,272.1,520.4,273.6,518.1,275.6z M519.2,271.4c-2-1.6-3.4-1.3-5.3,1c-0.1,1.5,1.3,1.8,2.1,2.2c0.8-0.2,1.5-0.3,1.9-0.4
			c0.5-0.4,0.9-0.7,1.2-0.9C519.2,272.5,519.2,272,519.2,271.4z"/>
		<path d="M509.5,301.9c0.4-0.3,0.6-0.5,0.9-0.9c-0.6-0.5-1.2-1-1.9-1.5c0.3-0.3,0.5-0.6,0.8-0.9c0.2,0,0.4,0,0.5,0.1
			c1,1.3,2.7,1.8,3.9,2.9c0.3,0.2,0.8,0.2,1.4,0.3c-1.2,1.7-1.9,3.6-4.4,3.3c-0.4-0.4-0.7-0.7-1.1-1.1
			C509.5,303.3,509.5,302.6,509.5,301.9z M512.4,303.8c0.3-0.5,0.5-0.8,0.6-1.1c-0.3-0.3-0.7-0.7-1-1.1c-0.2,0-0.5,0-0.7,0
			c-0.1,0-0.1,0-0.2,0c-0.9,1-0.9,1-0.1,2.1C511.5,303.8,512,303.8,512.4,303.8z"/>
		<path d="M512.7,298c0.3-0.6,0.6-1.1,1-1.9c-0.3-0.2-0.6-0.5-0.9-0.8c-1.3,0.6-1.7,1.6-2.2,2.9c-0.2-0.4-0.4-0.7-0.6-1.2
			c0.5-0.9,1.1-2.1,1.7-3.3c2,1.3,4.1,2,6.1,2.8c-0.5,1-1.1,2.1-1.7,3.2c-0.5,0-0.9,0-1.3,0c0.5-0.7,0.9-1.4,1.3-2
			c-0.2-0.8-0.8-1-1.6-1c-0.3,0.6-0.6,1.2-0.9,1.8C513.3,298.5,513,298.3,512.7,298z"/>
		<path d="M471.6,249.9c-0.2-0.5-0.4-0.8-0.5-1.1c0.6-0.6,1.1,0,1.6,0.3c0.7-0.3,1.5-0.6,2.3-0.9c-1.4-1.3-1.4-1.3-3.8-1.3
			c-0.5-0.5-1.3-0.8-1.1-1.9c1-1.5,2.5-1.8,4.3-1.5c0,0.3,0,0.7,0,1.1c-0.3-0.1-0.6-0.3-1-0.3c-0.4-0.1-0.9,0-1.4,0
			c-0.2,0.2-0.5,0.4-0.9,0.7c0.3,0.4,0.5,0.6,0.7,1c0.9,0,1.9,0,2.7,0c0.5,0.4,0.9,0.8,1.2,1.1c0,0.4,0,0.8,0,1.2
			c-0.1,0.1-0.2,0.3-0.3,0.4C474.5,250,473.1,250.1,471.6,249.9z"/>
		<path d="M440.6,290.7c-0.2-0.4-0.4-0.9-0.7-1.4c0.2-0.1,0.3-0.3,0.4-0.3c0.9,0.1,1.8,0.3,2.7,0.4c0.9,0.1,1.8,0.1,2.7,0.4
			c0.8,0.2,1.2,0.7,1.8,1.1c-1.1,2.3-3.7,3-5.5,5c-0.1-0.9-0.2-1.4-0.2-1.9c1.7-0.8,3.2-1.7,4.5-3.1
			C444.4,290.6,442.6,289.8,440.6,290.7z"/>
		<path d="M518.5,294.2c-0.3,0-0.8,0-1.2,0c0.4-0.4,0.8-0.8,1-1c0-0.9,0-1.4,0-2c-0.3,0-0.6,0-1.1-0.1c-0.5,0.6-1,1.3-1.7,2.1
			c-0.5,0-1.2,0-1.9,0c-0.2-0.3-0.6-0.6-1-1.1c0-0.5,0-1,0-1.6c0.4-0.5,0.7-1,1.2-1.6c0.4,0,0.8,0,1.4,0c0,0.1,0,0.3-0.1,0.3
			c-0.5,0.5-1,1-1.7,1.7c0.1,0.4,0.3,0.9,0.6,1.7c0.7-0.7,1.2-1.2,1.7-1.6c0.6-0.5,1.2-0.9,1.6-1.2c1.1-0.2,1.3,0.7,1.9,1.1
			C519.2,292.1,519.5,293.3,518.5,294.2z"/>
		<path d="M495.7,316.4c0.2,1.2-0.7,1.2-1.2,1.5c-0.5,0.3-1.1,0.5-1.7,0.7c-0.7,0.2-1.3,0.2-2.1,0.4c-0.1-0.1-0.3-0.3-0.5-0.5
			c0.2-1.2,1.6-0.3,2-1.5c-1-1.1-0.6-3-2.1-4.3c0.7-0.3,1.4-0.5,1.9-0.7c0.4,1.3,0.8,2.5,1.2,3.6c0.5,1.5,0.5,1.5,2,0.8
			C495.3,316.4,495.4,316.4,495.7,316.4z"/>
		<path d="M510.1,255.3c-0.3,0.3-0.7,0.5-1.3,1c-0.1-0.7-0.1-1.2-0.2-1.9c-0.3-0.2-0.7-0.6-1.2-1c-1.3,0.2-2.1,1.4-3.1,2.3
			c0,0.5,0,1,0,1.5c0.7,0.3,1.5,0.7,2.3,1.1c-1.2,0.7-2,0-2.9-0.4c-0.2-0.5-0.5-1-0.8-1.5c0.2-0.6,0.4-1.2,0.7-2.1
			c0.4-0.6,1.4-1,2.3-1.4c1.2-0.5,2.5-0.2,3.2,0.7C509.4,254.1,509.7,254.6,510.1,255.3z"/>
		<path d="M441.5,268.6c1,0,2,0.1,2.9,0c0.8-0.1,1.5,1.1,2.4,0.1c-1-1.3-2.1-2.6-3.8-3.4c0.2-0.3,0.5-0.7,0.6-0.8
			c1.6,1.6,3.2,3.1,4.9,4.8c-0.2,0.1-0.6,0.1-1,0.2c0.1,0.1,0.2,0.2,0.3,0.4c-2.1,0-4.2,0-6.4,0
			C441.5,269.5,441.5,269.2,441.5,268.6z"/>
		<path d="M454.6,251c0.4-0.2,0.8-0.4,1.2-0.6c0,0,0.1,0,0.1,0.1c0.2,2.3,1.4,4.4,1.4,6.9c-2.3-0.9-4.5-1.6-6.8-2.5
			c0.3-0.4,0.6-0.8,0.9-1.3c1.2,1.4,2.9,1.3,4.4,2.1C456.3,253.9,455.2,252.6,454.6,251z"/>
		<path d="M494.1,246.1c-0.6-0.2-1.2-0.4-1.8-0.7c0-0.1,0-0.3,0-0.7c1.8,0.1,3.4,1.2,5.2,1.4c0,0.4,0,0.8,0,1.2
			c-0.7-0.2-1.3-0.4-1.8-0.5c-1.3,1.4-1.7,3.1-2.2,4.8c-0.5-0.3-1-0.6-1.6-0.9c0.4-0.7,0.9-1.4,1.3-2.1
			C493.5,247.9,493.7,247.2,494.1,246.1z"/>
		<path d="M481.7,244.1c-0.4-0.4-0.6-0.5-0.8-0.7c-0.3,0.2-0.6,0.3-1.2,0.6c0.3-0.6,0.4-0.9,0.7-1.4c1.7,0.2,3.5,0.4,5.3,0.6
			c-0.2,0.4-0.4,0.7-0.6,1.1c-0.7-0.4-1.4-0.8-2.2,0.4c0,1.2,0,2.8,0,4.3c-0.5,0-0.8,0-1.3,0C481.7,247.4,481.7,245.7,481.7,244.1z"
			/>
		<path d="M490.1,310.3c-0.6,0.7-1.4,0.6-2.1,0.9c-3.5,1.1-7.1,0.9-10.6,0.9c-3.3,0-6.4-1-9.4-2.2c-0.2-0.1-0.2-0.3-0.4-0.4
			c0.5,0.1,0.9,0,1.4,0.2c0.9,0.4,1.9,0.8,3,0.6c0,0.1,0,0.2,0,0.2c1.8,0.6,3.6,0.8,5.5,1.1c1.7,0.2,3.4,0.1,5,0
			c0.2,0,0.4-0.3,0.6-0.4c0.9,0,1.7,0,2.6,0c0.2,0,0.4-0.3,0.5-0.4C487.4,310.6,488.7,310.5,490.1,310.3z"/>
		<path d="M508.8,308c-1.5-1.2-2.5-2.7-4.2-3.7c0.4-0.5,0.8-0.9,1.2-1.4c1,1.6,2.3,2.9,4,3.9c0.3-0.3,0.7-0.6,1-0.9
			c0.2,0.1,0.4,0.2,0.8,0.4c-1.2,1.3-2.4,2.4-3.5,3.6c-0.2-0.2-0.4-0.4-0.7-0.7C507.8,308.8,508.2,308.4,508.8,308z"/>
		<path d="M516.2,278.5c-1.8,1.2-0.1,2.4-0.5,3.5c-0.4-0.2-0.8-0.3-1.2-0.5c0-1.4,0-2.8,0-4.1c0.4,0.1,0.9,0.4,1.1,0.3
			c1.2-0.7,2.5-0.3,3.8-0.4c0.3,0,0.6-0.2,1.1-0.3c0.5,0.3,0.7,0.8,0.5,1.6C519.3,278.5,517.6,278.5,516.2,278.5z"/>
		<path d="M448.7,296.6c-0.4-1-0.8-1.8-1.2-2.5c0.6-0.6,1-0.1,1.2,0.3c0.6,1,1,2,1.6,3.2c-2.3,0-3.9,1.6-6.1,2.4
			c-0.1-0.3-0.3-0.7-0.5-1.3c-0.1,0.3-0.1,0.1,0,0.1C445.3,298,446.9,297.4,448.7,296.6z"/>
		<path d="M453.1,301.3c-1.9,1.3-3.6,2.4-5.3,3.6c-0.2-0.2-0.5-0.6-0.9-1.1c1.3-0.8,2.8-1.8,4.4-2.9c-0.6-0.9-1-1.5-1.5-2.3
			c0.3,0,0.6-0.1,1.1-0.1C451.6,299.4,452.2,300.2,453.1,301.3z"/>
		<path d="M497.1,319c-0.7,0.9-1.9,1-2.9,1.3c-2.7,0.9-5.4,1.7-8.3,1.8c-0.5,0-1,0.4-1.6,0.4c-3.1,0-6.2,0-9.2-0.1
			c-0.1,0-0.1-0.2-0.2-0.4c2.4,0,4.7,0,7.1,0c4.3-0.1,8.4-1,12.5-2.4C495.4,319.3,496.2,318.9,497.1,319z"/>
		<path d="M457.7,313.8c0.7-1,1.5-1.7,2-2.6c0.5-0.9,1.3-1.6,1.3-2.9c0.7,0.6,1.1,0.9,1.6,1.3c-1.1,1.7-2.2,3.4-3.4,5.1
			C458.6,314.8,458,314.5,457.7,313.8z"/>
		<path d="M471.5,253.4c0.6-0.7,1.4-0.7,2.2-0.8c1.3-0.2,2.7-0.4,4-0.4c1.3-0.1,2.7,0.1,4,0c3-0.2,5.8,0.7,8.7,1.4
			c0.1,0,0.1,0.2,0.2,0.4c-0.4,0-1,0.1-1.3,0c-1.7-0.8-3.6-0.9-5.4-1.2c-2.4-0.4-5-0.1-7.4-0.1c-0.1,0-0.3,0.1-0.4,0.1
			C474.5,253.1,473,253.5,471.5,253.4z"/>
		<path d="M454.1,302.6c0.3,0.3,0.7,0.6,1.1,1c-1.7,1.3-3.4,2.5-4.9,4.3c-0.4-0.4-0.8-0.8-1.2-1.1
			C450.7,305.4,452.3,304.1,454.1,302.6z"/>
		<path d="M479.3,249c-0.6,0-1.3,0-1.9,0c0.5-1.3,0.5-4.8,0-5.9c0.2-0.2,0.4-0.4,0.7-0.7c0.3,0.2,0.6,0.4,0.9,0.6
			C479.2,245,478.7,247,479.3,249z"/>
		<path d="M449,256.7c0.2-0.4,0.4-0.8,0.6-1.2c1.1,0.5,1.7,1.5,2.6,2.2c0.8,0.6,1.7,1.3,2.6,2c-0.5,0.4-0.9,0.7-1.2,1
			C452.4,259,450.3,258.2,449,256.7z"/>
		<path d="M511.7,276.4c0.1,0.2,0.4,0.4,0.4,0.6c0,1.1,0,2.1,0,3.2c0,0.5-0.3,1.1,0.3,1.6c0.1,0.1,0.1,0.4,0.1,0.6
			c-0.6,2.5-0.5,5.1-1.5,7.5c0,0-0.1,0-0.2,0c0-0.5-0.2-1.2,0-1.5c0.8-0.7,0-1.7,0.6-2.4c0.6-0.8,0.2-1.7,0.3-2.5
			C511.8,281.2,511.7,278.8,511.7,276.4z"/>
		<path d="M472.8,241.3c0.1-0.1,0.1-0.4,0.2-0.4c1.8,0.1,3.5-0.7,5.3-0.5c1.7,0.1,3.6-0.2,5.3,0.1c1.3,0.3,2.5,0.2,3.8,0.4
			c0.1,0,0.1,0.2,0.2,0.4c-3,0.1-5.9-0.7-8.8-0.5C476.6,240.9,474.8,241.6,472.8,241.3z"/>
		<path d="M475,322c-3.4,0.1-6.6-0.9-9.7-2c-0.8-0.3-1.8-0.1-2.3-1.1c1.4,0,2.6,0.7,3.9,1.1c1.5,0.4,3,1,4.6,1.1
			c0.5,0,1,0.3,1.6,0.4c0.6,0.1,1.1,0,1.7,0.1C474.9,321.7,475,321.9,475,322z"/>
		<path d="M463.1,319c-0.8,0.2-1.4-0.3-2.1-0.6c-1.2-0.5-2.3-1.4-3.6-1.6c-0.3-0.3-0.7-0.6-1-0.9c-0.3-0.3-0.5-0.6-0.8-0.9
			c0.4,0.1,1,0.2,1.3,0.4c1.9,1.3,4,2.2,6,3.1C463,318.7,463,318.9,463.1,319z"/>
		<path d="M500.7,258.2c0.3,0,0.6,0,0.8,0.2c1.5,1.4,2.9,2.8,4.3,4.3c0.2,0.2,0.1,0.5,0.2,0.8c-0.7-0.6-1.5-1.2-2.2-1.7
			c-0.1-0.1-0.3-0.3-0.4-0.4c-0.1-0.1-0.3-0.3-0.4-0.4s-0.3-0.3-0.4-0.4c-0.1-0.1-0.3-0.3-0.4-0.4
			C501.6,259.4,501.1,258.8,500.7,258.2z"/>
		<path d="M508.6,250.8c0.3,0,0.6,0,0.8,0.2c1.5,1.4,2.9,2.8,4.3,4.3c0.2,0.2,0.1,0.5,0.2,0.8C512.2,254.3,510.4,252.5,508.6,250.8z
			"/>
		<path d="M460,305.1c-0.3,0-0.6,0-0.8-0.2c-1.5-1.4-2.9-2.8-4.3-4.3c-0.2-0.2-0.1-0.5-0.2-0.8c0.9,0.7,1.8,1.4,2.7,2.2
			c0.1,0.1,0.3,0.3,0.4,0.4c0.1,0.1,0.3,0.3,0.4,0.4c0.1,0.1,0.3,0.3,0.4,0.4C459.1,304,459.5,304.5,460,305.1z"/>
		<path d="M492.7,254.7c0.7,0.1,1.5,0.3,2.2,0.4c0,0.6,0.5,0.4,0.9,0.4c0,0.6,0.5,0.4,0.9,0.4c0.2,0.7,0.6,0.9,1.3,0.9
			c0.3,0.4,0.6,0.9,0.9,1.3c-0.3,0-0.6,0-0.8-0.2c-1.2-1-2.6-1.7-4-2.5C493.7,255.3,493,255.4,492.7,254.7z"/>
		<path d="M513.5,308.1c-1.3,1.3-2.7,2.6-4,3.9c-0.3,0-0.6,0-0.9,0c1.6-1.6,3.2-3.2,4.9-4.8C513.5,307.6,513.5,307.9,513.5,308.1z"
			/>
		<path d="M505.1,300.3c0,0.3,0,0.6-0.2,0.8c-1.1,1.2-2.3,2.3-3.5,3.4c-0.2,0.2-0.5,0.1-0.8,0.1
			C502.2,303.2,503.6,301.8,505.1,300.3z"/>
		<path d="M458.2,246.5c0.2-0.3,0.3-0.7,0.6-0.8c1.1-0.6,2.3-1.1,3.4-1.6c0.4-0.2,0.8-0.1,1.2-0.2
			C461.9,245,460.1,245.9,458.2,246.5z"/>
		<path d="M441.8,263c0-1.1,0.8-1.8,1.2-2.7c0.1-0.2,0.1-0.5,0.1-0.8c0.4-0.3,0.9-0.6,1.3-0.9c-0.1,0.4-0.2,0.9-0.5,1.3
			c-0.5,0.9-1,1.7-1.5,2.6C442.4,262.7,442,262.8,441.8,263z"/>
		<path d="M499.8,245.2c1-0.1,1.7,0.3,2.4,0.9c0.6,0.5,1.2,0.9,2,0.9c0.1,0.3,0.3,0.6,0.4,0.9c-0.4-0.1-0.9-0.2-1.3-0.4
			C502.1,246.7,500.9,246,499.8,245.2z"/>
		<path d="M488.3,252.2c-2-0.2-4.1-0.4-6.1-0.6C484.3,250.9,486.3,251.5,488.3,252.2z"/>
		<path d="M501.6,316.8c-1.1,1.1-2.9,2.1-4.4,2.2C498.5,318,499.9,317.3,501.6,316.8z"/>
		<path d="M442.2,274.8c0.6-0.2,1.1-0.4,1.8-0.7c0,0.8,0,1.3,0,1.8C443,276.2,442.4,275.9,442.2,274.8z"/>
		<path d="M451.1,311.6c-0.3,0-0.6,0-0.8-0.2c-0.7-0.7-1.5-1.4-2.1-2.1c-0.2-0.2-0.1-0.5-0.2-0.8C449,309.6,450.1,310.6,451.1,311.6
			z"/>
		<path d="M463.1,307.3c-1.3-0.4-2.4-1-3.1-2.2c0.3,0,0.6,0,0.9,0c0.2,0.7,0.6,0.9,1.3,0.9C462.5,306.4,462.8,306.8,463.1,307.3z"/>
		<path d="M467.5,309.5c-1.4-0.1-2.6-0.7-3.5-1.7C465.3,308,466.5,308.6,467.5,309.5z"/>
		<path d="M523.2,282.6c0,1.3,0,2.7,0,4.3C522.6,285.4,522.7,283.5,523.2,282.6z"/>
		<path d="M517.6,286.5c-0.6-0.8-0.8-1.2-1.2-1.7c0.8,0,1.3,0,1.9,0C518.7,285.5,517.8,285.6,517.6,286.5z"/>
		<path d="M494.5,254.3c1.1,0.4,2.4,0.6,3.1,1.7c-0.3,0-0.6,0-0.9,0c0-0.6-0.5-0.4-0.9-0.4c0-0.6-0.5-0.4-0.9-0.4
			C494.8,254.9,494.6,254.6,494.5,254.3z"/>
		<path d="M515.7,255.2c-0.1,0.7,0.2,1.1,0.9,1.3c0,0.3,0,0.6,0,0.9c-0.8-0.6-1.8-1-1.8-2.2C515.1,255.2,515.4,255.2,515.7,255.2z"
			/>
		<path d="M520.2,296.4c0.1,1.2-0.5,2.2-1.3,3C518.7,298.2,519.4,297.3,520.2,296.4z"/>
		<path d="M453.3,249.5c0.6-0.7,1.9-1.6,2.7-1.7C455.4,248.8,454.5,249.4,453.3,249.5z"/>
		<path d="M454.7,299.9c-1.1-0.6-1.7-1.4-1.8-2.6c0.1,0,0.3,0,0.4,0c0.1,0.1,0.3,0.3,0.4,0.4c-0.1,0.4,0,0.8,0.4,1.1
			C454.6,299.1,454.7,299.5,454.7,299.9z"/>
		<path d="M521.5,292.9c-0.1-1.2,0.5-2.3,0.7-3.5c0,0,0.1,0,0.2,0C522.3,290.7,522.5,292,521.5,292.9z"/>
		<path d="M494.5,308.6c-0.9,0.8-1.8,1.4-3.1,1.3c0.1-0.1,0.2-0.3,0.3-0.4c0.5-0.3,1.2-0.2,1.4-0.9
			C493.6,308.6,494,308.6,494.5,308.6z"/>
		<path d="M501,251.3c-0.6,0.4-1,0.7-1.5,1.1c-0.1-0.6-0.1-1-0.1-1.3c0.3-0.3,0.5-0.5,0.6-0.6C500.2,250.7,500.5,250.9,501,251.3z"
			/>
		<path d="M452.4,250.4c-0.6,0.8-1,1.7-2.2,1.7C450.8,251.3,451.2,250.4,452.4,250.4z"/>
		<path d="M522.9,279c0-1.1,0-2.2,0-3.4c0.2,0.1,0.4,0.1,0.4,0.2c0,1.1,0,2.1,0,3.2C523.1,279,523,279,522.9,279z"/>
		<path d="M474.5,251.7c1.2-0.5,2.4-0.4,3.6-0.1c-0.6,0-1.2,0.1-1.8,0.1C475.7,251.7,475.1,251.7,474.5,251.7z"/>
		<path d="M442.7,301.6c-1.1-0.5-1.3-1.5-1.3-2.6C442.1,299.8,442.7,300.6,442.7,301.6z"/>
		<path d="M493.1,242.7c-1-0.2-2-0.4-3.4-0.7C491.3,241.3,492.2,242.2,493.1,242.7z"/>
		<path d="M469.7,253.4c0.6,0,1.2,0,1.8,0c-0.7,0.7-1.7,0.9-2.7,0.9c0.2-0.1,0.4-0.3,0.5-0.4C469.5,253.7,469.6,253.6,469.7,253.4z"
			/>
		<path d="M504.7,315.1c-0.1,0.3-0.3,0.6-0.4,0.9c-0.3,0.1-0.6,0.2-1,0.3c-0.3,0.1-0.5,0.1-0.8,0.1
			C502.9,315.4,503.8,315.3,504.7,315.1z"/>
		<path d="M451.1,268.6c0.2-0.9,0.3-1.8,1.3-2.2C452.3,267.3,452.1,268.2,451.1,268.6z"/>
		<path d="M470.6,252.5c-0.2,0.1-0.4,0.3-0.5,0.4c-0.1,0.1-0.2,0.3-0.3,0.4c-0.6,0-1.2,0-1.8,0C468.7,252.7,469.6,252.5,470.6,252.5
			z"/>
		<path d="M517.1,304.7c0,0.4,0,0.9,0,1.3c-0.4,0.1-0.9,0.3-1.3,0.4C515.7,305.5,516.3,305.1,517.1,304.7z"/>
		<path d="M517.5,301.6c0.2-0.9,0.3-1.8,1.3-2.2C518.7,300.4,518.5,301.2,517.5,301.6z"/>
		<path d="M450.2,292.1c-1.1-0.6-0.9-1.6-0.9-2.6C450,290.2,450.3,291.1,450.2,292.1z"/>
		<path d="M507.8,266c1,0.4,1.2,1.3,1.3,2.2C508.1,267.8,507.9,266.9,507.8,266z"/>
		<path d="M514.8,305.5c-0.1-1,0.6-1.4,1.3-1.7C516.2,304.8,515.6,305.2,514.8,305.5z"/>
		<path d="M500.7,304.7c-0.4,0.7-0.8,1.4-1.8,1.3c0.1-0.3,0.3-0.6,0.4-0.9c0.1-0.1,0.3-0.3,0.4-0.4
			C500.1,304.7,500.4,304.7,500.7,304.7z"/>
		<path d="M510.4,291.2c0,0.9,0,1.7-0.9,2.2C509.5,292.5,509.6,291.7,510.4,291.2z"/>
		<path d="M451.1,294.2c-0.8-0.5-0.9-1.3-0.9-2.2c0.1,0.2,0.3,0.4,0.4,0.5c0.1,0.1,0.3,0.2,0.4,0.3
			C451.1,293.4,451.1,293.8,451.1,294.2z"/>
		<path d="M495.8,243.4c0.9,0,1.7,0,2.2,0.9C497.2,244.3,496.3,244.3,495.8,243.4z"/>
		<path d="M450.2,270.8c0-0.9,0-1.7,0.9-2.2C451.2,269.5,451.1,270.3,450.2,270.8z"/>
		<path d="M481.6,251.2c-0.8,0-1.7,0-2.5,0C479.9,250.7,480.7,250.9,481.6,251.2z"/>
		<path d="M521,294.2c0,0.9,0,1.7-0.9,2.2C520.1,295.6,520.2,294.8,521,294.2z"/>
		<path d="M490.5,253.9c0.9,0,1.7,0,2.2,0.9C491.8,254.8,491,254.7,490.5,253.9z"/>
		<path d="M445.8,256.9c0.1,1-0.6,1.4-1.3,1.7C444.4,257.7,445.1,257.3,445.8,256.9z"/>
		<path d="M453.8,313.8c-1,0.1-1.4-0.6-1.8-1.3C453,312.4,453.4,313.1,453.8,313.8z"/>
		<path d="M508.2,312.5c-0.4,0.7-0.8,1.4-1.8,1.3C506.8,313.1,507.2,312.4,508.2,312.5z"/>
		<path d="M446.2,256.5c-0.1-1,0.6-1.4,1.3-1.7C447.6,255.7,447,256.1,446.2,256.5z"/>
		<path d="M506.4,313.8c-0.4,0.7-0.8,1.4-1.8,1.3C505.1,314.4,505.5,313.7,506.4,313.8z"/>
		<path d="M465.7,243c-0.5,0.8-1.3,0.9-2.2,0.9C464,243,464.8,243,465.7,243z"/>
		<path d="M447.1,307.7c-0.7-0.4-1.4-0.8-1.3-1.7C446.5,306.4,447.2,306.8,447.1,307.7z"/>
		<path d="M494.5,254.3c-0.9,0-1.7,0-2.2-0.9C493.1,253.4,494,253.5,494.5,254.3z"/>
		<path d="M511.3,274.3c0.1,0.2,0.4,0.3,0.4,0.5c0.1,0.5,0,1.1,0,1.7c-0.1-0.2-0.4-0.3-0.4-0.5C511.3,275.4,511.3,274.8,511.3,274.3
			z"/>
		<path d="M470.6,241.7c0.2-0.1,0.3-0.4,0.5-0.4c0.6-0.1,1.1,0,1.7,0c-0.2,0.1-0.3,0.4-0.5,0.4C471.7,241.7,471.1,241.7,470.6,241.7
			z"/>
		<path d="M487.5,241.3c0.6,0,1.3,0,2.1,0C488.3,241.8,488.3,241.8,487.5,241.3z"/>
		<path d="M472.4,252.1c0.2-0.1,0.3-0.4,0.5-0.4c0.6-0.1,1.1,0,1.7,0c-0.2,0.1-0.3,0.4-0.5,0.4C473.5,252.1,472.9,252.1,472.4,252.1
			z"/>
		<path d="M507.8,247.3c0,0.4,0,0.9,0,1.3c-0.4-0.3-0.9-0.6-1.3-0.9C506.9,247.6,507.3,247.5,507.8,247.3z"/>
		<path d="M443.6,302.9c-0.7-0.2-1-0.6-0.9-1.3C443.4,301.8,443.7,302.3,443.6,302.9z"/>
		<path d="M517.1,302.5c0.1,0.7-0.2,1.1-0.9,1.3C516.1,303.1,516.4,302.7,517.1,302.5z"/>
		<path d="M506.4,298.6c0.1,0.7-0.2,1.1-0.9,1.3C505.5,299.2,505.7,298.8,506.4,298.6z"/>
		<path d="M514.8,305.5c0.1,0.7-0.2,1.1-0.9,1.3C513.9,306.2,514.1,305.7,514.8,305.5z"/>
		<path d="M498.9,306c-0.2,0.7-0.6,0.9-1.3,0.9c0.1-0.3,0.3-0.6,0.4-0.9C498.3,306,498.6,306,498.9,306z"/>
		<path d="M497.6,306.8c-0.2,0.7-0.6,0.9-1.3,0.9c0.1-0.3,0.3-0.6,0.4-0.9C497,306.8,497.3,306.8,497.6,306.8z"/>
		<path d="M445.4,305.5c-0.7-0.2-1-0.6-0.9-1.3C445.2,304.4,445.4,304.9,445.4,305.5z"/>
		<path d="M508.2,296c0.1,0.7-0.2,1.1-0.9,1.3C507.2,296.6,507.5,296.2,508.2,296z"/>
		<path d="M455.5,315.1c-0.7,0.1-1.2-0.2-1.3-0.9C454.9,314.2,455.4,314.4,455.5,315.1z"/>
		<path d="M452.9,297.3c-0.7-0.2-1-0.6-0.9-1.3C452.7,296.2,453,296.6,452.9,297.3z"/>
		<path d="M444.5,304.2c-0.7-0.2-1-0.6-0.9-1.3C444.3,303.1,444.5,303.6,444.5,304.2z"/>
		<path d="M498.9,256.9c0.7-0.1,1.2,0.2,1.3,0.9C499.6,257.8,499.1,257.6,498.9,256.9z"/>
		<path d="M456,247.8c0.2-0.7,0.6-0.9,1.3-0.9C457.1,247.6,456.7,247.8,456,247.8z"/>
		<path d="M522.7,273c0,0.6,0,1.1,0,1.7c-0.1,0-0.1,0-0.2,0c0-0.6,0-1.1,0-1.7C522.6,273,522.6,273,522.7,273z"/>
		<path d="M510.9,272.5c0.1,0.2,0.4,0.3,0.4,0.5c0.1,0.4,0,0.8,0,1.2c-0.1-0.2-0.4-0.3-0.4-0.5C510.8,273.4,510.9,272.9,510.9,272.5
			z"/>
		<path d="M460.8,257.3c0.2-0.7,0.6-0.9,1.3-0.9c-0.1,0.3-0.3,0.6-0.4,0.9C461.4,257.3,461.1,257.3,460.8,257.3z"/>
		<path d="M497.6,256c0.7-0.1,1.2,0.2,1.3,0.9c-0.3,0-0.6,0-0.9,0C497.9,256.6,497.7,256.3,497.6,256z"/>
		<path d="M523.3,271.2c0.1,0.2,0.4,0.3,0.4,0.5c0.1,0.4,0,0.8,0,1.2c-0.1-0.2-0.4-0.3-0.4-0.5C523.2,272.1,523.3,271.6,523.3,271.2
			z"/>
		<path d="M521.9,271.2c0.1,0.2,0.4,0.3,0.4,0.5c0.1,0.4,0,0.8,0,1.2c-0.1-0.2-0.4-0.3-0.4-0.5C521.9,272.1,521.9,271.6,521.9,271.2
			z"/>
		<path d="M462.2,256.5c0.2-0.7,0.6-0.9,1.3-0.9C463.3,256.3,462.9,256.5,462.2,256.5z"/>
		<path d="M521.5,269.5c0.1,0.2,0.4,0.3,0.4,0.5c0.1,0.4,0,0.8,0,1.2c-0.1-0.2-0.4-0.3-0.4-0.5C521.4,270.3,521.5,269.9,521.5,269.5
			z"/>
		<path d="M506.4,249.1c0.7-0.1,1.2,0.2,1.3,0.9C507.1,250,506.6,249.8,506.4,249.1z"/>
		<path d="M470.6,252.5c0.2-0.1,0.3-0.4,0.5-0.4c0.4-0.1,0.8,0,1.2,0c-0.2,0.1-0.3,0.4-0.5,0.4C471.4,252.6,471,252.5,470.6,252.5z"
			/>
		<path d="M522.4,268.2c0.3,0.1,0.6,0.3,0.9,0.4c-0.2,0.3-0.4,0.6-0.9,1.2C522.4,269,522.4,268.6,522.4,268.2z"/>
		<path d="M454.2,263.8c-0.1-0.7,0.2-1.1,0.9-1.3C455.2,263.2,454.9,263.7,454.2,263.8z"/>
		<path d="M516.6,259.5c-0.7-0.2-1-0.6-0.9-1.3C516.4,258.4,516.7,258.8,516.6,259.5z"/>
		<path d="M506,263.4c0.7,0.2,1,0.6,0.9,1.3c-0.3-0.1-0.6-0.3-0.9-0.4C506,264,506,263.7,506,263.4z"/>
		<path d="M522.4,289.4c0-0.5,0-1,0-1.6c0.2,0.1,0.3,0.1,0.3,0.1C522.8,288.7,522.8,288.7,522.4,289.4z"/>
		<path d="M459.1,258.6c0.2-0.7,0.6-0.9,1.3-0.9C460.2,258.4,459.8,258.7,459.1,258.6z"/>
		<path d="M506.9,264.7c0.7,0.2,1,0.6,0.9,1.3c-0.3-0.1-0.6-0.3-0.9-0.4C506.9,265.3,506.9,265,506.9,264.7z"/>
		<path d="M452.9,265.6c-0.1-0.7,0.2-1.1,0.9-1.3C453.8,265,453.6,265.4,452.9,265.6z"/>
		<path d="M467.5,242.6c-0.2,0.1-0.3,0.4-0.5,0.4c-0.4,0.1-0.8,0-1.2,0c0.2-0.1,0.3-0.4,0.5-0.4
			C466.6,242.5,467.1,242.6,467.5,242.6z"/>
		<path d="M515.7,258.2c-0.7-0.2-1-0.6-0.9-1.3C515.5,257.1,515.8,257.5,515.7,258.2z"/>
		<path d="M470.6,241.7c-0.2,0.1-0.3,0.4-0.5,0.4c-0.4,0.1-0.8,0-1.2,0c0.2-0.1,0.3-0.4,0.5-0.4
			C469.7,241.6,470.2,241.7,470.6,241.7z"/>
		<path d="M520.6,266.9c0.9,0.2,0.3,0.9,0.4,1.3C520.2,268,520.8,267.3,520.6,266.9z"/>
		<path d="M491.4,309.9c-0.2,0.8-0.9,0.3-1.3,0.4C490.3,309.5,491,310.1,491.4,309.9z"/>
		<path d="M492.3,253.4c-0.4-0.2-1.1,0.4-1.3-0.4C491.4,253.1,492.1,252.6,492.3,253.4z"/>
		<path d="M519.7,264.7c0.9,0.2,0.3,0.9,0.4,1.3C519.3,265.8,519.9,265.1,519.7,264.7z"/>
		<path d="M489.6,252.5c0.4,0.2,1.1-0.4,1.3,0.4C490.5,252.8,489.8,253.4,489.6,252.5z"/>
		<path d="M521.5,269.5c-0.9-0.2-0.3-0.9-0.4-1.3C521.9,268.4,521.3,269.1,521.5,269.5z"/>
		<path d="M493.2,242.6c0.4,0.2,1.1-0.4,1.3,0.4C494,242.8,493.4,243.4,493.2,242.6z"/>
		<path d="M494.5,243c0.4,0.2,1.1-0.4,1.3,0.4C495.4,243.3,494.7,243.8,494.5,243z"/>
		<path d="M468.8,242.1c-0.2,0.8-0.9,0.3-1.3,0.4C467.7,241.7,468.4,242.3,468.8,242.1z"/>
		<path d="M440.5,297.3c-0.9-0.2-0.3-0.9-0.4-1.3C440.9,296.2,440.3,296.9,440.5,297.3z"/>
		<path d="M510.9,289.9c-0.2,0.4,0.4,1.1-0.4,1.3C510.6,290.8,510,290.1,510.9,289.9z"/>
		<path d="M449.3,273.4c0.2-0.4-0.4-1.1,0.4-1.3C449.6,272.5,450.2,273.2,449.3,273.4z"/>
		<path d="M510.4,271.2c0.9,0.2,0.3,0.9,0.4,1.3C510,272.3,510.6,271.7,510.4,271.2z"/>
		<path d="M521,294.2c0.2-0.4-0.4-1.1,0.4-1.3C521.3,293.4,521.9,294,521,294.2z"/>
		<path d="M449.8,272.1c0.2-0.4-0.4-1.1,0.4-1.3C450.1,271.2,450.6,271.9,449.8,272.1z"/>
		<path d="M509.5,269.1c0.9,0.2,0.3,0.9,0.4,1.3C509.1,270.2,509.7,269.5,509.5,269.1z"/>
		<path d="M488.3,252.1c0.4,0.2,1.1-0.4,1.3,0.4C489.2,252.4,488.5,253,488.3,252.1z"/>
		<path d="M517.1,259.9c0.7,0,0.4,0.5,0.4,0.9C516.8,260.8,517.1,260.3,517.1,259.9z"/>
		<path d="M495.4,308.1c0,0.6-0.5,0.4-0.9,0.4C494.5,307.9,495,308.2,495.4,308.1z"/>
		<path d="M496.3,307.7c0,0.6-0.5,0.4-0.9,0.4C495.4,307.5,495.9,307.8,496.3,307.7z"/>
		<path d="M463.9,307.7c-0.3-0.1-0.8,0.2-0.9-0.4C463.4,307.3,463.9,307.1,463.9,307.7z"/>
		<path d="M517.9,261.7c-0.7,0-0.4-0.5-0.4-0.9C518.2,260.8,517.9,261.3,517.9,261.7z"/>
		<path d="M498,244.3c0.3,0.1,0.8-0.2,0.9,0.4C498.6,244.7,498.1,244.9,498,244.3z"/>
		<path d="M498.9,244.7c0.3,0.1,0.8-0.2,0.9,0.4C499.5,245.1,498.9,245.4,498.9,244.7z"/>
		<path d="M457.3,246.9c0-0.6,0.5-0.4,0.9-0.4C458.2,247.1,457.6,246.8,457.3,246.9z"/>
		<path d="M463.5,255.6c0-0.6,0.5-0.4,0.9-0.4C464.4,255.8,463.8,255.5,463.5,255.6z"/>
		<path d="M464.4,255.2c0-0.6,0.5-0.4,0.9-0.4C465.2,255.4,464.7,255.1,464.4,255.2z"/>
		<path d="M465.3,254.7c0-0.6,0.5-0.4,0.9-0.4C466.1,254.9,465.6,254.7,465.3,254.7z"/>
		<path d="M505.1,248.2c0.3,0.1,0.8-0.2,0.9,0.4C505.7,248.6,505.1,248.9,505.1,248.2z"/>
		<path d="M466.2,254.3c0-0.6,0.5-0.4,0.9-0.4C467,254.5,466.5,254.2,466.2,254.3z"/>
		<path d="M467,253.9c0-0.6,0.5-0.4,0.9-0.4C467.9,254.1,467.4,253.8,467,253.9z"/>
		<path d="M502.5,316.4c0,0.6-0.5,0.4-0.9,0.4C501.6,316.2,502.1,316.5,502.5,316.4z"/>
		<path d="M452.4,266.4c0.1-0.3-0.2-0.8,0.4-0.9C452.8,265.9,453.1,266.4,452.4,266.4z"/>
		<path d="M519.7,264.7c-0.7,0-0.4-0.5-0.4-0.9C519.9,263.9,519.6,264.4,519.7,264.7z"/>
		<path d="M520.2,266c0.7,0,0.4,0.5,0.4,0.9C519.9,266.8,520.2,266.3,520.2,266z"/>
		<path d="M509.1,268.2c0.7,0,0.4,0.5,0.4,0.9C508.9,269,509.2,268.5,509.1,268.2z"/>
		<path d="M510,270.4c0.7,0,0.4,0.5,0.4,0.9C509.8,271.2,510,270.7,510,270.4z"/>
		<path d="M517.1,302.5c0.1-0.3-0.2-0.8,0.4-0.9C517.4,302,517.7,302.5,517.1,302.5z"/>
		<path d="M518.8,263c0.7,0,0.4,0.5,0.4,0.9C518.6,263.8,518.9,263.3,518.8,263z"/>
		<path d="M441.4,299c-0.7,0-0.4-0.5-0.4-0.9C441.6,298.2,441.3,298.7,441.4,299z"/>
		<path d="M452,296c-0.7,0-0.4-0.5-0.4-0.9C452.2,295.2,451.9,295.7,452,296z"/>
		<path d="M509.1,294.2c-0.1,0.3,0.2,0.8-0.4,0.9C508.7,294.8,508.4,294.3,509.1,294.2z"/>
		<path d="M451.6,295.1c-0.7,0-0.4-0.5-0.4-0.9C451.8,294.3,451.5,294.8,451.6,295.1z"/>
		<path d="M508.6,295.1c-0.1,0.3,0.2,0.8-0.4,0.9C508.3,295.7,508,295.2,508.6,295.1z"/>
		<path d="M509.5,293.4c-0.1,0.3,0.2,0.8-0.4,0.9C509.2,293.9,508.9,293.4,509.5,293.4z"/>
		<path d="M523.8,281.5c-0.2,0.5-0.2,0.8-0.3,1.1c-0.1-0.2-0.2-0.4-0.2-0.6C523.3,281.8,523.4,281.8,523.8,281.5z"/>
		<path d="M518.8,263c-0.7,0-0.4-0.5-0.4-0.9C519,262.1,518.8,262.6,518.8,263z"/>
		<path d="M440.9,298.2c-0.7,0-0.4-0.5-0.4-0.9C441.2,297.3,440.9,297.8,440.9,298.2z"/>
		<path d="M441.4,263.8c0.1-0.3-0.2-0.8,0.4-0.9C441.8,263.3,442,263.8,441.4,263.8z"/>
		<path d="M507.3,297.3c-0.1,0.3,0.2,0.8-0.4,0.9C506.9,297.8,506.7,297.3,507.3,297.3z"/>
		<path d="M448.9,253.4c-0.1,0.1-0.3,0.3-0.4,0.4C448.6,253.7,448.8,253.6,448.9,253.4z"/>
		<path d="M449.3,253c-0.1,0.1-0.3,0.3-0.4,0.4C449,253.3,449.2,253.1,449.3,253z"/>
		<path d="M449.3,253c0.1-0.1,0.3-0.3,0.4-0.4C449.6,252.7,449.5,252.8,449.3,253z"/>
		<path d="M449.8,252.5c0.1-0.1,0.3-0.3,0.4-0.4C450.1,252.3,449.9,252.4,449.8,252.5z"/>
		<path d="M506.9,298.2c-0.1,0.1-0.3,0.3-0.4,0.4C506.6,298.4,506.7,298.3,506.9,298.2z"/>
		<path d="M504.7,247.8c0.1,0.1,0.3,0.3,0.4,0.4C505,248.1,504.8,247.9,504.7,247.8z"/>
		<path d="M505.5,299.9c-0.1,0.1-0.3,0.3-0.4,0.4C505.3,300.2,505.4,300,505.5,299.9z"/>
		<path d="M506.4,249.1c-0.1-0.1-0.3-0.3-0.4-0.4C506.1,248.8,506.3,248.9,506.4,249.1z"/>
		<path d="M453.3,249.5c-0.1,0.1-0.3,0.3-0.4,0.4C453,249.8,453.2,249.7,453.3,249.5z"/>
		<path d="M452.4,250.4c0.1-0.1,0.3-0.3,0.4-0.4C452.7,250.1,452.6,250.2,452.4,250.4z"/>
		<path d="M507.8,249.9c0.1,0.1,0.3,0.3,0.4,0.4C508.1,250.2,507.9,250.1,507.8,249.9z"/>
		<path d="M508.2,250.4c0.1,0.1,0.3,0.3,0.4,0.4C508.5,250.7,508.4,250.5,508.2,250.4z"/>
		<path d="M458.2,259.5c0.1-0.1,0.3-0.3,0.4-0.4C458.5,259.2,458.3,259.4,458.2,259.5z"/>
		<path d="M457.8,259.9c0.1-0.1,0.3-0.3,0.4-0.4C458,259.6,457.9,259.8,457.8,259.9z"/>
		<path d="M516.6,259.5c0.1,0.1,0.3,0.3,0.4,0.4C516.9,259.8,516.8,259.6,516.6,259.5z"/>
		<path d="M457.3,260.4c0.1-0.1,0.3-0.3,0.4-0.4C457.6,260.1,457.5,260.2,457.3,260.4z"/>
		<path d="M448,308.6c-0.1-0.1-0.3-0.3-0.4-0.4C447.7,308.3,447.9,308.4,448,308.6z"/>
		<path d="M456.9,260.8c0.1-0.1,0.3-0.3,0.4-0.4C457.2,260.5,457,260.7,456.9,260.8z"/>
		<path d="M447.6,308.1c-0.1-0.1-0.3-0.3-0.4-0.4C447.3,307.9,447.4,308,447.6,308.1z"/>
		<path d="M456.4,261.2c0.1-0.1,0.3-0.3,0.4-0.4C456.7,260.9,456.6,261.1,456.4,261.2z"/>
		<path d="M513.5,307.3c0.1-0.1,0.3-0.3,0.4-0.4C513.8,307,513.7,307.1,513.5,307.3z"/>
		<path d="M455.1,262.5c0.1-0.1,0.3-0.3,0.4-0.4C455.4,262.2,455.2,262.4,455.1,262.5z"/>
		<path d="M456,261.7c0.1-0.1,0.3-0.3,0.4-0.4C456.3,261.4,456.1,261.5,456,261.7z"/>
		<path d="M455.5,262.1c0.1-0.1,0.3-0.3,0.4-0.4C455.8,261.8,455.7,262,455.5,262.1z"/>
		<path d="M517.9,261.7c0.1,0.1,0.3,0.3,0.4,0.4C518.2,262,518.1,261.8,517.9,261.7z"/>
		<path d="M448,254.3c0.1-0.1,0.3-0.3,0.4-0.4C448.3,254,448.2,254.1,448,254.3z"/>
		<path d="M447.6,254.7c0.1-0.1,0.3-0.3,0.4-0.4C447.9,254.4,447.7,254.6,447.6,254.7z"/>
		<path d="M454.2,314.2c-0.1-0.1-0.3-0.3-0.4-0.4C453.9,313.9,454.1,314.1,454.2,314.2z"/>
		<path d="M514.4,256.5c-0.1-0.1-0.3-0.3-0.4-0.4C514.1,256.2,514.3,256.3,514.4,256.5z"/>
		<path d="M508.6,312.1c-0.1,0.1-0.3,0.3-0.4,0.4C508.4,312.3,508.5,312.2,508.6,312.1z"/>
		<path d="M452,312.5c-0.1-0.1-0.3-0.3-0.4-0.4C451.7,312.2,451.9,312.3,452,312.5z"/>
		<path d="M451.6,312.1c-0.1-0.1-0.3-0.3-0.4-0.4C451.3,311.8,451.4,311.9,451.6,312.1z"/>
		<path d="M446.2,256.5c-0.1,0.1-0.3,0.3-0.4,0.4C446,256.7,446.1,256.6,446.2,256.5z"/>
		<path d="M514.4,256.5c0.1,0.1,0.3,0.3,0.4,0.4C514.7,256.7,514.5,256.6,514.4,256.5z"/>
		<path d="M460.4,257.8c0.1-0.1,0.3-0.3,0.4-0.4C460.7,257.5,460.6,257.6,460.4,257.8z"/>
		<path d="M500.2,257.8c0.1,0.1,0.3,0.3,0.4,0.4C500.5,258,500.4,257.9,500.2,257.8z"/>
		<path d="M453.8,264.3c0.1-0.1,0.3-0.3,0.4-0.4C454.1,264,453.9,264.1,453.8,264.3z"/>
		<path d="M445.8,306c-0.1-0.1-0.3-0.3-0.4-0.4C445.5,305.7,445.7,305.8,445.8,306z"/>
		<path d="M458.6,259.1c0.1-0.1,0.3-0.3,0.4-0.4C458.9,258.8,458.8,258.9,458.6,259.1z"/>
		<path d="M446.7,310.3c0.1-0.3,0.3-0.6,0.4-0.9c0.3,0.3,0.6,0.6,0.9,0.9C447.6,310.3,447.1,310.3,446.7,310.3z"/>
		<path d="M447.1,309.5c-0.1-0.1-0.3-0.3-0.4-0.4C446.8,309.2,447,309.3,447.1,309.5z"/>
		<path d="M514,252.5c-0.1,0.1-0.3,0.3-0.4,0.4C513.7,252.8,513.8,252.7,514,252.5z"/>
		<path d="M461.1,260.1c2.1,1.6,4.5,1.9,6.8,2.3c2.5,0.4,5-0.4,7.4-1.3c2.3-0.9,4.2-2.5,5.9-4.5c0.9,0.9,1.7,1.6,2.4,2.4
			c1.8,1.8,3.8,2.9,6.5,3.4c1.1,0.2,2.2,0.5,3.3,0.5c2.1,0,4-0.5,5.9-1.2c0.4-0.1,0.8-0.1,1.3-0.2c-0.2,0.5-0.6,0.8,0,1.1
			c-0.4,0.3-0.5,0.7-0.4,1.1c0.3,6.7-0.6,13.3-0.5,20c0,1.2-0.3,2.5-0.4,3.7c-0.1,1.3,0.1,2.6-0.1,3.9c-0.1,1-0.5,2.1-1,3.1
			c-0.8,1.6-1.6,3.3-2.7,4.8c-0.8,1.2-1.9,2.3-2.9,3.4c-1.7,1.7-3.7,3-5.8,4.2c-2.1,1.2-4.5,2-6.7,2.9c-1.2,0.5-2.3-0.3-3.4-0.6
			c-3.5-1.1-6.5-3-9.3-5.2c-3.3-2.7-5.6-6.3-7-10.4c-0.4-1.1-0.8-2.4-0.6-3.7c0.1-0.8,0.1-1.7,0-2.6c-0.3-2.7,0.6-5.4,0.5-8.1
			c-0.1-2.7-0.3-5.5,0.1-8.2c0.5-3.4,0.2-6.7,0.4-10C460.9,260.7,461,260.6,461.1,260.1z M498.9,285.3c0-1.8-0.1-3.6,0-5.4
			c0.1-1.7-0.2-3.3,0.3-5.1c0.5-1.7,0.1-3.6,0.1-5.4c0-2.2,0-4.3,0-6.7c-2.2,1.4-4.4,1-6.6,1.1c-2.3,0.1-4.2-0.7-6.2-1.5
			c-2-0.9-3.7-2.3-5.2-3.7c-0.5,0.2-0.9,0.3-1.3,0.5c-0.2,0.1-0.4,0.4-0.6,0.6c-2.3,2.2-5.2,3.2-8.2,3.6c-2.8,0.4-5.7,0.2-8.3-1.1
			c-0.3-0.2-0.8,0-1.1,0c0,1.6,0,3.1,0,4.7c1.8,1.1,3.8,2,5.7,3c3.1,1.6,6.1,3.2,9.2,4.8c1,0.5,2.1,0.7,3,1.4c2.7,1.9,5.8,3,8.7,4.7
			c3.2,1.9,6.7,3.4,10,5.2C498.5,285.8,498.7,285.6,498.9,285.3z M461.3,292.6c0.7,1.9,1.4,3.1,2,4.4c0.8,1.6,1.8,2.9,3,4.2
			c2.9,3,6.3,5.2,10.6,6.9c0.9,0.4,2.1,1,3.1,0.5c2.6-1.1,5.5-1.4,7.6-3.4c1.8-0.6,3-2,4.4-3.2c1-0.9,1.9-2.1,2.9-3.1
			c-0.1-0.9,1.5-1.1,0.8-2.2c-0.8-0.5-1.6-1.1-2.4-1.5c-3.2-1.6-6.4-3-9.5-4.8c-3.6-2-7.3-3.6-10.9-5.6c-3.1-1.7-6.4-3-9.5-4.8
			c-0.6-0.4-1.3-0.6-2-1c-0.2,3.2-0.3,6.1-0.6,9.1C460.7,289.7,461.2,291.4,461.3,292.6z M498.4,286.6c-0.3-0.1-0.6-0.2-0.8-0.3
			c-2.9-1.4-5.7-2.9-8.5-4.4c-2.2-1.2-4.7-2-6.8-3.3c-2.8-1.8-5.8-3-8.7-4.7c-3.1-1.8-6.5-3.2-9.5-5.2c-0.7-0.4-1.5-0.6-2.2-0.9
			c-1.1,3.3-0.5,6.6-0.7,9.9c0.5,0.3,0.9,0.8,1.4,1c2.4,1.3,4.9,2.3,7.2,3.8c1.2,0.8,2.6,1.2,3.8,1.9c1.3,0.7,2.6,1.5,4,2.2
			c3.1,1.6,6.3,3.2,9.5,4.8c0.8,0.4,1.5,0.9,2.3,1.3c0.8,0.4,1.8,0.7,2.5,1.3c0.7,0.6,1.7,0.5,2.4,1.3c0.5,0.5,1.4,0.7,2.1,0.9
			C498.2,293,498.7,289.9,498.4,286.6z"/>
		<path d="M457.2,279.3c0,1.1,0.2,1.3,0.6,1.7c-0.8,4.9-1.5,9.8-2.3,14.9c-0.3,0-0.7,0-1.1,0c-0.8-4.9-0.8-9.9-1.5-14.9
			c0.4-0.3,0.8-0.5,1.2-0.8c-0.3-1.3-0.8-2.6-2-3.4c-0.4-2.2,2-1.6,2.7-2.8c-1-2.5-0.8-4.7,1.3-6.8c0-0.7,0-1.4,0-2.2
			c0.1-0.1,0.2-0.1,0.3-0.2c0,0.3,0.1,0.6,0.1,0.8c0.2-0.1,0.3-0.2,0.5-0.3c0,0.6,0.3,1.5-0.1,1.9c-0.7,0.8-0.4,1.5,0.1,2.1
			c0.4,0.6,0.5,1.2,0.4,1.8c-0.1,1.2,0.3,2.4-0.3,3.6c0.7,0.4,1.4,0.8,2.1,1.2c0,1-0.4,1.7-1.2,2.3
			C457.3,278.3,457.4,279.5,457.2,279.3c-0.7-1.5-1.7-1.8-2.9-1.5c0,0.5,0,1.1,0,1.5c0.6,0.2,1.1,0.3,1.6,0.5
			C456.4,279.4,456.8,279,457.2,279.3z M453.3,281.5c0.9,1.2,0.2,2.7,0.8,4c0.1-0.6,0.1-1.1,0.2-1.7c0.1-0.6-0.2-1.2,0.4-2.1
			c0,1.8,0,3.1,0,4.5c0,0.1,0.1,0.1,0.2,0.1c0,0,0.1,0,0.3-0.1c0-1.5,0-3,0-4.4c0-0.1,0.1-0.1,0.2-0.1c0,0,0.1,0,0.3,0.1
			c0,1.6,0,3.2,0,4.9c0,0.1,0.1,0.1,0.2,0.1c0,0,0.1,0,0.2-0.1c0-1.3,0-2.7,0-4.2c1.3,0.4,0.8-0.8,1.3-1.1c-1-0.8-2.2-0.6-3.3-0.6
			C453.8,281,453.6,281.2,453.3,281.5z M456.1,274.5c0.3-0.7,0.5-1.1,0.7-1.5c-0.5-1.2-1-2.4-1.5-3.7c-0.3,0.6-0.5,1.2-0.7,1.7
			C455.1,272.2,455.6,273.2,456.1,274.5z M456.8,275.5c0-0.1,0-0.2,0-0.4c-0.5,0-1,0-1.5,0c-0.5,0-1,0.1-1.5,0.1c0,0.1,0,0.2,0,0.3
			C454.8,275.5,455.8,275.5,456.8,275.5z M453.4,276.1c0.7,0.3,1.4,0.5,2.1,0C454.8,276.1,454.1,276.1,453.4,276.1z"/>
		<path d="M506.9,276.4c1-0.2,1.3,0.8,2.1,1.3c-1.6,1.1-2.3,2.6-2.8,4.3c-0.1-0.1-0.1,0,0,0c0.3,0.1,0.7,0.1,1.3,0.2
			c-0.2,1.3-0.5,2.5-0.7,3.8c-0.2,1.4-0.4,2.7-0.7,4.1c-0.2,1.3-0.4,2.6-0.7,3.8c-0.3,1.3,0.3,2.7-0.9,3.9c-0.2-0.1-0.6-0.3-0.9-0.5
			c0-0.3,0-0.5,0-0.7c-0.1-2.8,0-5.7-0.5-8.5c-0.3-1.9-0.2-3.8-0.4-5.8c0.3-0.1,0.5-0.2,0.9-0.3c0-0.5,0-1.1,0-1.7
			c0.3,0.4,0.5,0.7,0.6,0.9c0.7,0,1.3,0,1.9,0c0.2-0.6,0.4-1,0.6-1.6c-1,0-1.8,0-2.6,0c-0.2,0.2-0.4,0.4-0.6,0.7
			c-1,0.2,0.1-1.5-1.1-1.2c-0.3-0.5-0.7-1-1-1.5c0.5-0.5,1-1,1.5-1.5c0.3,0,0.5,0,0.9,0c0-0.2,0.1-0.4,0.1-0.6
			c0.1-0.8-0.2-1.7,0.5-2.4c-1.1-1.6-0.1-2.7,0.9-3.8c-0.5-1.2-0.5-1.2,0.4-2.9c-0.1,2.2,1.5,3.6,1.8,5.7c-0.1,0.1-0.2,0.4-0.4,0.7
			c-0.1,0.3-0.3,0.6-0.5,1.1C506.5,274.6,506.2,275.6,506.9,276.4c-1.3,0-2.6,0.1-3.9,0.1c0,0-0.1,0.1-0.2,0.3c1,0,1.8,0,2.6,0
			c0.2,0,0.4,0.3,0.6,0.6c0,0.1,0,0,0,0c-0.6,0-1.2,0-1.7,0c0,0.1,0,0.1,0,0.2c0.6,0,1.2,0,1.7-0.2c0.3-0.2,0.5-0.2,0.9-0.2
			C506.9,276.9,506.9,276.7,506.9,276.4z M505.2,271.7c-0.1-0.5-0.1-0.9-0.2-1.5c-0.3,0.6-0.5,1-0.7,1.5c0.3,0,0.6,0,1.5-1.3
			c-0.3,0.7-0.8,1.5-0.9,2.3c-0.1,0.8-1.1,1.6-0.2,2.8c0.7-1,1.3-1.9,1.7-2.5c0-1,0-1.8,0-2.5C506.1,270.4,505.9,270.4,505.2,271.7z
			 M506.9,283.2c-1.2-0.8-2.3-0.9-4-0.4c0.1,0.8-0.1,1.6,0.3,2.8c0.1-1,0.2-1.5,0.3-2.1c0.3,0.8,0.3,1.6,0.3,2.3
			c0,0.8-0.2,1.6,0.2,2.5c0.2-0.5,0.3-0.7,0.5-1.1c0.2,0.4,0.2,0.7,0.3,1c1.1-1.5,0.6-3.2,1.1-4.8c0.1,0.7,0.1,1.5,0.2,2.4
			c0.7-0.9-0.1-1.9-1.5-3.7c0,0,0.1,0.1,0.1,0.1c0.1-0.1,0.2-0.2,0.4-0.3c0,0-0.1-0.1-0.1-0.1C504.8,281.8,504.7,281.9,506.9,283.2z
			 M503,278.3c0,0.1,0,0.2,0,0.4c1.1,0,2.2,0,3.2,0c0.1,0,0.1-0.2,0.2-0.3C505.2,278.3,504.1,278.3,503,278.3z M502.5,277.4
			c0,0.1,0,0.3,0,0.4c0.4-0.1,0.8-0.1,1.2-0.2c0-0.1,0-0.2,0-0.2C503.3,277.4,502.9,277.4,502.5,277.4z"/>
		<path d="M486.1,310.8c-0.9,0-1.7,0-2.6,0c-0.2,0-0.4,0.3-0.5,0.4c-1.2,0-2.5,0-3.7,0c-0.9,0-1.8-0.1-2.7-0.4
			c-0.8-0.3-1.8,0.3-2.7-0.4c-0.4-0.3-1.3-0.1-1.9-0.1c-0.9-0.8-2.1-0.8-3.2-1.3c-0.9-0.4-1.8-0.6-2.5-1.3c0.5,0.1,0.9,0.1,1.4,0.3
			c2.1,0.8,4.1,1.9,6.5,1.9c1,0.7,2.1,0.3,3.1,0.4c0.5,0.1,1.1,0.3,1.6,0.4c0.6,0.1,1.2,0.1,1.8,0c2.3-0.5,4.8-0.2,7-1.2
			c1.5,0.1,2.7-1,4.3-0.9c-0.7,0.9-1.8,1-2.8,1.3c-0.9,0.3-1.9,0.4-2.8,0.5C486.2,310.4,486.1,310.6,486.1,310.8z"/>
		<path d="M498,306c-0.7-0.1-1.2,0.2-1.3,0.9c-1.3,0.3-2.5,0.9-3.5,1.7c-0.4,0-0.9,0-1.3,0c0.4-0.3,0.8-0.6,1.3-0.9
			c2.4-1.1,4.8-2.4,6.8-4.2c0.2-0.2,0.5-0.1,0.8-0.2c-0.3,0.4-0.6,0.9-0.9,1.3c-0.1,0.1-0.3,0.3-0.4,0.4
			C498.7,305,498.2,305.3,498,306z"/>
		<path d="M510.5,287.8c-0.3-2.5,0.4-4.4,0.5-6.4c0-2-0.8-3.8-0.4-6.2c1.2,3.3,0.7,6.3,0.7,9.3C511.3,285.5,510.8,286.4,510.5,287.8
			z"/>
		<path d="M453.3,296c-1.2-0.4-1-1.8-1.8-2.5c-0.2-0.2-0.3-0.4-0.4-0.5c0.2-0.9-0.4-1.7-0.6-2.5c-0.1-0.6-0.6-1.2-0.7-1.8
			c-0.1-0.5,0-1.1,0-1.7c0.1,0,0.2,0,0.2,0c0.7,3,1.8,6,3.3,8.7C453.4,295.7,453.3,295.8,453.3,296z"/>
		<path d="M463.5,256.9c0.2-0.3,0.3-0.7,0.6-0.8c1.1-0.6,2.3-1.1,3.4-1.6c0.4-0.2,0.8-0.1,1.2-0.2
			C467.2,255.4,465.4,256.3,463.5,256.9z"/>
		<path d="M506.9,296c0.4-1.6,1.2-3,2.2-4.3C509,293.1,508,295,506.9,296z"/>
		<path d="M506,264.3c-0.1,0.7,0.2,1.1,0.9,1.3c0,0.3,0,0.6,0,0.9c-1.3-0.6-1.5-2.1-2.6-2.9c-0.1-0.1,0-0.4,0-0.6
			C504.8,263.4,505.4,263.8,506,264.3z"/>
		<path d="M503.3,261.2c0.1,0.1,0.3,0.3,0.4,0.4c0,0.3,0,0.6,0,0.9c-0.9-0.9-1.8-1.7-2.7-2.6c0.3,0,0.6,0,0.9,0
			c0.1,0.1,0.3,0.3,0.4,0.4c0.1,0.1,0.3,0.3,0.4,0.4S503.2,261.1,503.3,261.2z"/>
		<path d="M458.6,303.4c-0.1-0.1-0.3-0.3-0.4-0.4c-0.1-0.1-0.3-0.3-0.4-0.4c-0.1-0.1-0.3-0.3-0.4-0.4c0-0.3,0-0.6,0-0.9
			c0.7,0.7,1.5,1.4,2.2,2.2C459.2,303.4,458.9,303.4,458.6,303.4z"/>
		<path d="M456,263.4c0-1.2,1-1.6,1.8-2.2C457.7,262.4,456.8,262.8,456,263.4z"/>
		<path d="M458.2,260.8c0.6-0.8,1-1.7,2.2-1.7C459.8,259.8,459.4,260.8,458.2,260.8z"/>
		<path d="M461.7,305.1c-0.3,0-0.6,0-0.9,0c-0.4-0.6-0.9-1.2-1.3-1.7C460.7,303.4,461.2,304.3,461.7,305.1z"/>
		<path d="M453.8,297.7c-0.1-0.1-0.3-0.3-0.4-0.4c0-0.4,0-0.9,0-1.3c0.5,0.7,1.3,1.2,1.3,2.2C454.4,298,454.1,297.9,453.8,297.7z"/>
		<path d="M509.1,291.6c0-1,0.2-1.9,0.9-2.6C510,290,510.1,291,509.1,291.6z"/>
		<path d="M465.3,307.3c-0.9-0.2-1.8-0.3-2.2-1.3C464,306.1,464.9,306.3,465.3,307.3z"/>
		<path d="M456.4,300.3c-0.7-0.4-1.4-0.8-1.3-1.7C455.8,299,456.5,299.4,456.4,300.3z"/>
		<path d="M505.1,298.6c0.1,1-0.6,1.4-1.3,1.7C503.7,299.4,504.4,299,505.1,298.6z"/>
		<path d="M508.6,269.9c0.8,0.5,0.9,1.3,0.9,2.2C508.7,271.6,508.6,270.8,508.6,269.9z"/>
		<path d="M451.1,271.7c0-0.9,0-1.7,0.9-2.2C452,270.3,452,271.2,451.1,271.7z"/>
		<path d="M498.9,258.2c1-0.1,1.4,0.6,1.8,1.3C499.7,259.6,499.3,258.9,498.9,258.2z"/>
		<path d="M461.7,257.3c0.3,0,0.6,0,0.9,0c-0.4,0.7-0.8,1.4-1.8,1.3C461.1,258.2,461.4,257.8,461.7,257.3z"/>
		<path d="M462.2,306c-0.1-0.3-0.3-0.6-0.4-0.9c0.7-0.1,1.2,0.2,1.3,0.9C462.8,306,462.5,306,462.2,306z"/>
		<path d="M453.3,266.9c-0.1-0.7,0.2-1.1,0.9-1.3C454.3,266.3,454,266.7,453.3,266.9z"/>
		<path d="M510.1,273c0.2,0.6,0.3,0.8,0.3,1c0,0.4,0,0.8-0.3,1.2C510.1,274.5,510.1,274,510.1,273z"/>
		<path d="M510.4,287.3c0,0.4,0,0.8,0,1.2c0,0.2-0.3,0.3-0.4,0.5c0-0.4,0-0.8,0-1.2C510,287.6,510.3,287.5,510.4,287.3z"/>
		<path d="M454.2,265.6c-0.1-0.7,0.2-1.1,0.9-1.3C455.2,265,454.9,265.4,454.2,265.6z"/>
		<path d="M510,273.4c-0.9-0.2-0.3-0.9-0.4-1.3C510.4,272.3,509.8,273,510,273.4z"/>
		<path d="M466.2,307.7c-0.3-0.1-0.8,0.2-0.9-0.4C465.6,307.3,466.1,307.1,466.2,307.7z"/>
		<path d="M462.6,257.3c0-0.6,0.5-0.4,0.9-0.4C463.5,257.5,463,257.3,462.6,257.3z"/>
		<path d="M508.2,269.1c0.7,0,0.4,0.5,0.4,0.9C508,269.9,508.3,269.4,508.2,269.1z"/>
		<path d="M452,269.5c0.1-0.3-0.2-0.8,0.4-0.9C452.4,268.9,452.7,269.5,452,269.5z"/>
		<path d="M506.9,266.4c0.7,0,0.4,0.5,0.4,0.9C506.7,267.3,506.9,266.8,506.9,266.4z"/>
		<path d="M452.9,267.8c0.1-0.3-0.2-0.8,0.4-0.9C453.3,267.2,453.5,267.7,452.9,267.8z"/>
		<path d="M507.8,268.2c-0.7,0-0.4-0.5-0.4-0.9C508,267.4,507.7,267.9,507.8,268.2z"/>
		<path d="M508.2,269.1c-0.7,0-0.4-0.5-0.4-0.9C508.4,268.2,508.1,268.7,508.2,269.1z"/>
		<path d="M506.4,296.9c0.1-0.3-0.2-0.8,0.4-0.9C506.8,296.3,507.1,296.8,506.4,296.9z"/>
		<path d="M452.4,268.6c0.1-0.3-0.2-0.8,0.4-0.9C452.8,268.1,453.1,268.6,452.4,268.6z"/>
		<path d="M505.5,298.2c0.1-0.3-0.2-0.8,0.4-0.9C505.9,297.6,506.2,298.1,505.5,298.2z"/>
		<path d="M502.5,301.6c-0.1,0.1-0.3,0.3-0.4,0.4C502.2,301.9,502.3,301.8,502.5,301.6z"/>
		<path d="M502.9,301.2c-0.1,0.1-0.3,0.3-0.4,0.4C502.6,301.5,502.7,301.3,502.9,301.2z"/>
		<path d="M506.4,296.9c-0.1,0.1-0.3,0.3-0.4,0.4C506.1,297.1,506.3,297,506.4,296.9z"/>
		<path d="M455.1,298.6c-0.1-0.1-0.3-0.3-0.4-0.4C454.8,298.3,454.9,298.4,455.1,298.6z"/>
		<path d="M505.5,298.2c-0.1,0.1-0.3,0.3-0.4,0.4C505.3,298.4,505.4,298.3,505.5,298.2z"/>
		<path d="M456.9,300.8c-0.1-0.1-0.3-0.3-0.4-0.4C456.6,300.5,456.7,300.6,456.9,300.8z"/>
		<path d="M503.3,300.8c0.1-0.1,0.3-0.3,0.4-0.4C503.6,300.5,503.5,300.6,503.3,300.8z"/>
		<path d="M457.3,301.2c-0.1-0.1-0.3-0.3-0.4-0.4C457,300.9,457.2,301.1,457.3,301.2z"/>
		<path d="M502.9,301.2c0.1-0.1,0.3-0.3,0.4-0.4C503.2,300.9,503,301.1,502.9,301.2z"/>
		<path d="M460.4,259.1c0.1-0.1,0.3-0.3,0.4-0.4C460.7,258.8,460.6,258.9,460.4,259.1z"/>
		<path d="M500.7,259.5c0.1,0.1,0.3,0.3,0.4,0.4C501,259.8,500.8,259.6,500.7,259.5z"/>
		<path d="M455.5,263.8c0.1-0.1,0.3-0.3,0.4-0.4C455.8,263.6,455.7,263.7,455.5,263.8z"/>
		<path d="M457.8,261.2c0.1-0.1,0.3-0.3,0.4-0.4C458,260.9,457.9,261.1,457.8,261.2z"/>
		<path d="M503.8,262.5c0.1,0.1,0.3,0.3,0.4,0.4C504.1,262.8,503.9,262.7,503.8,262.5z"/>
		<path d="M501.6,302.5c0.1-0.1,0.3-0.3,0.4-0.4C501.9,302.2,501.7,302.4,501.6,302.5z"/>
		<path d="M501.1,302.9c0.1-0.1,0.3-0.3,0.4-0.4C501.4,302.6,501.3,302.8,501.1,302.9z"/>
		<path d="M500.7,303.4c0.1-0.1,0.3-0.3,0.4-0.4C501,303.1,500.8,303.2,500.7,303.4z"/>
		<path d="M455.1,264.3c0.1-0.1,0.3-0.3,0.4-0.4C455.4,264,455.2,264.1,455.1,264.3z"/>
		<path d="M486.5,268.3c0.4,0.7,0.9,1.5,1.5,2.4c-0.5,0.1-0.9,0.1-1.2,0.1c-0.4-0.5-0.7-0.9-1.2-1.6c-0.4,0.6-0.7,1-1,1.5
			c-0.4,0-0.8,0-1.2,0c0.6-0.8,1.1-1.5,1.7-2.2c-0.3-0.7-0.6-1.3-0.9-1.9c0.9-0.5,1.1,0.3,1.5,0.6c0.5-0.3,0.9-0.6,1.4-0.9
			C487.7,267.4,486.6,267.5,486.5,268.3z"/>
		<path d="M480.3,271.1c-1.1-1.5-1.4-3-1.7-4.5c0.3,0,0.5-0.1,0.6-0.1c0.4,1,0.8,2.1,1.2,3c1.6-0.5,0.7-2.8,2.5-3.1
			C482.7,267.8,482.1,268.9,480.3,271.1z"/>
		<path d="M476.4,269.3c0.3,0.3,0.4,0.4,0.6,0.6c0.1-0.1,0.3-0.3,0.5-0.4c0.2,0.2,0.4,0.4,0.7,0.7c-0.3,0.2-0.6,0.3-1.1,0.6
			c-0.1,0-0.5-0.3-0.8-0.4c-0.4-0.1-0.8,0-1.5,0c0.3-0.5,0.4-0.8,0.7-1.2c-0.2-0.7,0.5-1.7-0.5-2.5c0.3-0.2,0.6-0.5,1.2-0.9
			C476.5,267.1,476.3,268.2,476.4,269.3z"/>
		<path d="M491.3,296.9c0.5,0.3,1.1,0.6,1.8,1c0.1,0.2,0.3,0.5,0.5,0.9c-0.3,0.5-0.6,1-1,1.5c-1.1-0.2-2.1-0.4-3.3-0.6
			c-0.2-0.1-0.5-0.4-0.8-0.7c-0.5,0-0.9,0-1.2,0c-0.6,0.4-1,0.7-1.6,1c0.1-1.8,1.7-2.8,1.7-4.4c0.4,0,0.7,0,1,0c0.5,1.3,1,2.6,1.6,4
			c0.7-0.9,1.5,0.5,2.2-0.4c-0.2-0.9-0.9-1.4-1.8-1.6c0-0.6,0-1,0-1.4c0.4-0.2,0.8-0.4,1.3-0.7c0.4,0.2,0.9,0.4,1.6,0.7
			c-0.8,0.1-1.3,0.2-1.9,0.3C491.4,296.7,491.3,296.8,491.3,296.9z M487.4,297.9c0.8,0.2,1.2,0.1,0.9-0.3
			C488,297.7,487.7,297.8,487.4,297.9z"/>
		<path d="M475.1,298c-0.3,0.6-0.5,0.9-0.6,1.3c-0.5,0.1-1,0.3-1.5,0.5c-0.4-0.1-0.9-0.3-1.4-0.5c0-1.3,0-2.7,0-4.1
			c0.8,0,1.6,0,2.3,0C475.3,295.8,473.8,297.5,475.1,298z M472.8,297.8c0,1,0.3,1,0.9,0.6c0-0.2-0.1-0.4-0.1-0.6
			C473.3,297.8,473.1,297.8,472.8,297.8z M473.7,296.3c-0.8-0.3-1.1-0.1-0.9,0.3C473.1,296.5,473.4,296.4,473.7,296.3z"/>
		<path d="M479.5,300c0-1.6,0-2.9,0-4.3c0.8,0,1.6,0,2.5,0c0.2,0.2,0.4,0.4,0.6,0.6c0,0.3,0,0.6,0,0.9c-0.2,0.2-0.5,0.5-0.8,0.8
			c0.5,0.6,0.9,1.1,1.6,1.9c-0.6,0.1-0.9,0.1-1.2,0.2c-0.5-0.6-0.9-1.2-1.6-2c-0.1,0.8-0.1,1.3-0.2,1.9
			C480.1,299.8,479.9,299.9,479.5,300z M481.1,296.1c-0.1,0-0.2-0.1-0.3-0.1c-0.2,0.4-0.4,0.8-0.6,1.3c0.4,0,0.6,0,0.9,0
			C481.1,296.8,481.1,296.5,481.1,296.1z"/>
		<path d="M476,295.2c0.8,0,1.6,0,2.5,0c0,0.2,0.1,0.4,0.1,0.6c-0.6,0.3-1.2,0.5-2.3,0.9c0.9,0.1,1.3,0.2,1.7,0.3
			c0,0.2,0,0.4,0.1,0.7c-0.4,0.1-0.8,0.1-1.3,0.2c0,0.4,0,0.7,0,1.2c0.6,0,1.1,0,1.7,0c0,0.1,0.1,0.2,0.1,0.3
			c-0.3,0.1-0.5,0.2-0.8,0.3c-0.6,0.2-1.5,0.6-2.3-0.2C476.3,298.1,475.7,296.6,476,295.2z"/>
		<path d="M466.8,294.6c0.3,0.3,0.5,0.5,0.8,0.8c0,1,0,2,0,3.1c0.5,0.1,0.9,0.1,1.2,0.2c0,0.2,0,0.4,0.1,0.6c-0.8,0-1.6,0-2.6,0
			C466.3,297.8,465.7,296.2,466.8,294.6z"/>
		<path d="M483.9,296.6c-0.4-0.1-0.6-0.2-0.9-0.3c0-0.2,0-0.3,0-0.6c1-0.2,2,0,3.2,0.2c-0.2,0.2-0.5,0.5-0.9,0.8
			c-0.2,0.9-0.4,2-0.7,3.3c-0.3-0.2-0.7-0.4-0.7-0.5C483.8,298.5,483.9,297.6,483.9,296.6z"/>
		<path d="M469.3,295.2c0.5,0,0.8,0,1.2,0c0,1.4,0,2.8,0,4.2c-1.2,0-1.2,0-1.2-0.8C469.3,297.5,469.3,296.3,469.3,295.2z"/>
		<path d="M505,283.5c0,0.7,0,1.3,0,2.2C504.3,284.9,504.9,284.1,505,283.5z"/>
	</g>
</g>
<g>
</g>
<g>
</g>
<g>
</g>
<g>
</g>
<g>
</g>
<g>
</g>
<g>
</g>
<g>
</g>
<g>
</g>
<g>
</g>
<g>
</g>
<g>
</g>
<g>
</g>
<g>
</g>
<g>
</g>
</svg>
