<?xml version="1.0" encoding="utf-8"?>
<!-- Generator: Adobe Illustrator 20.1.0, SVG Export Plug-In . SVG Version: 6.00 Build 0)  -->
<svg version="1.1" id="Layer_1" xmlns="http://www.w3.org/2000/svg" xmlns:xlink="http://www.w3.org/1999/xlink" x="0px" y="0px"
	 viewBox="0 0 960 560" style="enable-background:new 0 0 960 560;" xml:space="preserve">
<g>
	<g>
		<path d="M456,496.7c-3.3-0.6-6-1.7-8.6-1.4c-9.5,1.1-18.7-1.6-28-2.3c-8-0.6-15.8-3.3-23.6-5.6c-7.7-2.3-15.1-5.2-22.6-8
			c-14.9-5.6-28.2-14.3-41.5-22.7c-3.1-1.9-6.1-4.1-8.8-6.5c-8.4-7.6-17.6-14.6-24.9-23.2c-15-17.8-28.6-36.6-37.5-58.4
			c-4.5-11-8.5-22.2-11.1-33.9c-1.9-8.7-2.6-17.6-4.1-26.2c-1.9-10.8-0.9-21.3-1.5-32c-0.2-3.7-0.1-7.2,1.7-10.8
			c1.5-2.8-0.3-6.4,1.6-9.9c2-3.8,0.7-8.8,2.2-13.5c3.2-10.2,5.4-20.7,9.8-30.5c2-4.3,3.7-8.7,5.8-13c6.3-12.8,13.7-24.9,23.2-35.6
			c5.9-6.7,11.2-14,17.1-20.7c2.6-2.9,6.2-5,9.3-7.6c2.9-2.3,5.8-4.6,8.6-7.1c6.4-5.7,13.7-10,20.9-14.6c9-5.8,18.6-10.5,28.6-14.4
			c7.2-2.8,14.5-5.2,21.8-7.8c6.5-2.4,13.4-2.8,19.8-5.4c2.5-1,5.2-1.6,7.8-1.9c2.8-0.3,5.9,0.5,8.6-0.2c15.7-3.8,31.5-1.6,47.3-1.5
			c6.7,0,13.8,1.6,20.6,3.1c6.5,1.4,12.9,3,19.4,4.2c4.2,0.8,7.9,2.6,11.9,3.8c16.6,5.1,31.7,13.1,46.7,21.9
			c19.2,11.3,34.6,26.6,49.5,42.5c11.8,12.6,19.7,27.9,27.4,43.3c6.8,13.4,10.5,27.7,15.1,41.8c1.7,5.2,0.9,11.1,2.2,16.4
			c3.9,16.6,0.8,33.5,1.8,50.2c0.3,4.7-3.2,8.8-1.9,13.6c-4.2,3.4,0.3,9.4-3.8,12.8c-2.1,12.1-6.7,23.4-11.4,34.7
			c-4.7,11.4-10.6,22-17.5,32.1c-5.2,7.6-10.5,15.2-16.8,21.8c-9.4,9.8-19.1,19.5-29.8,27.8c-12,9.3-25.2,17.3-39.1,23.7
			c-10.5,4.8-21.4,8.7-32.6,11.7c-9,2.4-18.2,4-27.4,6c-10.4,2.2-20.7,1-31,1.7C459.2,495.4,457.2,496.3,456,496.7z M249.5,287.9
			c0,7.4-0.5,14.8,0.1,22.1c0.6,6.9,2.3,13.7,3.7,20.5c1.3,6.1,2.3,12.5,4.7,18.2c5,12.3,9.6,24.8,16.2,36.6
			c6.4,11.4,13.1,22.7,21.9,32.1c9.7,10.4,19.2,21.1,30.9,29.5c9.3,6.7,18.6,13.6,28.8,18.8c17.5,9.1,35.6,16.5,55.2,20.1
			c4.2,0.8,9.1,0.1,12.5,2c3.9,2.2,7.8,0,10.8,1.7c3.9,2.2,7.8,1.7,11.8,1.7c9,0.1,17.9,0,26.9,0.1c6.5,0.1,13.1-1.3,19.3-2.5
			c6.9-1.2,14-3,20.9-4.9c9.8-2.7,19.7-5.3,28.8-9.4c16.3-7.4,32.5-15.2,46.7-26.7c4.9-4,8.9-8.9,14-12.4c5.4-3.7,9.4-8.5,13.6-13.4
			c8.4-9.8,16.5-19.7,23-30.9c7.1-12.1,13.6-24.5,17.7-37.8c3.2-10.3,7.8-20.3,7.8-31.4c3.5-4.8,0.2-10.8,2.2-15.4
			c2.4-5.7,1.3-11.1,1.6-16.6c0.4-6.7,1.6-13.9-0.3-20c-2.1-6.6-1.3-13.2-2.9-19.8c-1.7-6.9-4.8-13.9-4.4-21.3
			c-5.4-8-7.1-17.5-11.3-26.1c-8-16.5-18.1-31.4-29.7-45.3c-11.8-14.2-26.6-25.4-41.6-36.2c-6.6-4.7-14.6-7.1-20.7-12.6
			c-6-0.2-10.7-3.9-15.5-6.7c-5.3-3.1-11.7-2.4-16.7-6.4c-2.3-1.9-6.3-1.6-9.5-2.4c-6.5-1.5-12.7-4.3-19.5-3.9
			c-3.1-3.6-7.2-1.2-10.8-1.8c-3.6-0.6-6.8-2.4-10.7-2.1c-13.5,1.2-27.2-2-40.5,2c-12.6-1.7-23.8,5.1-36,5.8
			c-17.3,7-35.4,12.2-51,23c-9.5,6.6-19.6,12.3-28.2,20c-14.4,12.9-28.1,26.8-38.2,43.6c-3.9,6.4-8,12.7-11.5,19.3
			c-2.7,5.2-4.6,10.9-6.9,16.4c-0.6,1.4-1.2,2.7-1.7,4.1c-3.4,9.9-7.8,19.6-7.8,30.4c-3.6,3.1-0.3,7.6-2,10.7
			c-2.2,3.9-1.6,7.8-1.7,11.8C249.4,277.6,249.5,282.8,249.5,287.9z"/>
		<path d="M655.3,254.8c0.6,0.8,1.8,1.5,1.8,2.4c0.2,3.7,0.1,7.4,0.6,11.4c-2-1-3.6-1.7-6.2-3c0.2,2.8,0.3,4.7,0.5,7.8
			c2.4-1.8,3.9-2.9,5.7-4.8c0.2,0.6,1.4,1.4,1.4,2.2c0.1,11.2,1.1,22.5-0.2,33.6c-1.4,12.8-3.7,25.7-7.8,38c-1.5,4.4-1,9.8-5.2,13.2
			c0.8,5.2-5.1,8.4-4.1,13.7c-5,8.2-9.8,16.4-15,24.5c-7.8,12.4-16.8,23.9-27.9,33.6c-10.8,9.5-21.9,18.4-34.4,25.8
			c-14,8.2-28.4,14.8-43.8,19.7c-6.3,2-12.8,3.2-19.1,5c-18.8,5.2-38,3.3-57,4c-7,0.3-13.5-1.8-20.3-2.3c-6.9-0.5-13.8-2-20.5-3.8
			c-6.3-1.6-12.6-3.8-18.7-6c-9.7-3.5-18.9-8.6-28.1-13.2c-1.5-0.7-2.4-2.5-3.3-3.6c1.1-1.8,5.1-2.3,2.2-6.6
			c-1.7,1.2-3.1,2.2-4.6,3.3c0.8,1.1,1.5,2,2.4,3.3c-5-0.2-7.9-3.5-11.4-5.9c-6.5-4.5-13.5-8.4-18.4-15.3c1.7-0.1,2.8-0.2,4-0.3
			c0-2,0-3.7,0-7.3c-2,3.4-3.1,5.2-4,7.5c-0.4-0.1-1.8,0.3-2.2-0.1c-4.7-4.7-10.3-8.7-12.6-15.3c1.3,0,2.6,0,3.8,0
			c-0.4,2.7,0.7,4.5,4,5.7c0.6-2,1.2-3.8,1.8-5.7c1.9,1.9,3.8,3.8,5.8,5.9c-1.8,0.1-3.6,0.1-5.8,0.1c0.1,1.4,0.3,2.4,0.4,3.7
			c2.1-0.2,3.8-0.4,5.4-0.6c0-1.3,0-1.9,0-3.3c3.4,1.3,6.4,3.3,9.1,5.9c4,3.9,8.1,8,12.8,10.7c4.1,2.3,7.3,6.6,12.7,6.3
			c1.2,1.3,2.2,3.1,3.6,3.8c14.8,6.7,28.9,15.3,45.5,17.5c2.3,3.9,6.9,0.8,10.2,3.4c2.6,2.1,7.5-0.1,11.6,2
			c3.1,1.5,7.5,0.2,11.4,0.3c4,0.1,7.9-0.7,11.8,1.7c1.3,0.8,4-0.9,6.1-0.9c2.2,0,5.1,1.7,6.4,0.8c2-1.4,3.9-1.7,6.1-1.7
			c6.5-0.1,12.9-0.5,19.4-1.6c9.6-1.5,18.6-5.3,28.2-6.1c4.9-3.7,11-4.4,16.4-6.6c6.3-2.6,12.5-5.5,18.4-8.9c3.3-1.9,5.9-5,8.8-7.6
			c1.2-0.2,2.6-0.1,3.4-0.7c7.2-4.8,14.8-9.1,19.6-16.7c0.6,0,1.5,0.3,1.8,0c5.2-5.1,10.3-10.2,15.4-15.4c0.3-0.3,0-1.2,0-1.8
			c3.2-2.6,6.4-5.1,9.6-7.7c0.8,2.5,2.1,4.4,5.8,3.5c0-1.8,0-3.6,0-5.4c1.3-0.2,2.6-0.4,5.6-0.9c-2.6-2.3-4.1-3.6-5.6-4.8
			c0.7-4,1.4-7.9,5.8-9.6c0.8,2.5,2.1,4.4,5.8,3.5c0-1.8,0-3.6-0.9-6.9c1.6,1.4,1.6,1.4,4.4-1.9c-0.9-0.8-1.7-1.6-2.6-2.4
			c-1,1-1.9,1.9-1.8,4.2c-1,2.1-2.9,2.7-4.8,3.4c0.6-1.9,1-4.1,2-5.8c4-7,6.1-14.9,11.5-21.1c0,1.9,0,3.8-0.2,5.5
			c-2.6,1.6-2,3.7-0.9,6.2c1.1-0.3,2.1-0.6,3.6-1c-1-2-1.8-3.5-2.7-5.2c3.8,0.4,5.7-1.2,6-5.5c-2.3,0-4.1,0-5.9,0
			c-0.1-4.3,0.8-8.3,3.6-11.2c1.8,1.1,2.3,5.1,6.6,2.2c-1.2-1.7-2.2-3.1-3.3-4.6c-1.1,0.8-2,1.5-3.3,2.4c0.9-2.3-1.6-5.2,1.9-6
			c1.6,2.6,3.7,2,6.2,0.9c-0.3-1.1-0.6-2.1-1-3.6c-2,1-3.5,1.8-5.2,2.7c0.2-2,0-3.8,0.3-5.6c0.1-0.8,1.2-1.5,1.8-2.3
			c1.3,2.2,2.3,5,6.3,2.9c-0.9-1.8-1.7-3.3-2.1-4.3c0.9-2.3,4.9-2.2,2.8-6.4c-1.5,0.1-3.2,0.2-5.7,0.3c1.1,2.4,1.9,3.9,2.9,6.1
			c-1.6,0-2.9,0.7-4.2,1.3c0.7-6.8,1.5-13.7,2.3-20.5c0-0.3,1-0.4,1.4-0.5c0.4,1.6,1.1,3.2,1.2,3.7c-0.5,3-0.8,5.2-1.4,8.9
			c3-1.9,4.5-3,6.1-4c-0.9-1.1-1.5-1.8-2-2.4c0.8-1.9,1.5-3.7,2.4-6.1c-2.6,0-4.4,0-6.4-0.2c0.1-14.9,0.1-29.6,0.1-44.4
			c1.9-0.2,3.9-0.3,6.4-0.6c-1.2-2.5-2.1-4.3-2.7-5.5C654.2,256.8,654.7,255.8,655.3,254.8z M608.6,408.5c-0.8,0.2-2.2,0.5-4.5,1.1
			c1.8,2.2,2.9,3.5,4,4.8c1.1-1.1,2-2,2.9-2.9c-0.7-0.9-1.4-1.8-2.4-3.2c0.3,0.3,0.7,0.7,1,1c1.8-1.1,3.5-2.3,5.5-3.5
			c-1.5-1.3-2.3-2.1-3.6-3.3C610.4,404.7,609.5,406.5,608.6,408.5z M653.4,293.2c-0.7,1.5-1.5,3.1-2.7,5.7c2.8-0.2,4.7-0.4,7.2-0.6
			c-1.2-2.4-2-4-2.6-5.2c0.8-1.9,1.5-3.4,2.5-5.8c-2.8,0.1-4.6,0.2-7.1,0.3C651.9,290.1,652.7,291.6,653.4,293.2z M657.8,274.3
			c-2.6,0-4.3,0-6.8,0c1,2.4,1.8,4.2,2.3,5.5c-0.8,2-1.4,3.5-2.4,5.9c2.9-0.3,4.6-0.4,7-0.6c-1.2-2.4-2-3.9-2.7-5.4
			C656.1,278.1,656.8,276.5,657.8,274.3z M651.3,308.3c3-2.2,4.5-3.3,6.4-4.7c-2.1-1.3-3.6-2.1-5.9-3.5
			C651.6,302.7,651.5,304.4,651.3,308.3z M633.2,368c-0.5,0.5-0.9,1.1-1.4,1.6c1.1,1.5,2.2,2.9,3.2,4.3c1.3-1.1,2.2-1.9,3.5-3.1
			C636.5,369.8,634.8,368.9,633.2,368z M604.5,413.5c-2.1,1.5-3.5,2.6-5.9,4.4c3,0,4.7,0,6.9,0C605.2,416.4,605,415.3,604.5,413.5z
			 M442.8,479.8c1.2-1.2,2-2.1,2.9-3c-1-1-1.9-1.9-2.9-2.9c-0.8,0.9-1.7,1.9-2.6,3C440.8,477.7,441.6,478.5,442.8,479.8z M550.5,457
			c2.4-1.4,2.4-1.4,4.3-4.2c-2,0.2-3.7,0.3-5.9,0.5C549.6,455,550.1,455.9,550.5,457z M373.6,456.7c-0.9,0.9-1.8,1.8-2.7,2.7
			c0.8,1.1,1.6,2.2,2.5,3.4c1.4-1.5,2.2-2.4,3.1-3.3C375.4,458.5,374.5,457.6,373.6,456.7z M387.1,462.4c-1.2,1.2-2,2.1-2.9,3
			c1,1,1.9,1.9,2.9,2.9c0.8-0.9,1.7-1.9,2.6-3C389.1,464.6,388.3,463.7,387.1,462.4z M517.5,465.4c-0.4,1.9-0.6,3-0.9,4.4
			c2.2,0,3.9,0,6.9,0C521.1,468,519.6,466.9,517.5,465.4z M623.1,384.7c0,2.8,0,4.7,0,7.1c1.6-0.6,2.6-1,4.3-1.7
			C625.9,388.2,624.8,386.8,623.1,384.7z M472.1,479.8c0-1.3,0-2.6,0-4.1c-1.4,0.3-2.2,0.5-3.5,0.7c0.3,1.3,0.5,2.4,0.7,3.4
			C470.4,479.8,471,479.8,472.1,479.8z M549.4,457.2c-3,0-4.3,0-5.8,0c0.3,1.4,0.5,2.2,0.8,4.1C546,460,547,459.1,549.4,457.2z
			 M538,458.8c-0.2,4.3,1.4,4.3,4,2.8c-0.2-1-0.4-1.9-0.5-2.8C540.4,458.8,539.5,458.8,538,458.8z M379.5,460.2
			c-0.4,0.4-0.8,0.8-1.3,1.3c0.2,0.9,0.3,1.7,0.6,3c1.3-0.2,2.4-0.5,4.8-0.9C381.6,462,380.6,461.1,379.5,460.2z M362.5,456.5
			c0-3,0-4.3,0-5.8c-1.4,0.3-2.2,0.5-4.1,0.8C359.7,453.1,360.6,454.2,362.5,456.5z M563,448.5c1.3,0,2.6,0,4.1,0
			c-0.3-1.4-0.5-2.2-0.7-3.5c-1.3,0.3-2.4,0.5-3.4,0.7C563,446.8,563,447.4,563,448.5z M429.8,477.8c0-1.3,0-2.6,0-4.1
			c-1.4,0.3-2.2,0.5-3.5,0.7c0.3,1.3,0.5,2.4,0.7,3.4C428.1,477.8,428.7,477.8,429.8,477.8z M528.2,464.4c-4.3-0.2-4.3,1.4-2.8,4
			c1-0.2,1.9-0.4,2.8-0.5C528.2,466.7,528.2,465.9,528.2,464.4z M458.6,479.8c0-1.3,0-2.6,0-4.1c-1.4,0.3-2.2,0.5-3.5,0.7
			c0.3,1.3,0.5,2.4,0.7,3.4C456.9,479.8,457.6,479.8,458.6,479.8z M645.2,354.6c0-3,0-4.3,0-5.8c-1.4,0.3-2.2,0.5-4.1,0.8
			C642.4,351.2,643.3,352.3,645.2,354.6z M514.8,468.3c-4.3-0.2-4.3,1.4-2.8,4c1-0.2,1.9-0.4,2.8-0.5
			C514.8,470.6,514.8,469.7,514.8,468.3z M405.3,470.3c-0.2,4.3,1.4,4.3,4,2.8c-0.2-1-0.4-1.9-0.5-2.8
			C407.7,470.3,406.8,470.3,405.3,470.3z M497.6,472.2c-0.2,4.3,1.4,4.3,4,2.8c-0.2-1-0.4-1.9-0.5-2.8
			C500,472.2,499.1,472.2,497.6,472.2z M413.3,477.9c1.6-3,2.3-4.2,2.5-4.6c-0.4-0.8-0.9-2.1-1.5-3.4c-0.3,0.2-0.6,0.5-0.9,0.7
			C413.3,472.2,413.3,473.9,413.3,477.9z M501.6,473.5c3,0,4.3,0,5.8,0c-0.3-1.4-0.5-2.2-0.8-4.1C505,470.7,504,471.6,501.6,473.5z
			 M417.4,476.3c3.5-0.5,5.2-0.7,7.1-1c-1.3-1.4-2-2.3-2.8-3.3C420.7,473,419.9,473.9,417.4,476.3z M447.6,476.1
			c-0.2,4.3,1.4,4.3,4,2.8c-0.2-1-0.4-1.9-0.5-2.8C450,476.1,449.1,476.1,447.6,476.1z M484.2,477.3c1.3,0,2.6,0,4.1,0
			c-0.3-1.4-0.5-2.2-0.7-3.5c-1.3,0.3-2.4,0.5-3.4,0.7C484.2,475.6,484.2,476.3,484.2,477.3z M477.6,473.7c-0.4,0.4-0.8,0.8-1.3,1.3
			c0.2,0.9,0.3,1.7,0.6,3c1.3-0.2,2.4-0.5,4.8-0.9C479.7,475.4,478.7,474.6,477.6,473.7z M598.4,424.3c0.4-0.4,0.8-0.8,1.3-1.3
			c-0.2-0.9-0.3-1.7-0.6-3c-1.3,0.2-2.4,0.5-4.8,0.9C596.3,422.6,597.3,423.4,598.4,424.3z M588.6,428.2c3.5-0.5,5.2-0.7,7.1-1
			c-1.3-1.4-2-2.3-2.8-3.3C591.9,424.9,591,425.8,588.6,428.2z M589.5,430.9c-0.7,0.6-1.5,1.1-2.2,1.7c0-1.7-0.1-3.3-0.1-5
			c-0.4,0.3-0.7,0.6-1.1,0.9c0.1,1.7,0.2,3.4,0.4,5.9C587.9,432.8,588.7,431.9,589.5,430.9z M328.6,435c3,0,4.3,0,5.8,0
			c-0.3-1.4-0.5-2.2-0.8-4.1C332,432.3,330.9,433.1,328.6,435z M580.5,437.4c4.3,0.2,4.3-1.4,2.8-4c-1,0.2-1.9,0.4-2.8,0.5
			C580.5,435.1,580.5,435.9,580.5,437.4z M336.1,438.9c1.3,0,2.6,0,4.1,0c-0.3-1.4-0.5-2.2-0.7-3.5c-1.3,0.3-2.4,0.5-3.4,0.7
			C336.1,437.2,336.1,437.8,336.1,438.9z M575,437.5c0,1.3,0,2.6,0,4.1c1.4-0.3,2.2-0.5,3.5-0.7c-0.3-1.3-0.5-2.4-0.7-3.4
			C576.8,437.5,576.1,437.5,575,437.5z M569.3,439.6c0,3,0,4.3,0,5.8c1.4-0.3,2.2-0.5,4.1-0.8C572,443,571.2,441.9,569.3,439.6z
			 M347.3,441.9c0.5,3.5,0.7,5.2,1,7.4c1.5-1.5,2.3-2.3,3.2-3.2C350.6,445.2,349.7,444.4,347.3,441.9z M342.9,438.8
			c-2.2,5.1,0.1,4.5,2.6,4.1C344.5,441.5,343.8,440.3,342.9,438.8z M437.5,477.7c-0.8-1.5-1.5-2.7-3.1-5.7c0,3.4,0,4.4,0,5.7
			C435.6,477.7,436.5,477.7,437.5,477.7z M402.5,468.7c-0.4,0-1.7,0-3.1,0c0.2,1.3,0.4,2.2,0.9,4.9
			C401.4,471.1,402,469.7,402.5,468.7z M395.5,466c-1.7,0.3-2.5,0.5-3.7,0.7c1.5,1,2.7,1.8,3.7,2.5
			C395.5,468.6,395.5,467.8,395.5,466z M529.8,463c1.5,1.5,2.5,2.4,4.9,4.7c-0.7-3.2-0.9-4.3-1.1-5.5
			C532.3,462.5,531.5,462.7,529.8,463z M557.4,453.1c1.7-0.3,2.5-0.5,3.7-0.7c-1.5-1-2.7-1.8-3.7-2.5
			C557.4,450.5,557.4,451.4,557.4,453.1z M490.2,474.3c0.1,0.6,0.1,1.1,0.2,1.7c1-0.2,2.1-0.5,3.1-0.7c0-0.3-0.1-0.6-0.1-0.9
			C492.4,474.3,491.3,474.3,490.2,474.3z M463.3,479.5c0.6-0.1,1.1-0.1,1.7-0.2c-0.2-1-0.5-2.1-0.7-3.1c-0.3,0-0.6,0.1-0.9,0.1
			C463.3,477.3,463.3,478.4,463.3,479.5z M367.5,456.7c0.2,0,0.4,0,0.6,0c0-0.6,0-1.3,0-1.9c-0.2,0-0.4,0-0.6,0
			C367.5,455.4,367.5,456.1,367.5,456.7z"/>
		<path d="M299.5,404.8c-7.1-3.6-9.2-11.2-13.3-17.1c-8.2-11.7-14.2-24.8-18.1-38.5c-2.7-9.2-5.1-18.5-7.4-27.8
			c-1.9-7.5-1.1-14.9-1.7-22.3c-0.1-1.7-0.8-3.4-1.4-5.4c0.2-0.2,0.8-0.9,1.8-2c-0.7-1.2-1.5-2.4-2.3-3.7c3.9-8.5,0.3-17.6,2.1-26.1
			c3.3-15.4,6.5-30.8,13-45.5c4.5-10.1,10-19.6,15-29.4c1.6-3.1,3.2-5.8,6.6-7.6c-0.2,0.1-0.5,0.4-0.9,0.7c1.1,1.8,2.3,3.5,3.5,5.5
			c1.3-1.5,2.1-2.3,3.3-3.6c-2.2-1.1-4-2-6-2.6c-0.1-0.7-0.5-2-0.1-2.5c7.3-8.4,13.7-17.7,23-24.1c0,1.9,0,3.8,0,5.8
			c-2,0.7-4,1.5-5.8,2.2c0.9,1.6,1.5,2.6,2.9,3.4c-2.9,0.3-4.8,0.5-7.4,0.8c0.8,1.6,1.3,2.6,2.1,4.2c1.9-1.6,3.2-2.7,5.3-5
			c2.1-0.5,3.3-2.6,3-5.5c2.7,0.4,4.5-0.7,5.7-4c-1.9-0.6-3.8-1.2-5.7-1.8c6.4-9.9,16.3-16.1,25.7-22.5
			c10.6-7.1,21.7-13.5,33.5-18.7c2.2-1,4.1-0.9,6.4-1.7c0.2,2.3,0.2,4.2,0.2,7c2.3-1.4,3.9-2.4,6-3.7c-2.1-1.3-3.5-2.3-6.1-3.4
			c3.5-2.5,8-3.7,12.2-5.1c5.9-2,12.1-3.2,18.2-4.7c4-1,8-2.6,12.1-3c9-0.7,17.8-2.9,27-2.1c5.7,0.5,11.5,0.2,17.2,0.1
			c9.6-0.2,18.8,2.2,28.1,3.5c9.4,1.2,17.9,5.5,27.2,6.2c4.6,3.7,11.4,2.8,15.4,7.7c-1.1,0-2.3,0-3.8,0c0,2.2,0,4,0,5.8
			c-1.3,0-2.7,0.4-3.8-0.1c-8.8-3.4-17.7-6.3-26.9-8.6c-9.1-2.3-18.2-4.2-27.5-4.8c-3.2-0.2-6.3,0.1-9.5-0.1c-0.5,0-1-1.2-1.4-1.8
			c1,0,2.2-0.1,3.3-0.2c0-2.1,0-3.7,0-5.6c-1.3,0.1-2.1,0.2-3.2,0.3c0,1.9,0,3.7-0.1,5.5c-5.3,0.5-10.8-1.4-15.6,1.9
			c-10.4-1.3-20.4,2.7-30.7,1.9c0.6-1.3,1.3-2.6,1.5-4.1c2,1,3.6,1.7,6.2,3c-0.2-2.8-0.3-4.7-0.5-7.8c-2.4,1.8-3.9,2.9-5.7,4.8
			c-1.2-0.4-3-1.1-4.9-1.9c-1,4,1,5.1,3.4,6c-2.2,3.5-5,1.7-7.4,1.6c0.7-2,1.2-3.5,1.9-5.6c-2.8,0.3-4.4,0.5-6.6,0.8
			c1.1,2.6,1.9,4.4,3,6.9c-3.9,0.4-7.4-0.3-10.1,2.2c-2.8,2.5-6.3,1.9-10.3,2.8c1.1-2.2,2.1-3.7,3.5-6.1c-2-0.2-3.3-0.3-4.9-0.5
			c0.2,2.4,0.4,4.1,1.4,6.6c-0.8,0.4-2.2,2.2-4,2.7c-11.8,3.3-22.5,9.3-32.5,15.9c-11,7.2-22.1,14.6-31,24.6
			c-5,5.6-10.9,10.4-16.4,15.6c0.4-2.7-0.7-4.5-3.2-5.5c-0.9,0.9-1.7,1.7-2.4,2.4c0.6,1.1,1.2,2.1,2,3.2c-0.1-0.2-0.4-0.5-0.7-0.9
			c-1.8,1.1-3.5,2.3-5.5,3.5c1.5,1.3,2.3,2.1,3.6,3.3c1.1-2.2,2-4,2.6-6c1-0.1,2.3-0.1,3.6-0.1c0.6,2.5-1,3.9-2.5,5.5
			c-2.7,2.8-6.3,9-7.1,11.9c-1.3,1.4-2.5,2.9-3.9,4.3c-2.1,2.3-1.9,6.4-5.9,7.5c0.2-0.1,0.5-0.4,0.9-0.7c-1.1-1.8-2.3-3.5-3.5-5.5
			c-1.3,1.5-2.1,2.3-3.3,3.6c2.2,1.1,4,2,6,2.6c-0.1,4.4-2.7,8-5.6,11.1c0-1-0.1-2.2-0.2-3.3c-2,0-3.7,0-5.6,0
			c0.1,1.3,0.2,2.1,0.3,3.2c1.9,0,3.7,0,5.5,0.1c-0.2,2-0.3,3.8-0.7,5.6c-1.4,5.7-3.9,11.2-5.7,16.8c-4.3,13.5-7.5,26.9-7.1,41.1
			c0.1,2.9-1.1,5.9-1.7,8.7c0.7,1,1.4,1.9,1.6,2.2c-0.7,2.9-2.3,5.6-1.5,6.7c2.5,3.8,1.3,7.9,1.8,11.8c0.8,6.6,1.6,13.1,3.5,19.6
			c1.9,6.6,2.8,13.5,4.6,20.6c-2-1-3.6-1.7-6.2-3c0.2,2.8,0.3,4.7,0.5,7.8c2.4-1.8,3.9-2.9,5.7-4.8c3.2,0.7,0.7,3.6,1.5,5.7
			c-1.8,0.1-3.6,0.1-5.8,0.1c0.1,1.4,0.3,2.4,0.4,3.7c2.1-0.2,3.8-0.4,5.4-0.6c0-1.3,0-1.9,0-3.3c0.6,0.4,1.6,0.7,1.9,1.4
			c2.8,6.4,5.6,12.8,8.3,19.3c0.6,1.3,0.9,2.8,1.3,4.3c-1.8,0.1-3.6,0.1-5.8,0.1c0.1,1.4,0.3,2.4,0.4,3.7c2.1-0.2,3.8-0.4,5.4-0.6
			c0-1.3,0-1.9,0-3.3c1,0.5,2.4,1,2.9,1.9c3.4,6.6,7,13,12.5,18.3c0.5,0.5,0.1,1.8,0.1,2.7c-1.9,0-3.8,0-5.8,0c0.5-1,1.1-1.9,2-3.6
			c-1.9-0.7-3.8-1.4-5.8-2.2c0.5-1,1.1-1.9,2-3.6c-1.9-0.7-3.9-1.4-6.4-1.8c1-1.5,1.7-2.4,2.7-3.8c-1.8-0.9-3.5-1.8-5.2-2.6
			c-0.3,0.4-0.7,0.7-1,1.1c0.9,1.7,1.8,3.4,3.6,5.3c0.2,2.6,1.3,4.6,4.4,5.4c-0.3,3,0.8,5,3.8,5.8
			C299.5,402.2,299.5,403.5,299.5,404.8z M507.7,104.5c-1.8-2.5-3.9-1.8-6.4-0.8c0.3,1.1,0.6,2.1,1,3.6c2-1,3.5-1.8,4.2-2.3
			c1.8,1.5,3.2,2.8,5.4,4.8c0.6-2.1,0.9-3.2,1.4-4.8C510.7,105,509,105,507.7,104.5z M374.5,118c1.8,0,3.6,0,5.8,0
			c-0.1-1.4-0.3-2.4-0.4-3.7c-2.2,0.2-3.8,0.4-5.4,0.6c0,1.3,0,1.9,0.2,4.2c-1.4-1.2-2.2-1.9-3.1-2.7c-0.9,0.9-1.8,1.8-1.8,1.8
			c0.6,1.4,1.1,2.7,1.6,4.1C372.8,120.9,373.7,120.1,374.5,118z M283.3,369.4c-1.5,1.9-2.2,2.8-3.2,4.2c1.8,0.9,3.5,1.8,5.2,2.6
			c0.3-0.4,0.7-0.7,1-1.1c-0.9-1.7-1.8-3.4-4.3-4.9c0-1.8,0-3.6,0-5.8c-1.4,0.1-2.4,0.3-3.7,0.4c0.2,2.1,0.4,3.8,0.6,5.4
			C280.1,370.2,280.7,370.2,283.3,369.4z M343.8,135.5c1.7,0,3.5,0,5.8,0c0-1.6,0-2.7,0-4.1c1.8,0,3.6,0,5.8,0
			c-0.1-1.4-0.3-2.4-0.4-3.7c-2.1,0.2-3.8,0.4-5.4,0.6c0,1.3,0,1.9,0,3.4c-1.7,0-3.5,0-5.8,0c0,1.6,0,2.7,0,4.1c-1.8,0-3.6,0-5.8,0
			c0.1,1.4,0.3,2.4,0.4,3.7c2.1-0.2,3.8-0.4,5.4-0.6C343.8,137.7,343.8,137.1,343.8,135.5z M268.9,247.4c-3,2.2-4.5,3.3-6.4,4.7
			c2.1,1.3,3.6,2.1,5.9,3.5C268.6,253,268.7,251.3,268.9,247.4z M273.9,221.9c-1.5,1.4-2.3,2.2-3.2,3.1c1.8,1.2,2.8,4.7,6.2,1.6
			C276,225.2,275,223.7,273.9,221.9z M491.7,98.7c-1.7,0.3-2.6,0.5-3.8,0.7c0.2,2,0.3,3.7,0.4,5.6c1.5-0.3,2.3-0.5,3.3-0.6
			C491.7,102.6,491.7,101.2,491.7,98.7z M270.5,243.6c-1.8,0-3.5,0-5.4,0c0,1.1,0,2,0,3.2c1.8,0,3.5,0,5.4,0
			C270.5,245.6,270.5,244.8,270.5,243.6z M499.4,101.2c-1.9,0-3.6,0-5.4,0c0,1.2,0,2,0,3.2c1.9,0,3.6,0,5.4,0
			C499.4,103.3,499.4,102.4,499.4,101.2z M446,97.3c0,1.8,0,3.5,0,5.4c1.1,0,2,0,3.2,0c0-1.8,0-3.5,0-5.4
			C448.1,97.3,447.2,97.3,446,97.3z M264.3,262.1c-1.2,1.2-2,2-3.1,3.1c1.5,1.5,2.3,4.3,6,2C266.2,265.6,265.3,263.9,264.3,262.1z
			 M280.1,359c-2.4,0.2-5.7-2.2-5.6,3.2c2,0,3.7,0,5.6,0C280.1,360.9,280.1,360.1,280.1,359z M290.9,185.3c-0.5,0.5-0.9,1.1-1.4,1.6
			c1.1,1.5,2.2,2.9,3.2,4.3c1.3-1.1,2.2-1.9,3.5-3C294.2,187.1,292.5,186.2,290.9,185.3z M520.5,107c-1.8,0-3.5,0-5.4,0
			c0,1.1,0,2,0,3.2c1.8,0,3.5,0,5.4,0C520.5,109.1,520.5,108.2,520.5,107z M430,99.2c0.3,1.7,0.5,2.6,0.7,3.8c2-0.2,3.7-0.3,5.6-0.4
			c-0.3-1.5-0.5-2.3-0.6-3.3C433.9,99.2,432.5,99.2,430,99.2z M262,269.9c-0.5,0.5-0.9,1.1-1.4,1.6c1.1,1.5,2.2,2.9,3.2,4.3
			c1.3-1.1,2.2-1.9,3.5-3.1C265.3,271.7,263.7,270.8,262,269.9z M261.4,283.8c0,1.9,0,3.6,0,5.4c1.2,0,2,0,3.2,0c0-1.9,0-3.6,0-5.4
			C263.4,283.8,262.6,283.8,261.4,283.8z M534.2,111c-1.9,0-3.8,0-6,0c0.3,1.4,0.5,2.2,0.7,3.4c1.9-0.2,3.7-0.3,5.3-0.5
			C534.2,112.8,534.2,112.1,534.2,111z M265.1,323.5c1.4-0.8,2.7-1.4,4.9-2.6c-3-1.3-4.7-2.1-8.4-3.7
			C263.6,320.9,264.6,322.5,265.1,323.5z M458.9,97.2c0.3,1.7,0.5,2.6,0.7,3.8c2-0.2,3.7-0.3,5.6-0.4c-0.3-1.5-0.5-2.3-0.6-3.3
			C462.8,97.2,461.3,97.2,458.9,97.2z M476,97.5c-1.2,0.7-2.4,1.4-3.7,2.2c1.6,1.5,2.5,2.3,3.2,2.9c1.1-1,2.1-1.8,3-2.6
			C477.4,99,476.5,98.1,476,97.5z M267.2,331.6c0,2.2,0,3.9,0,6.9c1.8-2.5,2.9-4,4.5-6.1C269.7,332,268.6,331.8,267.2,331.6z
			 M264.8,295.8c-2,2.6-3.1,3.9-4.8,6.1c2.2,0.5,3.3,0.7,4.8,1.1C264.8,300.7,264.8,299.2,264.8,295.8z M443.8,100
			c-0.9-0.9-1.8-1.8-2.7-2.7c-1.1,0.8-2.2,1.6-3.4,2.5c1.5,1.4,2.4,2.2,3.3,3.1C442,101.8,442.9,100.9,443.8,100z M291.8,194.2
			c-0.9-0.9-1.8-1.8-2.7-2.7c-1.1,0.8-2.2,1.6-3.4,2.5c1.5,1.4,2.4,2.2,3.3,3.1C290,196,290.9,195.1,291.8,194.2z M330.3,144.2
			c-1.4,0.6-2.7,1.1-4.1,1.7c1.5,1.4,2.4,2.2,3.1,2.9c1.1-1,2.1-1.8,3-2.6C331.3,145.2,330.4,144.2,330.3,144.2z M337,143.3
			c-0.6-1.4-1.1-2.7-1.7-4.1c-1.4,1.5-2.2,2.4-2.9,3.1c1,1.1,1.8,2.1,2.6,3C336.1,144.2,337,143.3,337,143.3z M369.9,123.8
			c-2.4-2-3.7-3.1-5.9-4.8c-0.5,2.1-0.8,3.3-1.2,4.8C365.1,123.8,366.6,123.8,369.9,123.8z M272.7,238.4c-1.2-1.2-2.1-2-3-2.9
			c-1,1-1.9,1.9-2.9,2.9c0.9,0.8,1.9,1.7,3,2.6C270.5,240.4,271.4,239.6,272.7,238.4z M397.1,104.2c-0.9,3.5-1.2,4.6-1.6,6.4
			c2.6-0.2,4.3-0.3,6-0.4C400.3,108.7,399.4,107.5,397.1,104.2z M487.1,99.3c-3.1,0-4.8,0-6.9,0c0.3,1.4,0.4,2.5,0.8,4.5
			C483.1,102.2,484.6,101.1,487.1,99.3z M361.1,127.7c0.2-4.3-1.4-4.3-4-2.8c0.2,1,0.4,1.9,0.5,2.8
			C358.7,127.7,359.6,127.7,361.1,127.7z M266.8,260.4c0.2-4.3-1.4-4.3-4-2.8c0.2,1,0.4,1.9,0.5,2.8
			C264.5,260.4,265.3,260.4,266.8,260.4z M278.7,217.5c-0.4-0.4-0.9-0.8-1.3-1.3c-0.9,0.2-1.7,0.3-3,0.6c0.2,1.3,0.5,2.4,0.9,4.8
			C276.9,219.6,277.8,218.5,278.7,217.5z M270.7,229.9c-0.2,4.3,1.4,4.3,4,2.8c-0.2-1-0.4-1.9-0.5-2.8
			C273.1,229.9,272.2,229.9,270.7,229.9z M322.6,149.2c-0.2,4.3,1.4,4.3,4,2.8c-0.2-1-0.4-1.9-0.5-2.8
			C325,149.2,324.1,149.2,322.6,149.2z M456.7,100.9c0-1.3,0-2.6,0-4.1c-1.4,0.3-2.2,0.5-3.5,0.7c0.3,1.3,0.5,2.4,0.7,3.4
			C455,100.9,455.6,100.9,456.7,100.9z M280.8,204.8c0,1.3,0,2.6,0,4.1c1.4-0.3,2.2-0.5,3.5-0.7c-0.3-1.3-0.5-2.4-0.7-3.4
			C282.5,204.8,281.9,204.8,280.8,204.8z M407.2,105.3c-1.3,0-2.6,0-4.1,0c0.3,1.4,0.5,2.2,0.7,3.5c1.3-0.3,2.4-0.5,3.4-0.7
			C407.2,107,407.2,106.4,407.2,105.3z M526.8,109.8c-0.4-0.4-0.8-0.8-1.3-1.3c-0.9,0.2-1.7,0.3-3,0.6c0.2,1.3,0.5,2.4,0.9,4.8
			C525,111.9,525.9,110.8,526.8,109.8z M269.9,339.1c-0.4,0.4-0.8,0.8-1.3,1.3c0.2,0.9,0.3,1.7,0.6,3c1.3-0.2,2.4-0.5,4.8-0.9
			C272,340.8,271,340,269.9,339.1z M269.1,327.1c-0.4-0.4-0.8-0.8-1.3-1.3c-0.9,0.2-1.7,0.3-3,0.6c0.2,1.3,0.5,2.4,0.9,4.8
			C267.3,329.2,268.2,328.1,269.1,327.1z M262.2,277.6c-0.4,0.4-0.8,0.8-1.3,1.3c0.2,0.9,0.3,1.7,0.6,3c1.3-0.2,2.4-0.5,4.8-0.9
			C264.3,279.3,263.3,278.4,262.2,277.6z M259.3,294.6c3,0,4.3,0,5.8,0c-0.3-1.4-0.5-2.2-0.8-4.1
			C262.7,291.9,261.7,292.7,259.3,294.6z M264.7,305.5c-1.3,0.6-2.6,1.2-3.9,1.9c0.3,0.5,0.5,0.9,0.8,1.4c1.7-0.2,3.4-0.5,5.6-0.8
			C265.7,306.5,264.8,305.6,264.7,305.5z M263,315.8c1.3,0,2.6,0,4.1,0c-0.3-1.4-0.5-2.2-0.7-3.5c-1.3,0.3-2.4,0.5-3.4,0.7
			C263,314.1,263,314.7,263,315.8z"/>
		<path d="M588,141.3c2-0.3,3.5,0.4,5,2c6.9,7.1,14.4,13.6,20.8,21.1c7.3,8.5,14.4,17.2,19.7,27.2c0.5,1,0.5,2.3,0.7,3.5
			c-2,0.2-3.9,0.4-7.6,0.8c2.8,2.4,4.2,3.7,5.7,5c0,1.7,0,3.5,0,5.8c1.6,0,2.7,0,3.8,0c-0.6,1-1.2,2-1.4,2.3c1.6,3.3,3,6.3,4.4,9.1
			c0.9,0.2,1.7,0.4,2.7,0.6c-0.8,1.2-1.4,2.1-1.5,2.3c0.6,3.5,1.1,6.1,1.6,8.7c-0.6-0.8-1.5-1.5-1.9-2.4
			c-3.9-7.8-8.1-15.5-11.3-23.6c-1.4-3.5-4.6-6.3-4.1-10.7c1.8-0.1,3.6-0.1,5.8-0.1c-0.1-1.4-0.3-2.4-0.4-3.7
			c-2.1,0.2-3.8,0.4-5.4,0.6c0,1.3,0,1.9,0,3.3c-3-0.6-4.2-2.7-3.8-5.8c1.8-0.1,3.6-0.1,5.8-0.1c-0.1-1.4-0.3-2.4-0.4-3.7
			c-2.1,0.2-3.8,0.4-5.4,0.6c0,1.3,0,1.9,0,3.3c-3-0.6-4.2-2.7-3.8-5.6c1.8,0,3.6,0,5.6,0c0-1.5,0-2.4,0-3.8c-1.9,0-3.8,0-5.6,0
			c0.5-1,1.1-1.9,2-3.6c-1.9-0.7-3.9-1.4-5.8-2.2c0-1.7,0-3.5,0-5.8c-1.6,0-2.7,0-3.8,0c0.3-3-0.8-5-3.8-5.8c-0.8-3-2.8-4.2-5.9-3.6
			c0.2-0.1,0.5-0.4,0.9-0.7c-1.1-1.8-2.3-3.5-3.5-5.5c-1.3,1.5-2.1,2.3-3.3,3.6c2.2,1.1,4,2,6,2.6c-0.2,2.7,0.9,4.8,4,5.5
			c0.8,3,2.8,4.2,5.8,3.8c0,1.9,0,3.8,0,5.8c-8.3-8.3-16.7-16.7-25-25c2-0.7,4-1.5,5.8-2.2C589.1,143.2,588.5,142.3,588,141.3z
			 M593.6,147.1c-4.3-0.2-4.3,1.4-2.8,4c1-0.2,1.9-0.4,2.8-0.5C593.6,149.4,593.6,148.6,593.6,147.1z"/>
		<path d="M539.9,112.5c1.6,0,3.5-0.6,4.7,0.1c14.6,7.9,29.2,15.8,42,26.5c0.6,0.5,0.9,1.5,1.4,2.3c-3,0.8-4.2,2.8-3.8,5.8
			c-3,0.3-5-0.8-5.8-3.8c2.7,0.4,4.5-0.7,5.7-4c-2-0.6-3.8-1.2-5.7-1.8c-0.8-3-2.8-4.2-5.8-3.8c-0.8-3-2.8-4.2-5.8-4.1
			c-1.3-1.9-2.2-5-6.4-2.4c1.2,1.7,2.3,3.2,3.3,4.6c1.1-0.8,2-1.5,3.1-2.2c0,1.3,0,2.5,0,4.1c2.3,0,4,0,5.8,0c0,1.9,0,3.8,0,5.8
			c-3.3-1-5.8-4.2-9.6-3.8c-1.1-1.3-2.2-2.6-3.4-3.8c-1.4-1.4-2.9-2.6-4.2-3.8c1,0,2.2-0.1,3.3-0.2c0-2,0-3.7,0-5.6
			c-1.3,0.1-2.1,0.2-3.2,0.3c0,1.9,0,3.7-0.1,5.5c-4.8-0.2-8.4-2.8-11.7-5.8c1.3-0.6,2.6-1.3,3.9-1.7c1.3,1.9,2.2,5,6.4,2.4
			c-1.2-1.7-2.3-3.1-3.3-4.6c-1.1,0.8-2,1.5-3.1,2.2c-1.3-2.5-2.3-5.3-6.3-3.2c0.9,1.8,1.7,3.3,2.4,4.9c-3.3,0.2-5.7-1.3-7.7-3.8
			c1.1,0,2.3,0,3.8,0C539.9,116,539.9,114.2,539.9,112.5z"/>
		<path d="M645.7,220.2c3.7,2,3.3,5.9,4.3,9.1c2.6,8.3,5.7,16.6,5.3,25.5c-1.6-0.7-3.1-1.5-6-2.9c0.6,3.5,1.1,5.9,1.3,6.9
			c-0.5,2.6-0.8,4.1-1,5.5c-0.6-0.8-1.8-1.5-1.8-2.4c-0.2-3.7-0.1-7.4-0.1-11.1c1.9-0.2,3.9-0.4,6.3-0.6c-1.1-2.3-2.1-3.8-2.4-5.5
			c-0.4-1.7-0.1-3.5-0.1-5.6c-2.5,0.2-4.2,0.4-5.8,0.6c0,1.6,0,2.5,0,3.4c-3.6-1.4-1.7-3.7-1.2-5.5c1.9-0.3,3.6-0.6,6.8-1.2
			c-2.6-2.3-4.1-3.6-5.6-4.8c0.8-1.5,1.5-3.1,2.3-4.7c-1.7-0.7-3-1.3-3.7-1.7C644.8,223.5,645.2,221.8,645.7,220.2z"/>
		<path d="M309.2,416.3c-3-2.7-6.1-5.2-8.9-8.1c-0.7-0.7-0.5-2.3-0.7-3.5c1.7,0,3.5,0,5.8,0c0-1.6,0-2.7,0-3.8
			c3.4,2.5,7.7,4.4,7.7,9.6c-1.3,0-2.6,0-3.8,0.5c-0.1-1.7-0.2-2.8-0.3-4c-2,0-3.7,0-7.3,0c3.4,2,5.2,3.1,7.5,4
			C309.2,412.5,309.2,414.4,309.2,416.3z"/>
		<path d="M634.2,195.2c6.7,8.7,7.3,10.1,9.6,19.2c-4.4-0.8-3.2-5.2-4.6-7.7c-1.2,0-2.2,0-3.1,0c0-1.7,0-3.5,0-5.8
			c-1.6,0-2.7,0-3.8,0C632.9,199,633.5,197.1,634.2,195.2z"/>
		<path d="M643.8,214.4c3.7,0.9,1.2,3.9,1.9,5.8C642,219.3,644.5,216.3,643.8,214.4z"/>
		<path d="M299.1,299.7c-5.7-2.7-9.6-5.3-13.8-6.2c-4.6-1-5.4-3.3-4.7-7.9c5,0,10,0.1,15.1-0.1c3-0.1,6.1,1,9-1.6
			c0.9-0.8,4.3,1,6.5,1.6c-1.2,2.4-2,4-2.7,5.4c-5.2-2.9-10.8-0.8-16.3-1c4.2,4.3,9.2,7,15.2,7.7c-0.5,6.2-6.7,6.3-9.9,10.4
			c1,0.4,2.1,0.9,4.1,1.7c2-0.5,5.5-1.4,9.2-2.4c0,1.9,0,4.1,0,6.7c-4.1-2.9-8-0.8-12.2,0.3c-4.4,1.2-9.4-1.6-12.7,1.2
			c-1.5-0.7-2.9-1.4-4.4-2.1c1-1.6,1.3-2.5,2-3C288.2,307,293,303.8,299.1,299.7z"/>
		<path d="M518.1,422.1c1.2-1.4,2-2.3,3-3.4c6.6,2.7,12.9,6.2,21.4,8c-3.1-5.4-5.4-9.4-7.9-13.7c0.9-0.6,2.3-1.7,3.6-2.7
			c5.2,8.3,10.2,16.2,15.6,24.9c-3.3,0.2-6.2,0.5-8.8,0.7c-9.6-5.7-9.6-5.7-16.7-5.5c2.6,4.2,5,8.1,7.2,11.6
			c-0.8,1.3-1.6,2.6-2.5,3.9c-6-2.5-4.4-9.2-8.5-12C524.8,428.8,521.1,425.6,518.1,422.1z"/>
		<path d="M403.1,128c1.8,2.5,3.8,5.2,5.9,8.1c-1,2-2.1,4-3.4,6.6c3.5,2.3,7.3,4.9,11.1,7.4c-1.8,0.9-3.7,1.9-5.5,2.8
			c-5.6-4.2-7.9-5.1-13.9-5.6c0.7,2.8,1.3,5.2,2.1,8.2c-0.2,0.3-0.7,1-1.3,1.6c-0.6,0.6-1.4,1.1-2.6,2.1c-7.1-7-5.7-18.4-13.3-24.7
			C388.6,129.7,394.4,127.9,403.1,128z M404.7,137.5c-3.2-2.7-5.2-4.5-7-6.1c-2.4,1.4-4.1,2.4-5.8,3.3c0,2,0,3.9,0,6.5
			c1.9,0.8,4.1,1.8,5.1,2.2C399.9,141.2,401.9,139.7,404.7,137.5z"/>
		<path d="M328.8,200.9c-4.2-6-9.9-7.8-14.7-9.8c1.4-1.4,3-3,4.3-4.3c6.5,4.6,14,9.9,21.4,15.1c-0.8,0.8-1.7,1.7-2.3,2.2
			c-7,1-13.7,2-21.1,3.1c4,4.5,9.4,5.4,14.3,8.3c-1,1.6-2,3.1-2.7,4.2c-8.4-4.9-16.5-9.6-25.2-14.6c0.9-1.2,1.7-2.4,2.9-4.2
			C313.1,200.9,320.6,200.9,328.8,200.9z"/>
		<path d="M601.3,219c-5.1-2.9-6.4,2.2-10,3.5c-1.1-1.8-2.1-3.5-3.2-5.5c0.6-0.2,1.4-0.4,2.1-0.8c6.4-3.2,12.7-6.3,19-9.7
			c1.1-0.6,1.7-2.1,2.8-3.7c4.6,4.7,6.8,10.6,8.6,15.9c0,1.3,0.1,1.7,0,1.9c-1.4,1.7-2.9,3.3-4.6,5.2c-3.9,0-8,0-11.9,0
			c-2,4.1-3.7,7.8-5.6,11.6c-1-1.9-2-3.7-3.2-5.9C597.8,227.8,602.2,224.6,601.3,219z M605.4,214.7c-0.7,3.8,0.4,6.1,3.6,7.4
			c1.9-1,3.9-2.1,6.5-3.4c-1-2.9-1.9-5.6-2.8-8.4C610,212,607.9,213.2,605.4,214.7z"/>
		<path d="M407.1,424.7c0,2,0,4.2,0,6.5c-0.6-0.1-1.1,0-1.5-0.2c-2.7-2-5.4-4-8-6.1c-3.1-2.3-5.2-0.6-7.6,2
			c4.5,5.3,13.7,7.8,11.1,18.2c-2.3,1.2-5.2,2.8-8.3,4.4c-4.2-2.2-8.1-4.2-12.1-6.2c0-2.8,0-5.2,0-7.9c1.3,0.2,2.5,0.1,2.9,0.6
			c1.8,2.4,3.3,5,4.7,7.1c2.8,0,4.7,0,7.2,0c0.1-1.5,0.2-3,0.2-3.6c-4.1-3.7-7.7-7-11.4-10.3c0-2.3,0-4.4,0-6.9c2.6-1.5,5.2-3,8-4.6
			C397.3,420.1,402.1,422.4,407.1,424.7z"/>
		<path d="M495.5,119.2c1.9,1.8,2.8,2.6,3.2,3c1.9,9.6,3.7,18.7,5.6,28.3c-1.4,0.1-3.7,0.3-5.9,0.5c-0.8-2.6-1.5-4.8-2.2-7
			c-3.4-0.7-6.3-1.3-10-2c-0.7,1.2-2,3.1-3.2,5c-1.2,0-2.5,0-3.8,0c-0.9-0.9-1.8-1.8-2.3-2.3C483.1,136.4,489.1,128.1,495.5,119.2z
			 M495.2,130c-2.7,2.6-4.3,4-6.4,6.1c2.7,1.3,4.6,2.1,7,3.2C495.6,136.3,495.5,134,495.2,130z"/>
		<path d="M351.7,424.2c-3.6-1.8-6.7-3.5-10.3-5.3c-1-2-2.3-4.4-3.8-7.3c1.2-0.9,2.4-1.8,4-3c1.5,3.2,3,6.4,4.5,9.6c3,0,5.5,0,8.6,0
			c1.8-2.1,3.8-4.5,6.5-7.7c0-1.3,0-3.8,0-6.9c-1.4-1.1-3.1-2.5-5-4c-2.5,1.8-7.2,2-7,7c-2.1-1.1-3.7-1.9-5.3-2.7c0-1.2,0-2.5,0-4
			c1.5-1.4,3.1-2.9,5-4.6c2.8,0,6,0,9.2,0c5.3,4.5,10.1,9.3,8.8,17.2C365.9,418,362.8,420.3,351.7,424.2z"/>
		<path d="M284.2,352.8c-3.7-2-3.2-5.9-4.3-9.1c-3.3-9.6-5.5-19.5-7.5-29.5c-2.2-11-1.1-21.9-1.5-32.8c-0.2-4.6-0.3-9.1,1.7-13.6
			c1.6-3.8-1.3-8.7,2.1-12.5c-0.8-7.5,2.7-14.3,4.2-21.3c1.4-6.8,5.3-13,8.3-19.5c0.7-1.5,1.9-2.7,2.9-4c1,3.3-1,6.1-2.2,8.7
			c-5.3,11.6-9.4,26.2-11.6,36.5c-1.3,5.9-0.3,12-1.9,17.4c-2.1,7.2-1.3,14.2-1.6,21.3c-0.2,4.3-0.1,8.4,1.7,12.7
			c1.6,3.8-1.3,8.8,2.1,12.5c0.3,10.1,3.8,19.3,7.6,28.5C284.6,349.4,284.2,351.2,284.2,352.8z"/>
		<path d="M560.8,408.7c-3-2.1-4.9-3.4-7-4.9c-2.8,2.6-5.1,4.7-7.5,6.9c-0.8-0.3-1.7-0.6-2.7-0.9c0.6-4.1,3.9-5.8,6.3-8
			c2.1-2,5-3.2,7.6-4.7c5.6,6.9,11.2,13.7,17.2,21c-2.7,6.1-9.7,7.6-14.6,11.6c-0.9-0.9-1.5-1.5-2.9-2.9c3.2-2.5,6.4-5,9.4-7.3
			c-0.8-1.6-1.5-3.2-2.4-4.9c-1.1-0.1-2.3-0.1-4.2-0.2c-1.4,2-3.1,4.3-4.1,5.8c-2.1-1.4-3.4-2.3-4.8-3.2
			C552.9,413,555.8,411,560.8,408.7z"/>
		<path d="M371.1,158.7c1.7,2.2,3.2,4.2,5,6.5c4.2-3,7.8-5.5,11.6-8.3c0,1.5,0,2.9,0,5.1c-5,3-10.6,6.4-15.6,9.4
			c-4.8-7.6-9.6-15.1-14.8-23.4c4.5-4.9,11.3-7.4,18.3-11.3c0.5,1.5,1.1,3,1.7,4.5c-3.3,1.7-8,4-12.8,6.4c1.5,2.9,2.5,5,3.8,7.6
			c3.2-2,6.3-3.9,9.6-6c0.8,0.9,1.9,2.2,3.3,3.9C377.2,155.4,373.9,157.2,371.1,158.7z"/>
		<path d="M586.1,204.4c-1-1.8-2.1-3.9-3.5-5.9c-1-1.5-2.5-2.6-3.8-3.9c-1.8,1.1-3.1,1.8-5,2.9c-1.3-1.6-2.5-3.2-3.7-4.8
			c0.9-0.7,1.4-1.4,1.8-1.4c10.1-0.1,19.1-4.4,28.4-7.8c0.8,1.5,1.6,3.1,2.8,5.4c-5.3,7.5-10.9,15.5-16.5,23.4
			c-0.2,0.2-1.2-0.1-1.8-0.2C584.9,212.3,586.1,204.8,586.1,204.4z M595.2,192.3c-5.7-1.9-8.1-0.4-9.2,2.9c1.1,1.7,1.9,2.9,2.8,4.2
			C591,196.9,592.7,195.1,595.2,192.3z"/>
		<path d="M324.5,324c-2.9-2-3.2-5.5-3.7-8.3c-1.2-6.6-1.7-13.4-2-20.1c-0.3-7-0.6-14,0.1-20.9c0.7-7.1,2.6-14.1,4.1-21.1
			c0.1-0.3,1-0.5,1.6-0.7c-0.7,3.5,0.9,7.1-1.7,10.8c-2,2.9,1.2,7.7-2,11.6c-1.5,1.8,0.2,14.6,1.8,19.4c-0.1-8.2,0.8-14.6,1.5-20.9
			c0.6-5.2,1.1-10.7,2.8-15.2c1.6-4.4-0.2-10.6,5.3-13.4c-0.2,1.8-0.2,3.7-0.7,5.4c-2.1,8.1-5.3,15.9-5.1,24.5
			c0.1,1.9,0.8,4.5-0.2,5.6c-3.4,3.7-2.5,8.3-1.4,11.6c2.1,6.8,1.2,13.5,1.6,20.2c-3.7-0.7-1.7-3.5-1.8-5.3
			c-0.4-4.1,0.7-8.6-3.9-12.5c0,1.8-0.3,3.1,0.1,4.2C323.6,307,322.9,315.7,324.5,324z"/>
		<path d="M623.5,262.5c-4.5,0-8.7,0-13.2,0c-1.9-2.2-4-4.6-6.8-7.9c0-2.3,0-6.1,0-10.2c1.8-6.2,7-9,13.4-10.6
			c1.9,0.7,4.1,1.5,7.8,2.8C636.8,246.9,633.5,253.6,623.5,262.5z M628.3,244c-8.6-7.3-14.8-5.7-23.1,4.5c-0.2,6.8,5.6,7.8,9.2,9.8
			c3.6-0.8,6.5-1.5,8.5-2c2.2-1.7,4-3.1,5.4-4.1C628.3,249.1,628.3,246.5,628.3,244z"/>
		<path d="M586.1,378.8c1.5-1.5,2.4-2.4,3.9-3.9c-2.6-2.1-5.2-4.3-8.3-6.7c1.2-1.3,2.3-2.6,3.4-3.8c1,0.1,1.9,0,2.1,0.3
			c4.5,5.6,11.6,7.9,16.8,12.7c1.1,1,3.4,0.7,5.9,1.2c-5.1,7.4-8.2,16.1-19.1,14.6c-1.6-1.6-3.2-3.2-4.7-4.7
			C586.1,385.2,586.1,382,586.1,378.8z M598.5,387.3c1.3-2.3,2-3.5,2.7-4.7c-1.5-1.5-3-3.2-4.5-4.7c-1,0-2,0-2.9,0
			c-0.3,0-0.6,0-0.9,0c-3.9,4.6-3.9,4.6-0.2,9.4C594.6,387.3,596.7,387.3,598.5,387.3z"/>
		<path d="M599.7,361.9c1.4-2.5,2.6-4.8,4.5-8.2c-1.2-1-2.5-2.2-3.9-3.3c-5.5,2.7-7.3,7.2-9.5,12.9c-0.9-1.8-1.6-3.1-2.6-5.1
			c2.1-4.1,4.8-9.4,7.5-14.7c8.6,5.5,17.7,8.8,26.6,12.3c-2.4,4.6-4.8,9.3-7.3,14.1c-2,0-3.8,0-5.6,0c2-3.2,3.9-6.1,5.7-8.9
			c-1.1-3.7-3.5-4.5-6.8-4.2c-1.3,2.5-2.6,5.1-4.1,8.2C602.6,363.8,601.1,362.9,599.7,361.9z"/>
		<path d="M421.4,148.8c-1-2-1.6-3.4-2.4-4.8c2.6-2.6,4.7-0.1,7.1,1.2c3.2-1.3,6.5-2.6,10.1-4.1c-6.1-5.6-6.1-5.6-16.4-5.6
			c-2.1-2.2-5.6-3.7-5-8.2c4.4-6.8,11-8.1,18.9-6.8c0,1.4,0,3,0,5c-1.3-0.4-2.7-1.2-4.2-1.4c-1.9-0.2-3.8-0.1-5.9-0.1
			c-1.1,0.9-2.2,1.9-3.8,3.3c1.2,1.6,2.1,2.8,3.2,4.2c4,0,8,0,11.6,0c2.1,2,3.7,3.5,5.2,5c0,1.7,0,3.3,0,5.4
			c-0.3,0.4-0.8,1.2-1.4,1.8C434,149.1,428,149.6,421.4,148.8z"/>
		<path d="M286.7,329.4c-0.9-1.8-1.9-3.9-2.9-6c0.8-0.6,1.3-1.4,1.7-1.3c3.9,0.5,7.8,1.4,11.7,1.8c3.9,0.4,7.7,0.3,11.8,1.6
			c3.3,1.1,5.2,3.1,7.8,4.9c-4.9,10.4-16.1,13.3-24.1,22.2c-0.5-3.9-0.7-6.2-1-8.4c7.5-3.4,14.1-7.5,19.6-13.7
			C303,329,295.1,325.5,286.7,329.4z"/>
		<path d="M625.1,344.9c-1.5,0-3.7,0-5,0c1.6-1.6,3.5-3.5,4.3-4.3c0-4.2,0-6.3,0-8.8c-1.4-0.1-2.6-0.2-4.7-0.3
			c-2.1,2.7-4.5,5.8-7.3,9.4c-2.3,0-5.1,0-8.4,0c-1-1.1-2.5-2.8-4.3-4.7c0-2,0-4.6,0-7c1.6-2.2,3.2-4.4,5-7c1.5,0,3.7,0,6,0
			c-0.1,0.6-0.1,1.2-0.3,1.5c-2.2,2.3-4.5,4.5-7.3,7.4c0.6,1.8,1.4,4,2.6,7.5c3.1-3,5.1-5.2,7.4-7.2c2.4-2.1,5.1-3.9,7.1-5.4
			c4.7-0.9,5.8,3,8.2,4.7C628.2,335.6,629.5,340.8,625.1,344.9z"/>
		<path d="M526.2,443.2c0.9,5.1-3.1,5.2-5.4,6.6c-2.3,1.3-4.8,2.3-7.4,3c-2.9,0.8-5.9,1-9.3,1.6c-0.4-0.4-1.3-1.3-2.2-2.1
			c0.7-5.1,7-1.5,8.5-6.6c-4.2-4.9-2.8-13.3-9-19c3-1.1,5.9-2.2,8.4-3.1c1.9,5.8,3.6,10.9,5.2,16c2.1,6.7,2.1,6.6,8.7,3.7
			C524.1,443,524.8,443.2,526.2,443.2z"/>
		<path d="M588.4,172.8c-1.5,1.2-3,2.4-5.5,4.4c-0.4-3.2-0.6-5.2-0.9-8.3c-1.2-1-3.1-2.5-5.4-4.3c-5.6,1.1-9,6.2-13.4,10.2
			c0,2.1,0,4.2,0,6.7c3.2,1.5,6.4,3,10.1,4.7c-5.2,3.2-8.6,0-12.8-1.9c-1.1-2.1-2.3-4.4-3.5-6.8c0.9-2.8,1.7-5.3,3-9.4
			c1.7-2.7,5.9-4.4,10.2-6.2c5.2-2.2,10.8-1.1,13.7,3.2C585.5,167.4,586.7,169.8,588.4,172.8z"/>
		<path d="M290.3,231.7c4.4,0,8.6,0.5,12.6-0.2c3.6-0.6,6.4,4.7,10.6,0.6c-4.5-5.8-9.3-11.3-16.3-15.3c1-1.5,2.1-3,2.4-3.5
			c6.9,6.9,13.8,13.8,21.3,21.3c-1,0.2-2.6,0.6-4.3,1.1c0.5,0.5,1,1,1.4,1.6c-9.2,0-18.3,0-27.8,0
			C290.3,235.7,290.3,234.2,290.3,231.7z"/>
		<path d="M347.3,153.9c2-1,3.5-1.8,5.3-2.7c0,0,0.4,0.1,0.4,0.3c1,10.1,5.9,19.5,6.2,30.6c-10.2-3.8-19.5-7.2-29.5-11
			c1.4-1.9,2.5-3.6,4.1-5.9c5.2,6.1,12.6,5.7,19.1,9.4C354.7,166.5,350.1,160.8,347.3,153.9z"/>
		<path d="M519,131.8c-2.6-1-5.1-1.9-7.7-2.9c0-0.6,0-1.5,0-3.1c8,0.5,14.7,5.1,22.5,6.2c0,1.7,0,3.4,0,5.5c-2.9-0.9-5.4-1.7-8-2.4
			c-5.7,6.2-7.4,13.8-9.6,21.3c-2.3-1.3-4.5-2.6-6.8-3.9c1.9-3.2,4-6.1,5.4-9.2C516.3,140.1,517.3,136.7,519,131.8z"/>
		<path d="M465.2,123.2c-1.8-1.6-2.7-2.4-3.7-3.3c-1.4,0.7-2.6,1.3-5.1,2.6c1.3-2.7,1.9-4.2,3-6.4c7.5,0.9,15,1.8,23.2,2.8
			c-0.9,1.8-1.7,3.3-2.6,4.9c-3.2-1.7-6.3-3.5-9.4,2c0,5.4,0,12.2,0,19.2c-2.1,0-3.6,0-5.4,0C465.2,137.6,465.2,130.4,465.2,123.2z"
			/>
		<path d="M501.5,416.3c-2.4,3-6.1,2.8-9.3,3.8c-15.1,5-30.7,4-46.2,3.8c-14.3-0.2-27.7-4.6-41-9.6c-0.7-0.2-1-1.2-1.5-1.9
			c2.1,0.3,4,0.2,6.2,1.1c4.1,1.6,8.3,3.7,13,2.8c0,0.3-0.1,0.9,0,0.9c7.7,2.7,15.8,3.6,23.7,4.7c7.2,0.9,14.6,0.3,21.9,0.1
			c0.8,0,1.6-1.2,2.5-1.8c3.7,0,7.4,0.1,11.1-0.1c0.8,0,1.6-1.2,2.4-1.8C489.9,417.6,495.7,416.9,501.5,416.3z"/>
		<path d="M582.7,405.9c-6.4-5.4-10.8-12.1-18.3-16.3c1.8-2.1,3.5-4.1,5.2-6.1c4.4,7.3,10.1,12.8,17.4,17.2c1.4-1.3,2.9-2.6,4.5-4
			c1,0.6,1.7,1,3.3,1.9c-5.1,5.7-10.4,10.5-15.4,15.8c-0.9-1-1.7-1.9-2.9-3.1C578.4,409.6,580.5,407.8,582.7,405.9z"/>
		<path d="M614.8,275.6c-7.7,5.4-0.4,10.6-2.1,15.5c-1.8-0.8-3.3-1.4-5.2-2.2c0-6,0-12.2,0-18.2c1.8,0.5,3.9,1.8,5,1.3
			c5.3-2.9,11-1.3,16.5-1.8c1.4-0.1,2.8-0.9,4.6-1.4c2.3,1.3,2.9,3.7,2.3,7C628.5,275.6,621.3,275.6,614.8,275.6z"/>
		<path d="M321.7,355.7c-1.9-4.3-3.5-7.8-5-11.2c2.8-2.8,4.5-0.4,5.4,1.2c2.5,4.4,4.4,9,6.9,14.4c-10.1,0.1-17.1,6.9-26.7,10.5
			c-0.5-1.4-1.1-3.2-2.1-6c-0.4,1.3-0.4,0.4,0,0.3C306.9,361.9,313.7,359,321.7,355.7z"/>
		<path d="M340.8,376.4c-8.1,5.6-15.5,10.8-23.1,16c-0.9-1.1-2.1-2.7-3.7-4.7c5.7-3.7,12.2-8.1,19.2-12.7c-2.4-3.8-4.3-6.8-6.5-10.3
			c1.2-0.2,2.6-0.4,4.7-0.7C334.2,367.8,337.1,371.6,340.8,376.4z"/>
		<path d="M532.2,454.8c-3.1,4.1-8.1,4.2-12.4,5.7c-11.7,3.9-23.5,7.5-36.1,8c-2,0.1-4.3,1.7-6.9,1.7c-13.4-0.2-26.8-0.2-40.1-0.4
			c-0.2,0-0.5-1-0.7-1.6c10.2,0,20.5,0.1,30.7,0c18.7-0.3,36.6-4.5,54.1-10.7C524.5,456.3,528.1,454.1,532.2,454.8z"/>
		<path d="M361,431.8c3.2-4.2,6.3-7.7,8.6-11.7c2.1-3.8,5.7-6.9,5.5-13c3.1,2.6,4.9,4.2,6.8,5.7c-4.9,7.6-9.7,15-14.6,22.8
			C364.6,436.1,362.3,435,361,431.8z"/>
		<path d="M420.7,164.4c2.4-2.9,6.1-3.2,9.4-3.8c5.8-1,11.6-1.6,17.5-1.9c5.7-0.3,11.6,0.2,17.3-0.1c13.1-0.8,25.4,3.1,37.9,6.2
			c0.3,0.1,0.5,1,0.7,1.6c-1.9,0-4.1,0.7-5.7-0.1c-7.4-3.7-15.7-4-23.4-5.3c-10.5-1.6-21.5-0.4-32.3-0.4c-0.6,0-1.1,0.4-1.7,0.6
			C433.9,162.8,427.5,164.8,420.7,164.4z"/>
		<path d="M345,382.3c1.3,1.2,2.9,2.7,4.6,4.2c-7.5,5.6-15,11.1-21.5,18.8c-1.8-1.7-3.5-3.4-5.1-4.8
			C330.3,394.6,337.5,388.6,345,382.3z"/>
		<path d="M454.5,144.9c-2.8,0-5.5,0-8.4,0c2.2-5.9,2.4-21.3-0.1-26.1c0.9-0.9,1.8-1.7,3.1-2.9c1.2,0.8,2.4,1.7,3.9,2.7
			C454.4,127,452.1,135.9,454.5,144.9z"/>
		<path d="M322.9,179.1c1-1.9,1.8-3.5,2.8-5.4c4.8,2,7.3,6.6,11.2,9.7c3.6,2.9,7.3,5.6,11.3,8.6c-2.1,1.7-3.8,3.1-5.4,4.4
			C337.8,189.1,328.8,185.5,322.9,179.1z"/>
		<path d="M595.7,266.3c0.6,0.8,1.8,1.6,1.8,2.4c0.2,4.7,0,9.5,0.1,14.2c0.1,2.4-1.1,5,1.4,7c0.5,0.4,0.6,1.8,0.4,2.6
			c-2.7,11-2.2,22.7-6.7,33.3c0,0.1-0.6,0-0.9,0c0-2.2-0.9-5.5,0.2-6.5c3.5-3.2,0.2-7.5,2.5-10.6c2.5-3.4,1-7.3,1.1-11
			C595.8,287.4,595.7,276.8,595.7,266.3z"/>
		<path d="M426.5,110.5c0.2-0.5,0.5-1.6,0.7-1.6c7.8,0.4,15.1-3,23-2.4c7.6,0.6,15.5-1,22.8,0.5c5.5,1.1,10.9,0.9,16.3,1.9
			c0.3,0.1,0.5,1,0.7,1.6c-12.9,0.5-25.5-2.9-38.4-2.1C443.1,109,435,111.9,426.5,110.5z"/>
		<path d="M436.1,468.2c-14.7,0.5-28.5-3.9-42.1-8.7c-3.3-1.2-7.8-0.6-9.8-4.8c6.2-0.2,11.4,3.2,17.1,4.7c6.6,1.8,12.9,4.5,19.8,5
			c2.3,0.2,4.5,1.4,6.8,1.8c2.5,0.4,5,0.2,7.5,0.4C435.7,466.7,435.9,467.7,436.1,468.2z"/>
		<path d="M384.2,454.8c-3.5,0.8-6.3-1.4-9.2-2.6c-5.4-2.1-9.8-6.3-15.8-7.1c-1.4-1.3-2.9-2.5-4.3-3.9c-1.2-1.2-2.3-2.5-3.4-3.8
			c1.9,0.6,4.1,0.9,5.7,2c8.2,5.6,17.3,9.5,26.3,13.8C383.9,453.4,383.9,454.2,384.2,454.8z"/>
		<path d="M547.6,185.5c1.2,0.2,2.8,0,3.5,0.7c6.4,6.2,12.7,12.5,18.9,18.9c0.7,0.7,0.5,2.3,0.7,3.5c-3.2-2.6-6.4-5.1-9.6-7.7
			c-0.6-0.6-1.3-1.3-1.9-1.9c-0.6-0.6-1.3-1.3-1.9-1.9s-1.3-1.3-1.9-1.9c-0.6-0.6-1.3-1.3-1.9-1.9
			C551.5,190.7,549.5,188.1,547.6,185.5z"/>
		<path d="M582.2,152.8c1.2,0.2,2.8,0,3.5,0.7c6.4,6.2,12.7,12.5,18.9,18.9c0.7,0.7,0.5,2.3,0.7,3.5
			C597.6,168.2,589.9,160.5,582.2,152.8z"/>
		<path d="M370.7,393.2c-1.2-0.2-2.8,0-3.5-0.7c-6.4-6.2-12.7-12.5-18.9-18.9c-0.7-0.7-0.5-2.3-0.7-3.5c3.8,3.2,7.7,6.4,11.5,9.6
			c0.6,0.6,1.3,1.3,1.9,1.9c0.6,0.6,1.3,1.3,1.9,1.9s1.3,1.3,1.9,1.9C366.8,388.1,368.8,390.7,370.7,393.2z"/>
		<path d="M513,170.2c3.2,0.6,6.4,1.3,9.6,1.9c0.2,2.9,2.4,1.6,3.8,1.9c0.2,2.9,2.4,1.6,3.8,1.9c0.8,3,2.8,4.2,5.8,3.8
			c1.3,1.9,2.6,3.8,3.8,5.8c-1.2-0.2-2.7,0-3.4-0.7c-5.1-4.6-11.3-7.4-17.2-10.9C517.2,172.7,514.1,173.1,513,170.2z"/>
		<path d="M603.4,406.7c-5.8,5.8-11.5,11.5-17.3,17.3c-1.3,0-2.6,0-3.8,0c7.1-7.1,14.1-14.1,21.2-21.2
			C603.4,404.1,603.4,405.4,603.4,406.7z"/>
		<path d="M566.8,372.1c-0.2,1.2,0,2.7-0.7,3.4c-4.9,5.2-10,10.2-15.2,15.2c-0.7,0.7-2.3,0.5-3.4,0.7
			C554,384.9,560.4,378.5,566.8,372.1z"/>
		<path d="M363,133.6c0.9-1.2,1.5-2.9,2.7-3.5c4.9-2.6,9.9-5.1,15-7.3c1.6-0.7,3.6-0.5,5.4-0.7C379,127.2,371.3,131.1,363,133.6z"/>
		<path d="M291.8,206.7c0-4.7,3.4-7.9,5.1-11.9c0.5-1.1,0.4-2.3,0.6-3.5c1.9-1.3,3.8-2.6,5.8-3.8c-0.6,1.9-1,4-2,5.8
			c-2.1,3.9-4.3,7.7-6.7,11.4C294.2,205.6,292.8,206,291.8,206.7z"/>
		<path d="M543.8,127.8c4.1-0.4,7.5,1.1,10.6,3.8c2.4,2.1,5.1,4.1,8.6,3.9c0.6,1.3,1.3,2.6,1.9,3.8c-1.9-0.6-4-1-5.8-2
			C553.8,134.6,548.4,131.8,543.8,127.8z"/>
		<path d="M493.7,158.9c-8.9-0.9-17.8-1.9-26.7-2.8C476.3,153.5,485.1,155.8,493.7,158.9z"/>
		<path d="M551.5,445.2c-4.6,5-12.7,9.1-19.2,9.6C538,450.3,544.4,447.1,551.5,445.2z"/>
		<path d="M293.4,258.9c2.4-0.9,4.7-1.8,7.7-3c0,3.5,0,5.8,0,8.1C296.9,265.1,294.4,263.8,293.4,258.9z"/>
		<path d="M332.2,422.1c-1.2-0.2-2.7,0-3.4-0.7c-3.3-2.9-6.4-6.1-9.3-9.3c-0.7-0.7-0.5-2.3-0.7-3.4
			C323.3,413.1,327.7,417.6,332.2,422.1z"/>
		<path d="M384.2,402.8c-5.6-1.7-10.5-4.3-13.5-9.6c1.3,0,2.6,0,3.8,0c0.8,3,2.8,4.2,5.8,3.8C381.6,399,382.9,400.9,384.2,402.8z"/>
		<path d="M403.4,412.5c-6.1-0.5-11.1-3-15.4-7.7C393.7,406.2,398.9,408.5,403.4,412.5z"/>
		<path d="M645.5,293.6c0,5.9,0,12.1,0,18.9C643,306.2,643.2,297.4,645.5,293.6z"/>
		<path d="M621.2,311c-2.6-3.7-3.7-5.3-5.3-7.7c3.4,0,5.7,0,8.1,0C626,306.6,622.1,306.9,621.2,311z"/>
		<path d="M520.7,168.2c5,1.7,10.5,2.5,13.5,7.7c-1.3,0-2.6,0-3.8,0c-0.2-2.9-2.4-1.6-3.8-1.9c-0.2-2.9-2.4-1.6-3.8-1.9
			C522,170.8,521.3,169.5,520.7,168.2z"/>
		<path d="M613,172.1c-0.3,3,0.8,5,3.8,5.8c0,1.3,0,2.6,0,3.8c-3.4-2.5-7.7-4.4-7.7-9.6C610.4,172.1,611.7,172.1,613,172.1z"/>
		<path d="M632.2,354.8c0.3,5.5-2.3,9.6-5.8,13.5C626.1,362.8,628.8,358.6,632.2,354.8z"/>
		<path d="M341.8,147.1c2.7-3.2,8.3-6.9,11.5-7.7C350.9,144,347.1,146.7,341.8,147.1z"/>
		<path d="M347.6,370.2c-4.6-2.5-7.3-6.3-7.7-11.5c0.6,0,1.3,0,1.9,0c0.6,0.6,1.3,1.3,1.9,1.9c-0.3,2,0.1,3.7,1.9,4.8
			C347.5,366.5,347.9,368.2,347.6,370.2z"/>
		<path d="M638,339.4c-0.6-5.4,2-10.2,3-15.4c0-0.1,0.6,0,0.9,0C641.8,329.4,642.5,335.1,638,339.4z"/>
		<path d="M520.7,408.6c-3.8,3.5-8,6.1-13.5,5.8c0.5-0.6,0.8-1.4,1.5-1.9c2-1.4,5.2-0.9,6.2-3.9
			C516.8,408.6,518.8,408.6,520.7,408.6z"/>
		<path d="M548.9,154.8c-2.6,1.9-4.2,3.1-6.6,4.9c-0.2-2.8-0.4-4.4-0.5-5.9c1.1-1.1,2-2,2.5-2.5
			C545.5,152.2,546.7,153.1,548.9,154.8z"/>
		<path d="M338,150.9c-2.5,3.4-4.4,7.7-9.6,7.7C330.9,155.2,332.8,150.9,338,150.9z"/>
		<path d="M644.1,277.6c0-4.9,0-9.8,0-14.9c0.7,0.3,1.5,0.6,1.5,0.8c0.1,4.7,0.1,9.4,0.1,14.1C645.2,277.5,644.6,277.5,644.1,277.6z
			"/>
		<path d="M434,156.7c5.2-2.2,10.3-1.9,15.4-0.4c-2.6,0.1-5.2,0.3-7.8,0.4C439.1,156.7,436.6,156.7,434,156.7z"/>
		<path d="M295.7,377.8c-4.8-2.4-5.8-6.7-5.8-11.5C292.9,369.6,295.5,373.1,295.7,377.8z"/>
		<path d="M514.8,116.9c-4.4-1-8.8-1.9-14.6-3.2C506.8,110.9,510.6,114.7,514.8,116.9z"/>
		<path d="M413,164.4c2.6,0,5.1,0,7.7,0c-3.3,3.1-7.2,4-11.5,3.8c0.8-0.6,1.6-1.2,2.4-1.9C412.1,165.7,412.5,165,413,164.4z"/>
		<path d="M564.9,437.5c-0.6,1.3-1.3,2.6-1.9,3.8c-1.4,0.4-2.8,0.9-4.2,1.3c-1.1,0.3-2.3,0.4-3.5,0.6
			C557.1,438.9,561,438.1,564.9,437.5z"/>
		<path d="M332.2,231.7c0.7-4,1.4-7.9,5.8-9.6C337.3,226,336.6,229.9,332.2,231.7z"/>
		<path d="M416.8,160.5c-0.8,0.6-1.6,1.2-2.4,1.9c-0.6,0.6-1,1.3-1.5,1.9c-2.6,0-5.1,0-7.7,0C408.6,161.3,412.5,160.4,416.8,160.5z"
			/>
		<path d="M618.8,391.3c0,1.9,0,3.8,0,5.8c-1.9,0.6-3.8,1.3-5.8,1.9C612.7,394.8,615.7,393,618.8,391.3z"/>
		<path d="M620.7,377.8c0.7-4,1.4-7.9,5.8-9.6C625.8,372.2,625.1,376.1,620.7,377.8z"/>
		<path d="M328.4,335.5c-4.6-2.7-3.8-7.3-3.8-11.5C327.6,327.3,328.5,331.2,328.4,335.5z"/>
		<path d="M578.4,220.2c4.4,1.7,5.1,5.7,5.8,9.6C579.8,228,579.1,224.1,578.4,220.2z"/>
		<path d="M609.2,395.2c-0.3-4.2,2.7-6,5.8-7.7C615.2,391.7,612.2,393.5,609.2,395.2z"/>
		<path d="M547.6,391.3c-1.7,3.1-3.5,6.1-7.7,5.8c0.6-1.3,1.3-2.6,1.9-3.8c0.6-0.6,1.3-1.3,1.9-1.9
			C545.1,391.3,546.3,391.3,547.6,391.3z"/>
		<path d="M589.9,331.7c0.2,3.8-0.2,7.4-3.8,9.6C585.9,337.5,586.3,333.9,589.9,331.7z"/>
		<path d="M332.2,345.2c-3.7-2.3-4-5.8-3.8-9.6c0.6,0.8,1.2,1.6,1.9,2.4c0.6,0.6,1.3,1,1.9,1.5C332.2,341.3,332.2,343.2,332.2,345.2
			z"/>
		<path d="M526.5,120.2c3.8-0.2,7.4,0.2,9.6,3.8C532.3,124.2,528.7,123.8,526.5,120.2z"/>
		<path d="M328.4,241.3c-0.2-3.8,0.2-7.4,3.8-9.6C332.4,235.5,332.1,239.1,328.4,241.3z"/>
		<path d="M464.5,154.4c-3.6,0-7.2,0-10.9,0C457.2,152.1,461,153.3,464.5,154.4z"/>
		<path d="M636.1,345.2c0.2,3.8-0.2,7.4-3.8,9.6C632.1,351,632.4,347.4,636.1,345.2z"/>
		<path d="M503.4,166.3c3.8-0.2,7.4,0.2,9.6,3.8C509.2,170.3,505.6,170,503.4,166.3z"/>
		<path d="M309.2,179.8c0.3,4.2-2.7,6-5.8,7.7C303.1,183.2,306.1,181.5,309.2,179.8z"/>
		<path d="M343.8,431.7c-4.2,0.3-6-2.7-7.7-5.8C340.3,425.6,342.1,428.6,343.8,431.7z"/>
		<path d="M580.3,425.9c-1.7,3.1-3.5,6.1-7.7,5.8C574.3,428.6,576.1,425.6,580.3,425.9z"/>
		<path d="M311.1,177.8c-0.3-4.2,2.7-6,5.8-7.7C317.1,174.4,314.2,176.2,311.1,177.8z"/>
		<path d="M572.6,431.7c-1.7,3.1-3.5,6.1-7.7,5.8C566.6,434.4,568.4,431.4,572.6,431.7z"/>
		<path d="M395.7,118.2c-2.3,3.7-5.8,4-9.6,3.8C388.3,118.4,391.9,118.1,395.7,118.2z"/>
		<path d="M314.9,404.8c-3.1-1.7-6.1-3.5-5.8-7.7C312.2,398.8,315.2,400.5,314.9,404.8z"/>
		<path d="M520.7,168.2c-3.8,0.2-7.4-0.2-9.6-3.8C514.9,164.2,518.4,164.6,520.7,168.2z"/>
		<path d="M593.8,256.7c0.6,0.8,1.8,1.5,1.8,2.3c0.2,2.4,0.1,4.9,0.1,7.3c-0.6-0.8-1.8-1.5-1.8-2.3
			C593.6,261.6,593.8,259.1,593.8,256.7z"/>
		<path d="M416.8,112.5c0.8-0.6,1.5-1.8,2.3-1.8c2.4-0.2,4.9-0.1,7.3-0.1c-0.8,0.6-1.5,1.8-2.3,1.8
			C421.7,112.6,419.3,112.5,416.8,112.5z"/>
		<path d="M490.3,110.8c2.7,0,5.7,0,9.3,0C493.9,113,493.9,113,490.3,110.8z"/>
		<path d="M424.5,158.6c0.8-0.6,1.5-1.8,2.3-1.8c2.4-0.2,4.9-0.1,7.3-0.1c-0.8,0.6-1.5,1.8-2.3,1.8
			C429.4,158.8,427,158.6,424.5,158.6z"/>
		<path d="M578.4,137.5c0,1.9,0,3.8,0,5.8c-1.9-1.3-3.8-2.6-5.8-3.8C574.5,138.7,576.5,138.1,578.4,137.5z"/>
		<path d="M299.5,383.6c-3-0.8-4.2-2.8-3.8-5.8C298.7,378.6,299.8,380.6,299.5,383.6z"/>
		<path d="M618.8,381.7c0.3,3-0.8,5-3.8,5.8C614.6,384.5,615.7,382.4,618.8,381.7z"/>
		<path d="M572.6,364.4c0.3,3-0.8,5-3.8,5.8C568.5,367.2,569.6,365.1,572.6,364.4z"/>
		<path d="M609.2,395.2c0.3,3-0.8,5-3.8,5.8C605,397.9,606.1,395.9,609.2,395.2z"/>
		<path d="M539.9,397.1c-0.8,3-2.8,4.2-5.8,3.8c0.6-1.3,1.3-2.6,1.9-3.8C537.4,397.1,538.6,397.1,539.9,397.1z"/>
		<path d="M534.2,400.9c-0.8,3-2.8,4.2-5.8,3.8c0.6-1.3,1.3-2.6,1.9-3.8C531.6,400.9,532.9,400.9,534.2,400.9z"/>
		<path d="M307.2,395.2c-3-0.8-4.2-2.8-3.8-5.8C306.4,390.1,307.5,392.2,307.2,395.2z"/>
		<path d="M580.3,352.8c0.3,3-0.8,5-3.8,5.8C576.2,355.6,577.3,353.6,580.3,352.8z"/>
		<path d="M351.5,437.5c-3,0.3-5-0.8-5.8-3.8C348.7,433.3,350.7,434.4,351.5,437.5z"/>
		<path d="M339.9,358.6c-3-0.8-4.2-2.8-3.8-5.8C339.1,353.6,340.2,355.6,339.9,358.6z"/>
		<path d="M303.4,389.4c-3-0.8-4.2-2.8-3.8-5.8C302.6,384.4,303.7,386.4,303.4,389.4z"/>
		<path d="M539.9,179.8c3-0.3,5,0.8,5.8,3.8C542.7,183.9,540.7,182.8,539.9,179.8z"/>
		<path d="M353.4,139.4c0.8-3,2.8-4.2,5.8-3.8C358.4,138.6,356.4,139.7,353.4,139.4z"/>
		<path d="M643.3,250.9c0,2.5,0,5,0,7.5c-0.3,0-0.6,0-0.9,0c0-2.5,0-5,0-7.5C642.7,250.9,643,250.9,643.3,250.9z"/>
		<path d="M591.8,249c0.6,0.8,1.7,1.4,1.8,2.3c0.3,1.8,0.1,3.6,0.1,5.4c-0.6-0.8-1.7-1.4-1.8-2.3C591.6,252.7,591.8,250.8,591.8,249
			z"/>
		<path d="M374.5,181.7c0.8-3,2.8-4.2,5.8-3.8c-0.6,1.3-1.3,2.6-1.9,3.8C377.1,181.7,375.8,181.7,374.5,181.7z"/>
		<path d="M534.2,175.9c3-0.3,5,0.8,5.8,3.8c-1.3,0-2.6,0-3.8,0C535.4,178.5,534.8,177.2,534.2,175.9z"/>
		<path d="M645.7,243.2c0.6,0.8,1.7,1.4,1.8,2.3c0.3,1.8,0.1,3.6,0.1,5.4c-0.6-0.8-1.7-1.4-1.8-2.3
			C645.5,246.9,645.7,245,645.7,243.2z"/>
		<path d="M639.9,243.2c0.6,0.8,1.7,1.4,1.8,2.3c0.3,1.8,0.1,3.6,0.1,5.4c-0.6-0.8-1.7-1.4-1.8-2.3
			C639.7,246.9,639.9,245,639.9,243.2z"/>
		<path d="M380.3,177.8c0.8-3,2.8-4.2,5.8-3.8C385.3,177,383.3,178.2,380.3,177.8z"/>
		<path d="M638,235.5c0.6,0.8,1.7,1.4,1.8,2.3c0.3,1.8,0.1,3.6,0.1,5.4c-0.6-0.8-1.7-1.4-1.8-2.3C637.8,239.2,638,237.3,638,235.5z"
			/>
		<path d="M572.6,145.2c3-0.3,5,0.8,5.8,3.8C575.4,149.3,573.4,148.2,572.6,145.2z"/>
		<path d="M416.8,160.5c0.8-0.6,1.4-1.7,2.3-1.8c1.8-0.3,3.6-0.1,5.4-0.1c-0.8,0.6-1.4,1.7-2.3,1.8
			C420.5,160.7,418.7,160.5,416.8,160.5z"/>
		<path d="M641.8,229.8c1.3,0.6,2.6,1.3,3.8,1.9c-0.9,1.3-1.9,2.6-3.8,5.3C641.8,233.4,641.8,231.6,641.8,229.8z"/>
		<path d="M345.7,210.5c-0.3-3,0.8-5,3.8-5.8C349.8,207.8,348.7,209.8,345.7,210.5z"/>
		<path d="M616.8,191.3c-3-0.8-4.2-2.8-3.8-5.8C616,186.3,617.2,188.3,616.8,191.3z"/>
		<path d="M570.7,208.6c3,0.8,4.2,2.8,3.8,5.8c-1.3-0.6-2.6-1.3-3.8-1.9C570.7,211.2,570.7,209.9,570.7,208.6z"/>
		<path d="M642.1,323.6c0-2,0-4.4,0-7c0.7,0.2,1.5,0.3,1.5,0.5C643.8,320.8,643.8,320.8,642.1,323.6z"/>
		<path d="M366.8,187.5c0.8-3,2.8-4.2,5.8-3.8C371.9,186.7,369.8,187.8,366.8,187.5z"/>
		<path d="M574.5,214.4c3,0.8,4.2,2.8,3.8,5.8c-1.3-0.6-2.6-1.3-3.8-1.9C574.5,216.9,574.5,215.7,574.5,214.4z"/>
		<path d="M339.9,218.2c-0.3-3,0.8-5,3.8-5.8C344.1,215.4,343,217.5,339.9,218.2z"/>
		<path d="M403.4,116.3c-0.8,0.6-1.4,1.7-2.3,1.8c-1.8,0.3-3.6,0.1-5.4,0.1c0.8-0.6,1.4-1.7,2.3-1.8
			C399.7,116.1,401.6,116.3,403.4,116.3z"/>
		<path d="M613,185.5c-3-0.8-4.2-2.8-3.8-5.8C612.2,180.5,613.3,182.6,613,185.5z"/>
		<path d="M416.8,112.5c-0.8,0.6-1.4,1.7-2.3,1.8c-1.8,0.3-3.6,0.1-5.4,0.1c0.8-0.6,1.4-1.7,2.3-1.8
			C413.2,112.3,415,112.5,416.8,112.5z"/>
		<path d="M634.2,224c3.7,0.9,1.2,3.9,1.9,5.8C632.4,228.9,634.9,225.9,634.2,224z"/>
		<path d="M507.2,414.4c-0.9,3.7-3.9,1.2-5.8,1.9C502.4,412.6,505.3,415.1,507.2,414.4z"/>
		<path d="M511.1,164.4c-1.9-0.7-4.9,1.8-5.8-1.9C507.2,163.2,510.2,160.7,511.1,164.4z"/>
		<path d="M630.3,214.4c3.7,0.9,1.2,3.9,1.9,5.8C628.5,219.3,631,216.3,630.3,214.4z"/>
		<path d="M499.5,160.5c1.9,0.7,4.9-1.8,5.8,1.9C503.4,161.7,500.4,164.2,499.5,160.5z"/>
		<path d="M638,235.5c-3.7-0.9-1.2-3.9-1.9-5.8C639.8,230.7,637.3,233.6,638,235.5z"/>
		<path d="M514.9,116.3c1.9,0.7,4.9-1.8,5.8,1.9C518.8,117.5,515.8,120,514.9,116.3z"/>
		<path d="M520.7,118.2c1.9,0.7,4.9-1.8,5.8,1.9C524.6,119.4,521.6,121.9,520.7,118.2z"/>
		<path d="M409.2,114.4c-0.9,3.7-3.9,1.2-5.8,1.9C404.3,112.6,407.3,115.1,409.2,114.4z"/>
		<path d="M286.1,358.6c-3.7-0.9-1.2-3.9-1.9-5.8C287.9,353.7,285.3,356.7,286.1,358.6z"/>
		<path d="M591.8,325.9c-0.7,1.9,1.8,4.9-1.9,5.8C590.7,329.8,588.1,326.8,591.8,325.9z"/>
		<path d="M324.5,252.8c0.7-1.9-1.8-4.9,1.9-5.8C325.7,249,328.2,251.9,324.5,252.8z"/>
		<path d="M589.9,243.2c3.7,0.9,1.2,3.9,1.9,5.8C588.1,248.1,590.7,245.1,589.9,243.2z"/>
		<path d="M636.1,345.2c0.7-1.9-1.8-4.9,1.9-5.8C637.3,341.3,639.8,344.3,636.1,345.2z"/>
		<path d="M326.5,247.1c0.7-1.9-1.8-4.9,1.9-5.8C327.7,243.2,330.2,246.2,326.5,247.1z"/>
		<path d="M586.1,233.6c3.7,0.9,1.2,3.9,1.9,5.8C584.3,238.5,586.8,235.5,586.1,233.6z"/>
		<path d="M493.8,158.6c1.9,0.7,4.9-1.8,5.8,1.9C497.6,159.8,494.7,162.3,493.8,158.6z"/>
		<path d="M618.8,193.2c2.9,0.2,1.6,2.4,1.9,3.8C617.8,196.9,619.1,194.7,618.8,193.2z"/>
		<path d="M524.5,406.7c-0.2,2.9-2.4,1.6-3.8,1.9C520.9,405.7,523.1,407,524.5,406.7z"/>
		<path d="M528.4,404.8c-0.2,2.9-2.4,1.6-3.8,1.9C524.7,403.8,526.9,405.1,528.4,404.8z"/>
		<path d="M388,404.8c-1.5-0.3-3.7,1-3.8-1.9C385.6,403.1,387.8,401.9,388,404.8z"/>
		<path d="M622.6,200.9c-2.9-0.2-1.6-2.4-1.9-3.8C623.6,197.2,622.3,199.5,622.6,200.9z"/>
		<path d="M536.1,124c1.5,0.3,3.7-1,3.8,1.9C538.5,125.6,536.2,126.9,536.1,124z"/>
		<path d="M539.9,125.9c1.5,0.3,3.7-1,3.8,1.9C542.3,127.6,540.1,128.8,539.9,125.9z"/>
		<path d="M359.2,135.5c0.2-2.9,2.4-1.6,3.8-1.9C362.8,136.5,360.6,135.2,359.2,135.5z"/>
		<path d="M386.1,174c0.2-2.9,2.4-1.6,3.8-1.9C389.8,175,387.5,173.7,386.1,174z"/>
		<path d="M389.9,172.1c0.2-2.9,2.4-1.6,3.8-1.9C393.6,173,391.4,171.8,389.9,172.1z"/>
		<path d="M393.8,170.2c0.2-2.9,2.4-1.6,3.8-1.9C397.5,171.1,395.2,169.9,393.8,170.2z"/>
		<path d="M566.8,141.3c1.5,0.3,3.7-1,3.8,1.9C569.2,142.9,567,144.2,566.8,141.3z"/>
		<path d="M397.6,168.2c0.2-2.9,2.4-1.6,3.8-1.9C401.3,169.2,399.1,167.9,397.6,168.2z"/>
		<path d="M401.5,166.3c0.2-2.9,2.4-1.6,3.8-1.9C405.1,167.3,402.9,166,401.5,166.3z"/>
		<path d="M555.3,443.2c-0.2,2.9-2.4,1.6-3.8,1.9C551.6,442.3,553.8,443.5,555.3,443.2z"/>
		<path d="M338,222.1c0.3-1.5-1-3.7,1.9-3.8C339.6,219.7,340.9,221.9,338,222.1z"/>
		<path d="M630.3,214.4c-2.9-0.2-1.6-2.4-1.9-3.8C631.3,210.7,630,212.9,630.3,214.4z"/>
		<path d="M632.2,220.2c2.9,0.2,1.6,2.4,1.9,3.8C631.3,223.8,632.5,221.6,632.2,220.2z"/>
		<path d="M584.2,229.8c2.9,0.2,1.6,2.4,1.9,3.8C583.2,233.5,584.4,231.2,584.2,229.8z"/>
		<path d="M588,239.4c2.9,0.2,1.6,2.4,1.9,3.8C587,243.1,588.3,240.8,588,239.4z"/>
		<path d="M618.8,381.7c0.3-1.5-1-3.7,1.9-3.8C620.4,379.3,621.6,381.5,618.8,381.7z"/>
		<path d="M626.5,206.7c2.9,0.2,1.6,2.4,1.9,3.8C625.5,210.4,626.8,208.2,626.5,206.7z"/>
		<path d="M289.9,366.3c-2.9-0.2-1.6-2.4-1.9-3.8C290.9,362.6,289.6,364.8,289.9,366.3z"/>
		<path d="M336.1,352.8c-2.9-0.2-1.6-2.4-1.9-3.8C337,349.2,335.8,351.4,336.1,352.8z"/>
		<path d="M584.2,345.2c-0.3,1.5,1,3.7-1.9,3.8C582.5,347.5,581.3,345.3,584.2,345.2z"/>
		<path d="M334.2,349c-2.9-0.2-1.6-2.4-1.9-3.8C335.1,345.3,333.9,347.5,334.2,349z"/>
		<path d="M582.2,349c-0.3,1.5,1,3.7-1.9,3.8C580.6,351.4,579.4,349.2,582.2,349z"/>
		<path d="M586.1,341.3c-0.3,1.5,1,3.7-1.9,3.8C584.4,343.7,583.2,341.5,586.1,341.3z"/>
		<path d="M647.9,288.6c-0.7,2.3-1,3.5-1.3,4.7c-0.3-0.9-0.7-1.8-0.8-2.7C645.7,290.3,646.4,289.9,647.9,288.6z"/>
		<path d="M626.5,206.7c-2.9-0.2-1.6-2.4-1.9-3.8C627.4,203,626.2,205.2,626.5,206.7z"/>
		<path d="M288,362.5c-2.9-0.2-1.6-2.4-1.9-3.8C289,358.8,287.7,361,288,362.5z"/>
		<path d="M289.9,210.5c0.3-1.5-1-3.7,1.9-3.8C291.6,208.2,292.8,210.4,289.9,210.5z"/>
		<path d="M576.5,358.6c-0.3,1.5,1,3.7-1.9,3.8C574.8,361,573.6,358.8,576.5,358.6z"/>
		<path d="M322.6,164.4c-0.6,0.6-1.3,1.3-1.9,1.9C321.3,165.7,322,165,322.6,164.4z"/>
		<path d="M324.5,162.5c-0.6,0.6-1.3,1.3-1.9,1.9C323.3,163.7,323.9,163.1,324.5,162.5z"/>
		<path d="M324.5,162.5c0.6-0.6,1.3-1.3,1.9-1.9C325.8,161.2,325.2,161.8,324.5,162.5z"/>
		<path d="M326.5,160.5c0.6-0.6,1.3-1.3,1.9-1.9C327.7,159.3,327.1,159.9,326.5,160.5z"/>
		<path d="M574.5,362.5c-0.6,0.6-1.3,1.3-1.9,1.9C573.3,363.7,573.9,363.1,574.5,362.5z"/>
		<path d="M564.9,139.4c0.6,0.6,1.3,1.3,1.9,1.9C566.2,140.7,565.6,140,564.9,139.4z"/>
		<path d="M568.8,370.2c-0.6,0.6-1.3,1.3-1.9,1.9C567.5,371.4,568.1,370.8,568.8,370.2z"/>
		<path d="M572.6,145.2c-0.6-0.6-1.3-1.3-1.9-1.9C571.3,143.9,572,144.5,572.6,145.2z"/>
		<path d="M341.8,147.1c-0.6,0.6-1.3,1.3-1.9,1.9C340.6,148.4,341.2,147.7,341.8,147.1z"/>
		<path d="M338,150.9c0.6-0.6,1.3-1.3,1.9-1.9C339.3,149.6,338.6,150.3,338,150.9z"/>
		<path d="M578.4,149c0.6,0.6,1.3,1.3,1.9,1.9C579.7,150.3,579,149.6,578.4,149z"/>
		<path d="M580.3,150.9c0.6,0.6,1.3,1.3,1.9,1.9C581.6,152.2,580.9,151.6,580.3,150.9z"/>
		<path d="M363,191.3c0.6-0.6,1.3-1.3,1.9-1.9C364.3,190,363.6,190.7,363,191.3z"/>
		<path d="M361.1,193.2c0.6-0.6,1.3-1.3,1.9-1.9C362.4,191.9,361.7,192.6,361.1,193.2z"/>
		<path d="M616.8,191.3c0.6,0.6,1.3,1.3,1.9,1.9C618.1,192.6,617.5,191.9,616.8,191.3z"/>
		<path d="M359.2,195.2c0.6-0.6,1.3-1.3,1.9-1.9C360.4,193.9,359.8,194.5,359.2,195.2z"/>
		<path d="M318.8,408.6c-0.6-0.6-1.3-1.3-1.9-1.9C317.5,407.3,318.1,408,318.8,408.6z"/>
		<path d="M357.2,197.1c0.6-0.6,1.3-1.3,1.9-1.9C358.5,195.8,357.9,196.4,357.2,197.1z"/>
		<path d="M316.8,406.7c-0.6-0.6-1.3-1.3-1.9-1.9C315.6,405.4,316.2,406.1,316.8,406.7z"/>
		<path d="M355.3,199c0.6-0.6,1.3-1.3,1.9-1.9C356.6,197.7,355.9,198.4,355.3,199z"/>
		<path d="M603.4,402.8c0.6-0.6,1.3-1.3,1.9-1.9C604.7,401.6,604,402.2,603.4,402.8z"/>
		<path d="M349.5,204.8c0.6-0.6,1.3-1.3,1.9-1.9C350.8,203.5,350.2,204.1,349.5,204.8z"/>
		<path d="M353.4,200.9c0.6-0.6,1.3-1.3,1.9-1.9C354.7,199.6,354,200.3,353.4,200.9z"/>
		<path d="M351.5,202.8c0.6-0.6,1.3-1.3,1.9-1.9C352.7,201.6,352.1,202.2,351.5,202.8z"/>
		<path d="M622.6,200.9c0.6,0.6,1.3,1.3,1.9,1.9C623.9,202.2,623.3,201.6,622.6,200.9z"/>
		<path d="M318.8,168.2c0.6-0.6,1.3-1.3,1.9-1.9C320.1,166.9,319.4,167.6,318.8,168.2z"/>
		<path d="M316.8,170.2c0.6-0.6,1.3-1.3,1.9-1.9C318.1,168.9,317.5,169.5,316.8,170.2z"/>
		<path d="M345.7,433.6c-0.6-0.6-1.3-1.3-1.9-1.9C344.4,432.3,345.1,433,345.7,433.6z"/>
		<path d="M607.2,177.8c-0.6-0.6-1.3-1.3-1.9-1.9C605.9,176.6,606.6,177.2,607.2,177.8z"/>
		<path d="M582.2,424c-0.6,0.6-1.3,1.3-1.9,1.9C580.9,425.3,581.6,424.6,582.2,424z"/>
		<path d="M336.1,425.9c-0.6-0.6-1.3-1.3-1.9-1.9C334.8,424.6,335.4,425.3,336.1,425.9z"/>
		<path d="M334.2,424c-0.6-0.6-1.3-1.3-1.9-1.9C332.9,422.7,333.5,423.4,334.2,424z"/>
		<path d="M311.1,177.8c-0.6,0.6-1.3,1.3-1.9,1.9C309.8,179.1,310.4,178.5,311.1,177.8z"/>
		<path d="M607.2,177.8c0.6,0.6,1.3,1.3,1.9,1.9C608.5,179.1,607.9,178.5,607.2,177.8z"/>
		<path d="M372.6,183.6c0.6-0.6,1.3-1.3,1.9-1.9C373.9,182.3,373.3,183,372.6,183.6z"/>
		<path d="M545.7,183.6c0.6,0.6,1.3,1.3,1.9,1.9C547,184.9,546.3,184.3,545.7,183.6z"/>
		<path d="M343.8,212.5c0.6-0.6,1.3-1.3,1.9-1.9C345.1,211.2,344.4,211.8,343.8,212.5z"/>
		<path d="M309.2,397.1c-0.6-0.6-1.3-1.3-1.9-1.9C307.9,395.8,308.5,396.4,309.2,397.1z"/>
		<path d="M364.9,189.4c0.6-0.6,1.3-1.3,1.9-1.9C366.2,188.1,365.6,188.7,364.9,189.4z"/>
		<path d="M313,416.3c0.6-1.3,1.3-2.6,1.9-3.8c1.3,1.3,2.6,2.6,3.8,3.8C316.8,416.3,314.9,416.3,313,416.3z"/>
		<path d="M314.9,412.5c-0.6-0.6-1.3-1.3-1.9-1.9C313.6,411.2,314.3,411.8,314.9,412.5z"/>
		<path d="M605.3,160.5c-0.6,0.6-1.3,1.3-1.9,1.9C604,161.8,604.7,161.2,605.3,160.5z"/>
		<path d="M375.5,194.2c8.9,7.2,19.6,8.5,29.7,10.3c10.9,1.8,21.9-1.7,32-5.8c10-4.1,18.3-11,25.7-19.9c3.9,3.9,7.3,7.2,10.6,10.6
			c7.8,8.2,16.6,12.9,28.3,15.3c4.7,1,9.4,2.4,14.5,2.4c9.1-0.1,17.5-2.2,25.8-5.2c1.6-0.6,3.4-0.6,5.5-1c-0.8,2.2-2.8,3.7-0.1,4.9
			c-1.6,1.3-2,2.9-1.9,4.9c1.5,29.6-2.8,59-2,88.6c0.1,5.5-1.4,11-1.7,16.5c-0.3,5.8,0.5,11.6-0.2,17.3c-0.6,4.6-2.2,9.3-4.3,13.6
			c-3.5,7.2-7.1,14.5-11.6,21.1c-3.6,5.4-8.3,10.1-12.8,14.9c-7.2,7.6-16,13.1-25,18.4c-9.3,5.5-19.4,9-29.3,12.9
			c-5.4,2.1-10.2-1.1-14.9-2.6c-15.1-4.7-28.4-13.2-40.3-23.2c-14.4-12.1-24.5-28-30.5-45.9c-1.6-4.9-3.4-10.6-2.5-16.4
			c0.6-3.7,0.4-7.7,0.1-11.5c-1.2-12,2.6-23.7,2.1-35.8c-0.5-12.2-1.5-24.6,0.2-36.5c2.2-14.9,0.9-29.7,1.6-44.4
			C374.6,196.8,375,196,375.5,194.2z M539.9,305.7c0-7.9-0.4-15.9,0.1-23.9c0.5-7.4-0.7-14.7,1.4-22.4c2-7.5,0.4-15.9,0.4-23.9
			c0-9.5,0-19.1,0-29.8c-9.6,6-19.3,4.4-28.8,4.9c-9.8,0.5-18.4-3-27-6.8c-8.8-3.9-15.9-10.1-22.5-16.6c-2.2,0.9-4,1.4-5.5,2.3
			c-1.1,0.6-1.9,1.8-2.8,2.7c-9.8,9.9-22.6,14-35.6,16.1c-12.1,1.9-24.7,0.7-36.2-4.9c-1.4-0.7-3.4-0.1-4.9-0.1c0,7.1,0,13.8,0,20.6
			c8,5,16.5,8.9,24.6,13.3c13.3,7.2,26.7,14.4,40.1,21.4c4.2,2.2,9.1,3.3,12.8,6c11.7,8.5,25.3,13.5,37.6,20.8
			c14.1,8.3,28.9,15.2,43.6,22.8C538,307.7,538.9,306.8,539.9,305.7z M376.6,337.9c3,8.4,6,13.9,8.8,19.4c3.6,6.9,8,13,13.2,18.5
			c12.6,13.3,27.2,22.9,46,30.4c4,1.6,8.9,4.2,13.4,2.2c11.1-4.9,23.9-6.3,33.1-15.3c7.8-2.6,13.2-8.9,19-14
			c4.5-3.9,8.1-9.4,12.5-13.8c-0.5-4,6.5-5.1,3.5-9.8c-3.4-2.2-6.8-4.7-10.5-6.6c-13.8-6.9-27.8-13.4-41.2-21.1
			c-15.4-8.9-31.9-15.9-47.4-24.9c-13.3-7.7-27.9-13.2-41.1-21.3c-2.7-1.6-5.7-2.8-8.9-4.3c-0.8,14-1.4,27.1-2.5,40.2
			C373.9,325.2,376.1,332.4,376.6,337.9z M537.7,311.1c-1.3-0.5-2.4-0.9-3.5-1.5c-12.5-6.3-24.8-12.7-37-19.5
			c-9.6-5.3-20.3-8.7-29.4-14.6c-12.1-7.9-25.3-13.2-37.6-20.6c-13.5-8.1-28.1-14.3-41.3-23.1c-2.8-1.9-6.4-2.8-9.6-4.1
			c-4.8,14.6-2.1,29.1-3,43.7c2,1.5,3.8,3.4,5.9,4.5c10.5,5.6,21.4,10.3,31.4,16.9c5.2,3.4,11.2,5.3,16.7,8.2
			c5.8,3,11.4,6.5,17.2,9.5c13.7,7.1,27.4,14.1,41.1,21.2c3.4,1.8,6.7,3.9,10.1,5.7c3.7,2,7.8,3.2,11,5.7c3.2,2.5,7.4,2.3,10.3,5.6
			c2.1,2.3,6.1,2.9,8.9,4.1C537,339.8,539.1,326.1,537.7,311.1z"/>
		<path d="M358.6,279.1c-0.1,4.8,1,5.9,2.6,7.5c-3.3,21.6-6.6,43.6-9.9,65.9c-1.4,0-2.9,0-4.8,0c-3.4-21.6-3.6-43.9-6.7-66.1
			c1.8-1.2,3.5-2.3,5.4-3.6c-1.5-5.7-3.6-11.6-8.8-15.2c-1.8-9.6,8.9-7.2,11.7-12.6c-4.3-10.9-3.3-21,5.5-30.2c0-2.9,0-6.4,0-9.8
			c0.4-0.3,0.8-0.6,1.2-0.9c0.2,1.2,0.4,2.5,0.6,3.7c0.7-0.4,1.3-0.8,2-1.3c0,2.8,1.1,6.5-0.2,8.2c-2.9,3.6-1.6,6.5,0.4,9.1
			c1.9,2.6,2,5.2,1.8,7.9c-0.4,5.2,1.4,10.7-1.4,16c2.9,1.7,6.2,3.5,9.2,5.2c-0.2,4.6-1.5,7.5-5.3,10
			C358.9,274.8,359.4,279.7,358.6,279.1c-3.1-6.7-7.4-7.8-12.5-6.6c0,2.4,0,4.8,0,6.7c2.6,0.8,4.8,1.4,7.1,2.1
			C355.1,279.5,357.1,277.7,358.6,279.1z M341.6,288.7c4.1,5.2,0.9,11.9,3.5,17.8c0.6-2.5,0.4-5,0.7-7.5c0.2-2.4-0.9-5.2,1.9-9.2
			c0,7.9,0,13.9,0,19.8c0,0.2,0.4,0.5,0.7,0.7c0.2,0.1,0.4-0.1,1.3-0.3c0-6.5,0-13.1,0-19.7c0-0.2,0.4-0.5,0.7-0.6
			c0.2-0.1,0.4,0.1,1.3,0.4c0,7,0,14.3,0,21.5c0,0.2,0.4,0.5,0.7,0.6c0.2,0.1,0.4-0.1,1-0.4c0-5.8,0-11.8,0-18.6
			c5.5,1.9,3.6-3.4,5.8-5c-4.4-3.4-9.4-2.7-14.3-2.6C343.7,286.5,342.8,287.4,341.6,288.7z M354,257.7c1.5-3.1,2.4-5,3.1-6.5
			c-2.2-5.4-4.3-10.5-6.6-16.2c-1.2,2.9-2.2,5.3-3.1,7.3C349.6,247.4,351.6,251.9,354,257.7z M356.9,262.1c0-0.5,0-1.1-0.1-1.6
			c-2.1,0-4.3-0.1-6.4,0c-2.2,0.1-4.3,0.3-6.5,0.4c0.1,0.4,0.1,0.8,0.2,1.2C348.4,262.1,352.7,262.1,356.9,262.1z M342.2,264.7
			c3,1.3,6.1,2.2,8.9,0C348.2,264.7,345.2,264.7,342.2,264.7z"/>
		<path d="M574.5,266.3c4.5-0.7,5.4,3.4,9,5.7c-7,5-10.1,11.5-12.1,19.1c-0.5-0.6-0.4-0.2-0.1-0.2c1.5,0.2,3,0.4,5.4,0.7
			c-1.1,5.7-2.1,11.3-3.1,16.8c-1,6-1.9,12-3,18c-1,5.7-1.8,11.4-3.2,16.9c-1.5,5.6,1.4,12-4.1,17.1c-1.1-0.6-2.5-1.5-4-2.4
			c-0.1-1.2-0.2-2.1-0.2-3c-0.6-12.6-0.2-25.3-2.3-37.6c-1.5-8.5-0.9-16.8-1.7-25.5c1.1-0.4,2.2-0.7,4-1.3c0-2.2,0-4.7,0.1-7.7
			c1.3,1.6,2.1,3,2.7,4c3,0,5.8,0,8.3,0c0.9-2.5,1.7-4.5,2.7-7.1c-4.3,0-7.7,0-11.1,0c-0.9,0.9-1.8,1.8-2.6,3.1
			c-4.2,0.7,0.4-6.5-5-5.3c-1.4-2.3-2.9-4.6-4.3-6.8c2-2,4.2-4.2,6.6-6.6c1.1,0,2.4,0,3.9,0c0.2-0.8,0.5-1.7,0.6-2.6
			c0.3-3.6-0.9-7.5,2-10.8c-4.8-7-0.3-11.9,3.8-16.9c-2.2-5.4-2.2-5.4,1.8-12.9c-0.6,9.9,6.5,16.1,7.9,25.4
			c-0.3,0.6-1.1,1.8-1.7,3.1c-0.6,1.3-1.1,2.7-2,4.9C572.8,258,571.6,262.5,574.5,266.3c-5.6,0.1-11.2,0.3-16.8,0.4
			c-0.1,0-0.3,0.4-1,1.5c4.2,0,7.8-0.1,11.5,0.1c0.8,0,1.6,1.2,2.4,2.5c0,0.4,0,0.1,0-0.2c-2.5,0-5,0-7.5,0c0,0.3,0,0.6,0,0.9
			c2.5,0,5,0,7.5-0.7c1.1-0.7,2.2-0.7,3.8-0.7C574.5,268.6,574.5,267.4,574.5,266.3z M567.1,245.2c-0.3-2-0.5-3.9-0.9-6.7
			c-1.3,2.7-2.1,4.4-3.1,6.4c1.4,0.1,2.6,0.2,6.7-5.5c-1.4,3.3-3.5,6.5-4.1,10c-0.6,3.6-4.7,7.1-1,12.3c3-4.5,5.5-8.3,7.4-11.2
			c0-4.4,0-7.8,0-11.1C571,239.4,570.4,239.4,567.1,245.2z M574.7,296c-5.4-3.4-9.9-3.9-17.5-2c0.4,3.5-0.5,7.1,1.2,12.4
			c0.6-4.3,1-6.8,1.3-9.3c1.4,3.5,1.2,6.9,1.4,10.3c0.1,3.5-0.7,7.1,0.8,11.3c0.9-2,1.3-3.1,2.1-4.9c0.7,1.9,1.1,3,1.5,4.3
			c4.6-6.5,2.6-14.1,4.8-21.1c0.2,3.2,0.5,6.5,0.8,10.4c3.2-3.8-0.5-8.4-6.4-16.3c0.1,0.1,0.3,0.3,0.4,0.4c0.5-0.4,1-0.9,1.6-1.3
			c-0.2-0.2-0.4-0.4-0.6-0.6C565.6,290.1,565.2,290.6,574.7,296z M557.5,274.3c0,0.5,0.1,1.1,0.1,1.6c4.7,0,9.4,0,14.1-0.1
			c0.2,0,0.4-0.8,0.8-1.5C567.3,274.3,562.4,274.3,557.5,274.3z M555.6,270.5c0,0.6,0.1,1.1,0.1,1.7c1.7-0.2,3.4-0.5,5.1-0.7
			c0-0.3-0.1-0.7-0.1-1C559,270.5,557.3,270.5,555.6,270.5z"/>
		<path d="M484.2,418.2c-3.7,0-7.4-0.1-11.1,0.1c-0.8,0-1.6,1.2-2.4,1.8c-5.4,0-10.8,0-16.2,0c-4,0-7.8-0.2-11.7-1.8
			c-3.6-1.4-7.8,1.2-11.7-1.8c-1.8-1.4-5.6-0.2-8.4-0.2c-3.9-3.6-9.3-3.7-14-5.6c-3.9-1.6-7.9-2.8-11-5.9c2.1,0.3,4,0.3,6.2,1.2
			c9.2,3.5,18,8.4,28.2,8.5c4.2,3,9,1.5,13.6,2c2.3,0.3,4.6,1.5,6.9,1.8c2.5,0.3,5.2,0.5,7.7,0c10.1-2.2,20.8-0.8,30.4-5.5
			c6.6,0.7,11.9-4.6,18.5-4.1c-3.1,4-7.9,4.2-12.1,5.6c-3.9,1.3-8.1,1.6-12.2,2.4C484.5,416.7,484.4,417.7,484.2,418.2z"/>
		<path d="M536.1,397.1c-3-0.3-5,0.8-5.8,3.8c-5.7,1.5-10.9,3.8-15.4,7.7c-1.9,0-3.8,0-5.8,0c1.8-1.3,3.5-2.9,5.5-3.8
			c10.6-5,20.8-10.6,29.5-18.6c0.7-0.7,2.3-0.5,3.5-0.7c-1.3,1.9-2.6,3.8-3.8,5.8c-0.6,0.6-1.3,1.3-1.9,1.9
			C538.9,392.9,536.8,394,536.1,397.1z"/>
		<path d="M590.2,316.7c-1.2-11.1,2-19.5,2-28.4c0-8.7-3.4-17-1.8-27.4c5.2,14.5,3.1,27.9,3.2,41.2
			C593.6,306.3,591.7,310.5,590.2,316.7z"/>
		<path d="M341.8,352.8c-5.3-1.8-4.3-8-7.7-11.1c-0.7-0.7-1.3-1.6-1.9-2.3c0.7-4.1-1.8-7.5-2.7-11.2c-0.6-2.8-2.4-5.4-3-8.2
			c-0.5-2.4-0.1-5-0.1-7.5c0.3,0,0.9-0.1,0.9,0c3.2,13.4,7.8,26.4,14.4,38.5C342.1,351.5,341.8,352.2,341.8,352.8z"/>
		<path d="M386.1,179.8c0.9-1.2,1.5-2.9,2.7-3.5c4.9-2.6,9.9-5.1,15-7.3c1.6-0.7,3.6-0.5,5.4-0.7
			C402.1,173.4,394.4,177.2,386.1,179.8z"/>
		<path d="M574.5,352.8c1.9-7.1,5.1-13.5,9.6-19.2C583.6,340.1,579.6,348.3,574.5,352.8z"/>
		<path d="M570.7,212.5c-0.3,3,0.8,5,3.8,5.8c0,1.3,0,2.6,0,3.8c-5.7-2.4-6.6-9.3-11.5-12.6c-0.4-0.3-0.1-1.8-0.1-2.7
			C565.6,208.6,568.1,210.5,570.7,212.5z"/>
		<path d="M559.2,199c0.6,0.6,1.3,1.3,1.9,1.9c0,1.3,0,2.6,0,3.8c-3.8-3.8-7.7-7.7-11.5-11.5c1.3,0,2.6,0,3.8,0
			c0.6,0.6,1.3,1.3,1.9,1.9c0.6,0.6,1.3,1.3,1.9,1.9S558.5,198.4,559.2,199z"/>
		<path d="M364.9,385.5c-0.6-0.6-1.3-1.3-1.9-1.9s-1.3-1.3-1.9-1.9c-0.6-0.6-1.3-1.3-1.9-1.9c0-1.3,0-2.6,0-3.8
			c3.2,3.2,6.4,6.4,9.6,9.6C367.5,385.5,366.2,385.5,364.9,385.5z"/>
		<path d="M353.4,208.6c0-5.2,4.3-7.1,7.7-9.6C361.1,204.2,356.8,206.1,353.4,208.6z"/>
		<path d="M363,197.1c2.5-3.4,4.4-7.7,9.6-7.7C370.1,192.8,368.2,197.1,363,197.1z"/>
		<path d="M378.4,393.2c-1.3,0-2.6,0-3.8,0c-1.9-2.6-3.8-5.1-5.8-7.7C374,385.6,375.9,389.8,378.4,393.2z"/>
		<path d="M343.8,360.5c-0.6-0.6-1.3-1.3-1.9-1.9c0-1.9,0-3.8,0-5.8c2.2,3,5.8,5.2,5.8,9.6C346.3,361.8,345.1,361.2,343.8,360.5z"/>
		<path d="M584.2,333.6c-0.1-4.3,0.8-8.3,3.8-11.5C587.9,326.3,588.8,330.9,584.2,333.6z"/>
		<path d="M393.8,402.8c-4-0.7-7.9-1.4-9.6-5.8C388.1,397.8,392,398.5,393.8,402.8z"/>
		<path d="M355.3,372.1c-3.1-1.7-6.1-3.5-5.8-7.7C352.6,366.1,355.6,367.9,355.3,372.1z"/>
		<path d="M566.8,364.4c0.3,4.2-2.7,6-5.8,7.7C560.8,367.9,563.8,366.1,566.8,364.4z"/>
		<path d="M582.2,237.5c3.7,2.3,4,5.8,3.8,9.6C582.4,244.8,582.1,241.3,582.2,237.5z"/>
		<path d="M332.2,245.2c-0.2-3.8,0.2-7.4,3.8-9.6C336.3,239.3,335.9,242.9,332.2,245.2z"/>
		<path d="M539.9,185.5c4.2-0.3,6,2.7,7.7,5.8C543.4,191.6,541.6,188.6,539.9,185.5z"/>
		<path d="M378.4,181.7c1.3,0,2.6,0,3.8,0c-1.7,3.1-3.5,6.1-7.7,5.8C375.8,185.5,377.1,183.6,378.4,181.7z"/>
		<path d="M380.3,397.1c-0.6-1.3-1.3-2.6-1.9-3.8c3-0.3,5,0.8,5.8,3.8C382.9,397.1,381.6,397.1,380.3,397.1z"/>
		<path d="M341.8,224c-0.3-3,0.8-5,3.8-5.8C346,221.2,344.9,223.2,341.8,224z"/>
		<path d="M588.6,250.9c0.9,2.7,1.3,3.5,1.3,4.3c0.1,1.7,0,3.5-1.3,5.2C588.6,257.9,588.6,255.4,588.6,250.9z"/>
		<path d="M589.9,314.4c0,1.8,0.2,3.7-0.1,5.4c-0.1,0.8-1.2,1.5-1.8,2.3c0-1.8-0.2-3.7,0.1-5.4C588.2,315.8,589.3,315.1,589.9,314.4
			z"/>
		<path d="M345.7,218.2c-0.3-3,0.8-5,3.8-5.8C349.8,215.4,348.7,217.5,345.7,218.2z"/>
		<path d="M588,252.8c-3.7-0.9-1.2-3.9-1.9-5.8C589.8,248,587.3,251,588,252.8z"/>
		<path d="M397.6,404.8c-1.5-0.3-3.7,1-3.8-1.9C395.2,403.1,397.5,401.9,397.6,404.8z"/>
		<path d="M382.2,181.7c0.2-2.9,2.4-1.6,3.8-1.9C385.9,182.6,383.7,181.4,382.2,181.7z"/>
		<path d="M580.3,233.6c2.9,0.2,1.6,2.4,1.9,3.8C579.4,237.3,580.6,235.1,580.3,233.6z"/>
		<path d="M336.1,235.5c0.3-1.5-1-3.7,1.9-3.8C337.7,233.2,339,235.4,336.1,235.5z"/>
		<path d="M574.5,222.1c2.9,0.2,1.6,2.4,1.9,3.8C573.6,225.8,574.8,223.5,574.5,222.1z"/>
		<path d="M339.9,227.8c0.3-1.5-1-3.7,1.9-3.8C341.6,225.5,342.8,227.7,339.9,227.8z"/>
		<path d="M578.4,229.8c-2.9-0.2-1.6-2.4-1.9-3.8C579.3,226.1,578.1,228.3,578.4,229.8z"/>
		<path d="M580.3,233.6c-2.9-0.2-1.6-2.4-1.9-3.8C581.3,229.9,580,232.2,580.3,233.6z"/>
		<path d="M572.6,356.7c0.3-1.5-1-3.7,1.9-3.8C574.2,354.3,575.5,356.5,572.6,356.7z"/>
		<path d="M338,231.7c0.3-1.5-1-3.7,1.9-3.8C339.6,229.3,340.9,231.5,338,231.7z"/>
		<path d="M568.8,362.5c0.3-1.5-1-3.7,1.9-3.8C570.4,360.1,571.6,362.3,568.8,362.5z"/>
		<path d="M555.3,377.8c-0.6,0.6-1.3,1.3-1.9,1.9C554,379.1,554.7,378.5,555.3,377.8z"/>
		<path d="M557.2,375.9c-0.6,0.6-1.3,1.3-1.9,1.9C555.9,377.2,556.6,376.6,557.2,375.9z"/>
		<path d="M572.6,356.7c-0.6,0.6-1.3,1.3-1.9,1.9C571.3,358,572,357.3,572.6,356.7z"/>
		<path d="M349.5,364.4c-0.6-0.6-1.3-1.3-1.9-1.9C348.3,363.1,348.9,363.7,349.5,364.4z"/>
		<path d="M568.8,362.5c-0.6,0.6-1.3,1.3-1.9,1.9C567.5,363.7,568.1,363.1,568.8,362.5z"/>
		<path d="M357.2,374c-0.6-0.6-1.3-1.3-1.9-1.9C355.9,372.7,356.6,373.4,357.2,374z"/>
		<path d="M559.2,374c0.6-0.6,1.3-1.3,1.9-1.9C560.4,372.7,559.8,373.4,559.2,374z"/>
		<path d="M359.2,375.9c-0.6-0.6-1.3-1.3-1.9-1.9C357.9,374.6,358.5,375.3,359.2,375.9z"/>
		<path d="M557.2,375.9c0.6-0.6,1.3-1.3,1.9-1.9C558.5,374.6,557.9,375.3,557.2,375.9z"/>
		<path d="M372.6,189.4c0.6-0.6,1.3-1.3,1.9-1.9C373.9,188.1,373.3,188.7,372.6,189.4z"/>
		<path d="M547.6,191.3c0.6,0.6,1.3,1.3,1.9,1.9C548.9,192.6,548.3,191.9,547.6,191.3z"/>
		<path d="M351.5,210.5c0.6-0.6,1.3-1.3,1.9-1.9C352.7,209.3,352.1,209.9,351.5,210.5z"/>
		<path d="M361.1,199c0.6-0.6,1.3-1.3,1.9-1.9C362.4,197.7,361.7,198.4,361.1,199z"/>
		<path d="M561.1,204.8c0.6,0.6,1.3,1.3,1.9,1.9C562.4,206.1,561.7,205.4,561.1,204.8z"/>
		<path d="M551.5,381.7c0.6-0.6,1.3-1.3,1.9-1.9C552.7,380.4,552.1,381.1,551.5,381.7z"/>
		<path d="M549.5,383.6c0.6-0.6,1.3-1.3,1.9-1.9C550.8,382.3,550.2,383,549.5,383.6z"/>
		<path d="M547.6,385.5c0.6-0.6,1.3-1.3,1.9-1.9C548.9,384.3,548.3,384.9,547.6,385.5z"/>
		<path d="M349.5,212.5c0.6-0.6,1.3-1.3,1.9-1.9C350.8,211.2,350.2,211.8,349.5,212.5z"/>
		<path d="M486,230.1c1.9,3,4.1,6.5,6.7,10.8c-2.3,0.2-3.7,0.4-5.1,0.5c-1.6-2.1-3.1-4.2-5.1-6.9c-1.8,2.6-3,4.5-4.3,6.5
			c-1.8,0-3.5,0-5.4,0c2.6-3.4,4.9-6.5,7.3-9.6c-1.3-3-2.6-5.7-3.8-8.5c4-2.1,4.7,1.4,6.6,2.6c2.1-1.3,4.1-2.5,6.3-3.8
			C491.4,226.3,486.5,226.7,486,230.1z"/>
		<path d="M458.9,242.5c-4.9-6.6-6.2-13.2-7.5-20.1c1.4-0.2,2-0.2,2.7-0.3c1.7,4.5,3.5,9.1,5.1,13.4c6.9-2.3,2.9-12.2,10.9-13.6
			C469.3,228.3,466.7,233.1,458.9,242.5z"/>
		<path d="M441.9,234.6c1.3,1.3,2,2,2.7,2.7c0.6-0.6,1.3-1.1,2-1.7c0.8,0.8,1.7,1.6,3.1,3c-1.3,0.7-2.6,1.4-4.6,2.5
			c-0.5-0.2-2-1.2-3.7-1.6c-1.7-0.4-3.5-0.1-6.3-0.1c1.2-2.4,1.9-3.6,2.8-5.5c-0.9-3.1,2-7.5-2-11c1.4-1.1,2.8-2.2,5.3-4.1
			C442.4,224.8,441.5,229.8,441.9,234.6z"/>
		<path d="M506.8,357c2.4,1.4,4.7,2.7,7.7,4.5c0.4,0.8,1.2,2.3,2.1,4c-1.3,2-2.7,4.3-4.2,6.7c-4.7-0.9-9.2-1.7-14.4-2.7
			c-0.7-0.6-2-1.9-3.3-3.1c-2.1,0-4,0-5.1,0c-2.5,1.6-4.4,2.9-6.8,4.5c0.4-8,7.4-12.3,7.5-19.7c1.5,0,3,0,4.4,0
			c2.2,5.7,4.5,11.4,7,17.6c3.2-4.2,6.4,2.3,9.5-1.7c-1-3.9-3.8-6.3-7.8-7c0-2.4,0-4.4,0-6.3c1.8-1,3.7-1.9,5.6-2.9
			c1.8,0.8,3.7,1.7,6.7,3.1c-3.4,0.5-5.8,0.9-8.2,1.2C507.3,355.8,507,356.4,506.8,357z M489.7,361.3c3.5,1.1,5.1,0.6,4-1.4
			C492.5,360.3,491.1,360.8,489.7,361.3z"/>
		<path d="M436.4,361.9c-1.4,2.8-2,4.1-2.7,5.6c-2,0.6-4.2,1.3-6.3,2c-1.8-0.6-3.7-1.2-6.3-2c0-5.6,0-11.8,0-18.3
			c3.5,0,6.9,0,10.1,0C437.4,352.1,430.9,359.4,436.4,361.9z M426.5,360.7c-0.2,4.3,1.4,4.3,4,2.8c-0.2-1-0.4-1.9-0.5-2.8
			C428.8,360.7,428,360.7,426.5,360.7z M430.5,354c-3.6-1.2-4.8-0.4-4,1.4C427.7,355,429.1,354.5,430.5,354z"/>
		<path d="M455.5,370.4c0-7,0-13,0-19.2c3.6,0,7,0,10.7,0c0.7,0.7,1.6,1.6,2.6,2.6c0,1.2,0,2.5,0,4c-1.1,1-2.2,2-3.7,3.4
			c2.1,2.5,4.1,5,6.8,8.3c-2.5,0.4-3.9,0.7-5.4,0.9c-2.1-2.7-4.1-5.3-6.8-8.9c-0.4,3.4-0.6,5.7-0.9,8.4
			C458.1,369.9,457.2,370.1,455.5,370.4z M462.7,353.3c-0.5-0.1-0.9-0.3-1.4-0.4c-0.8,1.7-1.5,3.4-2.6,5.6c1.9,0,2.7,0,3.9,0
			C462.7,356.6,462.7,355,462.7,353.3z"/>
		<path d="M440.3,349.2c3.6,0,7,0,10.7,0c0.2,0.9,0.4,1.7,0.6,2.6c-2.7,1.1-5.3,2.2-9.9,4.1c3.9,0.6,5.7,0.9,7.6,1.2
			c0.1,0.9,0.2,1.8,0.3,3c-1.9,0.3-3.6,0.5-5.6,0.8c0,1.6,0,3.1,0,5.3c2.4,0,4.8,0,7.2,0c0.2,0.4,0.4,0.8,0.5,1.3
			c-1.1,0.4-2.3,0.9-3.4,1.3c-2.8,0.8-6.5,2.5-9.9-0.8C441.5,362,438.9,355.5,440.3,349.2z"/>
		<path d="M400.2,346.8c1.3,1.3,2.2,2.2,3.3,3.3c0,4.4,0,9.1,0,13.9c2,0.3,3.8,0.6,5.4,0.8c0.1,1,0.2,1.6,0.3,2.8
			c-3.6,0-7.1,0-11.4,0C398.4,361.1,395.5,353.7,400.2,346.8z"/>
		<path d="M474.5,355.4c-1.6-0.6-2.7-0.9-3.8-1.3c0-0.8,0-1.5,0-2.7c4.4-1.1,8.9-0.1,13.8,0.9c-1.1,1-2.2,2.1-3.9,3.7
			c-0.8,3.9-1.9,8.9-3.1,14.7c-1.2-1-2.9-1.6-3-2.4C474.4,364.1,474.5,360,474.5,355.4z"/>
		<path d="M411.1,349.2c2.1,0,3.6,0,5.4,0c0,6.3,0,12.5,0,18.7c-5.3,0.1-5.4,0.1-5.4-3.5C411,359.4,411.1,354.4,411.1,349.2z"/>
		<path d="M566.5,297.4c0,3,0,6,0,9.6C563.3,303.6,566.1,300.4,566.5,297.4z"/>
	</g>
</g>
<g>
</g>
<g>
</g>
<g>
</g>
<g>
</g>
<g>
</g>
<g>
</g>
<g>
</g>
<g>
</g>
<g>
</g>
<g>
</g>
<g>
</g>
<g>
</g>
<g>
</g>
<g>
</g>
<g>
</g>
</svg>
