<?xml version="1.0" encoding="utf-8"?>
<!-- Generator: Adobe Illustrator 20.1.0, SVG Export Plug-In . SVG Version: 6.00 Build 0)  -->
<svg version="1.1" xmlns="http://www.w3.org/2000/svg" xmlns:xlink="http://www.w3.org/1999/xlink" x="0px" y="0px"
	 viewBox="0 0 960 560" style="enable-background:new 0 0 960 560;" xml:space="preserve">
<style type="text/css">
	.st0{fill:none;}
</style>
<g id="outer_circle">
	<g>
		<path d="M697.1,291c0,0,0,1.4-0.1,4.2c0,1.4-0.1,3.1-0.1,5.2c0,1,0,2.1-0.1,3.3c-0.1,1.2-0.2,2.5-0.3,3.8
			c-0.7,10.7-2.4,26.6-7.8,46c-0.7,2.4-1.4,4.9-2.1,7.4c-0.8,2.5-1.7,5.1-2.6,7.7c-0.8,2.7-1.9,5.3-3,8c-1.1,2.7-2.1,5.5-3.4,8.2
			c-4.7,11.2-10.9,22.8-18.6,34.6c-7.7,11.7-16.9,23.6-27.8,34.9c-5.4,5.7-11.4,11.2-17.6,16.6c-1.5,1.4-3.2,2.6-4.8,3.9
			c-1.6,1.3-3.3,2.6-4.9,3.9c-1.7,1.3-3.4,2.5-5.2,3.7c-1.8,1.2-3.5,2.5-5.3,3.7c-14.4,9.6-30.4,18-47.8,24.7
			c-2.1,0.9-4.4,1.6-6.6,2.4c-2.2,0.7-4.5,1.5-6.7,2.2c-2.3,0.6-4.6,1.3-6.9,1.9c-1.1,0.3-2.3,0.7-3.5,1c-1.2,0.3-2.3,0.5-3.5,0.8
			c-2.3,0.5-4.7,1.1-7.1,1.6c-2.4,0.5-4.8,0.9-7.2,1.3c-1.2,0.2-2.4,0.4-3.6,0.6l-1.8,0.3l-1.8,0.2c-2.4,0.3-4.9,0.6-7.3,0.9
			c-2.5,0.4-4.9,0.5-7.4,0.7c-2.5,0.2-5,0.4-7.5,0.5c-2.5,0.1-5,0.1-7.6,0.2c-1.3,0-2.5,0.1-3.8,0.1c-1.3,0-2.5-0.1-3.8-0.1
			c-2.5-0.1-5.1-0.1-7.6-0.2c-2.5-0.1-5.1-0.4-7.7-0.6c-5.1-0.3-10.3-1.1-15.4-1.7c-10.3-1.6-20.6-3.7-30.8-6.8
			c-5.1-1.3-10.1-3.2-15.2-4.9c-2.5-0.9-5-2-7.5-2.9l-3.7-1.5l-3.7-1.7c-19.7-8.8-38.5-20.6-55.5-34.8c-2.1-1.8-4.2-3.6-6.3-5.5
			c-2.1-1.9-4-3.8-6.1-5.7c-1-1-2-1.9-3-2.9l-2.9-3l-2.9-3c-1-1-1.9-2-2.8-3.1c-1.8-2.1-3.7-4.2-5.5-6.4c-1.8-2.1-3.5-4.4-5.3-6.6
			c-0.9-1.1-1.7-2.2-2.6-3.3l-2.5-3.5l-2.5-3.5c-0.8-1.1-1.7-2.3-2.4-3.5c-1.5-2.4-3.1-4.8-4.6-7.1c-1.5-2.4-2.9-4.9-4.3-7.3
			c-0.7-1.2-1.4-2.5-2.1-3.7l-2-3.8l-2-3.8c-0.7-1.3-1.3-2.5-1.9-3.8c-1.2-2.6-2.4-5.2-3.5-7.8c-1.1-2.6-2.1-5.3-3.2-7.9
			c-0.5-1.3-1.1-2.7-1.6-4l-1.4-4.1l-1.4-4.1c-0.5-1.4-0.9-2.7-1.3-4.1l-2.4-8.3c-0.8-2.8-1.3-5.6-2-8.4l-1-4.2l-0.8-4.2l-0.8-4.2
			c-0.2-1.4-0.5-2.8-0.7-4.3l-1.1-8.6c-0.1-0.7-0.2-1.4-0.3-2.1l-0.2-2.2l-0.3-4.3l-0.3-4.3c-0.1-1.4-0.1-2.9-0.2-4.3l-0.2-8.6
			l0.2-8.6c0.1-1.4,0-2.9,0.1-4.3l0.3-4.3l0.3-4.3l0.2-2.2c0.1-0.7,0.2-1.4,0.3-2.1l1.1-8.6c0.1-1.4,0.4-2.8,0.7-4.3l0.7-4.2
			l0.7-4.2l1-4.2c0.7-2.8,1.2-5.6,2-8.4l2.3-8.3c0.4-1.4,0.8-2.7,1.3-4.1l1.4-4.1l1.4-4.1c0.5-1.3,1-2.7,1.5-4c1.1-2.7,2-5.4,3.2-8
			c1.2-2.6,2.3-5.2,3.5-7.8c0.6-1.3,1.2-2.6,1.9-3.9l1.9-3.8l1.9-3.8c0.7-1.3,1.4-2.5,2.1-3.7c1.4-2.5,2.8-5,4.3-7.4
			c1.5-2.4,3.1-4.8,4.6-7.2c0.7-1.2,1.6-2.4,2.4-3.5l2.5-3.5l2.5-3.5c0.9-1.1,1.7-2.2,2.6-3.3c1.8-2.2,3.4-4.5,5.3-6.6
			c1.8-2.1,3.7-4.3,5.5-6.4c0.9-1.1,1.9-2.1,2.8-3.1l2.9-3.1l2.9-3c1-1,2-1.9,3-2.9c2-1.9,4-3.9,6.1-5.8c2.1-1.8,4.2-3.7,6.3-5.5
			c17.1-14.3,35.9-26.1,55.7-34.8l3.7-1.7l3.8-1.5c2.5-1,5-2,7.5-2.9c5.1-1.7,10.1-3.6,15.2-4.9c10.2-3.1,20.5-5.1,30.8-6.7
			c5.2-0.6,10.3-1.4,15.4-1.7c2.6-0.2,5.1-0.4,7.7-0.5c2.6-0.1,5.1-0.1,7.7-0.2c1.3,0,2.5-0.1,3.8-0.1c1.3,0,2.5,0.1,3.8,0.1
			c2.5,0.1,5,0.1,7.5,0.2c2.5,0.2,5,0.4,7.5,0.6c2.5,0.2,5,0.3,7.4,0.7c2.5,0.3,4.9,0.6,7.4,0.9l1.8,0.2l1.8,0.3
			c1.2,0.2,2.4,0.4,3.6,0.6c2.4,0.5,4.8,0.8,7.2,1.3c2.4,0.5,4.7,1.1,7.1,1.6c1.2,0.3,2.3,0.5,3.5,0.8c1.2,0.3,2.3,0.7,3.5,1
			c2.3,0.7,4.6,1.3,6.9,2c2.3,0.7,4.5,1.5,6.7,2.3c2.2,0.8,4.5,1.4,6.6,2.4c17.4,6.7,33.5,15.1,47.8,24.7
			c14.4,9.6,26.9,20.6,37.9,31.9c10.9,11.4,20.1,23.2,27.8,34.9c7.7,11.8,13.8,23.4,18.6,34.6c1.3,2.7,2.3,5.5,3.4,8.2
			c1.1,2.7,2.1,5.3,3,8c0.9,2.6,1.8,5.2,2.6,7.7c0.7,2.5,1.4,5,2.1,7.5c5.4,19.4,7.1,35.2,7.8,46c0.1,1.3,0.2,2.6,0.3,3.8
			c0.1,1.2,0.1,2.3,0.1,3.3c0,2.1,0.1,3.8,0.1,5.2C697.1,289.6,697.1,291,697.1,291z M696.9,291c0,0,0-1.4-0.1-4.2
			c0-1.4-0.1-3.1-0.1-5.2c0-1,0-2.1-0.1-3.3c-0.1-1.2-0.2-2.4-0.3-3.8c-0.7-10.7-2.5-26.5-7.9-45.9c-0.7-2.4-1.4-4.9-2.1-7.4
			c-0.9-2.5-1.7-5.1-2.6-7.7c-0.8-2.6-1.9-5.3-3-8c-1.1-2.7-2.1-5.5-3.4-8.2c-4.8-11.1-11.1-22.7-18.8-34.3
			c-7.7-11.6-17-23.3-27.9-34.5c-11-11.2-23.6-21.9-37.9-31.4c-14.3-9.5-30.3-17.8-47.6-24.3c-2.1-0.9-4.4-1.5-6.6-2.3
			c-2.2-0.7-4.4-1.5-6.7-2.2c-2.3-0.6-4.5-1.3-6.8-1.9c-1.1-0.3-2.3-0.6-3.4-1c-1.2-0.3-2.3-0.5-3.5-0.8c-2.3-0.5-4.7-1.1-7-1.6
			c-2.3-0.5-4.7-0.9-7.1-1.3c-1.2-0.2-2.4-0.4-3.6-0.6l-1.8-0.3l-1.8-0.2c-2.4-0.3-4.9-0.6-7.3-0.9c-2.4-0.4-4.9-0.5-7.4-0.7
			c-2.5-0.2-4.9-0.4-7.4-0.5c-2.5-0.1-5-0.1-7.5-0.2c-1.3,0-2.5-0.1-3.8-0.1c-1.2,0-2.5,0.1-3.8,0.1c-2.5,0.1-5,0.1-7.6,0.2
			c-2.5,0.1-5.1,0.4-7.6,0.5c-5.1,0.3-10.2,1.1-15.3,1.7c-10.2,1.6-20.4,3.6-30.5,6.6c-5.1,1.3-10.1,3.2-15.1,4.8
			c-2.5,0.9-5,1.9-7.4,2.9l-3.7,1.5l-3.7,1.7c-19.6,8.6-38.3,20.3-55.3,34.4c-2.1,1.8-4.2,3.6-6.3,5.4c-2.1,1.8-4,3.8-6.1,5.7
			c-1,1-2,1.9-3,2.9l-2.9,3l-2.9,3c-1,1-1.9,2-2.8,3.1c-1.8,2.1-3.7,4.2-5.5,6.3c-1.8,2.1-3.5,4.4-5.2,6.6c-0.9,1.1-1.7,2.2-2.6,3.3
			l-2.4,3.4l-2.5,3.4c-0.8,1.1-1.6,2.3-2.4,3.5c-1.5,2.4-3.1,4.7-4.6,7.1c-1.5,2.4-2.9,4.9-4.3,7.3c-0.7,1.2-1.4,2.4-2.1,3.7
			l-1.9,3.8l-1.9,3.8c-0.7,1.3-1.3,2.5-1.9,3.8c-1.2,2.6-2.4,5.2-3.5,7.8c-1.1,2.6-2.1,5.3-3.2,7.9c-0.5,1.3-1.1,2.6-1.6,4l-1.4,4
			l-1.4,4c-0.5,1.3-0.9,2.7-1.3,4.1l-2.4,8.2c-0.8,2.8-1.3,5.6-2,8.3l-1,4.2l-0.8,4.2l-0.8,4.2c-0.2,1.4-0.5,2.8-0.7,4.2l-1.1,8.5
			c-0.1,0.7-0.2,1.4-0.3,2.1l-0.2,2.1l-0.3,4.3l-0.3,4.3c-0.1,1.4-0.1,2.9-0.2,4.3l-0.2,8.6l0.2,8.6c0.1,1.4,0,2.9,0.1,4.3l0.3,4.3
			l0.3,4.3l0.2,2.1c0.1,0.7,0.2,1.4,0.3,2.1l1.1,8.5c0.1,1.4,0.4,2.8,0.7,4.2l0.7,4.2l0.7,4.2l1,4.2c0.7,2.8,1.2,5.6,2,8.3l2.3,8.2
			c0.4,1.4,0.8,2.7,1.3,4.1l1.4,4.1l1.4,4.1c0.5,1.3,1,2.7,1.5,4c1.1,2.6,2,5.3,3.2,7.9c1.2,2.6,2.3,5.2,3.5,7.8
			c0.6,1.3,1.2,2.6,1.9,3.8l1.9,3.8l1.9,3.8c0.7,1.2,1.4,2.5,2.1,3.7c1.4,2.4,2.8,4.9,4.3,7.3c1.5,2.4,3,4.8,4.6,7.1
			c0.7,1.2,1.6,2.4,2.4,3.5l2.4,3.4l2.4,3.4c0.9,1.1,1.7,2.2,2.6,3.3c1.8,2.2,3.4,4.4,5.3,6.6c1.8,2.1,3.7,4.2,5.5,6.3
			c0.9,1.1,1.9,2.1,2.8,3.1l2.9,3l2.9,3c1,1,2,1.9,3,2.9c2,1.9,4,3.9,6.1,5.7c2.1,1.8,4.2,3.6,6.3,5.4c17,14.2,35.8,25.8,55.4,34.4
			l3.7,1.6l3.7,1.5c2.5,1,5,2,7.5,2.9c5.1,1.7,10,3.5,15.1,4.8c10.1,3,20.4,5,30.6,6.5c5.1,0.6,10.2,1.4,15.3,1.6
			c2.5,0.2,5.1,0.4,7.6,0.5c2.5,0.1,5.1,0.1,7.6,0.2c1.3,0,2.6,0.1,3.8,0.1c1.3,0,2.5-0.1,3.8-0.1c2.5-0.1,5-0.1,7.5-0.2
			c2.5-0.2,5-0.4,7.4-0.6c2.5-0.2,4.9-0.3,7.4-0.7c2.4-0.3,4.9-0.6,7.3-0.9l1.8-0.2l1.8-0.3c1.2-0.2,2.4-0.4,3.6-0.6
			c2.4-0.5,4.8-0.8,7.1-1.3c2.3-0.5,4.7-1.1,7-1.6c1.2-0.3,2.3-0.5,3.5-0.8c1.1-0.3,2.3-0.7,3.4-1c2.3-0.6,4.5-1.3,6.8-1.9
			c2.2-0.7,4.4-1.5,6.7-2.2c2.2-0.8,4.4-1.4,6.6-2.3c17.3-6.5,33.3-14.8,47.6-24.3c14.3-9.5,26.9-20.2,37.9-31.4
			c11-11.2,20.2-22.9,27.9-34.6c7.7-11.6,14-23.2,18.8-34.3c1.3-2.7,2.3-5.5,3.4-8.2c1.1-2.7,2.2-5.3,3-8c0.9-2.6,1.8-5.2,2.6-7.7
			c0.7-2.5,1.4-5,2.1-7.4c5.4-19.4,7.2-35.2,7.9-45.9c0.1-1.3,0.2-2.6,0.3-3.8c0.1-1.2,0.1-2.3,0.1-3.3c0.1-2.1,0.1-3.8,0.1-5.2
			C696.9,292.4,696.9,291,696.9,291z"/>
	</g>
	<g>
		<path d="M452.1,247.5c0,0,0,0.5,0,1.5c0,1,0,2.4-0.2,4.2c-0.2,3.7-0.8,9.1-2.6,15.8c-1.8,6.7-4.8,14.7-10.1,22.8
			c-5.2,8.1-12.6,16.5-22.5,23.2c-5,3.3-10.5,6.3-16.5,8.6c-1.5,0.6-3.1,1.1-4.6,1.6c-1.6,0.4-3.2,0.9-4.8,1.3
			c-0.8,0.2-1.6,0.4-2.4,0.6c-0.8,0.2-1.7,0.3-2.5,0.5c-1.7,0.3-3.4,0.5-5.1,0.7c-1.7,0.2-3.4,0.3-5.2,0.4c-1.7,0-3.5,0.1-5.3,0.1
			c-0.9,0-1.7-0.1-2.6-0.1c-0.9,0-1.8-0.1-2.7-0.2c-1.8-0.1-3.6-0.4-5.3-0.6c-3.5-0.6-7.1-1.3-10.6-2.4c-1.8-0.5-3.5-1.1-5.2-1.7
			c-0.9-0.3-1.7-0.7-2.6-1l-1.3-0.5l-1.3-0.6c-13.6-6.2-25.9-16.3-34.5-29.4c-8.7-13-13.6-28.7-13.7-44.7c0-3.9,0.2-8,0.8-11.9
			c0.6-3.9,1.4-7.8,2.5-11.6c1.2-3.8,2.5-7.5,4.2-11.1c1.7-3.6,3.6-7.1,5.7-10.3c8.6-13.2,21.1-23.4,34.8-29.5l1.3-0.6l1.3-0.5
			c0.9-0.3,1.7-0.7,2.6-1c1.8-0.6,3.5-1.2,5.3-1.7c3.5-1.1,7.1-1.7,10.7-2.3c1.8-0.2,3.6-0.5,5.4-0.6c0.9-0.1,1.8-0.1,2.7-0.2
			c0.9,0,1.8,0,2.7-0.1c0.5,0,0.9,0,1.3,0l1.3,0c0.9,0,1.7,0,2.6,0.1c1.7,0.1,3.5,0.2,5.2,0.4c6.8,0.8,13.4,2.4,19.4,4.7
			c6,2.3,11.6,5.3,16.5,8.6c9.9,6.8,17.3,15.1,22.5,23.3c5.3,8.2,8.2,16.2,10.1,22.8c1.8,6.7,2.4,12.1,2.6,15.8
			c0.2,1.8,0.1,3.3,0.2,4.2C452.1,247,452.1,247.5,452.1,247.5z M451.9,247.5c0,0,0-0.5,0-1.4c0-1,0-2.4-0.2-4.2
			c-0.3-3.7-0.9-9.1-2.8-15.8c-0.9-3.3-2.2-6.9-3.9-10.7c-1.7-3.8-3.9-7.7-6.5-11.7c-5.3-7.9-12.9-15.9-22.7-22.4
			c-9.8-6.4-21.9-11.2-35.3-12.7c-1.7-0.2-3.3-0.3-5-0.4c-0.9,0-1.7,0-2.6-0.1l-1.3,0l-1.3,0c-0.9,0-1.7,0-2.6,0.1
			c-0.9,0-1.7,0.1-2.6,0.2c-1.7,0.1-3.5,0.4-5.2,0.6c-3.5,0.6-7,1.2-10.4,2.3c-1.7,0.5-3.4,1.1-5.2,1.6c-0.8,0.3-1.7,0.7-2.5,1
			l-1.3,0.5l-1.2,0.6c-13.4,5.8-25.6,15.8-34.1,28.6c-2.2,3.2-4.1,6.6-5.8,10c-1.7,3.5-3.1,7.1-4.3,10.9c-1.2,3.7-2,7.6-2.6,11.4
			c-0.6,3.9-0.9,7.8-0.9,11.7c0,3.9,0.2,7.8,0.8,11.7c0.6,3.9,1.4,7.7,2.5,11.5c1.2,3.7,2.5,7.4,4.2,10.9c1.7,3.5,3.6,6.9,5.7,10.2
			c8.6,12.9,20.9,23,34.4,28.8l1.3,0.6l1.3,0.5c0.9,0.3,1.7,0.6,2.6,1c1.7,0.6,3.4,1.2,5.2,1.6c3.5,1,7,1.7,10.5,2.2
			c1.8,0.2,3.5,0.5,5.2,0.5c0.9,0.1,1.7,0.1,2.6,0.2c0.9,0,1.8,0,2.6,0c1.7,0.1,3.4-0.1,5.1-0.1c1.7-0.1,3.4-0.2,5.1-0.4
			c13.4-1.6,25.5-6.4,35.3-12.8c9.8-6.5,17.4-14.5,22.7-22.4c2.7-4,4.8-7.9,6.5-11.7c1.7-3.8,3-7.4,3.9-10.7
			c1.9-6.6,2.5-12.1,2.8-15.8c0.2-1.8,0.2-3.3,0.2-4.2C451.9,248,451.9,247.5,451.9,247.5z"/>
	</g>
	<g>
		<path d="M590.5,280.2c0,0,0,0.4,0,1.3c0,0.8,0,2.1-0.1,3.7c-0.2,3.3-0.7,8-2.3,13.9c-1.6,5.8-4.2,12.9-8.8,20.1
			c-4.6,7.1-11.1,14.5-19.8,20.5c-4.4,2.9-9.2,5.5-14.5,7.6c-5.3,2.1-11.1,3.4-17.1,4.1c-1.5,0.2-3,0.2-4.5,0.4
			c-1.5,0-3.1,0.1-4.6,0c-0.8,0-1.5-0.1-2.3-0.1c-0.8,0-1.6-0.1-2.3-0.2c-1.6-0.1-3.1-0.4-4.7-0.6c-3.1-0.5-6.3-1.2-9.3-2.1
			c-1.6-0.4-3.1-1-4.6-1.5c-0.8-0.3-1.5-0.6-2.3-0.9c-0.8-0.3-1.5-0.6-2.2-1c-11.9-5.4-22.7-14.4-30.3-25.9
			c-7.7-11.4-12-25.3-12.1-39.3c0-3.4,0.2-7,0.7-10.5c0.5-3.5,1.2-6.9,2.2-10.3c1-3.3,2.2-6.6,3.7-9.8c1.5-3.1,3.1-6.2,5.1-9.1
			c7.6-11.6,18.5-20.6,30.6-26c0.7-0.4,1.5-0.7,2.3-1c0.8-0.3,1.5-0.6,2.3-0.9c1.6-0.5,3.1-1.1,4.7-1.5c3.1-0.9,6.3-1.5,9.4-2
			c1.6-0.2,3.1-0.4,4.7-0.5c0.8-0.1,1.6-0.1,2.3-0.2c0.8,0,1.6,0,2.3-0.1l1.2,0l1.1,0c0.8,0,1.5,0,2.3,0.1c1.5,0.1,3.1,0.2,4.6,0.4
			c6,0.7,11.8,2.1,17.1,4.1c5.3,2.1,10.2,4.7,14.5,7.6c8.7,6,15.2,13.3,19.8,20.5c4.6,7.2,7.2,14.2,8.8,20.1
			c1.6,5.9,2.1,10.7,2.3,13.9c0.1,1.6,0.1,2.9,0.1,3.7C590.5,279.8,590.5,280.2,590.5,280.2z M590.3,280.2c0,0,0-0.4,0-1.3
			c0-0.8,0-2.1-0.2-3.7c-0.2-3.2-0.8-8-2.4-13.8c-0.8-2.9-2-6.1-3.4-9.4c-1.5-3.3-3.4-6.8-5.7-10.3c-4.7-7-11.3-14-19.9-19.6
			c-8.6-5.6-19.2-9.8-30.9-11.1c-1.5-0.2-2.9-0.2-4.4-0.4c-0.8,0-1.5,0-2.3-0.1l-1.1,0l-1.1,0c-0.8,0-1.5,0-2.3,0.1
			c-0.8,0-1.5,0.1-2.3,0.2c-1.5,0.1-3,0.3-4.6,0.5c-3,0.5-6.1,1.1-9.1,2c-1.5,0.4-3,1-4.5,1.4l-2.2,0.9c-0.7,0.3-1.5,0.6-2.2,0.9
			c-11.8,5.1-22.4,13.9-29.9,25.1c-7.6,11.2-11.9,24.8-12,38.6c0,3.4,0.2,6.9,0.7,10.3c0.5,3.4,1.2,6.8,2.2,10.1
			c1,3.3,2.2,6.5,3.7,9.6c1.5,3.1,3.1,6.1,5,8.9c7.5,11.3,18.3,20.2,30.2,25.2c0.7,0.3,1.5,0.6,2.2,0.9l2.2,0.9c1.5,0.5,3,1,4.6,1.4
			c3,0.9,6.1,1.4,9.2,1.9c1.5,0.2,3.1,0.4,4.6,0.5c0.8,0,1.5,0.1,2.3,0.1c0.8,0,1.5,0,2.3,0c1.5,0.1,3-0.1,4.5-0.1
			c1.5-0.1,3-0.2,4.4-0.4c11.7-1.4,22.3-5.6,30.9-11.3c8.6-5.7,15.2-12.7,19.9-19.6c2.4-3.5,4.3-6.9,5.7-10.3
			c1.5-3.3,2.7-6.5,3.4-9.4c1.7-5.8,2.2-10.6,2.4-13.8c0.2-1.6,0.1-2.9,0.2-3.7C590.3,280.6,590.3,280.2,590.3,280.2z"/>
	</g>
	<g>
		<path d="M512.1,171.5c0,0,0,1-0.1,3c0,0.5,0,1-0.1,1.6c-0.1,0.6-0.2,1.2-0.3,2c-0.1,0.7-0.2,1.5-0.4,2.3c-0.2,0.8-0.4,1.6-0.6,2.5
			c-1,3.5-2.4,7.8-5.2,12.1c-2.7,4.3-6.6,8.8-11.8,12.5c-5.2,3.6-11.9,6.3-19.1,7.1c-0.9,0.1-1.8,0.1-2.8,0.2l-1.4,0.1l-0.7,0
			c-0.3,0-0.5,0-0.7,0c-1.8-0.1-3.7-0.2-5.6-0.6c-3.8-0.5-7.5-1.8-11.2-3.4c-0.9-0.4-1.8-0.9-2.7-1.3c-0.9-0.5-1.7-1-2.6-1.6
			l-1.3-0.8l-1.2-0.9c-0.8-0.6-1.6-1.2-2.4-1.9c-3.1-2.6-5.8-5.8-8.1-9.2c-2.3-3.4-4.1-7.3-5.4-11.2c-1.3-4-1.9-8.2-2-12.5
			c0-4.1,0.5-8.4,1.7-12.5c1.2-4,3-7.9,5.3-11.4c2.3-3.5,5.1-6.6,8.2-9.3c0.8-0.7,1.6-1.3,2.4-1.9c0.4-0.3,0.8-0.6,1.2-0.9l1.3-0.8
			c0.9-0.5,1.7-1.1,2.6-1.6c0.9-0.4,1.8-0.9,2.7-1.3c3.7-1.6,7.5-2.8,11.3-3.3c1.9-0.4,3.8-0.4,5.7-0.5c0.3,0,0.4,0,0.8,0l0.7,0
			l1.4,0.1c0.9,0.1,1.8,0,2.7,0.2c7.4,0.9,13.9,3.6,19.2,7.2c5.3,3.6,9.1,8.2,11.8,12.5c2.8,4.3,4.2,8.6,5.2,12.1
			c0.2,0.9,0.4,1.7,0.6,2.5c0.2,0.8,0.2,1.6,0.3,2.3c0.1,0.7,0.2,1.4,0.3,2c0.1,0.6,0.1,1.1,0.1,1.6
			C512.1,170.5,512.1,171.5,512.1,171.5L512.1,171.5z M511.9,171.5c0,0-0.1-1-0.2-3c0-0.5,0-1-0.1-1.6c-0.1-0.6-0.2-1.2-0.3-1.9
			c-0.1-0.7-0.2-1.5-0.4-2.2c-0.2-0.8-0.4-1.6-0.7-2.5c-1-3.5-2.7-7.6-5.6-11.8c-2.9-4.1-6.9-8.3-12-11.6
			c-5.1-3.3-11.5-5.7-18.4-6.5c-0.9-0.1-1.8-0.1-2.7-0.2l-1.4-0.1l-0.7,0l-0.6,0c-1.8,0.1-3.6,0.1-5.4,0.5
			c-3.7,0.4-7.2,1.6-10.8,3.1c-0.9,0.4-1.7,0.8-2.6,1.2c-0.9,0.4-1.7,1-2.5,1.5l-1.3,0.7l-1.2,0.9c-0.8,0.6-1.6,1.1-2.3,1.8
			c-3,2.5-5.7,5.5-8,8.8c-2.3,3.3-4,7-5.3,10.9c-1.2,3.9-1.8,7.9-2,12.1c0,4.1,0.5,8.2,1.6,12.2c1.2,3.9,2.9,7.7,5.2,11.1
			c2.3,3.4,5,6.4,8.1,9c0.8,0.6,1.6,1.2,2.4,1.8c0.4,0.3,0.8,0.6,1.2,0.9l1.3,0.7c0.9,0.5,1.7,1,2.6,1.4c0.9,0.4,1.8,0.8,2.6,1.2
			c3.6,1.4,7.3,2.6,10.9,2.9c1.8,0.3,3.7,0.3,5.5,0.4c0.2,0,0.5,0,0.6,0l0.7,0l1.3-0.1c0.9-0.1,1.8-0.1,2.6-0.2
			c7-0.9,13.3-3.4,18.5-6.7c5.2-3.3,9.2-7.5,12-11.6c2.9-4.1,4.6-8.3,5.6-11.8c0.2-0.9,0.5-1.7,0.7-2.5c0.2-0.8,0.3-1.5,0.4-2.2
			c0.1-0.7,0.2-1.3,0.3-1.9c0.1-0.6,0.1-1.1,0.1-1.6C511.8,172.5,511.9,171.5,511.9,171.5L511.9,171.5z"/>
	</g>
	<g>
		<path d="M428.1,151c0,0,0,0.5-0.1,1.6c0,0.5-0.1,1.1-0.2,1.9c-0.1,0.4-0.1,0.8-0.2,1.2c-0.1,0.4-0.2,0.9-0.3,1.3
			c-0.5,1.8-1.2,4.1-2.6,6.4c-1.4,2.3-3.4,4.7-6.1,6.7c-2.7,1.9-6.2,3.3-10.1,3.8c-0.5,0.1-1,0-1.5,0.1c-0.5,0-0.9,0.1-1.5,0
			c-1-0.1-1.9-0.1-2.9-0.3c-2-0.3-4-1-5.8-1.9c-1.9-0.9-3.6-2.1-5.2-3.5c-1.6-1.4-3-3-4.2-4.8c-1.2-1.8-2.1-3.8-2.8-5.8
			c-0.7-2.1-1-4.2-1.1-6.5c0-2.1,0.2-4.4,0.8-6.6c0.6-2.1,1.5-4.2,2.7-6.1c1.2-1.8,2.7-3.5,4.3-4.9c1.7-1.4,3.5-2.6,5.4-3.5
			c1.9-0.9,3.9-1.5,6-1.7c1-0.2,2-0.2,3-0.3c0.1,0,0.2,0,0.4,0l0.4,0l0.7,0c0.5,0,0.9,0,1.4,0.1c4,0.5,7.4,1.9,10.1,3.9
			c2.7,2,4.7,4.4,6.1,6.7c1.4,2.3,2.1,4.6,2.6,6.4c0.1,0.5,0.2,0.9,0.3,1.3c0.1,0.4,0.1,0.8,0.2,1.2c0.1,0.7,0.2,1.4,0.2,1.9
			C428.1,150.5,428.1,151,428.1,151L428.1,151z M427.9,151c0,0,0-0.5-0.1-1.5c0-0.5-0.1-1.1-0.2-1.8c-0.1-0.4-0.1-0.7-0.2-1.2
			c-0.1-0.4-0.2-0.8-0.4-1.3c-0.5-1.8-1.5-3.9-3-6c-1.5-2.1-3.6-4.2-6.3-5.8c-2.6-1.6-5.9-2.8-9.3-3.2c-3.6-0.4-7.3,0.1-10.9,1.7
			c-1.8,0.7-3.4,1.8-5,3c-1.5,1.3-2.9,2.8-4.1,4.4c-1.2,1.7-2.1,3.6-2.7,5.5c-0.7,2-1,4-1.1,6.2c0,2.1,0.2,4.2,0.8,6.2
			c0.6,2,1.5,4,2.6,5.7c1.2,1.7,2.6,3.3,4.2,4.6c1.6,1.3,3.4,2.3,5.2,3c1.8,0.7,3.7,1.2,5.6,1.4c0.9,0.2,1.9,0.1,2.8,0.1
			c0.4,0,0.9,0,1.3-0.1c0.4,0,0.9,0,1.3-0.1c3.5-0.5,6.7-1.7,9.4-3.3c2.7-1.7,4.7-3.7,6.3-5.8c1.5-2.1,2.4-4.2,3-6
			c0.1-0.5,0.2-0.9,0.4-1.3c0.1-0.4,0.1-0.8,0.2-1.2c0.1-0.7,0.2-1.3,0.2-1.8C427.9,151.5,427.9,151,427.9,151L427.9,151z"/>
	</g>
	<g>
		<path d="M492.2,384.1c0,0,0,0.4,0,1.2c0,0.8,0,1.9-0.1,3.4c-0.2,3-0.6,7.4-2.1,12.8c-1.5,5.4-3.9,11.9-8.1,18.5
			c-4.2,6.6-10.2,13.4-18.2,18.9c-4,2.7-8.5,5.1-13.4,7c-4.9,1.9-10.2,3.1-15.7,3.7c-11.1,1.3-23-0.5-34-5.5
			c-11-5-20.9-13.3-27.9-23.8c-7-10.5-11-23.3-11.1-36.1c0-3.2,0.2-6.4,0.6-9.6c0.5-3.2,1.1-6.4,2-9.4c1.8-6.2,4.6-12,8-17.4
			c7-10.7,17-19,28.1-24c2.8-1.2,5.6-2.3,8.5-3.1c2.9-0.9,5.8-1.4,8.7-1.9c1.5-0.2,2.9-0.4,4.3-0.5c0.7,0,1.4-0.1,2.2-0.1
			c0.7,0,1.4,0,2.2-0.1l1.1,0l1.1,0c0.7,0,1.4,0,2.1,0.1c1.4,0.1,2.8,0.2,4.2,0.4c5.5,0.7,10.9,1.9,15.7,3.8c4.9,1.9,9.4,4.3,13.4,7
			c8,5.5,14,12.3,18.2,18.9c4.2,6.6,6.6,13.1,8.1,18.5c1.5,5.4,1.9,9.8,2.1,12.8c0.1,1.5,0.1,2.6,0.1,3.4
			C492.2,383.7,492.2,384.1,492.2,384.1z M492,384.1c0,0,0-0.4,0-1.2c0-0.8,0-1.9-0.2-3.4c-0.2-3-0.7-7.4-2.2-12.7
			c-0.7-2.7-1.8-5.6-3.2-8.6c-1.4-3.1-3.1-6.2-5.3-9.4c-4.3-6.4-10.4-12.8-18.4-18c-7.9-5.2-17.7-9-28.4-10.2
			c-1.3-0.2-2.7-0.2-4-0.3c-0.7,0-1.4,0-2.1,0l-1.1,0l-1,0c-0.7,0-1.4,0-2.1,0.1c-0.7,0-1.4,0.1-2.1,0.1c-1.4,0.1-2.8,0.3-4.2,0.5
			c-2.8,0.4-5.6,1-8.4,1.8c-1.4,0.4-2.8,0.9-4.2,1.3c-1.4,0.5-2.7,1-4.1,1.6c-10.8,4.7-20.6,12.7-27.5,23c-7,10.3-10.9,22.8-11,35.5
			c0,3.2,0.2,6.3,0.6,9.5c0.5,3.1,1.1,6.2,2,9.3c1.8,6.1,4.5,11.8,8,17c6.9,10.4,16.9,18.5,27.8,23.2c1.3,0.6,2.8,1.1,4.1,1.6
			c1.4,0.4,2.8,0.9,4.2,1.3c2.8,0.8,5.6,1.3,8.5,1.7c1.4,0.2,2.8,0.4,4.2,0.4c0.7,0,1.4,0.1,2.1,0.1c0.7,0,1.4,0,2.1,0
			c1.4,0.1,2.8-0.1,4.1-0.1c1.4-0.1,2.7-0.2,4.1-0.4c10.8-1.3,20.5-5.1,28.4-10.3c7.9-5.2,14-11.6,18.3-18c2.2-3.2,3.9-6.4,5.3-9.4
			c1.4-3.1,2.5-6,3.2-8.7c1.5-5.4,2-9.7,2.2-12.7c0.1-1.5,0.1-2.6,0.2-3.4C492,384.5,492,384.1,492,384.1z"/>
	</g>
	<g>
		<path d="M380.7,152.6c0,0,0,0.3,0,0.8c0,0.3,0,0.6-0.1,1c0,0.4-0.1,0.9-0.2,1.4c-0.3,1-0.6,2.3-1.3,3.6c-0.7,1.3-1.8,2.7-3.3,3.8
			c-1.5,1.1-3.5,1.9-5.7,2.2c-0.6,0-1.1,0.1-1.7,0c-0.5-0.1-1-0.1-1.6-0.2c-1.2-0.2-2.2-0.6-3.2-1.1c-2-1.1-3.8-2.7-5.2-4.7
			c-1.3-2-2.2-4.3-2.3-6.8c0-1.2,0.1-2.5,0.3-3.7c0.3-1.2,0.8-2.4,1.5-3.4c0.7-1,1.5-2,2.4-2.8c0.9-0.8,2-1.5,3-2
			c1.1-0.5,2.2-0.9,3.4-1c0.6-0.1,1.1-0.1,1.7-0.1c0.1,0,0.1,0,0.3,0l0.2,0l0.4,0c0.3,0,0.5,0,0.8,0.1c2.3,0.3,4.2,1.1,5.7,2.3
			c1.5,1.2,2.6,2.6,3.3,3.9c0.7,1.3,1.1,2.6,1.3,3.6c0.1,0.5,0.2,1,0.2,1.4c0.1,0.4,0.1,0.7,0.1,1
			C380.7,152.3,380.7,152.6,380.7,152.6L380.7,152.6z M380.5,152.6c0,0,0-0.3-0.1-0.8c0-0.3-0.1-0.6-0.1-1c0-0.4-0.2-0.8-0.3-1.3
			c-0.3-1-0.8-2.1-1.7-3.2c-0.9-1.1-2-2.1-3.5-3c-1.4-0.8-3.2-1.4-4.9-1.6c-1.9-0.2-3.8,0.1-5.7,0.9c-0.9,0.4-1.8,0.9-2.6,1.6
			c-0.8,0.7-1.5,1.4-2.2,2.3c-0.6,0.9-1.1,1.9-1.5,2.9c-0.4,1-0.6,2.1-0.7,3.3c0,1.1,0.1,2.3,0.3,3.4c0.3,1.1,0.8,2.1,1.4,3.1
			c0.6,0.9,1.4,1.8,2.3,2.5c0.9,0.7,1.8,1.2,2.8,1.6c1,0.3,2,0.6,3,0.7c0.5,0.1,1,0,1.5,0c0.4,0,0.9-0.1,1.4-0.1
			c1.9-0.3,3.5-0.9,5-1.7c1.4-0.8,2.6-1.9,3.5-3c0.9-1.1,1.4-2.2,1.7-3.2c0.2-0.5,0.3-0.9,0.3-1.3c0.1-0.4,0.1-0.7,0.1-1
			C380.5,152.9,380.5,152.6,380.5,152.6L380.5,152.6z"/>
	</g>
	<g>
		<path d="M589.7,400.9c0,0-0.1,1.2-0.2,3.4c0,0.6,0,1.2-0.1,1.9c-0.1,0.7-0.2,1.4-0.3,2.2c-0.1,0.8-0.2,1.7-0.4,2.6
			c-0.2,0.9-0.5,1.9-0.7,2.9c-1.1,4-2.7,8.9-5.9,13.8c-3.1,4.9-7.5,10-13.5,14.1c-6,4.1-13.5,7.1-21.7,8c-1,0.2-2.1,0.1-3.1,0.2
			c-0.5,0-1.1,0-1.6,0.1l-0.8,0c-0.3,0-0.5,0-0.8,0c-2.1-0.2-4.2-0.2-6.4-0.6c-4.4-0.6-8.6-2-12.7-3.8c-1-0.5-2-1-3-1.5
			c-1-0.5-1.9-1.2-2.9-1.8l-1.4-0.9l-1.4-1c-0.9-0.7-1.9-1.4-2.7-2.1c-3.5-3-6.6-6.6-9.2-10.4c-2.6-3.9-4.6-8.2-6.1-12.8
			c-1.4-4.6-2.1-9.3-2.3-14.1l0.1-3.6c0-0.6,0-1.2,0.1-1.8l0.2-1.8l0.2-1.8l0.1-0.9l0.2-0.9l0.8-3.5c1.4-4.6,3.4-9,6-13
			c2.7-3.9,5.8-7.5,9.3-10.5c0.9-0.8,1.8-1.4,2.8-2.1c0.5-0.3,0.9-0.7,1.4-1l1.5-0.9c1-0.6,1.9-1.2,3-1.8c1-0.5,2.1-1,3.1-1.5
			c4.2-1.8,8.5-3.2,12.8-3.7c2.2-0.4,4.3-0.4,6.5-0.5c0.3,0,0.5,0,0.8,0l0.8,0l1.6,0.1c1,0.1,2,0.1,3.1,0.2c1,0.2,2.1,0.3,3.1,0.5
			c0.5,0.1,1,0.1,1.5,0.3c0.5,0.1,1,0.3,1.5,0.4c1,0.3,1.9,0.5,2.9,0.8c0.9,0.3,1.9,0.7,2.8,1c1.9,0.6,3.5,1.6,5.2,2.4
			c0.9,0.4,1.6,0.9,2.4,1.4c0.8,0.5,1.6,1,2.3,1.5c6,4.1,10.4,9.2,13.5,14.1c3.2,4.9,4.8,9.8,5.9,13.8c0.2,1,0.5,2,0.7,2.9
			c0.2,0.9,0.3,1.8,0.4,2.6c0.1,0.8,0.2,1.5,0.3,2.2c0.1,0.7,0.1,1.3,0.1,1.9C589.6,399.7,589.7,400.9,589.7,400.9L589.7,400.9z
			 M589.5,400.9c0,0-0.1-1.2-0.2-3.4c0-0.6,0-1.2-0.1-1.8c-0.1-0.7-0.2-1.4-0.3-2.2c-0.1-0.8-0.2-1.7-0.4-2.5
			c-0.2-0.9-0.5-1.8-0.8-2.8c-1.2-3.9-3-8.7-6.3-13.4c-3.2-4.7-7.8-9.4-13.6-13.3c-5.9-3.8-13.1-6.5-21-7.5c-1-0.2-2-0.1-3-0.2
			l-1.6-0.1l-0.8,0l-0.7,0c-2,0.1-4.1,0.1-6.2,0.5c-4.2,0.5-8.3,1.9-12.3,3.5c-1,0.5-2,0.9-3,1.4c-1,0.5-1.9,1.1-2.9,1.7l-1.4,0.9
			c-0.5,0.3-0.9,0.7-1.3,1c-0.9,0.7-1.8,1.3-2.7,2c-3.4,2.9-6.5,6.3-9.1,10c-2.6,3.8-4.5,8-6,12.4c-1.4,4.4-2.1,9.1-2.2,13.8
			c0.1,4.7,0.6,9.4,1.9,13.9c1.4,4.5,3.3,8.8,5.9,12.6c2.6,3.8,5.7,7.3,9.2,10.2c0.9,0.7,1.8,1.4,2.7,2c0.5,0.3,0.9,0.7,1.4,1
			l1.5,0.9c1,0.5,1.9,1.2,2.9,1.6c1,0.5,2,0.9,3,1.4c4.1,1.6,8.2,2.9,12.4,3.4c2,0.4,4.2,0.3,6.3,0.4c0.2,0,0.6,0,0.7,0l0.8,0
			l1.5-0.1c1-0.1,2-0.1,3-0.2c7.9-1,15.1-3.9,21-7.6c5.9-3.8,10.4-8.6,13.6-13.3c3.3-4.7,5.2-9.4,6.3-13.4c0.3-1,0.5-1.9,0.8-2.8
			c0.2-0.9,0.3-1.8,0.4-2.5c0.1-0.8,0.2-1.5,0.3-2.2c0.1-0.7,0.1-1.3,0.1-1.9C589.4,402.1,589.5,400.9,589.5,400.9L589.5,400.9z"/>
	</g>
	<g>
		<path d="M635.5,347.9c0,0,0,0.8-0.1,2.3c0,0.4,0,0.8-0.1,1.2c-0.1,0.5-0.1,1-0.2,1.5c-0.1,0.5-0.1,1.1-0.3,1.7
			c-0.1,0.6-0.3,1.3-0.5,1.9c-0.7,2.7-1.8,6-3.9,9.3c-2.1,3.3-5,6.8-9,9.6c-4,2.8-9.1,4.8-14.7,5.5c-0.7,0.1-1.4,0.1-2.1,0.1
			c-0.7,0-1.4,0.1-2.2,0c-1.4-0.1-2.8-0.1-4.3-0.5c-3-0.4-5.8-1.4-8.6-2.7c-2.8-1.3-5.3-3.1-7.7-5c-2.4-2-4.4-4.4-6.2-7
			c-1.8-2.6-3.1-5.6-4.1-8.6c-1-3.1-1.5-6.3-1.6-9.6c0-3.1,0.4-6.5,1.2-9.6c1-3.1,2.3-6.1,4-8.8c1.8-2.7,3.9-5.1,6.3-7.2
			c2.5-2,5.1-3.8,7.9-5c2.8-1.2,5.8-2.2,8.7-2.5c1.5-0.3,2.9-0.3,4.4-0.4c0.2,0,0.3,0,0.6,0l0.5,0l1,0.1c0.7,0.1,1.4,0,2.1,0.2
			c5.7,0.7,10.7,2.8,14.8,5.6c4,2.8,7,6.3,9,9.7c2.1,3.3,3.2,6.6,3.9,9.3c0.2,0.7,0.3,1.3,0.5,1.9c0.1,0.6,0.2,1.2,0.3,1.7
			c0.1,0.5,0.2,1,0.2,1.5c0.1,0.5,0.1,0.9,0.1,1.3C635.4,347.1,635.5,347.9,635.5,347.9L635.5,347.9z M635.3,347.9
			c0,0,0-0.8-0.1-2.3c0-0.4,0-0.8-0.1-1.2c-0.1-0.5-0.2-0.9-0.2-1.5c-0.1-0.5-0.2-1.1-0.3-1.7c-0.2-0.6-0.3-1.2-0.5-1.9
			c-0.8-2.7-2.1-5.8-4.3-8.9c-2.2-3.1-5.3-6.3-9.2-8.8c-3.9-2.5-8.8-4.3-14-4.9c-0.6-0.1-1.4-0.1-2-0.1l-1,0l-0.5,0l-0.5,0
			c-1.4,0.1-2.7,0.1-4.1,0.3c-2.8,0.3-5.5,1.2-8.2,2.3c-2.7,1.1-5.2,2.7-7.5,4.6c-2.3,1.9-4.3,4.2-6.1,6.7c-1.7,2.5-3.1,5.3-4,8.3
			c-1,3-1.4,6-1.6,9.2c0,3.1,0.4,6.3,1.2,9.3c0.9,3,2.2,5.9,3.9,8.5c1.8,2.6,3.8,4.9,6.2,6.8c2.4,1.9,5,3.5,7.7,4.6
			c2.7,1.1,5.5,1.9,8.3,2.2c1.3,0.2,2.8,0.2,4.2,0.3c0.6,0.1,1.3-0.1,2-0.1c0.7-0.1,1.4,0,2-0.2c5.3-0.7,10.1-2.6,14-5
			c3.9-2.5,7-5.7,9.2-8.8c2.2-3.1,3.5-6.3,4.3-9c0.2-0.7,0.4-1.3,0.5-1.9c0.1-0.6,0.2-1.2,0.3-1.7c0.1-0.5,0.2-1,0.2-1.5
			c0.1-0.5,0.1-0.9,0.1-1.2C635.2,348.7,635.3,347.9,635.3,347.9L635.3,347.9z"/>
	</g>
	<g>
		<path d="M644.7,289.3c0,0,0,0.6-0.1,1.8c0,0.6-0.1,1.3-0.2,2.2c-0.1,0.4-0.1,0.9-0.2,1.4c-0.1,0.5-0.2,1-0.4,1.6
			c-0.6,2.2-1.4,4.8-3.1,7.5c-1.7,2.7-4,5.5-7.3,7.8c-3.2,2.3-7.4,3.9-11.9,4.4c-0.6,0.1-1.1,0.1-1.7,0.1c-0.6,0-1.1,0.1-1.8,0
			c-1.1-0.1-2.3-0.1-3.5-0.4c-2.4-0.4-4.7-1.2-6.9-2.2c-2.2-1-4.3-2.5-6.2-4.1c-1.9-1.7-3.6-3.6-5-5.7c-1.4-2.1-2.5-4.5-3.3-6.9
			c-0.8-2.5-1.2-5.1-1.3-7.7c0.1-1.3,0-2.6,0.2-3.9c0.1-1.3,0.4-2.6,0.7-3.9c0.8-2.5,1.8-4.9,3.2-7.1c1.4-2.2,3.2-4.1,5.1-5.8
			c2-1.6,4.1-3,6.4-4.1c2.3-1,4.7-1.8,7-2.1c1.2-0.2,2.4-0.2,3.6-0.3c0.2,0,0.2,0,0.5,0l0.4,0l0.8,0c0.6,0,1.1,0,1.7,0.1
			c4.6,0.6,8.7,2.3,12,4.6c3.2,2.3,5.6,5.2,7.2,7.9c1.7,2.7,2.5,5.4,3.1,7.5c0.1,0.5,0.3,1.1,0.4,1.6c0.1,0.5,0.1,1,0.2,1.4
			c0.1,0.9,0.2,1.6,0.2,2.2C644.7,288.6,644.7,289.3,644.7,289.3L644.7,289.3z M644.5,289.3c0,0,0-0.6-0.1-1.8
			c0-0.6-0.1-1.3-0.3-2.2c-0.1-0.4-0.1-0.9-0.2-1.4c-0.1-0.5-0.3-1-0.4-1.5c-0.6-2.1-1.7-4.6-3.5-7.1c-1.8-2.5-4.3-5-7.4-7
			c-3.1-1.9-7-3.4-11.2-3.9c-4.3-0.4-8.8,0.2-13,2c-2.1,0.9-4.1,2.2-6,3.6c-1.8,1.5-3.5,3.3-4.9,5.3c-1.4,2-2.5,4.3-3.3,6.6
			c-0.8,2.4-1.2,4.8-1.3,7.4c0,2.5,0.3,5,0.9,7.5c0.7,2.4,1.8,4.7,3.1,6.8c1.4,2.1,3.1,3.9,5,5.5c1.9,1.5,4,2.8,6.2,3.6
			c2.2,0.8,4.4,1.5,6.6,1.7c1.1,0.2,2.2,0.1,3.4,0.2c0.5,0,1.1-0.1,1.6-0.1c0.5,0,1.1,0,1.6-0.1c4.2-0.5,8-2,11.2-4
			c3.2-2,5.6-4.5,7.4-7c1.8-2.5,2.9-5,3.5-7.2c0.1-0.5,0.3-1,0.4-1.5c0.1-0.5,0.2-0.9,0.2-1.4c0.1-0.9,0.3-1.6,0.3-2.2
			C644.5,289.9,644.5,289.3,644.5,289.3L644.5,289.3z"/>
	</g>
	<g>
		<path d="M633.5,239c0,0,0,0.6-0.1,1.7c0,0.6-0.1,1.2-0.2,2c-0.1,0.4-0.1,0.8-0.2,1.3c-0.1,0.5-0.2,0.9-0.3,1.4
			c-0.5,2-1.3,4.5-2.9,7c-1.5,2.5-3.7,5.1-6.7,7.3c-3,2.1-6.8,3.6-11,4.1c-0.5,0.1-1.1,0.1-1.6,0.1c-0.5,0-1,0.1-1.6,0
			c-1-0.1-2.1-0.1-3.2-0.4c-2.2-0.3-4.3-1.1-6.4-2c-2.1-1-3.9-2.3-5.7-3.8c-1.7-1.5-3.3-3.3-4.6-5.2c-1.3-2-2.3-4.1-3.1-6.4
			c-0.7-2.3-1.1-4.6-1.2-7.1c0-2.3,0.2-4.8,0.9-7.2c0.7-2.3,1.7-4.6,3-6.6c1.3-2,2.9-3.8,4.7-5.4c1.8-1.5,3.8-2.8,5.9-3.8
			c2.1-0.9,4.3-1.6,6.5-1.9c1.1-0.2,2.2-0.2,3.3-0.3c0.2,0,0.2,0,0.5,0l0.4,0l0.8,0c0.5,0,1,0,1.5,0.1c4.3,0.5,8.1,2.1,11.1,4.2
			c3,2.1,5.2,4.8,6.7,7.3c1.6,2.5,2.3,5,2.9,7c0.1,0.5,0.2,1,0.3,1.4c0.1,0.5,0.1,0.9,0.2,1.3c0.1,0.8,0.2,1.5,0.2,2
			C633.4,238.5,633.5,239,633.5,239L633.5,239z M633.3,239c0,0,0-0.6-0.1-1.7c0-0.6-0.1-1.2-0.2-2c-0.1-0.4-0.1-0.8-0.2-1.3
			c-0.1-0.4-0.3-0.9-0.4-1.4c-0.6-2-1.6-4.3-3.3-6.6c-1.6-2.3-3.9-4.6-6.9-6.4c-2.9-1.8-6.5-3.1-10.3-3.6c-4-0.4-8.1,0.1-12,1.8
			c-2,0.8-3.8,2-5.5,3.3c-1.7,1.4-3.2,3.1-4.5,4.9c-1.3,1.9-2.3,3.9-3,6.1c-0.7,2.2-1.1,4.4-1.2,6.8c0,2.3,0.2,4.6,0.8,6.8
			c0.7,2.2,1.6,4.3,2.9,6.3c1.3,1.9,2.8,3.6,4.6,5c1.8,1.4,3.7,2.5,5.7,3.3c2,0.8,4.1,1.4,6.1,1.6c1,0.2,2.1,0.1,3.1,0.2
			c0.4,0,1,0,1.5-0.1c0.5,0,1,0,1.5-0.1c3.9-0.5,7.4-1.9,10.3-3.7c2.9-1.8,5.2-4.1,6.8-6.4c1.7-2.3,2.7-4.6,3.2-6.6
			c0.1-0.5,0.3-1,0.4-1.4c0.1-0.4,0.2-0.9,0.2-1.3c0.1-0.8,0.2-1.5,0.2-2C633.2,239.6,633.3,239,633.3,239L633.3,239z"/>
	</g>
	<g>
		<path d="M600.6,200.3c0,0,0,0.6-0.1,1.7c0,0.6-0.1,1.2-0.2,2c-0.1,0.4-0.1,0.8-0.2,1.3c-0.1,0.5-0.2,0.9-0.3,1.4
			c-0.5,2-1.3,4.5-2.9,7c-1.5,2.5-3.7,5.1-6.7,7.3c-3,2.1-6.8,3.7-11,4.1c-0.5,0.1-1.1,0.1-1.6,0.1c-0.5,0-1,0.1-1.6,0
			c-1-0.1-2.1-0.1-3.2-0.4c-2.2-0.3-4.3-1.1-6.4-2c-2.1-1-4-2.3-5.7-3.8c-1.7-1.5-3.3-3.3-4.6-5.3c-1.3-2-2.3-4.1-3.1-6.4
			c-0.7-2.3-1.1-4.7-1.2-7.1c0.1-1.2,0-2.4,0.2-3.6c0.1-1.2,0.4-2.4,0.7-3.6c0.7-2.3,1.7-4.6,3-6.6c1.3-2,2.9-3.8,4.7-5.4
			c1.8-1.5,3.8-2.8,5.9-3.8c2.1-0.9,4.3-1.6,6.5-1.9c1.1-0.2,2.2-0.2,3.3-0.3c0.2,0,0.2,0,0.5,0l0.4,0l0.8,0c0.5,0,1,0,1.5,0.1
			c4.3,0.5,8.1,2.1,11.1,4.2c3,2.2,5.2,4.8,6.7,7.3c1.6,2.5,2.3,5,2.9,7c0.1,0.5,0.2,1,0.3,1.4c0.1,0.5,0.1,0.9,0.2,1.3
			c0.1,0.8,0.2,1.5,0.2,2C600.5,199.7,600.6,200.3,600.6,200.3L600.6,200.3z M600.4,200.3c0,0,0-0.6-0.1-1.7c0-0.6-0.1-1.2-0.2-2
			c-0.1-0.4-0.1-0.8-0.2-1.3c-0.1-0.4-0.3-0.9-0.4-1.4c-0.6-2-1.6-4.3-3.3-6.6c-1.6-2.3-3.9-4.6-6.9-6.4c-2.9-1.8-6.5-3.1-10.3-3.6
			c-4-0.4-8.1,0.1-12,1.8c-2,0.8-3.8,2-5.5,3.4c-1.7,1.4-3.2,3.1-4.5,4.9c-1.3,1.9-2.3,3.9-3,6.1c-0.7,2.2-1.1,4.4-1.2,6.8
			c0,2.3,0.2,4.6,0.8,6.9c0.7,2.2,1.6,4.4,2.9,6.3c1.3,1.9,2.8,3.6,4.6,5c1.8,1.4,3.7,2.5,5.7,3.3c2,0.8,4.1,1.4,6.1,1.6
			c1,0.2,2.1,0.1,3.1,0.2c0.4,0,1-0.1,1.5-0.1c0.5,0,1,0,1.5-0.1c3.9-0.5,7.4-1.9,10.3-3.7c2.9-1.8,5.2-4.1,6.9-6.4
			c1.7-2.3,2.7-4.6,3.3-6.6c0.1-0.5,0.3-1,0.4-1.4c0.1-0.4,0.2-0.9,0.2-1.3c0.1-0.8,0.2-1.5,0.2-2
			C600.3,200.9,600.4,200.3,600.4,200.3L600.4,200.3z"/>
	</g>
	<g>
		<path d="M551.6,189.5c0,0,0,0.5-0.1,1.4c0,0.5-0.1,1-0.2,1.7c-0.1,0.3-0.1,0.7-0.2,1.1c-0.1,0.4-0.2,0.8-0.3,1.2
			c-0.4,1.6-1,3.7-2.3,5.7c-1.2,2.1-3,4.3-5.5,6c-2.5,1.8-5.6,3-9.1,3.4c-0.4,0.1-0.9,0-1.3,0.1c-0.5,0-0.9,0.1-1.4,0
			c-0.9-0.1-1.7-0.1-2.6-0.3c-1.8-0.3-3.6-0.9-5.3-1.7c-1.7-0.8-3.2-1.9-4.7-3.1c-1.4-1.3-2.7-2.7-3.8-4.3c-1.1-1.6-1.9-3.4-2.6-5.3
			c-0.6-1.9-0.9-3.8-1-5.9c0-1.9,0.2-4,0.7-5.9c0.6-1.9,1.4-3.8,2.4-5.5c1.1-1.7,2.4-3.2,3.9-4.5c1.5-1.2,3.1-2.3,4.9-3.1
			c1.7-0.8,3.6-1.4,5.4-1.6c0.9-0.2,1.8-0.2,2.7-0.2c0.1,0,0.2,0,0.4,0l0.3,0l0.6,0c0.4,0,0.8,0,1.3,0.1c3.6,0.5,6.7,1.8,9.1,3.5
			c2.5,1.8,4.2,4,5.5,6.1c1.3,2.1,1.9,4.1,2.3,5.8c0.1,0.4,0.2,0.8,0.3,1.2c0.1,0.4,0.1,0.7,0.2,1.1c0.1,0.7,0.2,1.2,0.2,1.7
			C551.6,189,551.6,189.5,551.6,189.5L551.6,189.5z M551.4,189.5c0,0,0-0.5-0.1-1.4c0-0.5-0.1-1-0.2-1.6c-0.1-0.3-0.1-0.7-0.2-1
			c-0.1-0.4-0.2-0.7-0.3-1.1c-0.5-1.6-1.3-3.5-2.7-5.4c-1.4-1.9-3.3-3.7-5.6-5.2c-2.4-1.4-5.3-2.5-8.3-2.9c-3.2-0.3-6.6,0.1-9.8,1.5
			c-1.6,0.7-3.1,1.6-4.5,2.7c-1.4,1.1-2.6,2.5-3.7,4c-1,1.5-1.9,3.2-2.5,4.9c-0.6,1.8-0.9,3.6-1,5.5c0,1.8,0.2,3.8,0.7,5.6
			c0.5,1.8,1.3,3.6,2.3,5.1c1.1,1.5,2.3,3,3.7,4.1c1.5,1.1,3,2.1,4.7,2.7c1.6,0.6,3.4,1.1,5,1.2c0.8,0.1,1.7,0.1,2.5,0.1
			c0.8,0,1.6-0.1,2.4-0.2c3.2-0.4,6-1.5,8.4-3c2.4-1.5,4.3-3.3,5.6-5.2c1.4-1.9,2.2-3.8,2.7-5.4c0.1-0.4,0.2-0.8,0.3-1.1
			c0.1-0.4,0.1-0.7,0.2-1c0.1-0.6,0.2-1.2,0.2-1.7C551.4,190,551.4,189.5,551.4,189.5L551.4,189.5z"/>
	</g>
	<g>
		<path d="M359.7,354.8c0,0,0,0.8-0.1,2.3c0,0.4,0,0.8-0.1,1.3c-0.1,0.5-0.1,1-0.2,1.5c-0.1,0.5-0.1,1.1-0.3,1.8
			c-0.1,0.6-0.3,1.3-0.5,2c-0.7,2.7-1.8,6-4,9.4c-2.1,3.4-5.1,6.9-9.1,9.7c-4.1,2.8-9.2,4.9-14.8,5.5c-0.7,0.1-1.4,0.1-2.1,0.1
			c-0.7,0-1.4,0.1-2.2,0c-1.4-0.1-2.8-0.1-4.3-0.5c-3-0.4-5.8-1.4-8.6-2.7c-2.8-1.3-5.4-3.1-7.8-5.1c-2.4-2.1-4.5-4.5-6.3-7.1
			c-1.8-2.7-3.2-5.6-4.2-8.7c-1-3.1-1.5-6.3-1.6-9.6c0.1-1.7,0-3.2,0.3-4.9c0.1-0.8,0.2-1.7,0.4-2.4l0.6-2.4c1-3.1,2.3-6.2,4-8.9
			c1.8-2.7,3.9-5.2,6.4-7.2c2.5-2,5.1-3.8,8-5.1c2.8-1.2,5.8-2.2,8.8-2.6c1.5-0.3,3-0.3,4.4-0.4c0.2,0,0.3,0,0.6,0l0.5,0l1.1,0.1
			c0.7,0.1,1.4,0,2.1,0.2c5.8,0.7,10.8,2.8,14.9,5.6c4.1,2.9,7,6.4,9.1,9.8c2.1,3.4,3.2,6.7,4,9.4c0.2,0.7,0.3,1.3,0.5,2
			c0.1,0.6,0.2,1.2,0.3,1.7c0.1,0.5,0.2,1,0.2,1.5c0.1,0.5,0.1,0.9,0.1,1.3C359.7,354,359.7,354.8,359.7,354.8L359.7,354.8z
			 M359.5,354.8c0,0,0-0.8-0.1-2.3c0-0.4,0-0.8-0.1-1.3c-0.1-0.5-0.2-1-0.2-1.5c-0.1-0.5-0.2-1.1-0.3-1.7c-0.2-0.6-0.3-1.2-0.5-1.9
			c-0.8-2.7-2.1-5.9-4.4-9c-2.2-3.2-5.3-6.3-9.3-8.9c-4-2.5-8.9-4.4-14.1-5c-0.6-0.1-1.4-0.1-2.1-0.1l-1.1,0l-0.5,0l-0.5,0
			c-1.4,0.1-2.8,0.1-4.1,0.3c-2.8,0.3-5.6,1.2-8.2,2.3c-2.7,1.1-5.2,2.8-7.6,4.6c-2.3,1.9-4.4,4.2-6.1,6.7c-1.7,2.6-3.1,5.4-4.1,8.4
			c-1,3-1.4,6.1-1.6,9.3c0,3.2,0.4,6.3,1.2,9.4c0.9,3,2.3,5.9,4,8.6c1.8,2.6,3.9,4.9,6.2,6.9c2.4,1.9,5,3.5,7.8,4.6
			c2.7,1.1,5.6,1.9,8.4,2.2c1.4,0.2,2.8,0.2,4.2,0.3c0.6,0.1,1.4-0.1,2-0.1c0.7-0.1,1.4,0,2-0.2c5.4-0.7,10.2-2.6,14.2-5.1
			c4-2.5,7.1-5.7,9.3-8.9c2.2-3.2,3.6-6.4,4.4-9c0.2-0.7,0.4-1.3,0.5-1.9c0.1-0.6,0.2-1.2,0.3-1.7c0.1-0.5,0.2-1,0.2-1.5
			c0.1-0.5,0.1-0.9,0.1-1.3C359.5,355.6,359.5,354.8,359.5,354.8L359.5,354.8z"/>
	</g>
</g>
<g id="labels">
	<g>
		<rect x="341.3" y="240.1" class="st0" width="91.5" height="32.2"/>
		<path d="M343,255.2v-15.1h1.4V254h8.1v1.2H343z"/>
		<path d="M358.8,255.5c-0.7,0-1.4-0.1-2-0.4s-1.1-0.6-1.6-1.1s-0.8-1.1-1.1-1.8s-0.4-1.5-0.4-2.5c0-0.8,0.1-1.5,0.3-2.2
			c0.2-0.7,0.5-1.3,0.9-1.8c0.4-0.5,0.9-0.9,1.6-1.2c0.6-0.3,1.4-0.5,2.2-0.5c0.9,0,1.6,0.2,2.2,0.5c0.6,0.3,1.2,0.7,1.6,1.2
			c0.4,0.5,0.7,1.1,0.9,1.8c0.2,0.7,0.3,1.4,0.3,2.2c0,0.9-0.1,1.7-0.4,2.4c-0.2,0.7-0.6,1.3-1,1.8c-0.4,0.5-1,0.9-1.6,1.2
			C360.2,255.3,359.5,255.5,358.8,255.5z M362.5,249.7c0-0.6-0.1-1.2-0.2-1.8c-0.1-0.6-0.4-1-0.7-1.5c-0.3-0.4-0.7-0.7-1.1-1
			c-0.5-0.2-1-0.4-1.7-0.4c-0.7,0-1.2,0.1-1.7,0.4c-0.5,0.3-0.9,0.6-1.1,1c-0.3,0.4-0.5,0.9-0.7,1.5c-0.1,0.6-0.2,1.1-0.2,1.7
			c0,0.7,0.1,1.3,0.2,1.9s0.4,1.1,0.7,1.5c0.3,0.4,0.7,0.7,1.2,0.9c0.5,0.2,1,0.3,1.6,0.3c0.7,0,1.2-0.1,1.7-0.4
			c0.5-0.3,0.9-0.6,1.1-1c0.3-0.4,0.5-0.9,0.7-1.5C362.4,250.9,362.5,250.3,362.5,249.7z"/>
		<path d="M367.4,255.2h-1.3v-10.9h1.3v2h0c0.3-0.9,0.8-1.5,1.4-1.8c0.6-0.3,1.3-0.5,2.2-0.5v1.4c-0.7,0-1.3,0.1-1.8,0.3
			c-0.5,0.2-0.8,0.6-1.1,1s-0.5,0.9-0.6,1.4s-0.2,1.1-0.2,1.7V255.2z"/>
		<path d="M373.9,250c0,0.6,0.1,1.1,0.2,1.7c0.2,0.5,0.4,1,0.7,1.4c0.3,0.4,0.7,0.7,1.1,0.9c0.5,0.2,1,0.3,1.6,0.3
			c0.8,0,1.5-0.2,2.1-0.7c0.6-0.4,1-1,1.2-1.8h1.4c-0.2,0.5-0.4,1-0.6,1.4s-0.6,0.8-0.9,1.2c-0.4,0.3-0.8,0.6-1.3,0.8
			c-0.5,0.2-1.1,0.3-1.8,0.3c-0.9,0-1.6-0.1-2.2-0.4c-0.6-0.3-1.1-0.7-1.6-1.2c-0.4-0.5-0.7-1.1-0.9-1.8c-0.2-0.7-0.3-1.4-0.3-2.2
			s0.1-1.5,0.3-2.2c0.2-0.7,0.6-1.3,1-1.8s0.9-0.9,1.6-1.2c0.6-0.3,1.3-0.5,2.1-0.5c1.5,0,2.7,0.5,3.5,1.5c0.9,1,1.3,2.5,1.3,4.5
			H373.9z M381,249c0-0.5-0.1-1-0.2-1.5s-0.4-0.9-0.7-1.2c-0.3-0.3-0.6-0.6-1.1-0.8c-0.4-0.2-0.9-0.3-1.5-0.3s-1.1,0.1-1.5,0.3
			c-0.4,0.2-0.8,0.5-1.1,0.8c-0.3,0.4-0.5,0.8-0.7,1.2c-0.2,0.5-0.3,1-0.4,1.5H381z"/>
		<path d="M385.9,255.2h-1.3v-10.9h1.3v1.6h0c0.3-0.6,0.8-1.1,1.4-1.4c0.6-0.3,1.3-0.5,2-0.5c0.5,0,0.9,0.1,1.3,0.2
			c0.3,0.1,0.6,0.3,0.9,0.5c0.2,0.2,0.4,0.4,0.6,0.7c0.2,0.3,0.3,0.5,0.4,0.8c0.4-0.7,0.9-1.2,1.5-1.6c0.6-0.3,1.3-0.5,2.1-0.5
			c0.7,0,1.3,0.1,1.8,0.4c0.4,0.2,0.8,0.6,1,1c0.2,0.4,0.4,0.9,0.5,1.4c0.1,0.5,0.1,1,0.1,1.6v6.9h-1.3v-7.5c0-0.8-0.2-1.4-0.5-1.8
			c-0.3-0.4-0.9-0.7-1.8-0.7c-0.5,0-0.9,0.1-1.3,0.3c-0.4,0.2-0.8,0.5-1.1,0.9c-0.1,0.2-0.3,0.4-0.3,0.6c-0.1,0.2-0.2,0.5-0.2,0.8
			c-0.1,0.3-0.1,0.5-0.1,0.8c0,0.3,0,0.5,0,0.7v5.9h-1.3v-7.5c0-0.8-0.2-1.4-0.5-1.8c-0.3-0.4-0.9-0.7-1.8-0.7
			c-0.5,0-0.9,0.1-1.3,0.3c-0.4,0.2-0.8,0.5-1.1,0.9c-0.1,0.2-0.3,0.4-0.3,0.6c-0.1,0.2-0.2,0.5-0.2,0.8c-0.1,0.3-0.1,0.5-0.1,0.8
			c0,0.3,0,0.5,0,0.7V255.2z"/>
	</g>
	<g>
		<rect x="491.4" y="270.5" class="st0" width="61.5" height="36"/>
		<path d="M493.1,272.4v-1.9h1.4v1.9H493.1z M493.2,285.6v-10.9h1.3v10.9H493.2z"/>
		<path d="M499,289.9h-1.3v-15.2h1.3v1.9h0c0.2-0.4,0.4-0.7,0.7-0.9c0.3-0.3,0.6-0.5,0.9-0.7c0.3-0.2,0.7-0.3,1.1-0.4
			c0.4-0.1,0.7-0.1,1.1-0.1c0.9,0,1.6,0.1,2.2,0.4s1.1,0.7,1.5,1.2c0.4,0.5,0.7,1.1,0.9,1.8c0.2,0.7,0.3,1.4,0.3,2.2
			c0,0.8-0.1,1.5-0.3,2.2s-0.5,1.3-0.9,1.8c-0.4,0.5-0.9,0.9-1.5,1.3c-0.6,0.3-1.3,0.5-2.2,0.5c-0.8,0-1.5-0.2-2.2-0.5
			c-0.7-0.3-1.3-0.8-1.7-1.5V289.9z M499,280.2c0,0.6,0.1,1.2,0.3,1.8c0.2,0.6,0.4,1,0.7,1.4c0.3,0.4,0.7,0.7,1.2,1s1,0.4,1.5,0.4
			c0.6,0,1.2-0.1,1.7-0.4c0.5-0.3,0.9-0.6,1.2-1.1c0.3-0.4,0.5-1,0.7-1.6c0.1-0.6,0.2-1.2,0.2-1.9c0-0.7-0.1-1.3-0.3-1.8
			c-0.2-0.5-0.5-1-0.8-1.3s-0.7-0.6-1.2-0.8c-0.4-0.2-0.9-0.3-1.5-0.3c-0.6,0-1.1,0.1-1.6,0.4c-0.5,0.2-0.8,0.6-1.2,1
			c-0.3,0.4-0.5,0.9-0.7,1.5C499.1,279,499,279.6,499,280.2z"/>
		<path d="M511.2,282.2c0.2,0.9,0.5,1.6,1.1,2s1.2,0.6,2.2,0.6c0.5,0,0.9-0.1,1.2-0.2s0.6-0.3,0.8-0.5c0.2-0.2,0.4-0.4,0.5-0.6
			c0.1-0.2,0.2-0.5,0.2-0.8c0-0.5-0.2-0.9-0.5-1.2s-0.8-0.5-1.3-0.6c-0.5-0.1-1.1-0.3-1.7-0.4s-1.2-0.3-1.7-0.5
			c-0.5-0.2-0.9-0.5-1.3-0.9s-0.5-0.9-0.5-1.7c0-0.9,0.3-1.7,1-2.2s1.6-0.9,2.8-0.9c1.2,0,2.1,0.3,2.9,0.8c0.7,0.5,1.2,1.4,1.3,2.6
			h-1.3c-0.1-0.8-0.4-1.4-1-1.8c-0.5-0.3-1.2-0.5-2-0.5s-1.4,0.2-1.8,0.5c-0.4,0.3-0.6,0.8-0.6,1.4c0,0.5,0.2,0.9,0.5,1.1
			c0.3,0.3,0.8,0.5,1.3,0.6c0.5,0.2,1.1,0.3,1.7,0.4c0.6,0.1,1.2,0.3,1.7,0.5c0.5,0.2,0.9,0.5,1.3,0.9c0.3,0.4,0.5,0.9,0.5,1.6
			c0,0.5-0.1,1-0.3,1.4c-0.2,0.4-0.5,0.7-0.9,1c-0.4,0.3-0.9,0.5-1.4,0.6s-1.1,0.2-1.8,0.2c-0.6,0-1.2-0.1-1.7-0.3s-0.9-0.5-1.3-0.8
			s-0.6-0.7-0.8-1.2c-0.2-0.4-0.3-0.9-0.3-1.4H511.2z"/>
		<path d="M528.3,274.8h1.3v10.9h-1.3v-1.5c-0.2,0.2-0.4,0.4-0.6,0.6s-0.5,0.4-0.7,0.6c-0.3,0.2-0.6,0.3-1,0.4
			c-0.4,0.1-0.8,0.2-1.3,0.2c-0.7,0-1.3-0.1-1.8-0.3c-0.5-0.2-0.9-0.5-1.2-0.8c-0.3-0.4-0.5-0.8-0.7-1.3c-0.1-0.5-0.2-1-0.2-1.6
			v-7.2h1.3v7.1c0,0.9,0.2,1.7,0.7,2.2c0.4,0.5,1.1,0.7,2.1,0.7c0.5,0,1-0.1,1.4-0.3c0.4-0.2,0.8-0.5,1-0.9c0.3-0.4,0.5-0.8,0.7-1.3
			c0.2-0.5,0.2-1.1,0.2-1.7V274.8z"/>
		<path d="M533.7,285.6h-1.3v-10.9h1.3v1.6h0c0.3-0.6,0.8-1.1,1.4-1.4c0.6-0.3,1.3-0.5,2-0.5c0.5,0,0.9,0.1,1.3,0.2
			c0.3,0.1,0.6,0.3,0.9,0.5c0.2,0.2,0.4,0.4,0.6,0.7c0.2,0.3,0.3,0.5,0.4,0.8c0.4-0.7,0.9-1.2,1.5-1.6c0.6-0.3,1.3-0.5,2.1-0.5
			c0.7,0,1.3,0.1,1.8,0.4c0.4,0.2,0.8,0.6,1,1s0.4,0.9,0.5,1.4s0.1,1,0.1,1.6v6.9H546v-7.5c0-0.8-0.2-1.4-0.5-1.8
			c-0.3-0.4-0.9-0.7-1.8-0.7c-0.5,0-0.9,0.1-1.3,0.3c-0.4,0.2-0.8,0.5-1.1,0.9c-0.1,0.2-0.3,0.4-0.3,0.6c-0.1,0.2-0.2,0.5-0.2,0.8
			c-0.1,0.3-0.1,0.5-0.1,0.8c0,0.3,0,0.5,0,0.7v5.9h-1.3v-7.5c0-0.8-0.2-1.4-0.5-1.8c-0.3-0.4-0.9-0.7-1.8-0.7
			c-0.5,0-0.9,0.1-1.3,0.3s-0.8,0.5-1.1,0.9c-0.1,0.2-0.3,0.4-0.3,0.6c-0.1,0.2-0.2,0.5-0.2,0.8c-0.1,0.3-0.1,0.5-0.1,0.8
			c0,0.3,0,0.5,0,0.7V285.6z"/>
	</g>
	<g>
		<rect x="404.5" y="375.3" class="st0" width="96" height="22.5"/>
		<path d="M414.4,375.3h1.3v15.1h-1.3v-1.9h0c-0.2,0.4-0.4,0.7-0.7,1c-0.3,0.3-0.6,0.5-0.9,0.7c-0.3,0.2-0.7,0.3-1.1,0.4
			c-0.4,0.1-0.7,0.1-1.1,0.1c-0.9,0-1.6-0.1-2.2-0.4s-1.1-0.7-1.5-1.2c-0.4-0.5-0.7-1.1-0.9-1.8c-0.2-0.7-0.3-1.4-0.3-2.2
			c0-0.8,0.1-1.5,0.3-2.2c0.2-0.7,0.5-1.3,0.9-1.8c0.4-0.5,0.9-0.9,1.5-1.3c0.6-0.3,1.3-0.5,2.2-0.5c0.8,0,1.5,0.2,2.2,0.5
			c0.7,0.3,1.3,0.9,1.7,1.5V375.3z M414.4,385c0-0.6-0.1-1.2-0.3-1.8c-0.2-0.6-0.4-1-0.7-1.4s-0.7-0.7-1.2-1c-0.5-0.2-1-0.4-1.5-0.4
			c-0.7,0-1.2,0.1-1.7,0.4c-0.5,0.3-0.9,0.6-1.2,1.1s-0.5,1-0.7,1.6c-0.1,0.6-0.2,1.2-0.2,1.9c0,0.7,0.1,1.3,0.3,1.8
			c0.2,0.5,0.5,1,0.8,1.3s0.7,0.6,1.2,0.8c0.4,0.2,0.9,0.3,1.5,0.3c0.6,0,1.1-0.1,1.6-0.4s0.8-0.6,1.2-1s0.5-0.9,0.7-1.5
			C414.3,386.3,414.4,385.6,414.4,385z"/>
		<path d="M423.1,390.8c-0.7,0-1.4-0.1-2-0.4c-0.6-0.2-1.1-0.6-1.6-1.1c-0.5-0.5-0.8-1.1-1.1-1.8s-0.4-1.5-0.4-2.5
			c0-0.8,0.1-1.5,0.3-2.2c0.2-0.7,0.5-1.3,0.9-1.8s0.9-0.9,1.6-1.2c0.6-0.3,1.4-0.5,2.2-0.5c0.9,0,1.6,0.2,2.2,0.5s1.2,0.7,1.6,1.2
			c0.4,0.5,0.7,1.1,0.9,1.8c0.2,0.7,0.3,1.4,0.3,2.2c0,0.9-0.1,1.7-0.4,2.4c-0.2,0.7-0.6,1.3-1,1.8s-1,0.9-1.6,1.2
			C424.6,390.6,423.9,390.8,423.1,390.8z M426.8,385c0-0.6-0.1-1.2-0.2-1.8c-0.1-0.6-0.4-1-0.7-1.5c-0.3-0.4-0.7-0.7-1.1-1
			c-0.5-0.2-1-0.4-1.7-0.4c-0.7,0-1.2,0.1-1.7,0.4c-0.5,0.3-0.9,0.6-1.1,1c-0.3,0.4-0.5,0.9-0.7,1.5c-0.1,0.6-0.2,1.1-0.2,1.7
			c0,0.7,0.1,1.3,0.2,1.9c0.2,0.6,0.4,1.1,0.7,1.5s0.7,0.7,1.2,0.9c0.5,0.2,1,0.3,1.6,0.3c0.7,0,1.2-0.1,1.7-0.4s0.9-0.6,1.1-1
			c0.3-0.4,0.5-0.9,0.7-1.5C426.7,386.2,426.8,385.6,426.8,385z"/>
		<path d="M430.7,390.5v-15.1h1.3v15.1H430.7z"/>
		<path d="M439.5,390.8c-0.7,0-1.4-0.1-2-0.4c-0.6-0.2-1.1-0.6-1.6-1.1c-0.5-0.5-0.8-1.1-1.1-1.8s-0.4-1.5-0.4-2.5
			c0-0.8,0.1-1.5,0.3-2.2c0.2-0.7,0.5-1.3,0.9-1.8s0.9-0.9,1.6-1.2c0.6-0.3,1.4-0.5,2.2-0.5c0.9,0,1.6,0.2,2.2,0.5s1.2,0.7,1.6,1.2
			c0.4,0.5,0.7,1.1,0.9,1.8c0.2,0.7,0.3,1.4,0.3,2.2c0,0.9-0.1,1.7-0.4,2.4c-0.2,0.7-0.6,1.3-1,1.8s-1,0.9-1.6,1.2
			C440.9,390.6,440.2,390.8,439.5,390.8z M443.2,385c0-0.6-0.1-1.2-0.2-1.8c-0.1-0.6-0.4-1-0.7-1.5c-0.3-0.4-0.7-0.7-1.1-1
			c-0.5-0.2-1-0.4-1.7-0.4c-0.7,0-1.2,0.1-1.7,0.4c-0.5,0.3-0.9,0.6-1.1,1c-0.3,0.4-0.5,0.9-0.7,1.5c-0.1,0.6-0.2,1.1-0.2,1.7
			c0,0.7,0.1,1.3,0.2,1.9c0.2,0.6,0.4,1.1,0.7,1.5s0.7,0.7,1.2,0.9c0.5,0.2,1,0.3,1.6,0.3c0.7,0,1.2-0.1,1.7-0.4s0.9-0.6,1.1-1
			c0.3-0.4,0.5-0.9,0.7-1.5C443.1,386.2,443.2,385.6,443.2,385z"/>
		<path d="M448.1,390.5h-1.3v-10.9h1.3v2h0c0.3-0.9,0.8-1.5,1.4-1.8c0.6-0.3,1.3-0.5,2.2-0.5v1.4c-0.7,0-1.3,0.1-1.8,0.3
			c-0.5,0.2-0.8,0.6-1.1,1s-0.5,0.9-0.6,1.4c-0.1,0.6-0.2,1.1-0.2,1.7V390.5z"/>
	</g>
	<g>
		<rect x="517.9" y="390.6" class="st0" width="78" height="37.5"/>
		<path d="M524.5,399.4c0.2,0,0.5-0.1,0.9-0.1c0.3-0.1,0.6-0.1,0.8-0.2s0.3-0.3,0.4-0.5c0-0.2,0.1-0.4,0.1-0.6
			c0-0.6-0.2-1.2-0.6-1.6c-0.4-0.4-1.1-0.6-2.1-0.6c-0.4,0-0.8,0-1.2,0.1s-0.7,0.2-1,0.4c-0.3,0.2-0.5,0.4-0.7,0.8
			c-0.2,0.3-0.3,0.7-0.3,1.2h-1.3c0-0.6,0.2-1.2,0.4-1.6s0.6-0.8,1-1.1c0.4-0.3,0.9-0.5,1.4-0.6c0.5-0.1,1.1-0.2,1.7-0.2
			c0.5,0,1.1,0.1,1.5,0.2c0.5,0.1,0.9,0.3,1.3,0.6c0.4,0.3,0.6,0.6,0.8,1c0.2,0.4,0.3,1,0.3,1.6v5.9c0,0.5,0.1,0.8,0.3,0.9
			s0.5,0.1,1.1-0.1v1c-0.1,0-0.2,0.1-0.4,0.1c-0.2,0.1-0.4,0.1-0.6,0.1c-0.2,0-0.4,0-0.6-0.1c-0.2,0-0.4-0.1-0.5-0.2
			c-0.1-0.1-0.2-0.2-0.3-0.4c-0.1-0.1-0.1-0.3-0.2-0.5c0-0.2,0-0.4,0-0.6c-0.5,0.6-1.1,1-1.8,1.3c-0.7,0.3-1.4,0.5-2.2,0.5
			c-0.5,0-0.9-0.1-1.4-0.2c-0.4-0.1-0.8-0.3-1.2-0.6c-0.3-0.3-0.6-0.6-0.8-1c-0.2-0.4-0.3-0.8-0.3-1.4c0-1.8,1.3-2.9,3.8-3.3
			L524.5,399.4z M526.6,400c-0.5,0.2-1.1,0.4-1.6,0.4c-0.5,0.1-1.1,0.1-1.6,0.2c-1,0.1-1.7,0.3-2.3,0.7s-0.8,0.9-0.8,1.7
			c0,0.3,0.1,0.6,0.2,0.9c0.1,0.2,0.3,0.4,0.5,0.6s0.5,0.3,0.8,0.4c0.3,0.1,0.6,0.1,0.9,0.1c0.5,0,1-0.1,1.5-0.2
			c0.5-0.1,0.9-0.3,1.3-0.6s0.7-0.6,0.9-1c0.2-0.4,0.3-0.9,0.3-1.4V400z"/>
		<path d="M532.2,405.7H531v-10.9h1.3v1.6h0c0.3-0.6,0.8-1.1,1.4-1.4c0.6-0.3,1.3-0.5,2-0.5c0.5,0,0.9,0.1,1.3,0.2
			c0.3,0.1,0.6,0.3,0.9,0.5c0.2,0.2,0.4,0.4,0.6,0.7s0.3,0.5,0.4,0.8c0.4-0.7,0.8-1.2,1.5-1.6c0.6-0.3,1.3-0.5,2.1-0.5
			c0.7,0,1.3,0.1,1.8,0.4c0.4,0.2,0.8,0.6,1,1c0.2,0.4,0.4,0.9,0.5,1.4c0.1,0.5,0.1,1,0.1,1.6v6.9h-1.3v-7.5c0-0.8-0.2-1.4-0.5-1.8
			s-0.9-0.7-1.8-0.7c-0.5,0-0.9,0.1-1.3,0.3s-0.8,0.5-1.1,0.9c-0.1,0.2-0.3,0.4-0.3,0.6c-0.1,0.2-0.2,0.5-0.2,0.8
			c-0.1,0.3-0.1,0.5-0.1,0.8c0,0.3,0,0.5,0,0.7v5.9h-1.3v-7.5c0-0.8-0.2-1.4-0.5-1.8s-0.9-0.7-1.8-0.7c-0.5,0-0.9,0.1-1.3,0.3
			c-0.4,0.2-0.8,0.5-1.1,0.9c-0.1,0.2-0.3,0.4-0.3,0.6c-0.1,0.2-0.2,0.5-0.2,0.8c-0.1,0.3-0.1,0.5-0.1,0.8c0,0.3,0,0.5,0,0.7V405.7z
			"/>
		<path d="M549.4,400.6c0,0.6,0.1,1.1,0.2,1.7c0.2,0.5,0.4,1,0.7,1.4c0.3,0.4,0.7,0.7,1.1,0.9c0.5,0.2,1,0.3,1.6,0.3
			c0.8,0,1.5-0.2,2.1-0.7s1-1,1.2-1.8h1.4c-0.2,0.5-0.4,1-0.6,1.4c-0.3,0.4-0.6,0.8-0.9,1.2c-0.4,0.3-0.8,0.6-1.3,0.8
			s-1.1,0.3-1.8,0.3c-0.9,0-1.6-0.1-2.2-0.4s-1.1-0.7-1.6-1.2c-0.4-0.5-0.7-1.1-0.9-1.8c-0.2-0.7-0.3-1.4-0.3-2.2s0.1-1.5,0.3-2.2
			c0.2-0.7,0.6-1.3,1-1.8c0.4-0.5,0.9-0.9,1.6-1.2s1.3-0.5,2.1-0.5c1.5,0,2.7,0.5,3.5,1.5c0.9,1,1.3,2.5,1.3,4.5H549.4z
			 M556.5,399.5c0-0.5-0.1-1-0.2-1.5c-0.1-0.5-0.4-0.9-0.7-1.2c-0.3-0.3-0.6-0.6-1.1-0.8c-0.4-0.2-0.9-0.3-1.5-0.3
			c-0.6,0-1.1,0.1-1.5,0.3c-0.4,0.2-0.8,0.5-1.1,0.8c-0.3,0.3-0.5,0.8-0.7,1.2c-0.2,0.5-0.3,1-0.4,1.5H556.5z"/>
		<path d="M564.1,405.8c-0.2,0-0.4,0.1-0.6,0.1s-0.5,0.1-0.8,0.1c-0.6,0-1.1-0.2-1.4-0.5s-0.5-0.9-0.5-1.7v-8h-1.5v-1h1.5v-3h1.3v3
			h2v1h-2v7.5c0,0.3,0,0.5,0,0.7c0,0.2,0.1,0.4,0.1,0.5c0.1,0.1,0.2,0.2,0.3,0.3c0.1,0.1,0.4,0.1,0.6,0.1c0.2,0,0.3,0,0.5,0
			c0.2,0,0.3-0.1,0.5-0.1V405.8z"/>
	</g>
	<g>
	</g>
	<g>
	</g>
	<g>
	</g>
	<g>
	</g>
	<g>
	</g>
	<g>
	</g>
	<g>
	</g>
	<g>
	</g>
	<g>
	</g>
	<g>
	</g>
	<g>
	</g>
	<g>
	</g>
	<g>
	</g>
	<g>
	</g>
	<g>
	</g>
</g>
</svg>
